<svg width="104" height="87" viewBox="0 0 104 87" fill="none" xmlns="http://www.w3.org/2000/svg">
<g clip-path="url(#clip0_1102_517)">
<path d="M82.4356 79.1923C79.6683 80.5254 76.6151 80.9063 73.5615 80.2397C71.4624 79.7638 69.5538 79.0973 67.6457 78.2405L63.447 76.5265C59.8213 75.384 55.909 75.2887 52.1876 76.2409H51.806C48.0846 75.1934 44.1726 75.2887 40.5465 76.5265C39.1152 77.0027 37.7796 77.6689 36.3483 78.2405C34.4397 79.0973 32.4359 79.8588 30.4321 80.3351C27.4741 81.0016 24.3253 80.6207 21.5581 79.2876L21.1765 79.0973C21.0811 79.0973 21.0811 79.0973 21.0811 79.1923C22.894 81.0966 25.2795 82.4297 27.7604 83.0962C29.4779 83.5721 31.2909 83.6674 33.0084 83.4771C35.6801 83.0962 38.2564 82.144 40.4512 80.6207L44.4589 77.9545C45.9855 77.0027 47.7983 76.6218 49.5159 77.0027C50.47 77.0977 49.7069 77.5739 49.6112 77.6689C47.2258 78.8117 44.9357 80.2397 42.8366 81.8584C41.4053 82.9056 38.829 85.3811 38.829 85.3811L40.7375 86.9998L42.8366 84.7149C45.413 82.0487 48.3709 79.7638 51.615 77.9545C51.9013 77.7642 52.1876 77.7642 52.4738 77.9545C55.7183 79.7638 58.6763 82.0487 61.2526 84.7149L63.3517 86.9998L65.2603 85.3811L61.2526 81.8584C59.1531 80.2397 56.8634 78.8117 54.4777 77.6689C54.287 77.5739 53.6189 77.0977 54.5733 77.0027C56.2909 76.6218 58.1037 77.0027 59.6304 77.9545L63.638 80.6207C65.8328 82.144 68.4088 83.0962 71.0808 83.4771C72.7984 83.6674 74.6112 83.5721 76.3288 83.0962C78.8095 82.3343 81.1952 81.0016 83.0081 79.1923C83.0081 79.1923 82.9128 79.0973 82.8171 79.0973L82.4356 79.1923ZM91.7865 70.9089C90.5462 71.8611 89.2102 72.5276 87.7789 73.0035C85.7754 73.5751 83.5806 73.9556 81.4815 73.9556C78.7142 74.051 76.0425 74.2412 73.2752 74.6222C73.0846 74.6222 72.989 74.6222 73.0846 74.5272C75.47 73.5751 77.3785 71.6708 78.4279 69.3855L81.0996 63.9586C81.0996 63.8633 81.0996 63.8633 81.0996 63.768C80.909 63.8633 78.237 66.1485 76.9966 67.291L72.5121 71.6708C70.5083 73.3844 68.1225 74.6222 65.5465 75.2887H65.4509L65.3556 75.384L70.5083 76.6218C72.7027 77.2883 74.9928 77.6689 77.2829 77.8596C83.1034 78.4308 88.7333 75.765 91.9775 71.0042C91.9775 70.9089 91.8822 70.9089 91.7865 70.9089ZM100.183 58.1504C98.8477 59.7691 97.2255 61.1975 95.4126 62.3399C93.886 63.3874 92.2637 64.2442 90.5462 65.0057C88.3514 65.8629 86.3479 67.1007 84.5347 68.5287L84.1531 68.8143C84.0578 68.8143 84.0578 68.8143 84.0578 68.719C84.0578 68.624 86.9204 65.7676 87.7789 59.7691C87.8745 57.5792 88.2561 55.4846 88.7333 53.39C88.7333 53.2947 88.7333 53.2947 88.7333 53.1994C86.7295 55.6749 85.2029 58.4364 84.1531 61.3878L82.4356 66.2435C81.7677 68.4334 80.527 70.433 78.9051 72.0517L78.7142 72.242V72.3373C78.9051 72.3373 79.0957 72.242 79.2867 72.242L84.821 71.0995C87.8745 70.6233 90.7371 69.3855 93.2178 67.5766C95.7942 65.7676 97.798 63.2921 99.2293 60.531C99.6109 59.7691 99.8971 59.0076 100.183 58.2457C100.374 58.0554 100.279 58.0554 100.183 58.1504ZM103.809 43.8689C102.951 46.4394 101.424 48.8199 99.4203 50.7239C97.1302 52.9138 95.0311 55.3893 93.1225 57.8648C93.1225 57.9601 92.9316 57.8648 93.0272 57.7698C93.7904 55.199 93.9813 52.4379 93.5997 49.6767C93.2178 47.3915 92.2637 44.916 91.9775 42.1549L91.8822 42.0596C91.8822 42.1549 91.7865 42.2502 91.7865 42.3455C91.214 44.1545 90.8324 45.9635 90.6415 47.8678C90.5462 50.1527 90.9278 53.1044 90.7371 55.3893C90.5462 58.0554 90.3552 60.8166 89.1149 63.1968C89.1149 63.2921 89.1149 63.2921 89.1149 63.3874L94.8401 59.8644C97.2255 58.341 99.2293 56.4368 100.852 54.1515C102.951 51.2001 104 47.7725 104 44.1545C104 44.0592 104 43.8689 104 43.7736C103.905 43.7736 103.809 43.8689 103.809 43.8689Z" fill="white"/>
<path d="M97.7023 45.3923C97.7979 45.3923 97.7979 45.3923 97.7023 45.3923C97.7023 45.4876 97.7023 45.3923 97.7023 45.3923C97.7023 44.6305 97.7023 43.869 97.607 43.1071C97.416 40.4413 95.7941 38.2514 94.3628 35.9662C93.4083 34.5381 92.5496 33.0148 91.7864 31.3961C91.7864 31.3961 91.6908 31.3009 91.5955 31.3009C91.5955 31.4913 91.5955 32.3482 91.6908 32.8243C92.168 36.6327 93.1221 40.4413 94.5534 44.0592C95.4122 46.3445 95.6984 48.7247 95.5078 51.1049C95.5078 51.2955 95.5078 51.2955 95.6031 51.3908C96.4619 50.1531 98.1795 48.4391 99.2289 47.106C100.279 45.7732 106.004 39.2989 103.237 30.3488C103.141 29.968 102.95 29.5871 102.76 29.2063L102.664 29.3015C102.664 35.7759 99.5151 38.537 98.2748 42.9168C97.9885 43.9643 97.7979 44.7258 97.7023 45.3923ZM97.7979 32.0626L97.2254 30.5392L96.8435 29.6823C95.8894 27.9685 94.5534 26.4451 92.9315 25.3026C91.5955 24.16 90.4504 22.9223 89.4964 21.4941C89.4964 21.4941 89.4007 21.4941 89.3054 21.4941H89.2101C89.3054 21.7797 90.1642 24.6361 90.7367 25.969C91.6908 27.7781 92.8358 29.5871 94.1718 31.1105L94.4581 31.4914C96.0803 33.6812 97.3207 36.0615 98.1795 38.6323C98.1795 38.7273 98.2748 38.7273 98.2748 38.7273L99.897 33.7764C100.47 32.0626 100.946 30.2536 101.328 28.4445C101.901 24.16 100.565 18.7329 98.0842 15.6862C98.0842 15.6862 97.9885 15.7814 97.9885 15.8766L98.0842 16.2574L98.2748 16.8287C98.752 19.1138 98.8473 21.5893 98.3704 23.8744C97.9885 25.6834 97.8932 27.5877 97.8932 29.4919C97.8932 29.7775 98.0842 32.1578 98.0842 32.253C98.0842 32.3482 97.9885 32.253 97.8932 32.253L97.7979 32.0626ZM90.1642 8.1644C90.9276 8.92609 91.5955 9.78302 91.977 10.8303C92.6452 12.4489 92.8358 14.8292 93.313 16.6383L94.1718 19.7803C94.1718 19.8755 94.0765 19.9707 93.9809 19.8755C92.5496 18.1617 90.832 16.7335 88.8285 15.5909C87.4925 14.8292 86.4428 13.7819 85.4887 12.6394L85.0115 11.9729C85.0115 11.9729 84.9162 11.8777 84.8209 11.9729C84.8209 12.0681 84.8209 12.1633 84.8209 12.2585C85.2977 14.3532 86.2522 16.3526 87.7788 17.9712C89.0191 19.1138 90.3551 20.1611 91.5955 21.2084C93.2177 22.5414 94.7444 24.16 96.1757 25.7786C96.1757 25.7786 96.271 25.8738 96.271 25.7786V24.2552L96.3666 19.685V18.1617C96.3666 16.6383 96.0803 15.0197 95.5078 13.5915C94.5534 11.2112 92.7405 9.30694 90.5457 8.1644C90.4504 8.06919 90.2595 8.06919 90.0689 7.97397C90.0689 7.97397 90.0689 8.06919 90.1642 8.1644ZM80.336 3.68945C81.672 4.92721 82.817 6.35536 83.8664 7.87876C84.8209 9.40216 85.8703 10.7351 87.2063 11.9729C88.065 12.8298 90.6414 14.8292 91.3092 15.4005C91.2139 14.6388 89.9732 9.21173 86.6337 6.54579C84.7252 5.02239 82.4351 3.87984 80.0497 3.30859C80.0497 3.4038 80.0497 3.4038 80.0497 3.49902L80.336 3.68945ZM26.9013 77.8596C29.096 77.6693 31.386 77.2884 33.4853 76.6219L38.6379 75.3841H38.7332C38.7332 75.3841 38.7332 75.2888 38.6379 75.2888H38.5426C35.9663 74.6222 33.5807 73.3845 31.4814 71.6708L26.9967 67.3863L22.8937 63.8634V64.054C23.2754 64.6252 24.7067 67.7673 25.5655 69.4809C26.6151 71.8611 28.5234 73.6704 30.9089 74.6222C31.0044 74.7176 30.9089 74.7176 30.7181 74.7176C28.0463 74.3366 25.2792 74.1463 22.512 74.051C20.4128 74.051 18.2182 73.6704 16.2144 73.0989C14.7831 72.623 13.4472 71.9564 12.2068 71.0043C12.1113 71.0043 12.1113 71.0043 12.0159 71.0043C13.9243 73.6704 16.596 75.765 19.6495 76.9075C22.035 77.6693 24.4204 77.9549 26.9013 77.8596ZM24.7067 72.242C24.8975 72.242 24.9929 72.3374 25.2792 72.3374V72.242L25.0884 72.0518C23.4662 70.4331 22.3212 68.4335 21.5578 66.2439L19.8403 61.3878C18.7907 58.4364 17.264 55.6753 15.2602 53.1998C15.2602 53.2948 15.2602 53.2948 15.2602 53.3901C15.8327 55.4847 16.119 57.5796 16.3098 59.7692C17.1686 65.6723 20.0311 68.5288 20.0311 68.6241C20.0311 68.7194 20.0311 68.8144 19.9357 68.7194L19.5541 68.4335C17.7411 67.0054 15.7373 65.7676 13.5426 64.9108C11.8251 64.149 10.203 63.2921 8.67625 62.2447C6.86331 61.1022 5.24118 59.6742 3.90529 58.0555H3.80988C4.09614 58.8174 4.3824 59.5789 4.76407 60.3407C6.19538 63.1018 8.29458 65.5774 10.8709 67.3863C13.3518 69.2906 16.2144 70.5284 19.2678 70.909C21.0808 71.3852 22.8937 71.8611 24.7067 72.242ZM9.34421 59.8645L15.0694 63.3875C15.0694 63.3875 15.1648 63.2921 15.1648 63.1968C13.9243 60.7213 13.7335 58.0555 13.5426 55.3897C13.3518 53.0092 13.7335 50.1531 13.6381 47.8678C13.4472 45.9635 13.0655 44.0592 12.493 42.2503C12.493 42.1549 12.3976 42.06 12.3976 41.9647L12.3022 42.06C12.1113 44.8211 11.0617 47.2966 10.6801 49.5815C10.2984 52.2476 10.4892 55.0088 11.2526 57.6746C11.348 57.7699 11.1571 57.8652 11.1571 57.7699C9.24877 55.1991 7.14957 52.8189 4.85948 50.629C2.85569 48.7247 1.32898 46.4398 0.470211 43.869C0.470211 43.869 0.374792 43.7736 0.279373 43.7736C0.183954 43.7736 0.279373 43.9643 0.279373 44.1546C0.279373 47.6775 1.32898 51.2002 3.4282 54.1519C4.95492 56.3418 6.95871 58.3411 9.34421 59.8645ZM8.29458 51.4858C8.39002 51.3908 8.39002 51.3908 8.39002 51.2002C8.19917 48.82 8.48543 46.3445 9.43962 44.1546C10.7755 40.5366 11.7297 36.8233 12.3022 32.9195C12.3022 32.4435 12.3976 31.5866 12.3976 31.3961C12.3022 31.3961 12.3022 31.3961 12.3022 31.4914C11.5388 33.1099 10.6801 34.6333 9.72588 36.0615C8.19917 38.1561 6.67245 40.4413 6.4816 43.1071C6.38619 43.869 6.38619 44.6305 6.4816 45.3923C6.4816 45.3923 6.4816 45.4876 6.38619 45.4876C6.38619 45.4876 6.38619 45.4876 6.38619 45.3923L5.71826 43.1071C4.3824 38.7273 1.32898 35.9662 1.32898 29.4919L1.23356 29.3967C1.04273 29.7775 0.947306 30.1584 0.756468 30.5392C-2.01069 39.4891 3.61903 45.9635 4.76407 47.2966C5.90912 48.6293 7.43579 50.248 8.29458 51.4858ZM4.28699 33.6812L5.90912 38.6323C5.90912 38.6323 6.00452 38.6323 6.00452 38.537C6.86331 35.9662 8.19917 33.586 9.72588 31.3961L10.0121 31.0153C11.348 29.3967 12.493 27.6829 13.4472 25.8738C14.0197 24.5409 14.8785 21.6845 14.9739 21.3989H14.8785C14.7831 21.3989 14.7831 21.3989 14.6877 21.3989C13.7335 22.8271 12.5885 24.0648 11.2526 25.2074C9.63044 26.3499 8.19917 27.8733 7.24498 29.6823C7.14957 29.9679 6.95872 30.2536 6.86331 30.5392L6.29078 32.1578C6.29078 32.1578 6.19538 32.3482 6.19538 32.1578C6.19538 31.9674 6.38619 29.7775 6.38619 29.3967C6.38619 27.4924 6.19538 25.5882 5.81367 23.7792C5.33659 21.3989 5.432 19.0186 5.90912 16.7335C5.90912 16.5431 6.00452 16.3526 6.09993 16.1622C6.09993 16.067 6.19538 15.8766 6.19538 15.7814C6.19538 15.6862 6.19538 15.6862 6.09993 15.5909C3.61903 18.6377 2.18776 24.16 2.76027 28.3493C3.23737 30.1584 3.71447 31.9674 4.28699 33.6812ZM7.72205 19.7803L7.8175 24.3505V25.7786H7.91291C9.24877 24.0648 10.7755 22.5414 12.3976 21.1132L16.2144 17.876C17.7411 16.2574 18.6953 14.258 19.1723 12.1633C19.1723 12.0681 19.1723 11.9729 19.1723 11.8777H19.0769L18.5999 12.5441C17.7411 13.6867 16.596 14.734 15.3556 15.4957C13.0655 16.9239 11.5388 17.9712 10.203 19.7803C10.1075 19.8755 10.0121 19.8755 10.1076 19.685L10.9663 16.5431C11.4434 14.734 11.6343 12.3537 12.3022 10.7351C12.6839 9.78302 13.3518 8.83087 14.1152 8.06919C14.1152 7.97397 14.1152 7.97397 14.1152 7.87876C13.9243 7.87876 13.8289 7.97397 13.6381 8.06919C11.2526 9.30694 9.53503 11.3064 8.58084 13.5915C8.00832 15.0197 7.62665 16.5431 7.72205 18.1617V19.7803ZM12.7793 15.3053L16.9777 11.8777C18.2182 10.6399 19.3632 9.30694 20.3174 7.78354C21.2716 6.26014 22.512 4.83199 23.8479 3.59423L24.1342 3.30859C24.1342 3.21338 24.1342 3.21338 24.1342 3.11816C21.7487 3.68945 19.4586 4.73678 17.5502 6.35536C14.0197 9.11652 12.8747 14.5436 12.7793 15.3053ZM51.1377 44.8211C51.424 44.4402 50.7562 44.1546 50.5652 44.8211C50.3743 45.4876 50.8515 45.297 51.1377 44.8211ZM58.3896 28.0637C58.1033 27.9685 57.0539 29.2063 57.2445 29.3967C57.7217 29.1111 58.1033 28.635 58.3896 28.0637ZM58.5805 27.8733C58.7715 27.9685 59.4393 27.5877 59.344 27.4924C59.2483 27.3972 58.3896 27.0164 58.3896 27.2068C58.3896 27.5877 58.4852 27.7781 58.5805 27.8733ZM71.4619 39.6794C71.8438 39.5845 71.7482 39.0132 71.4619 39.0132C71.1757 39.0132 70.7941 39.4891 70.8894 39.4891C70.985 39.4891 71.2713 39.7748 71.4619 39.6794ZM66.7864 27.0164C66.5002 27.0164 66.4049 27.302 66.6911 27.4924C66.9774 27.5877 67.1683 27.4924 67.359 27.3972C67.5499 27.302 67.7409 27.1116 67.7409 26.826C67.7409 26.5403 67.359 26.1595 67.5499 25.969C67.7409 25.7786 68.0271 26.0643 68.2177 25.969C68.4087 25.8738 68.504 25.6834 68.504 25.493C68.504 25.3026 68.4087 24.7313 68.0271 24.7313C67.6452 24.7313 67.2637 25.493 67.2637 25.493C67.1683 25.6834 67.1683 25.969 67.2637 26.1595C67.359 26.5403 67.2637 27.0164 66.7864 27.0164Z" fill="white"/>
<path d="M73.0845 27.1117C73.0845 27.3022 73.5614 28.5399 73.657 28.8256C73.7523 29.1112 73.8476 30.1585 74.0386 30.0633C74.2295 29.9681 74.2295 29.3968 74.1339 29.1112C74.0386 28.4447 73.8476 27.683 73.657 27.1117C73.5614 26.7309 72.8935 25.3027 72.7026 25.3979C72.512 25.4931 72.9888 26.35 73.0845 26.7309C73.1798 27.1117 72.9888 26.9213 73.0845 27.1117ZM69.7447 10.9257C70.0309 11.0209 70.0309 10.4496 69.5537 10.0688C69.0768 9.68795 68.3134 9.87835 68.5043 10.0688C68.8859 10.3544 69.2675 10.7353 69.7447 10.9257ZM55.4316 6.83158C54.7638 6.45072 55.3363 5.87947 54.8594 5.49861C54.2869 5.30818 53.7144 5.40339 53.3325 5.78425C52.8556 6.35551 53.905 6.16508 54.1913 6.3555C54.4775 6.54593 55.4316 7.21244 55.5273 7.11722C55.6226 7.02201 55.5273 6.83158 55.4316 6.83158ZM59.2487 4.92732C58.3899 4.54649 55.241 4.54649 55.3363 5.40339C55.4316 6.26029 57.1492 5.40339 57.6264 5.40339C58.1036 5.40339 60.0118 5.30818 59.2487 4.92732ZM50.5655 41.6793C50.3746 41.584 50.0883 41.7743 49.993 41.584C49.8974 41.3937 49.7067 41.4886 49.7067 41.584C49.7067 41.6793 49.6111 41.8696 49.8021 42.0599C49.993 42.2505 50.3746 42.2505 50.5655 42.0599C50.6608 41.9649 50.6608 41.7743 50.5655 41.6793ZM48.7523 35.2999C49.0386 35.2999 49.0386 35.1096 49.1342 35.1096C49.2295 35.1096 49.1342 35.2999 49.4205 35.2999C49.7067 35.2999 49.993 34.6335 49.1342 34.6335C48.4661 34.6335 48.5617 35.2999 48.7523 35.2999ZM49.8974 36.0617C49.4205 35.9664 49.5158 36.252 49.1342 36.252C48.5617 36.3473 49.0386 35.8714 48.848 35.6808C48.7523 35.5855 48.466 36.0617 48.3707 36.3473C48.3707 36.5376 48.3707 36.9185 48.5617 37.0139L50.3746 37.2041C50.7561 37.2041 50.3746 36.157 49.8974 36.0617ZM43.9815 42.2505C44.1725 42.2505 44.2678 41.6793 44.1725 41.3937C44.0768 41.1081 43.5043 41.2983 43.5043 41.4886C43.5043 41.6793 43.8862 42.2505 43.9815 42.2505ZM36.3478 42.2505C36.3478 42.0599 36.3478 41.2983 36.1572 41.1081C35.9662 40.9174 35.9662 41.203 35.8709 41.203C35.7753 41.203 35.7753 40.8221 35.68 40.8221C35.5847 40.8221 35.68 41.3937 35.8709 41.7743C36.0615 42.1552 36.3478 42.7264 36.3478 42.2505ZM36.1572 40.5365C36.3478 39.9653 36.4434 39.3941 36.4434 38.8228C36.4434 38.3469 36.1572 37.966 36.0615 37.966C35.9662 37.966 36.0615 38.2516 36.1572 38.7275C36.1572 39.2038 35.9662 39.6797 35.8709 40.1559C35.8709 40.2509 36.0615 40.7271 36.1572 40.5365Z" fill="white"/>
<path d="M26.4248 61.8639C40.6422 76.0505 63.5428 76.0505 77.7605 61.8639C91.9779 47.6774 91.9779 24.8265 77.7605 10.64C63.5428 -3.54665 40.6422 -3.54665 26.4248 10.64C12.2074 24.8265 12.2074 47.7727 26.4248 61.8639ZM17.36 37.0138H22.8943C22.9897 39.8699 23.4668 42.631 24.3256 45.2972C24.0394 45.2019 23.7531 45.1066 23.4668 44.9163C23.0852 44.726 22.7989 45.0116 22.7035 45.0116C22.3218 45.0116 21.8447 44.726 21.8447 45.0116C21.8447 45.2972 22.2264 45.1066 22.2264 45.2972C22.2264 45.4875 21.2722 45.4875 21.1768 45.1066C21.0813 44.726 20.8905 44.345 20.7951 44.8209C20.6997 45.2972 20.318 45.2019 20.1271 45.2972C20.0317 45.3925 19.9363 45.5828 19.9363 45.7731C19.9363 45.9637 19.4592 45.8684 19.4592 46.154C19.4592 46.4396 19.7455 46.535 19.8409 46.8206C19.9363 47.1062 20.2226 47.2965 20.0317 47.3918C19.8409 47.4871 19.9363 47.2965 19.7455 47.3918C19.5547 47.4871 20.6043 50.3435 20.7951 50.2482C20.9859 50.1529 20.5088 49.2961 20.5088 48.9151C20.5088 48.5342 20.6043 48.4392 20.8905 48.2486C21.1768 48.0583 21.9401 49.3914 22.2264 49.2008C22.5126 49.0105 22.131 48.8198 22.4172 48.7249C22.7035 48.6295 23.5622 49.9626 23.8485 49.5817C24.0394 49.2961 24.2302 49.772 24.2302 49.8673C24.5164 50.3435 24.9935 50.3435 25.2798 50.9148C25.5661 51.486 26.234 52.5331 26.7111 52.5331C27.1882 52.5331 26.9019 52.0572 27.0927 52.0572C27.2836 52.0572 27.4744 52.7237 27.7607 53.1047C27.9515 53.3903 28.2378 53.5806 28.6195 53.6759C29.2874 54.5327 30.0508 55.3895 30.8141 56.2464L26.9019 60.1503C20.8905 54.0565 17.4554 45.7731 17.36 37.0138ZM48.9438 29.1111L48.5622 29.3015C47.9897 29.5871 47.5125 29.8728 47.1309 30.2536L43.2186 26.3499C45.5087 24.3505 48.3713 23.1127 51.3292 23.0175V28.5398C50.6614 28.635 49.9932 28.7302 49.3254 29.0159C49.5163 28.635 49.8979 28.2542 49.8979 28.2542C49.8979 28.2542 49.2301 28.635 48.9438 29.1111ZM45.9859 38.1563C45.9859 38.1563 45.9859 38.2516 45.9859 38.1563C45.9859 38.2516 45.9859 38.3466 45.9859 38.3466C45.9859 38.1563 45.8902 38.0609 45.7949 37.8707C45.6996 37.7753 45.604 37.68 45.5087 37.68C45.4134 37.68 45.3177 37.68 45.2224 37.68H45.0315L44.8408 37.7753H43.5048C43.3139 37.7753 43.2186 37.7753 43.2186 37.68C43.1233 37.2994 43.6958 37.585 44.0774 36.4423C44.1727 36.3473 44.1727 36.1566 44.2683 36.0617L44.3636 35.871L44.4589 35.7761L44.5546 35.6807C44.7452 35.4905 44.9361 35.4905 45.1271 35.4905H45.3177L45.5087 35.6807L45.7949 36.252C45.8902 36.3473 45.9859 36.3473 45.9859 36.4423C46.1765 36.5376 46.2721 36.6329 46.3675 36.7282L46.4628 36.8232V36.9185C46.5584 37.0138 46.5584 37.0138 46.6537 37.0138H46.749C46.8447 37.0138 46.8447 37.0138 46.94 37.0138H47.0353C47.2262 36.9185 47.2262 37.0138 47.3215 37.0138V37.1088C47.3215 37.2041 47.3215 37.2041 47.2262 37.2994C47.2262 37.3944 47.1309 37.3944 47.1309 37.4897C47.0353 37.585 46.94 37.68 46.8447 37.68C46.6537 37.68 46.4628 37.585 46.3675 37.585C46.2721 37.585 46.1765 37.585 46.1765 37.68V38.1563H45.9859ZM35.6805 47.2965C35.3942 46.8206 35.2989 46.154 35.2989 45.5828C35.2989 45.0116 35.108 44.4404 34.8217 43.9641C34.7263 43.5832 34.6309 43.2026 34.6309 42.8217C34.6309 42.1551 34.0583 42.3454 34.0583 42.1551C34.0583 41.9649 34.5355 42.1551 34.5355 41.9648C34.5355 41.7742 33.9629 41.0127 33.4858 40.8221C33.0087 40.6318 33.1996 40.3462 33.1996 40.0606C33.1996 39.7749 33.1996 39.4893 33.0087 39.2987C32.9133 38.9178 33.0087 38.2516 33.4858 38.2516C33.6767 38.2516 33.9629 38.4419 34.2492 38.2516C34.5355 38.0609 34.3446 37.4897 34.3446 37.0138H37.0165C37.0165 37.3944 37.1118 37.8707 37.1118 38.2516C36.9208 38.3466 36.8255 38.5372 36.9208 38.6322C37.0165 38.7275 37.1118 38.8228 37.2071 38.7275C37.6843 41.4886 38.9247 44.0594 40.8332 46.154L36.9208 50.0576C36.6346 49.772 36.3483 49.3914 36.0621 49.0105C36.0621 48.9151 36.0621 48.8198 36.0621 48.7249C36.0621 48.0583 35.5852 47.6774 35.3942 47.1062L35.6805 47.2965ZM31.9591 40.6318C31.6729 39.4893 31.5774 38.2516 31.482 37.0138H33.7721C33.5813 37.2994 33.1042 37.585 33.0087 37.8707C32.9133 38.1563 32.3408 39.1084 32.7225 39.4893C33.5813 40.4415 32.5316 40.8221 31.9591 40.6318ZM32.4362 54.723L31.9591 55.1993C31.7683 55.0086 31.482 54.723 31.2912 54.5327C31.6729 54.3424 32.0546 54.4374 32.4362 54.723ZM38.3522 30.2536C38.2568 30.2536 38.2568 30.3488 38.1615 30.3488C37.8753 30.6345 37.1118 30.5393 37.2071 30.8249C37.3028 31.1105 39.3062 30.1584 39.3062 30.3488C39.3062 30.5393 38.4478 30.8249 37.8753 31.1105C37.3028 31.3962 37.1118 31.8722 36.1577 31.8722C35.6805 31.8722 35.4895 32.2531 35.2989 32.5387C35.0127 32.9196 34.8217 33.3004 34.6309 33.6813C34.6309 34.2525 34.5355 34.8239 34.2492 35.3951H31.482C31.6729 30.5393 33.5813 25.8739 36.9208 22.2558L40.8332 26.1595C39.8788 27.4925 39.02 28.8255 38.3522 30.2536ZM41.9782 27.3973L45.4134 30.8249C45.3177 30.8249 45.2224 30.8249 45.0315 30.8249C44.6499 30.8249 44.6499 30.5393 44.3636 30.5393C43.7911 30.6345 43.6958 30.8249 43.6001 30.7297C43.2186 30.3488 42.7414 30.0632 42.1688 29.7776C41.501 29.5871 40.8332 29.5871 40.2607 29.8728C40.165 29.8728 40.165 29.968 40.0697 29.968C40.7375 29.1111 41.4057 28.2542 41.9782 27.3973ZM37.2071 34.3477C37.2071 34.7286 37.1118 35.1095 37.1118 35.4905H35.108C35.0127 35.2045 35.108 34.9189 35.2989 34.6334C35.4895 34.2525 35.9668 34.0621 36.444 34.1573C36.6346 34.1573 36.9208 34.2525 37.2071 34.3477ZM38.9247 38.8228L39.1156 39.1084C39.3062 39.2987 39.4972 39.4893 39.6882 39.394C39.8788 39.2987 40.356 39.394 40.4513 39.394C40.7375 39.4893 40.9285 39.6796 41.1195 39.8699C41.3101 40.1555 41.692 39.9652 41.9782 40.1555C42.2645 40.3462 42.5508 40.5365 42.1688 40.7271C41.7873 40.9174 42.5508 41.2983 42.6461 41.2983C42.7414 41.2983 42.837 41.1077 42.837 40.8221C42.837 40.7271 43.0276 40.3462 43.3139 40.4415C43.6001 40.5365 44.4589 41.5839 44.7452 41.203C45.0315 40.8221 44.8408 40.3462 44.9361 40.1555C44.9361 40.0606 45.0315 39.9652 45.1271 39.9652C45.4134 40.4415 45.604 40.8221 45.9859 41.203L42.0735 45.1066C40.4513 43.3929 39.3062 41.203 38.9247 38.8228ZM41.9782 25.2074L38.1615 21.3037C41.7873 17.9713 46.4628 16.067 51.3292 15.8766V21.3989C47.8941 21.4941 44.6499 22.8271 41.9782 25.2074ZM37.0165 20.1612L33.1042 16.2575C38.0659 11.5921 44.5546 8.92613 51.3292 8.7357V14.258C45.9859 14.4484 40.8332 16.5431 37.0165 20.1612ZM35.8715 21.2085C32.2454 25.1122 30.1462 30.1584 29.9553 35.4905H24.421C24.6119 28.7302 27.2836 22.2558 31.9591 17.3048L35.8715 21.2085ZM29.9553 37.0138C29.9553 38.0609 30.0508 39.0131 30.2416 40.0606C30.1462 40.0606 30.1462 39.7749 29.8599 39.8699C29.5736 39.9652 28.524 41.7742 28.0469 42.5361C27.6653 43.2026 28.2378 44.6307 27.6653 45.1066C27.0927 45.2972 26.5203 45.3925 25.9477 45.3925H25.8523C24.8981 42.7264 24.421 39.9652 24.3256 37.2041L29.9553 37.0138ZM51.2339 70.9092C42.5508 70.7189 34.2492 67.2912 28.0469 61.2927L31.9591 57.3892C37.2071 62.3402 44.0774 65.1963 51.2339 65.3869V70.9092ZM51.2339 63.8635C44.4589 63.6729 37.9706 61.0071 33.0087 56.3417L33.6767 55.6752C33.7721 55.7705 33.9629 55.8658 34.1538 55.9608C34.5355 56.1514 35.0127 56.2464 35.4895 56.1514C35.8715 56.0561 36.6346 55.3895 37.1118 55.3895C37.589 55.3895 38.3522 55.5802 38.8294 55.2942C39.3062 55.0086 38.5431 54.0568 38.2568 53.5806C38.1615 53.4852 38.1615 53.3903 38.0659 53.295C41.7873 56.437 46.5584 58.246 51.4245 58.3413L51.2339 63.8635ZM51.2339 56.7226C46.3675 56.532 41.692 54.628 38.0659 51.2953L41.9782 47.3918C43.7911 49.0105 45.9859 50.2482 48.4666 50.8194C47.6078 51.2004 47.2262 51.7716 47.3215 52.2475C47.4172 52.7237 46.749 53.0093 46.749 53.5806C46.749 54.1518 47.5125 54.5327 47.6078 55.1039C47.7035 55.3895 48.3713 55.8658 48.9438 56.2464C49.7069 56.437 50.4704 56.532 51.1382 56.437L51.2339 56.7226ZM51.0429 49.1058C50.7567 48.9151 50.5657 49.2961 50.1841 49.4864C47.5125 49.1058 45.1271 47.963 43.1233 46.2493L47.0353 42.3454C48.276 43.2976 49.7069 43.9641 51.2339 44.0594C51.2339 44.2497 51.4245 44.4404 51.4245 44.8209C51.4245 45.2019 51.1382 45.3925 51.2339 45.5828C51.3292 45.7731 52.188 45.5828 52.2833 45.2972C52.3789 45.0116 51.997 44.8209 51.9017 44.5353C51.8064 44.345 51.8064 44.2497 51.7108 44.0594H51.997C52.2833 44.0594 52.5695 44.0594 52.8558 43.9641C52.9515 43.9641 53.0468 43.8688 53.0468 43.7738C53.0468 43.6785 53.1421 43.5832 53.1421 43.4882C53.1421 43.3929 53.2377 43.3929 53.2377 43.2976L53.333 43.3929C53.4283 43.5832 53.6193 44.1548 53.8102 44.0594C54.0008 43.9641 54.0965 43.1073 54.0008 42.917C53.8102 42.631 53.8102 42.3454 54.0008 42.0598C54.0008 41.9649 54.0965 41.3933 54.2871 41.4886C54.4781 41.5839 54.2871 42.0598 54.2871 42.2505C54.2871 42.5361 54.4781 42.917 54.7643 42.7264C54.9553 42.631 55.1459 42.3454 55.3368 42.4408C55.5278 42.5361 54.8596 42.7264 54.7643 42.917C54.669 43.1073 55.0506 43.2026 54.9553 43.2976C54.8596 43.3929 54.7643 43.2976 54.669 43.3929C54.5734 43.4882 54.8596 44.0594 54.669 44.1548C54.4781 44.2497 53.8102 44.4404 53.6193 44.5353C53.4283 44.6307 53.2377 44.4404 53.333 44.345C53.4283 44.2497 53.333 43.8688 53.1421 43.8688C52.9515 43.8688 52.9515 43.9641 52.9515 44.1548C52.9515 44.345 53.1421 44.6307 53.1421 44.726C53.1421 44.8209 52.8558 44.9163 52.6652 45.0116C52.4742 45.2972 52.188 45.5828 51.9017 45.7731C51.6155 45.9637 51.0429 45.9637 51.0429 46.154C51.0429 46.3443 51.3292 46.3443 51.4245 46.4396C51.6155 46.7252 51.7108 47.1062 51.3292 47.2965C50.9476 47.4871 50.4704 47.0109 50.2795 47.1062C50.0888 47.2015 49.9932 47.6774 49.8979 48.2486C49.8026 48.8198 50.9476 49.0105 51.5201 48.7249C51.9017 48.5342 51.8064 47.963 52.188 47.7727C52.5695 47.5821 52.4742 47.2015 52.8558 47.2965C53.2377 47.3918 53.1421 47.0108 53.524 47.0108C53.9055 47.0108 53.9055 47.2965 54.3828 47.3918C55.1459 47.5821 55.1459 48.1536 55.2415 47.868C55.3368 47.5821 55.4321 47.3918 54.8596 47.2015C54.2871 47.0109 54.0008 46.3443 54.4781 46.5349C55.0506 46.8206 55.5278 46.8206 55.6231 47.1062C55.7184 47.3918 56.2909 47.2965 56.3866 47.5821C56.4819 48.0583 56.8635 47.5821 56.5772 47.2965C56.2909 47.0109 56.3866 46.9159 56.5772 46.7252C56.7681 46.5349 56.8635 46.8206 57.1497 46.4396C57.436 46.0587 57.0544 46.154 56.9591 45.9637C56.8635 45.7731 56.9591 44.726 57.3407 44.9163C57.7222 45.1066 58.1041 44.8209 57.9132 44.726C57.7222 44.6307 58.0085 44.0594 58.1041 44.0594C58.1995 44.0594 58.1042 44.4404 58.1995 44.5353C58.2948 44.6307 59.2488 44.2497 59.3445 44.726C59.4398 45.2019 58.6763 45.4875 58.4857 45.4875C58.1041 45.4875 57.8179 45.8684 57.5316 46.2493C57.2454 46.6303 56.9591 46.7252 57.1497 47.1062C57.3407 47.4871 57.7222 47.3918 58.1041 47.2015C58.4857 47.0109 58.772 46.7252 58.9626 46.6303C59.3445 46.4396 59.6308 47.5821 59.4398 47.7727C59.2488 47.963 58.8673 48.0583 58.6763 48.2486C58.1041 48.5342 57.5316 48.8198 56.8635 48.8198C56.4819 48.9151 56.4819 49.0105 56.3866 49.3914C56.2909 49.772 54.5734 49.4864 54.1918 49.4864C53.8102 49.4864 54.4781 48.6295 53.9055 48.7249C53.333 48.8198 52.7605 48.9151 52.188 49.0105C52.0927 49.0105 51.5201 49.4864 51.0429 49.1058ZM56.1003 57.9604C56.5772 58.1507 57.0544 58.5316 57.3407 58.9125C57.6269 59.3884 57.7222 59.5791 57.5316 60.055C57.0544 60.9118 57.2454 61.483 58.1995 61.769C58.772 61.9593 58.9626 62.5305 59.3445 62.9114C57.2454 63.4826 55.0506 63.7682 52.8558 63.8635V58.3413C53.9055 58.246 55.0506 58.1507 56.1003 57.9604ZM52.8558 56.8179V56.1514C54.0965 55.9608 53.8102 56.7226 54.669 56.437C54.9553 56.3417 55.2415 56.437 55.4321 56.6273C54.5734 56.6273 53.7146 56.7226 52.8558 56.8179ZM52.8558 71.0045V65.3869C55.7184 65.2916 58.581 64.8157 61.3483 63.8635C61.4436 63.9585 61.5389 63.9585 61.6346 63.9585C62.0161 63.9585 62.3977 63.7682 62.684 63.5779C63.6384 63.197 64.4972 62.7208 65.2603 62.1495C67.7414 60.9118 70.1268 59.1981 72.1306 57.2938L76.0429 61.1974C69.8405 67.2912 61.5389 70.7189 52.8558 71.0045ZM68.3139 21.2085L69.6495 19.8755C70.0315 20.2564 70.413 20.542 70.9855 20.6372C71.4628 20.7324 71.6534 20.9228 71.749 21.3989C71.8443 21.875 72.3215 22.0654 72.7984 22.1606C73.2756 22.2558 73.5619 22.8271 73.9435 22.8271C74.3254 22.8271 75.5657 24.5409 76.0429 25.1122C76.3292 25.3978 76.7108 25.8739 76.997 25.493C77.2833 25.1122 77.2833 25.2074 77.4742 25.1122C78.9052 28.3494 79.764 31.9674 79.8596 35.4905H74.3254C74.3254 34.2525 74.1344 33.0148 73.8481 31.777C74.0391 31.3962 74.1344 31.0153 74.1344 30.5393C74.1344 30.1584 73.7528 29.968 73.4666 30.2536C73.2756 29.4919 72.9894 28.8255 72.7031 28.159C72.6078 27.7781 72.5121 27.3021 72.4168 26.9212C72.4168 26.826 72.2259 26.7308 72.0353 26.5403C71.8443 26.1595 71.749 25.8739 71.5581 25.5882C71.8443 25.3978 71.9396 24.9218 71.5581 25.017C70.9855 25.1122 71.3671 24.7313 71.1765 24.5409C70.9855 24.3505 70.9855 24.5409 70.8902 24.6361C70.1268 23.4936 69.3633 22.4462 68.4092 21.3989C68.4092 21.3989 68.4092 21.3989 68.4092 21.3037C68.2182 21.3037 68.2182 21.2085 68.3139 21.2085ZM71.6534 53.4852C71.4628 53.1047 71.3671 52.6284 71.1765 52.2475C71.0808 51.8669 70.3177 51.8669 70.3177 52.0572C70.3177 52.4381 70.3177 52.8187 70.2221 53.1996V53.295L68.2186 51.2953C71.8443 47.3918 73.9434 42.3454 74.1344 37.0138H79.6687C79.4777 43.7738 76.8061 50.2482 72.1306 55.1039L71.8443 54.8183C71.9396 54.4374 71.8443 53.9615 71.6534 53.4852ZM67.0735 57.2938C67.3598 56.8179 67.9323 55.9608 68.2186 55.4849C68.5045 55.0086 67.4551 54.3424 66.8826 54.1518C66.3101 53.9615 66.3101 53.6759 66.3101 53.1996C66.5963 53.0093 66.8826 52.7237 67.1688 52.4381L71.0808 56.3417C69.7452 57.5794 68.4092 58.6269 66.8826 59.5791C66.7873 59.3884 67.4551 58.7219 67.6461 58.4363C67.8367 58.1507 66.8826 57.7697 67.0735 57.2938ZM69.4589 34.5382C68.9817 33.8717 69.6495 33.7765 70.3177 33.4908C70.6993 33.3004 71.1765 33.5861 71.1765 33.3956C71.1765 33.2052 71.3671 32.8243 71.5581 32.7291C71.749 32.6339 72.0353 32.4435 72.1306 32.2531C72.1306 32.4435 72.2259 32.6339 72.2259 32.8243C72.0353 33.2052 71.9396 33.4908 71.9396 33.8717C71.9396 34.1573 71.9396 34.5382 72.2259 33.8717C72.2259 33.7765 72.3215 33.7765 72.3215 33.6813C72.5121 34.3477 72.5121 34.9189 72.5121 35.4905H68.4092C68.4092 35.4905 68.4092 35.4905 68.4092 35.3951C68.6955 34.9189 69.7452 35.0142 69.4589 34.5382ZM70.2221 26.7308C70.2221 26.7308 70.2221 26.826 70.1268 26.826C70.0315 26.9212 69.5542 26.1595 69.5542 26.7308C69.5542 27.3021 69.7452 27.4925 70.1268 27.5877C70.5083 27.6829 70.3177 27.8733 70.604 27.9685C70.6993 27.9685 70.8902 28.0637 70.9855 28.159C71.4628 29.2063 71.749 30.2536 72.0353 31.3962C71.8443 31.4914 71.749 31.5866 71.6534 31.6818C71.4628 31.8722 71.5581 32.2531 71.3671 32.5387C71.0808 33.0148 70.9855 33.3004 70.2221 33.11C69.7452 32.9196 70.1268 32.3483 70.2221 31.8722C70.3177 31.3962 70.5083 31.4914 70.5083 31.2058C70.5083 30.9201 69.5542 29.8728 69.077 30.2536C68.6001 30.6345 68.6955 31.0153 68.3139 31.3962C68.1229 31.5866 67.9323 31.5866 67.6461 31.3962C67.3598 31.2058 67.2641 31.0153 67.3598 30.8249C67.4551 30.6345 66.6916 29.7776 66.4054 29.3967C66.0238 28.9207 65.4513 28.635 64.8788 28.635C64.4015 27.7781 63.7337 26.9212 63.0659 26.1595L66.9779 22.2558C68.3139 23.684 69.3633 25.1122 70.2221 26.7308ZM63.6384 29.3967L63.4475 29.6824C63.3521 29.8728 62.8749 29.4919 62.7796 29.5871C62.684 29.6824 63.4475 30.6345 62.684 30.3488C61.9208 30.0632 62.3977 30.0632 62.3977 29.7776C62.3977 29.4919 61.7299 29.3015 62.1115 29.1111C62.4934 28.9207 62.1115 28.635 62.4934 28.5398C62.8749 28.4446 62.7796 28.0637 62.3024 27.9685C61.8252 27.8733 61.9208 29.0159 61.6346 28.8255C61.3483 28.7302 61.0621 28.7302 60.7758 28.7302L62.1115 27.3973C62.3024 27.4925 62.3977 27.4925 62.5887 27.4925C62.7796 28.2542 63.2565 28.8255 63.6384 29.3967ZM62.1115 48.7249C62.684 48.8198 63.3521 48.9151 63.9247 49.1058C64.3062 49.2961 64.5925 49.677 64.8788 49.2008C65.4513 48.3439 65.8328 47.3918 66.0238 46.3443C66.2148 44.9163 65.9285 44.4404 65.7375 44.4404C65.5466 44.4404 65.165 44.8209 64.7835 44.8209C64.5925 44.8209 64.5925 45.2019 64.5925 45.4875C64.5925 45.7731 64.2109 46.0587 64.1153 45.8684C64.02 45.6781 63.829 45.7731 63.9247 45.9637C64.02 46.154 63.1612 46.0587 62.7796 45.8684C62.2071 45.5828 63.4475 45.5828 64.02 45.1066C64.4972 44.726 64.9741 44.2497 65.4513 43.7738C65.7375 43.2976 65.7375 42.7264 66.2148 42.3454C66.6916 41.9648 67.4551 42.0598 67.5504 41.4886C67.6461 40.9174 67.7414 41.0127 68.0276 41.1077C68.3139 41.203 70.9855 41.0127 70.9855 40.1555C70.9855 39.7749 70.413 39.2987 69.8405 39.2037C69.4589 39.2037 69.3633 38.4419 69.1727 38.0609C68.9817 37.68 68.7908 37.2994 68.5045 36.9185H72.5121C72.3215 41.7742 70.413 46.4396 67.0735 50.0576L66.9779 49.9626V49.5817C67.0735 48.8198 66.501 47.5821 66.3101 47.7727C66.1191 47.963 66.3101 47.963 65.7375 48.8198C65.5466 49.1058 65.2603 49.5817 64.8788 49.5817C64.4972 49.5817 64.4972 49.3914 63.9247 49.4864C63.4475 49.5817 62.8749 49.5817 62.3977 49.4864C61.5389 49.2008 60.6801 48.8198 59.8214 48.2486C59.917 48.1536 60.2033 48.3439 60.2033 48.0583C60.2033 47.7727 61.7299 48.6295 62.1115 48.7249ZM77.0923 60.2453L73.1803 56.3417C78.1421 51.105 81.0047 44.2497 81.1953 37.1088H86.8252C86.6342 45.7731 83.1991 53.9615 77.0923 60.2453ZM86.8252 35.4905H81.1953C81.1 31.3962 80.1459 27.3973 78.3327 23.684L78.4283 23.5888C78.8099 23.2079 76.6155 20.3516 76.2335 20.0659C75.852 19.7803 75.4704 19.3042 74.9932 18.8282C74.2297 18.0665 73.4666 17.2096 72.8941 16.3527L76.997 12.2585C83.1991 18.5425 86.6342 26.826 86.8252 35.4905ZM52.8558 1.5948C61.5389 1.78523 69.8405 5.21286 76.1382 11.2112L72.3215 15.0197C72.1306 14.9245 71.9396 14.8293 72.0353 14.6388C72.2259 14.3532 71.749 14.3532 71.6534 13.5915C71.4628 12.8298 70.8902 12.1633 70.2221 11.7825C69.7452 11.4969 69.4589 11.116 68.9817 10.9256C68.5045 10.7351 67.5504 10.1639 67.0735 10.3543C66.7873 10.4495 66.4054 10.5447 66.1191 10.5447C62.0161 8.35484 57.5316 7.2123 52.9515 7.11709L52.8558 1.5948ZM52.8558 8.7357C56.9591 8.83092 60.8711 9.87824 64.5925 11.6873C64.6878 12.2585 64.9741 12.925 65.356 13.4011C65.5466 13.8772 65.8328 14.258 66.1191 14.7341C66.4054 15.0197 66.2148 15.591 66.3101 16.067C66.3101 16.2575 66.501 16.4479 66.5963 16.6383C66.5963 16.9239 66.5963 17.1144 66.5963 17.4C66.5963 17.4952 66.9779 17.4952 67.2641 17.3048C67.5504 17.1144 67.7414 16.7335 68.1229 16.8287C68.5045 16.9239 68.9817 17.6856 69.268 18.1617L67.4551 19.9707C67.2641 19.5899 67.0735 19.1138 67.1688 19.1138C67.2641 19.1138 67.4551 19.209 67.5504 19.209C67.9323 19.209 67.2641 18.9234 67.2641 18.8282C66.9779 18.5425 66.9779 18.1617 66.5963 17.8761C66.2148 17.5904 65.6422 17.7809 65.4513 17.4C65.0697 16.7335 64.5925 16.1622 63.9247 15.6862C63.829 15.6862 64.6878 16.7335 64.4015 16.9239C64.1153 17.1144 63.0659 16.2575 62.9702 16.4479C62.8749 16.6383 64.1153 17.1144 64.4972 17.4952C64.6878 17.6856 65.0697 18.2569 65.4513 18.733C61.8252 15.9718 57.436 14.4484 52.8558 14.258V8.7357ZM52.8558 15.7814C57.7222 15.9718 62.3977 17.8761 66.0238 21.2085L62.1115 25.1122C59.5351 22.8271 56.2909 21.4941 52.8558 21.3037V15.7814ZM52.8558 22.9223C55.9094 23.1127 58.772 24.2553 60.9664 26.2547L60.7758 26.4452L60.5848 26.3499C60.1076 26.1595 59.1535 27.1116 59.3445 27.2068C59.5351 27.3021 59.917 26.826 60.1076 26.9212H60.2033L58.581 28.635C58.1042 28.8255 57.6269 29.2063 57.6269 29.4919C57.6269 29.4919 57.6269 29.4919 57.6269 29.5871L57.0544 30.1584L56.7681 29.8728C56.2909 29.4919 55.8141 29.2063 55.2415 29.0159C55.5278 28.8255 55.6231 28.5398 55.7184 28.159C55.7184 27.5877 55.5278 27.7781 55.2415 28.0637C54.9553 28.3494 54.669 28.4446 54.4781 28.7302C54.0008 28.5398 53.4283 28.4446 52.9515 28.4446V22.9223H52.8558ZM52.188 29.968C52.2833 30.1584 52.188 30.3488 52.0927 30.444C51.9017 30.6345 51.3292 29.968 51.2339 30.5393C51.0429 31.1105 51.6155 30.8249 51.6155 30.9201C51.9017 31.301 52.2833 31.4914 52.7605 31.5866C53.1421 31.5866 53.7146 31.5866 53.7146 31.9674C53.7146 32.1579 54.1918 32.1579 54.2871 32.3483C54.2871 32.6339 54.5734 33.11 54.7643 33.0148C54.9553 32.9196 55.2415 33.11 55.3368 33.3004C55.4321 33.4908 55.3368 33.5861 55.2415 33.7765C54.9553 34.0621 55.5278 33.9669 55.6231 34.5382C55.7184 35.1095 55.1459 34.7286 55.0506 35.1095C54.8596 35.3951 54.669 35.5854 54.4781 35.871C54.3828 35.9664 54.5734 36.1566 54.669 36.0617C54.7643 35.9664 54.9553 35.6807 55.2415 35.6807C55.5278 35.6807 55.8141 36.7282 56.1003 36.8232C56.3866 36.9185 56.2909 37.2994 56.3866 37.3944C56.4819 37.4897 55.9094 37.3944 56.0047 37.585C56.1003 37.7753 56.6728 37.8707 56.6728 38.1563C56.5772 38.4419 56.3866 38.7275 56.0047 38.7275C55.7184 38.7275 55.2415 38.0609 55.2415 38.2516C55.2415 38.4419 55.4321 39.0131 55.7184 39.0131C56.0047 39.0131 56.6728 38.7275 56.3866 39.1084C56.1003 39.4893 56.1956 40.0606 56.0047 40.0606C55.8141 40.0606 55.7184 40.0606 55.9094 40.3462C56.0047 40.6318 55.9094 40.9174 55.7184 41.203C55.5278 41.3933 55.0506 41.203 55.0506 41.1077C55.0506 41.0127 55.6231 41.0127 55.6231 40.7271C55.6231 40.4415 55.3368 40.3462 54.7643 40.5365C54.4781 40.6318 54.3828 40.4415 54.1918 40.4415C54.0008 40.4415 53.4283 41.1077 53.4283 41.203C53.4283 41.2983 53.4283 41.4886 53.4283 41.6792C53.4283 42.0598 53.333 42.3454 53.1421 42.631C52.7605 42.7264 52.4742 42.7264 52.0927 42.7264C50.5657 42.7264 49.0391 42.0598 47.8941 41.1077C48.085 41.0127 48.3713 40.9174 48.6575 40.9174C48.9438 41.0127 49.0391 40.8221 49.2301 40.7271C49.4207 40.6318 49.8979 40.9174 50.1841 40.7271C50.4704 40.5365 51.1382 39.2987 51.0429 39.0131C50.9476 38.7275 51.7108 38.2516 51.6155 38.1563C51.5202 38.0609 51.4245 38.2516 51.4245 38.1563C51.4245 38.0609 51.6155 38.0609 51.4245 37.68C51.2339 37.2994 50.9476 37.4897 50.7567 37.4897C50.4704 37.2994 49.9932 37.2041 49.8979 37.2994C49.8026 37.3944 49.5163 37.1088 49.4207 37.2041C49.3254 37.2041 49.1344 37.2994 49.1344 37.4897C49.0391 37.68 49.2301 37.8707 49.2301 38.0609C49.1344 38.4419 48.5622 38.7275 48.5622 39.0131C48.5622 39.2987 48.276 39.1084 48.1803 39.2037C48.085 39.2987 48.1803 39.4893 47.9897 39.4893C47.7988 39.4893 47.5125 39.9652 47.3215 40.3462C47.0353 39.9652 46.749 39.4893 46.4628 39.1084C46.6537 39.0131 46.8447 38.9178 46.94 39.0131C47.2262 39.2037 48.3713 37.2041 48.1803 36.6329C47.9897 36.0617 47.7035 36.4423 47.4172 36.5376C47.1309 36.6329 47.1309 36.3473 47.2262 36.252C47.3215 36.1566 48.5622 36.1566 47.8941 35.7761C47.6078 35.5854 46.8447 35.5854 46.94 35.2998C47.0353 35.0142 47.4172 35.2998 47.5125 35.2998C47.9897 35.4905 48.276 34.5382 48.5622 34.5382C49.0391 34.5382 48.8481 33.5861 48.3713 33.8717C47.8941 34.1573 47.7035 34.0621 47.5125 34.3477C47.3215 34.6334 46.8447 35.0142 46.8447 34.6334C46.8447 34.443 47.8941 33.8717 48.085 33.5861C48.276 33.3956 48.4666 33.11 48.5622 32.8243C48.6575 32.5387 49.9932 32.3483 50.2795 32.1579C50.4704 31.9674 50.6614 31.6818 50.6614 31.3962C50.6614 31.1105 50.2795 31.2058 50.1841 31.0153C50.0888 30.8249 50.6614 31.0153 50.6614 30.7297C50.6614 30.444 50.1842 30.7297 49.9932 30.5393C49.9932 30.444 49.9932 30.444 50.0888 30.3488C50.9476 30.0632 51.5201 29.968 52.188 29.968H52.3789H52.188ZM51.3292 1.5948V7.11709C44.1727 7.30751 37.3028 10.1639 32.0546 15.1149L28.1424 11.2112C34.3446 5.21286 42.6461 1.78523 51.3292 1.5948ZM26.9019 12.3538L30.8141 16.2575C25.8523 21.4941 22.9897 28.3494 22.7989 35.4905H17.2646C17.5508 26.826 20.9859 18.5425 26.9019 12.3538Z" fill="white"/>
</g>
<defs>
<clipPath id="clip0_1102_517">
<rect width="104" height="87" fill="white"/>
</clipPath>
</defs>
</svg>
