<svg width="159" height="118" viewBox="0 0 159 118" fill="none" xmlns="http://www.w3.org/2000/svg">
<path d="M158.094 15.0547L158.316 10.0469C158.084 10.087 157.844 10.1052 157.601 10.0944C155.798 10.0147 154.401 8.50009 154.48 6.71135C154.482 6.67908 154.487 6.64697 154.49 6.61479L151.19 6.46891C151.191 6.50125 151.193 6.53189 151.192 6.56594C151.112 8.35468 149.587 9.74009 147.785 9.6604C145.982 9.58071 144.586 8.06611 144.665 6.27736C144.666 6.2451 144.671 6.21299 144.674 6.18081L141.375 6.03493C141.375 6.06727 141.377 6.0979 141.376 6.13196C141.297 7.9207 139.772 9.30611 137.969 9.22642C136.167 9.14673 134.77 7.63213 134.849 5.84338C134.85 5.81112 134.855 5.77901 134.859 5.74683L131.523 5.59935C131.523 5.63169 131.525 5.66233 131.524 5.69638C131.445 7.48513 129.92 8.87053 128.117 8.79084C126.315 8.71115 124.918 7.19655 124.997 5.40781C124.998 5.37554 125.003 5.34343 125.007 5.31125L121.734 5.16657C121.735 5.19891 121.737 5.22954 121.735 5.2636C121.656 7.05234 120.131 8.43775 118.329 8.35806C116.526 8.27837 115.129 6.76377 115.208 4.97502C115.21 4.94276 115.215 4.91065 115.218 4.87847L111.48 4.71318C111.478 4.74544 111.482 4.77616 111.481 4.81021C111.402 6.59896 109.981 7.989 108.307 7.91498C106.633 7.84096 105.341 6.33098 105.42 4.54224C105.421 4.50998 105.426 4.47787 105.429 4.44569L101.691 4.2804C101.691 4.31274 101.693 4.34338 101.692 4.37743C101.613 6.16618 100.088 7.55158 98.2853 7.47189C96.4829 7.3922 95.0859 5.8776 95.165 4.08886C95.1664 4.05659 95.1715 4.02448 95.1747 3.9923L91.9022 3.84762C91.9026 3.87996 91.9048 3.91059 91.9033 3.94465C91.8242 5.73339 90.2991 7.1188 88.4966 7.03911C86.6942 6.95942 85.2973 5.44482 85.3763 3.65607C85.3778 3.62381 85.3828 3.5917 85.386 3.55952L81.6476 3.39423C81.6461 3.42649 81.6502 3.45721 81.6487 3.49126C81.5696 5.28001 80.1492 6.67005 78.475 6.59603C76.8008 6.52201 75.5086 5.01203 75.5877 3.22329C75.5891 3.19103 75.5941 3.15892 75.5974 3.12674L71.8589 2.96145C71.8593 2.99379 71.8615 3.02443 71.86 3.05848C71.7809 4.84723 70.2558 6.23263 68.4533 6.15294C66.6509 6.07325 65.254 4.55865 65.333 2.76991C65.3345 2.73764 65.3395 2.70553 65.3427 2.67335L61.6043 2.50806C61.6028 2.54033 61.6069 2.57104 61.6054 2.6051C61.5263 4.39384 60.1059 5.78388 58.4317 5.70986C56.7575 5.63584 55.4653 4.12587 55.5444 2.33712C55.5458 2.30486 55.5508 2.27275 55.5541 2.24057L51.8156 2.07528C51.816 2.10762 51.8182 2.13826 51.8167 2.17231C51.7377 3.96106 50.2125 5.34647 48.4101 5.26678C46.6076 5.18709 45.2107 3.67248 45.2898 1.88374C45.2912 1.85148 45.2962 1.81937 45.2995 1.78719L42.0251 1.64242C42.0255 1.67476 42.0278 1.7054 42.0263 1.73945C41.9472 3.5282 40.422 4.9136 38.6196 4.83391C36.8172 4.75422 35.4202 3.23962 35.4993 1.45088C35.5007 1.41861 35.5057 1.38651 35.509 1.35432L31.7705 1.18904C31.7691 1.2213 31.7732 1.25201 31.7716 1.28607C31.6926 3.07481 30.2721 4.46485 28.5979 4.39083C26.9237 4.31681 25.6315 2.80684 25.7106 1.01809C25.712 0.985831 25.7171 0.953722 25.7203 0.92154L21.9818 0.756252C21.9822 0.788594 21.9845 0.81923 21.983 0.853285C21.9039 2.64203 20.3787 4.02744 18.5763 3.94775C16.7739 3.86806 15.3769 2.35345 15.456 0.564709C15.4574 0.532447 15.4625 0.500338 15.4657 0.468156L12.1733 0.322591C12.1737 0.354933 12.1759 0.385569 12.1744 0.419623C12.0954 2.20837 10.5702 3.59378 8.76776 3.51409C6.96534 3.4344 5.56837 1.91979 5.64746 0.131048C5.64889 0.0987862 5.65392 0.0666769 5.65716 0.0344949L4.87695 0L4.5435 7.54213C6.34591 7.62182 7.74288 9.13638 7.66379 10.9251C7.58471 12.7139 6.05953 14.0993 4.25711 14.0196L4.11392 17.2583C5.91633 17.338 7.3133 18.8526 7.23421 20.6414C7.15513 22.4301 5.62995 23.8155 3.82753 23.7358L3.66389 27.437C5.46631 27.5167 6.86787 28.9273 6.79441 30.5888C6.72095 32.2503 5.20037 33.5317 3.39795 33.452L3.23431 37.1532C5.03673 37.2329 6.43369 38.7475 6.35461 40.5362C6.27552 42.325 4.75034 43.7103 2.94793 43.6306L2.80473 46.8694C4.60715 46.9491 6.00412 48.4637 5.92503 50.2524C5.84595 52.0412 4.32076 53.4265 2.51835 53.3468L2.35471 57.048C4.15712 57.1277 5.55869 58.5384 5.48523 60.1999C5.41177 61.8613 3.8911 63.1446 2.08869 63.0649L1.92505 66.766C3.72746 66.8457 5.12443 68.3603 5.04535 70.1491C4.96626 71.9378 3.44108 73.3232 1.63866 73.2435L1.47503 76.9447C3.27744 77.0244 4.679 78.435 4.60555 80.0965C4.53209 81.758 3.0115 83.0394 1.20908 82.9597L1.04545 86.6609C2.84786 86.7406 4.24483 88.2552 4.16574 90.0439C4.08666 91.8327 2.56148 93.218 0.75906 93.1383L0.615867 96.3771C2.41828 96.4568 3.81525 97.9714 3.73616 99.7601C3.65708 101.549 2.13189 102.934 0.329479 102.855L0.0978504 108.094C0.721575 107.493 1.58062 107.135 2.51795 107.177C4.32036 107.257 5.71733 108.771 5.63824 110.56L8.90174 110.704C8.98082 108.915 10.506 107.53 12.3084 107.61C14.1108 107.689 15.5078 109.204 15.4287 110.993L19.1582 111.158C19.2372 109.369 20.6577 107.979 22.3319 108.053C24.0061 108.127 25.2983 109.637 25.2192 111.426L28.9486 111.591C29.0277 109.802 30.5529 108.416 32.3553 108.496C34.1577 108.576 35.5547 110.09 35.4756 111.879L38.7391 112.023C38.8182 110.235 40.3434 108.849 42.1458 108.929C43.9482 109.009 45.3452 110.523 45.2661 112.312L48.9955 112.477C49.0746 110.688 50.4951 109.298 52.1692 109.372C53.8434 109.446 55.1357 110.956 55.0566 112.745L58.786 112.91C58.8651 111.121 60.3903 109.736 62.1927 109.815C63.9951 109.895 65.3921 111.41 65.313 113.198L69.0424 113.363C69.1215 111.574 70.542 110.184 72.2162 110.258C73.8903 110.332 75.1826 111.842 75.1035 113.631L78.8329 113.796C78.912 112.007 80.4372 110.622 82.2396 110.702C84.042 110.781 85.439 112.296 85.3599 114.085L88.6234 114.229C88.7025 112.44 90.2277 111.055 92.0301 111.134C93.8325 111.214 95.2294 112.729 95.1504 114.518L98.8798 114.682C98.9589 112.894 100.379 111.504 102.054 111.578C103.728 111.652 105.02 113.162 104.941 114.95L108.67 115.115C108.749 113.327 110.275 111.941 112.077 112.021C113.879 112.1 115.276 113.615 115.197 115.404L118.461 115.548C118.54 113.759 120.065 112.374 121.867 112.454C123.67 112.533 125.067 114.048 124.988 115.837L128.313 115.984C128.392 114.195 129.917 112.81 131.719 112.889C133.522 112.969 134.919 114.484 134.84 116.272L138.13 116.418C138.209 114.629 139.734 113.244 141.537 113.323C143.339 113.403 144.736 114.918 144.657 116.706L147.948 116.852C148.027 115.063 149.552 113.678 151.354 113.757C152.292 113.799 153.116 114.23 153.684 114.884L153.884 110.366C152.082 110.286 150.685 108.771 150.764 106.983C150.843 105.194 152.368 103.808 154.17 103.888L154.314 100.649C152.511 100.57 151.114 99.0551 151.193 97.2663C151.272 95.4776 152.798 94.0922 154.6 94.1719L154.764 90.4707C152.961 90.391 151.56 88.9804 151.633 87.3189C151.707 85.6574 153.227 84.376 155.03 84.4557L155.193 80.7545C153.391 80.6748 151.994 79.1602 152.073 77.3715C152.152 75.5827 153.677 74.1973 155.48 74.277L155.643 70.5759C153.841 70.4962 152.439 69.0855 152.513 67.4241C152.586 65.7626 154.107 64.4811 155.909 64.5608L156.073 60.8596C154.27 60.7799 152.873 59.2654 152.952 57.4766C153.032 55.6879 154.557 54.3025 156.359 54.3822L156.502 51.1434C154.7 51.0637 153.303 49.5491 153.382 47.7604C153.461 45.9716 154.986 44.5863 156.789 44.666L156.952 40.9648C155.15 40.8851 153.748 39.4744 153.822 37.813C153.895 36.1515 155.416 34.8701 157.218 34.9498L157.382 31.2486C155.58 31.1689 154.183 29.6543 154.262 27.8655C154.341 26.0768 155.866 24.6914 157.668 24.7711L157.812 21.5324C156.009 21.4527 154.612 19.9381 154.691 18.1493C154.767 16.3604 156.292 14.9751 158.094 15.0547Z" fill="url(#paint0_linear_278:1134)"/>
<path d="M16.0898 15.9048L18.8095 16.157L20.3422 18.9349L22.0155 16.4544L24.6233 16.6962L24.5226 21.379L22.5626 21.1973L22.6254 18.2769L20.7422 21.0284L19.7328 20.9348L17.9825 17.8463L17.9197 20.7666L15.9891 20.5876L16.0898 15.9048Z" fill="#1E1E1E"/>
<path d="M27.8456 21.2938L26.804 21.1962L26.831 19.9296L27.7474 20.0155C27.8873 20.0286 27.9305 19.9873 27.9319 19.9236L27.932 19.9169C27.9334 19.8532 27.907 19.7937 27.8461 19.7108L25.3535 16.3145L27.6538 16.5299L29.1411 18.7291L30.5687 16.803L32.5893 16.9923L29.8541 20.4042C29.2423 21.1628 28.9994 21.4019 27.8456 21.2938Z" fill="#1E1E1E"/>
<path d="M36.5432 21.8155L36.2136 21.7846C33.9619 21.5733 32.7563 20.8342 32.781 19.6721L32.783 19.5764L34.8396 19.7694C34.8446 20.2309 35.3419 20.5266 36.454 20.631C37.5035 20.7295 37.8917 20.6061 37.8972 20.3441L37.8976 20.3256C37.9032 20.0636 37.5354 19.9214 36.7787 19.8504L35.2468 19.7067L35.2699 18.6219L36.8017 18.7656C37.5014 18.8313 37.8253 18.7792 37.8301 18.5559L37.8305 18.5374C37.8354 18.3073 37.4255 18.1477 36.4736 18.0584C35.5641 17.973 34.9107 18.0716 34.8785 18.5481L32.8219 18.3551L32.8241 18.2527C32.8433 17.3458 33.909 16.6803 36.2805 16.9028L36.5953 16.9323C39.1619 17.1732 39.8641 17.8146 39.8504 18.4594L39.8492 18.5165C39.8391 18.9884 39.3832 19.3494 38.5494 19.3469C39.4719 19.5159 39.9855 19.9999 39.9738 20.5541L39.9724 20.6179C39.9589 21.426 39.2221 22.0669 36.5432 21.8155Z" fill="#1E1E1E"/>
<path d="M47.7554 20.5874L47.7532 20.6879C47.7344 21.5578 47.1961 22.2426 45.0986 22.049L40.9404 21.6651L41.041 17.0078L43.0193 17.1904L42.9897 18.5611L45.1696 18.7624C47.2598 18.9553 47.7741 19.7242 47.7554 20.5874ZM44.8725 20.8677C45.5142 20.9269 45.6987 20.7178 45.7042 20.4624L45.7046 20.4443C45.7103 20.1808 45.5333 19.958 44.8934 19.899L42.9646 19.7209L42.9436 20.6912L44.8724 20.8693L44.8725 20.8677ZM50.0654 22.5075L48.0944 22.3256L48.1951 17.6682L50.1661 17.8502L50.0654 22.5075Z" fill="#1E1E1E"/>
<path d="M53.2851 20.2704L53.2399 22.392L51.2536 22.2058L51.3545 17.4644L53.3408 17.6506L53.3009 19.524L55.9014 17.8906L58.37 18.1221L55.296 19.9917L58.3668 22.8727L55.7803 22.6302L53.2851 20.2704Z" fill="#1E1E1E"/>
<path d="M64.1086 22.2419L61.1415 21.9655L60.7265 22.6875L58.7166 22.5002L61.3858 18.0332L64.0516 18.2816L66.6663 23.2408L64.4947 23.0385L64.1086 22.2419ZM63.4981 21.0057L62.6601 19.3046L61.7748 20.8452L63.4981 21.0057Z" fill="#1E1E1E"/>
<path d="M20.8601 28.176L17.5322 30.8424L15.5466 30.6564L15.6475 25.9199L17.6331 26.1059L17.5697 29.0849L20.8976 26.4118L22.8832 26.5978L22.7824 31.3343L20.7968 31.1483L20.8601 28.176Z" fill="#1E1E1E"/>
<path d="M30.5138 31.5947L30.2415 31.5692C27.04 31.2694 26.5969 29.743 26.616 28.8454L26.6199 28.6612C26.6391 27.7586 27.1041 26.3541 30.3461 26.6577L30.6184 26.6832C33.7849 26.9797 34.204 28.3327 34.1985 28.9379L34.1968 29.02L32.1342 28.8269C32.1018 28.703 31.9399 28.0821 30.4367 27.9414C29.0034 27.8072 28.6838 28.3578 28.6726 28.8853L28.671 28.9623C28.6601 29.4714 28.9955 30.1723 30.3938 30.3032C31.9246 30.4465 32.0934 29.7928 32.1233 29.6866L34.1785 29.879L34.1763 29.9812C34.1631 30.6024 33.6527 31.8886 30.5138 31.5947Z" fill="#1E1E1E"/>
<path d="M39.6906 31.1971L36.7235 30.9206L36.3086 31.6426L34.2987 31.4554L36.9678 26.9883L39.6337 27.2367L42.2483 32.196L40.0767 31.9937L39.6906 31.1971ZM39.0801 29.9625L38.2421 28.2614L37.355 29.8018L39.0801 29.9625Z" fill="#1E1E1E"/>
<path d="M44.2165 32.0528L43.175 31.9553L43.202 30.6885L44.1184 30.7743C44.2582 30.7874 44.3015 30.7461 44.3029 30.6824L44.303 30.6757C44.3044 30.6121 44.278 30.5525 44.217 30.4696L41.7246 27.0728L44.0248 27.2882L45.512 29.4877L46.9396 27.5613L48.96 27.7506L46.2249 31.1631C45.6151 31.9236 45.3703 32.1609 44.2165 32.0528Z" fill="#1E1E1E"/>
<path d="M54.8646 30.8523L51.6127 30.5477L51.5744 32.3491L49.5886 32.1631L49.6895 27.4258L51.6752 27.6118L51.6396 29.2859L54.8915 29.5905L54.9271 27.9164L56.9055 28.1018L56.8046 32.8391L54.8263 32.6538L54.8646 30.8523Z" fill="#1E1E1E"/>
<path d="M58.8404 27.8845L64.8963 28.4538L64.8222 31.9465L65.6623 32.0255L65.6178 34.1228L63.7497 33.9472L63.7673 33.1156L59.5612 32.7203L59.5435 33.5518L57.6754 33.3762L57.7199 31.2788L58.4052 31.3433C58.7077 30.832 58.7958 29.9885 58.8404 27.8845ZM62.8325 31.7578L62.8797 29.5325L60.6043 29.3186C60.5765 30.2841 60.4683 31.1189 60.2421 31.5143L62.8325 31.7578Z" fill="#1E1E1E"/>
<path d="M68.8222 30.8102L68.797 31.9738L66.4983 31.7617L66.5234 30.5981L68.8222 30.8102Z" fill="#1E1E1E"/>
<path d="M15.9573 36.0235L22.013 36.5928L21.9389 40.0857L22.779 40.1647L22.7345 42.2621L20.8646 42.0864L20.8822 41.2548L16.6744 40.8592L16.6568 41.6908L14.7887 41.5152L14.8331 39.4177L15.5185 39.4821C15.8247 38.9712 15.9127 38.1277 15.9573 36.0235ZM19.9492 39.8987L19.9964 37.6733L17.723 37.4596C17.6952 38.4251 17.587 39.26 17.3608 39.6553L19.9492 39.8987Z" fill="#1E1E1E"/>
<path d="M28.972 38.5717L25.6444 41.2386L23.6589 41.0526L23.7598 36.3154L25.7452 36.5014L25.6818 39.4808L29.0096 36.8072L30.995 36.9932L30.8942 41.7304L28.9087 41.5444L28.972 38.5717Z" fill="#1E1E1E"/>
<path d="M35.7271 41.8511L35.3975 41.8202C33.1456 41.6088 31.9399 40.8698 31.9646 39.7079L31.9666 39.6122L34.0234 39.8052C34.0283 40.2666 34.5257 40.5623 35.6379 40.6667C36.6874 40.7652 37.0757 40.6418 37.0812 40.3799L37.0816 40.3614C37.0872 40.0994 36.7194 39.9572 35.9626 39.8862L34.4306 39.7425L34.4537 38.6578L35.9856 38.8015C36.6853 38.8672 37.0093 38.8152 37.0141 38.5918L37.0144 38.5734C37.0193 38.3433 36.6094 38.1837 35.6575 38.0944C34.7479 38.0091 34.0945 38.1076 34.0622 38.584L32.0055 38.391L32.0077 38.2886C32.0269 37.3819 33.0927 36.7164 35.4643 36.939L35.7792 36.9685C38.346 37.2094 39.0482 37.8507 39.0345 38.4954L39.0333 38.5525C39.0233 39.0243 38.5673 39.3853 37.7334 39.3828C38.656 39.5518 39.1697 40.0358 39.1579 40.5898L39.1566 40.6537C39.1431 41.4617 38.4062 42.1025 35.7271 41.8511Z" fill="#1E1E1E"/>
<path d="M44.9289 41.4656L41.9618 41.1892L41.5469 41.9112L39.537 41.7239L42.2061 37.2569L44.8719 37.5052L47.4866 42.4646L45.315 42.2622L44.9289 41.4656ZM44.3203 40.2296L43.4823 38.5284L42.597 40.069L44.3203 40.2296Z" fill="#1E1E1E"/>
<path d="M53.5711 39.6109L50.2275 42.3175L48.2325 42.1285L48.3337 37.3202L50.3288 37.5092L50.2651 40.5333L53.6088 37.8199L55.6038 38.0089L55.5026 42.8173L53.5076 42.6283L53.5711 39.6109ZM52.1385 37.4352L51.8575 37.4086C50.4948 37.2795 50.2851 36.5013 50.2923 36.1594L50.2926 36.1458L51.5776 36.2675C51.5834 36.3464 51.6265 36.5891 52.0203 36.6264C52.3993 36.6623 52.4617 36.4279 52.4633 36.3514L53.728 36.4712L53.7277 36.4848C53.7205 36.8267 53.3884 37.5536 52.1385 37.4352Z" fill="#1E1E1E"/>
<path d="M61.9242 41.2009L58.6723 40.8963L58.6339 42.6977L56.6482 42.5117L56.749 37.7744L58.7348 37.9604L58.6991 39.6345L61.951 39.9391L61.9867 38.2651L63.9651 38.4504L63.8642 43.1877L61.8858 43.0023L61.9242 41.2009Z" fill="#1E1E1E"/>
<path d="M138.073 52.8859C141.113 57.9141 139.816 64.3836 135.099 70.8263C130.391 77.2549 122.32 83.5829 111.994 88.2716C101.669 92.9604 91.0689 95.1088 82.2907 94.8045C73.4942 94.4984 66.6173 91.7403 63.5773 86.7121C60.5374 81.6839 61.8336 75.2145 66.5508 68.7734C71.2585 62.3449 79.3303 56.0152 89.6557 51.3281C99.9811 46.6394 110.581 44.4909 119.359 44.7953C128.156 45.0997 135.033 47.8594 138.073 52.8859Z" stroke="#1E1E1E"/>
<path d="M138.695 62.756C140.799 67.2283 138.648 72.6926 133.25 77.9428C127.87 83.1763 119.339 88.1163 108.925 91.5094C98.5104 94.9025 88.2151 96.0951 79.9962 95.293C71.7498 94.4882 65.7122 91.6927 63.6068 87.2203C61.5014 82.7478 63.654 77.2837 69.0504 72.0333C74.4298 66.7998 82.9612 61.8598 93.3755 58.4667C103.79 55.0736 114.085 53.881 122.304 54.6831C130.552 55.488 136.592 58.2837 138.695 62.756Z" stroke="#1E1E1E"/>
<path d="M137.724 94.6592C137.801 94.7056 137.819 94.7312 137.822 94.7396C137.82 94.7475 137.806 94.7735 137.74 94.8185C137.649 94.8793 137.495 94.9515 137.262 95.0273C136.798 95.179 136.087 95.3297 135.141 95.4736C133.256 95.7632 130.503 96.0227 127.075 96.237C120.223 96.6672 110.717 96.9209 100.181 96.8947C89.6443 96.8684 80.0805 96.5664 73.1362 96.1016C69.6623 95.8691 66.8528 95.5959 64.909 95.2972C63.9335 95.1469 63.1925 94.9939 62.6951 94.8403C62.4464 94.7635 62.2775 94.6914 62.1738 94.6295C62.0969 94.5832 62.0794 94.5576 62.076 94.5492C62.078 94.5412 62.0914 94.5152 62.1581 94.4702C62.2488 94.4094 62.4016 94.3371 62.6362 94.2615C63.1001 94.1098 63.8112 93.9591 64.7565 93.8152C66.6416 93.5256 69.3947 93.266 72.8226 93.0518C79.6747 92.6216 89.1809 92.3678 99.7172 92.3941C110.254 92.4204 119.817 92.7224 126.762 93.1871C130.236 93.4197 133.045 93.6928 134.989 93.9916C135.964 94.1419 136.707 94.295 137.203 94.4484C137.452 94.5252 137.622 94.5975 137.724 94.6592Z" stroke="#1E1E1E"/>
<path d="M137.809 87.0058C137.869 87.3094 137.737 87.6557 137.334 88.0457C136.933 88.4343 136.292 88.8404 135.415 89.2506C133.663 90.0728 131.038 90.8921 127.722 91.6601C121.095 93.1935 111.769 94.5066 101.316 95.2331C90.8622 95.9596 81.2794 95.9586 74.2355 95.375C70.7109 95.083 67.8387 94.6449 65.8154 94.0851C64.8029 93.8051 64.0207 93.4978 63.4814 93.1747C62.9403 92.8499 62.6761 92.532 62.6159 92.2269C62.5556 91.9234 62.6878 91.577 63.0908 91.1871C63.492 90.7985 64.1325 90.3924 65.01 89.9822C66.7616 89.1599 69.3863 88.3407 72.7027 87.5727C79.3299 86.0393 88.6558 84.7261 99.1091 83.9997C109.562 83.2732 119.147 83.2743 126.189 83.8578C129.714 84.1498 132.586 84.5878 134.609 85.1477C135.622 85.4277 136.404 85.735 136.945 86.0583C137.486 86.383 137.748 86.7023 137.809 87.0058Z" stroke="#1E1E1E"/>
<path d="M138.458 79.6155C138.789 80.8199 138.163 82.1617 136.579 83.5738C135.003 84.9789 132.537 86.403 129.35 87.7612C122.979 90.4763 113.794 92.9019 103.307 94.385C92.8191 95.868 83.0375 96.1263 75.7024 95.3502C72.033 94.962 68.9949 94.3166 66.794 93.4451C64.5805 92.5692 63.2876 91.5002 62.9561 90.2958C62.6246 89.0914 63.2528 87.7498 64.8354 86.3375C66.4105 84.9324 68.8768 83.5083 72.0659 82.1502C78.4367 79.4351 87.6213 77.0095 98.109 75.5265C108.597 74.0435 118.378 73.7852 125.712 74.5611C129.381 74.9493 132.419 75.5947 134.62 76.4662C136.834 77.3405 138.126 78.4111 138.458 79.6155Z" stroke="#1E1E1E"/>
<path d="M138.172 71.2644C138.817 73.0068 138.434 74.9317 137.115 76.9394C135.796 78.9454 133.559 81.0081 130.561 83.0027C124.568 86.9904 115.591 90.675 105.052 93.0981C94.5119 95.5209 84.4291 96.2189 76.6546 95.3963C72.7665 94.984 69.4719 94.1939 66.9902 93.0608C64.5085 91.9278 62.8725 90.4678 62.2261 88.7236C61.5796 86.981 61.9646 85.0563 63.2835 83.0486C64.6024 81.0425 66.8399 78.9799 69.8374 76.9853C75.8304 72.9975 84.8076 69.313 95.3481 66.8901C105.889 64.4672 115.971 63.7692 123.746 64.5919C127.634 65.0041 130.929 65.7942 133.41 66.9273C135.89 68.0602 137.526 69.5202 138.172 71.2644Z" stroke="#1E1E1E"/>
<path d="M61.7861 97.6658L137.807 100.921" stroke="#1E1E1E"/>
<defs>
<linearGradient id="paint0_linear_278:1134" x1="181.352" y1="63.2233" x2="8.17166" y2="55.5665" gradientUnits="userSpaceOnUse">
<stop offset="0.25" stop-color="#A8A8A8"/>
<stop offset="1" stop-color="white"/>
</linearGradient>
</defs>
</svg>
