<svg width="154" height="112" viewBox="0 0 154 112" fill="none" xmlns="http://www.w3.org/2000/svg">
<path d="M153.733 8.60043V3.54914C153.503 3.59976 153.265 3.62868 153.02 3.62868C151.216 3.62868 149.754 2.16609 149.754 0.361794C149.754 0.329252 149.757 0.296703 149.759 0.26416H146.456C146.458 0.296703 146.462 0.327444 146.462 0.361794C146.462 2.16609 144.999 3.62868 143.195 3.62868C141.391 3.62868 139.928 2.16609 139.928 0.361794C139.928 0.329252 139.932 0.296703 139.934 0.26416H136.631C136.633 0.296703 136.636 0.327444 136.636 0.361794C136.636 2.16609 135.174 3.62868 133.37 3.62868C131.566 3.62868 130.103 2.16609 130.103 0.361794C130.103 0.329252 130.107 0.296703 130.109 0.26416H126.77C126.771 0.296703 126.775 0.327444 126.775 0.361794C126.775 2.16609 125.312 3.62868 123.508 3.62868C121.704 3.62868 120.242 2.16609 120.242 0.361794C120.242 0.329252 120.245 0.296703 120.247 0.26416H116.971C116.973 0.296703 116.977 0.327444 116.977 0.361794C116.977 2.16609 115.514 3.62868 113.71 3.62868C111.906 3.62868 110.443 2.16609 110.443 0.361794C110.443 0.329252 110.447 0.296703 110.449 0.26416H106.707C106.709 0.296703 106.712 0.327444 106.712 0.361794C106.712 2.16609 105.354 3.62868 103.679 3.62868C102.003 3.62868 100.645 2.16609 100.645 0.361794C100.645 0.329252 100.649 0.296703 100.651 0.26416H96.9085C96.9103 0.296703 96.9139 0.327444 96.9139 0.361794C96.9139 2.16609 95.4514 3.62868 93.6472 3.62868C91.843 3.62868 90.3805 2.16609 90.3805 0.361794C90.3805 0.329252 90.3841 0.296703 90.386 0.26416H87.1102C87.112 0.296703 87.1157 0.327444 87.1157 0.361794C87.1157 2.16609 85.6532 3.62868 83.849 3.62868C82.0448 3.62868 80.5823 2.16609 80.5823 0.361794C80.5823 0.329252 80.5859 0.296703 80.5877 0.26416H76.8456C76.8456 0.296703 76.851 0.327444 76.851 0.361794C76.851 2.16609 75.4934 3.62868 73.8175 3.62868C72.1417 3.62868 70.7841 2.16609 70.7841 0.361794C70.7841 0.329252 70.7877 0.296703 70.7895 0.26416H67.0474C67.0492 0.296703 67.0528 0.327444 67.0528 0.361794C67.0528 2.16609 65.5903 3.62868 63.7861 3.62868C61.9819 3.62868 60.5194 2.16609 60.5194 0.361794C60.5194 0.329252 60.5231 0.296703 60.5249 0.26416H56.7827C56.7845 0.296703 56.7882 0.327444 56.7882 0.361794C56.7882 2.16609 55.4305 3.62868 53.7547 3.62868C52.0788 3.62868 50.7212 2.16609 50.7212 0.361794C50.7212 0.329252 50.7248 0.296703 50.7266 0.26416H46.9845C46.9863 0.296703 46.9899 0.327444 46.9899 0.361794C46.9899 2.16609 45.5274 3.62868 43.7232 3.62868C41.9191 3.62868 40.4566 2.16609 40.4566 0.361794C40.4566 0.329252 40.4602 0.296703 40.462 0.26416H37.1845C37.1863 0.296703 37.1899 0.327444 37.1899 0.361794C37.1899 2.16609 35.7274 3.62868 33.9232 3.62868C32.119 3.62868 30.6565 2.16609 30.6565 0.361794C30.6565 0.329252 30.6601 0.296703 30.6619 0.26416H26.9198C26.9198 0.296703 26.9252 0.327444 26.9252 0.361794C26.9252 2.16609 25.5676 3.62868 23.8918 3.62868C22.216 3.62868 20.8583 2.16609 20.8583 0.361794C20.8583 0.329252 20.8619 0.296703 20.8637 0.26416H17.1216C17.1234 0.296703 17.127 0.327444 17.127 0.361794C17.127 2.16609 15.6645 3.62868 13.8603 3.62868C12.0562 3.62868 10.5937 2.16609 10.5937 0.361794C10.5937 0.329252 10.5973 0.296703 10.5991 0.26416H7.30348C7.30529 0.296703 7.3089 0.327444 7.3089 0.361794C7.3089 2.16609 5.8464 3.62868 4.04222 3.62868C2.23804 3.62868 0.775539 2.16609 0.775539 0.361794C0.775539 0.329252 0.779159 0.296703 0.780967 0.26416H0V7.87184C1.80418 7.87184 3.26668 9.33445 3.26668 11.1387C3.26668 12.943 1.80418 14.4056 0 14.4056V17.6725C1.80418 17.6725 3.26668 19.1351 3.26668 20.9394C3.26668 22.7437 1.80418 24.2063 0 24.2063V27.9396C1.80418 27.9396 3.26668 29.2974 3.26668 30.9733C3.26668 32.6492 1.80418 34.007 0 34.007V37.7403C1.80418 37.7403 3.26668 39.2029 3.26668 41.0072C3.26668 42.8115 1.80418 44.2741 0 44.2741V47.541C1.80418 47.541 3.26668 49.0036 3.26668 50.8079C3.26668 52.6122 1.80418 54.0748 0 54.0748V57.8081C1.80418 57.8081 3.26668 59.1659 3.26668 60.8418C3.26668 62.5177 1.80418 63.8755 0 63.8755V67.6088C1.80418 67.6088 3.26668 69.0714 3.26668 70.8757C3.26668 72.68 1.80418 74.1426 0 74.1426V77.8759C1.80418 77.8759 3.26668 79.2337 3.26668 80.9096C3.26668 82.5855 1.80418 83.9433 0 83.9433V87.6766C1.80418 87.6766 3.26668 89.1392 3.26668 90.9435C3.26668 92.7478 1.80418 94.2104 0 94.2104V97.4773C1.80418 97.4773 3.26668 98.9399 3.26668 100.744C3.26668 102.548 1.80418 104.011 0 104.011V109.296C0.596571 108.663 1.43901 108.265 2.37725 108.265C4.18143 108.265 5.64392 109.728 5.64392 111.532H8.9106C8.9106 109.728 10.3731 108.265 12.1773 108.265C13.9815 108.265 15.444 109.728 15.444 111.532H19.1771C19.1771 109.728 20.5347 108.265 22.2105 108.265C23.8863 108.265 25.244 109.728 25.244 111.532H28.9771C28.9771 109.728 30.4396 108.265 32.2438 108.265C34.0479 108.265 35.5105 109.728 35.5105 111.532H38.7771C38.7771 109.728 40.2396 108.265 42.0438 108.265C43.848 108.265 45.3105 109.728 45.3105 111.532H49.0436C49.0436 109.728 50.4012 108.265 52.077 108.265C53.7529 108.265 55.1105 109.728 55.1105 111.532H58.8436C58.8436 109.728 60.3061 108.265 62.1103 108.265C63.9145 108.265 65.377 109.728 65.377 111.532H69.1101C69.1101 109.728 70.4677 108.265 72.1435 108.265C73.8193 108.265 75.177 109.728 75.177 111.532H78.9101C78.9101 109.728 80.3726 108.265 82.1768 108.265C83.9809 108.265 85.4435 109.728 85.4435 111.532H88.7101C88.7101 109.728 90.1726 108.265 91.9768 108.265C93.781 108.265 95.2435 109.728 95.2435 111.532H98.9766C98.9766 109.728 100.334 108.265 102.01 108.265C103.686 108.265 105.044 109.728 105.044 111.532H108.777C108.777 109.728 110.239 108.265 112.043 108.265C113.847 108.265 115.31 109.728 115.31 111.532H118.577C118.577 109.728 120.039 108.265 121.843 108.265C123.648 108.265 125.11 109.728 125.11 111.532H128.438C128.438 109.728 129.901 108.265 131.705 108.265C133.509 108.265 134.972 109.728 134.972 111.532H138.265C138.265 109.728 139.728 108.265 141.532 108.265C143.336 108.265 144.799 109.728 144.799 111.532H148.092C148.092 109.728 149.555 108.265 151.359 108.265C152.297 108.265 153.14 108.663 153.736 109.296V104.738C151.932 104.738 150.47 103.275 150.47 101.471C150.47 99.6667 151.932 98.204 153.736 98.204V94.9372C151.932 94.9372 150.47 93.4745 150.47 91.6703C150.47 89.866 151.932 88.4034 153.736 88.4034V84.67C151.932 84.67 150.47 83.3123 150.47 81.6364C150.47 79.9604 151.932 78.6027 153.736 78.6027V74.8694C151.932 74.8694 150.47 73.4068 150.47 71.6025C150.47 69.7982 151.932 68.3356 153.736 68.3356V64.6022C151.932 64.6022 150.47 63.2445 150.47 61.5686C150.47 59.8926 151.932 58.5349 153.736 58.5349V54.8016C151.932 54.8016 150.47 53.339 150.47 51.5347C150.47 49.7304 151.932 48.2678 153.736 48.2678V45.0009C151.932 45.0009 150.47 43.5383 150.47 41.734C150.47 39.9297 151.932 38.4671 153.736 38.4671V34.7338C151.932 34.7338 150.47 33.376 150.47 31.7001C150.47 30.0242 151.932 28.6664 153.736 28.6664V24.9331C151.932 24.9331 150.47 23.4705 150.47 21.6662C150.47 19.8619 151.932 18.3993 153.736 18.3993V15.1324C151.932 15.1324 150.47 13.6698 150.47 11.8655C150.466 10.063 151.929 8.60043 153.733 8.60043Z" fill="url(#paint0_linear_278:1112)"/>
<path d="M11.8438 16.0542H14.5263L16.0939 18.9226L17.6885 16.0542H20.2607V21.1607H18.3275V17.9761L16.5319 21.1607H15.5345L13.7462 17.9761V21.1607H11.8438V16.0542Z" fill="#1E1E1E"/>
<path d="M26.4262 20.337H23.5029L23.1101 21.1607H21.1299L23.6604 16.0542H26.2868L28.9621 21.1607H26.8226L26.4262 20.337ZM25.7999 19.0599L24.9401 17.3024L24.1002 19.0599H25.7999Z" fill="#1E1E1E"/>
<path d="M31.7842 19.5621V21.1607H29.8311V16.0542H34.0956C35.98 16.0542 36.523 16.802 36.523 17.7431V17.8533C36.523 18.7799 35.9655 19.5621 34.0956 19.5621H31.7842ZM31.7842 18.285H33.8603C34.3074 18.285 34.5065 18.099 34.5065 17.819V17.7991C34.5065 17.5101 34.3147 17.3331 33.8603 17.3331H31.7842V18.285Z" fill="#1E1E1E"/>
<path d="M39.5634 18.8757V21.1607H37.6104V16.0542H39.5634V18.0719L42.0813 16.0542H44.5086L41.531 18.3735L44.6045 21.1607H42.0596L39.5634 18.8757Z" fill="#1E1E1E"/>
<path d="M51.1114 16.0542V17.3042H47.3773V17.9418H51.0354V19.1846H47.3773V19.8854H51.1676V21.1625H45.4531V16.056H51.1114V16.0542Z" fill="#1E1E1E"/>
<path d="M52.1708 16.0542H58.5387V17.4469H56.3304V21.1589H54.3773V17.4469H52.1689V16.0542H52.1708Z" fill="#1E1E1E"/>
<path d="M64.8615 17.9563L61.6504 21.1607H59.6973V16.0542H61.6504V19.2658L64.8615 16.0542H66.8145V21.1607H64.8615V17.9563Z" fill="#1E1E1E"/>
<path d="M73.2726 19.2189H70.0742V21.1607H68.1211V16.0542H70.0742V17.8587H73.2726V16.0542H75.2185V21.1607H73.2726V19.2189Z" fill="#1E1E1E"/>
<path d="M76.5273 16.0542H81.9323V17.4126H78.4804V21.1607H76.5273V16.0542Z" fill="#1E1E1E"/>
<path d="M108.515 97.9694C126.906 97.9694 141.814 83.0925 141.814 64.7401C141.814 46.3877 126.906 31.5107 108.515 31.5107C90.1247 31.5107 75.2168 46.3877 75.2168 64.7401C75.2186 83.0925 90.1265 97.9694 108.515 97.9694Z" stroke="#1E1E1E" stroke-miterlimit="10"/>
<path d="M129.165 87.0412C141.506 74.7256 141.506 54.7584 129.165 42.4428C116.824 30.1272 96.8149 30.1272 84.4737 42.4428C72.1325 54.7584 72.1325 74.7256 84.4737 87.0412C96.8149 99.3568 116.824 99.3568 129.165 87.0412Z" stroke="#1E1E1E" stroke-miterlimit="10"/>
<path d="M126.271 85.8439C137.949 74.1894 137.949 55.2933 126.271 43.6388C114.592 31.9843 95.6565 31.9843 83.9778 43.6388C72.2991 55.2933 72.2991 74.1894 83.9778 85.8439C95.6565 97.5002 114.592 97.5002 126.271 85.8439Z" stroke="#1E1E1E" stroke-miterlimit="10"/>
<path d="M103.427 92.8915C119.007 92.8915 131.638 80.2887 131.638 64.7398C131.638 49.1927 119.009 36.5898 103.427 36.5898C87.8478 36.5898 75.2188 49.1927 75.2188 64.7398C75.2187 80.2887 87.8478 92.8915 103.427 92.8915Z" stroke="#1E1E1E" stroke-miterlimit="10"/>
<path d="M101.731 91.1993C116.375 91.1993 128.245 79.3533 128.245 64.74C128.245 50.1267 116.375 38.2808 101.731 38.2808C87.0874 38.2808 75.2168 50.1267 75.2168 64.74C75.2168 79.3533 87.0892 91.1993 101.731 91.1993Z" stroke="#1E1E1E" stroke-miterlimit="10"/>
<path d="M100.035 89.507C113.741 89.507 124.853 78.4197 124.853 64.7403C124.853 51.0609 113.741 39.9736 100.035 39.9736C86.3289 39.9736 75.2168 51.0609 75.2168 64.7403C75.2168 78.4197 86.3271 89.507 100.035 89.507Z" stroke="#1E1E1E" stroke-miterlimit="10"/>
<path d="M98.3391 87.8146C111.107 87.8146 121.459 77.4842 121.459 64.7423C121.459 51.9986 111.107 41.6699 98.3391 41.6699C85.5689 41.6699 75.2188 52.0004 75.2188 64.7423C75.2188 77.4842 85.5707 87.8146 98.3391 87.8146Z" stroke="#1E1E1E" stroke-miterlimit="10"/>
<path d="M96.643 86.1219C108.476 86.1219 118.067 76.5502 118.067 64.7421C118.067 52.9341 108.476 43.3623 96.643 43.3623C84.8104 43.3623 75.2188 52.9341 75.2188 64.7421C75.2188 76.5502 84.8104 86.1219 96.643 86.1219Z" stroke="#1E1E1E" stroke-miterlimit="10"/>
<path d="M94.947 84.4272C105.842 84.4272 114.675 75.6123 114.675 64.74C114.675 53.8677 105.842 45.0527 94.947 45.0527C84.052 45.0527 75.2188 53.8677 75.2188 64.74C75.2188 75.6141 84.0502 84.4272 94.947 84.4272Z" stroke="#1E1E1E" stroke-miterlimit="10"/>
<defs>
<linearGradient id="paint0_linear_278:1112" x1="179.095" y1="56.0568" x2="5.74584" y2="56.0568" gradientUnits="userSpaceOnUse">
<stop offset="0.25" stop-color="#A8A8A8"/>
<stop offset="1" stop-color="white"/>
</linearGradient>
</defs>
</svg>
