<svg width="165" height="126" viewBox="0 0 165 126" fill="none" xmlns="http://www.w3.org/2000/svg">
<path d="M154.729 8.29642L154.234 3.26943C154.01 3.3423 153.776 3.39447 153.533 3.41838C151.737 3.59516 150.139 2.2829 149.962 0.487291C149.959 0.454905 149.959 0.422165 149.958 0.389601L146.671 0.713224C146.676 0.745433 146.682 0.775664 146.686 0.809849C146.862 2.60546 145.55 4.20432 143.755 4.3811C141.959 4.55788 140.36 3.24562 140.184 1.45001C140.181 1.41762 140.181 1.38488 140.18 1.35232L136.893 1.67594C136.898 1.70815 136.904 1.73838 136.908 1.77257C137.084 3.56818 135.772 5.16704 133.977 5.34382C132.181 5.5206 130.582 4.20834 130.406 2.41273C130.402 2.38034 130.403 2.3476 130.401 2.31504L127.079 2.6422C127.084 2.67441 127.09 2.70464 127.093 2.73883C127.27 4.53444 125.958 6.1333 124.163 6.31008C122.367 6.48686 120.768 5.1746 120.592 3.37899C120.588 3.3466 120.589 3.31386 120.587 3.2813L117.327 3.60226C117.332 3.63447 117.339 3.6647 117.342 3.69889C117.519 5.4945 116.207 7.09336 114.412 7.27014C112.616 7.44692 111.017 6.13466 110.84 4.33905C110.837 4.30666 110.838 4.27392 110.836 4.24136L107.112 4.60802C107.115 4.64041 107.124 4.67046 107.127 4.70465C107.304 6.50026 106.096 8.08885 104.428 8.25305C102.761 8.41725 101.266 7.09472 101.089 5.29911C101.086 5.26672 101.087 5.23398 101.085 5.20142L97.3611 5.56808C97.3661 5.60029 97.3727 5.63052 97.3761 5.66471C97.5529 7.46032 96.2407 9.05918 94.4452 9.23596C92.6497 9.41274 91.0509 8.10048 90.8741 6.30487C90.871 6.27248 90.8714 6.23974 90.87 6.20718L87.6101 6.52814C87.615 6.56035 87.6216 6.59059 87.625 6.62477C87.8018 8.42038 86.4896 10.0192 84.6941 10.196C82.8986 10.3728 81.2999 9.06054 81.1231 7.26493C81.1199 7.23254 81.1203 7.1998 81.1189 7.16724L77.3948 7.5339C77.398 7.56629 77.4064 7.59635 77.4098 7.63053C77.5865 9.42614 76.3787 11.0147 74.711 11.1789C73.0432 11.3431 71.5488 10.0206 71.372 8.22499C71.3688 8.1926 71.3692 8.15986 71.3678 8.1273L67.6437 8.49397C67.6487 8.52618 67.6553 8.55641 67.6586 8.59059C67.8354 10.3862 66.5233 11.9851 64.7278 12.1618C62.9323 12.3386 61.3335 11.0264 61.1567 9.23075C61.1536 9.19837 61.154 9.16563 61.1526 9.13306L57.4285 9.49973C57.4317 9.53211 57.44 9.56217 57.4434 9.59636C57.6202 11.392 56.4124 12.9806 54.7447 13.1448C53.0769 13.309 51.5825 11.9864 51.4057 10.1908C51.4025 10.1584 51.4029 10.1257 51.4015 10.0931L47.6773 10.4598C47.6823 10.492 47.689 10.5222 47.6923 10.5564C47.8691 12.352 46.557 13.9509 44.7615 14.1277C42.966 14.3044 41.3672 12.9922 41.1904 11.1966C41.1872 11.1642 41.1876 11.1314 41.1862 11.0989L37.9245 11.42C37.9295 11.4522 37.9361 11.4825 37.9394 11.5167C38.1162 13.3123 36.8041 14.9111 35.0086 15.0879C33.2131 15.2647 31.6143 13.9524 31.4375 12.1568C31.4343 12.1244 31.4347 12.0917 31.4334 12.0591L27.7092 12.4258C27.7124 12.4582 27.7208 12.4882 27.7242 12.5224C27.901 14.318 26.6932 15.9066 25.0254 16.0708C23.3577 16.235 21.8632 14.9125 21.6864 13.1169C21.6833 13.0845 21.6837 13.0517 21.6823 13.0192L17.9581 13.3859C17.9631 13.4181 17.9697 13.4483 17.9731 13.4825C18.1499 15.2781 16.8378 16.8769 15.0423 17.0537C13.2468 17.2305 11.648 15.9182 11.4712 14.1226C11.468 14.0902 11.4684 14.0575 11.467 14.0249L8.20707 14.3459C8.21206 14.3781 8.21867 14.4084 8.22204 14.4425C8.39883 16.2381 7.08666 17.837 5.29117 18.0138C3.49567 18.1906 1.89691 16.8783 1.72012 15.0827C1.71693 15.0503 1.71734 15.0176 1.71595 14.985L0.918945 15.0635L1.66437 22.6346C3.45986 22.4578 5.05863 23.77 5.23542 25.5656C5.41221 27.3613 4.10006 28.9601 2.30457 29.1369L2.62467 32.3881C4.42016 32.2113 6.01893 33.5236 6.19572 35.3192C6.37251 37.1148 5.06036 38.7136 3.26487 38.8904L3.63067 42.6058C5.42617 42.429 7.01466 43.6369 7.17887 45.3048C7.34309 46.9726 6.02067 48.4672 4.22517 48.6439L4.59097 52.3593C6.38647 52.1825 7.98524 53.4948 8.16203 55.2904C8.33882 57.086 7.02667 58.6849 5.23117 58.8616L5.55128 62.1128C7.34677 61.936 8.94554 63.2483 9.12233 65.0439C9.29912 66.8395 7.98697 68.4384 6.19148 68.6152L6.55728 72.3305C8.35277 72.1537 9.94127 73.3617 10.1055 75.0295C10.2697 76.6974 8.94727 78.1919 7.15178 78.3687L7.51758 82.084C9.31307 81.9073 10.9118 83.2195 11.0886 85.0151C11.2654 86.8107 9.95327 88.4096 8.15778 88.5864L8.52358 92.3018C10.3191 92.125 11.9076 93.3329 12.0718 95.0007C12.236 96.6686 10.9136 98.1631 9.11808 98.3399L9.48388 102.055C11.2794 101.878 12.8781 103.191 13.0549 104.986C13.2317 106.782 11.9196 108.381 10.1241 108.558L10.4442 111.809C12.2397 111.632 13.8384 112.944 14.0152 114.74C14.192 116.535 12.8799 118.134 11.0844 118.311L11.6022 123.57C12.1339 122.882 12.9333 122.404 13.867 122.312C15.6625 122.135 17.2613 123.447 17.4381 125.243L20.689 124.923C20.5123 123.127 21.8244 121.528 23.6199 121.351C25.4154 121.175 27.0142 122.487 27.191 124.283L30.9061 123.917C30.7293 122.121 31.9371 120.533 33.6049 120.368C35.2726 120.204 36.7671 121.527 36.9438 123.322L40.659 122.957C40.4822 121.161 41.7943 119.562 43.5898 119.385C45.3853 119.209 46.9841 120.521 47.1609 122.316L50.4118 121.996C50.2351 120.201 51.5472 118.602 53.3427 118.425C55.1382 118.248 56.737 119.561 56.9137 121.356L60.6289 120.99C60.4521 119.195 61.6599 117.606 63.3277 117.442C64.9954 117.278 66.4899 118.6 66.6667 120.396L70.3818 120.03C70.205 118.235 71.5172 116.636 73.3126 116.459C75.1081 116.282 76.7069 117.594 76.8837 119.39L80.5988 119.024C80.422 117.229 81.6299 115.64 83.2976 115.476C84.9654 115.312 86.4598 116.634 86.6366 118.43L90.3517 118.064C90.1749 116.268 91.4871 114.67 93.2826 114.493C95.0781 114.316 96.6768 115.628 96.8536 117.424L100.105 117.104C99.9278 115.308 101.24 113.709 103.035 113.532C104.831 113.356 106.43 114.668 106.607 116.464L110.322 116.098C110.145 114.302 111.353 112.714 113.02 112.549C114.688 112.385 116.183 113.708 116.359 115.503L120.075 115.138C119.898 113.342 121.21 111.743 123.005 111.566C124.801 111.39 126.4 112.702 126.576 114.497L129.827 114.177C129.651 112.382 130.963 110.783 132.758 110.606C134.554 110.429 136.153 111.742 136.329 113.537L139.641 113.211C139.465 111.415 140.777 109.817 142.572 109.64C144.368 109.463 145.967 110.775 146.143 112.571L149.421 112.248C149.245 110.453 150.557 108.854 152.352 108.677C154.148 108.5 155.746 109.812 155.923 111.608L159.201 111.285C159.024 109.49 160.337 107.891 162.132 107.714C163.066 107.622 163.943 107.935 164.599 108.507L164.152 103.971C162.357 104.148 160.758 102.835 160.581 101.04C160.404 99.2441 161.717 97.6453 163.512 97.4685L163.192 94.2173C161.396 94.3941 159.798 93.0818 159.621 91.2862C159.444 89.4906 160.756 87.8918 162.552 87.715L162.186 83.9996C160.39 84.1764 158.802 82.9685 158.638 81.3006C158.474 79.6327 159.796 78.1382 161.591 77.9615L161.226 74.2461C159.43 74.4229 157.831 73.1106 157.655 71.315C157.478 69.5194 158.79 67.9205 160.585 67.7438L160.22 64.0284C158.424 64.2052 156.836 62.9973 156.671 61.3294C156.507 59.6615 157.83 58.167 159.625 57.9902L159.259 54.2749C157.464 54.4516 155.865 53.1394 155.688 51.3438C155.512 49.5482 156.824 47.9493 158.619 47.7725L158.299 44.5214C156.504 44.6981 154.905 43.3859 154.728 41.5903C154.551 39.7946 155.863 38.1958 157.659 38.019L157.293 34.3036C155.498 34.4804 153.909 33.2725 153.745 31.6046C153.581 29.9368 154.903 28.4423 156.699 28.2655L156.333 24.5501C154.537 24.7269 152.938 23.4146 152.762 21.619C152.585 19.8234 153.897 18.2246 155.693 18.0478L155.373 14.7984C153.577 14.9752 151.978 13.6629 151.802 11.8673C151.621 10.0721 152.933 8.4732 154.729 8.29642Z" fill="url(#paint0_linear_278:1087)"/>
<path d="M16.2264 32.3156L16.3325 34.2893L14.3152 34.668L14.0781 30.2573L16.0954 29.8786L16.1891 31.6214L18.696 29.3904L21.2031 28.9197L18.2353 31.5004L21.5393 33.3118L18.9107 33.8053L16.2264 32.3156Z" fill="#1E1E1E"/>
<path d="M27.3007 30.138L24.1349 33.5215L22.1188 33.8994L21.8818 29.4976L23.8979 29.1197L24.0469 31.8882L27.2124 28.4984L29.2285 28.1205L29.4655 32.5223L27.4495 32.9002L27.3007 30.138Z" fill="#1E1E1E"/>
<path d="M35.7325 30.4027L32.4307 31.0218L32.5208 32.6962L30.5046 33.0742L30.2676 28.6709L32.2838 28.2929L32.3676 29.8489L35.6694 29.2298L35.5856 27.6738L37.5944 27.2972L37.8314 31.7005L35.8226 32.0771L35.7325 30.4027Z" fill="#1E1E1E"/>
<path d="M42.6184 27.0455C46.0201 26.4109 46.5309 27.67 46.5758 28.4999L46.5854 28.6765C46.6296 29.494 46.2714 30.9512 42.8641 31.5869L42.5452 31.6464C39.1305 32.2834 38.6234 30.9876 38.5791 30.1701L38.5696 29.9936C38.5247 29.1636 38.8848 27.742 42.2995 27.105L42.6184 27.0455ZM42.518 28.2529C40.9309 28.549 40.628 29.1826 40.6531 29.6471L40.657 29.7183C40.6818 30.1766 41.077 30.7269 42.6361 30.4361C44.1952 30.1452 44.5245 29.477 44.4994 29.0124L44.4949 28.9304C44.4697 28.4643 44.0845 27.9606 42.518 28.2529Z" fill="#1E1E1E"/>
<path d="M74.7381 98.9493L126.635 86.737L150.465 94.3848" stroke="#1E1E1E" stroke-miterlimit="10"/>
<path d="M74.2073 94.9059L124.302 84.1289L149.865 90.4485" stroke="#1E1E1E" stroke-miterlimit="10"/>
<path d="M73.6763 90.8699L121.972 81.5014L149.263 86.5311" stroke="#1E1E1E" stroke-miterlimit="10"/>
<path d="M73.1469 86.842L119.65 78.8538L148.667 82.6346" stroke="#1E1E1E" stroke-miterlimit="10"/>
<path d="M72.6229 82.8222L117.337 76.1849L148.075 78.7629" stroke="#1E1E1E" stroke-miterlimit="10"/>
<path d="M72.0439 78.7051L114.998 73.2605L147.477 74.6874" stroke="#1E1E1E" stroke-miterlimit="10"/>
<path d="M71.4434 74.5488L112.651 70.2492L146.876 70.5302" stroke="#1E1E1E" stroke-miterlimit="10"/>
<path d="M70.8447 70.3965L110.307 67.2466L146.277 66.3872" stroke="#1E1E1E" stroke-miterlimit="10"/>
<path d="M70.2461 66.2402L107.962 64.2362L145.68 62.2308" stroke="#1E1E1E" stroke-miterlimit="10"/>
<path d="M69.6533 62.0859L105.625 61.2263L145.088 58.0765" stroke="#1E1E1E" stroke-miterlimit="10"/>
<path d="M69.0537 57.9321L103.279 58.2171L144.488 53.9217" stroke="#1E1E1E" stroke-miterlimit="10"/>
<path d="M68.457 53.7783L100.935 55.2091L143.891 49.7688" stroke="#1E1E1E" stroke-miterlimit="10"/>
<path d="M67.8574 49.7026L98.5978 52.2841L143.309 45.6515" stroke="#1E1E1E" stroke-miterlimit="10"/>
<path d="M67.2588 45.8315L96.2765 49.6156L142.779 41.6321" stroke="#1E1E1E" stroke-miterlimit="10"/>
<path d="M66.666 41.9351L93.9574 46.9677L142.253 37.6037" stroke="#1E1E1E" stroke-miterlimit="10"/>
<path d="M66.0654 38.0156L91.6289 44.3379L141.723 33.5654" stroke="#1E1E1E" stroke-miterlimit="10"/>
<path d="M65.4678 34.0811L89.2965 41.7315L141.193 29.5236" stroke="#1E1E1E" stroke-miterlimit="10"/>
<defs>
<linearGradient id="paint0_linear_278:1087" x1="184.619" y1="53.0393" x2="12.1039" y2="70.0247" gradientUnits="userSpaceOnUse">
<stop offset="0.25" stop-color="#A8A8A8"/>
<stop offset="1" stop-color="white"/>
</linearGradient>
</defs>
</svg>
