<svg width="159" height="118" viewBox="0 0 159 118" fill="none" xmlns="http://www.w3.org/2000/svg">
<path d="M154.742 8.44953L154.545 3.40214C154.317 3.46166 154.08 3.49985 153.836 3.50935C152.033 3.57959 150.515 2.17505 150.445 0.372152C150.444 0.339635 150.446 0.306978 150.447 0.27439L147.146 0.402958C147.149 0.435405 147.154 0.465974 147.155 0.500298C147.226 2.30319 145.821 3.82159 144.018 3.89182C142.216 3.96205 140.697 2.55752 140.627 0.754619C140.626 0.722102 140.628 0.689444 140.629 0.656857L137.328 0.785425C137.331 0.817872 137.336 0.848442 137.338 0.882765C137.408 2.68566 136.003 4.20406 134.2 4.27429C132.398 4.34452 130.879 2.93998 130.809 1.13709C130.808 1.10457 130.81 1.07191 130.811 1.03932L127.474 1.1693C127.477 1.20175 127.482 1.23232 127.483 1.26664C127.554 3.06954 126.149 4.58793 124.346 4.65816C122.544 4.72839 121.025 3.32386 120.955 1.52096C120.954 1.48844 120.956 1.45579 120.957 1.4232L117.683 1.55071C117.687 1.58316 117.691 1.61373 117.693 1.64805C117.763 3.45095 116.358 4.96934 114.556 5.03958C112.753 5.10981 111.235 3.70527 111.164 1.90237C111.163 1.86986 111.165 1.8372 111.166 1.80461L107.427 1.95028C107.428 1.9828 107.434 2.01329 107.436 2.04762C107.506 3.85052 106.206 5.36483 104.532 5.43006C102.857 5.4953 101.444 4.08668 101.373 2.28378C101.372 2.25127 101.375 2.21861 101.375 2.18602L97.6358 2.33169C97.6389 2.36414 97.6437 2.39471 97.645 2.42903C97.7153 4.23193 96.3108 5.75032 94.508 5.82055C92.7052 5.89078 91.1869 4.48625 91.1166 2.68335C91.1154 2.65083 91.1177 2.61818 91.1182 2.58559L87.845 2.7131C87.8481 2.74555 87.8529 2.77612 87.8542 2.81044C87.9245 4.61334 86.52 6.13173 84.7172 6.20197C82.9144 6.2722 81.3961 4.86766 81.3258 3.06476C81.3246 3.03225 81.3269 2.99959 81.3274 2.967L77.5881 3.11267C77.5894 3.14519 77.596 3.17568 77.5974 3.21001C77.6676 5.01291 76.3679 6.52722 74.6934 6.59245C73.0188 6.65769 71.6052 5.24907 71.535 3.44617C71.5337 3.41366 71.5361 3.381 71.5366 3.34841L67.7973 3.49408C67.8004 3.52653 67.8052 3.5571 67.8066 3.59142C67.8768 5.39432 66.4723 6.91271 64.6695 6.98294C62.8667 7.05317 61.3484 5.64864 61.2781 3.84574C61.2769 3.81322 61.2792 3.78057 61.2798 3.74798L57.5405 3.89365C57.5417 3.92616 57.5484 3.95666 57.5497 3.99099C57.6199 5.79388 56.3202 7.3082 54.6457 7.37343C52.9711 7.43867 51.545 6.03235 51.4748 4.22945C51.4735 4.19693 51.4759 4.16428 51.4764 4.13169L47.7371 4.27736C47.7402 4.3098 47.745 4.34037 47.7463 4.3747C47.8165 6.17759 46.4121 7.69599 44.6093 7.76622C42.8065 7.83645 41.2881 6.43192 41.2179 4.62902C41.2166 4.5965 41.219 4.56384 41.2195 4.53126L37.9445 4.65884C37.9476 4.69129 37.9524 4.72186 37.9537 4.75618C38.0239 6.55908 36.6195 8.07747 34.8167 8.1477C33.0139 8.21793 31.4955 6.8134 31.4253 5.0105C31.424 4.97798 31.4264 4.94533 31.4269 4.91274L27.6876 5.05841C27.6889 5.09092 27.6955 5.12142 27.6968 5.15575C27.7671 6.95864 26.4674 8.47296 24.7928 8.53819C23.1183 8.60343 21.7047 7.19481 21.6345 5.39191C21.6332 5.3594 21.6356 5.32674 21.6361 5.29415L17.8968 5.43982C17.8999 5.47226 17.9047 5.50283 17.906 5.53716C17.9763 7.34006 16.5718 8.85845 14.769 8.92868C12.9662 8.99891 11.4406 7.59466 11.3704 5.79176C11.3691 5.75924 11.3715 5.72659 11.372 5.694L8.09879 5.82151C8.10187 5.85396 8.10668 5.88453 8.10801 5.91885C8.17825 7.72175 6.77379 9.24014 4.97098 9.31038C3.16817 9.38061 1.64984 7.97607 1.57961 6.17317C1.57834 6.14066 1.58069 6.108 1.58123 6.07541L0.800852 6.10581L1.09699 13.7076C2.8998 13.6374 4.41812 15.0419 4.48836 16.8448C4.55859 18.6477 3.15413 20.1661 1.35132 20.2363L1.47849 23.5007C3.2813 23.4305 4.79962 24.835 4.86986 26.6379C4.94009 28.4408 3.53563 29.9592 1.73282 30.0294L1.87815 33.7599C3.68095 33.6896 5.1952 34.9894 5.26044 36.664C5.32567 38.3387 3.91713 39.7523 2.11432 39.8225L2.25965 43.5529C4.06245 43.4827 5.58078 44.8873 5.65102 46.6902C5.72125 48.493 4.31679 50.0114 2.51398 50.0817L2.64115 53.346C4.44396 53.2758 5.96228 54.6803 6.03252 56.4832C6.10275 58.2861 4.69829 59.8045 2.89548 59.8748L3.0408 63.6052C4.84361 63.535 6.35786 64.8347 6.4231 66.5094C6.48833 68.184 5.07979 69.5976 3.27698 69.6679L3.4223 73.3983C5.22511 73.3281 6.74344 74.7326 6.81367 76.5355C6.88391 78.3384 5.47945 79.8568 3.67664 79.927L3.82196 83.6575C5.62477 83.5872 7.13902 84.887 7.20425 86.5616C7.26949 88.2363 5.86095 89.6499 4.05814 89.7201L4.20346 93.4506C6.00627 93.3803 7.5246 94.7849 7.59483 96.5878C7.66507 98.3907 6.2606 99.9091 4.4578 99.9793L4.58496 103.244C6.38777 103.173 7.9061 104.578 7.97633 106.381C8.04657 108.184 6.6421 109.702 4.8393 109.772L5.045 115.053C5.61649 114.397 6.4428 113.967 7.38033 113.931C9.18314 113.86 10.7015 115.265 10.7717 117.068L14.0359 116.941C13.9657 115.138 15.3701 113.619 17.1729 113.549C18.9758 113.479 20.4941 114.883 20.5643 116.686L24.2946 116.541C24.2243 114.738 25.524 113.224 27.1986 113.159C28.8731 113.093 30.2867 114.502 30.3569 116.305L34.0872 116.159C34.0169 114.357 35.4214 112.838 37.2242 112.768C39.027 112.698 40.5454 114.102 40.6156 115.905L43.8798 115.778C43.8096 113.975 45.214 112.457 47.0168 112.386C48.8196 112.316 50.338 113.721 50.4082 115.524L54.1385 115.378C54.0682 113.575 55.3679 112.061 57.0425 111.996C58.717 111.931 60.1306 113.339 60.2008 115.142L63.9311 114.997C63.8608 113.194 65.2653 111.676 67.0681 111.605C68.8709 111.535 70.3892 112.94 70.4595 114.743L74.1897 114.597C74.1195 112.794 75.4192 111.28 77.0937 111.215C78.7683 111.15 80.1819 112.558 80.2521 114.361L83.9823 114.216C83.9121 112.413 85.3166 110.894 87.1194 110.824C88.9222 110.754 90.4405 112.159 90.5108 113.961L93.775 113.834C93.7047 112.031 95.1092 110.513 96.912 110.443C98.7148 110.373 100.233 111.777 100.303 113.58L104.034 113.435C103.963 111.632 105.263 110.117 106.938 110.052C108.612 109.987 110.026 111.396 110.096 113.198L113.826 113.053C113.756 111.25 115.16 109.732 116.963 109.662C118.766 109.591 120.284 110.996 120.355 112.799L123.619 112.672C123.549 110.869 124.953 109.35 126.756 109.28C128.559 109.21 130.077 110.614 130.147 112.417L133.473 112.288C133.403 110.485 134.807 108.967 136.61 108.896C138.413 108.826 139.931 110.231 140.001 112.033L143.293 111.905C143.222 110.102 144.627 108.584 146.43 108.514C148.232 108.444 149.751 109.848 149.821 111.651L153.112 111.523C153.042 109.72 154.447 108.201 156.249 108.131C157.187 108.095 158.044 108.459 158.665 109.068L158.487 104.514C156.685 104.584 155.166 103.18 155.096 101.377C155.026 99.5741 156.43 98.0557 158.233 97.9854L158.106 94.7211C156.303 94.7913 154.785 93.3868 154.715 91.5839C154.644 89.781 156.049 88.2626 157.852 88.1923L157.706 84.4619C155.903 84.5321 154.389 83.2324 154.324 81.5577C154.259 79.8831 155.667 78.4695 157.47 78.3993L157.325 74.6688C155.522 74.739 154.004 73.3345 153.933 71.5316C153.863 69.7287 155.268 68.2103 157.07 68.1401L156.925 64.4096C155.122 64.4799 153.608 63.1801 153.543 61.5055C153.478 59.8308 154.886 58.4172 156.689 58.347L156.544 54.6166C154.741 54.6868 153.223 53.2822 153.152 51.4794C153.082 49.6765 154.487 48.1581 156.289 48.0878L156.162 44.8235C154.359 44.8937 152.841 43.4892 152.771 41.6863C152.701 39.8834 154.105 38.365 155.908 38.2947L155.762 34.5643C153.96 34.6345 152.445 33.3348 152.38 31.6601C152.315 29.9855 153.724 28.5719 155.526 28.5016L155.381 24.7712C153.578 24.8414 152.06 23.4369 151.99 21.634C151.919 19.8311 153.324 18.3127 155.127 18.2425L154.999 14.9781C153.197 15.0483 151.678 13.6438 151.608 11.8409C151.534 10.0382 152.939 8.51976 154.742 8.44953Z" fill="url(#paint0_linear_278:1186)"/>
<path d="M14.2064 21.65L20.2511 21.1437L20.316 24.6624L21.1546 24.5922L21.1936 26.7051L19.327 26.8615L19.3116 26.0238L15.1113 26.3755L15.1268 27.2133L13.2621 27.3694L13.2231 25.2565L13.9072 25.1992C14.1914 24.6319 14.2455 23.7697 14.2064 21.65ZM18.3299 24.8288L18.2886 22.5853L16.0193 22.7754C16.0299 23.7493 15.9554 24.6065 15.7461 25.0435L18.3299 24.8271L18.3299 24.8288Z" fill="#1E1E1E"/>
<path d="M27.2642 22.6998L24.0607 25.9673L22.0786 26.1328L21.9902 21.3594L23.9724 21.1939L24.028 24.196L27.2313 20.9218L29.2135 20.7563L29.3018 25.5297L27.3196 25.6952L27.2642 22.6998Z" fill="#1E1E1E"/>
<path d="M34.1451 25.5688L33.8161 25.5963C31.5683 25.7843 30.3399 25.2566 30.3183 24.0859L30.3165 23.9894L32.3695 23.8178C32.3928 24.2801 32.8992 24.4885 34.0093 24.3957C35.057 24.3081 35.4381 24.1153 35.4333 23.8513L35.4329 23.8327C35.428 23.5688 35.0566 23.4914 34.3012 23.5546L32.772 23.6824L32.7518 22.5895L34.281 22.4616C34.9794 22.4032 35.2995 22.2934 35.2954 22.0684L35.295 22.0498C35.2908 21.818 34.8768 21.7306 33.9266 21.8101C33.0186 21.886 32.3728 22.101 32.3596 22.585L30.3066 22.7567L30.3047 22.6535C30.2878 21.7399 31.3213 20.8825 33.6886 20.6846L34.0029 20.6583C36.565 20.444 37.2888 20.963 37.3008 21.6127L37.3019 21.6702C37.3107 22.1456 36.8715 22.589 36.0422 22.7346C36.9664 22.7403 37.4965 23.1349 37.5068 23.6932L37.508 23.7575C37.5267 24.571 36.8194 25.3452 34.1451 25.5688Z" fill="#1E1E1E"/>
<path d="M43.3135 24.3031L40.351 24.5493L39.9672 25.3478L37.9603 25.5145L40.4366 20.556L43.0983 20.3349L45.8978 24.8551L43.7295 25.0352L43.3135 24.3031ZM42.6586 23.1689L41.7569 21.608L40.9379 23.3119L42.6586 23.1689Z" fill="#1E1E1E"/>
<path d="M51.8345 21.6946L48.6171 25.0072L46.6264 25.1751L46.5377 20.3361L48.5285 20.1682L48.5842 23.2116L51.8015 19.8922L53.7922 19.7243L53.8808 24.5633L51.8901 24.7312L51.8345 21.6946ZM50.3246 19.7699L50.0442 19.7935C48.6845 19.9082 48.4454 19.1655 48.4391 18.8215L48.4389 18.8078L49.7211 18.6996C49.7299 18.7777 49.7823 19.0133 50.1753 18.9802C50.5535 18.9483 50.6063 18.7021 50.6049 18.6251L51.8668 18.5186L51.8671 18.5323C51.8734 18.8764 51.5718 19.6647 50.3246 19.7699Z" fill="#1E1E1E"/>
<path d="M60.2695 22.5954L57.0233 22.8665L57.0569 24.6819L55.0746 24.8475L54.9863 20.0732L56.9686 19.9077L56.9998 21.5948L60.246 21.3238L60.2148 19.6367L62.1897 19.4718L62.278 24.246L60.3031 24.4109L60.2695 22.5954Z" fill="#1E1E1E"/>
<path d="M103.204 27.8276L66.5711 50.8737L104.428 67.0071L140.797 43.986L103.204 27.8276Z" stroke="#1E1E1E"/>
<path d="M103.468 33.0706L66.8337 56.1152L104.692 72.2501L141.061 49.229L103.468 33.0706Z" stroke="#1E1E1E"/>
<path d="M103.732 38.3133L67.0974 61.3579L104.954 77.4912L141.323 54.4718L103.732 38.3133Z" stroke="#1E1E1E"/>
<path d="M103.996 43.556L67.3611 66.6005L105.218 82.7339L141.587 59.7145L103.996 43.556Z" stroke="#1E1E1E"/>
<path d="M104.26 48.7991L67.6257 71.8438L105.483 87.9788L141.851 64.9577L104.26 48.7991Z" stroke="#1E1E1E"/>
<path d="M104.524 54.0428L67.8894 77.0874L105.746 93.2225L142.115 70.2014L104.524 54.0428Z" stroke="#1E1E1E"/>
<path d="M104.789 59.285L68.1541 82.3296L106.011 98.4629L142.38 75.4419L104.789 59.285Z" stroke="#1E1E1E"/>
<path d="M105.052 64.5281L68.4177 87.5728L106.275 103.708L142.643 80.6867L105.052 64.5281Z" stroke="#1E1E1E"/>
<defs>
<linearGradient id="paint0_linear_278:1186" x1="181.932" y1="54.8828" x2="8.71408" y2="61.6307" gradientUnits="userSpaceOnUse">
<stop offset="0.25" stop-color="#A8A8A8"/>
<stop offset="1" stop-color="white"/>
</linearGradient>
</defs>
</svg>
