<svg width="156" height="113" viewBox="0 0 156 113" fill="none" xmlns="http://www.w3.org/2000/svg">
<path d="M155.212 10.5228L155.286 5.51066C155.055 5.55752 154.816 5.58273 154.572 5.57916C152.768 5.55274 151.327 4.08008 151.354 2.28978C151.354 2.25749 151.358 2.22524 151.36 2.19298L148.058 2.14462C148.059 2.17693 148.062 2.20749 148.062 2.24157C148.036 4.03187 146.552 5.4617 144.748 5.43528C142.944 5.40886 141.503 3.9362 141.529 2.1459C141.53 2.11361 141.534 2.08137 141.536 2.0491L138.234 2.00074C138.235 2.03306 138.238 2.06361 138.238 2.0977C138.211 3.88799 136.728 5.31782 134.924 5.2914C133.12 5.26499 131.679 3.79232 131.705 2.00203C131.705 1.96974 131.71 1.93749 131.712 1.90523L128.373 1.85633C128.375 1.88865 128.378 1.91921 128.377 1.95329C128.351 3.74359 126.867 5.17342 125.063 5.147C123.259 5.12058 121.818 3.64792 121.845 1.85762C121.845 1.82533 121.849 1.79309 121.851 1.76082L118.576 1.71285C118.577 1.74517 118.58 1.77573 118.58 1.80981C118.554 3.60011 117.07 5.02994 115.266 5.00352C113.462 4.9771 112.021 3.50444 112.047 1.71414C112.048 1.68185 112.052 1.64961 112.054 1.61734L108.312 1.56255C108.312 1.59484 108.317 1.62542 108.316 1.6595C108.29 3.4498 106.911 4.88117 105.236 4.85663C103.56 4.83209 102.224 3.36096 102.25 1.57066C102.251 1.53837 102.255 1.50613 102.257 1.47386L98.5153 1.41907C98.5166 1.45138 98.5198 1.48194 98.5193 1.51602C98.4931 3.30632 97.0095 4.73615 95.2055 4.70973C93.4015 4.68331 91.9604 3.21065 91.9866 1.42035C91.9871 1.38806 91.9912 1.35582 91.9935 1.32355L88.7181 1.27559C88.7194 1.3079 88.7226 1.33846 88.7221 1.37254C88.6959 3.16284 87.2123 4.59267 85.4083 4.56625C83.6043 4.53983 82.1632 3.06717 82.1894 1.27687C82.1899 1.24458 82.194 1.21234 82.1963 1.18008L78.4546 1.12528C78.4541 1.15757 78.4591 1.18815 78.4586 1.22223C78.4323 3.01253 77.0536 4.4439 75.3779 4.41936C73.7023 4.39482 72.366 2.92369 72.3923 1.13339C72.3927 1.1011 72.3968 1.06886 72.3991 1.0366L68.6574 0.981799C68.6587 1.01412 68.6619 1.04467 68.6614 1.07876C68.6352 2.86905 67.1516 4.29888 65.3476 4.27247C63.5436 4.24605 62.1025 2.77338 62.1287 0.983085C62.1292 0.950795 62.1333 0.918551 62.1356 0.886288L58.3938 0.83149C58.3934 0.86378 58.3983 0.894363 58.3978 0.928447C58.3716 2.71875 56.9929 4.15011 55.3172 4.12557C53.6416 4.10103 52.3053 2.62991 52.3315 0.839606C52.332 0.807316 52.3361 0.775072 52.3384 0.742809L48.5967 0.688011C48.598 0.720328 48.6012 0.750884 48.6007 0.784968C48.5744 2.57527 47.0908 4.0051 45.2869 3.97868C43.4829 3.95226 42.0418 2.4796 42.068 0.689297C42.0685 0.657007 42.0726 0.624763 42.0748 0.5925L38.7977 0.544506C38.799 0.576822 38.8022 0.607378 38.8017 0.641462C38.7755 2.43176 37.2918 3.86159 35.4879 3.83517C33.6839 3.80875 32.2428 2.33609 32.269 0.545792C32.2695 0.513502 32.2736 0.481258 32.2759 0.448994L28.5341 0.394197C28.5337 0.426487 28.5386 0.457069 28.5381 0.491153C28.5119 2.28145 27.1332 3.71282 25.4575 3.68828C23.7819 3.66374 22.4456 2.19261 22.4718 0.402313C22.4723 0.370023 22.4764 0.337779 22.4787 0.305515L18.7369 0.250718C18.7383 0.283034 18.7414 0.31359 18.741 0.347674C18.7147 2.13797 17.2311 3.5678 15.4271 3.54138C13.6232 3.51496 12.1821 2.0423 12.2083 0.252004C12.2088 0.219714 12.2129 0.18747 12.2151 0.155206L8.91988 0.106948C8.92122 0.139264 8.92439 0.16982 8.92389 0.203904C8.89767 1.9942 7.41407 3.42403 5.61009 3.39761C3.8061 3.37119 2.36501 1.89853 2.39123 0.108233C2.3917 0.0759435 2.39579 0.0436995 2.39807 0.011436L1.61719 0L1.50664 7.54868C3.31062 7.5751 4.75171 9.04777 4.72549 10.8381C4.69928 12.6284 3.21568 14.0582 1.41169 14.0318L1.36422 17.2733C3.1682 17.2998 4.6093 18.7724 4.58308 20.5627C4.55686 22.353 3.07326 23.7829 1.26928 23.7564L1.21503 27.4608C3.01901 27.4872 4.46162 28.8559 4.43727 30.5188C4.41292 32.1817 2.93084 33.5075 1.12686 33.4811L1.07261 37.1855C2.87659 37.2119 4.31768 38.6846 4.29147 40.4749C4.26525 42.2652 2.78165 43.695 0.977664 43.6686L0.930191 46.9101C2.73417 46.9366 4.17527 48.4092 4.14905 50.1995C4.12283 51.9898 2.63923 53.4197 0.835246 53.3933L0.780996 57.0976C2.58498 57.1241 4.0276 58.4927 4.00324 60.1556C3.97889 61.8186 2.49681 63.1443 0.69283 63.1179L0.638579 66.8223C2.44256 66.8487 3.88365 68.3214 3.85744 70.1117C3.83122 71.902 2.34759 73.3336 0.543608 73.3072L0.489358 77.0116C2.29334 77.038 3.73596 78.4066 3.7116 80.0695C3.68725 81.7325 2.20517 83.0583 0.401191 83.0319L0.346941 86.7362C2.15092 86.7627 3.59202 88.2353 3.5658 90.0256C3.53958 91.8159 2.05598 93.2458 0.251996 93.2194L0.204524 96.4609C2.00851 96.4873 3.4496 97.96 3.42338 99.7503C3.39716 101.541 1.91356 102.97 0.109579 102.944L0.0327877 108.188C0.63849 107.568 1.48661 107.186 2.42475 107.2C4.22874 107.226 5.66983 108.699 5.64361 110.489L8.90994 110.537C8.93616 108.747 10.4198 107.317 12.2237 107.343C14.0277 107.37 15.4688 108.842 15.4426 110.633L19.1753 110.687C19.2015 108.897 20.5803 107.466 22.2559 107.49C23.9316 107.515 25.2678 108.986 25.2416 110.776L28.9743 110.831C29.0005 109.041 30.4841 107.611 32.2881 107.637C34.0921 107.664 35.5331 109.136 35.5069 110.927L38.7733 110.974C38.7995 109.184 40.2831 107.754 42.0871 107.781C43.891 107.807 45.3321 109.28 45.3059 111.07L49.0386 111.125C49.0648 109.334 50.4436 107.903 52.1192 107.928C53.7949 107.952 55.1311 109.423 55.1049 111.214L58.8376 111.268C58.8638 109.478 60.3474 108.048 62.1514 108.075C63.9554 108.101 65.3965 109.574 65.3703 111.364L69.1029 111.419C69.1292 109.628 70.5079 108.197 72.1836 108.221C73.8592 108.246 75.1955 109.717 75.1692 111.507L78.9019 111.562C78.9282 109.772 80.4117 108.342 82.2157 108.368C84.0197 108.395 85.4608 109.867 85.4346 111.658L88.7009 111.706C88.7271 109.915 90.2107 108.485 92.0147 108.512C93.8187 108.538 95.2598 110.011 95.2336 111.801L98.9663 111.856C98.9925 110.066 100.371 108.634 102.047 108.659C103.723 108.683 105.059 110.154 105.033 111.945L108.765 111.999C108.791 110.209 110.275 108.779 112.079 108.806C113.883 108.832 115.324 110.305 115.298 112.095L118.564 112.143C118.59 110.353 120.074 108.923 121.878 108.949C123.682 108.976 125.123 110.448 125.097 112.239L128.425 112.287C128.451 110.497 129.934 109.067 131.738 109.094C133.542 109.12 134.984 110.593 134.957 112.383L138.251 112.431C138.277 110.641 139.761 109.211 141.565 109.238C143.369 109.264 144.81 110.737 144.783 112.527L148.077 112.575C148.103 110.785 149.587 109.355 151.391 109.381C152.329 109.395 153.165 109.802 153.753 110.439L153.819 105.916C152.015 105.89 150.574 104.417 150.6 102.627C150.626 100.837 152.11 99.4068 153.914 99.4333L153.961 96.1917C152.157 96.1653 150.716 94.6926 150.742 92.9023C150.769 91.112 152.252 89.6822 154.056 89.7086L154.111 86.0042C152.307 85.9778 150.864 84.6092 150.888 82.9462C150.913 81.2833 152.395 79.9575 154.199 79.9839L154.253 76.2796C152.449 76.2531 151.008 74.7805 151.034 72.9902C151.06 71.1999 152.544 69.77 154.348 69.7965L154.402 66.0921C152.598 66.0657 151.156 64.697 151.18 63.0341C151.204 61.3712 152.686 60.0454 154.49 60.0718L154.545 56.3674C152.741 56.341 151.3 54.8683 151.326 53.078C151.352 51.2877 152.836 49.8579 154.64 49.8843L154.687 46.6428C152.883 46.6163 151.442 45.1437 151.468 43.3534C151.494 41.5631 152.978 40.1332 154.782 40.1596L154.836 36.4553C153.032 36.4288 151.59 35.0602 151.614 33.3973C151.638 31.7344 153.12 30.4086 154.924 30.435L154.979 26.7306C153.175 26.7042 151.734 25.2315 151.76 23.4412C151.786 21.6509 153.27 20.2211 155.074 20.2475L155.121 17.0059C153.317 16.9795 151.876 15.5068 151.902 13.7166C151.925 11.9262 153.408 10.4964 155.212 10.5228Z" fill="url(#paint0_linear_278:1164)"/>
<path d="M18.5603 17.5401L15.3099 20.5542L13.3454 20.4893L13.3779 15.5161L15.3425 15.581L15.322 18.7088L18.5724 15.6876L20.5369 15.7525L20.5044 20.7257L18.5398 20.6609L18.5603 17.5401Z" fill="#1E1E1E"/>
<path d="M25.5052 20.8282L25.2358 20.8193C22.0678 20.7147 21.6083 19.1428 21.6144 18.2001L21.6157 18.0067C21.6219 17.0588 22.0615 15.5552 25.2695 15.6611L25.539 15.67C28.6723 15.7735 29.1058 17.1651 29.1089 17.8002L29.1083 17.8864L27.0674 17.819C27.0336 17.6913 26.8648 17.0507 25.3773 17.0016C23.959 16.9547 23.651 17.5532 23.6473 18.1072L23.6468 18.1881C23.6433 18.7227 23.9847 19.4359 25.3684 19.4815C26.8832 19.5316 27.0407 18.8349 27.0687 18.7215L29.1024 18.7886L29.1017 18.8959C29.0974 19.5501 28.6113 20.9308 25.5052 20.8282Z" fill="#1E1E1E"/>
<path d="M32.1401 18.5772L32.1256 20.8036L30.1608 20.7387L30.1934 15.7632L32.1581 15.8281L32.1452 17.794L34.691 15.9117L37.1328 15.9924L34.1226 18.1533L37.1968 20.9711L34.6366 20.8865L32.1401 18.5772Z" fill="#1E1E1E"/>
<path d="M40.0182 20.928L38.9877 20.894L38.9964 19.5641L39.9031 19.594C40.0414 19.5986 40.0836 19.5525 40.0841 19.4856L40.0841 19.4786C40.0846 19.4117 40.0576 19.351 39.9963 19.268L37.4854 15.8701L39.7612 15.9453L41.2619 18.1538L42.6452 16.0405L44.6443 16.1065L41.9901 19.8635C41.3964 20.6991 41.1579 20.9657 40.0182 20.928Z" fill="#1E1E1E"/>
<path d="M48.6957 21.1685L48.4263 21.1596C45.2583 21.0551 44.7987 19.4831 44.8049 18.5405L44.8061 18.347C44.8123 17.3991 45.2519 15.8955 48.46 16.0014L48.7295 16.0103C51.8629 16.1138 52.2963 17.5054 52.2994 18.1406L52.2989 18.2267L50.2579 18.1594C50.2241 18.0316 50.0553 17.391 48.5678 17.3419C47.1495 17.2951 46.8414 17.8935 46.8378 18.4475L46.8373 18.5284C46.8338 19.0631 47.1751 19.7762 48.5588 19.8219C50.0737 19.8719 50.2312 19.1752 50.2592 19.0618L52.293 19.1289L52.2923 19.2362C52.288 19.8904 51.8018 21.2711 48.6957 21.1685Z" fill="#1E1E1E"/>
<path d="M57.0863 21.2916L56.8168 21.2827C53.6489 21.1781 53.1893 19.6062 53.1955 18.6635L53.1968 18.4701C53.203 17.5221 53.6426 16.0186 56.8506 16.1245L57.12 16.1334C60.2534 16.2368 60.6868 17.6285 60.6899 18.2636L60.6894 18.3498L58.6484 18.2824C58.6146 18.1546 58.4458 17.514 56.9584 17.4649C55.5401 17.4181 55.232 18.0166 55.2284 18.5706L55.2279 18.6515C55.2244 19.1861 55.5657 19.8992 56.9494 19.9449C58.4642 19.9949 58.6217 19.2983 58.6498 19.1848L60.6835 19.252L60.6828 19.3593C60.6785 20.0135 60.1923 21.3941 57.0863 21.2916Z" fill="#1E1E1E"/>
<path d="M61.5282 16.2217L67.9377 16.4338L67.9288 17.7939L65.7061 17.7203L65.6824 21.3453L63.7166 21.2803L63.7402 17.6553L61.5175 17.5817L61.5264 16.2217L61.5282 16.2217Z" fill="#1E1E1E"/>
<path d="M69.0518 16.3315L73.8954 16.4915C75.3958 16.5411 75.7946 17.1088 75.7908 17.6843L75.7903 17.7582C75.7863 18.3741 75.2382 18.643 74.899 18.7057C75.3554 18.8211 76.0799 19.1461 76.0742 20.0225L76.0737 20.1035C76.0686 20.8866 75.5654 21.5248 73.8919 21.4696L69.021 21.3087L69.0536 16.3316L69.0518 16.3315ZM71.0091 17.5263L71.0045 18.2285L73.2879 18.3039C73.6958 18.3174 73.8152 18.1612 73.8165 17.9729L73.8166 17.9588C73.8179 17.7582 73.7004 17.6134 73.2925 17.6L71.0091 17.5246L71.0091 17.5263ZM70.9972 19.3461L70.9916 20.2014L73.3989 20.2809C73.9105 20.2978 74.0086 20.0669 74.0098 19.8734L74.01 19.854C74.0113 19.6463 73.9088 19.4423 73.4045 19.4256L70.9972 19.3461Z" fill="#1E1E1E"/>
<path d="M81.0078 16.4852C84.3278 16.5947 84.7456 18.13 84.7395 19.0714L84.7382 19.2717C84.7321 20.1991 84.2996 21.7467 80.974 21.637L80.6628 21.6267C77.33 21.5168 76.9179 19.9414 76.924 19.0139L76.9253 18.8137C76.9314 17.8722 77.3637 16.365 80.6965 16.4749L81.0078 16.4852ZM80.8388 17.8149C79.2898 17.7638 78.9598 18.4012 78.9563 18.9281L78.9558 19.0089C78.9524 19.5288 79.3009 20.2413 80.8226 20.2915C82.3443 20.3417 82.7019 19.6718 82.7054 19.1449L82.706 19.0518C82.7094 18.5231 82.3678 17.8653 80.8388 17.8149Z" fill="#1E1E1E"/>
<path d="M137.279 34.4165C138.63 34.5323 141.297 35.1578 141.144 36.7282C140.991 38.2986 131.885 39.8729 127.351 40.463L89.6269 46.9952C84.9923 47.9312 75.6944 50.853 75.5776 55.0563C75.4609 59.2595 86.446 63.7908 91.9557 65.5333L120.801 76.0185C127.333 78.3408 140.4 83.7475 140.422 86.7999C140.446 89.8524 132.932 91.3537 129.171 91.7233C122.229 92.7988 103.678 95.1227 85.0095 95.8069" stroke="#1E1E1E"/>
<path d="M77.3319 30.7919C76.1876 31.3018 74.8979 32.5304 78.887 33.3759C82.8761 34.2213 105.419 39.6201 116.194 42.2143C124.629 44.3761 141.441 49.8026 141.21 54.2124C140.978 58.6221 128.742 62.1435 122.653 63.3546L90.4222 71.7658C85.3714 73.0308 75.2399 76.5335 75.1325 80.4242C75.0232 84.3131 86.5866 87.7493 92.3824 88.9793C105.989 92.0755 133.876 98.3576 136.577 98.7116" stroke="#1E1E1E"/>
<path d="M86.5344 31.4224L79.9926 32.652C78.4458 33.0084 75.3721 34.0376 75.4442 35.3043C75.5181 36.571 79.3849 38.2351 81.3083 38.9072L113.168 48.5073C120.386 50.6037 135.795 55.7703 139.698 59.6645C143.602 63.5587 137.641 66.9673 134.174 68.1856C130.519 69.6139 120.426 73.0573 109.298 75.4094C95.3883 78.35 76.2977 82.3313 75.1041 86.214C74.1492 89.3208 82.9061 91.6315 87.4031 92.398C95.4012 94.0539 113.94 97.5283 124.115 98.1767" stroke="#1E1E1E"/>
<path d="M135.624 98.8028C137.529 98.554 141.596 97.5435 139.353 96.3695C137.108 95.1971 105.881 86.1561 90.5482 81.7824C85.3955 80.1906 75.1181 76.0611 75.223 72.2766C75.356 67.546 85.2016 64.5179 96.4014 61.5631C105.361 59.1989 123.16 54.878 130.941 53.012C136.946 51.5729 143.552 48.0275 139.587 44.3932C132.324 37.7375 99.7435 34.1473 83.1414 31.5048" stroke="#1E1E1E"/>
<path d="M121.598 33.1869C113.915 33.3021 94.6446 33.2452 80.5509 37.3074C67.8435 40.969 85.6861 47.5792 97.2517 50.8276C106.928 53.7563 127.989 60.6258 134.817 64.674C143.35 69.7342 141.479 73.5803 134.486 76.4959C128.891 78.8287 98.7818 84.9787 84.4282 87.7632C76.1557 89.5143 65.2612 93.658 87.8502 96.234" stroke="#1E1E1E"/>
<path d="M77.0508 30.8223L140.954 33.0858" stroke="#1E1E1E"/>
<path d="M74.71 96.7144L138.613 98.978" stroke="#1E1E1E"/>
<path d="M138.649 34.0886L109.805 37.9417L88.4439 40.7475C79.5946 42.1164 72.9081 44.6527 76.689 49.0649C80.4699 53.477 100.672 60.6968 110.301 63.7556C120.422 66.9726 140.608 74.5322 140.372 79.0467C140.138 83.5596 129.192 86.2114 123.75 86.9737L88.8916 92.609C84.3961 93.3779 75.4021 95.0984 75.3827 95.8334" stroke="#1E1E1E"/>
<path d="M113.592 33.1394C122.909 34.4275 141.548 37.7394 141.575 40.6864C141.601 43.6353 130.443 46.1435 124.861 47.0287C117.457 48.4314 99.2866 52.2134 85.8393 56.1257C69.0307 61.0165 77.6444 68.0548 79.6519 68.9511C81.6595 69.8474 95.0219 76.7457 112.251 81.0867C129.479 85.4278 144.115 90.4202 138.58 94.4659C134.153 97.7029 114.453 97.6937 105.156 97.2838" stroke="#1E1E1E"/>
<defs>
<linearGradient id="paint0_linear_278:1164" x1="179.882" y1="57.9834" x2="6.55166" y2="55.4449" gradientUnits="userSpaceOnUse">
<stop offset="0.25" stop-color="#A8A8A8"/>
<stop offset="1" stop-color="white"/>
</linearGradient>
</defs>
</svg>
