<svg width="23" height="19" viewBox="0 0 23 19" fill="none" xmlns="http://www.w3.org/2000/svg">
<path d="M20.5726 0.806929C20.5726 0.806929 22.5961 0.017866 22.4275 1.93416C22.3713 2.72324 21.8654 5.48495 21.4719 8.47214L20.1229 17.3209C20.1229 17.3209 20.0105 18.6172 18.9986 18.8427C17.9868 19.0681 16.4692 18.0537 16.1881 17.8282C15.9632 17.6591 11.9723 15.1228 10.567 13.8829C10.1735 13.5447 9.7238 12.8683 10.6232 12.0793L16.5254 6.44313C17.1999 5.76678 17.8744 4.18865 15.0639 6.10495L7.19432 11.4593C7.19432 11.4593 6.29495 12.0229 4.60865 11.5157L0.954907 10.3884C0.954907 10.3884 -0.394161 9.54303 1.9105 8.69756C7.53161 6.04855 14.4456 3.34318 20.5726 0.806929Z" fill="#868686"/>
</svg>
