<svg width="260" height="168" viewBox="0 0 260 168" fill="none" xmlns="http://www.w3.org/2000/svg">
<path d="M1.0122 167.392L0 166.341C24.2135 143.219 60.6454 111.995 96.7161 94.5643C118.375 84.098 129.484 83.59 129.947 83.571L130 85.0239C129.888 85.029 118.633 85.566 97.1982 95.945C61.345 113.313 25.1038 144.382 1.0122 167.392Z" fill="url(#paint0_angular_680:867)"/>
<path d="M0.900557 152.258L0 151.118C24.2241 132.245 60.6725 106.758 96.7545 92.534C118.404 83.9956 129.494 83.5849 129.955 83.571L130 85.0204C129.888 85.0255 118.619 85.4602 97.1693 93.9342C61.2859 108.101 25.013 133.472 0.900557 152.258Z" fill="url(#paint1_angular_680:867)"/>
<path d="M1.14578 137.511L0.388184 136.27C44.1642 109.585 77.0321 96.6802 96.8948 90.5573C118.471 83.9007 129.51 83.5799 129.966 83.571L130 85.0253C129.888 85.0304 118.641 85.3652 97.2248 91.9774C77.4548 98.0812 44.7418 110.938 1.14578 137.511Z" fill="url(#paint2_angular_680:867)"/>
<path d="M0.971288 121.989L0.388184 120.674C24.5623 110.305 60.9396 96.3016 96.9334 88.486C118.497 83.8049 129.864 83.571 129.976 83.571L130 85.0051C129.888 85.0051 118.624 85.2439 97.176 89.9051C77.3809 94.2036 44.6241 103.258 0.971288 121.989Z" fill="url(#paint3_angular_680:867)"/>
<path d="M0.757805 107.243L0.388184 105.854C44.2099 94.5692 77.0966 89.1108 96.9723 86.52C118.525 83.7101 129.874 83.571 129.986 83.571L130 85.0073C129.558 85.0073 84.4318 85.6923 0.757805 107.243Z" fill="url(#paint4_angular_680:867)"/>
<path d="M0.514821 92.4964L0.388184 91.0535C84.2895 83.7983 129.552 83.571 129.995 83.571L130 85.0191C129.552 85.0241 84.3429 85.2513 0.514821 92.4964Z" fill="url(#paint5_angular_680:867)"/>
<path d="M129.995 84.7351C129.547 84.7351 84.2857 84.498 0.388184 76.9286L0.514821 75.4216C84.3429 82.983 129.557 83.2241 130 83.2241L129.995 84.7351Z" fill="url(#paint6_angular_680:867)"/>
<path d="M129.981 84.7351C129.534 84.73 84.2594 84.0389 0.388184 62.0869L0.75779 60.6754C44.4803 72.1211 77.2932 77.6587 97.1185 80.2869C118.599 83.134 129.888 83.2791 130 83.2791L129.981 84.7351Z" fill="url(#paint7_angular_680:867)"/>
<path d="M129.971 84.7352C129.859 84.7352 118.492 84.4977 96.9296 79.7706C77.0616 75.4148 44.1854 66.2346 0.388184 47.2578L0.971265 45.9292C25.0669 56.3698 61.3158 70.4704 97.1773 78.341C118.623 83.0492 129.888 83.2866 130 83.2904L129.971 84.7352Z" fill="url(#paint8_angular_680:867)"/>
<path d="M129.967 84.735C129.505 84.7248 118.466 84.3978 96.8948 77.6984C77.0321 71.5264 44.1692 58.5324 0.388184 31.6569L1.14577 30.4066C44.7417 57.1698 77.4548 70.1204 97.2248 76.2719C118.636 82.933 129.888 83.274 130 83.274L129.967 84.735Z" fill="url(#paint9_angular_680:867)"/>
<path d="M129.961 84.7351C129.499 84.7212 118.408 84.3031 96.7583 75.7215C60.6749 61.4126 24.225 35.7861 0 16.807L0.900592 15.6605C25.014 34.5522 61.2883 60.0617 97.168 74.3173C118.623 82.8404 129.893 83.2776 130 83.2826L129.961 84.7351Z" fill="url(#paint10_angular_680:867)"/>
<path d="M129.947 84.7351C129.484 84.7211 118.375 84.2095 96.7161 73.6909C60.6454 56.1786 24.2135 24.8111 0 1.58206L1.0122 0.526123C25.1038 23.6378 61.345 54.8552 97.1982 72.2988C118.633 82.7309 129.888 83.2653 130 83.2704L129.947 84.7351Z" fill="url(#paint11_angular_680:867)"/>
<path d="M130.053 84.7351L130 83.2754C130.112 83.2716 141.367 82.7308 162.801 72.3031C198.652 54.8546 234.898 23.6391 258.989 0.526123L260 1.58212C235.788 24.8124 199.357 56.1832 163.288 73.6953C141.63 84.2108 130.516 84.7211 130.053 84.7351Z" fill="url(#paint12_angular_680:867)"/>
<path d="M130.043 84.7351L130 83.2777C130.112 83.2726 141.382 82.8355 162.832 74.313C198.716 60.0586 234.991 34.5509 259.099 15.6605L260 16.8072C235.774 35.7848 199.325 61.4144 163.242 75.7171C141.597 84.3031 130.506 84.7199 130.043 84.7351Z" fill="url(#paint13_angular_680:867)"/>
<path d="M130.034 84.735L130 83.2691C130.112 83.2652 141.393 82.9281 162.873 76.2676C182.699 70.1205 215.514 57.1724 259.24 30.4066L260 31.6567C216.093 58.5298 183.127 71.5277 163.204 77.694C141.569 84.3979 130.497 84.7248 130.034 84.735Z" fill="url(#paint14_angular_680:867)"/>
<path d="M130.024 84.7352L130 83.2868C130.112 83.2868 141.377 83.0443 162.823 78.3367C182.617 73.9916 215.373 64.8416 259.029 45.9292L259.612 47.2576C235.439 57.7297 199.063 71.8727 163.071 79.7662C141.503 84.4978 130.136 84.7301 130.024 84.7352Z" fill="url(#paint15_angular_680:867)"/>
<path d="M130.014 84.7351L130 83.2753C130.448 83.2702 175.567 82.574 259.243 60.6754L259.612 62.0869C215.796 73.5567 182.904 79.1045 163.028 81.7366C141.474 84.5938 130.126 84.7351 130.014 84.7351Z" fill="url(#paint16_angular_680:867)"/>
<path d="M130.005 84.7351L130 83.2241C130.448 83.2241 175.656 82.983 259.485 75.4216L259.612 76.9286C175.715 84.494 130.453 84.7298 130.005 84.7351Z" fill="url(#paint17_angular_680:867)"/>
<path d="M259.48 92.4964C175.644 85.2463 130.443 85.0191 130 85.0191L130.005 83.571C130.453 83.571 175.713 83.7983 259.612 91.0535L259.48 92.4964Z" fill="url(#paint18_angular_680:867)"/>
<path d="M259.242 107.243C215.519 95.984 182.707 90.5356 162.88 87.9516C141.401 85.151 130.112 85.007 130 85.007L130.014 83.571C130.462 83.5761 175.736 84.2508 259.612 105.849L259.242 107.243Z" fill="url(#paint19_angular_680:867)"/>
<path d="M259.034 121.989C234.937 111.654 198.687 97.6955 162.824 89.9044C141.378 85.2438 130.112 85.01 130 85.005L130.024 83.571C130.136 83.571 141.503 83.8048 163.068 88.4842C182.936 92.7961 215.813 101.884 259.612 120.67L259.034 121.989Z" fill="url(#paint20_angular_680:867)"/>
<path d="M259.24 137.511C215.514 110.941 182.703 98.0853 162.873 91.9768C141.398 85.3638 130.112 85.0253 130 85.0253L130.034 83.571C130.497 83.5799 141.569 83.9045 163.204 90.5556C183.127 96.6843 216.089 109.588 260 136.265L259.24 137.511Z" fill="url(#paint21_angular_680:867)"/>
<path d="M259.095 152.258C234.982 133.474 198.709 108.109 162.831 93.9334C141.376 85.4601 130.107 85.0254 130 85.0203L130.043 83.571C130.506 83.5849 141.596 84.0007 163.244 92.5334C199.328 106.761 235.776 132.242 260 151.113L259.095 152.258Z" fill="url(#paint22_angular_680:867)"/>
<path d="M258.993 167.392C234.901 144.387 198.659 113.313 162.802 95.945C141.367 85.561 130.112 85.029 130 85.0239L130.053 83.571C130.516 83.585 141.625 84.0942 163.284 94.5643C199.354 111.995 235.786 143.219 260 166.341L258.993 167.392Z" fill="url(#paint23_angular_680:867)"/>
<defs>
<radialGradient id="paint0_angular_680:867" cx="0" cy="0" r="1" gradientUnits="userSpaceOnUse" gradientTransform="translate(41.1328 162.025) rotate(103.299) scale(3.54565 11.8509)">
<stop offset="0.0036537" stop-color="#C3A5F2"/>
<stop offset="0.498653" stop-color="#1E1E1E"/>
</radialGradient>
<radialGradient id="paint1_angular_680:867" cx="0" cy="0" r="1" gradientUnits="userSpaceOnUse" gradientTransform="translate(41.1328 147.86) rotate(106.09) scale(2.94283 11.7004)">
<stop offset="0.0036537" stop-color="#C3A5F2"/>
<stop offset="0.498653" stop-color="#1E1E1E"/>
</radialGradient>
<radialGradient id="paint2_angular_680:867" cx="0" cy="0" r="1" gradientUnits="userSpaceOnUse" gradientTransform="translate(41.3982 134.058) rotate(110.113) scale(2.36472 11.4007)">
<stop offset="0.0036537" stop-color="#C3A5F2"/>
<stop offset="0.498653" stop-color="#1E1E1E"/>
</radialGradient>
<radialGradient id="paint3_angular_680:867" cx="0" cy="0" r="1" gradientUnits="userSpaceOnUse" gradientTransform="translate(41.3982 119.529) rotate(117.211) scale(1.77832 10.7974)">
<stop offset="0.0036537" stop-color="#C3A5F2"/>
<stop offset="0.498653" stop-color="#1E1E1E"/>
</radialGradient>
<radialGradient id="paint4_angular_680:867" cx="0" cy="0" r="1" gradientUnits="userSpaceOnUse" gradientTransform="translate(41.3982 105.727) rotate(129.844) scale(1.26919 9.32181)">
<stop offset="0.0036537" stop-color="#C3A5F2"/>
<stop offset="0.498653" stop-color="#1E1E1E"/>
</radialGradient>
<radialGradient id="paint5_angular_680:867" cx="0" cy="0" r="1" gradientUnits="userSpaceOnUse" gradientTransform="translate(41.3982 91.925) rotate(155.685) scale(0.892326 4.99919)">
<stop offset="0.0036537" stop-color="#C3A5F2"/>
<stop offset="0.498653" stop-color="#1E1E1E"/>
</radialGradient>
<radialGradient id="paint6_angular_680:867" cx="0" cy="0" r="1" gradientUnits="userSpaceOnUse" gradientTransform="translate(41.3982 84.1388) rotate(154.757) scale(0.899022 5.1777)">
<stop offset="0.0036537" stop-color="#C3A5F2"/>
<stop offset="0.498653" stop-color="#1E1E1E"/>
</radialGradient>
<radialGradient id="paint7_angular_680:867" cx="0" cy="0" r="1" gradientUnits="userSpaceOnUse" gradientTransform="translate(41.3982 83.1947) rotate(129.387) scale(1.28149 9.38364)">
<stop offset="0.0036537" stop-color="#C3A5F2"/>
<stop offset="0.498653" stop-color="#1E1E1E"/>
</radialGradient>
<radialGradient id="paint8_angular_680:867" cx="0" cy="0" r="1" gradientUnits="userSpaceOnUse" gradientTransform="translate(41.3982 82.2506) rotate(116.978) scale(1.79254 10.82)">
<stop offset="0.0036537" stop-color="#C3A5F2"/>
<stop offset="0.498653" stop-color="#1E1E1E"/>
</radialGradient>
<radialGradient id="paint9_angular_680:867" cx="0" cy="0" r="1" gradientUnits="userSpaceOnUse" gradientTransform="translate(41.3982 81.2566) rotate(109.981) scale(2.37972 11.4103)">
<stop offset="0.0036537" stop-color="#C3A5F2"/>
<stop offset="0.498653" stop-color="#1E1E1E"/>
</radialGradient>
<radialGradient id="paint10_angular_680:867" cx="0" cy="0" r="1" gradientUnits="userSpaceOnUse" gradientTransform="translate(41.1328 80.3127) rotate(106.004) scale(2.95818 11.7055)">
<stop offset="0.0036537" stop-color="#C3A5F2"/>
<stop offset="0.498653" stop-color="#1E1E1E"/>
</radialGradient>
<radialGradient id="paint11_angular_680:867" cx="0" cy="0" r="1" gradientUnits="userSpaceOnUse" gradientTransform="translate(41.1328 79.3437) rotate(103.24) scale(3.5612 11.8538)">
<stop offset="0.0036537" stop-color="#C3A5F2"/>
<stop offset="0.498653" stop-color="#1E1E1E"/>
</radialGradient>
<radialGradient id="paint12_angular_680:867" cx="0" cy="0" r="1" gradientUnits="userSpaceOnUse" gradientTransform="translate(171.133 79.3437) rotate(103.24) scale(3.5612 11.8538)">
<stop offset="0.0036537" stop-color="#C3A5F2"/>
<stop offset="0.498653" stop-color="#1E1E1E"/>
</radialGradient>
<radialGradient id="paint13_angular_680:867" cx="0" cy="0" r="1" gradientUnits="userSpaceOnUse" gradientTransform="translate(171.133 80.3127) rotate(106.004) scale(2.95818 11.7055)">
<stop offset="0.0036537" stop-color="#C3A5F2"/>
<stop offset="0.498653" stop-color="#1E1E1E"/>
</radialGradient>
<radialGradient id="paint14_angular_680:867" cx="0" cy="0" r="1" gradientUnits="userSpaceOnUse" gradientTransform="translate(171.133 81.2566) rotate(110.036) scale(2.38056 11.4405)">
<stop offset="0.0036537" stop-color="#C3A5F2"/>
<stop offset="0.498653" stop-color="#1E1E1E"/>
</radialGradient>
<radialGradient id="paint15_angular_680:867" cx="0" cy="0" r="1" gradientUnits="userSpaceOnUse" gradientTransform="translate(171.01 82.2506) rotate(116.978) scale(1.79254 10.82)">
<stop offset="0.0036537" stop-color="#C3A5F2"/>
<stop offset="0.498653" stop-color="#1E1E1E"/>
</radialGradient>
<radialGradient id="paint16_angular_680:867" cx="0" cy="0" r="1" gradientUnits="userSpaceOnUse" gradientTransform="translate(171.01 83.1947) rotate(129.387) scale(1.28149 9.38364)">
<stop offset="0.0036537" stop-color="#C3A5F2"/>
<stop offset="0.498653" stop-color="#1E1E1E"/>
</radialGradient>
<radialGradient id="paint17_angular_680:867" cx="0" cy="0" r="1" gradientUnits="userSpaceOnUse" gradientTransform="translate(171.01 84.1388) rotate(154.757) scale(0.899022 5.1777)">
<stop offset="0.0036537" stop-color="#C3A5F2"/>
<stop offset="0.498653" stop-color="#1E1E1E"/>
</radialGradient>
<radialGradient id="paint18_angular_680:867" cx="0" cy="0" r="1" gradientUnits="userSpaceOnUse" gradientTransform="translate(171.01 91.925) rotate(155.685) scale(0.892326 4.99919)">
<stop offset="0.0036537" stop-color="#C3A5F2"/>
<stop offset="0.498653" stop-color="#1E1E1E"/>
</radialGradient>
<radialGradient id="paint19_angular_680:867" cx="0" cy="0" r="1" gradientUnits="userSpaceOnUse" gradientTransform="translate(171.01 105.727) rotate(129.844) scale(1.26919 9.32181)">
<stop offset="0.0036537" stop-color="#C3A5F2"/>
<stop offset="0.498653" stop-color="#1E1E1E"/>
</radialGradient>
<radialGradient id="paint20_angular_680:867" cx="0" cy="0" r="1" gradientUnits="userSpaceOnUse" gradientTransform="translate(171.01 119.529) rotate(117.211) scale(1.77832 10.7974)">
<stop offset="0.0036537" stop-color="#C3A5F2"/>
<stop offset="0.498653" stop-color="#1E1E1E"/>
</radialGradient>
<radialGradient id="paint21_angular_680:867" cx="0" cy="0" r="1" gradientUnits="userSpaceOnUse" gradientTransform="translate(171.133 134.058) rotate(110.169) scale(2.36556 11.4308)">
<stop offset="0.0036537" stop-color="#C3A5F2"/>
<stop offset="0.498653" stop-color="#1E1E1E"/>
</radialGradient>
<radialGradient id="paint22_angular_680:867" cx="0" cy="0" r="1" gradientUnits="userSpaceOnUse" gradientTransform="translate(171.133 147.86) rotate(106.09) scale(2.94283 11.7004)">
<stop offset="0.0036537" stop-color="#C3A5F2"/>
<stop offset="0.498653" stop-color="#1E1E1E"/>
</radialGradient>
<radialGradient id="paint23_angular_680:867" cx="0" cy="0" r="1" gradientUnits="userSpaceOnUse" gradientTransform="translate(171.133 162.025) rotate(103.299) scale(3.54565 11.8509)">
<stop offset="0.0036537" stop-color="#C3A5F2"/>
<stop offset="0.498653" stop-color="#1E1E1E"/>
</radialGradient>
</defs>
</svg>
