<svg width="185" height="188" viewBox="0 0 185 188" fill="none" xmlns="http://www.w3.org/2000/svg">
<path d="M32.9828 183.044L32.8523 181.586C82.1254 177.25 131.392 168.47 150.56 164.436C162.434 162.636 179.966 157.343 179.754 150.109C179.699 148.2 177.077 143.846 160.135 136.135C146.507 129.934 131.451 125.059 127.157 123.711L49.4085 98.6891C45.7993 97.7012 33.0268 93.9967 21.5091 88.1382C10.1833 82.3744 4.45446 76.7171 4.48132 71.3253C4.50834 65.9431 9.32591 60.6169 18.7948 55.4954C28.4138 50.2934 39.0592 47.3216 42.0934 46.5361L142.555 23.4859C164.929 19.3466 178.458 14.4049 178.63 12.0141C178.686 11.2172 178.436 10.5179 177.869 9.88229C175.975 7.7684 171.316 7.04622 168.859 6.9533L168.913 5.48736C169.656 5.51466 176.223 5.85013 178.957 8.903C179.797 9.83711 180.175 10.9201 180.092 12.1179C179.988 13.57 178.38 15.9347 165.661 19.628C156.213 22.3709 145.816 24.3718 142.856 24.9218L42.448 47.9614C39.477 48.7312 28.9726 51.6666 19.4988 56.7882C13.3363 60.1188 5.98318 65.3484 5.95599 71.3361C5.93325 76.0637 11.5451 81.4249 22.1818 86.8383C33.5716 92.6353 46.2264 96.3075 49.8355 97.2905L127.609 122.322C129.778 123.006 180.904 139.166 181.223 150.071C181.341 154.103 177.478 157.744 169.735 160.884C161.963 164.04 153.301 165.506 150.831 165.882C131.668 169.912 82.3242 178.703 32.9828 183.044Z" fill="url(#paint0_angular_680:994)"/>
<path d="M170.839 184.105C163.652 183.496 90.0143 170.173 52.0749 163.214C50.1559 162.893 4.79211 155.114 4.86048 141.249C4.93016 127.466 44.044 115.185 45.7056 114.67L131.309 87.206C135.291 86.1858 149.127 82.426 161.677 76.4254C173.414 70.8138 179.692 65.2154 179.832 60.232C180.141 49.5174 139.932 37.0519 112.831 31.2889C82.8132 25.3768 23.2241 13.7311 12.6353 11.9553C7.61264 11.1167 5.02834 9.79027 4.73474 7.9001C4.40884 5.81998 6.98631 4.25059 8.10505 3.67614L8.77506 4.9792C7.1042 5.83588 6.06191 6.9219 6.18129 7.67696C6.24644 8.09104 6.91838 9.51617 12.8761 10.5108C23.4844 12.2864 83.0882 23.9367 113.126 29.8534C115.938 30.4534 181.748 44.6279 181.298 60.2722C181.133 65.9202 174.748 71.7987 162.309 77.7486C149.642 83.8047 135.689 87.5957 131.717 88.6109L46.1476 116.065C30.1629 121.021 6.37102 131.814 6.3253 141.255C6.27859 150.632 33.8109 158.664 52.3304 161.775C90.2501 168.729 163.834 182.038 170.962 182.647L170.839 184.105Z" fill="url(#paint1_angular_680:994)"/>
<path d="M137.569 184.296C110.601 183.873 61.3052 176.914 39.0035 173.292C32.7954 172.516 25.8542 171.078 20.4529 169.45C12.8438 167.153 7.98275 164.495 6.00253 161.543C5.02733 160.083 4.74434 158.554 5.16881 156.994C8.18605 145.895 56.1807 132.979 94.7437 122.601L96.4015 122.155C125.615 114.289 152.294 103.557 162.323 98.9781C168.163 96.5513 178.338 90.6763 179.589 83.9659C180.106 81.1985 179.019 78.5103 176.367 75.9738C165.926 65.996 125.197 53.9636 105.119 48.9928L19.3843 26.8222C17.7112 26.3066 3.31386 21.744 2.94626 17.0323C2.56743 12.2279 14.1422 8.74322 15.4641 8.36089L32.9 4.09475L33.2497 5.51521L15.843 9.77603C10.1711 11.414 4.21427 14.4776 4.40915 16.9163C4.59868 19.3258 12.3732 23.129 19.7867 25.4094L105.483 47.5659C125.682 52.569 166.721 64.7234 177.38 74.9126C180.414 77.8142 181.645 80.9495 181.033 84.2361C179.755 91.0836 170.473 97.1837 162.911 100.322C152.872 104.905 126.096 115.683 96.7852 123.57L95.1274 124.016C76.4099 129.055 55.1983 134.763 37.9199 140.648C18.3299 147.322 7.78523 152.953 6.58102 157.377C6.2672 158.525 6.47497 159.621 7.21503 160.722C11.3306 166.864 29.9393 170.676 39.205 171.838C61.497 175.46 110.7 182.412 137.584 182.83L137.569 184.296Z" fill="url(#paint2_angular_680:994)"/>
<path d="M168.492 184.445L168.225 183.003C173.258 182.069 179.039 179.922 179.241 178.444C179.289 178.096 178.769 177.63 177.859 177.191C171.91 174.321 89.4655 153.978 46.6973 143.624C44.9617 143.163 4.53792 132.244 4.60798 118.794C4.6751 105.158 31.3444 95.3927 61.053 85.7751C84.5876 78.155 131.386 64.0178 152.841 57.6076C164.362 54.1677 176.641 47.6733 178.111 40.9302C178.639 38.4996 177.64 36.1615 175.145 33.979C158.856 19.7183 95.749 13.4564 49.6646 8.88787C40.305 7.96179 31.4636 7.08119 23.9263 6.22879L24.0936 4.77084C31.6163 5.62348 40.4527 6.49924 49.8075 7.43028C96.0875 12.0201 159.463 18.3022 176.109 32.8747C179.035 35.4362 180.193 38.2552 179.542 41.2445C177.835 49.0755 164.318 55.7116 153.258 59.0123C131.804 65.4225 85.0199 79.5546 61.4998 87.1696C33.4866 96.2427 6.13122 106.155 6.06792 118.8C6.02253 127.952 30.5567 137.809 47.0557 142.207C89.8582 152.57 172.431 172.955 178.492 175.877C180.091 176.648 180.833 177.578 180.689 178.645C180.209 182.232 168.609 184.423 168.492 184.445Z" fill="url(#paint3_angular_680:994)"/>
<path d="M40.4701 183.818C27.9823 182.981 18.5634 181.709 12.4779 180.037C6.75032 178.468 3.85364 176.531 3.61522 174.117C3.35883 171.494 6.24555 168.796 12.4536 165.87C17.0963 163.682 23.5638 161.421 30.6619 159.507C70.2862 149.556 149.054 128.881 163.643 121.818C173.678 116.961 178.837 111.927 178.976 106.866C179.119 101.677 174.003 96.1763 163.772 90.5172C145.552 80.4331 89.6887 64.4944 62.6949 57.4746C49.3693 54.3063 5.78577 43.0224 5.17188 31.0869C4.97417 27.2369 8.90145 23.9613 17.1753 21.0709C52.0867 8.87535 99.375 5.91382 122.1 4.48914C123.816 4.37891 125.402 4.28056 126.836 4.18947L126.932 5.65301C125.498 5.74899 123.913 5.84734 122.196 5.95268C99.5348 7.37148 52.3831 10.326 17.666 22.455C10.1932 25.064 6.48431 27.9455 6.64035 31.0148C7.08557 39.7005 37.3088 49.9313 63.0532 56.0576C90.1207 63.0957 146.136 79.0809 164.484 89.2362C175.232 95.185 180.599 101.131 180.442 106.911C180.287 112.564 174.852 118.027 164.284 123.141C149.588 130.255 70.6943 150.971 31.0359 160.927C15.1674 165.202 4.72884 170.447 5.07765 173.972C5.29887 176.225 10.207 180.313 40.5739 182.356L40.4701 183.818Z" fill="url(#paint4_angular_680:994)"/>
<path d="M6.28167 3.83003L6.27441 5.29492L178.672 6.15047L178.679 4.68558L6.28167 3.83003Z" fill="url(#paint5_angular_680:994)"/>
<path d="M5.39544 182.059L5.38818 183.524L177.785 184.38L177.793 182.915L5.39544 182.059Z" fill="url(#paint6_angular_680:994)"/>
<path d="M7.87556 183.845C7.88989 183.825 7.92298 183.756 7.92616 183.649L6.46133 183.643C6.46329 182.842 6.47029 181.743 20.4701 177.853C29.7449 175.274 40.0142 172.909 42.9428 172.243L135.77 152.053C139.308 151.362 151.683 148.729 162.906 143.687C173.382 138.98 178.998 133.797 179.141 128.696C179.451 117.694 131.015 100.328 98.3802 91.3421C71.4043 83.9216 17.6609 66.8114 7.28677 55.1673C4.41856 51.9456 3.46061 48.8011 4.44358 45.8212C6.59093 39.292 18.0801 33.7966 38.5912 29.4867L95.5235 18.9005L172.378 4.42872L172.65 5.86996L95.7953 20.3417L38.8777 30.9277C19.2134 35.0631 7.77983 40.372 5.83758 46.2875C5.02252 48.7715 5.8545 51.3612 8.38468 54.2024C18.5252 65.5865 71.9393 82.5555 98.7632 89.9393C102.122 90.8628 181.052 112.785 180.602 128.746C180.44 134.526 174.687 140.009 163.503 145.031C152.14 150.138 139.629 152.803 136.066 153.494L43.2634 173.678C26.7663 177.417 9.02198 182.245 7.87556 183.845Z" fill="url(#paint7_angular_680:994)"/>
<path d="M91.8644 184.36C90.1121 184.387 88.4474 184.404 86.8754 184.414L86.8669 182.949C112.586 182.825 164.219 180.146 175.565 170.878C177.821 169.036 178.701 167.244 178.252 165.41C176.33 157.549 151.581 148.613 104.697 138.842C63.5828 130.273 30.5582 115.799 19.7024 111.038C18.3159 110.43 17.313 109.992 16.7036 109.743C13.706 108.525 5.06404 102.358 5.2536 94.292C5.44851 85.9477 14.6123 78.5211 32.4897 72.2262C67.8171 59.7847 115.838 46.9663 136.293 41.9295C139.933 41.1491 152.631 38.2814 164.016 33.9549C174.431 29.9953 180.116 26.0912 180.018 22.9624C179.975 21.5224 177.18 17.6647 152.264 12.9562C132.92 9.30208 111.531 7.18944 105.434 6.62677L105.567 5.16934C111.679 5.73178 133.132 7.85319 152.534 11.5161C181.299 16.9499 181.434 21.4407 181.482 22.9148C181.806 33.5461 138.463 42.9597 136.619 43.3552C116.207 48.3815 68.2445 61.1844 32.9754 73.6054C15.972 79.5935 6.89193 86.76 6.714 94.3274C6.54166 101.631 14.4917 107.268 17.2533 108.386C17.8823 108.64 18.8902 109.083 20.2865 109.696C31.103 114.437 64.0293 128.869 104.991 137.406C126.82 141.954 143.365 146.179 155.578 150.322C170.614 155.427 178.497 160.244 179.672 165.06C180.262 167.468 179.19 169.81 176.491 172.011C165.535 180.961 118.945 183.931 91.8644 184.36Z" fill="url(#paint8_angular_680:994)"/>
<defs>
<radialGradient id="paint0_angular_680:994" cx="0" cy="0" r="1" gradientUnits="userSpaceOnUse" gradientTransform="translate(61.9316 171.356) rotate(97.8143) scale(7.30421 16.3462)">
<stop offset="0.0036537" stop-color="#C3A5F2"/>
<stop offset="0.498653" stop-color="#1E1E1E"/>
</radialGradient>
<radialGradient id="paint1_angular_680:994" cx="0" cy="0" r="1" gradientUnits="userSpaceOnUse" gradientTransform="translate(61.6139 174.118) rotate(97.5113) scale(7.61478 16.4667)">
<stop offset="0.0036537" stop-color="#C3A5F2"/>
<stop offset="0.498653" stop-color="#1E1E1E"/>
</radialGradient>
<radialGradient id="paint2_angular_680:994" cx="0" cy="0" r="1" gradientUnits="userSpaceOnUse" gradientTransform="translate(61.3557 173.86) rotate(97.5488) scale(7.56776 16.4358)">
<stop offset="0.0036537" stop-color="#C3A5F2"/>
<stop offset="0.498653" stop-color="#1E1E1E"/>
</radialGradient>
<radialGradient id="paint3_angular_680:994" cx="0" cy="0" r="1" gradientUnits="userSpaceOnUse" gradientTransform="translate(61.2925 174.493) rotate(97.4951) scale(7.57097 16.3413)">
<stop offset="0.0036537" stop-color="#C3A5F2"/>
<stop offset="0.498653" stop-color="#1E1E1E"/>
</radialGradient>
<radialGradient id="paint4_angular_680:994" cx="0" cy="0" r="1" gradientUnits="userSpaceOnUse" gradientTransform="translate(59.8643 172.098) rotate(97.741) scale(7.42173 16.4738)">
<stop offset="0.0036537" stop-color="#C3A5F2"/>
<stop offset="0.498653" stop-color="#1E1E1E"/>
</radialGradient>
<radialGradient id="paint5_angular_680:994" cx="0" cy="0" r="1" gradientUnits="userSpaceOnUse" gradientTransform="translate(167.636 5.6322) rotate(0.358538) scale(7.09699 0.137222)">
<stop offset="0.0036537" stop-color="#C3A5F2"/>
<stop offset="0.498653" stop-color="#1E1E1E"/>
</radialGradient>
<radialGradient id="paint6_angular_680:994" cx="0" cy="0" r="1" gradientUnits="userSpaceOnUse" gradientTransform="translate(166.75 183.861) rotate(0.358537) scale(7.09699 0.137223)">
<stop offset="0.0036537" stop-color="#C3A5F2"/>
<stop offset="0.498653" stop-color="#1E1E1E"/>
</radialGradient>
<radialGradient id="paint7_angular_680:994" cx="0" cy="0" r="1" gradientUnits="userSpaceOnUse" gradientTransform="translate(61.48 171.675) rotate(97.6829) scale(7.36021 16.2309)">
<stop offset="0.0036537" stop-color="#C3A5F2"/>
<stop offset="0.498653" stop-color="#1E1E1E"/>
</radialGradient>
<radialGradient id="paint8_angular_680:994" cx="0" cy="0" r="1" gradientUnits="userSpaceOnUse" gradientTransform="translate(62.6182 173.364) rotate(97.6812) scale(7.45023 16.4262)">
<stop offset="0.0036537" stop-color="#C3A5F2"/>
<stop offset="0.498653" stop-color="#1E1E1E"/>
</radialGradient>
</defs>
</svg>
