<svg width="194" height="194" viewBox="0 0 194 194" fill="none" xmlns="http://www.w3.org/2000/svg">
<path d="M180.725 48.4357L12.0312 144.149L12.674 145.285L181.368 49.5717L180.725 48.4357Z" fill="url(#paint0_diamond_680:979)"/>
<path d="M190.975 72.4977L2.70703 119.952L3.02424 121.223L191.293 73.7677L190.975 72.4977Z" fill="url(#paint1_diamond_680:979)"/>
<path d="M0.0215952 94.7551L0 96.0899L193.98 99.2668L194 97.932L0.0215952 94.7551Z" fill="url(#paint2_diamond_680:979)"/>
<path d="M3.66568 69.7906L3.30859 71.0386L190.033 123.93L190.391 122.683L3.66568 69.7906Z" fill="url(#paint3_diamond_680:979)"/>
<path d="M14.2044 46.6309L13.5347 47.7493L179.796 147.391L180.465 146.272L14.2044 46.6309Z" fill="url(#paint4_diamond_680:979)"/>
<path d="M29.8102 26.78L28.8745 27.6887L163.59 167.242L164.524 166.333L29.8102 26.78Z" fill="url(#paint5_diamond_680:979)"/>
<path d="M50.4621 12.042L49.3271 12.6751L143.237 181.98L144.372 181.348L50.4621 12.042Z" fill="url(#paint6_diamond_680:979)"/>
<path d="M74.0513 2.7179L72.7876 3.03528L119.949 191.304L121.212 190.987L74.0513 2.7179Z" fill="url(#paint7_diamond_680:979)"/>
<path d="M97.9158 0.0108643L94.7441 193.69L96.0853 193.71L99.2558 0.0316408L97.9158 0.0108643Z" fill="url(#paint8_diamond_680:979)"/>
<path d="M122.672 3.62024L69.7803 190.044L71.0281 190.402L123.92 3.97741L122.672 3.62024Z" fill="url(#paint9_diamond_680:979)"/>
<path d="M146.262 13.5458L46.6206 179.807L47.7399 180.476L147.38 14.2148L146.262 13.5458Z" fill="url(#paint10_diamond_680:979)"/>
<path d="M166.322 28.8853L26.769 164.196L27.677 165.136L167.231 29.8247L166.322 28.8853Z" fill="url(#paint11_diamond_680:979)"/>
<defs>
<radialGradient id="paint0_diamond_680:979" cx="0" cy="0" r="1" gradientUnits="userSpaceOnUse" gradientTransform="translate(96.6995 83.2662) rotate(90) scale(62.0191 155.78)">
<stop stop-color="white"/>
<stop offset="1" stop-color="#C3A5F2"/>
</radialGradient>
<radialGradient id="paint1_diamond_680:979" cx="0" cy="0" r="1" gradientUnits="userSpaceOnUse" gradientTransform="translate(97 90.0211) rotate(90) scale(31.2021 173.488)">
<stop stop-color="white"/>
<stop offset="1" stop-color="#C3A5F2"/>
</radialGradient>
<radialGradient id="paint2_diamond_680:979" cx="0" cy="0" r="1" gradientUnits="userSpaceOnUse" gradientTransform="translate(97 96.3777) rotate(90) scale(2.88909 178.469)">
<stop stop-color="white"/>
<stop offset="1" stop-color="#C3A5F2"/>
</radialGradient>
<radialGradient id="paint3_diamond_680:979" cx="0" cy="0" r="1" gradientUnits="userSpaceOnUse" gradientTransform="translate(96.8497 89.2611) rotate(90) scale(34.669 172.105)">
<stop stop-color="white"/>
<stop offset="1" stop-color="#C3A5F2"/>
</radialGradient>
<radialGradient id="paint4_diamond_680:979" cx="0" cy="0" r="1" gradientUnits="userSpaceOnUse" gradientTransform="translate(96.9998 82.8676) rotate(90) scale(64.5229 153.566)">
<stop stop-color="white"/>
<stop offset="1" stop-color="#C3A5F2"/>
</radialGradient>
<radialGradient id="paint5_diamond_680:979" cx="0" cy="0" r="1" gradientUnits="userSpaceOnUse" gradientTransform="translate(96.6993 77.2951) rotate(90) scale(89.9469 124.79)">
<stop stop-color="white"/>
<stop offset="1" stop-color="#C3A5F2"/>
</radialGradient>
<radialGradient id="paint6_diamond_680:979" cx="0" cy="0" r="1" gradientUnits="userSpaceOnUse" gradientTransform="translate(96.8496 73.1577) rotate(90) scale(108.822 87.436)">
<stop stop-color="white"/>
<stop offset="1" stop-color="#C3A5F2"/>
</radialGradient>
<radialGradient id="paint7_diamond_680:979" cx="0" cy="0" r="1" gradientUnits="userSpaceOnUse" gradientTransform="translate(97 70.5401) rotate(90) scale(120.764 44.5481)">
<stop stop-color="white"/>
<stop offset="1" stop-color="#C3A5F2"/>
</radialGradient>
<radialGradient id="paint8_diamond_680:979" cx="0" cy="0" r="1" gradientUnits="userSpaceOnUse" gradientTransform="translate(97 69.672) rotate(90) scale(124.038 4.15044)">
<stop stop-color="white"/>
<stop offset="1" stop-color="#C3A5F2"/>
</radialGradient>
<radialGradient id="paint9_diamond_680:979" cx="0" cy="0" r="1" gradientUnits="userSpaceOnUse" gradientTransform="translate(96.85 70.7934) rotate(90) scale(119.608 49.8053)">
<stop stop-color="white"/>
<stop offset="1" stop-color="#C3A5F2"/>
</radialGradient>
<radialGradient id="paint10_diamond_680:979" cx="0" cy="0" r="1" gradientUnits="userSpaceOnUse" gradientTransform="translate(97.0004 73.5798) rotate(90) scale(106.896 92.6932)">
<stop stop-color="white"/>
<stop offset="1" stop-color="#C3A5F2"/>
</radialGradient>
<radialGradient id="paint11_diamond_680:979" cx="0" cy="0" r="1" gradientUnits="userSpaceOnUse" gradientTransform="translate(97.0001 77.886) rotate(90) scale(87.2504 129.217)">
<stop stop-color="white"/>
<stop offset="1" stop-color="#C3A5F2"/>
</radialGradient>
</defs>
</svg>
