<svg width="216" height="186" viewBox="0 0 216 186" fill="none" xmlns="http://www.w3.org/2000/svg">
<path d="M215.982 185.602H0L107.275 0L215.982 185.602ZM2.35186 184.247H213.616L107.284 2.69862L2.35186 184.247Z" fill="url(#paint0_angular_680:954)"/>
<path d="M214.227 185.602C193.918 185.602 150.896 181.119 126.24 163.894L126.19 163.854L71.2031 117.114L72.0859 116.085L127.051 162.803C151.873 180.127 195.62 184.412 215.296 184.24L215.304 185.594C214.956 185.597 214.594 185.602 214.227 185.602Z" fill="url(#paint1_angular_680:954)"/>
<path d="M7.58376 175.479L6.44238 174.735C12.7735 165.21 29.4804 141.642 47.7829 128.615C62.5197 118.126 80.6736 112.647 98.2258 107.343C110.143 103.742 121.404 100.345 131.648 95.5011L132.234 96.722C121.9 101.607 110.593 105.022 98.6265 108.635C81.1777 113.903 63.1392 119.351 48.5842 129.711C30.4624 142.607 13.8744 166.012 7.58376 175.479Z" fill="url(#paint2_angular_680:954)"/>
<path d="M13.3548 165.354L13.2231 166.724L187.029 183.914L187.162 182.544L13.3548 165.354Z" fill="url(#paint3_angular_680:954)"/>
<path d="M25.0206 150.17L24.7515 151.509L179.433 182.903L179.703 181.564L25.0206 150.17Z" fill="url(#paint4_angular_680:954)"/>
<path d="M120.476 158.268L119.148 158.014L131.802 91.041C134.849 63.2945 121.22 28.3769 113.586 13.7869L114.784 13.1604C122.486 27.8811 136.238 63.1365 133.145 91.2131L133.136 91.2626L120.476 158.268Z" fill="url(#paint5_angular_680:954)"/>
<path d="M116.856 16.1982L115.62 16.7523L191.01 183.915L192.248 183.361L116.856 16.1982Z" fill="url(#paint6_angular_680:954)"/>
<path d="M132.674 87.4014L60.6919 120.275L61.2702 121.485L133.251 88.6119L132.674 87.4014Z" fill="url(#paint7_angular_680:954)"/>
<path d="M117.567 20.9224L9.83301 168.612L10.9376 169.404L118.672 21.7143L117.567 20.9224Z" fill="url(#paint8_angular_680:954)"/>
<path d="M124.435 38.1326L24.4121 150.619L25.4291 151.519L125.452 39.0324L124.435 38.1326Z" fill="url(#paint9_angular_680:954)"/>
<path d="M125.764 164.004C115.686 157.851 81.8981 134.159 63.0649 120.556L63.8612 119.46C82.2324 132.729 116.571 156.804 126.469 162.849L125.764 164.004Z" fill="url(#paint10_angular_680:954)"/>
<path d="M130.449 167.043C126.472 165.72 78.5618 138.826 55.5391 125.902L54.5884 125.367L55.2563 124.185L56.207 124.721C77.3972 136.617 127.021 164.476 130.877 165.757L130.449 167.043Z" fill="url(#paint11_angular_680:954)"/>
<path d="M138.94 171.091C130.092 168.295 73.4645 144.19 44.7563 131.835L45.3025 130.596C73.988 142.941 130.561 167.019 139.354 169.801L138.94 171.091Z" fill="url(#paint12_angular_680:954)"/>
<path d="M148.581 175.478C138.083 173.369 52.3437 146.114 35.2632 140.672L35.6755 139.37C52.743 144.806 138.423 172.042 148.849 174.138L148.581 175.478Z" fill="url(#paint13_angular_680:954)"/>
<path d="M125.717 38.1326L124.436 38.5619L171.977 180.878L173.26 180.448L125.717 38.1326Z" fill="url(#paint14_angular_680:954)"/>
<path d="M132.555 78.2911L58.9971 121.682L59.6937 122.836L133.252 79.4448L132.555 78.2911Z" fill="url(#paint15_angular_680:954)"/>
<path d="M128.6 53.6567L45.4336 129.943L46.3535 130.935L129.521 54.6483L128.6 53.6567Z" fill="url(#paint16_angular_680:954)"/>
<path d="M131.754 66.1427L53.5718 124.782L54.3909 125.873L132.573 67.2326L131.754 66.1427Z" fill="url(#paint17_angular_680:954)"/>
<path d="M129.844 54.3309L128.505 54.6234L155.985 177.166L157.325 176.873L129.844 54.3309Z" fill="url(#paint18_angular_680:954)"/>
<path d="M131.148 95.839L125.453 163.224L126.877 163.331L132.573 95.9459L131.148 95.839Z" fill="url(#paint19_angular_680:954)"/>
<path d="M133.551 75.2531L132.234 75.4119L143.463 173.116L144.78 172.956L133.551 75.2531Z" fill="url(#paint20_angular_680:954)"/>
<path d="M133.906 86.3893L132.572 86.4069L133.613 168.054L134.946 168.038L133.906 86.3893Z" fill="url(#paint21_angular_680:954)"/>
<defs>
<radialGradient id="paint0_angular_680:954" cx="0" cy="0" r="1" gradientUnits="userSpaceOnUse" gradientTransform="translate(68.3381 173.719) rotate(100.057) scale(7.75973 19.9208)">
<stop offset="0.0036537" stop-color="#C3A5F2"/>
<stop offset="0.498653" stop-color="#1E1E1E"/>
</radialGradient>
<radialGradient id="paint1_angular_680:954" cx="0" cy="0" r="1" gradientUnits="userSpaceOnUse" gradientTransform="translate(116.798 181.151) rotate(107.532) scale(3.00113 12.8713)">
<stop offset="0.0036537" stop-color="#C3A5F2"/>
<stop offset="0.498653" stop-color="#1E1E1E"/>
</radialGradient>
<radialGradient id="paint2_angular_680:954" cx="0" cy="0" r="1" gradientUnits="userSpaceOnUse" gradientTransform="translate(46.2437 170.358) rotate(103.48) scale(3.38563 11.4587)">
<stop offset="0.0036537" stop-color="#C3A5F2"/>
<stop offset="0.498653" stop-color="#1E1E1E"/>
</radialGradient>
<radialGradient id="paint3_angular_680:954" cx="0" cy="0" r="1" gradientUnits="userSpaceOnUse" gradientTransform="translate(68.2584 182.726) rotate(145.002) scale(1.33216 9.34491)">
<stop offset="0.0036537" stop-color="#C3A5F2"/>
<stop offset="0.498653" stop-color="#1E1E1E"/>
</radialGradient>
<radialGradient id="paint4_angular_680:954" cx="0" cy="0" r="1" gradientUnits="userSpaceOnUse" gradientTransform="translate(73.7789 180.808) rotate(125.808) scale(1.66158 11.7711)">
<stop offset="0.0036537" stop-color="#C3A5F2"/>
<stop offset="0.498653" stop-color="#1E1E1E"/>
</radialGradient>
<radialGradient id="paint5_angular_680:954" cx="0" cy="0" r="1" gradientUnits="userSpaceOnUse" gradientTransform="translate(119.916 148.977) rotate(91.2036) scale(5.9748 1.87348)">
<stop offset="0.0036537" stop-color="#C3A5F2"/>
<stop offset="0.498653" stop-color="#1E1E1E"/>
</radialGradient>
<radialGradient id="paint6_angular_680:954" cx="0" cy="0" r="1" gradientUnits="userSpaceOnUse" gradientTransform="translate(139.866 173.177) rotate(93.9832) scale(6.92096 7.16061)">
<stop offset="0.0036537" stop-color="#C3A5F2"/>
<stop offset="0.498653" stop-color="#1E1E1E"/>
</radialGradient>
<radialGradient id="paint7_angular_680:954" cx="0" cy="0" r="1" gradientUnits="userSpaceOnUse" gradientTransform="translate(83.6501 119.303) rotate(107.976) scale(1.47508 6.46505)">
<stop offset="0.0036537" stop-color="#C3A5F2"/>
<stop offset="0.498653" stop-color="#1E1E1E"/>
</radialGradient>
<radialGradient id="paint8_angular_680:954" cx="0" cy="0" r="1" gradientUnits="userSpaceOnUse" gradientTransform="translate(44.2702 159.898) rotate(96.3743) scale(6.15043 10.1322)">
<stop offset="0.0036537" stop-color="#C3A5F2"/>
<stop offset="0.498653" stop-color="#1E1E1E"/>
</radialGradient>
<radialGradient id="paint9_angular_680:954" cx="0" cy="0" r="1" gradientUnits="userSpaceOnUse" gradientTransform="translate(56.3819 144.259) rotate(97.734) scale(4.7105 9.37863)">
<stop offset="0.0036537" stop-color="#C3A5F2"/>
<stop offset="0.498653" stop-color="#1E1E1E"/>
</radialGradient>
<radialGradient id="paint10_angular_680:954" cx="0" cy="0" r="1" gradientUnits="userSpaceOnUse" gradientTransform="translate(83.1265 161.152) rotate(102.24) scale(1.87637 5.80427)">
<stop offset="0.0036537" stop-color="#C3A5F2"/>
<stop offset="0.498653" stop-color="#1E1E1E"/>
</radialGradient>
<radialGradient id="paint11_angular_680:954" cx="0" cy="0" r="1" gradientUnits="userSpaceOnUse" gradientTransform="translate(78.7266 164.299) rotate(105.178) scale(1.82803 6.89689)">
<stop offset="0.0036537" stop-color="#C3A5F2"/>
<stop offset="0.498653" stop-color="#1E1E1E"/>
</radialGradient>
<radialGradient id="paint12_angular_680:954" cx="0" cy="0" r="1" gradientUnits="userSpaceOnUse" gradientTransform="translate(74.6878 168.498) rotate(109.597) scale(1.76952 8.34799)">
<stop offset="0.0036537" stop-color="#C3A5F2"/>
<stop offset="0.498653" stop-color="#1E1E1E"/>
</radialGradient>
<radialGradient id="paint13_angular_680:954" cx="0" cy="0" r="1" gradientUnits="userSpaceOnUse" gradientTransform="translate(71.2024 173.166) rotate(115.614) scale(1.64842 9.59426)">
<stop offset="0.0036537" stop-color="#C3A5F2"/>
<stop offset="0.498653" stop-color="#1E1E1E"/>
</radialGradient>
<radialGradient id="paint14_angular_680:954" cx="0" cy="0" r="1" gradientUnits="userSpaceOnUse" gradientTransform="translate(139.884 171.738) rotate(92.9841) scale(5.88422 4.56736)">
<stop offset="0.0036537" stop-color="#C3A5F2"/>
<stop offset="0.498653" stop-color="#1E1E1E"/>
</radialGradient>
<radialGradient id="paint15_angular_680:954" cx="0" cy="0" r="1" gradientUnits="userSpaceOnUse" gradientTransform="translate(82.4916 119.984) rotate(104.255) scale(1.89197 6.74146)">
<stop offset="0.0036537" stop-color="#C3A5F2"/>
<stop offset="0.498653" stop-color="#1E1E1E"/>
</radialGradient>
<radialGradient id="paint16_angular_680:954" cx="0" cy="0" r="1" gradientUnits="userSpaceOnUse" gradientTransform="translate(72.0393 125.987) rotate(99.4159) scale(3.22467 7.77056)">
<stop offset="0.0036537" stop-color="#C3A5F2"/>
<stop offset="0.498653" stop-color="#1E1E1E"/>
</radialGradient>
<radialGradient id="paint17_angular_680:954" cx="0" cy="0" r="1" gradientUnits="userSpaceOnUse" gradientTransform="translate(78.5683 122.049) rotate(101.397) scale(2.50831 7.25436)">
<stop offset="0.0036537" stop-color="#C3A5F2"/>
<stop offset="0.498653" stop-color="#1E1E1E"/>
</radialGradient>
<radialGradient id="paint18_angular_680:954" cx="0" cy="0" r="1" gradientUnits="userSpaceOnUse" gradientTransform="translate(137.624 169.302) rotate(92.0479) scale(5.05986 2.69795)">
<stop offset="0.0036537" stop-color="#C3A5F2"/>
<stop offset="0.498653" stop-color="#1E1E1E"/>
</radialGradient>
<radialGradient id="paint19_angular_680:954" cx="0" cy="0" r="1" gradientUnits="userSpaceOnUse" gradientTransform="translate(127.706 159.01) rotate(90.9212) scale(2.77872 0.666891)">
<stop offset="0.0036537" stop-color="#C3A5F2"/>
<stop offset="0.498653" stop-color="#1E1E1E"/>
</radialGradient>
<radialGradient id="paint20_angular_680:954" cx="0" cy="0" r="1" gradientUnits="userSpaceOnUse" gradientTransform="translate(136.204 166.851) rotate(91.1192) scale(4.0294 1.17493)">
<stop offset="0.0036537" stop-color="#C3A5F2"/>
<stop offset="0.498653" stop-color="#1E1E1E"/>
</radialGradient>
<radialGradient id="paint21_angular_680:954" cx="0" cy="0" r="1" gradientUnits="userSpaceOnUse" gradientTransform="translate(133.323 162.826) rotate(90.2538) scale(3.36185 0.222324)">
<stop offset="0.0036537" stop-color="#C3A5F2"/>
<stop offset="0.498653" stop-color="#1E1E1E"/>
</radialGradient>
</defs>
</svg>
