<svg width="230" height="189" viewBox="0 0 230 189" fill="none" xmlns="http://www.w3.org/2000/svg">
<path d="M2.18076 189L2.38197 187.934C6.68976 165.121 11.8336 148.156 15.9689 134.52C20.7741 118.678 24.2446 107.235 23.7235 95.8269V95.8031V95.7782C23.9772 84.3602 20.238 73.0034 15.0654 57.2809C10.6101 43.7455 5.06887 26.9044 0.22495 4.19626L0 3.13555L1.06726 3.34584C23.0399 7.64576 41.447 13.8089 57.6884 19.2458C78.6 26.245 96.6635 32.2935 114.228 31.3619H114.257H114.286C131.866 31.8778 149.785 25.4137 170.535 17.9224C186.642 12.108 204.896 5.51961 226.759 0.703761L227.821 0.469727L227.619 1.53506C223.311 24.3483 218.168 41.3137 214.032 54.9493C209.227 70.7868 205.757 82.2348 206.277 93.6427V93.6665V93.6902C206.024 105.109 209.762 116.466 214.936 132.189C219.391 145.725 224.932 162.57 229.776 185.274L230 186.334L228.934 186.124C206.961 181.824 188.554 175.66 172.318 170.224C151.405 163.22 133.343 157.176 115.778 158.107H115.749H115.72C98.1406 157.587 80.2209 164.056 59.4768 171.547C43.3691 177.362 25.1157 183.955 3.25177 188.766L2.18076 189ZM25.1581 95.7831C25.6843 107.431 22.1838 118.969 17.3411 134.936C13.282 148.324 8.24316 164.935 3.99286 187.132C25.2969 182.359 43.1729 175.904 58.9794 170.2C79.8535 162.665 97.872 156.149 115.725 156.674C133.553 155.738 151.726 161.82 172.767 168.867C188.702 174.203 206.726 180.237 228.135 184.509C223.364 162.417 217.938 145.925 213.564 132.639C208.347 116.791 204.579 105.338 204.828 93.6865C204.302 82.0386 207.802 70.5007 212.645 54.5332C216.704 41.1464 221.744 24.5346 225.995 2.33774C204.689 7.1106 186.813 13.5652 171.008 19.2697C150.134 26.8039 132.109 33.3159 114.262 32.7952C96.4385 33.7316 78.2613 27.6496 57.2198 20.6026C41.2846 15.266 23.2598 9.23189 1.84584 4.96071C6.61727 27.0525 12.0436 43.5401 16.4138 56.8311C21.6389 72.6785 25.4118 84.1303 25.1581 95.7831Z" fill="url(#paint0_diamond_680:930)"/>
<path d="M108.893 51C92.3821 51 75.5994 48.5699 57.9313 46.0145C42.7843 43.8233 27.1196 41.556 9.75781 40.4578L9.8441 38.9446C27.2584 40.0478 42.9469 42.3202 58.1226 44.5165C77.6416 47.3403 96.0763 50.0073 114.227 49.3998C132.422 49.5467 150.794 46.4346 170.247 43.1298C185.365 40.5589 201.005 37.9022 218.381 36.3636L218.5 37.8769C201.172 39.4102 185.566 42.062 170.472 44.6278C150.957 47.9479 132.527 51.0807 114.242 50.9179C112.466 50.9696 110.682 51 108.893 51Z" fill="url(#paint1_diamond_680:930)"/>
<path d="M106.269 66.682C92.7258 66.682 79.2059 66.0229 65.0415 65.33C49.9352 64.5919 34.3129 63.8292 18.1261 63.8939L18.1211 62.4086C34.3554 62.3438 49.9876 63.1066 65.1127 63.8447C82.2452 64.6813 98.432 65.4686 114.848 65.1021C131.282 65.0723 147.444 63.8887 164.552 62.6417C179.654 61.5371 195.272 60.3936 211.501 60.0608L211.53 61.5474C195.338 61.8789 179.74 63.0172 164.653 64.1218C147.516 65.3741 131.329 66.5577 114.861 66.5875C111.989 66.6522 109.126 66.682 106.269 66.682Z" fill="url(#paint2_diamond_680:930)"/>
<path d="M60.0788 80.9697C47.6493 80.9697 35.191 80.9299 22.6514 80.846L22.6601 79.6428C84.679 80.0477 144.962 79.454 206.956 77.8334L207 79.0365C157.525 80.332 109.127 80.9697 60.0788 80.9697Z" fill="url(#paint3_diamond_680:930)"/>
<path d="M24.409 95.2576L24.394 93.8526C85.3633 93.2193 146.209 92.5223 205.238 91.7727L205.258 93.1777C146.223 93.9273 85.3783 94.6243 24.409 95.2576Z" fill="url(#paint4_diamond_680:930)"/>
<path d="M23.736 107.803L23.6973 106.409C85.2436 104.917 145.087 104.237 206.652 104.326V105.72C145.101 105.628 85.2673 106.311 23.736 107.803Z" fill="url(#paint5_diamond_680:930)"/>
<path d="M21.3303 120.348L21.2578 118.926C86.3012 115.694 144.34 115.016 209.44 116.737L209.402 118.159C144.34 116.438 86.3399 117.116 21.3303 120.348Z" fill="url(#paint6_diamond_680:930)"/>
<path d="M17.8112 132.894L17.7725 131.372C34.0176 130.91 49.5226 129.572 64.5221 128.278C82.0754 126.762 98.6588 125.326 115.477 125.321C132.271 124.909 148.88 125.93 166.457 127.01C181.479 127.933 197.017 128.887 213.272 128.943L213.267 130.465C196.97 130.409 181.417 129.455 166.375 128.532C148.827 127.451 132.248 126.436 115.496 126.848C98.7162 126.853 82.1652 128.283 64.6407 129.8C49.6237 131.094 34.0988 132.438 17.8112 132.894Z" fill="url(#paint7_diamond_680:930)"/>
<path d="M14.0254 145.788L13.9395 144.354C30.7004 143.336 46.1218 141.331 61.0336 139.398C79.9203 136.946 97.7729 134.628 115.61 134.72C133.421 134.212 151.307 136.106 170.242 138.111C185.2 139.695 200.67 141.336 217.455 141.96L217.402 143.399C200.569 142.775 185.077 141.134 170.089 139.546C151.202 137.546 133.368 135.655 115.625 136.164C97.8588 136.078 80.0537 138.385 61.2143 140.832C46.2788 142.76 30.8337 144.767 14.0254 145.788Z" fill="url(#paint8_diamond_680:930)"/>
<path d="M9.90991 159.03L9.75781 157.652C27.5948 155.815 43.3574 152.882 58.5952 150.046C78.4156 146.357 97.1353 142.874 115.549 143.082C133.911 142.457 152.711 145.515 172.618 148.75C187.927 151.239 203.752 153.811 221.637 155.242L221.517 156.625C203.575 155.191 187.718 152.613 172.379 150.12C152.549 146.895 133.82 143.85 115.563 144.47C97.2686 144.276 78.6113 147.737 58.862 151.411C43.6005 154.251 27.8093 157.189 9.90991 159.03Z" fill="url(#paint9_diamond_680:930)"/>
<path d="M6.502 173.667L6.27246 172.246C25.7826 169.098 42.9786 164.439 58.156 160.331C79.2318 154.625 97.4246 149.693 115.823 150.062C134.159 149.265 152.468 153.761 173.667 158.973C188.935 162.721 206.235 166.972 225.818 169.659L225.622 171.085C205.968 168.388 188.63 164.126 173.328 160.369C152.234 155.187 134.012 150.714 115.842 151.501C97.6104 151.146 79.4988 156.045 58.5328 161.723C43.3229 165.839 26.0882 170.504 6.502 173.667Z" fill="url(#paint10_diamond_680:930)"/>
<path d="M42.0675 177.152L40.6161 177.114C41.1243 157.185 43.7112 141.898 45.9946 128.409C48.0453 116.301 49.8154 105.846 49.3514 95.5327C49.5688 85.1674 47.5522 74.7484 45.2157 62.6937C42.6137 49.2629 39.6628 34.0418 38.6816 14.1323L40.1318 14.0607C41.1092 33.8699 44.05 49.0381 46.6432 62.4215C48.9936 74.5586 51.0254 85.0426 50.8028 95.5128C51.2719 105.932 49.4917 116.454 47.4271 128.644C45.1538 142.089 42.5745 157.324 42.0675 177.152Z" fill="url(#paint11_diamond_680:930)"/>
<path d="M70.1032 166.697C69.0265 150.39 70.1308 136.749 71.1991 123.558C71.9955 113.735 72.7449 104.452 72.4141 95.2409C72.5332 85.9818 71.5756 76.7178 70.5591 66.9089C69.1973 53.7513 67.7838 40.1437 68.4924 23.8181L69.8734 23.8803C69.1696 40.096 70.5771 53.6451 71.9353 66.7514C72.9567 76.6028 73.919 85.9043 73.7987 95.2171C74.1308 104.481 73.3753 113.803 72.5789 123.673C71.5167 136.812 70.4159 150.399 71.489 166.592L70.1032 166.697Z" fill="url(#paint12_diamond_680:930)"/>
<path d="M93.8985 160.076C92.8065 146.472 93.2155 133.463 93.609 120.879C93.8894 112.007 94.1506 103.629 93.9242 95.0837C93.9435 86.523 93.4753 78.1587 92.984 69.3027C92.2856 56.7275 91.5614 43.7229 92.3293 30.0909L93.8058 30.1675C93.0431 43.7229 93.7608 56.6849 94.4605 69.2213C94.9519 78.0974 95.42 86.4805 95.3995 95.0637C95.6258 103.629 95.3609 112.026 95.0843 120.921C94.6908 133.468 94.283 146.434 95.3699 159.961L93.8985 160.076Z" fill="url(#paint13_diamond_680:930)"/>
<path d="M113.45 157.288C112.948 115.651 112.416 73.4468 111.864 31.8524L113.413 31.8333C113.967 73.433 114.499 115.636 115 157.274L113.45 157.288Z" fill="url(#paint14_diamond_680:930)"/>
<path d="M131.06 158.333C130.214 114.118 129.772 74.674 129.637 30.4441L131 30.4393C131.142 74.6653 131.578 114.098 132.425 158.305L131.06 158.333Z" fill="url(#paint15_diamond_680:930)"/>
<path d="M149.52 161.818L148.154 161.732C149.008 147.033 148.007 133.864 147.043 121.123C146.339 111.857 145.677 103.106 145.746 94.2321C145.476 85.3952 145.942 76.6344 146.435 67.3587C147.116 54.5989 147.821 41.4009 146.637 26.7253L148.003 26.6061C149.195 41.3818 148.492 54.6276 147.806 67.4397C147.313 76.6817 146.847 85.4139 147.116 94.2171C147.043 103.059 147.706 111.776 148.409 121.009C149.378 133.802 150.384 147.024 149.52 161.818Z" fill="url(#paint16_diamond_680:930)"/>
<path d="M165.772 167.045L164.462 166.998C164.99 150.216 163.426 135.922 162.045 123.312C160.939 113.238 159.9 103.717 160.03 94.2577C159.694 84.8361 160.533 75.2961 161.42 65.1937C162.531 52.5551 163.788 38.2229 162.897 21.4598L164.208 21.3788C165.104 38.2516 163.841 52.6362 162.727 65.3321C161.844 75.3871 161.009 84.8797 161.342 94.2427C161.21 103.649 162.251 113.118 163.347 123.145C164.737 135.798 166.305 150.149 165.772 167.045Z" fill="url(#paint17_diamond_680:930)"/>
<path d="M180.826 172.621C180.516 153.734 178.077 138.823 175.918 125.664C174.021 114.085 172.38 104.084 172.579 93.9301C172.147 83.8334 173.555 73.7943 175.181 62.1771C177.03 48.9705 179.128 34.0071 178.995 15.1156L180.422 15.1061C180.555 34.0979 178.453 49.1232 176.593 62.3773C174.977 73.9294 173.579 83.906 174.006 93.9163C173.811 103.979 175.442 113.922 177.33 125.43C179.494 138.637 181.948 153.605 182.258 172.596L180.826 172.621Z" fill="url(#paint18_diamond_680:930)"/>
<path d="M197.23 177.849C195.65 157.3 192.392 141.898 189.518 128.305C186.846 115.662 184.54 104.747 184.765 94.0001C184.291 83.2627 186.35 72.2906 188.731 59.5853C191.29 45.9309 194.192 30.4568 195.298 9.87891L196.705 9.95532C195.589 30.6286 192.682 46.1552 190.114 59.8525C187.652 72.9973 185.703 83.3813 186.176 93.9576V93.9813V94.005C185.951 104.59 188.135 114.922 190.897 127.999C193.78 141.635 197.047 157.089 198.636 177.735L197.23 177.849Z" fill="url(#paint19_diamond_680:930)"/>
<path d="M212.908 182.379C209.774 160.502 205.354 143.936 201.805 130.632C197.986 116.322 194.966 105.021 195.212 93.7136C194.706 82.4211 197.46 71.0472 200.949 56.651C204.19 43.261 208.227 26.5951 210.855 4.65161L212.265 4.82407C209.633 26.8586 205.582 43.5675 202.331 56.9955C198.865 71.2914 196.135 82.5789 196.636 93.676V93.6998V93.7236C196.39 104.829 199.386 116.049 203.178 130.259C206.741 143.607 211.171 160.215 214.319 182.177L212.908 182.379Z" fill="url(#paint20_diamond_680:930)"/>
<defs>
<radialGradient id="paint0_diamond_680:930" cx="0" cy="0" r="1" gradientUnits="userSpaceOnUse" gradientTransform="translate(115 68.2719) rotate(90) scale(120.728 211.587)">
<stop stop-color="white"/>
<stop offset="1" stop-color="#C3A5F2"/>
</radialGradient>
<radialGradient id="paint1_diamond_680:930" cx="0" cy="0" r="1" gradientUnits="userSpaceOnUse" gradientTransform="translate(114.129 41.6274) rotate(90) scale(9.37261 192.031)">
<stop stop-color="white"/>
<stop offset="1" stop-color="#C3A5F2"/>
</radialGradient>
<radialGradient id="paint2_diamond_680:930" cx="0" cy="0" r="1" gradientUnits="userSpaceOnUse" gradientTransform="translate(114.826 62.442) rotate(90) scale(4.23999 177.925)">
<stop stop-color="white"/>
<stop offset="1" stop-color="#C3A5F2"/>
</radialGradient>
<radialGradient id="paint3_diamond_680:930" cx="0" cy="0" r="1" gradientUnits="userSpaceOnUse" gradientTransform="translate(114.826 78.9613) rotate(90) scale(2.00842 169.59)">
<stop stop-color="white"/>
<stop offset="1" stop-color="#C3A5F2"/>
</radialGradient>
<radialGradient id="paint4_diamond_680:930" cx="0" cy="0" r="1" gradientUnits="userSpaceOnUse" gradientTransform="translate(114.826 93.026) rotate(90) scale(2.23157 166.384)">
<stop stop-color="white"/>
<stop offset="1" stop-color="#C3A5F2"/>
</radialGradient>
<radialGradient id="paint5_diamond_680:930" cx="0" cy="0" r="1" gradientUnits="userSpaceOnUse" gradientTransform="translate(115.175 105.572) rotate(90) scale(2.23157 168.308)">
<stop stop-color="white"/>
<stop offset="1" stop-color="#C3A5F2"/>
</radialGradient>
<radialGradient id="paint6_diamond_680:930" cx="0" cy="0" r="1" gradientUnits="userSpaceOnUse" gradientTransform="translate(115.349 117.447) rotate(90) scale(2.90104 173.117)">
<stop stop-color="white"/>
<stop offset="1" stop-color="#C3A5F2"/>
</radialGradient>
<radialGradient id="paint7_diamond_680:930" cx="0" cy="0" r="1" gradientUnits="userSpaceOnUse" gradientTransform="translate(115.522 127.985) rotate(90) scale(4.90946 179.849)">
<stop stop-color="white"/>
<stop offset="1" stop-color="#C3A5F2"/>
</radialGradient>
<radialGradient id="paint8_diamond_680:930" cx="0" cy="0" r="1" gradientUnits="userSpaceOnUse" gradientTransform="translate(115.697 138.647) rotate(90) scale(7.14104 187.222)">
<stop stop-color="white"/>
<stop offset="1" stop-color="#C3A5F2"/>
</radialGradient>
<radialGradient id="paint9_diamond_680:930" cx="0" cy="0" r="1" gradientUnits="userSpaceOnUse" gradientTransform="translate(115.697 148.765) rotate(90) scale(10.2652 194.916)">
<stop stop-color="white"/>
<stop offset="1" stop-color="#C3A5F2"/>
</radialGradient>
<radialGradient id="paint10_diamond_680:930" cx="0" cy="0" r="1" gradientUnits="userSpaceOnUse" gradientTransform="translate(116.045 158.492) rotate(90) scale(15.1747 201.969)">
<stop stop-color="white"/>
<stop offset="1" stop-color="#C3A5F2"/>
</radialGradient>
<radialGradient id="paint11_diamond_680:930" cx="0" cy="0" r="1" gradientUnits="userSpaceOnUse" gradientTransform="translate(44.7801 72.7139) rotate(90) scale(104.438 11.2205)">
<stop stop-color="white"/>
<stop offset="1" stop-color="#C3A5F2"/>
</radialGradient>
<radialGradient id="paint12_diamond_680:930" cx="0" cy="0" r="1" gradientUnits="userSpaceOnUse" gradientTransform="translate(71.0911 75.2024) rotate(90) scale(91.4945 5.12938)">
<stop stop-color="white"/>
<stop offset="1" stop-color="#C3A5F2"/>
</radialGradient>
<radialGradient id="paint13_diamond_680:930" cx="0" cy="0" r="1" gradientUnits="userSpaceOnUse" gradientTransform="translate(93.7424 76.8381) rotate(90) scale(83.2377 3.20586)">
<stop stop-color="white"/>
<stop offset="1" stop-color="#C3A5F2"/>
</radialGradient>
<radialGradient id="paint14_diamond_680:930" cx="0" cy="0" r="1" gradientUnits="userSpaceOnUse" gradientTransform="translate(113.432 76.9511) rotate(90) scale(80.3366 2.88528)">
<stop stop-color="white"/>
<stop offset="1" stop-color="#C3A5F2"/>
</radialGradient>
<radialGradient id="paint15_diamond_680:930" cx="0" cy="0" r="1" gradientUnits="userSpaceOnUse" gradientTransform="translate(131.031 76.4345) rotate(90) scale(81.8987 2.56469)">
<stop stop-color="white"/>
<stop offset="1" stop-color="#C3A5F2"/>
</radialGradient>
<radialGradient id="paint16_diamond_680:930" cx="0" cy="0" r="1" gradientUnits="userSpaceOnUse" gradientTransform="translate(147.757 75.2331) rotate(90) scale(86.585 3.84703)">
<stop stop-color="white"/>
<stop offset="1" stop-color="#C3A5F2"/>
</radialGradient>
<radialGradient id="paint17_diamond_680:930" cx="0" cy="0" r="1" gradientUnits="userSpaceOnUse" gradientTransform="translate(162.917 73.7657) rotate(90) scale(93.2798 5.44997)">
<stop stop-color="white"/>
<stop offset="1" stop-color="#C3A5F2"/>
</radialGradient>
<radialGradient id="paint18_diamond_680:930" cx="0" cy="0" r="1" gradientUnits="userSpaceOnUse" gradientTransform="translate(177.379 71.7541) rotate(90) scale(100.867 8.97641)">
<stop stop-color="white"/>
<stop offset="1" stop-color="#C3A5F2"/>
</radialGradient>
<radialGradient id="paint19_diamond_680:930" cx="0" cy="0" r="1" gradientUnits="userSpaceOnUse" gradientTransform="translate(191.666 70.2868) rotate(90) scale(107.562 12.8235)">
<stop stop-color="white"/>
<stop offset="1" stop-color="#C3A5F2"/>
</radialGradient>
<radialGradient id="paint20_diamond_680:930" cx="0" cy="0" r="1" gradientUnits="userSpaceOnUse" gradientTransform="translate(204.735 68.5686) rotate(90) scale(113.81 17.6322)">
<stop stop-color="white"/>
<stop offset="1" stop-color="#C3A5F2"/>
</radialGradient>
</defs>
</svg>
