<svg width="207" height="161" viewBox="0 0 207 161" fill="none" xmlns="http://www.w3.org/2000/svg">
<path d="M48.6932 157.947C27.7532 157.947 12.3165 151.318 4.82913 138.967C-3.46211 125.287 -1.01839 106.224 11.7097 85.281C24.4467 64.3176 45.9601 43.9906 72.288 28.0462C98.6159 12.1009 126.594 2.44189 151.075 0.855773C175.536 -0.725476 193.573 5.92755 201.864 19.6059C210.155 33.2842 207.712 52.3475 194.983 73.2917C182.246 94.2538 160.732 114.576 134.405 130.527C108.082 146.471 80.0993 156.13 55.6185 157.716C53.2478 157.869 50.9359 157.947 48.6932 157.947ZM158.009 2.09427C155.791 2.09427 153.509 2.16776 151.168 2.31948C126.916 3.891 99.169 13.4717 73.0471 29.2997C46.9202 45.1263 25.5835 65.2766 12.9629 86.039C0.534383 106.494 -1.90934 125.018 6.08235 138.202C14.074 151.386 31.6307 157.794 55.52 156.248C79.7715 154.677 107.514 145.096 133.641 129.268C159.768 113.44 181.105 93.2897 193.725 72.5273C206.154 52.0735 208.597 33.5492 200.606 20.3647C193.401 8.4733 178.406 2.09427 158.009 2.09427Z" fill="url(#paint0_angular_709:818)"/>
<path d="M50.6287 159.173C50.4386 159.173 50.2522 159.173 50.0672 159.173C27.1445 159.061 11.3072 152.104 5.47251 139.588C-0.360895 127.07 4.49623 110.479 19.1531 92.8749C33.824 75.2499 56.5604 58.7234 83.1635 46.3368C109.767 33.9515 137.049 27.1861 160 27.3085C182.922 27.4195 198.76 34.3764 204.594 46.8931C210.428 59.4111 205.571 76.0014 190.914 93.6059C176.238 111.231 153.506 127.757 126.903 140.144C100.514 152.422 73.4582 159.173 50.6287 159.173ZM159.433 28.7668C136.814 28.7668 109.976 35.4684 83.7838 47.6598C57.3707 59.9571 34.8194 76.3433 20.28 93.8062C6.00467 110.953 1.22029 126.992 6.801 138.963C12.3856 150.938 27.7558 157.593 50.0761 157.7C50.2625 157.7 50.4475 157.7 50.6338 157.7C73.2528 157.7 100.091 150.997 126.288 138.802C152.701 126.51 175.252 110.118 189.791 92.6554C204.067 75.5089 208.857 59.4697 203.271 47.4978C197.685 35.522 182.316 28.8688 159.994 28.7617C159.804 28.7668 159.619 28.7668 159.433 28.7668Z" fill="url(#paint1_angular_709:818)"/>
<path d="M28.1387 159.48C20.651 159.48 14.626 159.244 10.1821 158.774C7.52341 158.495 5.46531 158.128 4.0652 157.691C3.3626 157.471 2.81557 157.226 2.4496 156.971C2.18182 156.78 2.00586 156.589 1.92297 156.384L1.84008 156.178L1.88472 155.962C1.92807 155.746 2.05942 155.525 2.28894 155.286C2.60135 154.963 3.08463 154.619 3.73367 154.267C5.01647 153.566 6.96744 152.806 9.5241 152.013C14.5826 150.444 21.8752 148.769 31.2028 147.029C50.3937 143.447 76.0394 139.997 103.41 137.312C130.788 134.627 156.608 133.034 176.127 132.824C185.614 132.721 193.098 132.951 198.356 133.505C201.02 133.784 203.078 134.152 204.473 134.588C205.181 134.808 205.723 135.053 206.089 135.308C206.362 135.499 206.538 135.695 206.621 135.906L206.693 136.097L206.659 136.299C206.621 136.519 206.488 136.748 206.249 136.993C205.937 137.317 205.454 137.66 204.806 138.013C203.522 138.714 201.571 139.473 199.016 140.267C193.956 141.835 186.663 143.511 177.336 145.255C158.145 148.837 132.5 152.287 105.128 154.972C77.7609 157.658 51.9405 159.249 32.4129 159.461C30.9389 159.47 29.5145 159.48 28.1387 159.48ZM3.71326 155.992C3.90453 156.079 4.16213 156.178 4.50387 156.285C5.81089 156.697 7.77206 157.04 10.3389 157.309C15.5441 157.858 22.9628 158.083 32.3976 157.986C51.8818 157.774 77.6627 156.183 104.986 153.502C132.319 150.822 157.915 147.377 177.068 143.804C186.341 142.074 193.576 140.41 198.581 138.86C201.049 138.097 202.907 137.376 204.108 136.719C204.425 136.547 204.659 136.401 204.83 136.278C204.639 136.19 204.381 136.092 204.04 135.985C202.736 135.573 200.771 135.23 198.205 134.961C192.999 134.411 185.581 134.181 176.146 134.284C156.672 134.494 130.89 136.087 103.557 138.768C76.2243 141.448 50.6233 144.892 31.4757 148.465C22.2029 150.194 14.9677 151.86 9.96274 153.41C7.49407 154.173 5.63618 154.894 4.43627 155.55C4.11366 155.721 3.88413 155.869 3.71326 155.992Z" fill="url(#paint2_angular_709:818)"/>
<path d="M34.6224 159.173C25.2569 159.173 17.7695 158.548 12.3593 157.317C9.57322 156.682 7.3839 155.887 5.83721 154.951C4.2663 154 3.35459 152.895 3.12507 151.669C2.89556 150.443 3.34439 149.085 4.46647 147.636C5.56943 146.211 7.33033 144.683 9.69563 143.098C14.379 139.956 21.3003 136.636 30.2718 133.217C48.7301 126.193 73.7882 119.566 100.823 114.563C127.862 109.56 153.638 106.777 173.398 106.734C183.004 106.715 190.667 107.335 196.174 108.59C198.96 109.225 201.155 110.02 202.696 110.956C204.267 111.907 205.18 113.012 205.408 114.238C205.638 115.464 205.189 116.822 204.067 118.272C202.965 119.697 201.209 121.224 198.838 122.809C194.156 125.951 187.233 129.272 178.263 132.69C159.803 139.714 134.75 146.341 107.711 151.344C80.6711 156.347 54.8964 159.129 35.135 159.173C34.9641 159.173 34.7933 159.173 34.6224 159.173ZM173.921 108.183C173.75 108.183 173.579 108.183 173.404 108.183C153.726 108.231 128.042 111.005 101.092 115.988C74.1401 120.977 49.1738 127.575 30.7984 134.57C21.9301 137.944 15.1059 141.216 10.5155 144.295C8.28156 145.793 6.6367 147.213 5.6281 148.518C4.77378 149.622 4.41293 150.592 4.56467 151.397C4.71513 152.203 5.39858 152.977 6.59844 153.705C8.00742 154.558 10.0565 155.295 12.6857 155.896C18.0806 157.127 25.647 157.748 35.1299 157.714C54.8084 157.666 80.4913 154.893 107.443 149.909C134.393 144.921 159.36 138.323 177.735 131.327C186.605 127.953 193.429 124.681 198.014 121.602C200.253 120.104 201.897 118.684 202.902 117.38C203.76 116.275 204.117 115.305 203.965 114.5C203.813 113.696 203.131 112.92 201.931 112.192C200.521 111.339 198.472 110.602 195.843 110.001C190.55 108.794 183.175 108.183 173.921 108.183Z" fill="url(#paint3_angular_709:818)"/>
<path d="M41.8776 159.48C40.8745 159.48 39.8855 159.471 38.9118 159.451C28.9389 159.262 20.846 158.112 14.8508 156.03C8.66716 153.88 5.01019 150.833 3.9779 146.974C2.9456 143.111 4.60032 138.656 8.90135 133.73C13.0636 128.955 19.5158 123.947 28.0771 118.846C45.6898 108.348 70.2422 98.6332 97.2105 91.4836C124.177 84.3353 150.322 80.6127 170.847 81.0011C180.82 81.1902 188.914 82.3414 194.908 84.4229C201.093 86.573 204.755 89.6204 205.782 93.4789C206.815 97.3411 205.159 101.797 200.859 106.723C196.69 111.498 190.243 116.507 181.683 121.608C164.069 132.104 139.517 141.82 112.55 148.968C86.8671 155.778 61.9202 159.48 41.8776 159.48ZM167.873 82.4277C147.956 82.4277 123.15 86.1123 97.5847 92.8862C70.7437 100.001 46.3288 109.664 28.8268 120.093C20.3979 125.116 14.0679 130.023 10.0062 134.681C6.04759 139.219 4.49342 143.228 5.39461 146.595C6.29071 149.963 9.6358 152.672 15.3383 154.652C21.1871 156.68 29.1285 157.806 38.9462 157.995C59.3299 158.378 85.3384 154.676 112.179 147.561C139.02 140.447 163.437 130.784 180.937 120.355C189.362 115.336 195.697 110.426 199.758 105.766C203.718 101.229 205.271 97.2206 204.369 93.852C203.473 90.4848 200.128 87.7762 194.426 85.7962C188.578 83.768 180.636 82.6422 170.819 82.4531C169.849 82.4378 168.865 82.4277 167.873 82.4277Z" fill="url(#paint4_angular_709:818)"/>
<path d="M43.4212 159.787C42.7327 159.787 42.0533 159.782 41.3738 159.772C30.791 159.606 22.0013 158.132 15.2385 155.402C8.2561 152.577 3.76038 148.525 1.88928 143.355C0.0130836 138.185 0.863692 132.2 4.41557 125.572C7.85506 119.154 13.665 112.404 21.6884 105.513C38.1936 91.33 62.1934 78.1266 89.2635 68.338C116.338 58.5493 143.235 53.345 165.013 53.6971C175.591 53.8629 184.387 55.3298 191.148 58.0659C198.13 60.89 202.621 64.9437 204.497 70.1136C206.373 75.2834 205.523 81.2671 201.971 87.8962C198.532 94.3148 192.722 101.064 184.698 107.956C168.193 122.139 144.193 135.342 117.124 145.131C90.8945 154.607 64.8231 159.787 43.4212 159.787ZM162.965 55.1448C141.731 55.1448 115.838 60.2904 89.7668 69.7181C62.8588 79.4481 39.0187 92.5533 22.6463 106.624C14.7647 113.398 9.06713 120.007 5.71066 126.265C2.36313 132.518 1.53805 138.097 3.26737 142.863C4.9967 147.623 9.2089 151.389 15.7903 154.051C22.3819 156.714 30.9966 158.148 41.3981 158.314C63.0006 158.661 89.717 153.486 116.625 143.756C143.533 134.024 167.368 120.919 183.745 106.848C191.627 100.074 197.325 93.4653 200.681 87.2087C204.029 80.9558 204.854 75.3752 203.124 70.611C201.395 65.8455 197.183 62.0852 190.601 59.4218C184.01 56.7597 175.391 55.326 164.994 55.1601C164.323 55.1499 163.645 55.1448 162.965 55.1448Z" fill="url(#paint5_angular_709:818)"/>
<path d="M206.988 157.64L1.84008 159.274L1.85157 160.707L207 159.074L206.988 157.64Z" fill="url(#paint6_angular_709:818)"/>
<defs>
<radialGradient id="paint0_angular_709:818" cx="0" cy="0" r="1" gradientUnits="userSpaceOnUse" gradientTransform="translate(65.4961 150.458) rotate(101.149) scale(6.7166 19.0243)">
<stop offset="0.0036537" stop-color="#C3A5F2"/>
<stop offset="0.498653" stop-color="#1E1E1E"/>
</radialGradient>
<radialGradient id="paint1_angular_709:818" cx="0" cy="0" r="1" gradientUnits="userSpaceOnUse" gradientTransform="translate(65.4961 150.458) rotate(101.149) scale(6.7166 19.0243)">
<stop offset="0.0036537" stop-color="#C3A5F2"/>
<stop offset="0.498653" stop-color="#1E1E1E"/>
</radialGradient>
<radialGradient id="paint2_angular_709:818" cx="0" cy="0" r="1" gradientUnits="userSpaceOnUse" gradientTransform="translate(65.4961 150.458) rotate(101.149) scale(6.7166 19.0243)">
<stop offset="0.0036537" stop-color="#C3A5F2"/>
<stop offset="0.498653" stop-color="#1E1E1E"/>
</radialGradient>
<radialGradient id="paint3_angular_709:818" cx="0" cy="0" r="1" gradientUnits="userSpaceOnUse" gradientTransform="translate(65.4961 150.458) rotate(101.149) scale(6.7166 19.0243)">
<stop offset="0.0036537" stop-color="#C3A5F2"/>
<stop offset="0.498653" stop-color="#1E1E1E"/>
</radialGradient>
<radialGradient id="paint4_angular_709:818" cx="0" cy="0" r="1" gradientUnits="userSpaceOnUse" gradientTransform="translate(65.4961 150.458) rotate(101.149) scale(6.7166 19.0243)">
<stop offset="0.0036537" stop-color="#C3A5F2"/>
<stop offset="0.498653" stop-color="#1E1E1E"/>
</radialGradient>
<radialGradient id="paint5_angular_709:818" cx="0" cy="0" r="1" gradientUnits="userSpaceOnUse" gradientTransform="translate(65.4961 150.458) rotate(101.149) scale(6.7166 19.0243)">
<stop offset="0.0036537" stop-color="#C3A5F2"/>
<stop offset="0.498653" stop-color="#1E1E1E"/>
</radialGradient>
<radialGradient id="paint6_angular_709:818" cx="0" cy="0" r="1" gradientUnits="userSpaceOnUse" gradientTransform="translate(65.4961 150.458) rotate(101.149) scale(6.7166 19.0243)">
<stop offset="0.0036537" stop-color="#C3A5F2"/>
<stop offset="0.498653" stop-color="#1E1E1E"/>
</radialGradient>
</defs>
</svg>
