<svg width="260" height="119" viewBox="0 0 260 119" fill="none" xmlns="http://www.w3.org/2000/svg">
<path d="M206.095 118.709C193.752 118.709 162.407 106.695 128.923 60.6817L128.639 60.2945L128.895 59.8888C141.773 39.5045 174.581 0.960815 206.551 0.960815C228.963 0.960815 241.742 12.9047 248.517 22.9199C256.981 35.4398 260 50.4212 260 60.2661C260 65.1189 259.214 82.1179 249.079 97.1795C239.604 111.264 224.898 118.709 206.551 118.709C206.403 118.709 206.253 118.709 206.095 118.709ZM130.357 60.2378C163.391 105.464 194.031 117.295 206.09 117.295C206.243 117.295 206.39 117.295 206.536 117.29C247.713 117.29 258.585 79.9918 258.585 60.2661C258.585 50.6284 255.633 35.9676 247.343 23.7129C240.762 13.9801 228.343 2.37535 206.554 2.37535C175.413 2.37041 143.264 39.9805 130.357 60.2378Z" fill="url(#paint0_diamond_680:850)"/>
<path d="M53.7508 118.709C53.5954 118.709 53.4436 118.709 53.2931 118.704C11.1419 118.704 0 80.4765 0 60.2661C0 50.4212 3.01082 35.4398 11.4528 22.9199C18.2113 12.8998 30.9575 0.960815 53.3116 0.960815C85.1986 0.960815 117.921 39.5094 130.767 59.8888L131.021 60.2945L130.738 60.6817C97.3452 106.69 66.0812 118.709 53.7508 118.709ZM53.3116 2.37041C31.5804 2.37041 19.192 13.9752 12.6283 23.7079C4.36044 35.9627 1.41573 50.6284 1.41573 60.2612C1.41573 65.0104 2.18497 81.6555 12.0671 96.3865C21.3729 110.254 35.2514 117.29 53.3116 117.29C65.0389 117.592 95.9489 106.029 129.312 60.2378C116.434 39.9806 84.3684 2.37041 53.3116 2.37041Z" fill="url(#paint1_diamond_680:850)"/>
<path d="M194.23 118.709C183.764 118.709 157.188 106.681 128.851 60.6373L128.639 60.292L128.828 59.9344C139.729 39.5362 167.507 0.960815 194.613 0.960815C209.678 0.960815 221.988 8.57083 230.221 22.9671C237.375 35.4716 239.921 50.4327 239.921 60.2636C239.921 80.4781 230.449 118.701 194.613 118.701C194.491 118.709 194.362 118.709 194.23 118.709ZM130.271 60.2402C158.541 106.026 184.697 117.579 194.594 117.286C229.332 117.286 238.506 79.9885 238.506 60.2636C238.506 50.6164 236.008 35.9341 228.991 23.6651C223.437 13.9512 212.961 2.37528 194.618 2.37528C168.34 2.37528 141.167 40.0171 130.271 60.2402Z" fill="url(#paint2_diamond_680:850)"/>
<path d="M65.0748 118.709C64.9424 118.709 64.8151 118.709 64.6864 118.704C28.8653 118.704 19.3979 80.4765 19.3979 60.2661C19.3979 50.4347 21.9481 35.4731 29.0978 22.968C37.3308 8.57115 49.6463 0.960815 64.7062 0.960815C91.817 0.960815 119.594 39.5378 130.491 59.9369L130.681 60.2945L130.468 60.6386C102.14 106.68 75.5698 118.709 65.0748 118.709ZM64.7112 2.37041C46.3628 2.37041 35.8925 13.9518 30.337 23.6611C23.3209 35.9306 20.8227 50.6099 20.8227 60.2612C20.8227 79.9869 29.9969 117.286 64.7149 117.286C74.646 117.579 100.787 106.026 129.058 60.2378C118.161 40.0138 90.9884 2.37041 64.7112 2.37041Z" fill="url(#paint3_diamond_680:850)"/>
<path d="M182.359 118.709C173.768 118.709 151.97 106.675 128.786 60.5831L128.639 60.2859L128.772 59.9837C137.689 39.5711 160.433 0.960815 182.681 0.960815C195.064 0.960815 205.179 8.58963 211.924 23.0198C217.762 35.51 219.843 50.4532 219.843 60.2661C219.843 80.4814 212.075 118.704 182.681 118.704C182.577 118.709 182.468 118.709 182.359 118.709ZM130.205 60.2427C153.015 105.464 174.081 117.295 182.349 117.295C182.453 117.295 182.552 117.295 182.652 117.29C210.95 117.29 218.42 79.9869 218.42 60.2661C218.42 37.8828 208.717 2.37535 182.676 2.37535C173.314 2.37535 162.533 9.87714 151.507 24.0754C140.068 38.8065 132.462 55.1173 130.205 60.2427Z" fill="url(#paint4_diamond_680:850)"/>
<path d="M77.0905 118.709C76.987 118.709 76.8971 118.709 76.8134 118.704C47.5557 118.704 39.8169 80.4765 39.8169 60.2661C39.8169 50.4495 41.8902 35.51 47.706 23.0198C54.4272 8.58963 64.498 0.960815 76.8417 0.960815C99.006 0.960815 121.664 39.5711 130.549 59.9837L130.681 60.2859L130.534 60.5831C120.171 81.2694 109.228 96.9994 98.007 107.34C86.7375 117.719 79.4385 118.709 77.0905 118.709ZM76.8417 2.37041C50.9015 2.37041 41.2311 37.8828 41.2311 60.2612C41.2311 79.9869 48.673 117.286 76.8417 117.286C84.886 117.579 106.113 106.026 129.116 60.2378C126.868 55.1124 119.289 38.8016 107.889 24.0656C96.9032 9.87715 86.1684 2.37041 76.8417 2.37041Z" fill="url(#paint5_diamond_680:850)"/>
<path d="M170.186 118.709C164.074 118.709 156.314 109.982 154.054 107.27C145.436 96.93 137.031 81.1995 129.069 60.5189L128.979 60.2834L129.059 60.0429C130.659 55.252 136.587 38.4473 145.596 23.2828C154.398 8.47217 162.771 0.960815 170.483 0.960815C180.059 0.960815 187.86 8.60906 193.033 23.0793C197.493 35.5518 199.083 50.466 199.083 60.2686C199.083 80.483 193.104 118.704 170.483 118.704C170.388 118.709 170.284 118.709 170.186 118.709ZM130.485 60.2501C138.253 80.3844 146.777 96.3258 155.145 106.365C162.03 114.626 167.552 117.422 170.455 117.29C179.865 117.29 187.105 110.311 192.004 96.5428C197.267 81.7557 197.677 65.0361 197.677 60.2636C197.677 37.8813 190.296 2.37528 170.493 2.37528C163.418 2.37528 155.234 9.85335 146.824 24.0042C138.021 38.8 132.184 55.1952 130.485 60.2501Z" fill="url(#paint6_diamond_680:850)"/>
<path d="M89.6463 118.709C89.548 118.709 89.4437 118.709 89.3455 118.704C66.8633 118.704 60.9165 80.4781 60.9165 60.2686C60.9165 50.4709 62.5002 35.5567 66.9382 23.0793C72.0907 8.60906 79.8495 0.960815 89.3786 0.960815C97.0527 0.960815 105.385 8.47217 114.143 23.2828C123.114 38.4473 129.009 55.252 130.601 60.0429L130.681 60.2834L130.591 60.5189C122.673 81.1995 114.308 96.93 105.727 107.27C103.482 109.982 95.7612 118.709 89.6463 118.709ZM89.3835 2.37528C69.6759 2.37528 62.3308 37.8862 62.3308 60.2636C62.3308 79.9885 67.9854 117.286 89.3835 117.286C92.2857 117.427 97.7942 114.626 104.652 106.365C112.979 96.3258 121.461 80.3844 129.192 60.2501C127.501 55.1952 121.691 38.8049 112.941 24.0042C104.567 9.85335 96.4229 2.37528 89.3835 2.37528Z" fill="url(#paint7_diamond_680:850)"/>
<path d="M158.596 118.709C153.447 118.709 141.661 106.516 129.026 60.4523L128.979 60.2784L129.022 60.1045C130.16 55.3185 134.379 38.5225 140.798 23.3679C147.095 8.50053 153.139 0.960815 158.757 0.960815C165.712 0.960815 171.345 8.63247 175.041 23.1409C178.215 35.5888 179.345 50.4795 179.345 60.2636C179.345 65.0829 179.05 81.9776 175.255 96.9535C171.596 111.368 166.054 118.686 158.78 118.704C158.718 118.704 158.658 118.709 158.596 118.709ZM130.444 60.255C143.483 107.714 155.269 117.517 158.705 117.29H158.752C163.255 117.29 169.537 113.703 173.869 96.6094C177.627 81.7939 177.916 65.046 177.916 60.2686C177.916 50.5695 176.796 35.8206 173.656 23.4949C171.203 13.8612 166.619 2.38022 158.747 2.38022C148.129 2.37528 136.024 36.9194 130.444 60.255Z" fill="url(#paint8_diamond_680:850)"/>
<path d="M101.268 118.709C101.207 118.709 101.145 118.709 101.084 118.704C93.8599 118.691 88.3498 111.373 84.7219 96.9535C80.9512 81.9826 80.6543 65.0879 80.6543 60.2636C80.6543 50.4795 81.7765 35.5888 84.9289 23.1409C88.6048 8.62754 94.1987 0.960815 101.103 0.960815C106.682 0.960815 112.687 8.50053 118.941 23.3679C125.317 38.5225 129.506 55.3185 130.637 60.1045L130.68 60.2784L130.632 60.4523C118.087 106.512 106.381 118.709 101.268 118.709ZM101.108 2.37528C93.2896 2.37528 88.7415 13.8563 86.2999 23.4899C83.1808 35.8157 82.0685 50.5695 82.0685 60.2636C82.0685 65.046 82.3604 81.789 86.0881 96.6045C90.3959 113.698 96.6304 117.286 101.103 117.286H101.15C104.571 117.502 116.269 107.709 129.219 60.2501C123.686 36.9194 111.664 2.37528 101.108 2.37528Z" fill="url(#paint9_diamond_680:850)"/>
<path d="M146.929 118.709C144.288 118.709 141.493 112.41 139.595 107.052C135.941 96.7297 132.374 81.0274 128.997 60.3771L128.979 60.2735L128.992 60.1699C129.675 55.3885 132.186 38.6095 136.009 23.4733C141.694 0.960813 145.709 0.960815 147.03 0.960815C159.462 0.960815 159.607 59.6742 159.607 60.2686C159.607 65.0834 159.429 81.9462 157.172 96.8912C154.959 111.533 151.655 118.672 147.068 118.709C147.02 118.709 146.973 118.709 146.929 118.709ZM130.433 60.255C133.747 80.4847 137.382 96.504 140.955 106.586C144.729 117.243 146.929 117.281 146.944 117.295L147.025 117.29C150.637 117.29 153.728 109.972 155.741 96.6779C157.989 81.829 158.161 65.0501 158.161 60.2637C158.161 50.5503 157.494 35.7668 155.616 23.4166C152.831 5.10592 149.041 2.37048 147.025 2.37048C145.763 2.37048 142.291 4.45968 137.406 23.8076C133.627 38.7699 131.135 55.3552 130.433 60.255Z" fill="url(#paint10_diamond_680:850)"/>
<path d="M112.932 118.709C112.883 118.709 112.841 118.709 112.794 118.704C108.258 118.667 104.99 111.528 102.8 96.8872C100.564 81.944 100.393 65.0807 100.393 60.2661C100.393 59.6729 100.535 0.960815 112.831 0.960815C114.137 0.960815 118.104 0.960813 123.727 23.4724C127.508 38.6079 129.996 55.3862 130.667 60.1675L130.681 60.2711L130.662 60.3746C127.322 81.024 123.794 96.7256 120.18 107.048C118.303 112.41 115.544 118.709 112.932 118.709ZM112.831 2.37041C110.841 2.37041 107.089 5.10573 104.334 23.4157C102.477 35.7653 101.818 50.5482 101.818 60.2612C101.818 65.0523 101.988 81.8306 104.211 96.6738C106.202 109.967 109.259 117.286 112.831 117.286L112.912 117.29C112.927 117.281 115.102 117.238 118.835 106.582C122.369 96.5 125.964 80.4814 129.242 60.2526C128.553 55.3529 126.083 38.7683 122.345 23.8066C117.511 4.45951 114.08 2.37041 112.831 2.37041Z" fill="url(#paint11_diamond_680:850)"/>
<path d="M134.666 118.709C134.511 118.709 134.354 118.667 134.213 118.582C133.794 118.332 133.094 117.918 131.923 106.016C130.91 95.6984 129.917 80.3161 128.979 60.2945V60.2661V60.2378C129.175 55.4614 129.891 38.693 130.986 23.5945C132.625 0.960811 133.678 0.960815 134.697 0.960815C135.787 0.960815 137.143 0.960811 138.116 23.2886C138.655 35.6852 138.848 50.5198 138.848 60.2661C138.848 65.0721 138.796 81.9058 138.152 96.8107C137.224 118.187 135.821 118.691 134.773 118.704C134.738 118.709 134.702 118.709 134.666 118.709ZM130.492 60.2612C132.443 101.923 134.147 113.353 134.843 116.428C136.29 111.368 137.334 88.4555 137.334 60.2661C137.334 35.6753 136.356 8.24063 134.757 3.04993C133.28 8.34053 131.5 35.4681 130.492 60.2612Z" fill="url(#paint12_diamond_680:850)"/>
<path d="M125.188 118.709C125.155 118.709 125.12 118.709 125.086 118.704C124.073 118.691 122.715 118.187 121.824 96.8107C121.2 81.9058 121.152 65.0721 121.152 60.2661C121.152 50.5198 121.336 35.6852 121.858 23.2886C122.797 0.960811 124.107 0.960815 125.158 0.960815C126.142 0.960815 127.16 0.960811 128.742 23.5945C129.799 38.7165 130.49 55.4663 130.681 60.2378V60.2661V60.2945C129.774 80.3161 128.82 95.6984 127.836 106.016C126.707 117.918 126.03 118.332 125.627 118.582C125.491 118.667 125.339 118.709 125.188 118.709ZM125.1 3.045C123.552 8.23694 122.613 35.6704 122.613 60.2612C122.613 88.4555 123.62 111.363 125.017 116.423C125.689 113.353 127.335 101.918 129.22 60.2612C128.246 35.4681 126.527 8.34546 125.1 3.045Z" fill="url(#paint13_diamond_680:850)"/>
<defs>
<radialGradient id="paint0_diamond_680:850" cx="0" cy="0" r="1" gradientUnits="userSpaceOnUse" gradientTransform="translate(194.319 43.3074) rotate(90) scale(75.402 120.845)">
<stop stop-color="white"/>
<stop offset="1" stop-color="#C3A5F2"/>
</radialGradient>
<radialGradient id="paint1_diamond_680:850" cx="0" cy="0" r="1" gradientUnits="userSpaceOnUse" gradientTransform="translate(65.5104 43.3074) rotate(90) scale(75.402 120.532)">
<stop stop-color="white"/>
<stop offset="1" stop-color="#C3A5F2"/>
</radialGradient>
<radialGradient id="paint2_diamond_680:850" cx="0" cy="0" r="1" gradientUnits="userSpaceOnUse" gradientTransform="translate(184.28 43.3074) rotate(90) scale(75.402 102.374)">
<stop stop-color="white"/>
<stop offset="1" stop-color="#C3A5F2"/>
</radialGradient>
<radialGradient id="paint3_diamond_680:850" cx="0" cy="0" r="1" gradientUnits="userSpaceOnUse" gradientTransform="translate(75.0393 43.3074) rotate(90) scale(75.402 102.374)">
<stop stop-color="white"/>
<stop offset="1" stop-color="#C3A5F2"/>
</radialGradient>
<radialGradient id="paint4_diamond_680:850" cx="0" cy="0" r="1" gradientUnits="userSpaceOnUse" gradientTransform="translate(174.241 43.3074) rotate(90) scale(75.402 83.9026)">
<stop stop-color="white"/>
<stop offset="1" stop-color="#C3A5F2"/>
</radialGradient>
<radialGradient id="paint5_diamond_680:850" cx="0" cy="0" r="1" gradientUnits="userSpaceOnUse" gradientTransform="translate(85.2488 43.3074) rotate(90) scale(75.402 83.5895)">
<stop stop-color="white"/>
<stop offset="1" stop-color="#C3A5F2"/>
</radialGradient>
<radialGradient id="paint6_diamond_680:850" cx="0" cy="0" r="1" gradientUnits="userSpaceOnUse" gradientTransform="translate(164.031 43.3074) rotate(90) scale(75.402 64.4923)">
<stop stop-color="white"/>
<stop offset="1" stop-color="#C3A5F2"/>
</radialGradient>
<radialGradient id="paint7_diamond_680:850" cx="0" cy="0" r="1" gradientUnits="userSpaceOnUse" gradientTransform="translate(95.7987 43.3074) rotate(90) scale(75.402 64.1792)">
<stop stop-color="white"/>
<stop offset="1" stop-color="#C3A5F2"/>
</radialGradient>
<radialGradient id="paint8_diamond_680:850" cx="0" cy="0" r="1" gradientUnits="userSpaceOnUse" gradientTransform="translate(154.162 43.3074) rotate(90) scale(75.402 46.3343)">
<stop stop-color="white"/>
<stop offset="1" stop-color="#C3A5F2"/>
</radialGradient>
<radialGradient id="paint9_diamond_680:850" cx="0" cy="0" r="1" gradientUnits="userSpaceOnUse" gradientTransform="translate(105.667 43.3074) rotate(90) scale(75.402 46.0212)">
<stop stop-color="white"/>
<stop offset="1" stop-color="#C3A5F2"/>
</radialGradient>
<radialGradient id="paint10_diamond_680:850" cx="0" cy="0" r="1" gradientUnits="userSpaceOnUse" gradientTransform="translate(144.293 43.3074) rotate(90) scale(75.402 28.1762)">
<stop stop-color="white"/>
<stop offset="1" stop-color="#C3A5F2"/>
</radialGradient>
<radialGradient id="paint11_diamond_680:850" cx="0" cy="0" r="1" gradientUnits="userSpaceOnUse" gradientTransform="translate(115.537 43.3074) rotate(90) scale(75.402 27.8632)">
<stop stop-color="white"/>
<stop offset="1" stop-color="#C3A5F2"/>
</radialGradient>
<radialGradient id="paint12_diamond_680:850" cx="0" cy="0" r="1" gradientUnits="userSpaceOnUse" gradientTransform="translate(133.913 43.3074) rotate(90) scale(75.402 9.07901)">
<stop stop-color="white"/>
<stop offset="1" stop-color="#C3A5F2"/>
</radialGradient>
<radialGradient id="paint13_diamond_680:850" cx="0" cy="0" r="1" gradientUnits="userSpaceOnUse" gradientTransform="translate(125.916 43.3074) rotate(90) scale(75.402 8.76594)">
<stop stop-color="white"/>
<stop offset="1" stop-color="#C3A5F2"/>
</radialGradient>
</defs>
</svg>
