<svg width="996" height="817" viewBox="0 0 996 817" fill="none" xmlns="http://www.w3.org/2000/svg">
<path d="M426.6 657.51C313.08 784.73 177.53 843.76 88.66 792.51C33.2099 760.51 3.94996 690.63 6.29996 595.66C8.67996 500.14 42.7 390.88 102.16 288.03C161.62 185.18 239.32 101.09 320.97 51.2901C370.69 20.9601 418.25 5.5701 460.3 5.5701C486.9 5.5701 511.3 11.7201 532.82 24.0901C598.38 61.8901 624.6 151.69 612.36 261.15H617.62C619.113 247.57 620.03 234.21 620.37 221.07C622.76 124.07 592.58 52.5901 535.37 19.6001C478.16 -13.3899 401.12 -3.67986 318.25 46.8701C235.88 97.1101 157.54 181.87 97.66 285.44C37.7799 389.01 3.50998 499.17 1.12998 595.57C-1.26002 692.57 28.92 764.06 86.13 797.04C108.4 809.89 133.72 816.26 161.22 816.26C204.28 816.26 252.72 800.62 303.22 769.79C348.74 742.03 393.01 703.72 433.63 657.54L426.6 657.51Z" fill="#1C1C1C"/>
<path d="M302.33 489.51H354.09V474.75H296.01C286.01 474.75 279.52 469.38 279.52 459.61C279.52 450.79 286.04 444.84 296.01 444.84H354.09V430.08H302.33C284.69 430.08 272.23 441.78 272.23 459.61C272.25 478.39 285.08 489.51 302.33 489.51ZM289.1 351.51C289.1 341.93 296.39 336.17 305.59 336.17H352.94V321.77H313.25C294.65 321.77 289.09 335.19 289.09 335.19V321.77H274.53V381H289.1V351.51ZM447.46 430.11H409.88C391.28 430.11 385.53 443.53 385.53 443.53V430.11H370.96V489.54H385.53V460.02C385.53 450.43 393.01 444.87 402.4 444.87H447.46V430.11ZM699.95 537.66H662.37C643.78 537.66 638.03 551.08 638.03 551.08V537.66H623.46V597.09H638.03V567.57C638.03 557.98 645.5 552.42 654.9 552.42H699.9L699.95 537.66ZM487.95 355.15H540.25C545.25 355.15 547.73 357.26 547.73 360.71C547.73 364.16 545.24 366.46 540.06 366.46H473.14V381.03H532.57C547.91 381.03 555.2 373.75 555.2 362.63C555.2 353.43 549.44 347.63 538.71 347.63H485.99C481.58 347.63 478.7 345.71 478.7 342.07C478.7 338.43 481.58 336.32 486.18 336.32H553.25V321.77H492.89C476.79 321.77 471.23 330.2 471.23 339.77C471.25 349.18 476.98 355.12 487.91 355.12L487.95 355.15ZM585.72 355.15H638.05C642.85 355.15 645.72 357.65 645.72 360.91C645.72 364.36 642.85 366.46 637.86 366.46H570.96V381.03H630.58C645.91 381.03 653.01 373.75 653.01 362.63C653.01 353.43 647.45 347.63 636.52 347.63H583.95C579.35 347.63 576.47 345.71 576.47 342.07C576.47 338.43 579.35 336.32 583.95 336.32H651.25V321.77H590.85C574.56 321.77 569 330.2 569 339.77C569 349.18 574.56 355.12 585.68 355.12L585.72 355.15ZM668.72 381.03H683.25V321.77H668.68L668.72 381.03ZM668.72 311.03H683.25V299.29H668.68L668.72 311.03ZM773 430.03V489.26H787.57V430.03H773ZM772.97 419.57H787.54V407.83H772.97V419.57ZM868.83 321.76H849.08C837.2 321.76 827.8 326.55 823.59 334.76V321.76H809.02V380.99H823.59V352.05C823.59 342.05 830.3 336.33 839.12 336.33H869.41C882.25 336.33 884.93 342.65 884.93 351.85V380.99H899.5V350.32C899.5 332.69 890.11 321.77 868.83 321.77V321.76ZM396.83 380.99H416.25C427.37 380.99 437.14 375.05 441.36 367.77V380.99H455.93V321.77H441.32V349.95C441.32 359.95 436.32 366.43 424.83 366.43H395.69C382.85 366.43 380.93 359.92 380.93 350.52V321.77H366.36V352.06C366.36 370.08 375.37 381 396.84 381L396.83 380.99ZM485.03 537.62V569.83C485.03 580.76 481.19 583.83 472.03 583.83H460.88C452.06 583.83 447.27 580.77 447.27 570.03V537.63H432.51V570.03C432.51 580.77 427.91 583.83 419.09 583.83H407.97C398.97 583.83 394.74 580.77 394.74 569.83V537.62H379.98V542.41C379.98 579.03 395.7 597.24 413.34 597.24H413.91C425.61 597.24 435.38 589.24 440.18 577.3C444.78 589.19 454.18 597.24 466.06 597.24H466.63C483.88 597.24 499.8 579.03 499.8 542.41V537.62H485.03ZM697.03 458.83V443.88H756.27V430.07H697.03V415.07H688.59V430.07H673.25V443.88H688.58V459.21C688.58 478.21 699.9 489.5 718.49 489.5H756.49V474.74H712.78C702.62 474.75 697.06 471.68 697.06 458.84L697.03 458.83ZM643.54 476.08V489.5H657.92V430.07H643.54V443.49C643.54 443.49 637.98 430.07 616.13 430.07H595.65C577.05 430.07 564.59 441.38 564.59 459.6C564.59 477.42 576.09 489.5 593.92 489.5H615.78C628.81 489.51 638.97 484.72 643.57 476.09L643.54 476.08ZM586.8 474.74C578.94 474.74 571.46 469.37 571.46 459.98C571.46 451.35 577.21 444.83 588.14 444.83H625.91C636.45 444.83 643.54 450.2 643.54 459.6C643.54 468.6 635.87 474.74 626.86 474.74H586.8ZM777.55 335.18C777.55 335.18 771.99 321.76 750.13 321.76H729.81C711.22 321.76 698.56 332.88 698.56 351.09C698.56 368.92 710.07 380.99 728.09 380.99H749.75C763.17 380.99 773.14 375.99 777.55 367.58V380.99H792.12V321.77H777.55V335.18ZM761.06 366.42H720.99C713.32 366.42 705.85 360.67 705.85 351.42C705.85 342.79 711.41 336.28 722.14 336.28H759.91C770.26 336.28 777.55 341.45 777.55 351.23C777.58 360.11 770.25 366.43 761.09 366.43L761.06 366.42ZM491.93 489.51H544.84V476.09H485.61C474.87 476.09 467.78 471.49 467.01 462.09C468.54 464 472.01 466.09 480.81 466.09H532.57C545.237 466.09 551.57 460.53 551.57 449.41C551.57 438.1 542.57 430.05 527.57 430.05H490.01C467.2 430.05 459.34 441.55 459.34 458.23C459.34 477.43 468.54 489.51 491.93 489.51ZM475.64 444.65H535.64C540.43 444.65 543.88 447.34 543.88 451.75C543.88 455.75 540.63 458.65 535.26 458.65H476.4C471.4 458.65 468.4 455.77 468.4 451.75C468.35 447.14 471.42 444.65 475.64 444.65ZM924.81 466.12H976.57C989.22 466.12 995.36 460.56 995.36 449.44C995.36 438.13 986.16 430.08 971.59 430.08H934.01C911.39 430.08 903.15 441.58 903.15 458.26C903.15 477.43 912.73 489.51 935.74 489.51H988.84V476.09H929.6C919.06 476.09 911.6 471.49 910.81 462.09C912.54 464.01 915.99 466.12 924.81 466.12V466.12ZM919.44 444.65H979.64C984.24 444.65 987.64 447.34 987.64 451.75C987.64 455.75 984.57 458.65 979.2 458.65H920.2C915.41 458.65 912.2 455.77 912.2 451.75C912.16 447.14 915.61 444.65 919.44 444.65ZM876.12 430.08V455.77C876.12 471.68 870.94 475.13 858.12 475.13H837.42C825.15 475.13 818.63 474.18 818.63 456.73V430.08H802.91V435.64C802.91 464.21 819.4 489.9 847.39 489.9H847.77C875 489.9 891.87 464.59 891.87 436.41V430.08H876.12ZM351.12 551.08C351.12 551.08 345.56 537.66 323.71 537.66H303.36C284.76 537.66 272.11 548.78 272.11 566.99C272.11 584.82 283.61 596.9 301.63 596.9H323.3C336.71 596.9 346.68 591.9 351.09 583.48V596.9H365.66V537.66H351.09L351.12 551.08ZM334.64 582.33H294.54C286.87 582.33 279.39 576.58 279.39 567.38C279.39 558.75 284.95 552.23 295.69 552.23H333.46C343.81 552.23 351.09 557.41 351.09 567.18C351.09 575.97 343.81 582.3 334.61 582.3L334.64 582.33ZM789.9 551.08C789.9 551.08 784.34 537.66 762.49 537.66H742.17C723.57 537.66 710.92 548.78 710.92 566.99C710.92 584.82 722.42 596.9 740.44 596.9H762.1C775.52 596.9 785.49 591.9 789.9 583.48V596.9H804.47V515.45H789.9V551.08ZM773.41 582.33H733.35C725.68 582.33 718.2 576.58 718.2 567.38C718.2 558.75 723.76 552.23 734.5 552.23H772.25C782.61 552.23 789.89 557.41 789.89 567.18C789.87 575.97 782.59 582.3 773.38 582.3L773.41 582.33ZM590.94 551.08C590.94 551.08 585.38 537.66 563.53 537.66H543.21C524.61 537.66 511.96 548.78 511.96 566.99C511.96 584.82 523.46 596.9 541.48 596.9H563.14C576.56 596.9 586.53 591.9 590.94 583.48V596.9H605.51V537.66H590.94V551.08ZM574.46 582.33H534.39C526.72 582.33 519.24 576.58 519.24 567.38C519.24 558.75 524.8 552.23 535.54 552.23H573.25C583.6 552.23 590.88 557.41 590.88 567.18C590.91 575.97 583.63 582.3 574.43 582.3L574.46 582.33ZM838.46 571.21H890.8C895.59 571.21 898.47 573.7 898.47 576.96C898.47 580.41 895.59 582.52 890.61 582.52H823.7V597.09H883.25C898.59 597.09 905.68 589.81 905.68 578.69C905.68 569.48 900.12 563.69 889.2 563.69H836.67C832.07 563.69 829.19 561.78 829.19 558.13C829.19 554.48 832.07 552.38 836.67 552.38H903.96V537.81H843.57C827.27 537.81 821.71 546.25 821.71 555.81C821.74 565.24 827.3 571.18 838.42 571.18L838.46 571.21Z" fill="#1C1C1C"/>
</svg>
