<svg width="995" height="816" viewBox="0 0 995 816" fill="none" xmlns="http://www.w3.org/2000/svg">
<path d="M425.612 657.117C312.082 784.337 176.542 843.367 87.6118 792.117C32.1618 760.117 2.90181 690.227 5.26181 595.267C7.63181 499.737 41.6618 390.477 101.122 287.627C160.582 184.777 238.322 100.707 320.012 50.897C369.732 20.567 417.242 5.197 459.342 5.197C485.942 5.197 510.342 11.347 531.862 23.707C597.422 61.507 623.652 151.307 611.402 260.767H616.662C618.152 247.197 619.082 233.767 619.412 220.697C621.802 123.697 591.622 52.207 534.412 19.227C477.202 -13.753 400.122 -4.07297 317.282 46.477C234.902 96.727 156.562 181.477 96.6818 285.047C36.8018 388.617 2.51181 498.777 0.131809 595.157C-2.25819 692.157 27.9218 763.637 85.1318 796.627C107.402 809.467 132.722 815.837 160.222 815.837C203.292 815.837 251.722 800.197 302.272 769.367C347.782 741.607 392.052 703.297 432.672 657.117H425.612Z" fill="white"/>
<path d="M301.332 489.117H353.102V474.357H295.012C285.012 474.357 278.522 468.987 278.522 459.217C278.522 450.397 285.042 444.457 295.012 444.457H353.102V429.687H301.332C283.702 429.687 271.242 441.387 271.242 459.217C271.242 477.997 284.082 489.117 301.332 489.117ZM288.112 351.117C288.112 341.537 295.392 335.787 304.592 335.787H351.952V321.377H312.262C293.672 321.377 288.112 334.797 288.112 334.797V321.377H273.542V380.577H288.112V351.117ZM446.462 429.717H408.882C390.292 429.717 384.542 443.137 384.542 443.137V429.717H370.012V489.147H384.582V459.577C384.582 449.997 392.052 444.437 401.452 444.437H446.502L446.462 429.717ZM486.912 354.767H539.242C544.242 354.767 546.722 356.867 546.722 360.327C546.722 363.787 544.232 366.077 539.052 366.077H472.152V380.577H531.582C546.912 380.577 554.202 373.287 554.202 362.167C554.202 352.967 548.452 347.167 537.712 347.167H485.012C480.602 347.167 477.732 345.247 477.732 341.607C477.732 337.967 480.602 335.857 485.202 335.857H552.302V321.377H491.912C475.812 321.377 470.252 329.807 470.252 339.377C470.232 348.787 476.012 354.737 486.912 354.737V354.767ZM584.682 354.767H637.012C641.802 354.767 644.672 357.257 644.672 360.517C644.672 363.967 641.802 366.077 636.812 366.077H569.912V380.577H629.532C644.872 380.577 651.962 373.287 651.962 362.167C651.962 352.967 646.402 347.167 635.472 347.167H582.942C578.342 347.167 575.472 345.247 575.472 341.607C575.472 337.967 578.342 335.857 582.942 335.857H650.232V321.377H589.852C573.552 321.377 567.992 329.807 567.992 339.377C568.012 348.787 573.562 354.737 584.682 354.737V354.767ZM667.682 380.647H682.252V321.377H667.682V380.647ZM667.682 310.647H682.252V298.907H667.682V310.647ZM771.962 429.647V488.887H786.532V429.647H771.962ZM772.012 419.187H786.582V407.447H772.012V419.187ZM867.872 321.377H848.132C836.242 321.377 826.852 326.167 822.632 334.377V321.377H808.012V380.577H822.582V351.577C822.582 341.577 829.292 335.857 838.112 335.857H868.402C881.242 335.857 883.932 342.187 883.932 351.387V380.577H898.502V349.897C898.512 332.307 889.112 321.377 867.832 321.377H867.872ZM395.872 380.617H415.212C426.332 380.617 436.112 374.617 440.322 367.387V380.577H454.892V321.377H440.322V349.577C440.322 359.577 435.322 366.067 423.842 366.067H394.702C381.852 366.067 379.932 359.547 379.932 350.157V321.377H365.362V351.667C365.362 369.687 374.382 380.577 395.852 380.577L395.872 380.617ZM696.082 458.447V443.497H755.322V429.687H696.082V414.737H687.652V429.687H672.312V443.497H687.652V458.827C687.652 477.827 698.962 489.117 717.552 489.117H755.552V474.357H711.842C701.622 474.357 696.062 471.287 696.062 458.447H696.082ZM642.602 475.697V489.117H656.972V429.687H642.602V443.107C642.602 443.107 637.042 429.687 615.182 429.687H594.672C576.072 429.687 563.612 440.997 563.612 459.217C563.612 477.047 575.112 489.117 592.942 489.117H614.802C627.812 489.117 638.012 484.327 642.582 475.697H642.602ZM585.852 474.357C577.992 474.357 570.512 468.987 570.512 459.597C570.512 450.967 576.262 444.457 587.192 444.457H624.962C635.502 444.457 642.602 449.817 642.602 459.217C642.602 468.217 634.932 474.357 625.922 474.357H585.852ZM776.602 334.797C776.602 334.797 771.042 321.377 749.192 321.377H728.862C710.272 321.377 697.622 332.497 697.622 350.707C697.622 368.537 709.122 380.617 727.142 380.617H748.802C762.222 380.617 772.192 375.617 776.602 367.197V380.577H791.172V321.377H776.602V334.797ZM760.112 366.047H720.012C712.342 366.047 704.862 360.297 704.862 351.047C704.862 342.427 710.422 335.907 721.162 335.907H758.922C769.272 335.907 776.562 341.077 776.562 350.907C776.582 359.717 769.292 366.047 760.092 366.047H760.112ZM490.952 489.117H543.872V475.697H484.612C473.872 475.697 466.782 471.097 466.012 461.697C467.552 463.617 471.012 465.697 479.812 465.697H531.582C544.248 465.697 550.582 460.137 550.582 449.017C550.582 437.707 541.582 429.647 526.582 429.647H489.012C466.192 429.647 458.332 441.157 458.332 457.837C458.342 477.047 467.552 489.117 490.932 489.117H490.952ZM474.662 444.257H534.662C539.462 444.257 542.912 446.947 542.912 451.357C542.912 455.357 539.652 458.257 534.282 458.257H475.412C470.412 458.257 467.352 455.377 467.352 451.357C467.352 446.757 470.422 444.257 474.642 444.257H474.662ZM923.832 465.737H975.592C988.252 465.737 994.382 460.177 994.382 449.057C994.382 437.747 985.182 429.687 970.612 429.687H933.012C910.392 429.687 902.152 441.197 902.152 457.877C902.152 477.047 911.732 489.117 934.742 489.117H987.842V475.697H928.602C918.062 475.697 910.602 471.097 909.822 461.697C911.542 463.627 915.012 465.737 923.812 465.737H923.832ZM918.462 444.257H978.662C983.262 444.257 986.662 446.947 986.662 451.357C986.662 455.357 983.602 458.257 978.232 458.257H919.232C914.442 458.257 911.232 455.377 911.232 451.357C911.162 446.757 914.612 444.257 918.442 444.257H918.462ZM875.142 429.687V455.377C875.142 471.287 869.962 474.747 857.142 474.747H836.432C824.162 474.747 817.652 473.747 817.652 456.337V429.687H801.932V435.247C801.932 463.817 818.412 489.507 846.402 489.507H846.792C874.012 489.507 890.882 464.197 890.882 436.017V429.687H875.142ZM836.292 570.457H888.632C893.422 570.457 896.302 572.957 896.302 576.217C896.302 579.667 893.422 581.767 888.442 581.767H821.512V596.337H881.132C896.472 596.337 903.562 589.057 903.562 577.937C903.562 568.737 898.002 562.987 887.082 562.987H834.552C829.952 562.987 827.072 561.067 827.072 557.427C827.072 553.787 829.952 551.677 834.552 551.677H901.842V537.107H841.452C825.162 537.107 819.602 545.537 819.602 555.107C819.602 564.517 825.162 570.457 836.272 570.457H836.292Z" fill="white"/>
<path d="M699.072 536.907H661.502C642.902 536.907 637.152 550.327 637.152 550.327V536.907H622.582V596.337H637.152V566.817C637.152 557.237 644.632 551.677 654.022 551.677H699.022L699.072 536.907Z" fill="white"/>
<path d="M484.162 536.907V569.117C484.162 580.047 480.332 583.117 471.162 583.117H460.012C451.192 583.117 446.402 580.047 446.402 569.307V536.907H431.632V569.307C431.632 580.047 427.032 583.117 418.212 583.117H407.092C398.092 583.117 393.872 580.047 393.872 569.117V536.907H379.112V541.707C379.112 578.317 394.832 596.537 412.462 596.537H413.012C424.702 596.537 434.482 588.477 439.272 576.597C443.872 588.477 453.272 596.537 465.152 596.537H465.732C482.982 596.537 498.892 578.317 498.892 541.707V536.907H484.162Z" fill="white"/>
<path d="M511.302 566.787C511.302 548.617 523.952 537.047 542.602 537.047H564.122C585.402 537.047 590.682 550.857 590.682 550.857V537.047H605.202V596.287L590.682 596.417V583.197C586.132 591.577 576.682 596.417 563.682 596.417H542.762C523.732 596.407 511.302 584.577 511.302 566.787ZM519.672 567.147C519.672 576.467 526.002 582.247 535.332 582.247H573.582C582.912 582.247 590.682 575.877 590.682 566.907C590.682 556.997 583.622 551.567 573.222 551.567H535.012C525.012 551.577 519.672 558.297 519.672 567.147V567.147Z" fill="white"/>
<path d="M709.842 566.787C709.842 548.617 722.502 537.047 741.142 537.047H762.662C783.942 537.047 789.222 550.857 789.222 550.857V514.707H803.742V596.287L789.222 596.417V583.197C784.682 591.577 775.222 596.417 762.222 596.417H741.302C722.282 596.407 709.842 584.577 709.842 566.787ZM718.212 567.147C718.212 576.467 724.552 582.247 733.872 582.247H772.132C781.452 582.247 789.222 575.877 789.222 566.907C789.222 556.997 782.222 551.567 771.772 551.567H733.512C723.592 551.577 718.212 558.297 718.212 567.147V567.147Z" fill="white"/>
<path d="M271.242 566.787C271.242 548.617 283.892 537.047 302.542 537.047H324.012C345.292 537.047 350.572 550.857 350.572 550.857V537.047H365.092V596.287L350.572 596.417V583.197C346.032 591.577 336.572 596.417 323.572 596.417H302.682C283.672 596.407 271.242 584.577 271.242 566.787ZM279.602 567.147C279.602 576.467 285.942 582.247 295.262 582.247H333.522C342.842 582.247 350.612 575.877 350.612 566.907C350.612 556.997 343.562 551.567 333.162 551.567H294.912C285.012 551.577 279.602 558.297 279.602 567.147Z" fill="white"/>
</svg>
