<svg width="2048" height="1024" viewBox="0 0 2048 1024" fill="none" xmlns="http://www.w3.org/2000/svg">
<rect width="2048" height="1024" fill="url(#paint0_angular_501:269)"/>
<g filter="url(#filter0_f_501:269)">
<path d="M569 449L569.392 451.244L570.928 449.819L569.992 451.832L571.954 451.892L570.128 452.732L571.598 454.25L569.737 453.524L570.026 455.789L569 453.837L567.974 455.789L568.263 453.524L566.402 454.25L567.872 452.732L566.046 451.892L568.008 451.832L567.072 449.819L568.608 451.244L569 449Z" fill="white"/>
</g>
<g filter="url(#filter1_f_501:269)">
<path d="M312 811L312.392 812.923L313.928 811.702L312.992 813.427L314.954 813.479L313.128 814.199L314.598 815.5L312.737 814.878L313.026 816.819L312 815.146L310.974 816.819L311.263 814.878L309.402 815.5L310.872 814.199L309.046 813.479L311.008 813.427L310.072 811.702L311.608 812.923L312 811Z" fill="white"/>
</g>
<g filter="url(#filter2_f_501:269)">
<path d="M376 449L376.392 451.244L377.928 449.819L376.992 451.832L378.954 451.892L377.128 452.732L378.598 454.25L376.737 453.524L377.026 455.789L376 453.837L374.974 455.789L375.263 453.524L373.402 454.25L374.872 452.732L373.046 451.892L375.008 451.832L374.072 449.819L375.608 451.244L376 449Z" fill="white"/>
</g>
<g filter="url(#filter3_f_501:269)">
<path d="M1392 811L1392.39 813.244L1393.93 811.819L1392.99 813.832L1394.95 813.892L1393.13 814.732L1394.6 816.25L1392.74 815.524L1393.03 817.789L1392 815.837L1390.97 817.789L1391.26 815.524L1389.4 816.25L1390.87 814.732L1389.05 813.892L1391.01 813.832L1390.07 811.819L1391.61 813.244L1392 811Z" fill="white"/>
</g>
<g filter="url(#filter4_f_501:269)">
<path d="M1493 443L1493.39 444.923L1494.93 443.702L1493.99 445.427L1495.95 445.479L1494.13 446.199L1495.6 447.5L1493.74 446.878L1494.03 448.819L1493 447.146L1491.97 448.819L1492.26 446.878L1490.4 447.5L1491.87 446.199L1490.05 445.479L1492.01 445.427L1491.07 443.702L1492.61 444.923L1493 443Z" fill="white"/>
</g>
<g filter="url(#filter5_f_501:269)">
<path d="M1670 657L1670.39 659.244L1671.93 657.819L1670.99 659.832L1672.95 659.892L1671.13 660.732L1672.6 662.25L1670.74 661.524L1671.03 663.789L1670 661.837L1668.97 663.789L1669.26 661.524L1667.4 662.25L1668.87 660.732L1667.05 659.892L1669.01 659.832L1668.07 657.819L1669.61 659.244L1670 657Z" fill="white"/>
</g>
<g filter="url(#filter6_f_501:269)">
<path d="M121 133L121.392 134.923L122.928 133.702L121.992 135.427L123.954 135.479L122.128 136.199L123.598 137.5L121.737 136.878L122.026 138.819L121 137.146L119.974 138.819L120.263 136.878L118.402 137.5L119.872 136.199L118.046 135.479L120.008 135.427L119.072 133.702L120.608 134.923L121 133Z" fill="white"/>
</g>
<g filter="url(#filter7_f_501:269)">
<path d="M563 126L563.392 128.244L564.928 126.819L563.992 128.832L565.954 128.892L564.128 129.732L565.598 131.25L563.737 130.524L564.026 132.789L563 130.837L561.974 132.789L562.263 130.524L560.402 131.25L561.872 129.732L560.046 128.892L562.008 128.832L561.072 126.819L562.608 128.244L563 126Z" fill="white"/>
</g>
<g filter="url(#filter8_f_501:269)">
<path d="M1189 126L1189.39 128.244L1190.93 126.819L1189.99 128.832L1191.95 128.892L1190.13 129.732L1191.6 131.25L1189.74 130.524L1190.03 132.789L1189 130.837L1187.97 132.789L1188.26 130.524L1186.4 131.25L1187.87 129.732L1186.05 128.892L1188.01 128.832L1187.07 126.819L1188.61 128.244L1189 126Z" fill="white"/>
</g>
<g filter="url(#filter9_f_501:269)">
<path d="M1389 41L1389.39 42.9232L1390.93 41.7019L1389.99 43.4271L1391.95 43.4791L1390.13 44.199L1391.6 45.5L1389.74 44.8778L1390.03 46.8191L1389 45.1459L1387.97 46.8191L1388.26 44.8778L1386.4 45.5L1387.87 44.199L1386.05 43.4791L1388.01 43.4271L1387.07 41.7019L1388.61 42.9232L1389 41Z" fill="white"/>
</g>
<g filter="url(#filter10_f_501:269)">
<path d="M1630 244L1630.39 246.244L1631.93 244.819L1630.99 246.832L1632.95 246.892L1631.13 247.732L1632.6 249.25L1630.74 248.524L1631.03 250.789L1630 248.837L1628.97 250.789L1629.26 248.524L1627.4 249.25L1628.87 247.732L1627.05 246.892L1629.01 246.832L1628.07 244.819L1629.61 246.244L1630 244Z" fill="white"/>
</g>
<defs>
<filter id="filter0_f_501:269" x="565.046" y="448" width="7.9082" height="8.78882" filterUnits="userSpaceOnUse" color-interpolation-filters="sRGB">
<feFlood flood-opacity="0" result="BackgroundImageFix"/>
<feBlend mode="normal" in="SourceGraphic" in2="BackgroundImageFix" result="shape"/>
<feGaussianBlur stdDeviation="0.5" result="effect1_foregroundBlur_501:269"/>
</filter>
<filter id="filter1_f_501:269" x="308.046" y="810" width="7.9082" height="7.81909" filterUnits="userSpaceOnUse" color-interpolation-filters="sRGB">
<feFlood flood-opacity="0" result="BackgroundImageFix"/>
<feBlend mode="normal" in="SourceGraphic" in2="BackgroundImageFix" result="shape"/>
<feGaussianBlur stdDeviation="0.5" result="effect1_foregroundBlur_501:269"/>
</filter>
<filter id="filter2_f_501:269" x="372.046" y="448" width="7.9082" height="8.78882" filterUnits="userSpaceOnUse" color-interpolation-filters="sRGB">
<feFlood flood-opacity="0" result="BackgroundImageFix"/>
<feBlend mode="normal" in="SourceGraphic" in2="BackgroundImageFix" result="shape"/>
<feGaussianBlur stdDeviation="0.5" result="effect1_foregroundBlur_501:269"/>
</filter>
<filter id="filter3_f_501:269" x="1388.05" y="810" width="7.9082" height="8.78882" filterUnits="userSpaceOnUse" color-interpolation-filters="sRGB">
<feFlood flood-opacity="0" result="BackgroundImageFix"/>
<feBlend mode="normal" in="SourceGraphic" in2="BackgroundImageFix" result="shape"/>
<feGaussianBlur stdDeviation="0.5" result="effect1_foregroundBlur_501:269"/>
</filter>
<filter id="filter4_f_501:269" x="1489.05" y="442" width="7.9082" height="7.81909" filterUnits="userSpaceOnUse" color-interpolation-filters="sRGB">
<feFlood flood-opacity="0" result="BackgroundImageFix"/>
<feBlend mode="normal" in="SourceGraphic" in2="BackgroundImageFix" result="shape"/>
<feGaussianBlur stdDeviation="0.5" result="effect1_foregroundBlur_501:269"/>
</filter>
<filter id="filter5_f_501:269" x="1666.05" y="656" width="7.9082" height="8.78882" filterUnits="userSpaceOnUse" color-interpolation-filters="sRGB">
<feFlood flood-opacity="0" result="BackgroundImageFix"/>
<feBlend mode="normal" in="SourceGraphic" in2="BackgroundImageFix" result="shape"/>
<feGaussianBlur stdDeviation="0.5" result="effect1_foregroundBlur_501:269"/>
</filter>
<filter id="filter6_f_501:269" x="117.046" y="132" width="7.9082" height="7.81909" filterUnits="userSpaceOnUse" color-interpolation-filters="sRGB">
<feFlood flood-opacity="0" result="BackgroundImageFix"/>
<feBlend mode="normal" in="SourceGraphic" in2="BackgroundImageFix" result="shape"/>
<feGaussianBlur stdDeviation="0.5" result="effect1_foregroundBlur_501:269"/>
</filter>
<filter id="filter7_f_501:269" x="559.046" y="125" width="7.9082" height="8.78894" filterUnits="userSpaceOnUse" color-interpolation-filters="sRGB">
<feFlood flood-opacity="0" result="BackgroundImageFix"/>
<feBlend mode="normal" in="SourceGraphic" in2="BackgroundImageFix" result="shape"/>
<feGaussianBlur stdDeviation="0.5" result="effect1_foregroundBlur_501:269"/>
</filter>
<filter id="filter8_f_501:269" x="1185.05" y="125" width="7.9082" height="8.78894" filterUnits="userSpaceOnUse" color-interpolation-filters="sRGB">
<feFlood flood-opacity="0" result="BackgroundImageFix"/>
<feBlend mode="normal" in="SourceGraphic" in2="BackgroundImageFix" result="shape"/>
<feGaussianBlur stdDeviation="0.5" result="effect1_foregroundBlur_501:269"/>
</filter>
<filter id="filter9_f_501:269" x="1385.05" y="40" width="7.9082" height="7.81909" filterUnits="userSpaceOnUse" color-interpolation-filters="sRGB">
<feFlood flood-opacity="0" result="BackgroundImageFix"/>
<feBlend mode="normal" in="SourceGraphic" in2="BackgroundImageFix" result="shape"/>
<feGaussianBlur stdDeviation="0.5" result="effect1_foregroundBlur_501:269"/>
</filter>
<filter id="filter10_f_501:269" x="1626.05" y="243" width="7.9082" height="8.78894" filterUnits="userSpaceOnUse" color-interpolation-filters="sRGB">
<feFlood flood-opacity="0" result="BackgroundImageFix"/>
<feBlend mode="normal" in="SourceGraphic" in2="BackgroundImageFix" result="shape"/>
<feGaussianBlur stdDeviation="0.5" result="effect1_foregroundBlur_501:269"/>
</filter>
<radialGradient id="paint0_angular_501:269" cx="0" cy="0" r="1" gradientUnits="userSpaceOnUse" gradientTransform="translate(2017.6 -21.7476) rotate(178.034) scale(633.867 407.06)">
<stop offset="0.00734421" stop-color="#1E1E1E"/>
<stop offset="0.607083" stop-color="#C3A5F2"/>
</radialGradient>
</defs>
</svg>
