<svg width="456" height="378" viewBox="0 0 456 378" fill="none" xmlns="http://www.w3.org/2000/svg">
<g clip-path="url(#clip0_487:302)">
<path d="M195.173 304.049C143.11 362.914 80.9531 390.227 40.1986 366.514C14.7699 351.717 1.35171 319.374 2.42939 275.431C3.51624 231.23 19.1219 180.675 46.3895 133.091C73.6479 85.4936 109.289 46.5945 146.733 23.5474C169.534 9.51378 191.321 2.4021 210.623 2.4021C222.821 2.4021 234.034 5.24769 243.88 10.9667C273.945 28.4613 285.973 70.007 280.356 120.659H282.768C283.451 114.375 283.882 108.184 284.029 102.114C285.125 57.2504 271.285 24.1536 245.072 8.89376C218.855 -6.35679 183.488 -1.88712 145.495 21.5023C107.721 44.7529 71.7952 83.9574 44.335 131.888C16.8703 179.819 1.14993 230.786 0.058494 275.376C-1.03753 320.239 12.8026 353.336 39.0154 368.596C49.2327 374.537 60.8395 377.484 73.4552 377.484C93.202 377.484 115.411 370.248 138.593 355.983C159.468 343.138 179.769 325.412 198.393 304.045H195.173V304.049Z" fill="white"/>
<path d="M138.188 226.317H161.924V219.487H135.285C130.713 219.487 127.723 217.003 127.723 212.482C127.723 208.401 130.713 205.653 135.285 205.653H161.924V198.823H138.188C130.098 198.823 124.384 204.232 124.384 212.482C124.384 221.172 130.277 226.317 138.188 226.317ZM132.12 162.45C132.12 158.013 135.459 155.353 139.683 155.353H161.397V148.699C160.255 148.699 143.2 148.699 143.2 148.699C134.67 148.699 132.12 154.908 132.12 154.908V148.699H125.439V176.109H132.12V162.45ZM204.742 198.819C203.513 198.819 187.513 198.819 187.513 198.819C178.983 198.819 176.347 205.028 176.347 205.028V198.819H169.665V226.317H176.347V212.658C176.347 208.221 179.777 205.653 184.083 205.653H204.742V198.819ZM320.531 248.582C319.302 248.582 303.302 248.582 303.302 248.582C294.772 248.582 292.135 254.791 292.135 254.791V248.582H285.454V276.08H292.135V262.421C292.135 257.984 295.565 255.416 299.871 255.416H320.531V248.582ZM223.292 164.135H247.295C249.578 164.135 250.725 165.111 250.725 166.707C250.725 168.304 249.583 169.368 247.207 169.368H216.523V176.109H243.777C250.812 176.109 254.15 172.741 254.15 167.596C254.15 163.339 251.514 160.678 246.588 160.678H222.412C220.389 160.678 219.073 159.79 219.073 158.106C219.073 156.422 220.394 155.445 222.503 155.445H253.274V148.704H225.58C218.197 148.704 215.647 152.609 215.647 157.042C215.643 161.386 218.28 164.135 223.292 164.135ZM268.128 164.135H292.131C294.327 164.135 295.648 165.287 295.648 166.795C295.648 168.392 294.327 169.368 292.043 169.368H261.359V176.109H288.7C295.735 176.109 298.986 172.741 298.986 167.596C298.986 163.339 296.437 160.678 291.424 160.678H267.335C265.225 160.678 263.905 159.79 263.905 158.106C263.905 156.422 265.225 155.445 267.335 155.445H298.193V148.704H270.499C263.024 148.704 260.479 152.609 260.479 157.042C260.479 161.386 263.029 164.135 268.128 164.135ZM306.195 176.109H312.877V148.699H306.195V176.109ZM306.195 143.725H312.877V138.293H306.195V143.725ZM354.017 198.8V226.21H360.698V198.8H354.017ZM354.017 193.956H360.698V188.524H354.017V193.956ZM397.977 148.699H388.92C383.467 148.699 379.161 150.915 377.226 154.733V148.699H370.544V176.109H377.226C377.226 176.109 377.226 163.515 377.226 162.714C377.226 158.101 380.303 155.441 384.348 155.441H398.238C404.127 155.441 405.36 158.369 405.36 162.626C405.36 164.667 405.36 176.109 405.36 176.109H412.042C412.042 176.109 412.042 167.596 412.042 161.918C412.042 153.756 407.736 148.699 397.977 148.699ZM181.529 176.109H190.407C195.506 176.109 199.991 173.361 201.922 169.988V176.109H208.604V148.699H201.922C201.922 148.699 201.922 161.03 201.922 161.738C201.922 166.351 199.638 169.368 194.36 169.368H180.997C175.108 169.368 174.228 166.351 174.228 162.006C174.228 160.054 174.228 148.699 174.228 148.699H167.546C167.546 148.699 167.546 157.037 167.546 162.714C167.551 171.052 171.683 176.109 181.529 176.109ZM221.976 248.582V263.485C221.976 268.543 220.22 269.958 215.996 269.958H210.897C206.852 269.958 204.655 268.538 204.655 263.573V248.582H197.886V263.573C197.886 268.543 195.777 269.958 191.732 269.958H186.633C182.501 269.958 180.566 268.538 180.566 263.485V248.582H173.797V250.798C173.797 267.742 181.006 276.168 189.095 276.168H189.361C194.722 276.168 199.207 272.443 201.404 266.942C203.513 272.443 207.819 276.168 213.272 276.168H213.538C221.449 276.168 228.749 267.742 228.749 250.798V248.582H221.976ZM319.205 212.121V205.204H346.372V198.819H319.205V191.901H315.335V198.819H308.3V205.204H315.335V212.302C315.335 221.084 320.522 226.317 329.051 226.317H346.459V219.487H326.414C321.755 219.483 319.205 218.067 319.205 212.121ZM294.676 220.107V226.317H301.27V198.819H294.676V205.028C294.676 205.028 292.126 198.819 282.106 198.819C282.106 198.819 273.842 198.819 272.7 198.819C264.171 198.819 258.457 204.052 258.457 212.477C258.457 220.727 263.73 226.317 271.907 226.317H281.927C287.907 226.317 292.566 224.096 294.676 220.107ZM268.655 219.483C265.051 219.483 261.621 216.998 261.621 212.653C261.621 208.66 264.258 205.648 269.27 205.648H286.591C291.424 205.648 294.68 208.133 294.68 212.477C294.68 216.646 291.163 219.483 287.031 219.483H268.655ZM356.131 154.908C356.131 154.908 353.581 148.699 343.561 148.699C343.561 148.699 335.384 148.699 334.243 148.699C325.713 148.699 319.912 153.844 319.912 162.27C319.912 170.52 325.185 176.109 333.449 176.109H343.382C349.536 176.109 354.109 173.805 356.131 169.9V176.109H362.812V148.699H356.131V154.908ZM348.569 169.368H330.193C326.676 169.368 323.25 166.707 323.25 162.45C323.25 158.457 325.8 155.445 330.725 155.445H348.046C352.792 155.445 356.135 157.842 356.135 162.363C356.131 166.439 352.788 169.368 348.569 169.368ZM225.136 226.317H249.399V220.107H222.233C217.308 220.107 214.056 217.979 213.703 213.634C214.405 214.523 215.987 215.499 220.032 215.499H243.768C249.569 215.499 252.472 212.926 252.472 207.781C252.472 202.548 248.34 198.823 241.484 198.823H224.255C213.795 198.823 210.19 204.144 210.19 211.862C210.19 220.727 214.409 226.317 225.136 226.317ZM217.665 205.56H245.18C247.377 205.56 248.959 206.8 248.959 208.841C248.959 210.705 247.464 212.033 245.002 212.033H218.014C215.73 212.033 214.322 210.701 214.322 208.841C214.322 206.712 215.73 205.56 217.665 205.56ZM423.649 215.494H447.385C453.186 215.494 456.002 212.922 456.002 207.776C456.002 202.543 451.783 198.819 445.101 198.819H427.872C417.499 198.819 413.716 204.14 413.716 211.857C413.716 220.727 418.113 226.317 428.661 226.317H453.012V220.107H425.845C421.012 220.107 417.581 217.979 417.228 213.634C418.022 214.518 419.604 215.494 423.649 215.494ZM421.186 205.56H448.793C450.902 205.56 452.484 206.8 452.484 208.841C452.484 210.705 451.077 212.033 448.614 212.033H421.535C419.338 212.033 417.843 210.701 417.843 208.841C417.847 206.712 419.43 205.56 421.186 205.56ZM401.32 198.819V210.705C401.32 218.067 398.945 219.663 393.056 219.663H383.564C377.937 219.663 374.947 219.219 374.947 211.149V198.819H367.738C367.738 202.543 367.738 201.391 367.738 201.391C367.738 214.606 375.3 226.493 388.136 226.493H388.31C400.793 226.493 408.529 214.782 408.529 201.743V198.814H401.32V198.819ZM160.548 254.787C160.548 254.787 157.999 248.577 147.978 248.577C147.978 248.577 139.802 248.577 138.66 248.577C130.13 248.577 124.329 253.722 124.329 262.148C124.329 270.398 129.603 275.987 137.867 275.987H147.8C153.954 275.987 158.526 273.683 160.548 269.778V275.987H167.23V248.577H160.548V254.787ZM152.991 269.246H134.615C131.098 269.246 127.672 266.585 127.672 262.329C127.672 258.336 130.222 255.323 135.147 255.323H152.468C157.214 255.323 160.557 257.72 160.557 262.241C160.548 266.322 157.21 269.246 152.991 269.246ZM361.767 254.787C361.767 254.787 359.217 248.577 349.197 248.577C349.197 248.577 341.02 248.577 339.879 248.577C331.349 248.577 325.548 253.722 325.548 262.148C325.548 270.398 330.821 275.987 339.085 275.987H349.018C355.172 275.987 359.745 273.683 361.767 269.778V275.987H368.449V238.301H361.767V254.787ZM354.205 269.246H335.829C332.312 269.246 328.886 266.585 328.886 262.329C328.886 258.336 331.436 255.323 336.361 255.323H353.682C358.428 255.323 361.771 257.72 361.771 262.241C361.767 266.322 358.428 269.246 354.205 269.246ZM270.527 254.787C270.527 254.787 267.977 248.577 257.957 248.577C257.957 248.577 249.78 248.577 248.638 248.577C240.108 248.577 234.307 253.722 234.307 262.148C234.307 270.398 239.581 275.987 247.845 275.987H257.778C263.932 275.987 268.504 273.683 270.527 269.778V275.987H277.208V248.577H270.527V254.787ZM262.969 269.246H244.593C241.076 269.246 237.65 266.585 237.65 262.329C237.65 258.336 240.2 255.323 245.125 255.323H262.446C267.193 255.323 270.536 257.72 270.536 262.241C270.527 266.322 267.188 269.246 262.969 269.246ZM384.031 264.101H408.034C410.23 264.101 411.551 265.253 411.551 266.761C411.551 268.358 410.23 269.334 407.947 269.334H377.263V276.075H404.603C411.638 276.075 414.89 272.707 414.89 267.562C414.89 263.305 412.34 260.644 407.327 260.644H383.243C381.133 260.644 379.812 259.756 379.812 258.072C379.812 256.388 381.133 255.411 383.243 255.411H414.101V248.67H386.407C378.932 248.67 376.387 252.575 376.387 257.008C376.382 261.352 378.932 264.101 384.031 264.101Z" fill="white"/>
</g>
<defs>
<clipPath id="clip0_487:302">
<rect width="456" height="377.483" fill="white"/>
</clipPath>
</defs>
</svg>
