<svg width="1280" height="824" viewBox="0 0 1280 824" fill="none" xmlns="http://www.w3.org/2000/svg">
<g clip-path="url(#clip0)">
<rect width="1280" height="824" fill="#222222"/>
<path d="M866.543 62.6465C791.787 62.6465 715.46 154.164 686.64 199.924C766.287 309.745 839.761 335.845 866.543 335.167C963.481 335.167 989.681 247.716 989.681 199.924C989.681 152.131 959.988 62.6465 866.543 62.6465Z" stroke="#929292" stroke-width="2"/>
<path d="M506.737 62.6465C581.493 62.6465 657.821 154.164 686.64 199.924C606.994 309.745 533.519 335.845 506.737 335.167C409.799 335.167 383.6 247.716 383.6 199.924C383.6 152.131 413.292 62.6465 506.737 62.6465Z" stroke="#929292" stroke-width="2"/>
<path d="M838.773 62.6465C775.557 62.6465 711.011 154.164 686.64 199.924C753.992 309.745 816.125 335.845 838.773 335.167C920.747 335.167 942.903 247.716 942.903 199.924C942.903 152.131 917.793 62.6465 838.773 62.6465Z" stroke="#929292" stroke-width="2"/>
<path d="M534.507 62.6465C597.724 62.6465 662.269 154.164 686.64 199.924C619.288 309.745 557.155 335.845 534.507 335.167C452.533 335.167 430.378 247.716 430.378 199.924C430.378 152.131 455.487 62.6465 534.507 62.6465Z" stroke="#929292" stroke-width="2"/>
<path d="M811.003 62.6465C759.326 62.6465 706.562 154.164 686.64 199.924C741.698 309.745 792.489 335.845 811.003 335.167C878.013 335.167 896.125 247.716 896.125 199.924C896.125 152.131 875.599 62.6465 811.003 62.6465Z" stroke="#929292" stroke-width="2"/>
<path d="M562.278 62.6465C613.954 62.6465 666.718 154.164 686.64 199.924C631.583 309.745 580.791 335.845 562.278 335.167C495.267 335.167 477.156 247.716 477.156 199.924C477.156 152.131 497.682 62.6465 562.278 62.6465Z" stroke="#929292" stroke-width="2"/>
<path d="M782.025 62.6465C742.389 62.6465 701.92 154.164 686.64 199.924C728.869 309.745 767.825 335.845 782.025 335.167C833.422 335.167 847.313 247.716 847.313 199.924C847.313 152.131 831.57 62.6465 782.025 62.6465Z" stroke="#929292" stroke-width="2"/>
<path d="M591.255 62.6465C630.891 62.6465 671.36 154.164 686.64 199.924C644.412 309.745 605.455 335.845 591.255 335.167C539.859 335.167 525.968 247.716 525.968 199.924C525.968 152.131 541.711 62.6465 591.255 62.6465Z" stroke="#929292" stroke-width="2"/>
<path d="M754.255 62.6465C726.159 62.6465 697.472 154.164 686.64 199.924C716.574 309.745 744.189 335.845 754.255 335.167C790.688 335.167 800.535 247.716 800.535 199.924C800.535 152.131 789.375 62.6465 754.255 62.6465Z" stroke="#929292" stroke-width="2"/>
<path d="M619.026 62.6465C647.122 62.6465 675.809 154.164 686.64 199.924C656.706 309.745 629.091 335.845 619.026 335.167C582.592 335.167 572.746 247.716 572.746 199.924C572.746 152.131 583.905 62.6465 619.026 62.6465Z" stroke="#929292" stroke-width="2"/>
<path d="M726.484 62.6465C709.928 62.6465 693.023 154.164 686.64 199.924C704.28 309.745 720.553 335.845 726.484 335.167C747.954 335.167 753.756 247.716 753.756 199.924C753.756 152.131 747.18 62.6465 726.484 62.6465Z" stroke="#929292" stroke-width="2"/>
<path d="M646.796 62.6465C663.353 62.6465 680.257 154.164 686.64 199.924C669 309.745 652.727 335.845 646.796 335.167C625.326 335.167 619.524 247.716 619.524 199.924C619.524 152.131 626.1 62.6465 646.796 62.6465Z" stroke="#929292" stroke-width="2"/>
<path d="M697.507 62.6465C692.991 62.6465 688.381 154.164 686.64 199.924C691.451 309.745 695.889 335.845 697.507 335.167C703.362 335.167 704.945 247.716 704.945 199.924C704.945 152.131 703.151 62.6465 697.507 62.6465Z" stroke="#929292" stroke-width="2"/>
<path d="M675.774 62.6465C680.289 62.6465 684.899 154.164 686.64 199.924C681.829 309.745 677.391 335.845 675.774 335.167C669.918 335.167 668.336 247.716 668.336 199.924C668.336 152.131 670.129 62.6465 675.774 62.6465Z" stroke="#929292" stroke-width="2"/>
<path d="M1088.27 80.1123C1159.78 94.9924 1203.96 123.495 1248.13 121.672C1292.31 123.495 1336.49 94.9957 1408 80.1123C1394.07 149.453 1375.23 179.919 1376.26 210.388C1375.23 240.853 1394.07 271.319 1408 340.66C1336.49 325.78 1292.31 297.277 1248.13 299.1C1203.96 297.277 1159.78 325.776 1088.27 340.66C1102.2 271.319 1121.04 240.85 1120.01 210.384C1121.04 179.919 1102.2 149.453 1088.27 80.1123Z" stroke="#929292" stroke-width="2" stroke-miterlimit="10"/>
<path d="M1100.63 131.071C1157.61 135.161 1202.87 147.676 1248.13 146.771C1293.39 147.68 1338.65 135.161 1395.63 131.071" stroke="#929292" stroke-width="2" stroke-miterlimit="10"/>
<path d="M1111.27 164.224C1159.71 164.609 1203.92 169.95 1248.13 169.506C1292.34 169.95 1336.55 164.609 1385 164.224" stroke="#929292" stroke-width="2" stroke-miterlimit="10"/>
<path d="M1117.83 188.628C1205.98 190.346 1290.29 190.346 1378.44 188.628" stroke="#929292" stroke-width="2" stroke-miterlimit="10"/>
<path d="M1120.09 208.699C1205.45 208.797 1290.81 208.8 1376.18 208.699" stroke="#929292" stroke-width="2" stroke-miterlimit="10"/>
<path d="M1118.79 226.745C1205.74 225.595 1290.52 225.595 1377.47 226.745" stroke="#929292" stroke-width="2" stroke-miterlimit="10"/>
<path d="M1114.98 244.069C1206.8 240.545 1289.48 240.545 1381.29 244.069" stroke="#929292" stroke-width="2" stroke-miterlimit="10"/>
<path d="M1109.68 261.507C1159.27 260.769 1203.7 254.552 1248.13 255.059C1292.56 254.552 1337 260.772 1386.59 261.507" stroke="#929292" stroke-width="2" stroke-miterlimit="10"/>
<path d="M1103.79 279.614C1158 276.978 1203.06 266.966 1248.13 267.72C1293.2 266.969 1338.27 276.981 1392.48 279.614" stroke="#929292" stroke-width="2" stroke-miterlimit="10"/>
<path d="M1097.97 298.735C1157.49 293.12 1202.81 278.148 1248.13 279.203C1293.45 278.148 1338.77 293.123 1398.29 298.735" stroke="#929292" stroke-width="2" stroke-miterlimit="10"/>
<path d="M1092.7 319.069C1158.05 309.363 1203.09 288.221 1248.13 289.632C1293.17 288.221 1338.22 309.363 1403.57 319.069" stroke="#929292" stroke-width="2" stroke-miterlimit="10"/>
<path d="M1142.61 94.8945C1144.61 148.94 1157.19 179.664 1156.18 210.388C1157.19 241.112 1144.61 271.836 1142.61 325.881" stroke="#929292" stroke-width="2" stroke-miterlimit="10"/>
<path d="M1184.43 109.301C1182.12 149.988 1189.78 180.186 1189.01 210.388C1189.77 240.589 1182.12 270.787 1184.43 311.471" stroke="#929292" stroke-width="2" stroke-miterlimit="10"/>
<path d="M1217.69 118.573C1215.54 150.973 1219.22 180.681 1218.81 210.386C1219.22 240.094 1215.54 269.798 1217.69 302.198" stroke="#929292" stroke-width="2" stroke-miterlimit="10"/>
<path d="M1245.78 121.822C1245.81 180.889 1245.81 239.886 1245.78 298.95" stroke="#929292" stroke-width="2" stroke-miterlimit="10"/>
<path d="M1271.06 119.953C1270.54 182.309 1270.54 238.458 1271.06 300.818" stroke="#929292" stroke-width="2" stroke-miterlimit="10"/>
<path d="M32.4183 60C-82.3959 174.814 -169.033 205.712 -198 206.809C-112.153 222.083 -8.61812 311.046 32.4183 353.619C137.226 248.285 228.384 211.857 260.862 206.809C178.174 192.063 74.113 102.792 32.4183 60Z" stroke="#929292" stroke-width="2"/>
<path d="M32.7459 91.5996C-81.9035 181.7 -168.416 205.948 -197.342 206.809C-111.618 218.795 -8.23163 288.609 32.7459 322.018C137.403 239.357 228.43 210.77 260.861 206.809C178.293 195.236 74.3808 125.181 32.7459 91.5996Z" stroke="#929292" stroke-width="2"/>
<path d="M32.7459 125.833C-81.9035 189.161 -168.416 206.203 -197.342 206.809C-111.618 215.233 -8.23163 264.302 32.7459 287.784C137.403 229.685 228.43 209.592 260.861 206.809C178.293 198.675 74.3808 149.436 32.7459 125.833Z" stroke="#929292" stroke-width="2"/>
<path d="M32.7459 160.067C-81.9035 196.623 -168.416 206.46 -197.342 206.809C-111.618 211.672 -8.23163 239.997 32.7459 253.551C137.403 220.015 228.43 208.416 260.861 206.809C178.293 202.114 74.3808 173.692 32.7459 160.067Z" stroke="#929292" stroke-width="2"/>
<path d="M32.0877 190.351C-82.5617 203.222 -169.075 206.686 -198 206.809C-112.276 208.521 -8.88983 218.495 32.0877 223.267C136.745 211.459 227.772 207.375 260.203 206.809C177.635 205.156 73.7226 195.148 32.0877 190.351Z" stroke="#929292" stroke-width="2"/>
<path d="M300.976 448.36H327.352C332.131 448.36 335.659 449.536 337.936 451.888C340.251 454.24 341.408 457.488 341.408 461.632C341.408 465.888 340.251 469.192 337.936 471.544C335.659 473.896 332.131 475.072 327.352 475.072H311.504V487H300.976V448.36ZM330.712 462.472V460.904C330.712 459.635 330.32 458.589 329.536 457.768C328.789 456.947 327.557 456.536 325.84 456.536H311.504V466.896H325.84C327.557 466.896 328.789 466.504 329.536 465.72C330.32 464.899 330.712 463.816 330.712 462.472ZM346.859 467.4C346.859 463.667 347.381 460.531 348.427 457.992C349.509 455.453 351.059 453.419 353.075 451.888C355.128 450.32 357.648 449.219 360.635 448.584C363.659 447.912 367.112 447.576 370.995 447.576C374.84 447.576 378.256 447.912 381.243 448.584C384.267 449.219 386.787 450.32 388.803 451.888C390.856 453.419 392.405 455.453 393.451 457.992C394.533 460.531 395.075 463.667 395.075 467.4C395.075 471.245 394.533 474.475 393.451 477.088C392.405 479.701 390.856 481.811 388.803 483.416C386.787 484.984 384.267 486.104 381.243 486.776C378.256 487.448 374.84 487.784 370.995 487.784C367.112 487.784 363.659 487.448 360.635 486.776C357.648 486.104 355.128 484.984 353.075 483.416C351.059 481.811 349.509 479.701 348.427 477.088C347.381 474.475 346.859 471.245 346.859 467.4ZM384.435 469.64V465.552C384.435 461.893 383.296 459.336 381.019 457.88C378.779 456.424 375.437 455.696 370.995 455.696C366.552 455.696 363.192 456.424 360.915 457.88C358.637 459.336 357.499 461.893 357.499 465.552V469.64C357.499 473.523 358.637 476.173 360.915 477.592C363.192 478.973 366.552 479.664 370.995 479.664C375.437 479.664 378.779 478.973 381.019 477.592C383.296 476.173 384.435 473.523 384.435 469.64ZM401.367 467.736C401.367 464.003 401.871 460.848 402.879 458.272C403.924 455.696 405.399 453.624 407.303 452.056C409.244 450.451 411.615 449.312 414.415 448.64C417.215 447.931 420.37 447.576 423.879 447.576C430.338 447.576 435.452 448.64 439.223 450.768C443.031 452.859 445.196 456.517 445.719 461.744H435.079C434.668 459.28 433.511 457.656 431.607 456.872C429.703 456.088 427.127 455.696 423.879 455.696C422.162 455.696 420.575 455.845 419.119 456.144C417.663 456.405 416.412 456.891 415.367 457.6C414.322 458.309 413.5 459.299 412.903 460.568C412.343 461.837 412.063 463.461 412.063 465.44V469.92C412.063 473.803 413.146 476.397 415.311 477.704C417.476 479.011 420.332 479.664 423.879 479.664C427.015 479.664 429.535 479.291 431.439 478.544C433.343 477.76 434.575 476.229 435.135 473.952H445.775C445.178 478.955 442.975 482.52 439.167 484.648C435.396 486.739 430.3 487.784 423.879 487.784C420.37 487.784 417.215 487.448 414.415 486.776C411.615 486.104 409.244 485.003 407.303 483.472C405.399 481.941 403.924 479.888 402.879 477.312C401.871 474.699 401.367 471.507 401.367 467.736ZM451.336 467.736C451.336 464.003 451.84 460.848 452.848 458.272C453.893 455.696 455.368 453.624 457.272 452.056C459.213 450.451 461.584 449.312 464.384 448.64C467.184 447.931 470.339 447.576 473.848 447.576C480.307 447.576 485.421 448.64 489.192 450.768C493 452.859 495.165 456.517 495.688 461.744H485.048C484.637 459.28 483.48 457.656 481.576 456.872C479.672 456.088 477.096 455.696 473.848 455.696C472.131 455.696 470.544 455.845 469.088 456.144C467.632 456.405 466.381 456.891 465.336 457.6C464.291 458.309 463.469 459.299 462.872 460.568C462.312 461.837 462.032 463.461 462.032 465.44V469.92C462.032 473.803 463.115 476.397 465.28 477.704C467.445 479.011 470.301 479.664 473.848 479.664C476.984 479.664 479.504 479.291 481.408 478.544C483.312 477.76 484.544 476.229 485.104 473.952H495.744C495.147 478.955 492.944 482.52 489.136 484.648C485.365 486.739 480.269 487.784 473.848 487.784C470.339 487.784 467.184 487.448 464.384 486.776C461.584 486.104 459.213 485.003 457.272 483.472C455.368 481.941 453.893 479.888 452.848 477.312C451.84 474.699 451.336 471.507 451.336 467.736ZM534.961 461.296L514.297 487H502.985V448.36H513.513V474.064L534.177 448.36H545.489V487H534.961V461.296ZM587.172 461.296L566.508 487H555.196V448.36H565.724V474.064L586.388 448.36H597.7V487H587.172V461.296ZM563.54 435.76H571.94C572.052 437.291 572.482 438.373 573.228 439.008C573.975 439.605 575.095 439.904 576.588 439.904C578.082 439.904 579.202 439.605 579.948 439.008C580.695 438.373 581.106 437.291 581.18 435.76H589.636C589.524 439.008 588.404 441.453 586.276 443.096C584.148 444.739 580.919 445.56 576.588 445.56C572.258 445.56 569.01 444.739 566.844 443.096C564.716 441.453 563.615 439.008 563.54 435.76ZM605.728 467.736C605.728 464.003 606.232 460.848 607.24 458.272C608.285 455.696 609.76 453.624 611.664 452.056C613.605 450.451 615.976 449.312 618.776 448.64C621.576 447.931 624.73 447.576 628.24 447.576C634.698 447.576 639.813 448.64 643.584 450.768C647.392 452.859 649.557 456.517 650.08 461.744H639.44C639.029 459.28 637.872 457.656 635.968 456.872C634.064 456.088 631.488 455.696 628.24 455.696C626.522 455.696 624.936 455.845 623.48 456.144C622.024 456.405 620.773 456.891 619.728 457.6C618.682 458.309 617.861 459.299 617.264 460.568C616.704 461.837 616.424 463.461 616.424 465.44V469.92C616.424 473.803 617.506 476.397 619.672 477.704C621.837 479.011 624.693 479.664 628.24 479.664C631.376 479.664 633.896 479.291 635.8 478.544C637.704 477.76 638.936 476.229 639.496 473.952H650.136C649.538 478.955 647.336 482.52 643.528 484.648C639.757 486.739 634.661 487.784 628.24 487.784C624.73 487.784 621.576 487.448 618.776 486.776C615.976 486.104 613.605 485.003 611.664 483.472C609.76 481.941 608.285 479.888 607.24 477.312C606.232 474.699 605.728 471.507 605.728 467.736ZM657.377 448.36H667.905V463.032H672.329L686.441 448.36H698.873L681.233 466.728L699.937 487H686.553L672.161 471.6H667.905V487H657.377V448.36ZM717.377 448.36H731.881L748.513 487H737.537L733.897 478.432H714.185L710.545 487H700.689L717.377 448.36ZM717.433 470.816H730.649L724.041 455.248L717.433 470.816ZM782.26 473.896H770.892L762.94 487H751.628L760.14 472.888C757.639 472.067 755.716 470.667 754.372 468.688C753.028 466.672 752.356 464.152 752.356 461.128C752.356 457.245 753.551 454.147 755.94 451.832C758.329 449.517 761.839 448.36 766.468 448.36H792.844V487H782.26V473.896ZM782.26 456.424H768.036C766.468 456.424 765.236 456.779 764.34 457.488C763.444 458.16 762.996 459.149 762.996 460.456V461.688C762.996 462.995 763.425 464.04 764.284 464.824C765.18 465.571 766.431 465.944 768.036 465.944H782.26V456.424ZM300.976 511.36H311.504V526.032H315.928L330.04 511.36H342.472L324.832 529.728L343.536 550H330.152L315.76 534.6H311.504V550H300.976V511.36ZM348.32 511.36H374.696C379.475 511.36 383.003 512.536 385.28 514.888C387.595 517.24 388.752 520.488 388.752 524.632C388.752 528.888 387.595 532.192 385.28 534.544C383.003 536.896 379.475 538.072 374.696 538.072H358.848V550H348.32V511.36ZM378.056 525.472V523.904C378.056 522.635 377.664 521.589 376.88 520.768C376.133 519.947 374.901 519.536 373.184 519.536H358.848V529.896H373.184C374.901 529.896 376.133 529.504 376.88 528.72C377.664 527.899 378.056 526.816 378.056 525.472ZM395.883 511.36H431.107V519.424H406.411V526.368H425.451V534.152H406.411V541.936H431.331V550H395.883V511.36ZM452 511.36H466.504L483.136 550H472.16L468.52 541.432H448.808L445.168 550H435.312L452 511.36ZM452.056 533.816H465.272L458.664 518.248L452.056 533.816ZM494.577 519.928H479.233V511.36H520.449V519.928H505.105V550H494.577V519.928ZM558.954 524.296L538.29 550H526.978V511.36H537.506V537.064L558.17 511.36H569.482V550H558.954V524.296ZM579.189 511.36H605.453C609.335 511.36 612.322 512.144 614.413 513.712C616.503 515.28 617.549 517.613 617.549 520.712C617.549 522.616 617.082 524.371 616.149 525.976C615.253 527.544 613.629 528.72 611.277 529.504C613.927 530.176 615.831 531.315 616.989 532.92C618.146 534.525 618.725 536.448 618.725 538.688C618.725 542.347 617.661 545.147 615.533 547.088C613.442 549.029 610.269 550 606.013 550H579.189V511.36ZM607.021 523.008V521.944C607.021 520.749 606.61 519.835 605.789 519.2C605.005 518.565 603.866 518.248 602.373 518.248H589.605V526.928H602.373C603.866 526.928 605.005 526.592 605.789 525.92C606.61 525.248 607.021 524.277 607.021 523.008ZM608.197 538.912V537.456C608.197 536.187 607.749 535.216 606.853 534.544C605.994 533.835 604.725 533.48 603.045 533.48H589.605V543.112H603.045C604.687 543.112 605.957 542.757 606.853 542.048C607.749 541.339 608.197 540.293 608.197 538.912ZM626.588 511.36H637.116V525.864H657.612V511.36H668.14V550H657.612V534.432H637.116V550H626.588V511.36ZM690.416 511.36H704.92L721.552 550H710.576L706.936 541.432H687.224L683.584 550H673.728L690.416 511.36ZM690.472 533.816H703.688L697.08 518.248L690.472 533.816ZM755.299 536.896H743.931L735.979 550H724.667L733.179 535.888C730.678 535.067 728.755 533.667 727.411 531.688C726.067 529.672 725.395 527.152 725.395 524.128C725.395 520.245 726.59 517.147 728.979 514.832C731.369 512.517 734.878 511.36 739.507 511.36H765.883V550H755.299V536.896ZM755.299 519.424H741.075C739.507 519.424 738.275 519.779 737.379 520.488C736.483 521.16 736.035 522.149 736.035 523.456V524.688C736.035 525.995 736.465 527.04 737.323 527.824C738.219 528.571 739.47 528.944 741.075 528.944H755.299V519.424ZM300.976 574.36H311.504V588.864H332V574.36H342.528V613H332V597.432H311.504V613H300.976V574.36ZM352.148 574.36H387.372V582.424H362.676V589.368H381.716V597.152H362.676V604.936H387.596V613H352.148V574.36ZM392.585 621.4V604.432H397.177C397.924 603.237 398.615 601.408 399.249 598.944C399.884 596.48 400.201 593.195 400.201 589.088V574.36H437.889V604.432H443.265V621.4H433.409V613H402.441V621.4H392.585ZM427.361 582.928H410.057V589.088C410.057 593.195 409.815 596.48 409.329 598.944C408.844 601.371 408.265 603.2 407.593 604.432H427.361V582.928ZM450.282 574.36H485.506V582.424H460.81V589.368H479.85V597.152H460.81V604.936H485.73V613H450.282V574.36ZM490.831 603.76H491.895C494.359 603.76 495.927 602.696 496.599 600.568C497.308 598.44 497.663 595.043 497.663 590.376V574.36H534.007V613H523.479V582.928H507.463V590.376C507.463 594.52 507.276 598.048 506.903 600.96C506.53 603.835 505.82 606.168 504.775 607.96C503.767 609.715 502.367 611.003 500.575 611.824C498.82 612.608 496.543 613 493.743 613H490.831V603.76ZM571.993 599.896H560.625L552.673 613H541.361L549.873 598.888C547.372 598.067 545.449 596.667 544.105 594.688C542.761 592.672 542.089 590.152 542.089 587.128C542.089 583.245 543.284 580.147 545.673 577.832C548.063 575.517 551.572 574.36 556.201 574.36H582.577V613H571.993V599.896ZM571.993 582.424H557.769C556.201 582.424 554.969 582.779 554.073 583.488C553.177 584.16 552.729 585.149 552.729 586.456V587.688C552.729 588.995 553.159 590.04 554.017 590.824C554.913 591.571 556.164 591.944 557.769 591.944H571.993V582.424Z" fill="#C4C4C4"/>
<path d="M300.836 701H310.849V698.606H305.339V698.416L308.474 695.699C310.108 694.293 311.153 693.058 311.153 691.424C311.134 688.935 309.044 687.111 306.156 687.111C303.021 687.111 300.798 689.334 300.874 692.393H303.686C303.743 690.74 304.75 689.657 306.118 689.657C307.315 689.657 308.227 690.512 308.227 691.69C308.227 692.697 307.448 693.362 306.46 694.255L300.836 699.252V701ZM319.326 701.361C322.955 701.361 325.482 698.435 325.482 694.236C325.482 690.037 322.955 687.111 319.326 687.111C315.678 687.111 313.17 690.037 313.17 694.236C313.17 698.435 315.678 701.361 319.326 701.361ZM319.326 698.644C317.521 698.644 316.324 696.858 316.324 694.236C316.324 691.614 317.521 689.828 319.326 689.828C321.131 689.828 322.328 691.614 322.328 694.236C322.328 696.858 321.131 698.644 319.326 698.644ZM327.711 701H337.724V698.606H332.214V698.416L335.349 695.699C336.983 694.293 338.028 693.058 338.028 691.424C338.009 688.935 335.919 687.111 333.031 687.111C329.896 687.111 327.673 689.334 327.749 692.393H330.561C330.618 690.74 331.625 689.657 332.993 689.657C334.19 689.657 335.102 690.512 335.102 691.69C335.102 692.697 334.323 693.362 333.335 694.255L327.711 699.252V701ZM343.028 701H346.106V687.472H343.465L339.741 690.265V693.381L342.819 691.101H343.028V701Z" fill="#C4C4C4"/>
</g>
<defs>
<clipPath id="clip0">
<rect width="1280" height="824" fill="white"/>
</clipPath>
</defs>
</svg>
