<svg width="109" height="84" viewBox="0 0 109 84" fill="none" xmlns="http://www.w3.org/2000/svg">
<path d="M25.4125 82.5558C14.4842 82.5558 6.42784 79.0965 2.52028 72.6503C-1.80684 65.5111 -0.531487 55.5621 6.11118 44.6322C12.7585 33.6916 23.9862 23.0831 37.7265 14.7619C51.4667 6.4402 66.0682 1.39922 78.8444 0.571445C91.6107 -0.253794 101.024 3.21836 105.351 10.357C109.678 17.4955 108.403 27.4445 101.76 38.3751C95.1127 49.315 83.8844 59.9209 70.1448 68.2454C56.4072 76.5666 41.8031 81.6076 29.0268 82.4355C27.7895 82.515 26.583 82.5558 25.4125 82.5558ZM82.4634 1.21781C81.3056 1.21781 80.1151 1.25616 78.8932 1.33534C66.2365 2.1555 51.7554 7.15559 38.1226 15.4161C24.4872 23.6758 13.3518 34.1921 6.76522 45.0278C0.27889 55.7031 -0.996465 65.3708 3.17432 72.2513C7.34511 79.1319 16.5077 82.4763 28.9754 81.6691C41.632 80.8492 56.1105 75.849 69.7459 67.5886C83.3813 59.3282 94.5168 48.8119 101.103 37.9762C107.59 27.3015 108.865 17.6339 104.694 10.753C100.934 4.54696 93.1085 1.21781 82.4634 1.21781Z" fill="url(#paint0_linear_970_6013)"/>
<path d="M26.4225 83.1959C26.3232 83.1959 26.226 83.1959 26.1294 83.1959C14.1663 83.1373 5.90092 79.5065 2.85585 72.9742C-0.188544 66.4412 2.34635 57.7829 9.99564 48.5952C17.6523 39.3969 29.5181 30.7719 43.4021 24.3075C57.286 17.8437 71.5243 14.3128 83.5021 14.3768C95.4652 14.4347 103.731 18.0654 106.776 24.5978C109.82 31.1308 107.285 39.7891 99.6359 48.9767C91.9766 58.175 80.1134 66.8001 66.2294 73.2645C52.4574 79.6723 38.337 83.1959 26.4225 83.1959ZM83.2064 15.1378C71.4017 15.1378 57.3953 18.6353 43.7258 24.9979C29.9411 31.4157 18.1717 39.9675 10.5837 49.0813C3.13358 58.0299 0.636661 66.4006 3.54919 72.6479C6.46371 78.898 14.4853 82.3709 26.1341 82.4268C26.2313 82.4268 26.3279 82.4268 26.4251 82.4268C38.2297 82.4268 52.2362 78.9286 65.9084 72.5641C79.6931 66.1489 91.4624 57.5944 99.0498 48.4807C106.501 39.5321 109 31.1614 106.085 24.9134C103.17 18.6633 95.1488 15.1911 83.4994 15.1351C83.4002 15.1378 83.3036 15.1378 83.2064 15.1378Z" fill="url(#paint1_linear_970_6013)"/>
<path d="M14.6849 83.3559C10.7772 83.3559 7.63279 83.2328 5.31357 82.9873C3.92604 82.8415 2.85193 82.6503 2.12123 82.4222C1.75455 82.3072 1.46906 82.1794 1.27806 82.0463C1.13831 81.9467 1.04648 81.847 1.00322 81.74L0.959961 81.6323L0.983255 81.52C1.00588 81.4069 1.07443 81.2919 1.19422 81.1668C1.35726 80.9983 1.60948 80.819 1.94821 80.6351C2.61769 80.2693 3.63588 79.8727 4.97018 79.4587C7.61016 78.64 11.4161 77.7659 16.2841 76.8576C26.2997 74.9883 39.6839 73.1878 53.9686 71.7867C68.2565 70.3855 81.732 69.5541 91.9186 69.4445C96.8698 69.3903 100.775 69.5107 103.52 69.7996C104.91 69.9454 105.984 70.1374 106.712 70.3648C107.082 70.4798 107.364 70.6075 107.555 70.7406C107.698 70.8403 107.79 70.9426 107.833 71.053L107.871 71.1526L107.853 71.2576C107.833 71.3727 107.764 71.4924 107.639 71.6201C107.476 71.7893 107.224 71.9679 106.886 72.1525C106.216 72.5183 105.198 72.9143 103.864 73.3289C101.223 74.1469 97.4175 75.0217 92.5494 75.932C82.5339 77.8013 69.1503 79.6018 54.865 81.003C40.5823 82.4048 27.1069 83.2355 16.9156 83.3458C16.1463 83.3505 15.403 83.3559 14.6849 83.3559ZM1.93756 81.5353C2.03738 81.5808 2.17181 81.6323 2.35016 81.6885C3.03229 81.9032 4.05581 82.0824 5.39543 82.2229C8.11194 82.5091 11.9837 82.6268 16.9077 82.576C27.0763 82.4657 40.5311 81.635 54.7911 80.2358C69.0558 78.8373 82.4141 77.0395 92.4097 75.1749C97.2491 74.272 101.025 73.4032 103.637 72.5946C104.925 72.196 105.895 71.8201 106.522 71.477C106.687 71.3874 106.809 71.3111 106.899 71.2469C106.799 71.2008 106.664 71.1499 106.486 71.0938C105.806 70.8791 104.78 70.6998 103.441 70.5594C100.724 70.2725 96.8525 70.1527 91.9285 70.2062C81.7652 70.3159 68.3098 71.1473 54.0451 72.5464C39.7804 73.9449 26.4194 75.7427 16.4265 77.6074C11.5871 78.5096 7.81113 79.3791 5.1991 80.1877C3.91072 80.5863 2.94111 80.9622 2.31489 81.3046C2.14652 81.3942 2.02673 81.4711 1.93756 81.5353ZM1.20486 81.627L0.985916 81.6831L1.20486 81.627Z" fill="url(#paint2_linear_970_6013)"/>
<path d="M18.0689 83.1958C13.1811 83.1958 9.27355 82.8696 6.45001 82.2271C4.99598 81.8956 3.85339 81.4807 3.04619 80.9924C2.22635 80.4961 1.75053 79.9191 1.63075 79.2792C1.51097 78.6394 1.74521 77.9307 2.33081 77.1744C2.90644 76.4306 3.82543 75.6333 5.05986 74.8062C7.50409 73.1665 11.1162 71.4335 15.7984 69.6496C25.4316 65.9838 38.5092 62.5251 52.6182 59.9141C66.73 57.303 80.1822 55.8506 90.4948 55.8281C95.5078 55.8182 99.5072 56.1417 102.381 56.7968C103.835 57.1283 104.981 57.5432 105.785 58.0315C106.605 58.5278 107.081 59.1048 107.201 59.7447C107.32 60.3845 107.086 61.0932 106.5 61.8495C105.926 62.5933 105.009 63.3906 103.771 64.2177C101.328 65.8574 97.7151 67.5904 93.0336 69.3743C83.3997 73.0401 70.3248 76.4988 56.213 79.1098C42.1013 81.7209 28.6497 83.1726 18.3364 83.1958C18.2473 83.1958 18.1581 83.1958 18.0689 83.1958ZM90.7677 56.5844C90.6785 56.5844 90.5893 56.5844 90.4975 56.5844C80.2281 56.6096 66.8238 58.0574 52.7586 60.6578C38.6928 63.2616 25.6631 66.705 16.0732 70.3556C11.4449 72.1164 7.88341 73.8242 5.48776 75.4308C4.32187 76.2129 3.46343 76.954 2.93706 77.6349C2.4912 78.2113 2.30287 78.7175 2.38206 79.1376C2.46059 79.5578 2.81727 79.9621 3.44347 80.3419C4.1788 80.7872 5.24819 81.1717 6.62036 81.4853C9.43592 82.1278 13.3848 82.4521 18.3338 82.4342C28.6038 82.409 42.0075 80.9619 56.0733 78.3608C70.1384 75.7577 83.1681 72.3142 92.7581 68.663C97.387 66.9022 100.949 65.1944 103.342 63.5878C104.51 62.8057 105.368 62.0646 105.892 61.3844C106.34 60.8074 106.526 60.3012 106.447 59.881C106.368 59.4615 106.012 59.0565 105.386 58.6767C104.65 58.2314 103.58 57.8469 102.208 57.5333C99.4459 56.9034 95.5969 56.5844 90.7677 56.5844Z" fill="url(#paint3_linear_970_6013)"/>
<path d="M21.8555 83.3559C21.3321 83.3559 20.8159 83.3513 20.3077 83.3407C15.1029 83.242 10.8793 82.6418 7.75048 81.5555C4.52332 80.4334 2.61478 78.843 2.07604 76.8293C1.53729 74.8129 2.40088 72.4879 4.64554 69.9171C6.8178 67.4252 10.1851 64.8114 14.6532 62.1492C23.8451 56.6705 36.6588 51.6005 50.7332 47.8692C64.8071 44.1385 78.4518 42.1957 89.1636 42.3984C94.3684 42.4971 98.5926 43.0979 101.721 44.1843C104.949 45.3064 106.86 46.8968 107.396 48.9105C107.935 50.9262 107.07 53.2518 104.826 55.8226C102.651 58.3146 99.2862 60.9284 94.8187 63.5906C85.6262 69.0686 72.8125 74.1393 58.7387 77.8699C45.3352 81.4237 32.3156 83.3559 21.8555 83.3559ZM87.6111 43.143C77.2169 43.143 64.271 45.0659 50.9286 48.6011C36.9205 52.3145 24.1786 57.3574 15.0445 62.8003C10.6455 65.4214 7.34194 67.9823 5.22216 70.4133C3.15619 72.782 2.34508 74.8739 2.81541 76.6312C3.28307 78.3892 5.02885 79.8028 8.0049 80.8361C11.0574 81.8946 15.2019 82.4822 20.3256 82.5809C30.9637 82.7809 44.5373 80.8487 58.5454 77.1353C72.5535 73.4226 85.296 68.3797 94.4295 62.9368C98.8265 60.3177 102.133 57.7548 104.252 55.3232C106.318 52.9551 107.129 50.8632 106.659 49.1052C106.191 47.3479 104.445 45.9343 101.469 44.901C98.4173 43.8425 94.272 43.2549 89.149 43.1562C88.6428 43.1483 88.1293 43.143 87.6111 43.143Z" fill="url(#paint4_linear_970_6013)"/>
<path d="M22.6617 83.5161C22.3024 83.5161 21.9478 83.5134 21.5932 83.5081C16.0701 83.4215 11.4828 82.6526 7.9534 81.2274C4.30933 79.7535 1.96306 77.6386 0.986552 74.9405C0.00737965 72.2424 0.451304 69.1189 2.305 65.6599C4.10004 62.31 7.1322 58.7871 11.3195 55.191C19.9334 47.789 32.4587 40.8983 46.5864 35.7897C60.716 30.6811 74.7537 27.965 86.1192 28.1488C91.6396 28.2353 96.2302 29.0009 99.7589 30.4288C103.403 31.9027 105.747 34.0183 106.726 36.7164C107.705 39.4145 107.261 42.5373 105.407 45.997C103.612 49.3468 100.58 52.869 96.3928 56.4658C87.7789 63.8678 75.2536 70.7585 61.1266 75.8671C47.4376 80.8126 33.8311 83.5161 22.6617 83.5161ZM85.0507 28.9043C73.9685 28.9043 60.4554 31.5898 46.849 36.51C32.806 41.588 20.364 48.4274 11.8194 55.7708C7.70611 59.3064 4.7326 62.7554 2.98089 66.0213C1.23385 69.2846 0.803245 72.1964 1.70576 74.6835C2.60828 77.1679 4.80659 79.1331 8.24136 80.5224C11.6815 81.9124 16.1774 82.6606 21.6058 82.7472C32.88 82.9282 46.823 80.2275 60.866 75.1495C74.909 70.0708 87.3483 63.2314 95.8956 55.888C100.009 52.3524 102.982 48.9034 104.734 45.6382C106.481 42.3749 106.912 39.4624 106.009 36.976C105.107 34.4889 102.908 32.5264 99.4736 31.1364C96.0335 29.7471 91.5356 28.9989 86.1092 28.9123C85.7592 28.907 85.4053 28.9043 85.0507 28.9043Z" fill="url(#paint5_linear_970_6013)"/>
<path d="M108.025 82.3959L0.959961 83.2483L0.965956 83.9963L108.031 83.1439L108.025 82.3959Z" fill="url(#paint6_linear_970_6013)"/>
<defs>
<linearGradient id="paint0_linear_970_6013" x1="-17.7988" y1="-2.4216" x2="153.042" y2="13.489" gradientUnits="userSpaceOnUse">
<stop offset="0.0158557" stop-color="#1E1E1E"/>
<stop offset="1" stop-color="#C3A5F2"/>
</linearGradient>
<linearGradient id="paint1_linear_970_6013" x1="-15.9607" y1="11.9672" x2="152.042" y2="30.3843" gradientUnits="userSpaceOnUse">
<stop offset="0.0158557" stop-color="#1E1E1E"/>
<stop offset="1" stop-color="#C3A5F2"/>
</linearGradient>
<linearGradient id="paint2_linear_970_6013" x1="-16.6803" y1="68.9445" x2="115.078" y2="140.656" gradientUnits="userSpaceOnUse">
<stop offset="0.0158557" stop-color="#1E1E1E"/>
<stop offset="1" stop-color="#C3A5F2"/>
</linearGradient>
<linearGradient id="paint3_linear_970_6013" x1="-15.8287" y1="54.87" x2="141.163" y2="97.8214" gradientUnits="userSpaceOnUse">
<stop offset="0.0158557" stop-color="#1E1E1E"/>
<stop offset="1" stop-color="#C3A5F2"/>
</linearGradient>
<linearGradient id="paint4_linear_970_6013" x1="-15.5084" y1="40.95" x2="147.781" y2="70.7911" gradientUnits="userSpaceOnUse">
<stop offset="0.0158557" stop-color="#1E1E1E"/>
<stop offset="1" stop-color="#C3A5F2"/>
</linearGradient>
<linearGradient id="paint5_linear_970_6013" x1="-17.1332" y1="26.2019" x2="150.273" y2="49.0776" gradientUnits="userSpaceOnUse">
<stop offset="0.0158557" stop-color="#1E1E1E"/>
<stop offset="1" stop-color="#C3A5F2"/>
</linearGradient>
<linearGradient id="paint6_linear_970_6013" x1="-16.7068" y1="82.3399" x2="-9.42466" y2="116.873" gradientUnits="userSpaceOnUse">
<stop offset="0.0158557" stop-color="#1E1E1E"/>
<stop offset="1" stop-color="#C3A5F2"/>
</linearGradient>
</defs>
</svg>
