<svg width="118" height="85" viewBox="0 0 118 85" fill="none" xmlns="http://www.w3.org/2000/svg">
<mask id="path-1-inside-1_970_6039" fill="white">
<path d="M59.4937 0.228943L58.8911 0.649045L117.345 84.1689L117.948 83.7488L59.4937 0.228943Z"/>
</mask>
<path d="M59.4937 0.228943L58.8911 0.649045L117.345 84.1689L117.948 83.7488L59.4937 0.228943Z" fill="url(#paint0_diamond_970_6039)"/>
<path d="M59.4937 0.228943L60.313 -0.344455L59.7406 -1.16224L58.9218 -0.591378L59.4937 0.228943ZM58.8911 0.649045L58.3192 -0.171276L57.4974 0.40167L58.0718 1.22244L58.8911 0.649045ZM117.345 84.1689L116.526 84.7423L117.098 85.5602L117.917 84.9892L117.345 84.1689ZM117.948 83.7488L118.52 84.5691L119.341 83.9961L118.767 83.1754L117.948 83.7488ZM58.9218 -0.591378L58.3192 -0.171276L59.463 1.46937L60.0656 1.04926L58.9218 -0.591378ZM58.0718 1.22244L116.526 84.7423L118.164 83.5955L59.7104 0.0756476L58.0718 1.22244ZM117.917 84.9892L118.52 84.5691L117.376 82.9285L116.773 83.3486L117.917 84.9892ZM118.767 83.1754L60.313 -0.344455L58.6744 0.80234L117.128 84.3222L118.767 83.1754Z" fill="url(#paint1_linear_970_6039)" mask="url(#path-1-inside-1_970_6039)"/>
<mask id="path-3-inside-2_970_6039" fill="white">
<path d="M59.5262 0.228943L58.8911 0.598161L107.525 84.1689L108.16 83.7995L59.5262 0.228943Z"/>
</mask>
<path d="M59.5262 0.228943L58.8911 0.598161L107.525 84.1689L108.16 83.7995L59.5262 0.228943Z" fill="url(#paint2_diamond_970_6039)"/>
<path d="M59.5262 0.228943L60.3905 -0.274037L59.8877 -1.13797L59.0236 -0.635567L59.5262 0.228943ZM58.8911 0.598161L58.3885 -0.26635L57.5236 0.236477L58.0268 1.10114L58.8911 0.598161ZM107.525 84.1689L106.661 84.6719L107.164 85.536L108.028 85.0333L107.525 84.1689ZM108.16 83.7995L108.663 84.6639L109.528 84.161L109.025 83.2965L108.16 83.7995ZM59.0236 -0.635567L58.3885 -0.26635L59.3937 1.46267L60.0288 1.09345L59.0236 -0.635567ZM58.0268 1.10114L106.661 84.6719L108.389 83.666L59.7554 0.0951815L58.0268 1.10114ZM108.028 85.0333L108.663 84.6639L107.657 82.9351L107.022 83.3045L108.028 85.0333ZM109.025 83.2965L60.3905 -0.274037L58.6619 0.731923L107.296 84.3025L109.025 83.2965Z" fill="url(#paint3_linear_970_6039)" mask="url(#path-3-inside-2_970_6039)"/>
<mask id="path-5-inside-3_970_6039" fill="white">
<path d="M59.5571 0.228943L58.8911 0.538267L97.7068 84.0031L98.3728 83.694L59.5571 0.228943Z"/>
</mask>
<path d="M59.5571 0.228943L58.8911 0.538267L97.7068 84.0031L98.3728 83.694L59.5571 0.228943Z" fill="url(#paint4_diamond_970_6039)"/>
<path d="M59.5571 0.228943L60.4638 -0.192741L60.0423 -1.09905L59.1358 -0.678002L59.5571 0.228943ZM58.8911 0.538267L58.4699 -0.368678L57.5625 0.0527733L57.9844 0.959952L58.8911 0.538267ZM97.7068 84.0031L96.8001 84.4247L97.2214 85.3307L98.1277 84.9102L97.7068 84.0031ZM98.3728 83.694L98.7937 84.6012L99.7016 84.1799L99.2795 83.2724L98.3728 83.694ZM59.1358 -0.678002L58.4699 -0.368678L59.3124 1.44521L59.9783 1.13589L59.1358 -0.678002ZM57.9844 0.959952L96.8001 84.4247L98.6136 83.5814L59.7979 0.116582L57.9844 0.959952ZM98.1277 84.9102L98.7937 84.6012L97.9519 82.7869L97.2859 83.0959L98.1277 84.9102ZM99.2795 83.2724L60.4638 -0.192741L58.6503 0.650626L97.466 84.1157L99.2795 83.2724Z" fill="url(#paint5_linear_970_6039)" mask="url(#path-5-inside-3_970_6039)"/>
<mask id="path-7-inside-4_970_6039" fill="white">
<path d="M59.588 0.228943L58.8911 0.470259L88.0543 84.0031L88.7512 83.7615L59.588 0.228943Z"/>
</mask>
<path d="M59.588 0.228943L58.8911 0.470259L88.0543 84.0031L88.7512 83.7615L59.588 0.228943Z" fill="url(#paint6_diamond_970_6039)"/>
<path d="M59.588 0.228943L60.5321 -0.10067L60.2033 -1.04239L59.2608 -0.716007L59.588 0.228943ZM58.8911 0.470259L58.5639 -0.474691L57.6165 -0.146645L57.947 0.799871L58.8911 0.470259ZM88.0543 84.0031L87.1102 84.3327L87.439 85.2746L88.3817 84.9479L88.0543 84.0031ZM88.7512 83.7615L89.0786 84.7064L90.0257 84.3782L89.6953 83.4319L88.7512 83.7615ZM59.2608 -0.716007L58.5639 -0.474691L59.2183 1.41521L59.9152 1.17389L59.2608 -0.716007ZM57.947 0.799871L87.1102 84.3327L88.9984 83.6734L59.8352 0.140647L57.947 0.799871ZM88.3817 84.9479L89.0786 84.7064L88.4237 82.8167L87.7269 83.0582L88.3817 84.9479ZM89.6953 83.4319L60.5321 -0.10067L58.6439 0.558556L87.8071 84.0912L89.6953 83.4319Z" fill="url(#paint7_linear_970_6039)" mask="url(#path-7-inside-4_970_6039)"/>
<mask id="path-9-inside-5_970_6039" fill="white">
<path d="M59.599 0.228943L58.8911 0.394193L77.924 84.0031L78.6319 83.8382L59.599 0.228943Z"/>
</mask>
<path d="M59.599 0.228943L58.8911 0.394193L77.924 84.0031L78.6319 83.8382L59.599 0.228943Z" fill="url(#paint8_diamond_970_6039)"/>
<path d="M59.599 0.228943L60.5741 0.00698027L60.3509 -0.973446L59.3717 -0.744878L59.599 0.228943ZM58.8911 0.394193L58.6638 -0.579629L57.6953 -0.353558L57.9161 0.616156L58.8911 0.394193ZM77.924 84.0031L76.949 84.225L77.172 85.2049L78.1508 84.977L77.924 84.0031ZM78.6319 83.8382L78.8588 84.8121L79.8279 84.5864L79.607 83.6162L78.6319 83.8382ZM59.3717 -0.744878L58.6638 -0.579629L59.1184 1.36801L59.8264 1.20276L59.3717 -0.744878ZM57.9161 0.616156L76.949 84.225L78.8991 83.7811L59.8662 0.172229L57.9161 0.616156ZM78.1508 84.977L78.8588 84.8121L78.4051 82.8643L77.6972 83.0291L78.1508 84.977ZM79.607 83.6162L60.5741 0.00698027L58.624 0.450905L77.6569 84.0602L79.607 83.6162Z" fill="url(#paint9_linear_970_6039)" mask="url(#path-9-inside-5_970_6039)"/>
<mask id="path-11-inside-6_970_6039" fill="white">
<path d="M59.6294 0.394897L58.8911 0.477668L68.438 84.0031L69.1763 83.9198L59.6294 0.394897Z"/>
</mask>
<path d="M59.6294 0.394897L58.8911 0.477668L68.438 84.0031L69.1763 83.9198L59.6294 0.394897Z" fill="url(#paint10_diamond_970_6039)"/>
<path d="M59.6294 0.394897L60.6229 0.281337L60.5096 -0.710053L59.518 -0.598876L59.6294 0.394897ZM58.8911 0.477668L58.7797 -0.516106L57.7838 -0.404449L57.8976 0.591227L58.8911 0.477668ZM68.438 84.0031L67.4445 84.1167L67.5579 85.1088L68.5502 84.9968L68.438 84.0031ZM69.1763 83.9198L69.2884 84.9135L70.2835 84.8011L70.1698 83.8062L69.1763 83.9198ZM59.518 -0.598876L58.7797 -0.516106L59.0025 1.47144L59.7408 1.38867L59.518 -0.598876ZM57.8976 0.591227L67.4445 84.1167L69.4315 83.8895L59.8846 0.364108L57.8976 0.591227ZM68.5502 84.9968L69.2884 84.9135L69.0641 82.9261L68.3258 83.0094L68.5502 84.9968ZM70.1698 83.8062L60.6229 0.281337L58.6358 0.508458L68.1827 84.0333L70.1698 83.8062Z" fill="url(#paint11_linear_970_6039)" mask="url(#path-11-inside-6_970_6039)"/>
<mask id="path-13-inside-7_970_6039" fill="white">
<path d="M58.9567 0.229431L0 83.2466L0.597545 83.6717L59.5543 0.654405L58.9567 0.229431Z"/>
</mask>
<path d="M58.9567 0.229431L0 83.2466L0.597545 83.6717L59.5543 0.654405L58.9567 0.229431Z" fill="url(#paint12_diamond_970_6039)"/>
<path d="M58.9567 0.229431L59.5363 -0.585493L58.7208 -1.16545L58.1414 -0.349586L58.9567 0.229431ZM0 83.2466L-0.815316 82.6676L-1.39381 83.4821L-0.579748 84.0614L0 83.2466ZM0.597545 83.6717L0.0177975 84.4865L0.833325 85.0668L1.41286 84.2508L0.597545 83.6717ZM59.5543 0.654405L60.3696 1.23342L60.9482 0.418656L60.1338 -0.160519L59.5543 0.654405ZM58.1414 -0.349586L-0.815316 82.6676L0.815316 83.8256L59.772 0.808448L58.1414 -0.349586ZM-0.579748 84.0614L0.0177975 84.4865L1.17729 82.8569L0.579748 82.4318L-0.579748 84.0614ZM1.41286 84.2508L60.3696 1.23342L58.7389 0.0753886L-0.217771 83.0927L1.41286 84.2508ZM60.1338 -0.160519L59.5363 -0.585493L58.3771 1.04436L58.9747 1.46933L60.1338 -0.160519Z" fill="url(#paint13_linear_970_6039)" mask="url(#path-13-inside-7_970_6039)"/>
<mask id="path-15-inside-8_970_6039" fill="white">
<path d="M58.9229 0.228943L9.62158 83.2971L10.253 83.6713L59.5543 0.603148L58.9229 0.228943Z"/>
</mask>
<path d="M58.9229 0.228943L9.62158 83.2971L10.253 83.6713L59.5543 0.603148L58.9229 0.228943Z" fill="url(#paint14_diamond_970_6039)"/>
<path d="M58.9229 0.228943L59.4328 -0.631313L58.573 -1.14087L58.0629 -0.28144L58.9229 0.228943ZM9.62158 83.2971L8.76163 82.7867L8.2509 83.6473L9.11179 84.1574L9.62158 83.2971ZM10.253 83.6713L9.74316 84.5316L10.6029 85.041L11.1129 84.1816L10.253 83.6713ZM59.5543 0.603148L60.4142 1.11353L60.9249 0.253064L60.0641 -0.257107L59.5543 0.603148ZM58.0629 -0.28144L8.76163 82.7867L10.4815 83.8075L59.7828 0.739325L58.0629 -0.28144ZM9.11179 84.1574L9.74316 84.5316L10.7627 82.811L10.1314 82.4368L9.11179 84.1574ZM11.1129 84.1816L60.4142 1.11353L58.6943 0.0927656L9.39301 83.1609L11.1129 84.1816ZM60.0641 -0.257107L59.4328 -0.631313L58.413 1.0892L59.0444 1.4634L60.0641 -0.257107Z" fill="url(#paint15_linear_970_6039)" mask="url(#path-15-inside-8_970_6039)"/>
<mask id="path-17-inside-9_970_6039" fill="white">
<path d="M58.8973 0.228943L19.7407 83.3566L20.3983 83.6713L59.5542 0.543714L58.8973 0.228943Z"/>
</mask>
<path d="M58.8973 0.228943L19.7407 83.3566L20.3983 83.6713L59.5542 0.543714L58.8973 0.228943Z" fill="url(#paint16_diamond_970_6039)"/>
<path d="M58.8973 0.228943L59.3294 -0.672869L58.4216 -1.10788L57.9926 -0.19719L58.8973 0.228943ZM19.7407 83.3566L18.8361 82.9304L18.4126 83.8295L19.309 84.2586L19.7407 83.3566ZM20.3983 83.6713L19.9666 84.5733L20.8742 85.0077L21.3029 84.0974L20.3983 83.6713ZM59.5542 0.543714L60.4588 0.969841L60.8821 0.0711699L59.9863 -0.358097L59.5542 0.543714ZM57.9926 -0.19719L18.8361 82.9304L20.6454 83.7827L59.8019 0.655075L57.9926 -0.19719ZM19.309 84.2586L19.9666 84.5733L20.83 82.7692L20.1724 82.4545L19.309 84.2586ZM21.3029 84.0974L60.4588 0.969841L58.6495 0.117587L19.4936 83.2451L21.3029 84.0974ZM59.9863 -0.358097L59.3294 -0.672869L58.4651 1.13075L59.122 1.44553L59.9863 -0.358097Z" fill="url(#paint17_linear_970_6039)" mask="url(#path-17-inside-9_970_6039)"/>
<mask id="path-19-inside-10_970_6039" fill="white">
<path d="M59.0258 0.228943L29.1963 83.4249L29.8904 83.6713L59.7199 0.475728L59.0258 0.228943Z"/>
</mask>
<path d="M59.0258 0.228943L29.1963 83.4249L29.8904 83.6713L59.7199 0.475728L59.0258 0.228943Z" fill="url(#paint18_diamond_970_6039)"/>
<path d="M59.0258 0.228943L59.3608 -0.713278L58.4211 -1.04738L58.0845 -0.108564L59.0258 0.228943ZM29.1963 83.4249L28.255 83.0874L27.9164 84.0318L28.8619 84.3674L29.1963 83.4249ZM29.8904 83.6713L29.556 84.6137L30.4953 84.947L30.8317 84.0088L29.8904 83.6713ZM59.7199 0.475728L60.6612 0.813237L60.9997 -0.130604L60.0549 -0.466493L59.7199 0.475728ZM58.0845 -0.108564L28.255 83.0874L30.1376 83.7624L59.9671 0.56645L58.0845 -0.108564ZM28.8619 84.3674L29.556 84.6137L30.2248 82.7288L29.5307 82.4825L28.8619 84.3674ZM30.8317 84.0088L60.6612 0.813237L58.7786 0.13822L28.9491 83.3337L30.8317 84.0088ZM60.0549 -0.466493L59.3608 -0.713278L58.6908 1.17116L59.3849 1.41795L60.0549 -0.466493Z" fill="url(#paint19_linear_970_6039)" mask="url(#path-19-inside-10_970_6039)"/>
<mask id="path-21-inside-11_970_6039" fill="white">
<path d="M58.8358 0.394897L38.8176 83.5007L39.5356 83.6713L59.5538 0.565416L58.8358 0.394897Z"/>
</mask>
<path d="M58.8358 0.394897L38.8176 83.5007L39.5356 83.6713L59.5538 0.565416L58.8358 0.394897Z" fill="url(#paint20_diamond_970_6039)"/>
<path d="M58.8358 0.394897L59.0669 -0.578041L58.097 -0.808366L57.8636 0.16072L58.8358 0.394897ZM38.8176 83.5007L37.8454 83.2666L37.6105 84.2418L38.5865 84.4737L38.8176 83.5007ZM39.5356 83.6713L39.3045 84.6442L40.2744 84.8747L40.5078 83.9055L39.5356 83.6713ZM59.5538 0.565416L60.526 0.799594L60.7609 -0.175718L59.7849 -0.407523L59.5538 0.565416ZM57.8636 0.16072L37.8454 83.2666L39.7898 83.7349L59.808 0.629075L57.8636 0.16072ZM38.5865 84.4737L39.3045 84.6442L39.7668 82.6984L39.0488 82.5278L38.5865 84.4737ZM40.5078 83.9055L60.526 0.799594L58.5816 0.331239L38.5634 83.4371L40.5078 83.9055ZM59.7849 -0.407523L59.0669 -0.578041L58.6047 1.36784L59.3227 1.53835L59.7849 -0.407523Z" fill="url(#paint21_linear_970_6039)" mask="url(#path-21-inside-11_970_6039)"/>
<mask id="path-23-inside-12_970_6039" fill="white">
<path d="M58.9741 0.394897L48.6055 83.5831L49.3508 83.6713L59.7201 0.483483L58.9741 0.394897Z"/>
</mask>
<path d="M58.9741 0.394897L48.6055 83.5831L49.3508 83.6713L59.7201 0.483483L58.9741 0.394897Z" fill="url(#paint22_diamond_970_6039)"/>
<path d="M58.9741 0.394897L59.092 -0.598125L58.1048 -0.715371L57.9818 0.271214L58.9741 0.394897ZM48.6055 83.5831L47.6131 83.4594L47.4887 84.4579L48.4879 84.5762L48.6055 83.5831ZM49.3508 83.6713L49.2332 84.6644L50.2202 84.7812L50.3431 83.795L49.3508 83.6713ZM59.7201 0.483483L60.7124 0.607175L60.8368 -0.390924L59.838 -0.509539L59.7201 0.483483ZM57.9818 0.271214L47.6131 83.4594L49.5978 83.7068L59.9664 0.518581L57.9818 0.271214ZM48.4879 84.5762L49.2332 84.6644L49.4683 82.6783L48.723 82.5901L48.4879 84.5762ZM50.3431 83.795L60.7124 0.607175L58.7277 0.359791L48.3584 83.5476L50.3431 83.795ZM59.838 -0.509539L59.092 -0.598125L58.8562 1.38792L59.6021 1.47651L59.838 -0.509539Z" fill="url(#paint23_linear_970_6039)" mask="url(#path-23-inside-12_970_6039)"/>
<mask id="path-25-inside-13_970_6039" fill="white">
<path d="M58.9359 0.394897L58.5593 83.6681L59.3433 83.6713L59.7206 0.397966L58.9359 0.394897Z"/>
</mask>
<path d="M58.9359 0.394897L58.5593 83.6681L59.3433 83.6713L59.7206 0.397966L58.9359 0.394897Z" fill="url(#paint24_diamond_970_6039)"/>
<path d="M58.9359 0.394897L58.9398 -0.605095L57.9404 -0.609004L57.9359 0.390375L58.9359 0.394897ZM58.5593 83.6681L57.5593 83.6636L57.5548 84.664L58.5552 84.6681L58.5593 83.6681ZM59.3433 83.6713L59.3392 84.6713L60.3387 84.6754L60.3433 83.6759L59.3433 83.6713ZM59.7206 0.397966L60.7205 0.402497L60.7251 -0.598112L59.7245 -0.602026L59.7206 0.397966ZM57.9359 0.390375L57.5593 83.6636L59.5593 83.6727L59.9359 0.39942L57.9359 0.390375ZM58.5552 84.6681L59.3392 84.6713L59.3474 82.6713L58.5634 82.6681L58.5552 84.6681ZM60.3433 83.6759L60.7205 0.402497L58.7206 0.393436L58.3433 83.6668L60.3433 83.6759ZM59.7245 -0.602026L58.9398 -0.605095L58.932 1.39489L59.7166 1.39796L59.7245 -0.602026Z" fill="url(#paint25_linear_970_6039)" mask="url(#path-25-inside-13_970_6039)"/>
<defs>
<radialGradient id="paint0_diamond_970_6039" cx="0" cy="0" r="1" gradientUnits="userSpaceOnUse" gradientTransform="translate(88.4194 30.4167) rotate(90) scale(53.7522 54.3287)">
<stop stop-color="white"/>
<stop offset="1" stop-color="#C3A5F2"/>
</radialGradient>
<linearGradient id="paint1_linear_970_6039" x1="49.1468" y1="-2.70895" x2="143.255" y2="1.98433" gradientUnits="userSpaceOnUse">
<stop offset="0.0158557" stop-color="#1E1E1E"/>
<stop offset="1" stop-color="#C3A5F2"/>
</linearGradient>
<radialGradient id="paint2_diamond_970_6039" cx="0" cy="0" r="1" gradientUnits="userSpaceOnUse" gradientTransform="translate(83.5257 30.4167) rotate(90) scale(53.7522 45.3248)">
<stop stop-color="white"/>
<stop offset="1" stop-color="#C3A5F2"/>
</radialGradient>
<linearGradient id="paint3_linear_970_6039" x1="50.7617" y1="-2.70895" x2="129.332" y2="0.560064" gradientUnits="userSpaceOnUse">
<stop offset="0.0158557" stop-color="#1E1E1E"/>
<stop offset="1" stop-color="#C3A5F2"/>
</linearGradient>
<radialGradient id="paint4_diamond_970_6039" cx="0" cy="0" r="1" gradientUnits="userSpaceOnUse" gradientTransform="translate(78.6319 30.3571) rotate(90) scale(53.646 36.3209)">
<stop stop-color="white"/>
<stop offset="1" stop-color="#C3A5F2"/>
</radialGradient>
<linearGradient id="paint5_linear_970_6039" x1="52.3766" y1="-2.70315" x2="115.378" y2="-0.598477" gradientUnits="userSpaceOnUse">
<stop offset="0.0158557" stop-color="#1E1E1E"/>
<stop offset="1" stop-color="#C3A5F2"/>
</linearGradient>
<radialGradient id="paint6_diamond_970_6039" cx="0" cy="0" r="1" gradientUnits="userSpaceOnUse" gradientTransform="translate(73.8212 30.3571) rotate(90) scale(53.646 27.4696)">
<stop stop-color="white"/>
<stop offset="1" stop-color="#C3A5F2"/>
</radialGradient>
<linearGradient id="paint7_linear_970_6039" x1="53.9642" y1="-2.70315" x2="101.635" y2="-1.49872" gradientUnits="userSpaceOnUse">
<stop offset="0.0158557" stop-color="#1E1E1E"/>
<stop offset="1" stop-color="#C3A5F2"/>
</linearGradient>
<radialGradient id="paint8_diamond_970_6039" cx="0" cy="0" r="1" gradientUnits="userSpaceOnUse" gradientTransform="translate(68.7615 30.3571) rotate(90) scale(53.646 18.1604)">
<stop stop-color="white"/>
<stop offset="1" stop-color="#C3A5F2"/>
</radialGradient>
<linearGradient id="paint9_linear_970_6039" x1="55.6339" y1="-2.70315" x2="87.1607" y2="-2.17654" gradientUnits="userSpaceOnUse">
<stop offset="0.0158557" stop-color="#1E1E1E"/>
<stop offset="1" stop-color="#C3A5F2"/>
</linearGradient>
<radialGradient id="paint10_diamond_970_6039" cx="0" cy="0" r="1" gradientUnits="userSpaceOnUse" gradientTransform="translate(64.0337 30.4634) rotate(90) scale(53.5397 9.46174)">
<stop stop-color="white"/>
<stop offset="1" stop-color="#C3A5F2"/>
</radialGradient>
<linearGradient id="paint11_linear_970_6039" x1="57.1941" y1="-2.53139" x2="73.6231" y2="-2.38813" gradientUnits="userSpaceOnUse">
<stop offset="0.0158557" stop-color="#1E1E1E"/>
<stop offset="1" stop-color="#C3A5F2"/>
</linearGradient>
<radialGradient id="paint12_diamond_970_6039" cx="0" cy="0" r="1" gradientUnits="userSpaceOnUse" gradientTransform="translate(29.7771 30.2382) rotate(90) scale(53.4335 54.7865)">
<stop stop-color="white"/>
<stop offset="1" stop-color="#C3A5F2"/>
</radialGradient>
<linearGradient id="paint13_linear_970_6039" x1="-9.82645" y1="-2.69105" x2="85.0675" y2="2.10979" gradientUnits="userSpaceOnUse">
<stop offset="0.0158557" stop-color="#1E1E1E"/>
<stop offset="1" stop-color="#C3A5F2"/>
</linearGradient>
<radialGradient id="paint14_diamond_970_6039" cx="0" cy="0" r="1" gradientUnits="userSpaceOnUse" gradientTransform="translate(34.5879 30.2378) rotate(90) scale(53.4335 45.9352)">
<stop stop-color="white"/>
<stop offset="1" stop-color="#C3A5F2"/>
</radialGradient>
<linearGradient id="paint15_linear_970_6039" x1="1.38269" y1="-2.69154" x2="81.0059" y2="0.685926" gradientUnits="userSpaceOnUse">
<stop offset="0.0158557" stop-color="#1E1E1E"/>
<stop offset="1" stop-color="#C3A5F2"/>
</linearGradient>
<radialGradient id="paint16_diamond_970_6039" cx="0" cy="0" r="1" gradientUnits="userSpaceOnUse" gradientTransform="translate(39.6474 30.2378) rotate(90) scale(53.4335 36.6261)">
<stop stop-color="white"/>
<stop offset="1" stop-color="#C3A5F2"/>
</radialGradient>
<linearGradient id="paint17_linear_970_6039" x1="13.1715" y1="-2.69154" x2="76.7" y2="-0.542893" gradientUnits="userSpaceOnUse">
<stop offset="0.0158557" stop-color="#1E1E1E"/>
<stop offset="1" stop-color="#C3A5F2"/>
</linearGradient>
<radialGradient id="paint18_diamond_970_6039" cx="0" cy="0" r="1" gradientUnits="userSpaceOnUse" gradientTransform="translate(44.4581 30.2378) rotate(90) scale(53.4335 28.08)">
<stop stop-color="white"/>
<stop offset="1" stop-color="#C3A5F2"/>
</radialGradient>
<linearGradient id="paint19_linear_970_6039" x1="24.1599" y1="-2.69154" x2="72.888" y2="-1.42802" gradientUnits="userSpaceOnUse">
<stop offset="0.0158557" stop-color="#1E1E1E"/>
<stop offset="1" stop-color="#C3A5F2"/>
</linearGradient>
<radialGradient id="paint20_diamond_970_6039" cx="0" cy="0" r="1" gradientUnits="userSpaceOnUse" gradientTransform="translate(49.1857 30.3441) rotate(90) scale(53.3273 19.0761)">
<stop stop-color="white"/>
<stop offset="1" stop-color="#C3A5F2"/>
</radialGradient>
<linearGradient id="paint21_linear_970_6039" x1="35.3962" y1="-2.51978" x2="68.5115" y2="-1.93527" gradientUnits="userSpaceOnUse">
<stop offset="0.0158557" stop-color="#1E1E1E"/>
<stop offset="1" stop-color="#C3A5F2"/>
</linearGradient>
<radialGradient id="paint22_diamond_970_6039" cx="0" cy="0" r="1" gradientUnits="userSpaceOnUse" gradientTransform="translate(54.1628 30.3441) rotate(90) scale(53.3273 10.2248)">
<stop stop-color="white"/>
<stop offset="1" stop-color="#C3A5F2"/>
</radialGradient>
<linearGradient id="paint23_linear_970_6039" x1="46.7716" y1="-2.51978" x2="64.5253" y2="-2.35181" gradientUnits="userSpaceOnUse">
<stop offset="0.0158557" stop-color="#1E1E1E"/>
<stop offset="1" stop-color="#C3A5F2"/>
</linearGradient>
<radialGradient id="paint24_diamond_970_6039" cx="0" cy="0" r="1" gradientUnits="userSpaceOnUse" gradientTransform="translate(59.1399 30.3441) rotate(90) scale(53.3273 1.06826)">
<stop stop-color="white"/>
<stop offset="1" stop-color="#C3A5F2"/>
</radialGradient>
<linearGradient id="paint25_linear_970_6039" x1="58.3677" y1="-2.51978" x2="60.2228" y2="-2.51794" gradientUnits="userSpaceOnUse">
<stop offset="0.0158557" stop-color="#1E1E1E"/>
<stop offset="1" stop-color="#C3A5F2"/>
</linearGradient>
</defs>
</svg>
