<svg width="137" height="88" viewBox="0 0 137 88" fill="none" xmlns="http://www.w3.org/2000/svg">
<mask id="path-1-inside-1_970_6068" fill="white">
<path d="M0.87445 87.1415L0.346191 86.5928C12.983 74.5259 31.9965 58.2302 50.8214 49.1334C62.1248 43.6711 67.9225 43.406 68.1641 43.3961L68.192 44.1544C68.1336 44.157 62.2595 44.4373 51.073 49.854C32.3616 58.9184 13.4477 75.1327 0.87445 87.1415Z"/>
</mask>
<path d="M0.87445 87.1415L0.346191 86.5928C12.983 74.5259 31.9965 58.2302 50.8214 49.1334C62.1248 43.6711 67.9225 43.406 68.1641 43.3961L68.192 44.1544C68.1336 44.157 62.2595 44.4373 51.073 49.854C32.3616 58.9184 13.4477 75.1327 0.87445 87.1415Z" fill="url(#paint0_angular_970_6068)"/>
<path d="M0.87445 87.1415L0.154066 87.835L0.844872 88.5526L1.56514 87.8646L0.87445 87.1415ZM0.346191 86.5928L-0.344419 85.8696L-1.07062 86.563L-0.374193 87.2864L0.346191 86.5928ZM50.8214 49.1334L51.2565 50.0338L51.2565 50.0338L50.8214 49.1334ZM68.1641 43.3961L69.1634 43.3594L69.1265 42.3558L68.1231 42.397L68.1641 43.3961ZM68.192 44.1544L68.2372 45.1533L69.2278 45.1085L69.1913 44.1176L68.192 44.1544ZM51.073 49.854L50.6372 48.9539L50.6371 48.954L51.073 49.854ZM1.59483 86.4479L1.06658 85.8992L-0.374193 87.2864L0.154066 87.835L1.59483 86.4479ZM1.0368 87.316C13.6575 75.2644 32.5783 59.0597 51.2565 50.0338L50.3863 48.233C31.4146 57.4007 12.3084 73.7873 -0.344419 85.8696L1.0368 87.316ZM51.2565 50.0338C62.4469 44.6261 68.1112 44.3991 68.2051 44.3953L68.1231 42.397C67.7338 42.4129 61.8026 42.7162 50.3863 48.233L51.2565 50.0338ZM67.1648 43.4329L67.1927 44.1911L69.1913 44.1176L69.1634 43.3594L67.1648 43.4329ZM68.1468 43.1554C67.9443 43.1645 61.938 43.4819 50.6372 48.9539L51.5088 50.754C62.5811 45.3926 68.3229 45.1495 68.2372 45.1533L68.1468 43.1554ZM50.6371 48.954C31.7794 58.0893 12.773 74.3942 0.183763 86.4183L1.56514 87.8646C14.1223 75.8712 32.9438 59.7475 51.509 50.7539L50.6371 48.954Z" fill="url(#paint1_linear_970_6068)" mask="url(#path-1-inside-1_970_6068)"/>
<mask id="path-3-inside-2_970_6068" fill="white">
<path d="M0.816184 79.243L0.346191 78.6482C12.9885 68.7988 32.0106 55.497 50.8415 48.0738C62.14 43.6177 67.9277 43.4034 68.1687 43.3961L68.192 44.1525C68.1336 44.1552 62.2522 44.382 51.058 48.8045C32.3307 56.198 13.4003 69.4391 0.816184 79.243Z"/>
</mask>
<path d="M0.816184 79.243L0.346191 78.6482C12.9885 68.7988 32.0106 55.497 50.8415 48.0738C62.14 43.6177 67.9277 43.4034 68.1687 43.3961L68.192 44.1525C68.1336 44.1552 62.2522 44.382 51.058 48.8045C32.3307 56.198 13.4003 69.4391 0.816184 79.243Z" fill="url(#paint2_angular_970_6068)"/>
<path d="M0.816184 79.243L0.0315411 79.863L0.64727 80.6423L1.43076 80.0319L0.816184 79.243ZM0.346191 78.6482L-0.268389 77.8593L-1.06264 78.4781L-0.438451 79.2681L0.346191 78.6482ZM50.8415 48.0738L51.2082 49.0042L51.2084 49.0041L50.8415 48.0738ZM68.1687 43.3961L69.1683 43.3654L69.1376 42.3665L68.1387 42.3966L68.1687 43.3961ZM68.192 44.1525L68.2371 45.1515L69.2218 45.1071L69.1915 44.1218L68.192 44.1525ZM51.058 48.8045L51.4252 49.7347L51.4254 49.7346L51.058 48.8045ZM1.60083 78.6231L1.13083 78.0282L-0.438451 79.2681L0.0315411 79.863L1.60083 78.6231ZM0.960772 79.437C13.582 69.604 32.5133 56.3737 51.2082 49.0042L50.4747 47.1435C31.5079 54.6202 12.395 67.9935 -0.268389 77.8593L0.960772 79.437ZM51.2084 49.0041C62.4067 44.5875 68.0807 44.3992 68.1988 44.3957L68.1387 42.3966C67.7746 42.4075 61.8732 42.6479 50.4746 47.1436L51.2084 49.0041ZM67.1692 43.4268L67.1925 44.1833L69.1915 44.1218L69.1683 43.3654L67.1692 43.4268ZM68.1469 43.1536C68.1503 43.1534 68.136 43.154 68.1209 43.1547C68.1044 43.1555 68.0822 43.1567 68.0541 43.1584C67.9981 43.1617 67.9195 43.1669 67.8182 43.175C67.6157 43.1912 67.3232 43.219 66.9417 43.2662C66.1787 43.3604 65.06 43.532 63.5935 43.8428C60.6605 44.4646 56.3381 45.6433 50.6905 47.8745L51.4254 49.7346C56.9721 47.5433 61.1875 46.3973 64.0083 45.7994C65.4188 45.5004 66.481 45.3383 67.1869 45.2511C67.5399 45.2075 67.804 45.1826 67.978 45.1686C68.1503 45.1548 68.2359 45.1516 68.2371 45.1515L68.1469 43.1536ZM50.6907 47.8744C31.8278 55.3215 12.8067 68.6339 0.201608 78.4542L1.43076 80.0319C13.9939 70.2443 32.8337 57.0746 51.4252 49.7347L50.6907 47.8744Z" fill="url(#paint3_linear_970_6068)" mask="url(#path-3-inside-2_970_6068)"/>
<mask id="path-5-inside-3_970_6068" fill="white">
<path d="M0.944698 71.5471L0.549316 70.8992C23.3956 56.9726 40.5491 50.2377 50.9152 47.0422C62.1758 43.5682 67.9369 43.4008 68.1747 43.3961L68.1926 44.1551C68.1343 44.1578 62.2645 44.3324 51.0875 47.7833C40.7697 50.9689 23.697 57.6787 0.944698 71.5471Z"/>
</mask>
<path d="M0.944698 71.5471L0.549316 70.8992C23.3956 56.9726 40.5491 50.2377 50.9152 47.0422C62.1758 43.5682 67.9369 43.4008 68.1747 43.3961L68.1926 44.1551C68.1343 44.1578 62.2645 44.3324 51.0875 47.7833C40.7697 50.9689 23.697 57.6787 0.944698 71.5471Z" fill="url(#paint4_angular_970_6068)"/>
<path d="M0.944698 71.5471L0.0911157 72.068L0.611776 72.9211L1.46517 72.4009L0.944698 71.5471ZM0.549316 70.8992L0.0288199 70.0454L-0.825505 70.5662L-0.304266 71.4202L0.549316 70.8992ZM50.9152 47.0422L51.2098 47.9978L51.21 47.9978L50.9152 47.0422ZM68.1747 43.3961L69.1744 43.3726L69.151 42.3769L68.1552 42.3963L68.1747 43.3961ZM68.1926 44.1551L68.2379 45.1541L69.2154 45.1097L69.1923 44.1315L68.1926 44.1551ZM51.0875 47.7833L51.3825 48.7388L51.3825 48.7388L51.0875 47.7833ZM1.79828 71.0261L1.4029 70.3783L-0.304266 71.4202L0.0911157 72.068L1.79828 71.0261ZM1.06981 71.7531C23.8478 57.8681 40.9257 51.168 51.2098 47.9978L50.6206 46.0866C40.1725 49.3073 22.9434 56.0772 0.0288199 70.0454L1.06981 71.7531ZM51.21 47.9978C62.3876 44.5493 68.0561 44.3986 68.1942 44.3959L68.1552 42.3963C67.8176 42.4029 61.9639 42.587 50.6204 46.0866L51.21 47.9978ZM67.175 43.4197L67.1929 44.1787L69.1923 44.1315L69.1744 43.3726L67.175 43.4197ZM68.1472 43.1561C68.1489 43.1561 68.0361 43.1597 67.8368 43.1722C67.6378 43.1846 67.3489 43.206 66.9711 43.2425C66.2156 43.3153 65.1046 43.4482 63.6463 43.6896C60.7294 44.1724 56.4237 45.0892 50.7925 46.8278L51.3825 48.7388C56.9283 47.0266 61.146 46.1306 63.9729 45.6627C66.7952 45.1955 68.236 45.1542 68.2379 45.1541L68.1472 43.1561ZM50.7925 46.8278C40.3928 50.0386 23.2447 56.7833 0.424228 70.6932L1.46517 72.4009C24.1494 58.5741 41.1466 51.8991 51.3825 48.7388L50.7925 46.8278Z" fill="url(#paint5_linear_970_6068)" mask="url(#path-5-inside-3_970_6068)"/>
<mask id="path-7-inside-4_970_6068" fill="white">
<path d="M0.853633 63.4461L0.549316 62.7596C13.1655 57.3483 32.1506 50.0401 50.9353 45.9612C62.1891 43.5181 68.1217 43.3961 68.18 43.3961L68.1926 44.1445C68.1342 44.1445 62.2554 44.2692 51.062 46.7018C40.7311 48.9451 23.6357 53.6707 0.853633 63.4461Z"/>
</mask>
<path d="M0.853633 63.4461L0.549316 62.7596C13.1655 57.3483 32.1506 50.0401 50.9353 45.9612C62.1891 43.5181 68.1217 43.3961 68.18 43.3961L68.1926 44.1445C68.1342 44.1445 62.2554 44.2692 51.062 46.7018C40.7311 48.9451 23.6357 53.6707 0.853633 63.4461Z" fill="url(#paint6_angular_970_6068)"/>
<path d="M0.853633 63.4461L-0.0605597 63.8514L0.339901 64.7547L1.24795 64.365L0.853633 63.4461ZM0.549316 62.7596L0.155127 61.8406L-0.775089 62.2396L-0.364877 63.1649L0.549316 62.7596ZM50.9353 45.9612L50.7232 44.9839L50.7232 44.9839L50.9353 45.9612ZM68.18 43.3961L69.1799 43.3793L69.1633 42.3961H68.18V43.3961ZM68.1926 44.1445V45.1445H69.2096L69.1925 44.1277L68.1926 44.1445ZM51.062 46.7018L51.2742 47.679L51.2744 47.679L51.062 46.7018ZM1.76783 63.0408L1.46351 62.3543L-0.364877 63.1649L-0.0605597 63.8514L1.76783 63.0408ZM0.943506 63.6787C13.5358 58.2776 32.4535 50.9976 51.1475 46.9384L50.7232 44.9839C31.8476 49.0826 12.7953 56.419 0.155127 61.8406L0.943506 63.6787ZM51.1475 46.9384C62.3432 44.508 68.204 44.3961 68.18 44.3961V42.3961C68.0393 42.3961 62.035 42.5283 50.7232 44.9839L51.1475 46.9384ZM67.1801 43.4129L67.1927 44.1614L69.1925 44.1277L69.1799 43.3793L67.1801 43.4129ZM68.1926 43.1445C68.0512 43.1445 62.1005 43.2795 50.8496 45.7246L51.2744 47.679C62.4104 45.2589 68.2172 45.1445 68.1926 45.1445V43.1445ZM50.8498 45.7246C40.4575 47.9812 23.301 52.7261 0.459316 62.5271L1.24795 64.365C23.9703 54.6153 41.0047 49.909 51.2742 47.679L50.8498 45.7246Z" fill="url(#paint7_linear_970_6068)" mask="url(#path-7-inside-4_970_6068)"/>
<mask id="path-9-inside-5_970_6068" fill="white">
<path d="M0.742218 55.7501L0.549316 55.0254C23.4195 49.1359 40.5827 46.2873 50.9557 44.9351C62.2039 43.4687 68.1269 43.3961 68.1853 43.3961L68.1926 44.1457C67.9617 44.1457 44.4109 44.5032 0.742218 55.7501Z"/>
</mask>
<path d="M0.742218 55.7501L0.549316 55.0254C23.4195 49.1359 40.5827 46.2873 50.9557 44.9351C62.2039 43.4687 68.1269 43.3961 68.1853 43.3961L68.1926 44.1457C67.9617 44.1457 44.4109 44.5032 0.742218 55.7501Z" fill="url(#paint8_angular_970_6068)"/>
<path d="M0.742218 55.7501L-0.224137 56.0073L0.0310092 56.9659L0.991631 56.7185L0.742218 55.7501ZM0.549316 55.0254L0.299935 54.057L-0.676341 54.3084L-0.417039 55.2826L0.549316 55.0254ZM50.9557 44.9351L51.0849 45.9268L51.085 45.9268L50.9557 44.9351ZM68.1853 43.3961L69.1852 43.3864L69.1756 42.3961H68.1853V43.3961ZM68.1926 44.1457V45.1457H69.2024L69.1925 44.136L68.1926 44.1457ZM1.70857 55.4929L1.51567 54.7682L-0.417039 55.2826L-0.224137 56.0073L1.70857 55.4929ZM0.798697 55.9938C23.6273 50.1151 40.7503 47.2739 51.0849 45.9268L50.8264 43.9435C40.4152 45.3006 23.2117 48.1568 0.299935 54.057L0.798697 55.9938ZM51.085 45.9268C56.6888 45.1962 60.9617 44.8134 63.8361 44.6133C66.7149 44.4129 68.1859 44.3961 68.1853 44.3961V42.3961C68.0776 42.3961 62.111 42.4723 50.8264 43.9435L51.085 45.9268ZM67.1853 43.4059L67.1926 44.1554L69.1925 44.136L69.1852 43.3864L67.1853 43.4059ZM68.1926 43.1457C67.8714 43.1457 44.2368 43.5154 0.492806 54.7817L0.991631 56.7185C22.7863 51.1053 39.5514 48.2118 50.8869 46.7218C56.5547 45.9768 60.8652 45.5826 63.7684 45.3747C65.22 45.2708 66.3197 45.2135 67.0613 45.1821C67.4322 45.1665 67.7134 45.1573 67.9042 45.1521C68.1 45.1467 68.1933 45.1457 68.1926 45.1457V43.1457Z" fill="url(#paint9_linear_970_6068)" mask="url(#path-9-inside-5_970_6068)"/>
<mask id="path-11-inside-6_970_6068" fill="white">
<path d="M0.615408 48.0542L0.549316 47.3011C44.3366 43.5147 67.9588 43.3961 68.1899 43.3961L68.1926 44.1518C67.9588 44.1545 44.3645 44.2731 0.615408 48.0542Z"/>
</mask>
<path d="M0.615408 48.0542L0.549316 47.3011C44.3366 43.5147 67.9588 43.3961 68.1899 43.3961L68.1926 44.1518C67.9588 44.1545 44.3645 44.2731 0.615408 48.0542Z" fill="url(#paint10_angular_970_6068)"/>
<path d="M0.615408 48.0542L-0.380763 48.1416L-0.293453 49.1365L0.701514 49.0505L0.615408 48.0542ZM0.549316 47.3011L0.463165 46.3048L-0.534393 46.3911L-0.446855 47.3885L0.549316 47.3011ZM68.1899 43.3961L69.1899 43.3926L69.1864 42.3961H68.1899V43.3961ZM68.1926 44.1518L68.2039 45.1518L69.1961 45.1406L69.1926 44.1483L68.1926 44.1518ZM1.61158 47.9668L1.54549 47.2137L-0.446855 47.3885L-0.380763 48.1416L1.61158 47.9668ZM0.635468 48.2974C22.5147 46.4054 39.353 45.4301 50.7472 44.9277C56.4444 44.6766 60.7805 44.5436 63.7051 44.4735C65.1675 44.4385 66.2769 44.4191 67.0272 44.4085C67.4024 44.4032 67.6877 44.4001 67.8824 44.3983C67.9798 44.3974 68.0544 44.3969 68.1063 44.3966C68.1322 44.3964 68.1524 44.3963 68.1667 44.3962C68.1739 44.3962 68.1796 44.3961 68.1837 44.3961C68.1882 44.3961 68.19 44.3961 68.1899 44.3961V42.3961C67.9288 42.3961 44.2779 42.5161 0.463165 46.3048L0.635468 48.2974ZM67.1899 43.3996L67.1926 44.1553L69.1926 44.1483L69.1899 43.3926L67.1899 43.3996ZM68.1813 43.1519C68.1815 43.1519 68.1801 43.1519 68.175 43.1519C68.1706 43.152 68.1647 43.152 68.1571 43.1521C68.1421 43.1522 68.1211 43.1523 68.0944 43.1525C68.041 43.153 67.9648 43.1536 67.8659 43.1546C67.6681 43.1565 67.3798 43.1598 67.0017 43.1653C66.2456 43.1762 65.1306 43.1959 63.6631 43.2312C60.7282 43.302 56.3832 43.4354 50.6782 43.687C39.2682 44.1903 22.4183 45.1661 0.529301 47.0579L0.701514 49.0505C44.4199 45.272 67.9884 45.1542 68.2039 45.1518L68.1813 43.1519Z" fill="url(#paint11_linear_970_6068)" mask="url(#path-11-inside-6_970_6068)"/>
<mask id="path-13-inside-7_970_6068" fill="white">
<path d="M68.1899 44.0038C67.9561 44.0038 44.3346 43.88 0.549316 39.9297L0.615408 39.1432C44.3645 43.0894 67.9614 43.2152 68.1926 43.2152L68.1899 44.0038Z"/>
</mask>
<path d="M68.1899 44.0038C67.9561 44.0038 44.3346 43.88 0.549316 39.9297L0.615408 39.1432C44.3645 43.0894 67.9614 43.2152 68.1926 43.2152L68.1899 44.0038Z" fill="url(#paint12_angular_970_6068)"/>
<path d="M68.1899 44.0038V45.0038H69.1865L69.1899 44.0072L68.1899 44.0038ZM0.549316 39.9297L-0.447171 39.8459L-0.530396 40.8363L0.45946 40.9256L0.549316 39.9297ZM0.615408 39.1432L0.705244 38.1472L-0.296829 38.0568L-0.38108 39.0595L0.615408 39.1432ZM68.1926 43.2152L69.1926 43.2186L69.196 42.2152H68.1926V43.2152ZM68.1899 43.0038C68.19 43.0038 68.1883 43.0038 68.1838 43.0038C68.1796 43.0038 68.174 43.0037 68.1668 43.0037C68.1524 43.0036 68.1322 43.0035 68.1063 43.0033C68.0544 43.003 67.9797 43.0024 67.8823 43.0015C67.6875 42.9996 67.4022 42.9964 67.027 42.9909C66.2766 42.9798 65.1671 42.9596 63.7048 42.923C60.7801 42.8499 56.4442 42.7112 50.7474 42.4492C39.3538 41.9251 22.5167 40.9075 0.639172 38.9337L0.45946 40.9256C44.2733 44.8786 67.9248 45.0038 68.1899 45.0038V43.0038ZM1.5458 40.0134L1.6119 39.2269L-0.38108 39.0595L-0.447171 39.8459L1.5458 40.0134ZM0.525571 40.1391C44.3032 44.0879 67.9301 44.2152 68.1926 44.2152V42.2152C68.1927 42.2152 68.1911 42.2152 68.1866 42.2152C68.1825 42.2152 68.1769 42.2152 68.1697 42.2151C68.1553 42.2151 68.1352 42.2149 68.1094 42.2148C68.0576 42.2144 67.983 42.2138 67.8858 42.2129C67.6914 42.211 67.4064 42.2078 67.0317 42.2022C66.2823 42.1911 65.1741 42.1709 63.7134 42.1342C60.792 42.0609 56.4605 41.9221 50.7692 41.6601C39.3866 41.136 22.5647 40.119 0.705244 38.1472L0.525571 40.1391ZM67.1926 43.2118L67.1899 44.0004L69.1899 44.0072L69.1926 43.2186L67.1926 43.2118Z" fill="url(#paint13_linear_970_6068)" mask="url(#path-13-inside-7_970_6068)"/>
<mask id="path-15-inside-8_970_6068" fill="white">
<path d="M68.1826 44.0034C67.9491 44.0008 44.3209 43.6401 0.549316 32.1835L0.742211 31.4469C23.5606 37.4203 40.6853 40.3103 51.032 41.682C62.2426 43.1678 68.1342 43.2436 68.1926 43.2436L68.1826 44.0034Z"/>
</mask>
<path d="M68.1826 44.0034C67.9491 44.0008 44.3209 43.6401 0.549316 32.1835L0.742211 31.4469C23.5606 37.4203 40.6853 40.3103 51.032 41.682C62.2426 43.1678 68.1342 43.2436 68.1926 43.2436L68.1826 44.0034Z" fill="url(#paint14_angular_970_6068)"/>
<path d="M68.1826 44.0034L68.1713 45.0034L69.1695 45.0147L69.1825 44.0165L68.1826 44.0034ZM0.549316 32.1835L-0.418066 31.9302L-0.671417 32.8977L0.29611 33.1509L0.549316 32.1835ZM0.742211 31.4469L0.995457 30.4795L0.0281305 30.2263L-0.225171 31.1936L0.742211 31.4469ZM51.032 41.682L50.9006 42.6733L50.9006 42.6733L51.032 41.682ZM68.1926 43.2436L69.1925 43.2567L69.2058 42.2436H68.1926V43.2436ZM68.194 43.0035C68.194 43.0035 68.1935 43.0035 68.1923 43.0035C68.1912 43.0035 68.1897 43.0034 68.1878 43.0034C68.1839 43.0034 68.1785 43.0033 68.1716 43.0032C68.1579 43.0029 68.1385 43.0026 68.1133 43.002C68.0629 43.001 67.9897 42.9992 67.8939 42.9965C67.7022 42.9911 67.4199 42.9816 67.0478 42.9656C66.3037 42.9335 65.2004 42.875 63.7443 42.7692C60.8321 42.5574 56.5088 42.1561 50.825 41.3975C39.4576 39.8803 22.6481 36.9339 0.802523 31.2161L0.29611 33.1509C44.148 44.6285 67.8574 44.9998 68.1713 45.0034L68.194 43.0035ZM1.5167 32.4368L1.70959 31.7002L-0.225171 31.1936L-0.418066 31.9302L1.5167 32.4368ZM0.488964 32.4143C23.3495 38.3987 40.515 41.2965 50.9006 42.6733L51.1634 40.6906C40.8556 39.3242 23.7717 36.4419 0.995457 30.4795L0.488964 32.4143ZM50.9006 42.6733C62.1479 44.164 68.0838 44.2436 68.1926 44.2436V42.2436C68.1941 42.2436 66.7314 42.2261 63.8652 42.0225C61.0036 41.8192 56.7482 41.4309 51.1634 40.6906L50.9006 42.6733ZM67.1927 43.2305L67.1827 43.9903L69.1825 44.0165L69.1925 43.2567L67.1927 43.2305Z" fill="url(#paint15_linear_970_6068)" mask="url(#path-15-inside-8_970_6068)"/>
<mask id="path-17-inside-9_970_6068" fill="white">
<path d="M68.1773 44.0036C68.119 44.0036 62.1867 43.8797 50.9334 41.4126C40.5645 39.1393 23.4067 34.3483 0.549316 24.4445L0.853621 23.7511C13.4289 29.2 32.3469 36.5589 51.0627 40.6665C62.255 43.1237 68.1342 43.2476 68.1926 43.2496L68.1773 44.0036Z"/>
</mask>
<path d="M68.1773 44.0036C68.119 44.0036 62.1867 43.8797 50.9334 41.4126C40.5645 39.1393 23.4067 34.3483 0.549316 24.4445L0.853621 23.7511C13.4289 29.2 32.3469 36.5589 51.0627 40.6665C62.255 43.1237 68.1342 43.2476 68.1926 43.2496L68.1773 44.0036Z" fill="url(#paint16_angular_970_6068)"/>
<path d="M68.1773 44.0036V45.0036H69.1573L69.1771 44.0238L68.1773 44.0036ZM50.9334 41.4126L50.7192 42.3894L50.7192 42.3894L50.9334 41.4126ZM0.549316 24.4445L-0.36638 24.0426L-0.77014 24.9626L0.151745 25.3621L0.549316 24.4445ZM0.853621 23.7511L1.2512 22.8335L0.337919 22.4378L-0.0620751 23.3492L0.853621 23.7511ZM51.0627 40.6665L51.2771 39.6898L51.277 39.6897L51.0627 40.6665ZM68.1926 43.2496L69.1924 43.2698L69.2123 42.2835L68.2265 42.2501L68.1926 43.2496ZM68.1773 43.0036C68.2022 43.0036 62.3424 42.89 51.1475 40.4358L50.7192 42.3894C62.031 44.8693 68.0358 45.0036 68.1773 45.0036V43.0036ZM51.1475 40.4358C40.8406 38.1761 23.7443 33.4047 0.946888 23.5269L0.151745 25.3621C23.069 35.2918 40.2883 40.1025 50.7192 42.3894L51.1475 40.4358ZM1.46501 24.8464L1.76932 24.153L-0.0620751 23.3492L-0.36638 24.0426L1.46501 24.8464ZM0.456041 24.6687C13.0553 30.1279 32.041 37.5156 50.8483 41.6432L51.277 39.6897C32.6528 35.6023 13.8025 28.272 1.2512 22.8335L0.456041 24.6687ZM50.8482 41.6432C56.4768 42.8789 60.7773 43.5297 63.686 43.8719C65.1404 44.043 66.2467 44.1369 66.997 44.1883C67.3722 44.214 67.6583 44.2291 67.8544 44.2378C68.0495 44.2465 68.161 44.2491 68.1587 44.249L68.2265 42.2501C68.2179 42.2498 62.4002 42.1317 51.2771 39.6898L50.8482 41.6432ZM67.1928 43.2293L67.1776 43.9834L69.1771 44.0238L69.1924 43.2698L67.1928 43.2293Z" fill="url(#paint17_linear_970_6068)" mask="url(#path-17-inside-9_970_6068)"/>
<mask id="path-19-inside-10_970_6068" fill="white">
<path d="M68.1754 44.0036C67.9342 43.9982 62.1731 43.8276 50.9152 40.3312C40.549 37.1101 23.3982 30.3287 0.549316 16.3026L0.944694 15.6501C23.697 29.6175 40.7697 36.3763 51.0875 39.5868C62.2619 43.0631 68.1343 43.2411 68.1926 43.2411L68.1754 44.0036Z"/>
</mask>
<path d="M68.1754 44.0036C67.9342 43.9982 62.1731 43.8276 50.9152 40.3312C40.549 37.1101 23.3982 30.3287 0.549316 16.3026L0.944694 15.6501C23.697 29.6175 40.7697 36.3763 51.0875 39.5868C62.2619 43.0631 68.1343 43.2411 68.1926 43.2411L68.1754 44.0036Z" fill="url(#paint18_angular_970_6068)"/>
<path d="M68.1754 44.0036L68.1533 45.0033L69.1525 45.0254L69.1751 44.0261L68.1754 44.0036ZM50.9152 40.3312L50.6185 41.2862L50.6186 41.2862L50.9152 40.3312ZM0.549316 16.3026L-0.305922 15.7843L-0.821177 16.6347L0.0261593 17.1548L0.549316 16.3026ZM0.944694 15.6501L1.46787 14.7979L0.610697 14.2716L0.0894549 15.1319L0.944694 15.6501ZM51.0875 39.5868L50.7904 40.5416L50.7904 40.5416L51.0875 39.5868ZM68.1926 43.2411L69.1923 43.2637L69.2154 42.2411H68.1926V43.2411ZM68.1975 43.0038C68.0545 43.0006 62.3857 42.8465 51.2118 39.3762L50.6186 41.2862C61.9605 44.8087 67.8139 44.9958 68.1533 45.0033L68.1975 43.0038ZM51.2119 39.3763C40.928 36.1807 23.853 29.4345 1.07247 15.4503L0.0261593 17.1548C22.9434 31.2229 40.1701 38.0395 50.6185 41.2862L51.2119 39.3763ZM1.40456 16.8208L1.79993 16.1683L0.0894549 15.1319L-0.305922 15.7843L1.40456 16.8208ZM0.421519 16.5023C23.242 30.5116 40.3903 37.3056 50.7904 40.5416L51.3846 38.6319C41.149 35.4471 24.152 28.7235 1.46787 14.7979L0.421519 16.5023ZM50.7904 40.5416C62.0415 44.0419 68.015 44.2411 68.1926 44.2411V42.2411C68.2536 42.2411 62.4823 42.0844 51.3845 38.6319L50.7904 40.5416ZM67.1928 43.2185L67.1756 43.981L69.1751 44.0261L69.1923 43.2637L67.1928 43.2185Z" fill="url(#paint19_linear_970_6068)" mask="url(#path-19-inside-10_970_6068)"/>
<mask id="path-21-inside-11_970_6068" fill="white">
<path d="M68.1714 44.0037C67.9303 43.9964 62.1424 43.7782 50.8434 39.2996C32.0119 31.8319 12.989 18.4576 0.346191 8.55263L0.816202 7.95428C13.4008 17.8137 32.332 31.1269 51.0573 38.5667C62.2546 43.0149 68.1362 43.243 68.192 43.2456L68.1714 44.0037Z"/>
</mask>
<path d="M68.1714 44.0037C67.9303 43.9964 62.1424 43.7782 50.8434 39.2996C32.0119 31.8319 12.989 18.4576 0.346191 8.55263L0.816202 7.95428C13.4008 17.8137 32.332 31.1269 51.0573 38.5667C62.2546 43.0149 68.1362 43.243 68.192 43.2456L68.1714 44.0037Z" fill="url(#paint20_angular_970_6068)"/>
<path d="M68.1714 44.0037L68.1412 45.0032L69.1438 45.0336L69.171 44.0308L68.1714 44.0037ZM50.8434 39.2996L50.4748 40.2291L50.475 40.2292L50.8434 39.2996ZM0.346191 8.55263L-0.440204 7.93491L-1.05872 8.72231L-0.270526 9.33982L0.346191 8.55263ZM0.816202 7.95428L1.43292 7.1671L0.646741 6.55117L0.0298066 7.33656L0.816202 7.95428ZM51.0573 38.5667L50.6881 39.4961L50.6881 39.4961L51.0573 38.5667ZM68.192 43.2456L69.1916 43.2728L69.2182 42.2933L68.2395 42.2468L68.192 43.2456ZM68.2017 43.0042C68.0845 43.0006 62.4107 42.8089 51.2119 38.3699L50.475 40.2292C61.8741 44.7475 67.7762 44.9922 68.1412 45.0032L68.2017 43.0042ZM51.2121 38.37C32.5167 30.9563 13.5847 17.6539 0.962909 7.76545L-0.270526 9.33982C12.3934 19.2613 31.507 32.7074 50.4748 40.2291L51.2121 38.37ZM1.13259 9.17036L1.6026 8.57201L0.0298066 7.33656L-0.440204 7.93491L1.13259 9.17036ZM0.199484 8.74147C12.805 18.6173 31.8269 32.0022 50.6881 39.4961L51.4265 37.6374C32.8371 30.2515 13.9965 17.01 1.43292 7.1671L0.199484 8.74147ZM50.6881 39.4961C56.3374 41.7402 60.6608 42.9259 63.5942 43.5513C65.0608 43.8639 66.1796 44.0365 66.9424 44.1313C67.3239 44.1787 67.6162 44.2067 67.8185 44.223C67.9197 44.2312 67.9982 44.2365 68.0541 44.2398C68.1105 44.2431 68.1447 44.2445 68.1445 44.2445L68.2395 42.2468C68.2363 42.2466 68.1511 42.2434 67.9795 42.2295C67.8057 42.2155 67.5419 42.1905 67.1891 42.1466C66.4836 42.0589 65.4217 41.8959 64.0112 41.5952C61.1906 40.9939 56.9745 39.8413 51.4265 37.6374L50.6881 39.4961ZM67.1924 43.2185L67.1718 43.9766L69.171 44.0308L69.1916 43.2728L67.1924 43.2185Z" fill="url(#paint21_linear_970_6068)" mask="url(#path-21-inside-11_970_6068)"/>
<mask id="path-23-inside-12_970_6068" fill="white">
<path d="M68.1644 44.004C67.9227 43.9967 62.125 43.7297 50.8217 38.2401C31.9967 29.1006 12.9832 12.7302 0.346436 0.607175L0.874694 0.0560913C13.4479 12.1179 32.3618 28.4099 51.0733 37.5136C62.2598 42.958 68.1338 43.2369 68.1922 43.2396L68.1644 44.004Z"/>
</mask>
<path d="M68.1644 44.004C67.9227 43.9967 62.125 43.7297 50.8217 38.2401C31.9967 29.1006 12.9832 12.7302 0.346436 0.607175L0.874694 0.0560913C13.4479 12.1179 32.3618 28.4099 51.0733 37.5136C62.2598 42.958 68.1338 43.2369 68.1922 43.2396L68.1644 44.004Z" fill="url(#paint22_angular_970_6068)"/>
<path d="M68.1644 44.004L68.1341 45.0035L69.1275 45.0335L69.1637 44.0404L68.1644 44.004ZM50.8217 38.2401L51.2585 37.3406L51.2584 37.3405L50.8217 38.2401ZM0.346436 0.607175L-0.375463 -0.0848231L-1.06719 0.63679L-0.345849 1.3288L0.346436 0.607175ZM0.874694 0.0560913L1.56697 -0.66554L0.845062 -1.35809L0.152795 -0.635907L0.874694 0.0560913ZM51.0733 37.5136L51.5109 36.6144L51.5108 36.6144L51.0733 37.5136ZM68.1922 43.2396L69.1916 43.276L69.2277 42.2856L68.2377 42.2406L68.1922 43.2396ZM68.1946 43.0044C68.1946 43.0044 68.1942 43.0044 68.1932 43.0044C68.1922 43.0043 68.1908 43.0043 68.189 43.0042C68.1853 43.0041 68.1802 43.0039 68.1736 43.0035C68.1603 43.0029 68.1415 43.0019 68.117 43.0003C68.0682 42.9973 67.9975 42.9921 67.9049 42.9836C67.7198 42.9666 67.4478 42.9363 67.0888 42.8831C66.371 42.7766 65.3056 42.5783 63.8934 42.2102C61.0689 41.4741 56.8554 40.0587 51.2585 37.3406L50.3848 39.1397C61.7977 44.6824 67.7332 44.9914 68.1341 45.0035L68.1946 43.0044ZM51.2584 37.3405C32.5804 28.2723 13.6596 11.9933 1.03872 -0.114449L-0.345849 1.3288C12.3069 13.4671 31.413 29.9288 50.3849 39.1397L51.2584 37.3405ZM1.06833 1.29917L1.59659 0.74809L0.152795 -0.635907L-0.375463 -0.0848231L1.06833 1.29917ZM0.182417 0.777722C12.7714 12.8547 31.7778 29.2378 50.6358 38.4128L51.5108 36.6144C32.9458 27.582 14.1244 11.3811 1.56697 -0.66554L0.182417 0.777722ZM50.6356 38.4128C61.9369 43.913 67.9438 44.2293 68.1468 44.2385L68.2377 42.2406C68.3238 42.2445 62.5826 42.003 51.5109 36.6144L50.6356 38.4128ZM67.1929 43.2031L67.165 43.9675L69.1637 44.0404L69.1916 43.276L67.1929 43.2031Z" fill="url(#paint23_linear_970_6068)" mask="url(#path-23-inside-12_970_6068)"/>
<mask id="path-25-inside-13_970_6068" fill="white">
<path d="M68.2198 44.0035L68.1919 43.2418C68.2503 43.2398 74.1242 42.9575 85.3103 37.5154C104.021 28.4092 122.937 12.1181 135.51 0.0556641L136.038 0.606777C123.402 12.7305 104.389 29.1026 85.5646 38.242C74.2616 43.7299 68.4614 43.9962 68.2198 44.0035Z"/>
</mask>
<path d="M68.2198 44.0035L68.1919 43.2418C68.2503 43.2398 74.1242 42.9575 85.3103 37.5154C104.021 28.4092 122.937 12.1181 135.51 0.0556641L136.038 0.606777C123.402 12.7305 104.389 29.1026 85.5646 38.242C74.2616 43.7299 68.4614 43.9962 68.2198 44.0035Z" fill="url(#paint24_angular_970_6068)"/>
<path d="M68.2198 44.0035L67.2204 44.0401L67.2568 45.0331L68.25 45.0031L68.2198 44.0035ZM68.1919 43.2418L68.1578 42.2423L67.1559 42.2765L67.1926 43.2783L68.1919 43.2418ZM85.3103 37.5154L85.7478 38.4146L85.748 38.4146L85.3103 37.5154ZM135.51 0.0556641L136.232 -0.635948L135.54 -1.35892L134.818 -0.665937L135.51 0.0556641ZM136.038 0.606777L136.73 1.32836L137.451 0.636716L136.76 -0.0848345L136.038 0.606777ZM85.5646 38.242L85.1278 37.3424L85.1278 37.3424L85.5646 38.242ZM69.2191 43.967L69.1912 43.2052L67.1926 43.2783L67.2204 44.0401L69.2191 43.967ZM68.226 44.2412C68.4405 44.2339 74.451 43.9105 85.7478 38.4146L84.8729 36.6162C73.7973 42.0045 68.0601 42.2457 68.1578 42.2423L68.226 44.2412ZM85.748 38.4146C104.605 29.2371 123.614 12.855 136.202 0.777265L134.818 -0.665937C122.261 11.3812 103.437 27.5813 84.8727 36.6163L85.748 38.4146ZM134.788 0.747276L135.315 1.29839L136.76 -0.0848345L136.232 -0.635948L134.788 0.747276ZM135.345 -0.114803C122.725 11.9936 103.805 28.2743 85.1278 37.3424L86.0013 39.1416C104.973 29.9308 124.078 13.4673 136.73 1.32836L135.345 -0.114803ZM85.1278 37.3424C79.5312 40.0597 75.3171 41.4745 72.4921 42.2103C71.0795 42.5782 70.0139 42.7764 69.2958 42.8828C68.9368 42.9359 68.6646 42.9662 68.4795 42.9832C68.3869 42.9916 68.3161 42.9968 68.2672 42.9999C68.2428 43.0015 68.2239 43.0025 68.2106 43.0031C68.204 43.0034 68.1989 43.0036 68.1952 43.0038C68.1934 43.0039 68.192 43.0039 68.191 43.004C68.19 43.004 68.1895 43.004 68.1895 43.004L68.25 45.0031C68.6507 44.991 74.5887 44.6827 86.0013 39.1416L85.1278 37.3424Z" fill="url(#paint25_linear_970_6068)" mask="url(#path-25-inside-13_970_6068)"/>
<mask id="path-27-inside-14_970_6068" fill="white">
<path d="M68.2145 44.0037L68.1919 43.2431C68.2503 43.2404 74.1319 43.0123 85.3265 38.5645C104.054 31.1252 122.985 17.813 135.567 7.95428L136.038 8.55271C123.395 18.4569 104.372 31.8328 85.5404 39.2973C74.2441 43.7782 68.4562 43.9957 68.2145 44.0037Z"/>
</mask>
<path d="M68.2145 44.0037L68.1919 43.2431C68.2503 43.2404 74.1319 43.0123 85.3265 38.5645C104.054 31.1252 122.985 17.813 135.567 7.95428L136.038 8.55271C123.395 18.4569 104.372 31.8328 85.5404 39.2973C74.2441 43.7782 68.4562 43.9957 68.2145 44.0037Z" fill="url(#paint26_angular_970_6068)"/>
<path d="M68.2145 44.0037L67.2149 44.0334L67.2447 45.0362L68.2474 45.0032L68.2145 44.0037ZM68.1919 43.2431L68.1466 42.2441L67.1631 42.2887L67.1923 43.2727L68.1919 43.2431ZM85.3265 38.5645L84.9573 37.6351L84.9573 37.6352L85.3265 38.5645ZM135.567 7.95428L136.354 7.33645L135.737 6.5512L134.951 7.16714L135.567 7.95428ZM136.038 8.55271L136.654 9.33993L137.443 8.72234L136.824 7.93488L136.038 8.55271ZM85.5404 39.2973L85.1719 38.3676L85.1716 38.3677L85.5404 39.2973ZM69.214 43.974L69.1915 43.2134L67.1923 43.2727L67.2149 44.0334L69.214 43.974ZM68.2372 44.242C68.2338 44.2422 68.2481 44.2416 68.2633 44.2408C68.2798 44.24 68.302 44.2388 68.3301 44.2372C68.3861 44.2339 68.4648 44.2286 68.5661 44.2205C68.7687 44.2041 69.0613 44.1762 69.4429 44.1287C70.2061 44.0339 71.325 43.8614 72.7916 43.5487C75.7251 42.9234 80.0478 41.7378 85.6958 39.4938L84.9573 37.6352C79.4106 39.8389 75.1953 40.9914 72.3746 41.5927C70.9642 41.8934 69.9022 42.0563 69.1963 42.144C68.8434 42.1879 68.5794 42.2129 68.4054 42.2269C68.2333 42.2408 68.1477 42.244 68.1466 42.2441L68.2372 44.242ZM85.6957 39.4939C104.559 32.0006 123.581 18.6167 136.184 8.74143L134.951 7.16714C122.39 17.0094 103.549 30.2498 84.9573 37.6351L85.6957 39.4939ZM134.781 8.57212L135.251 9.17055L136.824 7.93488L136.354 7.33645L134.781 8.57212ZM135.421 7.7655C122.799 17.6533 103.867 30.9572 85.1719 38.3676L85.9089 40.2269C104.877 32.7084 123.99 19.2606 136.654 9.33993L135.421 7.7655ZM85.1716 38.3677C73.9766 42.8085 68.302 43.0003 68.1816 43.0042L68.2474 45.0032C68.6104 44.9912 74.5117 44.7479 85.9091 40.2268L85.1716 38.3677Z" fill="url(#paint27_linear_970_6068)" mask="url(#path-27-inside-14_970_6068)"/>
<mask id="path-29-inside-15_970_6068" fill="white">
<path d="M68.2098 44.0035L68.1919 43.2385C68.2504 43.2365 74.1377 43.0606 85.3482 39.5845C95.6949 36.3764 112.821 29.6189 135.641 15.6501L136.038 16.3025C113.123 30.3273 95.9181 37.1108 85.521 40.3289C74.2294 43.8276 68.451 43.9982 68.2098 44.0035Z"/>
</mask>
<path d="M68.2098 44.0035L68.1919 43.2385C68.2504 43.2365 74.1377 43.0606 85.3482 39.5845C95.6949 36.3764 112.821 29.6189 135.641 15.6501L136.038 16.3025C113.123 30.3273 95.9181 37.1108 85.521 40.3289C74.2294 43.8276 68.451 43.9982 68.2098 44.0035Z" fill="url(#paint28_angular_970_6068)"/>
<path d="M68.2098 44.0035L67.2101 44.027L67.2335 45.0254L68.2319 45.0033L68.2098 44.0035ZM68.1919 43.2385L68.1577 42.2391L67.169 42.2729L67.1922 43.2619L68.1919 43.2385ZM85.3482 39.5845L85.052 38.6294L85.052 38.6294L85.3482 39.5845ZM135.641 15.6501L136.495 15.1305L135.974 14.2736L135.119 14.7972L135.641 15.6501ZM136.038 16.3025L136.56 17.1554L137.41 16.6349L136.892 15.783L136.038 16.3025ZM85.521 40.3289L85.2253 39.3736L85.225 39.3737L85.521 40.3289ZM69.2096 43.9801L69.1916 43.2151L67.1922 43.2619L67.2101 44.027L69.2096 43.9801ZM68.2261 44.2379C68.2253 44.2379 68.2366 44.2376 68.2521 44.237C68.2679 44.2364 68.2895 44.2355 68.3168 44.2343C68.3714 44.2318 68.4487 44.2278 68.5485 44.2215C68.7482 44.2091 69.038 44.1875 69.417 44.1509C70.1749 44.0776 71.2892 43.9439 72.752 43.7008C75.6776 43.2145 79.9962 42.291 85.6444 40.5397L85.052 38.6294C79.4897 40.3541 75.2594 41.2566 72.4241 41.7278C71.0064 41.9634 69.9372 42.0913 69.2245 42.1602C68.8682 42.1946 68.6009 42.2144 68.4236 42.2254C68.2477 42.2365 68.1593 42.239 68.1577 42.2391L68.2261 44.2379ZM85.6444 40.5397C96.0731 37.3061 113.275 30.5135 136.163 16.503L135.119 14.7972C112.367 28.7243 95.3166 35.4467 85.052 38.6294L85.6444 40.5397ZM134.787 16.1696L135.183 16.8221L136.892 15.783L136.495 15.1305L134.787 16.1696ZM135.516 15.4496C112.669 29.4326 95.5402 36.181 85.2253 39.3736L85.8166 41.2842C96.2961 38.0406 113.577 31.222 136.56 17.1554L135.516 15.4496ZM85.225 39.3737C74.0173 42.8464 68.3311 43.0006 68.1877 43.0038L68.2319 45.0033C68.571 44.9958 74.4415 44.8088 85.8169 41.2841L85.225 39.3737Z" fill="url(#paint29_linear_970_6068)" mask="url(#path-29-inside-15_970_6068)"/>
<mask id="path-31-inside-16_970_6068" fill="white">
<path d="M68.2045 44.0036L68.1919 43.2477C68.2502 43.2477 74.1295 43.1211 85.3218 40.6643C95.6523 38.3966 112.747 33.6213 135.531 23.7511L135.835 24.4444C123.219 29.9097 104.235 37.2908 85.4511 41.4103C74.1951 43.8797 68.2628 44.0009 68.2045 44.0036Z"/>
</mask>
<path d="M68.2045 44.0036L68.1919 43.2477C68.2502 43.2477 74.1295 43.1211 85.3218 40.6643C95.6523 38.3966 112.747 33.6213 135.531 23.7511L135.835 24.4444C123.219 29.9097 104.235 37.2908 85.4511 41.4103C74.1951 43.8797 68.2628 44.0009 68.2045 44.0036Z" fill="url(#paint30_angular_970_6068)"/>
<path d="M68.2045 44.0036L67.2046 44.0202L67.2218 45.049L68.2496 45.0026L68.2045 44.0036ZM68.1919 43.2477V42.2477H67.1751L67.192 43.2643L68.1919 43.2477ZM85.3218 40.6643L85.5362 41.641L85.5362 41.641L85.3218 40.6643ZM135.531 23.7511L136.447 23.3492L136.047 22.4379L135.133 22.8335L135.531 23.7511ZM135.835 24.4444L136.233 25.362L137.155 24.9626L136.751 24.0425L135.835 24.4444ZM85.4511 41.4103L85.2369 40.4335L85.2368 40.4335L85.4511 41.4103ZM69.2044 43.9869L69.1918 43.231L67.192 43.2643L67.2046 44.0202L69.2044 43.9869ZM68.1919 44.2477C68.3341 44.2477 74.286 44.1106 85.5362 41.641L85.1074 39.6876C73.973 42.1317 68.1663 42.2477 68.1919 42.2477V44.2477ZM85.5362 41.641C95.9286 39.3598 113.085 34.5648 135.928 24.6687L135.133 22.8335C112.409 32.6778 95.376 37.4334 85.1074 39.6876L85.5362 41.641ZM134.615 24.153L134.919 24.8463L136.751 24.0425L136.447 23.3492L134.615 24.153ZM135.438 23.5268C122.846 28.9817 103.929 36.334 85.2369 40.4335L85.6653 42.3871C104.541 38.2475 123.593 30.8377 136.233 25.362L135.438 23.5268ZM85.2368 40.4335C74.0533 42.887 68.181 43.0036 68.1594 43.0046L68.2496 45.0026C68.2464 45.0027 68.6535 44.9936 69.4088 44.9422C70.1651 44.8908 71.28 44.7967 72.745 44.6252C75.675 44.282 80.0048 43.6289 85.6654 42.3871L85.2368 40.4335Z" fill="url(#paint31_linear_970_6068)" mask="url(#path-31-inside-16_970_6068)"/>
<mask id="path-33-inside-17_970_6068" fill="white">
<path d="M68.1992 44.0034L68.1919 43.2416C68.4255 43.2389 91.973 42.8756 135.643 31.4469L135.835 32.1835C112.968 38.1695 95.8018 41.0649 85.4289 42.4385C74.18 43.9297 68.2576 44.0034 68.1992 44.0034Z"/>
</mask>
<path d="M68.1992 44.0034L68.1919 43.2416C68.4255 43.2389 91.973 42.8756 135.643 31.4469L135.835 32.1835C112.968 38.1695 95.8018 41.0649 85.4289 42.4385C74.18 43.9297 68.2576 44.0034 68.1992 44.0034Z" fill="url(#paint32_angular_970_6068)"/>
<path d="M68.1992 44.0034L67.1992 44.013L67.2087 45.0034H68.1992V44.0034ZM68.1919 43.2416L68.1805 42.2416L67.1824 42.253L67.1919 43.2511L68.1919 43.2416ZM135.643 31.4469L136.61 31.1941L136.357 30.2262L135.39 30.4795L135.643 31.4469ZM135.835 32.1835L136.088 33.1509L137.055 32.8978L136.803 31.9308L135.835 32.1835ZM85.4289 42.4385L85.2976 41.4472L85.2974 41.4472L85.4289 42.4385ZM69.1991 43.9939L69.1918 43.232L67.1919 43.2511L67.1992 44.013L69.1991 43.9939ZM68.2033 44.2415C68.5173 44.2379 92.1461 43.864 135.896 32.4143L135.39 30.4795C113.595 36.1833 96.8309 39.1234 85.4963 40.6378C79.829 41.395 75.5189 41.7958 72.6159 42.0073C71.1644 42.1131 70.0646 42.1716 69.3229 42.2037C68.952 42.2197 68.6706 42.2292 68.4796 42.2346C68.384 42.2374 68.3111 42.2391 68.2609 42.2402C68.2358 42.2407 68.2164 42.241 68.2027 42.2413C68.1959 42.2414 68.1905 42.2415 68.1867 42.2415C68.1847 42.2416 68.1832 42.2416 68.1821 42.2416C68.181 42.2416 68.1805 42.2416 68.1805 42.2416L68.2033 44.2415ZM134.675 31.6997L134.868 32.4363L136.803 31.9308L136.61 31.1941L134.675 31.6997ZM135.582 31.2161C112.757 37.1911 95.6316 40.0787 85.2976 41.4472L85.5601 43.4299C95.972 42.0511 113.179 39.148 136.088 33.1509L135.582 31.2161ZM85.2974 41.4472C79.6935 42.1901 75.421 42.5793 72.547 42.7827C69.6686 42.9864 68.198 43.0034 68.1992 43.0034V45.0034C68.3077 45.0034 74.2744 44.9259 85.5603 43.4298L85.2974 41.4472Z" fill="url(#paint33_linear_970_6068)" mask="url(#path-33-inside-17_970_6068)"/>
<mask id="path-35-inside-18_970_6068" fill="white">
<path d="M68.1945 44.0038L68.1919 43.2152C68.4257 43.2152 92.0194 43.0894 135.769 39.1432L135.835 39.9297C92.0499 43.878 68.4284 44.001 68.1945 44.0038Z"/>
</mask>
<path d="M68.1945 44.0038L68.1919 43.2152C68.4257 43.2152 92.0194 43.0894 135.769 39.1432L135.835 39.9297C92.0499 43.878 68.4284 44.001 68.1945 44.0038Z" fill="url(#paint34_angular_970_6068)"/>
<path d="M68.1945 44.0038L67.1946 44.0072L67.198 45.0156L68.2063 45.0037L68.1945 44.0038ZM68.1919 43.2152V42.2152H67.1885L67.1919 43.2186L68.1919 43.2152ZM135.769 39.1432L136.765 39.059L136.681 38.0569L135.679 38.1472L135.769 39.1432ZM135.835 39.9297L135.925 40.9256L136.915 40.8363L136.832 39.8455L135.835 39.9297ZM69.1945 44.0004L69.1919 43.2119L67.1919 43.2186L67.1946 44.0072L69.1945 44.0004ZM68.1919 44.2152C68.4571 44.2152 92.0807 44.0879 135.859 40.1391L135.679 38.1472C113.819 40.119 96.9981 41.136 85.616 41.6601C79.9249 41.9221 75.5936 42.0609 72.6721 42.1342C71.2113 42.1709 70.1031 42.1911 69.3535 42.2022C68.9787 42.2078 68.6937 42.211 68.4991 42.2129C68.4018 42.2138 68.3272 42.2144 68.2754 42.2148C68.2494 42.2149 68.2293 42.2151 68.2149 42.2151C68.2077 42.2152 68.2021 42.2152 68.198 42.2152C68.1935 42.2152 68.1918 42.2152 68.1919 42.2152V44.2152ZM134.772 39.2273L134.839 40.0138L136.832 39.8455L136.765 39.059L134.772 39.2273ZM135.745 38.9337C91.9922 42.8791 68.3975 43.0013 68.1828 43.0039L68.2063 45.0037C68.206 45.0037 68.2074 45.0037 68.2124 45.0037C68.2168 45.0036 68.2227 45.0036 68.2303 45.0035C68.2454 45.0034 68.2664 45.0032 68.2931 45.003C68.3466 45.0026 68.4229 45.0019 68.5219 45.0009C68.72 44.9989 69.0087 44.9955 69.3873 44.9898C70.1444 44.9784 71.2607 44.9579 72.7298 44.921C75.6682 44.8472 80.0181 44.7079 85.729 44.4453C97.1509 43.92 114.017 42.9011 135.925 40.9256L135.745 38.9337Z" fill="url(#paint35_linear_970_6068)" mask="url(#path-35-inside-18_970_6068)"/>
<mask id="path-37-inside-19_970_6068" fill="white">
<path d="M135.766 48.0542C92.0131 44.2704 68.423 44.1518 68.1919 44.1518L68.1945 43.3961C68.4283 43.3961 92.049 43.5147 135.835 47.3011L135.766 48.0542Z"/>
</mask>
<path d="M135.766 48.0542C92.0131 44.2704 68.423 44.1518 68.1919 44.1518L68.1945 43.3961C68.4283 43.3961 92.049 43.5147 135.835 47.3011L135.766 48.0542Z" fill="url(#paint36_angular_970_6068)"/>
<path d="M135.766 48.0542L135.68 49.0505L136.671 49.1362L136.762 48.1455L135.766 48.0542ZM68.1919 44.1518L67.1919 44.1483L67.1884 45.1518H68.1919V44.1518ZM68.1945 43.3961V42.3961H67.1981L67.1946 43.3926L68.1945 43.3961ZM135.835 47.3011L136.831 47.3925L136.923 46.3914L135.921 46.3048L135.835 47.3011ZM135.852 47.0579C92.0719 43.2718 68.453 43.1518 68.1919 43.1518V45.1518C68.1919 45.1518 68.1936 45.1518 68.1981 45.1518C68.2022 45.1519 68.2079 45.1519 68.2151 45.1519C68.2294 45.152 68.2496 45.1521 68.2755 45.1523C68.3273 45.1526 68.4018 45.1531 68.4991 45.154C68.6935 45.1558 68.9785 45.1589 69.3532 45.1642C70.1025 45.1748 71.2106 45.1941 72.6711 45.2292C75.5923 45.2993 79.9233 45.4321 85.6142 45.6831C96.9962 46.1851 113.818 47.1598 135.68 49.0505L135.852 47.0579ZM69.1919 44.1553L69.1945 43.3996L67.1946 43.3926L67.1919 44.1483L69.1919 44.1553ZM68.1945 44.3961C68.1945 44.3961 68.1963 44.3961 68.2009 44.3961C68.205 44.3961 68.2107 44.3962 68.2179 44.3962C68.2323 44.3963 68.2525 44.3964 68.2785 44.3966C68.3304 44.3969 68.4051 44.3974 68.5025 44.3983C68.6974 44.4001 68.9828 44.4032 69.3581 44.4085C70.1086 44.4191 71.2182 44.4385 72.6806 44.4735C75.6055 44.5436 79.9416 44.6766 85.6387 44.9277C97.0327 45.4301 113.87 46.4054 135.749 48.2974L135.921 46.3048C92.1077 42.5161 68.4583 42.3961 68.1945 42.3961V44.3961ZM134.839 47.2098L134.77 47.9628L136.762 48.1455L136.831 47.3925L134.839 47.2098Z" fill="url(#paint37_linear_970_6068)" mask="url(#path-37-inside-19_970_6068)"/>
<mask id="path-39-inside-20_970_6068" fill="white">
<path d="M135.642 55.7501C112.823 49.8743 95.6992 47.0308 85.3519 45.6823C74.1419 44.2207 68.2503 44.1455 68.1919 44.1455L68.1992 43.3961C68.4328 43.3987 92.061 43.7509 135.835 55.0229L135.642 55.7501Z"/>
</mask>
<path d="M135.642 55.7501C112.823 49.8743 95.6992 47.0308 85.3519 45.6823C74.1419 44.2207 68.2503 44.1455 68.1919 44.1455L68.1992 43.3961C68.4328 43.3987 92.061 43.7509 135.835 55.0229L135.642 55.7501Z" fill="url(#paint38_angular_970_6068)"/>
<path d="M135.642 55.7501L135.393 56.7185L136.354 56.966L136.609 56.0067L135.642 55.7501ZM85.3519 45.6823L85.2226 46.6739L85.2226 46.6739L85.3519 45.6823ZM68.1919 44.1455L67.1919 44.1358L67.1821 45.1455H68.1919V44.1455ZM68.1992 43.3961L68.2104 42.3962L67.209 42.385L67.1992 43.3864L68.1992 43.3961ZM135.835 55.0229L136.802 55.2795L137.06 54.3058L136.085 54.0545L135.835 55.0229ZM135.891 54.7817C113.031 48.8952 95.8668 46.0442 85.4811 44.6907L85.2226 46.6739C95.5316 48.0175 112.616 50.8534 135.393 56.7185L135.891 54.7817ZM85.4812 44.6907C74.2352 43.2244 68.2999 43.1455 68.1919 43.1455V45.1455C68.1908 45.1455 69.6539 45.1629 72.5203 45.3634C75.3822 45.5635 79.6377 45.9457 85.2226 46.6739L85.4812 44.6907ZM69.1918 44.1553L69.1991 43.4059L67.1992 43.3864L67.1919 44.1358L69.1918 44.1553ZM68.188 44.3961C68.1882 44.3961 68.1881 44.3961 68.1885 44.3961C68.1889 44.3961 68.1892 44.3961 68.1898 44.3961C68.1909 44.3961 68.1924 44.3961 68.1944 44.3961C68.1983 44.3962 68.2037 44.3963 68.2105 44.3964C68.2243 44.3966 68.2438 44.397 68.269 44.3975C68.3194 44.3985 68.3926 44.4002 68.4885 44.4029C68.6803 44.4082 68.9626 44.4175 69.3348 44.4332C70.0791 44.4647 71.1826 44.5222 72.6388 44.6262C75.5513 44.8344 79.8751 45.2289 85.5593 45.975C96.9277 47.4672 113.738 50.3656 135.586 55.9913L136.085 54.0545C92.2311 42.7621 68.5228 42.3997 68.2104 42.3962L68.188 44.3961ZM134.869 54.7663L134.676 55.4935L136.609 56.0067L136.802 55.2795L134.869 54.7663Z" fill="url(#paint39_linear_970_6068)" mask="url(#path-39-inside-20_970_6068)"/>
<mask id="path-41-inside-21_970_6068" fill="white">
<path d="M135.534 63.4461C122.958 58.0522 104.039 50.7676 85.3225 46.7015C74.1297 44.2691 68.2502 44.1471 68.1919 44.1445L68.2045 43.3961C68.2628 43.3961 74.1954 43.5181 85.4498 45.9603C95.8185 48.2106 112.977 52.9533 135.835 62.7577L135.534 63.4461Z"/>
</mask>
<path d="M135.534 63.4461C122.958 58.0522 104.039 50.7676 85.3225 46.7015C74.1297 44.2691 68.2502 44.1471 68.1919 44.1445L68.2045 43.3961C68.2628 43.3961 74.1954 43.5181 85.4498 45.9603C95.8185 48.2106 112.977 52.9533 135.835 62.7577L135.534 63.4461Z" fill="url(#paint40_angular_970_6068)"/>
<path d="M135.534 63.4461L135.139 64.3651L136.051 64.7562L136.449 63.8475L135.534 63.4461ZM85.3225 46.7015L85.1101 47.6787L85.1102 47.6787L85.3225 46.7015ZM68.1919 44.1445L67.192 44.1277L67.1757 45.1L68.1472 45.1435L68.1919 44.1445ZM68.2045 43.3961V42.3961H67.2212L67.2046 43.3793L68.2045 43.3961ZM85.4498 45.9603L85.6619 44.983L85.6619 44.983L85.4498 45.9603ZM135.835 62.7577L136.751 63.1591L137.156 62.236L136.229 61.8387L135.835 62.7577ZM135.928 62.527C123.328 57.123 104.342 49.8101 85.5348 45.7243L85.1102 47.6787C103.736 51.725 122.587 58.9815 135.139 64.3651L135.928 62.527ZM85.5349 45.7243C79.9063 44.5011 75.6059 43.8572 72.6974 43.5185C71.2432 43.3492 70.137 43.2562 69.3869 43.2054C68.6373 43.1545 68.2347 43.1454 68.2366 43.1455L68.1472 45.1435C68.1685 45.1444 73.9887 45.2618 85.1101 47.6787L85.5349 45.7243ZM69.1918 44.1613L69.2043 43.4129L67.2046 43.3793L67.192 44.1277L69.1918 44.1613ZM68.2045 44.3961C68.1805 44.3961 74.0413 44.508 85.2377 46.9375L85.6619 44.983C74.3494 42.5283 68.3451 42.3961 68.2045 42.3961V44.3961ZM85.2377 46.9375C95.5449 49.1745 112.642 53.8979 135.441 63.6768L136.229 61.8387C113.311 52.0087 96.092 47.2467 85.6619 44.983L85.2377 46.9375ZM134.919 62.3563L134.618 63.0447L136.449 63.8475L136.751 63.1591L134.919 62.3563Z" fill="url(#paint41_linear_970_6068)" mask="url(#path-41-inside-21_970_6068)"/>
<mask id="path-43-inside-22_970_6068" fill="white">
<path d="M135.641 71.5471C112.821 57.6804 95.6969 50.971 85.3482 47.783C74.1404 44.3317 68.2504 44.1551 68.1919 44.1551L68.2098 43.3961C68.451 43.4007 74.2294 43.5701 85.521 47.0413C95.9181 50.2398 113.121 56.9743 136.038 70.8966L135.641 71.5471Z"/>
</mask>
<path d="M135.641 71.5471C112.821 57.6804 95.6969 50.971 85.3482 47.783C74.1404 44.3317 68.2504 44.1551 68.1919 44.1551L68.2098 43.3961C68.451 43.4007 74.2294 43.5701 85.521 47.0413C95.9181 50.2398 113.121 56.9743 136.038 70.8966L135.641 71.5471Z" fill="url(#paint42_angular_970_6068)"/>
<path d="M135.641 71.5471L135.122 72.4017L135.975 72.9201L136.495 72.0678L135.641 71.5471ZM85.3482 47.783L85.6426 46.8273L85.6425 46.8273L85.3482 47.783ZM68.1919 44.1551L67.1922 44.1314L67.168 45.1551H68.1919V44.1551ZM68.2098 43.3961L68.229 42.3963L67.2336 42.3772L67.2101 43.3725L68.2098 43.3961ZM85.521 47.0413L85.815 46.0855L85.8148 46.0854L85.521 47.0413ZM136.038 70.8966L136.891 71.4173L137.413 70.5621L136.557 70.042L136.038 70.8966ZM136.16 70.6925C113.272 56.7844 96.0728 50.0404 85.6426 46.8273L85.0538 48.7387C95.3209 51.9015 112.369 58.5763 135.122 72.4017L136.16 70.6925ZM85.6425 46.8273C74.3585 43.3526 68.3684 43.1551 68.1919 43.1551V45.1551C68.1323 45.1551 73.9222 45.3109 85.0539 48.7387L85.6425 46.8273ZM69.1916 44.1787L69.2096 43.4197L67.2101 43.3725L67.1922 44.1314L69.1916 44.1787ZM68.1906 44.3959C68.3321 44.3986 74.018 44.5514 85.2271 47.9971L85.8148 46.0854C74.4407 42.5889 68.57 42.4028 68.229 42.3963L68.1906 44.3959ZM85.2269 47.9971C95.5425 51.1705 112.67 57.8704 135.518 71.7513L136.557 70.042C113.572 56.0783 96.2938 49.3091 85.815 46.0855L85.2269 47.9971ZM135.184 70.3759L134.787 71.0264L136.495 72.0678L136.891 71.4173L135.184 70.3759Z" fill="url(#paint43_linear_970_6068)" mask="url(#path-43-inside-22_970_6068)"/>
<mask id="path-45-inside-23_970_6068" fill="white">
<path d="M135.566 79.243C122.981 69.4398 104.051 56.2023 85.326 48.8041C74.1291 44.382 68.2477 44.1551 68.1919 44.1525L68.2145 43.3961C68.4562 43.4034 74.244 43.6203 85.5419 48.0735C104.373 55.4987 123.396 68.7969 136.038 78.6456L135.566 79.243Z"/>
</mask>
<path d="M135.566 79.243C122.981 69.4398 104.051 56.2023 85.326 48.8041C74.1291 44.382 68.2477 44.1551 68.1919 44.1525L68.2145 43.3961C68.4562 43.4034 74.244 43.6203 85.5419 48.0735C104.373 55.4987 123.396 68.7969 136.038 78.6456L135.566 79.243Z" fill="url(#paint44_angular_970_6068)"/>
<path d="M135.566 79.243L134.951 80.0319L135.734 80.6421L136.35 79.8631L135.566 79.243ZM85.326 48.8041L85.6935 47.8741L85.6934 47.8741L85.326 48.8041ZM68.1919 44.1525L67.1923 44.1227L67.163 45.105L68.1447 45.1514L68.1919 44.1525ZM68.2145 43.3961L68.2445 42.3966L67.2448 42.3666L67.2149 43.3663L68.2145 43.3961ZM85.5419 48.0735L85.9087 47.1432L85.9086 47.1432L85.5419 48.0735ZM136.038 78.6456L136.822 79.2656L137.447 78.4756L136.652 77.8567L136.038 78.6456ZM136.18 78.4541C123.575 68.6345 104.554 55.3258 85.6935 47.8741L84.9586 49.7342C103.548 57.0789 122.388 70.2451 134.951 80.0319L136.18 78.4541ZM85.6934 47.8741C80.0444 45.6431 75.7214 44.4644 72.7884 43.8427C71.322 43.5319 70.2034 43.3604 69.4407 43.2661C69.0594 43.219 68.7671 43.1912 68.5649 43.175C68.4638 43.1668 68.3853 43.1616 68.3294 43.1583C68.2731 43.155 68.2389 43.1536 68.2391 43.1536L68.1447 45.1514C68.1478 45.1515 68.2331 45.1548 68.4049 45.1685C68.5787 45.1825 68.8426 45.2074 69.1954 45.251C69.9011 45.3382 70.9631 45.5003 72.3737 45.7993C75.1945 46.3972 79.4106 47.5431 84.9587 49.7342L85.6934 47.8741ZM69.1914 44.1823L69.214 43.426L67.2149 43.3663L67.1923 44.1227L69.1914 44.1823ZM68.1845 44.3957C68.3029 44.3992 73.9771 44.59 85.1752 49.0038L85.9086 47.1432C74.5108 42.6506 68.6095 42.4075 68.2445 42.3966L68.1845 44.3957ZM85.175 49.0038C103.871 56.3755 122.802 69.6023 135.423 79.4344L136.652 77.8567C123.989 67.9915 104.876 54.622 85.9087 47.1432L85.175 49.0038ZM135.253 78.0255L134.781 78.6229L136.35 79.8631L136.822 79.2656L135.253 78.0255Z" fill="url(#paint45_linear_970_6068)" mask="url(#path-45-inside-23_970_6068)"/>
<mask id="path-47-inside-24_970_6068" fill="white">
<path d="M135.512 87.1415C122.939 75.1354 104.024 58.9184 85.3108 49.854C74.1243 44.4346 68.2503 44.157 68.1919 44.1544L68.2198 43.3961C68.4614 43.4034 74.2591 43.6691 85.5624 49.1334C104.387 58.2302 123.401 74.5259 136.038 86.5928L135.512 87.1415Z"/>
</mask>
<path d="M135.512 87.1415C122.939 75.1354 104.024 58.9184 85.3108 49.854C74.1243 44.4346 68.2503 44.157 68.1919 44.1544L68.2198 43.3961C68.4614 43.4034 74.2591 43.6691 85.5624 49.1334C104.387 58.2302 123.401 74.5259 136.038 86.5928L135.512 87.1415Z" fill="url(#paint46_angular_970_6068)"/>
<path d="M135.512 87.1415L134.821 87.8647L135.543 88.5541L136.234 87.8333L135.512 87.1415ZM85.3108 49.854L84.8749 50.7539L84.8749 50.754L85.3108 49.854ZM68.1919 44.1544L67.1926 44.1176L67.1561 45.1085L68.1467 45.1533L68.1919 44.1544ZM68.2198 43.3961L68.2499 42.3966L67.2569 42.3667L67.2204 43.3594L68.2198 43.3961ZM85.5624 49.1334L85.1272 50.0337L85.1273 50.0338L85.5624 49.1334ZM136.038 86.5928L136.76 87.2846L137.453 86.5614L136.728 85.8696L136.038 86.5928ZM136.203 86.4182C123.613 74.3969 104.606 58.0892 85.7468 48.954L84.8749 50.754C103.442 59.7475 122.264 75.8738 134.821 87.8647L136.203 86.4182ZM85.7468 48.954C74.4458 43.4792 68.4394 43.1645 68.2371 43.1554L68.1467 45.1533C68.0612 45.1495 73.8029 45.3901 84.8749 50.7539L85.7468 48.954ZM69.1912 44.1911L69.2191 43.4329L67.2204 43.3594L67.1926 44.1176L69.1912 44.1911ZM68.1897 44.3957C68.1896 44.3957 68.1901 44.3957 68.1911 44.3957C68.1921 44.3957 68.1935 44.3958 68.1953 44.3959C68.199 44.396 68.2041 44.3962 68.2108 44.3966C68.2241 44.3972 68.2429 44.3982 68.2674 44.3997C68.3163 44.4028 68.387 44.408 68.4796 44.4165C68.6648 44.4334 68.9369 44.4635 69.2959 44.5165C70.0139 44.6225 71.0794 44.8199 72.4919 45.1863C75.3165 45.9191 79.5303 47.3281 85.1272 50.0337L85.9977 48.2331C74.585 42.716 68.65 42.4086 68.2499 42.3966L68.1897 44.3957ZM85.1273 50.0338C103.805 59.0597 122.726 75.2644 135.347 87.316L136.728 85.8696C124.075 73.7873 104.969 57.4007 85.9975 48.233L85.1273 50.0338ZM135.316 85.9009L134.79 86.4496L136.234 87.8333L136.76 87.2846L135.316 85.9009Z" fill="url(#paint47_linear_970_6068)" mask="url(#path-47-inside-24_970_6068)"/>
<defs>
<radialGradient id="paint0_angular_970_6068" cx="0" cy="0" r="1" gradientUnits="userSpaceOnUse" gradientTransform="translate(21.813 84.3407) rotate(103.299) scale(1.85044 6.18488)">
<stop offset="0.0036537" stop-color="#C3A5F2"/>
<stop offset="0.498653" stop-color="#1E1E1E"/>
</radialGradient>
<linearGradient id="paint1_linear_970_6068" x1="-10.8484" y1="41.865" x2="96.2397" y2="53.638" gradientUnits="userSpaceOnUse">
<stop offset="0.0158557" stop-color="#1E1E1E"/>
<stop offset="1" stop-color="#C3A5F2"/>
</linearGradient>
<radialGradient id="paint2_angular_970_6068" cx="0" cy="0" r="1" gradientUnits="userSpaceOnUse" gradientTransform="translate(21.813 76.9479) rotate(106.09) scale(1.53584 6.10635)">
<stop offset="0.0036537" stop-color="#C3A5F2"/>
<stop offset="0.498653" stop-color="#1E1E1E"/>
</radialGradient>
<linearGradient id="paint3_linear_970_6068" x1="-10.8484" y1="42.1415" x2="95.6177" y2="56.425" gradientUnits="userSpaceOnUse">
<stop offset="0.0158557" stop-color="#1E1E1E"/>
<stop offset="1" stop-color="#C3A5F2"/>
</linearGradient>
<radialGradient id="paint4_angular_970_6068" cx="0" cy="0" r="1" gradientUnits="userSpaceOnUse" gradientTransform="translate(21.9521 69.7447) rotate(110.113) scale(1.23412 5.94991)">
<stop offset="0.0036537" stop-color="#C3A5F2"/>
<stop offset="0.498653" stop-color="#1E1E1E"/>
</radialGradient>
<linearGradient id="paint5_linear_970_6068" x1="-10.6118" y1="42.4108" x2="94.4005" y2="60.2973" gradientUnits="userSpaceOnUse">
<stop offset="0.0158557" stop-color="#1E1E1E"/>
<stop offset="1" stop-color="#C3A5F2"/>
</linearGradient>
<radialGradient id="paint6_angular_970_6068" cx="0" cy="0" r="1" gradientUnits="userSpaceOnUse" gradientTransform="translate(21.9521 62.1624) rotate(117.211) scale(0.928089 5.63508)">
<stop offset="0.0036537" stop-color="#C3A5F2"/>
<stop offset="0.498653" stop-color="#1E1E1E"/>
</radialGradient>
<linearGradient id="paint7_linear_970_6068" x1="-10.6118" y1="42.6944" x2="91.6014" y2="67.1383" gradientUnits="userSpaceOnUse">
<stop offset="0.0158557" stop-color="#1E1E1E"/>
<stop offset="1" stop-color="#C3A5F2"/>
</linearGradient>
<radialGradient id="paint8_angular_970_6068" cx="0" cy="0" r="1" gradientUnits="userSpaceOnUse" gradientTransform="translate(21.9521 54.9592) rotate(129.844) scale(0.662376 4.86497)">
<stop offset="0.0036537" stop-color="#C3A5F2"/>
<stop offset="0.498653" stop-color="#1E1E1E"/>
</radialGradient>
<linearGradient id="paint9_linear_970_6068" x1="-10.6118" y1="42.9637" x2="83.3002" y2="79.4131" gradientUnits="userSpaceOnUse">
<stop offset="0.0158557" stop-color="#1E1E1E"/>
<stop offset="1" stop-color="#C3A5F2"/>
</linearGradient>
<radialGradient id="paint10_angular_970_6068" cx="0" cy="0" r="1" gradientUnits="userSpaceOnUse" gradientTransform="translate(21.9521 47.756) rotate(155.685) scale(0.465697 2.60903)">
<stop offset="0.0036537" stop-color="#C3A5F2"/>
<stop offset="0.498653" stop-color="#1E1E1E"/>
</radialGradient>
<linearGradient id="paint11_linear_970_6068" x1="-10.6118" y1="43.2331" x2="41.8541" y2="97.2399" gradientUnits="userSpaceOnUse">
<stop offset="0.0158557" stop-color="#1E1E1E"/>
<stop offset="1" stop-color="#C3A5F2"/>
</linearGradient>
<radialGradient id="paint12_angular_970_6068" cx="0" cy="0" r="1" gradientUnits="userSpaceOnUse" gradientTransform="translate(21.9521 43.6926) rotate(154.757) scale(0.469191 2.70219)">
<stop offset="0.0036537" stop-color="#C3A5F2"/>
<stop offset="0.498653" stop-color="#1E1E1E"/>
</radialGradient>
<linearGradient id="paint13_linear_970_6068" x1="-10.6118" y1="38.9731" x2="44.1531" y2="92.9975" gradientUnits="userSpaceOnUse">
<stop offset="0.0158557" stop-color="#1E1E1E"/>
<stop offset="1" stop-color="#C3A5F2"/>
</linearGradient>
<radialGradient id="paint14_angular_970_6068" cx="0" cy="0" r="1" gradientUnits="userSpaceOnUse" gradientTransform="translate(21.9521 43.1995) rotate(129.387) scale(0.668799 4.89724)">
<stop offset="0.0036537" stop-color="#C3A5F2"/>
<stop offset="0.498653" stop-color="#1E1E1E"/>
</radialGradient>
<linearGradient id="paint15_linear_970_6068" x1="-10.6118" y1="31.0074" x2="83.6953" y2="67.0197" gradientUnits="userSpaceOnUse">
<stop offset="0.0158557" stop-color="#1E1E1E"/>
<stop offset="1" stop-color="#C3A5F2"/>
</linearGradient>
<radialGradient id="paint16_angular_970_6068" cx="0" cy="0" r="1" gradientUnits="userSpaceOnUse" gradientTransform="translate(21.9521 42.7069) rotate(116.978) scale(0.935511 5.64684)">
<stop offset="0.0036537" stop-color="#C3A5F2"/>
<stop offset="0.498653" stop-color="#1E1E1E"/>
</radialGradient>
<linearGradient id="paint17_linear_970_6068" x1="-10.6118" y1="23.0423" x2="91.7115" y2="47.2678" gradientUnits="userSpaceOnUse">
<stop offset="0.0158557" stop-color="#1E1E1E"/>
<stop offset="1" stop-color="#C3A5F2"/>
</linearGradient>
<radialGradient id="paint18_angular_970_6068" cx="0" cy="0" r="1" gradientUnits="userSpaceOnUse" gradientTransform="translate(21.9521 42.1882) rotate(109.981) scale(1.24196 5.95493)">
<stop offset="0.0036537" stop-color="#C3A5F2"/>
<stop offset="0.498653" stop-color="#1E1E1E"/>
</radialGradient>
<linearGradient id="paint19_linear_970_6068" x1="-10.6118" y1="14.6577" x2="94.4426" y2="32.4235" gradientUnits="userSpaceOnUse">
<stop offset="0.0158557" stop-color="#1E1E1E"/>
<stop offset="1" stop-color="#C3A5F2"/>
</linearGradient>
<radialGradient id="paint20_angular_970_6068" cx="0" cy="0" r="1" gradientUnits="userSpaceOnUse" gradientTransform="translate(21.813 41.6957) rotate(106.004) scale(1.54385 6.10898)">
<stop offset="0.0036537" stop-color="#C3A5F2"/>
<stop offset="0.498653" stop-color="#1E1E1E"/>
</radialGradient>
<linearGradient id="paint21_linear_970_6068" x1="-10.8484" y1="6.69256" x2="95.6388" y2="20.8986" gradientUnits="userSpaceOnUse">
<stop offset="0.0158557" stop-color="#1E1E1E"/>
<stop offset="1" stop-color="#C3A5F2"/>
</linearGradient>
<radialGradient id="paint22_angular_970_6068" cx="0" cy="0" r="1" gradientUnits="userSpaceOnUse" gradientTransform="translate(21.8133 41.1902) rotate(103.24) scale(1.85856 6.18639)">
<stop offset="0.0036537" stop-color="#C3A5F2"/>
<stop offset="0.498653" stop-color="#1E1E1E"/>
</radialGradient>
<linearGradient id="paint23_linear_970_6068" x1="-10.8481" y1="-1.48208" x2="96.2517" y2="10.2379" gradientUnits="userSpaceOnUse">
<stop offset="0.0158557" stop-color="#1E1E1E"/>
<stop offset="1" stop-color="#C3A5F2"/>
</linearGradient>
<radialGradient id="paint24_angular_970_6068" cx="0" cy="0" r="1" gradientUnits="userSpaceOnUse" gradientTransform="translate(89.6587 41.1898) rotate(103.24) scale(1.85856 6.18639)">
<stop offset="0.0036537" stop-color="#C3A5F2"/>
<stop offset="0.498653" stop-color="#1E1E1E"/>
</radialGradient>
<linearGradient id="paint25_linear_970_6068" x1="56.9973" y1="-1.48251" x2="164.097" y2="10.2374" gradientUnits="userSpaceOnUse">
<stop offset="0.0158557" stop-color="#1E1E1E"/>
<stop offset="1" stop-color="#C3A5F2"/>
</linearGradient>
<radialGradient id="paint26_angular_970_6068" cx="0" cy="0" r="1" gradientUnits="userSpaceOnUse" gradientTransform="translate(89.6587 41.6957) rotate(106.004) scale(1.54385 6.10898)">
<stop offset="0.0036537" stop-color="#C3A5F2"/>
<stop offset="0.498653" stop-color="#1E1E1E"/>
</radialGradient>
<linearGradient id="paint27_linear_970_6068" x1="56.9973" y1="6.69256" x2="163.485" y2="20.8986" gradientUnits="userSpaceOnUse">
<stop offset="0.0158557" stop-color="#1E1E1E"/>
<stop offset="1" stop-color="#C3A5F2"/>
</linearGradient>
<radialGradient id="paint28_angular_970_6068" cx="0" cy="0" r="1" gradientUnits="userSpaceOnUse" gradientTransform="translate(89.6587 42.1882) rotate(110.036) scale(1.24239 5.97067)">
<stop offset="0.0036537" stop-color="#C3A5F2"/>
<stop offset="0.498653" stop-color="#1E1E1E"/>
</radialGradient>
<linearGradient id="paint29_linear_970_6068" x1="56.9973" y1="14.6577" x2="162.349" y2="32.5271" gradientUnits="userSpaceOnUse">
<stop offset="0.0158557" stop-color="#1E1E1E"/>
<stop offset="1" stop-color="#C3A5F2"/>
</linearGradient>
<radialGradient id="paint30_angular_970_6068" cx="0" cy="0" r="1" gradientUnits="userSpaceOnUse" gradientTransform="translate(89.5946 42.7069) rotate(116.978) scale(0.935511 5.64684)">
<stop offset="0.0036537" stop-color="#C3A5F2"/>
<stop offset="0.498653" stop-color="#1E1E1E"/>
</radialGradient>
<linearGradient id="paint31_linear_970_6068" x1="57.0308" y1="23.0423" x2="159.354" y2="47.2678" gradientUnits="userSpaceOnUse">
<stop offset="0.0158557" stop-color="#1E1E1E"/>
<stop offset="1" stop-color="#C3A5F2"/>
</linearGradient>
<radialGradient id="paint32_angular_970_6068" cx="0" cy="0" r="1" gradientUnits="userSpaceOnUse" gradientTransform="translate(89.5946 43.1995) rotate(129.387) scale(0.668799 4.89724)">
<stop offset="0.0036537" stop-color="#C3A5F2"/>
<stop offset="0.498653" stop-color="#1E1E1E"/>
</radialGradient>
<linearGradient id="paint33_linear_970_6068" x1="57.0308" y1="31.0074" x2="151.338" y2="67.0197" gradientUnits="userSpaceOnUse">
<stop offset="0.0158557" stop-color="#1E1E1E"/>
<stop offset="1" stop-color="#C3A5F2"/>
</linearGradient>
<radialGradient id="paint34_angular_970_6068" cx="0" cy="0" r="1" gradientUnits="userSpaceOnUse" gradientTransform="translate(89.5946 43.6926) rotate(154.757) scale(0.469191 2.70219)">
<stop offset="0.0036537" stop-color="#C3A5F2"/>
<stop offset="0.498653" stop-color="#1E1E1E"/>
</radialGradient>
<linearGradient id="paint35_linear_970_6068" x1="57.0308" y1="38.9731" x2="111.796" y2="92.9975" gradientUnits="userSpaceOnUse">
<stop offset="0.0158557" stop-color="#1E1E1E"/>
<stop offset="1" stop-color="#C3A5F2"/>
</linearGradient>
<radialGradient id="paint36_angular_970_6068" cx="0" cy="0" r="1" gradientUnits="userSpaceOnUse" gradientTransform="translate(89.5946 47.756) rotate(155.685) scale(0.465697 2.60903)">
<stop offset="0.0036537" stop-color="#C3A5F2"/>
<stop offset="0.498653" stop-color="#1E1E1E"/>
</radialGradient>
<linearGradient id="paint37_linear_970_6068" x1="57.0308" y1="43.2331" x2="109.497" y2="97.2399" gradientUnits="userSpaceOnUse">
<stop offset="0.0158557" stop-color="#1E1E1E"/>
<stop offset="1" stop-color="#C3A5F2"/>
</linearGradient>
<radialGradient id="paint38_angular_970_6068" cx="0" cy="0" r="1" gradientUnits="userSpaceOnUse" gradientTransform="translate(89.5946 54.9592) rotate(129.844) scale(0.662376 4.86497)">
<stop offset="0.0036537" stop-color="#C3A5F2"/>
<stop offset="0.498653" stop-color="#1E1E1E"/>
</radialGradient>
<linearGradient id="paint39_linear_970_6068" x1="57.0308" y1="42.9637" x2="150.943" y2="79.4131" gradientUnits="userSpaceOnUse">
<stop offset="0.0158557" stop-color="#1E1E1E"/>
<stop offset="1" stop-color="#C3A5F2"/>
</linearGradient>
<radialGradient id="paint40_angular_970_6068" cx="0" cy="0" r="1" gradientUnits="userSpaceOnUse" gradientTransform="translate(89.5946 62.1624) rotate(117.211) scale(0.928089 5.63508)">
<stop offset="0.0036537" stop-color="#C3A5F2"/>
<stop offset="0.498653" stop-color="#1E1E1E"/>
</radialGradient>
<linearGradient id="paint41_linear_970_6068" x1="57.0308" y1="42.6944" x2="159.244" y2="67.1383" gradientUnits="userSpaceOnUse">
<stop offset="0.0158557" stop-color="#1E1E1E"/>
<stop offset="1" stop-color="#C3A5F2"/>
</linearGradient>
<radialGradient id="paint42_angular_970_6068" cx="0" cy="0" r="1" gradientUnits="userSpaceOnUse" gradientTransform="translate(89.6587 69.7447) rotate(110.169) scale(1.23456 5.96561)">
<stop offset="0.0036537" stop-color="#C3A5F2"/>
<stop offset="0.498653" stop-color="#1E1E1E"/>
</radialGradient>
<linearGradient id="paint43_linear_970_6068" x1="56.9973" y1="42.4108" x2="162.306" y2="60.4015" gradientUnits="userSpaceOnUse">
<stop offset="0.0158557" stop-color="#1E1E1E"/>
<stop offset="1" stop-color="#C3A5F2"/>
</linearGradient>
<radialGradient id="paint44_angular_970_6068" cx="0" cy="0" r="1" gradientUnits="userSpaceOnUse" gradientTransform="translate(89.6587 76.9479) rotate(106.09) scale(1.53584 6.10635)">
<stop offset="0.0036537" stop-color="#C3A5F2"/>
<stop offset="0.498653" stop-color="#1E1E1E"/>
</radialGradient>
<linearGradient id="paint45_linear_970_6068" x1="56.9973" y1="42.1415" x2="163.463" y2="56.425" gradientUnits="userSpaceOnUse">
<stop offset="0.0158557" stop-color="#1E1E1E"/>
<stop offset="1" stop-color="#C3A5F2"/>
</linearGradient>
<radialGradient id="paint46_angular_970_6068" cx="0" cy="0" r="1" gradientUnits="userSpaceOnUse" gradientTransform="translate(89.6587 84.3407) rotate(103.299) scale(1.85044 6.18488)">
<stop offset="0.0036537" stop-color="#C3A5F2"/>
<stop offset="0.498653" stop-color="#1E1E1E"/>
</radialGradient>
<linearGradient id="paint47_linear_970_6068" x1="56.9973" y1="41.865" x2="164.085" y2="53.638" gradientUnits="userSpaceOnUse">
<stop offset="0.0158557" stop-color="#1E1E1E"/>
<stop offset="1" stop-color="#C3A5F2"/>
</linearGradient>
</defs>
</svg>
