<svg width="109" height="95" viewBox="0 0 109 95" fill="none" xmlns="http://www.w3.org/2000/svg">
<path d="M109 94.0504H0.112305L54.1952 0.479004L109 94.0504ZM1.29799 93.3673H107.807L54.1993 1.83951L1.29799 93.3673Z" fill="url(#paint0_linear_970_6102)"/>
<path d="M108.115 94.05C97.8764 94.05 76.1869 91.79 63.7566 83.1058L63.7316 83.0856L36.0098 59.5217L36.4548 59.0032L64.1653 82.5558C76.6797 91.29 98.7344 93.4501 108.654 93.3633L108.658 94.0458C108.483 94.0476 108.3 94.05 108.115 94.05Z" fill="url(#paint1_linear_970_6102)"/>
<path d="M3.93651 88.9466L3.36108 88.5717C6.5529 83.7693 14.9757 71.8878 24.2029 65.3203C31.6325 60.0319 40.7847 57.2698 49.6337 54.5956C55.6415 52.7806 61.319 51.0677 66.4834 48.6258L66.779 49.2413C61.569 51.704 55.8686 53.4258 49.8357 55.2474C41.0389 57.9032 31.9447 60.6498 24.6069 65.8729C15.4708 72.3744 7.10794 84.1739 3.93651 88.9466Z" fill="url(#paint2_linear_970_6102)"/>
<path d="M6.84541 83.842L6.77905 84.5324L94.4031 93.1991L94.4701 92.5081L6.84541 83.842Z" fill="url(#paint3_linear_970_6102)"/>
<path d="M12.7275 76.1867L12.5918 76.8618L90.5746 92.6893L90.7103 92.0141L12.7275 76.1867Z" fill="url(#paint4_linear_970_6102)"/>
<path d="M60.8515 80.2696L60.1816 80.1418L66.5614 46.3772C68.0973 32.3889 61.2263 14.7852 57.3777 7.42964L57.9817 7.11377C61.8647 14.5352 68.7975 32.3092 67.2385 46.464L67.2337 46.489L60.8515 80.2696Z" fill="url(#paint5_linear_970_6102)"/>
<path d="M59.0259 8.6452L58.4026 8.92454L96.4106 93.1997L97.0345 92.9205L59.0259 8.6452Z" fill="url(#paint6_linear_970_6102)"/>
<path d="M67.0004 44.5422L30.7107 61.1157L31.0022 61.7253L67.2914 45.1525L67.0004 44.5422Z" fill="url(#paint7_linear_970_6102)"/>
<path d="M59.3844 11.0269L5.07031 85.4848L5.62721 85.884L59.9413 11.4261L59.3844 11.0269Z" fill="url(#paint8_linear_970_6102)"/>
<path d="M62.8471 19.7035L12.4204 76.4136L12.9331 76.8671L63.3598 20.1572L62.8471 19.7035Z" fill="url(#paint9_linear_970_6102)"/>
<path d="M63.517 83.1617C58.4361 80.0593 41.402 68.1151 31.9072 61.2572L32.3087 60.7045C41.5705 67.3941 58.8822 79.5316 63.8726 82.5793L63.517 83.1617Z" fill="url(#paint10_linear_970_6102)"/>
<path d="M65.8793 84.6935C63.8741 84.0268 39.7202 70.4681 28.1133 63.9525L27.634 63.6827L27.9707 63.087L28.45 63.3568C39.1331 69.3543 64.1508 83.3995 66.095 84.0453L65.8793 84.6935Z" fill="url(#paint11_linear_970_6102)"/>
<path d="M70.1591 86.7345C65.6982 85.3249 37.1495 73.1725 22.6763 66.9437L22.9516 66.3189C37.4134 72.5429 65.9346 84.6816 70.3679 86.0841L70.1591 86.7345Z" fill="url(#paint12_linear_970_6102)"/>
<path d="M75.02 88.9463C69.7273 87.8828 26.502 74.1425 17.8909 71.3991L18.0987 70.7424C26.7033 73.4827 69.8987 87.2141 75.155 88.2709L75.02 88.9463Z" fill="url(#paint13_linear_970_6102)"/>
<path d="M63.4927 19.7035L62.8464 19.92L86.8146 91.6684L87.4615 91.4518L63.4927 19.7035Z" fill="url(#paint14_linear_970_6102)"/>
<path d="M66.9406 39.9492L29.8564 61.8247L30.2076 62.4063L67.2918 40.5308L66.9406 39.9492Z" fill="url(#paint15_linear_970_6102)"/>
<path d="M64.9467 27.5299L23.0186 65.9897L23.4823 66.4896L65.4111 28.0298L64.9467 27.5299Z" fill="url(#paint16_linear_970_6102)"/>
<path d="M66.5366 33.8246L27.1211 63.3875L27.534 63.9376L66.9496 34.3741L66.5366 33.8246Z" fill="url(#paint17_linear_970_6102)"/>
<path d="M65.5733 27.8698L64.8982 28.0172L78.7522 89.797L79.4279 89.6495L65.5733 27.8698Z" fill="url(#paint18_linear_970_6102)"/>
<path d="M66.2308 48.7958L63.3594 82.7679L64.0777 82.8218L66.9491 48.8497L66.2308 48.7958Z" fill="url(#paint19_linear_970_6102)"/>
<path d="M67.4419 38.4177L66.7783 38.4978L72.4394 87.7554L73.103 87.6747L67.4419 38.4177Z" fill="url(#paint20_linear_970_6102)"/>
<path d="M67.6213 44.0319L66.949 44.0408L67.4738 85.2033L68.1455 85.195L67.6213 44.0319Z" fill="url(#paint21_linear_970_6102)"/>
<defs>
<linearGradient id="paint0_linear_970_6102" x1="-17.8541" y1="-2.79599" x2="154.916" y2="11.4553" gradientUnits="userSpaceOnUse">
<stop offset="0.0158557" stop-color="#1E1E1E"/>
<stop offset="1" stop-color="#C3A5F2"/>
</linearGradient>
<linearGradient id="paint1_linear_970_6102" x1="24.0228" y1="57.7766" x2="137.625" y2="74.4689" gradientUnits="userSpaceOnUse">
<stop offset="0.0158557" stop-color="#1E1E1E"/>
<stop offset="1" stop-color="#C3A5F2"/>
</linearGradient>
<linearGradient id="paint2_linear_970_6102" x1="-7.10287" y1="47.2146" x2="92.9622" y2="58.3708" gradientUnits="userSpaceOnUse">
<stop offset="0.0158557" stop-color="#1E1E1E"/>
<stop offset="1" stop-color="#C3A5F2"/>
</linearGradient>
<linearGradient id="paint3_linear_970_6102" x1="-7.68997" y1="83.5145" x2="89.5037" y2="148.08" gradientUnits="userSpaceOnUse">
<stop offset="0.0158557" stop-color="#1E1E1E"/>
<stop offset="1" stop-color="#C3A5F2"/>
</linearGradient>
<linearGradient id="paint4_linear_970_6102" x1="-0.29776" y1="75.6091" x2="111.866" y2="113.245" gradientUnits="userSpaceOnUse">
<stop offset="0.0158557" stop-color="#1E1E1E"/>
<stop offset="1" stop-color="#C3A5F2"/>
</linearGradient>
<linearGradient id="paint5_linear_970_6102" x1="55.7136" y1="4.55332" x2="71.8232" y2="4.71074" gradientUnits="userSpaceOnUse">
<stop offset="0.0158557" stop-color="#1E1E1E"/>
<stop offset="1" stop-color="#C3A5F2"/>
</linearGradient>
<linearGradient id="paint6_linear_970_6102" x1="52.0283" y1="5.6858" x2="113.677" y2="7.68238" gradientUnits="userSpaceOnUse">
<stop offset="0.0158557" stop-color="#1E1E1E"/>
<stop offset="1" stop-color="#C3A5F2"/>
</linearGradient>
<linearGradient id="paint7_linear_970_6102" x1="24.6749" y1="43.9408" x2="81.8107" y2="52.5629" gradientUnits="userSpaceOnUse">
<stop offset="0.0158557" stop-color="#1E1E1E"/>
<stop offset="1" stop-color="#C3A5F2"/>
</linearGradient>
<linearGradient id="paint8_linear_970_6102" x1="-3.9834" y1="8.40686" x2="83.4359" y2="12.9491" gradientUnits="userSpaceOnUse">
<stop offset="0.0158557" stop-color="#1E1E1E"/>
<stop offset="1" stop-color="#C3A5F2"/>
</linearGradient>
<linearGradient id="paint9_linear_970_6102" x1="4.0154" y1="17.7028" x2="85.0668" y2="22.8225" gradientUnits="userSpaceOnUse">
<stop offset="0.0158557" stop-color="#1E1E1E"/>
<stop offset="1" stop-color="#C3A5F2"/>
</linearGradient>
<linearGradient id="paint10_linear_970_6102" x1="26.6329" y1="59.9185" x2="77.1824" y2="65.0188" gradientUnits="userSpaceOnUse">
<stop offset="0.0158557" stop-color="#1E1E1E"/>
<stop offset="1" stop-color="#C3A5F2"/>
</linearGradient>
<linearGradient id="paint11_linear_970_6102" x1="21.288" y1="62.3308" x2="81.7658" y2="69.9619" gradientUnits="userSpaceOnUse">
<stop offset="0.0158557" stop-color="#1E1E1E"/>
<stop offset="1" stop-color="#C3A5F2"/>
</linearGradient>
<linearGradient id="paint12_linear_970_6102" x1="14.8072" y1="65.6044" x2="88.9603" y2="77.8833" gradientUnits="userSpaceOnUse">
<stop offset="0.0158557" stop-color="#1E1E1E"/>
<stop offset="1" stop-color="#C3A5F2"/>
</linearGradient>
<linearGradient id="paint13_linear_970_6102" x1="8.44229" y1="70.1052" x2="95.5877" y2="89.5371" gradientUnits="userSpaceOnUse">
<stop offset="0.0158557" stop-color="#1E1E1E"/>
<stop offset="1" stop-color="#C3A5F2"/>
</linearGradient>
<linearGradient id="paint14_linear_970_6102" x1="58.785" y1="17.1847" x2="98.0839" y2="18.1375" gradientUnits="userSpaceOnUse">
<stop offset="0.0158557" stop-color="#1E1E1E"/>
<stop offset="1" stop-color="#C3A5F2"/>
</linearGradient>
<linearGradient id="paint15_linear_970_6102" x1="23.6796" y1="39.1632" x2="82.6584" y2="46.1322" gradientUnits="userSpaceOnUse">
<stop offset="0.0158557" stop-color="#1E1E1E"/>
<stop offset="1" stop-color="#C3A5F2"/>
</linearGradient>
<linearGradient id="paint16_linear_970_6102" x1="16.0238" y1="26.1663" x2="83.3446" y2="31.3588" gradientUnits="userSpaceOnUse">
<stop offset="0.0158557" stop-color="#1E1E1E"/>
<stop offset="1" stop-color="#C3A5F2"/>
</linearGradient>
<linearGradient id="paint17_linear_970_6102" x1="20.5494" y1="32.7707" x2="83.6202" y2="38.6839" gradientUnits="userSpaceOnUse">
<stop offset="0.0158557" stop-color="#1E1E1E"/>
<stop offset="1" stop-color="#C3A5F2"/>
</linearGradient>
<linearGradient id="paint18_linear_970_6102" x1="62.5008" y1="25.7023" x2="85.7053" y2="26.0882" gradientUnits="userSpaceOnUse">
<stop offset="0.0158557" stop-color="#1E1E1E"/>
<stop offset="1" stop-color="#C3A5F2"/>
</linearGradient>
<linearGradient id="paint19_linear_970_6102" x1="62.7671" y1="47.6049" x2="68.5012" y2="47.6478" gradientUnits="userSpaceOnUse">
<stop offset="0.0158557" stop-color="#1E1E1E"/>
<stop offset="1" stop-color="#C3A5F2"/>
</linearGradient>
<linearGradient id="paint20_linear_970_6102" x1="65.7347" y1="36.6909" x2="75.8375" y2="36.7827" gradientUnits="userSpaceOnUse">
<stop offset="0.0158557" stop-color="#1E1E1E"/>
<stop offset="1" stop-color="#C3A5F2"/>
</linearGradient>
<linearGradient id="paint21_linear_970_6102" x1="66.7515" y1="42.5909" x2="68.663" y2="42.5948" gradientUnits="userSpaceOnUse">
<stop offset="0.0158557" stop-color="#1E1E1E"/>
<stop offset="1" stop-color="#C3A5F2"/>
</linearGradient>
</defs>
</svg>
