<svg width="102" height="103" viewBox="0 0 102 103" fill="none" xmlns="http://www.w3.org/2000/svg">
<g opacity="0.5">
<path d="M95.0203 25.6894L6.32568 76.0131L6.66362 76.6103L95.3582 26.2867L95.0203 25.6894Z" fill="url(#paint0_linear_970_6125)"/>
<path d="M100.41 38.3406L1.42358 63.2909L1.59037 63.9592L100.577 39.0084L100.41 38.3406Z" fill="url(#paint1_linear_970_6125)"/>
<path d="M0.0113542 50.043L0 50.7448L101.989 52.4151L102 51.7134L0.0113542 50.043Z" fill="url(#paint2_linear_970_6125)"/>
<path d="M1.927 36.9174L1.73926 37.5736L99.9137 65.3825L100.102 64.727L1.927 36.9174Z" fill="url(#paint3_linear_970_6125)"/>
<path d="M7.46859 24.7406L7.11646 25.3286L94.5323 77.7173L94.8839 77.1294L7.46859 24.7406Z" fill="url(#paint4_linear_970_6125)"/>
<path d="M15.6734 14.3035L15.1814 14.7813L86.0109 88.1547L86.5023 87.677L15.6734 14.3035Z" fill="url(#paint5_linear_970_6125)"/>
<path d="M26.5318 6.55463L25.9351 6.88748L75.3104 95.9035L75.9072 95.571L26.5318 6.55463Z" fill="url(#paint6_linear_970_6125)"/>
<path d="M38.9349 1.65228L38.2705 1.81915L63.0666 100.806L63.731 100.639L38.9349 1.65228Z" fill="url(#paint7_linear_970_6125)"/>
<path d="M51.4816 0.229004L49.814 102.06L50.5191 102.071L52.1861 0.239928L51.4816 0.229004Z" fill="url(#paint8_linear_970_6125)"/>
<path d="M64.4978 2.12671L36.6887 100.143L37.3448 100.331L65.1538 2.3145L64.4978 2.12671Z" fill="url(#paint9_linear_970_6125)"/>
<path d="M76.9003 7.34534L24.5115 94.7611L25.1 95.1128L77.4882 7.69707L76.9003 7.34534Z" fill="url(#paint10_linear_970_6125)"/>
<path d="M87.4472 15.4103L14.074 86.553L14.5514 87.0475L87.9251 15.9042L87.4472 15.4103Z" fill="url(#paint11_linear_970_6125)"/>
</g>
<defs>
<linearGradient id="paint0_linear_970_6125" x1="-8.36469" y1="23.9072" x2="131.711" y2="41.2679" gradientUnits="userSpaceOnUse">
<stop offset="0.0158557" stop-color="#1E1E1E"/>
<stop offset="1" stop-color="#C3A5F2"/>
</linearGradient>
<linearGradient id="paint1_linear_970_6125" x1="-14.9367" y1="37.444" x2="132.371" y2="77.858" gradientUnits="userSpaceOnUse">
<stop offset="0.0158557" stop-color="#1E1E1E"/>
<stop offset="1" stop-color="#C3A5F2"/>
</linearGradient>
<linearGradient id="paint2_linear_970_6125" x1="-16.83" y1="49.96" x2="-0.995748" y2="98.2234" gradientUnits="userSpaceOnUse">
<stop offset="0.0158557" stop-color="#1E1E1E"/>
<stop offset="1" stop-color="#C3A5F2"/>
</linearGradient>
<linearGradient id="paint3_linear_970_6125" x1="-14.4906" y1="35.9211" x2="133.748" y2="72.2316" gradientUnits="userSpaceOnUse">
<stop offset="0.0158557" stop-color="#1E1E1E"/>
<stop offset="1" stop-color="#C3A5F2"/>
</linearGradient>
<linearGradient id="paint4_linear_970_6125" x1="-7.36517" y1="22.8864" x2="130.934" y2="39.1277" gradientUnits="userSpaceOnUse">
<stop offset="0.0158557" stop-color="#1E1E1E"/>
<stop offset="1" stop-color="#C3A5F2"/>
</linearGradient>
<linearGradient id="paint5_linear_970_6125" x1="3.41344" y1="11.7187" x2="116.816" y2="19.4818" gradientUnits="userSpaceOnUse">
<stop offset="0.0158557" stop-color="#1E1E1E"/>
<stop offset="1" stop-color="#C3A5F2"/>
</linearGradient>
<linearGradient id="paint6_linear_970_6125" x1="17.6897" y1="3.42742" x2="97.3939" y2="6.58731" gradientUnits="userSpaceOnUse">
<stop offset="0.0158557" stop-color="#1E1E1E"/>
<stop offset="1" stop-color="#C3A5F2"/>
</linearGradient>
<linearGradient id="paint7_linear_970_6125" x1="34.0695" y1="-1.81809" x2="74.7287" y2="-1.07802" gradientUnits="userSpaceOnUse">
<stop offset="0.0158557" stop-color="#1E1E1E"/>
<stop offset="1" stop-color="#C3A5F2"/>
</linearGradient>
<linearGradient id="paint8_linear_970_6125" x1="49.4226" y1="-3.33546" x2="53.2119" y2="-3.3292" gradientUnits="userSpaceOnUse">
<stop offset="0.0158557" stop-color="#1E1E1E"/>
<stop offset="1" stop-color="#C3A5F2"/>
</linearGradient>
<linearGradient id="paint9_linear_970_6125" x1="31.992" y1="-1.31045" x2="77.4453" y2="-0.376556" gradientUnits="userSpaceOnUse">
<stop offset="0.0158557" stop-color="#1E1E1E"/>
<stop offset="1" stop-color="#C3A5F2"/>
</linearGradient>
<linearGradient id="paint10_linear_970_6125" x1="15.7703" y1="4.27348" x2="100.245" y2="7.88783" gradientUnits="userSpaceOnUse">
<stop offset="0.0158557" stop-color="#1E1E1E"/>
<stop offset="1" stop-color="#C3A5F2"/>
</linearGradient>
<linearGradient id="paint11_linear_970_6125" x1="1.88853" y1="12.903" x2="119.238" y2="21.4783" gradientUnits="userSpaceOnUse">
<stop offset="0.0158557" stop-color="#1E1E1E"/>
<stop offset="1" stop-color="#C3A5F2"/>
</linearGradient>
</defs>
</svg>
