<svg width="133" height="133" viewBox="0 0 133 133" fill="none" xmlns="http://www.w3.org/2000/svg">
<rect width="133" height="133" fill="url(#paint0_linear_1139_491)"/>
<path d="M58.36 43.2614C57.64 43.3802 55.048 43.998 52.6 44.6158C48.448 45.6614 47.968 45.7327 45.28 45.7089C43.264 45.6852 41.848 45.5426 40.552 45.2099L38.704 44.7347L37.888 45.5901L37.048 46.4456L37.24 51.7921C37.36 54.7386 37.624 63.1267 37.816 70.4456C38.032 77.7644 38.272 85.0594 38.344 86.6515L38.488 89.5743H51.256H64.048L64.6 90.1446C65.632 91.2614 67.6 91.2376 68.92 90.1208L69.688 89.503L82.624 89.6693C95.032 89.8356 95.56 89.8356 95.56 89.4079C95.56 88.8139 96.472 61.4158 96.76 53.2416L97 46.4693L96.352 45.7564C95.968 45.3525 95.656 44.9723 95.632 44.9248C95.608 44.8772 94.624 45.0911 93.472 45.4C90.136 46.303 87.328 46.1842 82.48 44.9248C77.08 43.5228 75.52 43.2139 73.6 43.2139C71.608 43.1901 69.664 43.8317 68.128 44.996L67.12 45.7564L66.112 44.996C64.072 43.4515 61.096 42.7861 58.36 43.2614ZM64.288 44.6158C64.84 44.901 65.68 45.5188 66.16 46.0178L67 46.897L67.912 46.0416C69.76 44.2594 71.776 43.6891 74.584 44.1644C75.496 44.3307 78.424 44.996 81.112 45.6376C83.8 46.2792 87.088 46.9921 88.456 47.1822C90.616 47.4911 91.096 47.4911 92.584 47.1822C93.496 46.9921 94.456 46.7545 94.696 46.6594C95.128 46.4931 95.152 46.6119 95.008 49.4396C94.912 51.0555 94.72 58.2079 94.576 65.3366C94.432 72.4654 94.24 80.3782 94.168 82.9208L94 87.5545L92.32 87.9822C90.424 88.4812 88.12 88.4099 85.96 87.8158C79.36 85.9624 75.064 85.4158 72.64 86.1287C71.08 86.5564 69.064 87.5307 67.648 88.4812C67.144 88.8139 66.64 89.099 66.544 89.099C66.424 89.099 65.92 88.7663 65.416 88.3624C64.888 87.9584 63.736 87.2456 62.8 86.7703C61.312 86.0337 60.856 85.9149 58.912 85.8198C56.368 85.701 54.904 85.9149 49.48 87.2456C46.048 88.0772 45.28 88.196 43.72 88.0772C42.736 88.0059 41.488 87.7921 40.96 87.602L40 87.2693L39.856 83.1347C39.592 76.4099 39.064 46.802 39.208 46.6832C39.256 46.6119 40.12 46.7307 41.104 46.9446C43.456 47.4436 45.4 47.2535 50.8 46.0416C53.176 45.4951 56.2 44.8059 57.52 44.5208C60.496 43.8317 62.8 43.8792 64.288 44.6158Z" fill="black"/>
<path d="M66.232 48.1565L65.56 48.2515V59.7287C65.56 68.307 65.488 71.2535 65.272 71.4673C65.056 71.6812 65.416 71.7525 66.976 71.7525C68.68 71.7525 68.944 71.705 68.704 71.4198C68.368 71.0396 68.44 67.5941 68.752 67.5941C68.872 67.5941 69.52 68.5208 70.192 69.6614L71.44 71.7287L74.512 71.7525C77.176 71.7525 77.56 71.705 77.56 71.3723C77.56 71.1584 78.4 69.6614 79.432 68.0456L81.28 65.1466L81.352 68.4495L81.424 71.7525H82.912H84.4V66.6436V61.5347H82.672H80.968L79.312 64.0773L77.68 66.5961L77.608 64.2436C77.56 62.7703 77.632 61.8673 77.8 61.8198C77.92 61.7723 78.04 61.6297 78.04 61.4872C78.04 61.3208 77.08 61.2733 75.088 61.3446L72.136 61.4872L70.48 63.1743C69.592 64.101 68.752 64.8614 68.656 64.8614C68.56 64.8614 68.464 61.4872 68.44 57.3763V49.8911L68.968 49.8673C72.664 49.701 76.576 50.4139 79.384 51.7921C84.616 54.3347 88.096 60.9169 87.376 66.8574C86.536 73.8911 82.744 78.7149 76.528 80.6634C69.976 82.7307 64.504 81.6139 59.776 77.2654C58.144 75.7683 57.52 74.9129 56.152 72.1327C55.096 70.0178 52.288 62.0574 52.504 61.7485C52.576 61.6297 51.76 61.5347 50.704 61.5347C49.192 61.5347 48.808 61.606 48.904 61.8436C49.096 62.3426 45.736 71.5149 45.376 71.5149C45.256 71.5149 45.16 71.6099 45.16 71.7525C45.16 71.8951 45.832 71.9901 46.72 71.9901C47.584 71.9901 48.28 71.9426 48.28 71.8713C48.28 71.8 48.16 71.5624 48.016 71.3248C47.824 71.0159 47.872 70.6594 48.256 69.7802L48.736 68.6634H50.392H52.024L52.456 70.0178C53.68 73.8911 56.632 78.002 59.68 80.0693C61.408 81.2574 63.616 82.1604 65.776 82.5881C68.44 83.1109 72.832 82.9446 75.352 82.2317C81.136 80.5683 85.36 76.4574 87.28 70.5644C87.88 68.806 87.952 68.1644 87.976 65.4555C87.976 63.1505 87.88 61.9624 87.544 60.8218C86.584 57.3763 84.712 54.501 81.952 52.1723C78.424 49.2258 75.472 48.204 70.12 48.1089C68.344 48.0614 66.592 48.0852 66.232 48.1565ZM74.92 67C74.92 70.6832 74.872 71.5149 74.608 71.5149C74.32 71.5149 70.84 66.5248 70.84 66.1208C70.84 65.8119 74.512 62.2713 74.704 62.3901C74.8 62.4376 74.896 64.5287 74.92 67ZM50.92 65.5268C51.256 66.7624 51.256 66.7624 50.2 66.7624C49.168 66.7624 49.12 66.7149 49.48 66.0971C49.6 65.8832 49.816 65.3842 49.96 65.0277C50.248 64.1961 50.584 64.3624 50.92 65.5268Z" fill="black"/>
<path d="M58.96 61.8674C55.48 62.8179 54.256 67.8317 56.896 70.3268C58.432 71.7763 61.264 72.3941 63.064 71.6337C63.52 71.4436 64.048 71.3485 64.24 71.4198C64.528 71.5386 64.6 71.2773 64.6 69.9466V68.3307L64 69.1386C63.184 70.2317 62.344 70.6357 61.336 70.4456C59.296 70.0654 58.12 68.6634 58.12 66.5961C58.12 64.3386 59.536 62.7228 61.456 62.7228C62.392 62.7228 63.976 63.4832 64.456 64.1961C64.816 64.6951 64.84 64.6476 64.84 63.1981V61.6535L62.488 61.606C61.12 61.5822 59.68 61.6773 58.96 61.8674Z" fill="black"/>
<defs>
<linearGradient id="paint0_linear_1139_491" x1="122.286" y1="66.5" x2="13.3" y2="66.5" gradientUnits="userSpaceOnUse">
<stop offset="0.0666667" stop-color="#E5E5E5"/>
<stop offset="0.429167" stop-color="#F7F7F7"/>
<stop offset="1" stop-color="#CCCCCC"/>
</linearGradient>
</defs>
</svg>
