<svg width="133" height="133" viewBox="0 0 133 133" fill="none" xmlns="http://www.w3.org/2000/svg">
<rect opacity="0.5" width="133" height="133" fill="url(#paint0_linear_1139_488)"/>
<path d="M65.0987 49.4375C64.2407 49.6708 63.373 49.9139 63.178 49.9722L62.8075 50.0792V51.625C62.8075 52.4806 62.8367 53.1806 62.8855 53.1806C62.9245 53.1806 63.4412 53.0542 64.0262 52.8889C64.621 52.7333 65.128 52.5972 65.167 52.5972C65.2157 52.5972 65.2547 59.4514 65.2645 67.832L65.2937 83.0667L66.0445 83.2611L66.7952 83.4556L67.5557 83.2611L68.3162 83.0667L68.3455 67.832C68.3552 59.4514 68.3942 52.5972 68.4235 52.5972C68.4722 52.5972 70.003 52.9958 70.5392 53.1417C70.6952 53.1903 70.705 53.0931 70.6855 51.6153L70.6562 50.0306L68.755 49.5153C67.7117 49.2333 66.8147 49.0097 66.7562 49.0097C66.7075 49.0195 65.9567 49.2042 65.0987 49.4375Z" fill="#222222"/>
<path d="M57.1038 51.5861C54.481 52.2958 52.2288 52.8986 52.1118 52.9375L51.8875 52.9861V66.2375V79.4791L56.743 80.7722C59.4048 81.4819 61.6863 82.0944 61.813 82.1236L62.0275 82.1722V66.218C62.0275 57.4486 61.9983 50.2736 61.9593 50.2736C61.9105 50.2833 59.7363 50.8666 57.1038 51.5861ZM58.9075 66.2569C58.9075 72.8097 58.8783 78.1666 58.8393 78.1666C58.8003 78.1666 57.9228 77.943 56.8893 77.6611L55.0075 77.1652L55.027 66.2277L55.0563 55.2902L56.7625 54.8236C57.6985 54.5708 58.5663 54.3569 58.693 54.3569L58.9075 54.3472V66.2569Z" fill="#222222"/>
<path d="M71.5337 50.3417C71.5045 50.3708 71.485 57.5361 71.485 66.2764C71.485 78.9153 71.5142 82.1528 71.6117 82.1528C71.6702 82.1528 72.382 81.9778 73.1717 81.7639C73.9615 81.55 74.6342 81.375 74.6635 81.375C74.683 81.375 74.7025 80.3055 74.7025 79.0028C74.7025 76.825 74.7122 76.6208 74.878 76.5722C74.9657 76.543 76.0577 76.2611 77.2862 75.9305C78.5245 75.6097 79.675 75.2889 79.8505 75.2403L80.1625 75.1333V63.8458V52.5486L77.257 51.7805C75.6677 51.3625 73.7372 50.8569 72.9767 50.6528C72.2162 50.4486 71.563 50.3125 71.5337 50.3417ZM76.9157 54.8819C77.101 54.95 77.101 72.8 76.9157 72.868C76.8475 72.8972 76.321 73.043 75.7457 73.1986L74.7025 73.4805V63.875V54.2694L75.7457 54.5514C76.321 54.7069 76.8475 54.8528 76.9157 54.8819Z" fill="#222222"/>
<path d="M81.7713 53.0639C81.6738 53.1612 81.7225 79.4306 81.82 79.4306C81.898 79.4306 84.8523 78.6528 84.9108 78.6139C84.9108 78.6042 85.72 75.7848 86.695 72.3334C87.6603 68.882 88.5378 65.8195 88.6255 65.5278C88.7815 65.0125 88.7913 65.1875 88.84 71.2737L88.8888 77.5542L90.4 77.1556L91.9113 76.757L91.9405 66.2473L91.96 55.7278L91.2093 55.5237C89.152 54.9792 88.84 54.9014 88.8108 54.9403C88.7913 54.9598 87.9235 58.2264 86.8803 62.1931L84.9888 69.407L84.9595 61.6389L84.94 53.8709L84.4233 53.725C82.5903 53.2098 81.82 53.0153 81.7713 53.0639Z" fill="#222222"/>
<path d="M48.5725 53.8708C47.8023 54.0847 47.1393 54.2986 47.11 54.3375C47.0808 54.3861 46.3593 57.3611 45.511 60.9486C44.653 64.5361 43.9315 67.4722 43.9023 67.4722C43.873 67.4722 43.171 64.925 42.3423 61.8042C41.5233 58.6931 40.8115 56.107 40.7628 56.0583C40.7043 55.9903 39.3978 56.2917 37.828 56.7389C37.6623 56.7875 37.6525 57.3222 37.6525 66.2375V75.6875L39.0955 76.0667C39.8853 76.2708 40.5873 76.4556 40.6458 76.4847C40.7433 76.5236 40.7725 75.2986 40.792 70.7292L40.8213 64.925L41.5915 68.5611L42.3618 72.207L43.912 72.625C44.7603 72.8486 45.4818 73.0236 45.5013 73.0042C45.5208 72.975 45.8815 71.0306 46.3008 68.6875L47.0613 64.4097L47.0905 71.3125L47.11 78.2153L48.553 78.5945C49.3428 78.7986 50.0448 78.9833 50.113 79.0125C50.2008 79.0514 50.23 76.4556 50.23 66.2667C50.23 56.0875 50.2008 53.4722 50.113 53.482C50.0448 53.482 49.3525 53.657 48.5725 53.8708Z" fill="#222222"/>
<path d="M93.52 66.257C93.52 71.7889 93.5298 76.3195 93.5493 76.3195C93.559 76.3195 94.2708 76.125 95.1288 75.8917L96.6888 75.4736L96.7375 70.0195L96.7863 64.5653L97.3615 67.4042C97.6735 68.9695 97.966 70.2722 97.9953 70.3111C98.0733 70.3986 100.94 69.6306 101.086 69.4847C101.145 69.4167 101.457 68.4056 101.769 67.2292L102.344 65.0903L102.373 69.4847C102.383 72.5181 102.432 73.8889 102.5 73.8889C102.558 73.8889 103.28 73.7042 104.109 73.4903L105.61 73.082L105.591 66.2278L105.561 59.3639L104.216 59.0042C103.485 58.8097 102.773 58.6153 102.646 58.5861C102.412 58.5278 102.383 58.5958 101.125 62.4458C100.423 64.5945 99.8185 66.4417 99.7698 66.5486C99.682 66.7722 99.76 67.0056 97.9075 60.9195C97.264 58.7806 96.7278 57.0208 96.7083 57.0111C96.6693 56.9722 93.7345 56.1945 93.6273 56.1945C93.5493 56.1945 93.52 58.9945 93.52 66.257Z" fill="#222222"/>
<path d="M31.9 58.3236L28.0488 59.3639L28.0195 66.2278L28 73.0917L28.9457 73.3444C29.4722 73.4903 31.2565 73.9667 32.9237 74.4139L35.9462 75.2208L35.9755 72.1097C35.9852 70.3986 35.9755 68.9792 35.956 68.9597C35.8975 68.9014 33.1578 68.1528 33.0017 68.1528C32.9043 68.1528 32.875 68.5222 32.875 69.6986V71.2542L32.173 71.0597C31.783 70.9528 31.3832 70.8458 31.2858 70.8167C31.1298 70.768 31.12 70.4861 31.1395 66.2278L31.1688 61.6972L31.9 61.4833C32.2997 61.3569 32.6898 61.2597 32.758 61.2597C32.8458 61.25 32.875 61.6194 32.875 62.8153C32.875 64.0305 32.9043 64.3708 33.0017 64.3319C33.0603 64.3125 33.7622 64.118 34.5617 63.9139L35.995 63.5444V60.4042C35.995 57.9542 35.9658 57.2639 35.878 57.2736C35.8098 57.2736 34.0157 57.75 31.9 58.3236Z" fill="#222222"/>
<defs>
<linearGradient id="paint0_linear_1139_488" x1="122.286" y1="66.5" x2="13.3" y2="66.5" gradientUnits="userSpaceOnUse">
<stop offset="0.0666667" stop-color="#E5E5E5"/>
<stop offset="0.429167" stop-color="#F7F7F7"/>
<stop offset="1" stop-color="#CCCCCC"/>
</linearGradient>
</defs>
</svg>
