<svg width="133" height="133" viewBox="0 0 133 133" fill="none" xmlns="http://www.w3.org/2000/svg">
<rect width="133" height="133" fill="url(#paint0_linear_1139_489)"/>
<path d="M68.2 47.2C66.9 48.5 66.6 54.7 67.6 57.4C68.1 58.6 69.7 59 74.2 59H80.1L80 52.5V46.5L74.5 46.2C71.5 46 69 46.4 68.2 47.2Z" fill="#222222"/>
<path d="M53 67V73H59.5H66V67V61H59.5H53V67Z" fill="#222222"/>
<path d="M67.4 62.4C67.1 63.1 67 65.7 67.2 68.1L67.5 72.5L73.8 72.8L80 73.1V67V61H74C69.8 61 67.8 61.4 67.4 62.4Z" fill="#222222"/>
<path d="M82 67V73H88H94V67V61H88H82V67Z" fill="#222222"/>
<path d="M39.7 75.6C39.3 76 39 78.7 39 81.6C39 87.4 39.7 88 45.8 88C51.4 88 52.2 87.1 51.8 80.9L51.5 75.5L46 75.2C42.9 75 40.1 75.2 39.7 75.6Z" fill="#222222"/>
<path d="M53.4 76.4C53.1 77.1 53 79.9 53.2 82.6L53.5 87.5H59.5H65.5L65.8 81.2L66.1 75H60C55.8 75 53.8 75.4 53.4 76.4Z" fill="#222222"/>
<path d="M67.4 76.4C67.1 77.1 67 79.9 67.2 82.6L67.5 87.5H73.5H79.5L79.8 81.2L80.1 75H74C69.8 75 67.8 75.4 67.4 76.4Z" fill="#222222"/>
<path d="M82.2 81.2L82.5 87.5H88H93.5L93.8 81.2L94.1 75H88H81.9L82.2 81.2Z" fill="#222222"/>
<defs>
<linearGradient id="paint0_linear_1139_489" x1="122.286" y1="66.5" x2="13.3" y2="66.5" gradientUnits="userSpaceOnUse">
<stop offset="0.0666667" stop-color="#E5E5E5"/>
<stop offset="0.429167" stop-color="#F7F7F7"/>
<stop offset="1" stop-color="#CCCCCC"/>
</linearGradient>
</defs>
</svg>
