<svg width="221" height="161" viewBox="0 0 221 161" fill="none" xmlns="http://www.w3.org/2000/svg">
<g clip-path="url(#clip0)">
<g clip-path="url(#clip1)">
<path d="M90.8499 71H94.1999V89.53H90.8499V88.11C90.2799 88.68 89.6099 89.13 88.8799 89.46C88.2099 89.74 87.4899 89.88 86.7599 89.87C85.0499 89.88 83.4199 89.15 82.2799 87.86C81.0099 86.51 80.3299 84.72 80.3899 82.87C80.3199 81 80.9699 79.18 82.2199 77.79C83.3399 76.52 84.9599 75.8 86.6599 75.82C87.4399 75.81 88.2099 75.97 88.9199 76.27C89.6499 76.6 90.3199 77.06 90.8699 77.63L90.8499 71ZM87.3299 78.91C86.3499 78.89 85.4199 79.3 84.7599 80.02C84.0499 80.78 83.6699 81.79 83.6999 82.83C83.6599 83.88 84.0499 84.91 84.7599 85.68C85.4199 86.41 86.3599 86.82 87.3399 86.8C88.3299 86.83 89.2899 86.43 89.9599 85.7C90.6799 84.92 91.0599 83.88 91.0199 82.82C91.0599 81.77 90.6799 80.76 89.9599 80C89.2699 79.28 88.2999 78.9 87.3099 78.94" fill="#E32526"/>
<path d="M102.35 76.1601H105.71V77.5301C106.32 76.9801 107.02 76.5301 107.77 76.1901C108.37 75.9401 109.01 75.8101 109.66 75.8101C110.93 75.7901 112.15 76.2901 113.03 77.2001C113.81 77.9901 114.2 79.1501 114.2 80.6901V89.5301H110.88V83.6901C110.92 82.6201 110.85 81.5601 110.66 80.5101C110.55 80.0401 110.29 79.6201 109.91 79.3201C109.54 79.0401 109.09 78.8901 108.62 78.9001C107.97 78.8901 107.34 79.1301 106.87 79.5801C106.35 80.0901 106 80.7501 105.86 81.4601C105.73 82.3601 105.69 83.2701 105.72 84.1701V89.5301H102.33V76.1601H102.35Z" fill="#E32526"/>
<path d="M126.17 71H129.52V89.53H126.17V88.11C125.6 88.68 124.93 89.13 124.2 89.46C123.53 89.74 122.8 89.87 122.08 89.87C120.37 89.88 118.74 89.15 117.6 87.86C116.33 86.51 115.65 84.72 115.71 82.87C115.64 81 116.29 79.18 117.54 77.79C118.66 76.52 120.29 75.8 121.99 75.82C122.76 75.81 123.53 75.97 124.25 76.27C124.98 76.59 125.65 77.06 126.2 77.63L126.17 71ZM122.65 78.91C121.67 78.89 120.73 79.29 120.07 80.02C119.37 80.79 119.01 81.8 119.05 82.84C119.01 83.89 119.4 84.92 120.11 85.69C120.77 86.42 121.71 86.83 122.69 86.81C123.68 86.84 124.63 86.43 125.31 85.71C126.03 84.93 126.41 83.89 126.37 82.83C126.41 81.78 126.03 80.77 125.31 80.01C124.62 79.29 123.65 78.91 122.66 78.95" fill="#E32526"/>
<path d="M145.17 83.8198H134.39C134.51 84.6998 134.95 85.5098 135.64 86.0898C136.37 86.6698 137.29 86.9698 138.22 86.9298C139.43 86.9498 140.6 86.4698 141.45 85.6098L144.27 86.9398C143.63 87.8798 142.76 88.6498 141.74 89.1598C140.64 89.6598 139.44 89.9098 138.24 89.8798C136.33 89.9498 134.48 89.2398 133.11 87.8998C131.8 86.5798 131.08 84.7898 131.13 82.9298C131.07 81.0398 131.78 79.2098 133.1 77.8498C134.39 76.5098 136.19 75.7798 138.05 75.8298C139.97 75.7598 141.83 76.4898 143.19 77.8498C144.55 79.2998 145.27 81.2398 145.17 83.2198V83.8198ZM141.81 81.1598C141.59 80.4198 141.13 79.7798 140.5 79.3398C139.84 78.8698 139.04 78.6298 138.23 78.6398C137.35 78.6198 136.48 78.8998 135.77 79.4298C135.22 79.8998 134.8 80.4898 134.54 81.1598H141.81Z" fill="#E32526"/>
<path d="M144.97 76.1602H148.86L151.5 79.8002L154.13 76.1602H157.96L153.42 82.4502L158.56 89.5302H154.66L151.48 85.1402L148.31 89.5302H144.48L149.56 82.4902L144.97 76.1602Z" fill="#E32526"/>
<path d="M69.97 71.46H73.46L80.41 89.53H76.83L75.42 85.82H68.05L66.58 89.53H63L69.97 71.46ZM71.73 76.23L69.3 82.45H74.13L71.73 76.23Z" fill="#E32526"/>
<path d="M96.5701 71V74.1H99.9501L96.5701 75.83V89.53H99.9901V71H96.5701Z" fill="#E32526"/>
</g>
</g>
<defs>
<clipPath id="clip0">
<rect width="95.56" height="18.87" fill="white" transform="translate(63 71)"/>
</clipPath>
<clipPath id="clip1">
<rect width="95.56" height="18.87" fill="white" transform="translate(63 71)"/>
</clipPath>
</defs>
</svg>
