<svg width="221" height="161" viewBox="0 0 221 161" fill="none" xmlns="http://www.w3.org/2000/svg">
<path d="M164.954 81.3103C164.954 83.1724 166.888 84.6915 168.658 84.6915C170.444 84.6915 172.115 83.2051 172.771 81.6534L172.492 81.441L169.428 82.8784C169.395 82.8947 169.215 82.9437 169.166 82.9437C168.756 82.9437 168.051 82.4211 167.953 82.029C167.953 80.2323 168.772 77.6679 169.952 76.4428L171.263 76.9002C171.165 77.1125 171.083 77.5535 171.083 77.6189C171.083 78.3212 171.312 78.7622 172.525 78.7622C173.459 78.7622 173.984 77.9456 173.984 77.4065C173.984 75.4138 172.361 75.2505 170.69 75.2505C167.478 75.2341 164.954 78.1742 164.954 81.3103ZM156.105 81.3103C156.105 83.1724 158.039 84.6915 159.809 84.6915C161.595 84.6915 163.266 83.2051 163.922 81.6534L163.643 81.441L160.579 82.8784C160.546 82.8947 160.366 82.9437 160.317 82.9437C159.907 82.9437 159.202 82.4211 159.104 82.029C159.104 80.2323 159.923 77.6679 161.103 76.4428L162.414 76.9002C162.3 77.1125 162.234 77.5535 162.234 77.6189C162.234 78.3212 162.463 78.7622 163.676 78.7622C164.61 78.7622 165.135 77.9456 165.135 77.4065C165.135 75.4138 163.512 75.2505 161.841 75.2505C158.629 75.2341 156.105 78.1742 156.105 81.3103ZM151.681 76.8675C152.09 76.8838 153.434 77.5045 153.434 77.8966C153.434 78.2886 153.09 78.5499 152.828 78.7132L150.189 80.3793H149.895C150.288 79.1706 150.845 77.7005 151.681 76.8675ZM146.896 81.2777C146.896 83.1397 148.813 84.6751 150.599 84.6751C152.484 84.6751 153.909 83.2377 154.729 81.6534L154.516 81.4247L151.435 82.8294C151.238 82.9437 151.156 82.9437 151.074 82.9437C150.665 82.9437 149.845 82.3394 149.845 81.8984C149.845 81.735 149.862 81.441 149.895 81.1307L154.696 79.1869C155.499 78.8766 156.171 78.0436 156.171 77.1289C156.171 75.5608 153.287 75.2341 152.287 75.2341C149.239 75.2341 146.896 78.4029 146.896 81.2777ZM143.897 78.2232C143.897 79.4809 143.307 80.657 142.799 81.8984C142.602 82.3884 142.209 82.8294 141.652 82.8294C141.242 82.8294 139.636 82.0127 139.636 81.7024C139.636 81.4247 139.866 81 139.997 80.7223C140.406 79.873 142.078 76.8185 142.864 76.8185C143.258 76.8348 143.897 77.3739 143.897 78.2232ZM138.948 82.9927H139.243C139.44 83.5971 139.882 84.6751 141.75 84.6751C144.618 84.6751 146.699 81 146.699 78.1252C146.699 76.6062 145.634 75.2178 144.028 75.2178C142.946 75.2178 141.832 76.2632 141.308 77.1289L139.866 79.5136H139.571C139.997 78.3539 140.39 77.4555 140.619 76.0998C140.439 75.3648 138.44 75.2178 138.047 75.2178C136.998 75.2178 135.671 76.9982 135.113 78.0926L135.572 78.3212C137.326 77.7659 137.358 77.7495 137.358 77.7495L137.522 77.9456L135.638 86.7659H134.294L133.933 88.7586H139.653L139.948 87.1906L138.522 86.4882L138.948 82.9927ZM129.886 83.4501C130.066 84.0218 131.41 84.6915 132.409 84.6915C133.753 84.6915 134.999 82.7967 135.457 81.7514C135.425 81.7187 135.244 81.539 135.212 81.5227L133.425 82.029C133.36 82.0454 133.278 82.078 133.229 82.078C133.147 82.078 133.131 82.0127 133.131 81.9964C133.131 81.98 133.147 81.9474 133.196 81.7514L134.196 78.5172C134.294 78.2069 134.54 77.6352 134.54 77.3249C134.54 76.3285 133.475 75.2341 131.656 75.2341C130.574 75.2341 129.82 76.0671 127.854 79.5463H127.543C127.969 78.3866 128.28 77.4719 128.542 76.1162C128.362 75.3811 126.346 75.2341 125.953 75.2341C124.921 75.2341 123.577 77.0309 123.036 78.1416L123.495 78.3702C125.248 77.8149 125.281 77.7985 125.281 77.7985L125.347 77.8639L124.724 81.0163L123.741 84.3811H126.74L127.411 81.4083C129.198 78.0762 130.328 77.4882 130.787 77.4882C131.017 77.4882 131.623 77.6515 131.623 77.9782C131.623 78.1089 131.541 78.3539 131.459 78.5826L129.886 83.4501ZM113.941 81.3103C113.941 83.1724 115.875 84.6915 117.645 84.6915C119.431 84.6915 121.102 83.2051 121.758 81.6534L121.479 81.441L118.415 82.8784C118.382 82.8947 118.202 82.9437 118.153 82.9437C117.743 82.9437 117.038 82.4211 116.94 82.029C116.94 80.2323 117.759 77.6679 118.939 76.4428L120.25 76.9002C120.152 77.1125 120.07 77.5535 120.07 77.6189C120.07 78.3212 120.299 78.7622 121.512 78.7622C122.446 78.7622 122.971 77.9456 122.971 77.4065C122.971 75.4138 121.348 75.2505 119.677 75.2505C116.465 75.2341 113.941 78.1742 113.941 81.3103ZM111.467 78.6969C112.401 78.3049 113.237 77.6515 113.237 76.6388C113.237 75.3158 112.188 74.9401 111.5 74.9401C110.762 74.9401 110.139 75.5118 110.139 76.3612C110.139 76.9328 110.369 77.2269 110.697 77.4882L110.647 77.6679L107.993 79.3013H107.19L107.976 76.0998C107.796 75.3648 105.78 75.2341 105.387 75.2341C104.355 75.2341 103.011 77.0145 102.47 78.1089L102.929 78.3376C104.683 77.7822 104.715 77.7659 104.715 77.7659L104.781 77.8312L104.158 81L103.175 84.3648H106.174L106.665 81.392L106.862 80.559L107.517 80.2976L109.468 83.9728C109.713 84.4465 109.992 84.6588 111.057 84.6588C112.319 84.6588 113.597 82.6661 113.777 81.7024L113.482 81.5554L111.68 82.176L109.697 79.3993L111.467 78.6969ZM102.175 78.5826C102.175 76.7205 100.242 75.2341 98.4882 75.2341C97.4886 75.2341 96.3907 75.4628 95.6368 75.9201L94.1784 77.5535L94.67 78.3539L97.5378 77.0309C97.5705 77.0145 97.7344 76.9655 97.7836 76.9655C98.3735 76.9655 99.0781 77.4882 99.1601 77.8802C99.1601 78.2559 99.1273 78.6152 99.0781 79.0073H96.2923L95.9318 80.6897H98.7012C98.3899 81.6207 97.9147 82.4864 97.3411 83.0907L95.3419 82.6334C95.4238 82.4374 95.5058 81.98 95.5058 81.9147C95.5058 81.2123 95.0961 80.9673 94.2439 80.9673C93.3099 80.9673 92.7855 81.588 92.7855 82.1597C92.7855 84.1524 94.7519 84.7078 96.4398 84.7078C99.6681 84.6751 102.175 81.7024 102.175 78.5826ZM87.9021 83.2867C87.345 83.2867 86.2798 82.6171 86.1487 82.0127C86.1487 80.5917 86.329 79.2196 87.4269 77.3575C87.5744 77.0962 87.8694 76.6225 88.2463 76.6225C88.8034 76.6225 89.8686 77.2922 89.9997 77.8966C89.9997 79.3176 89.8194 80.6733 88.7215 82.5517C88.574 82.8131 88.2627 83.2867 87.9021 83.2867ZM87.5908 84.6588C90.5732 84.6588 92.9821 81.441 92.9821 78.6479C92.9821 76.3448 90.5241 75.2178 88.5085 75.2178C85.526 75.2178 83.1171 78.4356 83.1171 81.245C83.1171 83.5318 85.5916 84.6588 87.5908 84.6588ZM80.1183 78.2232C80.1183 79.4809 79.5283 80.657 79.0203 81.8984C78.8237 82.3884 78.4304 82.8294 77.8732 82.8294C77.4636 82.8294 75.8576 82.0127 75.8576 81.7024C75.8576 81.4247 76.087 81 76.2181 80.7223C76.6278 79.873 78.2993 76.8185 79.0859 76.8185C79.4792 76.8348 80.1183 77.3739 80.1183 78.2232ZM75.1694 82.9927H75.4643C75.661 83.5971 76.1034 84.6751 77.9716 84.6751C80.8393 84.6751 82.9205 81 82.9205 78.1252C82.9205 76.6062 81.8553 75.2178 80.233 75.2178C79.1514 75.2178 78.0371 76.2632 77.5127 77.1289L76.0707 79.5136H75.7757C76.2018 78.3539 76.595 77.4555 76.8245 76.0998C76.6442 75.3648 74.645 75.2178 74.2517 75.2178C73.2029 75.2178 71.8756 76.9982 71.3184 78.0926L71.7772 78.3212C73.5307 77.7659 73.5634 77.7495 73.5634 77.7495L73.7273 77.9456L71.8428 86.7659H70.499L70.1385 88.7586H75.8576L76.1526 87.1906L74.7269 86.4882L75.1694 82.9927ZM71.3348 78.5826C71.3348 76.7205 69.4011 75.2341 67.6477 75.2341C66.6481 75.2341 65.5501 75.4628 64.7963 75.9201L63.3379 77.5535L63.8295 78.3539L66.6972 77.0309C66.73 77.0145 66.8939 76.9655 66.943 76.9655C67.533 76.9655 68.2376 77.4882 68.3196 77.8802C68.3196 78.2559 68.2868 78.6152 68.2376 79.0073H65.4518L65.0913 80.6897H67.8607C67.5494 81.6207 67.0741 82.4864 66.5006 83.0907L64.5014 82.6334C64.5833 82.4374 64.6652 81.98 64.6652 81.9147C64.6652 81.2123 64.2556 80.9673 63.4034 80.9673C62.4694 80.9673 61.945 81.588 61.945 82.1597C61.945 84.1524 63.9114 84.7078 65.5993 84.7078C68.8276 84.6751 71.3348 81.7024 71.3348 78.5826ZM55.9309 74.0907H56.1439L56.4061 78.4029H53.6695L55.9309 74.0907ZM56.6519 82.078L56.4881 82.2904H55.5704L55.0952 84.3811H61.1584L61.5845 82.5027L60.2899 82.1107L59.2903 72H54.7183L49.163 82.078L48.8681 82.2904H47.639L47.1638 84.3811H52.5879L52.9976 82.5027L51.7686 82.0454L52.6535 80.3466H56.5372L56.6519 82.078Z" fill="#222222"/>
<path d="M52.1947 88.301L52.0964 88.7747H50.6215L50.7526 88.2357H50.9657L51.0476 88.203L50.7199 87.37H50.2938L50.1135 88.1867L50.4741 88.3173L50.3757 88.791H48.819L48.9501 88.252H49.2286L49.2614 88.2193L49.4581 87.37H49.0156L48.311 88.203L48.5732 88.301L48.4748 88.7747H47L47.1311 88.2357H47.3769L48.5895 86.9616L48.016 86.1939L47.7046 86.0469L47.8194 85.5732H49.1959L49.0648 86.1286H48.8517L48.7698 86.1613L49.2286 86.8636H49.5728L49.7366 86.1939L49.3597 86.0469L49.4745 85.5732H51.0476L50.9165 86.1286H50.6052L50.5724 86.1613L50.4085 86.8636H50.7526L51.5065 86.1939L51.1951 86.0469L51.3098 85.5732H52.7355L52.6044 86.1286H52.3914L52.3094 86.1613L51.359 86.9616L51.9325 88.1703L52.1947 88.301Z" fill="#222222"/>
<path d="M53.7844 89.2976C53.5713 89.7223 53.4403 89.9837 52.9486 89.9837C52.539 89.9837 52.3259 89.8693 52.3259 89.5426C52.3259 89.3466 52.4079 89.2323 52.6701 89.2323C52.8667 89.2323 53.0633 89.3956 53.1289 89.608H53.2272L53.5877 88.7749L53.1781 88.7259L53.0797 87.1252L52.6701 87.2395L52.5881 87.1905C52.6864 86.9455 53.047 86.4229 53.3911 86.4229C53.5713 86.4229 53.9482 86.5699 53.9482 86.7332V88.1869H54.0138L54.7021 87.1415L54.3743 86.9455C54.3743 86.7332 54.5218 86.4229 54.9151 86.4229C55.1773 86.4229 55.3575 86.5372 55.3575 86.7495C55.3575 86.9945 55.2756 87.1252 55.0953 87.3702L54.063 88.7913L53.7844 89.2976Z" fill="#222222"/>
<path d="M56.1277 89.33L56.4882 89.5097L56.4062 89.918H54.9314L55.0297 89.3954H55.3738L55.8655 87.1249L55.8327 87.0759C55.8327 87.0759 55.8163 87.0759 55.3738 87.2229L55.2428 87.1576C55.3902 86.8799 55.7344 86.4062 55.9966 86.4062C56.0949 86.4062 56.6193 86.4389 56.6684 86.6349C56.6029 86.9943 56.5046 87.2229 56.3898 87.517H56.4718L56.8487 86.8963C56.9798 86.6676 57.2748 86.4062 57.5533 86.4062C57.963 86.4062 58.2416 86.7656 58.2416 87.1576C58.2416 87.8926 57.7008 88.84 56.9634 88.84C56.4882 88.84 56.3735 88.5623 56.3243 88.399H56.2424L56.1277 89.33ZM57.242 86.8309C57.0289 86.8309 56.6029 87.615 56.5046 87.8436C56.4718 87.909 56.4062 88.007 56.4062 88.0886C56.4062 88.1703 56.8159 88.3827 56.9306 88.3827C57.0781 88.3827 57.1764 88.2683 57.2256 88.1376C57.3567 87.811 57.5206 87.517 57.5206 87.1903C57.5206 86.9616 57.3567 86.8309 57.242 86.8309Z" fill="#222222"/>
<path d="M59.3887 88.7747H58.6021L58.8479 87.909L59.0118 87.0923L58.9954 87.0759C58.9954 87.0759 58.979 87.0759 58.5366 87.2229L58.4219 87.1576C58.553 86.8799 58.9135 86.4062 59.1757 86.4062C59.274 86.4062 59.7984 86.4389 59.8476 86.6349L59.6837 87.3373H60.4375L60.6341 86.4389H61.5354L61.1421 87.3046L60.9946 88.1703L61.011 88.1866L61.4863 88.0396L61.601 88.105C61.4535 88.3827 61.1094 88.8563 60.8472 88.8563C60.7488 88.8563 60.2245 88.8237 60.1753 88.6277C60.2245 88.2847 60.3064 88.056 60.4047 87.7783H59.569L59.5034 88.007L59.3887 88.7747Z" fill="#222222"/>
<path d="M63.0758 86.4229C63.4363 86.4229 63.6494 86.6189 63.7477 86.9455H63.8133L63.9935 86.4392H64.7145L64.3376 87.3049L64.1738 88.1706L64.2065 88.2033C64.2065 88.2033 64.2065 88.1869 64.6654 88.0562L64.7801 88.1216C64.649 88.3993 64.2885 88.8729 64.0263 88.8729C63.928 88.8729 63.4036 88.8729 63.4036 88.6769C63.4036 88.5463 63.5183 88.0726 63.6166 87.7459H63.5347L63.125 88.3666C63.0267 88.5136 62.7481 88.8729 62.4695 88.8729C62.0598 88.8729 61.7812 88.5136 61.7812 88.1216C61.7813 87.3539 62.3384 86.4229 63.0758 86.4229ZM62.8628 88.3503C63.0267 88.2359 63.4363 87.6479 63.5511 87.4356C63.5838 87.3702 63.6494 87.2559 63.6494 87.1905C63.6494 87.1089 63.2233 86.8965 63.1086 86.8965C62.9611 86.8965 62.8628 87.0109 62.8136 87.1415C62.6825 87.4356 62.5351 87.8439 62.5351 88.2196C62.5678 88.3176 62.7481 88.3503 62.8628 88.3503Z" fill="#222222"/>
<path d="M65.6814 87.0433L65.7306 86.7983C65.9928 86.6349 66.7466 86.4062 67.1562 86.4062C67.5495 86.4062 67.697 86.6023 67.697 86.9453C67.697 87.0269 67.6806 87.0759 67.6315 87.1903L67.2218 88.154L67.2546 88.1866L67.7953 88.0233L67.9101 88.0886C67.7298 88.399 67.4184 88.8563 67.0251 88.8563C66.8449 88.8563 66.4024 88.7747 66.4024 88.6277C66.4024 88.5787 66.468 88.2193 66.8449 87.1576H66.4844C66.0911 88.301 65.8125 88.8563 65.2226 88.8563C64.9112 88.8563 64.731 88.595 64.731 88.4317C64.731 88.2193 64.8621 88.0396 65.0423 88.0396C65.0915 88.0396 65.1898 88.056 65.2553 88.1213L65.4028 88.2847H65.5012C65.7633 88.0233 65.9272 87.664 66.0747 87.2066L65.6814 87.0433Z" fill="#222222"/>
</svg>
