<svg width="221" height="161" viewBox="0 0 221 161" fill="none" xmlns="http://www.w3.org/2000/svg">
<path d="M88.5525 71.5648C87.2276 71.0996 85.8304 70.8746 84.4265 70.9004C82.9261 70.883 81.4331 71.1133 80.0077 71.5823C78.8508 71.9677 77.7268 72.4457 76.6466 73.0115L78.4823 76.5081C78.8937 76.2633 79.3183 76.0415 79.7542 75.8437C80.3857 75.5597 81.0409 75.3315 81.7123 75.1619C82.4975 74.9606 83.3056 74.8622 84.1162 74.8691C84.9769 74.8309 85.8272 75.0699 86.5419 75.5509C86.8416 75.7622 87.0842 76.0445 87.2482 76.3724C87.4122 76.7004 87.4924 77.0638 87.4817 77.4303V79.5064C86.832 79.1795 86.1492 78.923 85.4449 78.7415C84.5666 78.4995 83.6591 78.3804 82.7481 78.3875C81.3534 78.358 79.966 78.5969 78.6615 79.0912C77.588 79.4926 76.651 80.1915 75.9604 81.1061C75.3123 82.0188 74.9766 83.1165 75.0032 84.2356C74.9658 85.3087 75.2587 86.3675 75.8424 87.2689C76.4124 88.0943 77.2073 88.739 78.1326 89.1264C79.174 89.5574 80.2926 89.7701 81.4194 89.7514C82.5795 89.7697 83.7309 89.5495 84.8024 89.1046C85.7595 88.7102 86.5908 88.0619 87.2063 87.2295C87.3068 87.0897 87.3942 86.9454 87.4817 86.7925V89.3625H92.3681V76.6086C92.4045 75.4846 92.0457 74.3835 91.3541 73.4966C90.6143 72.6088 89.6453 71.9407 88.5525 71.5648ZM86.8916 84.5503C86.5163 85.1507 85.9543 85.6113 85.2919 85.8615C84.5781 86.1295 83.8209 86.2629 83.0585 86.2549C82.546 86.2526 82.0381 86.1578 81.5593 85.9751C81.1377 85.8345 80.7648 85.5768 80.4841 85.2321C80.2129 84.8816 80.0736 84.4468 80.0907 84.0039C80.078 83.5021 80.2216 83.0088 80.5016 82.5922C80.8166 82.171 81.2437 81.8469 81.7341 81.6568C82.3731 81.4029 83.0574 81.2824 83.7447 81.3028C84.6849 81.2841 85.6221 81.417 86.5201 81.6962C86.856 81.8091 87.1832 81.9464 87.4991 82.107V82.1638C87.5343 83.0016 87.3231 83.8313 86.8916 84.5503Z" fill="#1E1E1C"/>
<path d="M114.384 71.3677H108.321L101.709 77.7096V71.3677H96.822V89.362H101.709V80.1966L109.143 89.362H115.166L106.639 78.7979L114.384 71.3677Z" fill="#1E1E1C"/>
<path d="M123.011 80.8176V71.368H118.12V90.7304L130.559 79.9085V89.3624H135.446V70L123.011 80.8176Z" fill="#1E1E1C"/>
<path d="M142.78 89.3626C144.13 89.3626 145.224 88.2687 145.224 86.9193C145.224 85.57 144.13 84.4761 142.78 84.4761C141.431 84.4761 140.337 85.57 140.337 86.9193C140.337 88.2687 141.431 89.3626 142.78 89.3626Z" fill="#E94363"/>
</svg>
