<svg width="221" height="161" viewBox="0 0 221 161" fill="none" xmlns="http://www.w3.org/2000/svg">
<g clip-path="url(#clip0)">
<path d="M145.709 92.6507C144.521 91.4834 143.12 90.7831 141.487 90.5284C142.739 86.2203 142.908 81.6362 141.975 77.2432C142.314 77.2432 142.505 77.2644 142.505 77.2644C142.505 77.2644 136.883 69.5183 136.48 68.9665C136.713 68.3298 139.896 59.3103 139.896 59.3103C139.896 59.3103 130.794 62.2602 130.158 62.4724C129.627 62.0692 122.032 56.233 122.032 56.233V56.6999C115.243 55.1507 108.051 56.2118 102.111 59.6074C95.9369 63.0879 91.3331 69.0938 89.2964 76.267H85.9868L74 91.3561H79.7919C79.7919 91.3561 80.9163 89.8069 81.2133 89.4037H84.7775C84.7351 89.9554 84.6502 91.3561 84.6502 91.3561H89.2964V105.745H94.2397V101.522H95.0034C96.3188 101.522 97.4432 101.225 98.3555 100.652C97.6978 102.434 96.4673 105.745 96.4673 105.745H101.899C101.899 105.745 102.408 104.344 102.599 103.814H106.099C106.269 104.344 106.757 105.745 106.757 105.745H111.085H122.011H125.278C125.278 105.745 127.994 101.861 129.415 99.8239V105.745H134.38V103.601C134.422 103.644 134.464 103.708 134.528 103.75C136.034 105.236 137.923 106 140.129 106C142.335 106 144.224 105.236 145.73 103.75C147.236 102.264 148.021 100.397 148.021 98.1897C148 96.0038 147.236 94.1363 145.709 92.6507Z" fill="white"/>
<path d="M134.719 77.0314C136.629 81.9338 136.565 87.6426 134.528 92.6299C135.25 91.9296 136.035 91.399 136.904 91.0382C138.474 86.6452 138.708 81.7216 137.456 77.1163C136.522 77.0739 135.547 77.0527 134.719 77.0314ZM141.275 77.2012C140.511 77.18 139.45 77.1588 138.347 77.1163C139.768 81.3396 140.002 86.0297 138.962 90.4652C139.323 90.4228 139.705 90.4016 140.108 90.4016C140.341 90.4016 140.575 90.4016 140.787 90.4228C142.039 86.1995 142.229 81.6155 141.275 77.2012ZM129.415 80.8939C129.946 83.2284 129.882 85.7114 129.267 88.0671C128.715 90.1681 127.676 92.1418 126.254 93.8184V95.6011C128.333 93.691 129.946 91.2505 130.815 88.534C131.834 85.3931 131.919 81.9126 131.006 78.6868C130.54 79.3447 129.988 80.1299 129.415 80.8939ZM126.254 91.5688C126.551 91.1443 126.827 90.7199 127.082 90.2742C128.524 87.7488 129.097 84.7564 128.736 81.8489C128.121 82.719 127.527 83.5255 127.06 84.1409C127.082 86.0085 126.657 87.8973 125.809 89.5951C125.618 89.9559 125.427 90.3167 125.193 90.6775H126.254V91.5688V91.5688ZM133.786 77.0102C132.979 76.989 132.407 76.9678 132.258 76.9678C132.195 77.0739 131.94 77.3922 131.6 77.8803C133.213 81.8914 133.213 86.5179 131.707 90.6562H133.425C135.101 86.3693 135.313 81.4669 133.786 77.0102Z" fill="#0071CE"/>
<path d="M106.227 69.5186C110.024 68.0118 114.225 68.0331 117.81 69.3488C118.574 68.8183 119.359 68.2877 120.038 67.8208C120.038 67.7996 120.038 67.7784 120.038 67.7784C115.286 66.4202 110.173 67.1205 106.227 69.5186ZM109.43 70.7071C111.382 70.4736 113.334 70.6646 115.095 71.2164C115.646 70.8344 116.283 70.3887 116.962 69.9219C114.373 69.4974 111.743 69.7945 109.43 70.7071ZM110.024 64.786C106.014 65.932 102.493 68.3726 100.032 71.556C102.811 68.6273 106.481 66.6536 110.3 65.9745C113.928 65.3166 117.662 65.7623 120.929 67.2054C121.502 66.8022 121.926 66.5263 122.032 66.4414V65.0619C118.107 63.7461 113.864 63.6825 110.024 64.786ZM102.45 60.202C96.4037 63.6188 91.8636 69.3913 89.9966 75.8854C92.3303 69.5399 97.2099 64.3191 103.129 61.5178C109.048 58.674 115.986 58.3556 122.011 60.4354C122.011 60.4354 122.032 60.4354 122.032 60.4142C122.032 59.2682 122.032 58.1646 122.032 57.3794C115.37 55.8514 108.242 56.8913 102.45 60.202ZM106.184 62.6213C101.029 64.977 96.9129 69.2852 94.7913 74.3573C97.3372 69.4762 101.686 65.6774 106.693 63.8522C111.679 62.0059 117.259 62.1545 122.032 64.1069C122.032 63.2792 122.032 62.303 122.032 61.3268C116.749 59.8837 111.042 60.3718 106.184 62.6213Z" fill="#0071CE"/>
<path d="M135.716 69.0522C135.716 69.0522 138.368 61.5394 138.792 60.3722C137.604 60.7542 130.03 63.216 130.03 63.216C130.03 63.216 123.708 58.3773 122.732 57.6133C122.732 58.8654 122.732 66.8238 122.732 66.8238C122.732 66.8238 116.177 71.3442 115.137 72.0445C116.325 72.4265 123.899 74.8883 123.899 74.8883C123.899 74.8883 126.169 82.5284 126.509 83.7168C127.23 82.7194 131.918 76.2678 131.918 76.2678C131.918 76.2678 139.874 76.48 141.126 76.5012C140.405 75.5038 135.716 69.0522 135.716 69.0522Z" fill="#0071CE"/>
<path d="M133.892 65.168L132.322 69.5823L135.08 73.3811L130.391 73.2537L127.633 77.0525L126.296 72.5534L121.841 71.1103L125.702 68.4362V63.7461L129.436 66.6111L133.892 65.168Z" fill="white"/>
<path d="M142.632 100.843C141.975 101.607 141.126 101.989 140.108 101.989C139.089 101.989 138.262 101.607 137.583 100.843C136.947 100.122 136.607 99.2303 136.607 98.1904C136.607 97.1718 136.947 96.2592 137.604 95.5164C138.262 94.7736 139.089 94.3916 140.108 94.3916C141.126 94.3916 141.953 94.7524 142.611 95.5164C143.269 96.2592 143.608 97.1718 143.608 98.1904C143.587 99.2303 143.269 100.122 142.632 100.843ZM113.8 101.777C113.885 101.437 115.222 96.811 115.476 96.0045C115.71 96.8322 117.046 101.459 117.131 101.777H113.8ZM103.193 100.122C103.299 99.8033 104.19 96.8322 104.402 96.1106C104.614 96.8534 105.505 99.8033 105.59 100.122H103.193ZM145.242 93.1183C143.863 91.76 142.123 91.0809 140.108 91.0809C138.092 91.0809 136.353 91.76 134.974 93.1183C134.443 93.6276 134.019 94.2006 133.701 94.8161V91.3356H130.73C130.73 91.3356 126.063 97.9358 125.575 98.6149V91.3356H121.841V101.756H120.844C120.78 101.544 117.534 91.3356 117.534 91.3356L117.407 91.378C116.792 91.5266 116.134 91.6115 115.455 91.6115C114.776 91.6115 114.119 91.5266 113.482 91.378L113.355 91.3356C113.355 91.3356 110.236 100.737 109.982 101.459C109.706 100.737 106.248 91.3356 106.248 91.3356H102.535L97.4432 105.066H101.432C101.432 105.066 102.068 103.305 102.132 103.135H106.587C106.651 103.326 107.245 105.066 107.245 105.066H111.106H122.032H124.939C124.939 105.066 129.606 98.3814 130.094 97.6811V105.066H133.722V101.586C134.04 102.201 134.486 102.774 134.995 103.284C136.374 104.642 138.092 105.321 140.129 105.321C142.144 105.321 143.884 104.642 145.263 103.284C146.642 101.926 147.342 100.228 147.342 98.2116C147.321 96.1955 146.621 94.4765 145.242 93.1183ZM94.7063 97.5538H93.5607V94.6675H94.7063C96.0005 94.6675 96.5945 95.1132 96.5945 96.0894C96.5945 97.0656 95.9793 97.5538 94.7063 97.5538ZM100.031 95.856C100.031 94.3916 99.5011 93.2244 98.4615 92.4179C97.5068 91.6964 96.2763 91.3356 94.77 91.3356H89.9965V105.066H93.5607V100.843H95.0034C96.5733 100.843 97.8038 100.398 98.6949 99.5274C99.5859 98.6573 100.031 97.4264 100.031 95.856ZM85.7109 85.6904H83.059C83.3348 85.3084 85.52 82.3161 85.9867 81.6582C85.9443 82.4646 85.7321 85.457 85.7109 85.6904ZM75.4001 90.6565H79.4523C79.4523 90.6565 80.7677 88.8313 80.8526 88.7252H85.4776C85.4563 89.0011 85.3503 90.6565 85.3503 90.6565H89.2964V76.9256H86.305L75.4001 90.6565ZM93.5607 87.3458V85.0962H95.1731C96.446 85.0962 96.5945 85.7329 96.5945 86.1998C96.5945 86.6879 96.446 87.3458 95.0882 87.3458H93.5607ZM93.5607 80.2363H94.8549C95.8308 80.2363 95.9581 80.6607 95.9581 81.1064C95.9581 81.8704 95.6398 82.1887 94.8336 82.1887H93.5607V80.2363ZM100.18 86.3908C100.18 84.8628 99.4799 83.8229 98.1221 83.2711C99.0343 82.6768 99.5223 81.7643 99.5223 80.5122C99.5223 79.3237 99.0555 78.3899 98.1433 77.7532C97.3371 77.2015 96.3187 76.9256 95.1094 76.9256H89.9965V90.6565H95.1094C98.4615 90.6565 100.18 89.2133 100.18 86.3908ZM102.535 90.6565H106.269V80.2363H108.709V76.9256H100.095V80.2363H102.535V90.6565V90.6565ZM112.973 81.1064C113.631 80.3636 114.458 79.9816 115.476 79.9816C116.474 79.9816 117.322 80.3636 117.98 81.1064C118.638 81.8492 118.977 82.7617 118.977 83.7804C118.977 84.7991 118.659 85.6904 118.001 86.4332C117.322 87.1972 116.516 87.5792 115.476 87.5792C114.458 87.5792 113.631 87.1972 112.952 86.4332C112.315 85.7116 111.976 84.8203 111.976 83.7804C111.976 82.7617 112.315 81.8492 112.973 81.1064ZM110.342 88.8526C111.721 90.2108 113.461 90.8899 115.476 90.8899C117.492 90.8899 119.21 90.2108 120.611 88.8526C121.99 87.4943 122.69 85.7753 122.69 83.7804C122.69 81.7643 121.99 80.0665 120.611 78.7083C119.232 77.35 117.513 76.6709 115.476 76.6709C113.461 76.6709 111.742 77.35 110.342 78.7083C108.963 80.0665 108.263 81.7643 108.263 83.7804C108.242 85.7965 108.942 87.4943 110.342 88.8526Z" fill="#CE0E2D"/>
</g>
<defs>
<clipPath id="clip0">
<rect width="74" height="50" fill="white" transform="translate(74 56)"/>
</clipPath>
</defs>
</svg>
