<svg width="221" height="161" viewBox="0 0 221 161" fill="none" xmlns="http://www.w3.org/2000/svg">
<g clip-path="url(#clip0_817_384)">
<path d="M58 82.8579C58.4271 83.1317 58.9087 83.308 59.4109 83.3742V91.9928C59.1686 92.0651 58.9324 92.1395 58.7044 92.218C58.4643 92.3016 58.2292 92.3988 58 92.5092V93.0462H60.9287L65.4592 85.7597L66.2807 84.1487H66.3875L66.1822 85.8464V91.9928C65.7332 92.1043 65.3019 92.2781 64.9006 92.5092V93.0462H69.4127V92.5092C69.2118 92.3861 68.9966 92.2883 68.7719 92.218C68.5296 92.1395 68.2729 92.0651 68.0018 91.9928V83.3742C68.4978 83.2837 68.9749 83.1091 69.4127 82.8579V82.3002H66.5375L61.9535 89.6425L61.1197 91.2535H61.0129L61.249 89.2542V83.3742C61.5325 83.2875 61.7789 83.2007 61.9863 83.116C62.1721 83.0396 62.3538 82.9535 62.5306 82.8579V82.3002H58V82.8579ZM75.6746 92.5092C75.5085 92.3887 75.3294 92.2876 75.1406 92.2076C74.906 92.1139 74.6623 92.0447 74.4136 92.0011V88.0811H79.1537V91.9928C78.6919 92.0632 78.2526 92.2399 77.8701 92.5092V93.0462H82.4869V92.5092C82.2865 92.3644 82.0628 92.2554 81.8256 92.187C81.5812 92.1147 81.3327 92.0507 81.076 91.9928V83.3742C81.5749 83.2948 82.0539 83.1195 82.4869 82.8579V82.3002H77.8762V82.8579C78.2592 83.1263 78.6983 83.303 79.1598 83.3742V87.1352H74.4136V83.3742C74.8551 83.26 75.2793 83.0863 75.6746 82.8579V82.3002H71.0804V82.8579C71.291 82.9774 71.5133 83.075 71.7437 83.1491C71.984 83.2276 72.2346 83.3019 72.4913 83.3742V91.9928C72.2346 92.0651 71.984 92.1395 71.7437 92.218C71.513 92.2912 71.2906 92.3888 71.0804 92.5092V93.0462H75.6746V92.5092ZM93.2445 93.0462L94.1933 96.2268H94.7211C94.806 95.5246 94.8697 94.8155 94.9121 94.0995C94.9545 93.3835 94.9682 92.6813 94.9532 91.9928H93.0514V83.3742C93.5536 83.308 94.0353 83.1317 94.4623 82.8579V82.3002H85.3786V82.8579C85.5907 83.0096 85.8123 83.1476 86.0419 83.2709C86.304 83.4065 86.5793 83.5145 86.8634 83.5931C86.8727 84.7105 86.8041 85.8271 86.6581 86.9348C86.549 87.7614 86.3851 88.5798 86.1672 89.3843C86.0125 89.9575 85.8062 90.5154 85.5511 91.0511C85.3961 91.388 85.2024 91.7054 84.974 91.997H83.522C83.522 92.6847 83.5384 93.387 83.5754 94.1036C83.6124 94.8203 83.6616 95.5287 83.7315 96.2309H84.288L85.2369 93.0503L93.2445 93.0462ZM91.1291 83.4176V91.9928H86.2761C86.4721 91.6421 86.6503 91.2816 86.81 90.9127C87.0397 90.3671 87.2265 89.8043 87.3687 89.2294C87.5721 88.4239 87.7257 87.6066 87.8287 86.782C87.9662 85.6681 88.0307 84.5462 88.0218 83.4238L91.1291 83.4176ZM100.923 93.0462C100.808 93.4179 100.718 93.7257 100.624 93.9694C100.529 94.2131 100.459 94.4134 100.389 94.5725C100.328 94.7081 100.259 94.8405 100.184 94.969C100.12 95.0764 100.044 95.1879 99.9602 95.3036H97.7319L97.4546 95.8179C97.5409 96.1194 97.6436 96.4375 97.7648 96.7638C97.8749 97.0762 98.0123 97.3783 98.1755 97.6663C98.5302 97.5988 98.8752 97.4871 99.2024 97.3338C99.5583 97.1562 99.8769 96.9115 100.141 96.613C100.503 96.2063 100.812 95.7553 101.061 95.2705C101.435 94.5521 101.759 93.8089 102.032 93.0462L105.368 83.3742C105.798 83.2659 106.208 83.0917 106.586 82.8579V82.3002H102.948V82.8579C103.298 83.1132 103.699 83.2893 104.123 83.3742L102.092 89.7148L101.772 91.0676H101.731L101.32 89.7354L98.6027 83.3742C99.032 83.2544 99.4421 83.0736 99.8206 82.8372V82.3002H95.3393V82.8579C95.5152 82.9681 95.6969 83.0688 95.8835 83.1594C96.0729 83.2456 96.2694 83.3147 96.4709 83.3659L100.923 93.0462ZM114.965 91.2411C114.678 91.4578 114.362 91.6317 114.026 91.7574C113.607 91.9055 113.164 91.9755 112.72 91.9639C112.161 91.9753 111.608 91.8498 111.108 91.5984C110.655 91.3637 110.26 91.029 109.954 90.6194C109.643 90.2037 109.411 89.7339 109.27 89.2336C109.119 88.717 109.043 88.1815 109.044 87.6433C109.044 85.9524 109.308 84.7525 109.835 84.0434C110.362 83.3343 111.11 82.979 112.079 82.9777C112.294 82.9692 112.51 82.988 112.72 83.0334C112.843 83.066 112.959 83.1199 113.063 83.1925L113.961 85.7514H114.538C114.734 85.2815 114.877 84.791 114.965 84.2891C115.071 83.7634 115.149 83.2326 115.201 82.6988C114.757 82.478 114.286 82.3156 113.8 82.2155C113.185 82.0874 112.558 82.0264 111.93 82.0338C110.406 82.0338 109.202 82.5157 108.319 83.4795C107.436 84.4434 106.994 85.8368 106.992 87.6598C106.979 88.4447 107.079 89.2274 107.29 89.9833C107.476 90.6357 107.792 91.243 108.22 91.7677C108.639 92.2656 109.17 92.6557 109.769 92.9057C110.465 93.1862 111.211 93.3219 111.96 93.3043C112.667 93.3202 113.365 93.1455 113.981 92.7983C114.511 92.5107 114.945 92.0735 115.23 91.5405L114.953 91.2411H114.965ZM123.408 92.5092C122.965 92.2703 122.489 92.0964 121.997 91.9928V83.24H124.028L124.944 85.8196H125.486C125.571 85.2041 125.63 84.5914 125.663 83.9814C125.698 83.3618 125.725 82.8104 125.737 82.2961H116.327C116.341 82.8393 116.368 83.4093 116.411 84.0041C116.454 84.5989 116.507 85.2041 116.577 85.8196H117.119L118.037 83.24H120.066V91.9887C119.576 92.1005 119.102 92.2739 118.656 92.5051V93.042H123.402V92.5051L123.408 92.5092ZM131.73 96.8071C131.501 96.6629 131.257 96.5438 131.003 96.4519C130.782 96.3746 130.553 96.3207 130.321 96.2908V92.8747C130.636 93.0187 130.965 93.1301 131.303 93.2073C131.709 93.2804 132.122 93.3129 132.535 93.3043C133.24 93.3111 133.94 93.1704 134.589 92.8913C135.195 92.6283 135.736 92.2316 136.17 91.7306C136.627 91.1899 136.969 90.5608 137.174 89.8821C137.419 89.0893 137.538 88.2627 137.527 87.4326C137.527 85.527 137.178 84.1501 136.48 83.3019C135.782 82.4538 134.806 82.0338 133.553 82.0421C132.827 82.0074 132.113 82.2402 131.545 82.6968C131.006 83.1706 130.595 83.7728 130.348 84.4482H130.327V82.0421H129.791C129.335 82.1123 128.869 82.2087 128.392 82.3312C127.913 82.4534 127.445 82.6151 126.992 82.8145V83.3742L128.403 83.5456V96.2908C127.917 96.4169 127.444 96.5898 126.992 96.8071V97.3441H131.73V96.8071ZM134.092 83.6737C134.435 83.8796 134.719 84.1731 134.913 84.5246C135.132 84.9264 135.283 85.3619 135.361 85.8134C135.457 86.349 135.504 86.8924 135.5 87.4367C135.509 88.0979 135.44 88.7579 135.295 89.4029C135.168 89.95 134.961 90.475 134.679 90.9602C134.444 91.3758 134.115 91.7296 133.718 91.9928C133.339 92.2371 132.897 92.3642 132.446 92.3584C132.026 92.3678 131.607 92.3283 131.196 92.2407C130.891 92.1678 130.599 92.048 130.331 91.8855V85.8671C130.455 85.1899 130.757 84.5586 131.206 84.0392C131.421 83.8158 131.681 83.641 131.969 83.5263C132.256 83.4117 132.565 83.3598 132.874 83.3742C133.304 83.3594 133.73 83.463 134.106 83.6737H134.092ZM139.253 82.8579C139.68 83.1308 140.162 83.307 140.664 83.3742V91.9928C140.421 92.0651 140.187 92.1395 139.959 92.218C139.718 92.3019 139.483 92.3992 139.253 92.5092V93.0462H142.181L146.722 85.7597L147.544 84.1487H147.65L147.445 85.8464V91.9928C146.996 92.1043 146.565 92.2781 146.164 92.5092V93.0462H150.694V92.5092C150.493 92.3858 150.277 92.288 150.051 92.218C149.809 92.1395 149.554 92.0651 149.283 91.9928V83.3742C149.779 83.2837 150.256 83.1091 150.694 82.8579V82.3002H147.788L143.214 89.6425L142.38 91.2535H142.274L142.508 89.2542V83.3742C142.793 83.2875 143.04 83.2007 143.245 83.116C143.432 83.0396 143.614 82.9534 143.791 82.8579V82.3002H139.259V82.8579H139.253ZM153.103 86.6188C153.254 86.9382 153.463 87.2261 153.719 87.4677C153.965 87.7033 154.251 87.8928 154.563 88.0274C154.871 88.1627 155.194 88.2598 155.525 88.3166C155.169 88.7778 154.769 89.3368 154.327 89.9936C153.843 90.7051 153.299 91.3739 152.703 91.9928L151.507 92.5092V93.0462H153.921L154.584 92.5505C155.174 91.8951 155.684 91.1705 156.102 90.3922C156.471 89.6817 156.808 89.0766 157.106 88.5747L158.667 88.3682V92.0011C158.424 92.0734 158.199 92.1477 157.993 92.2262C157.788 92.304 157.592 92.4016 157.406 92.5174V93.0544H162V92.5174C161.542 92.3141 161.07 92.1416 160.589 92.0011V83.3742C160.907 83.3279 161.218 83.2483 161.519 83.1367C161.694 83.0714 161.856 82.9772 162 82.8579V82.3002H160.462C160.277 82.3002 160.024 82.3002 159.704 82.2775L158.71 82.2341L157.736 82.1908C157.43 82.1784 157.192 82.1701 157.022 82.1701C156.382 82.1563 155.743 82.2399 155.128 82.418C154.661 82.5554 154.225 82.785 153.847 83.0933C153.52 83.3708 153.266 83.7257 153.109 84.126C152.949 84.5513 152.869 85.0032 152.875 85.4581C152.866 85.8578 152.946 86.2544 153.109 86.6188H153.103ZM158.661 87.8002H158.083C156.988 87.8002 156.18 87.5751 155.658 87.1249C155.407 86.914 155.206 86.6488 155.071 86.3492C154.936 86.0495 154.87 85.723 154.878 85.3941C154.849 84.7971 155.026 84.2084 155.379 83.7274C155.713 83.306 156.322 83.0995 157.207 83.1078C157.412 83.1078 157.652 83.1222 157.944 83.1511C158.235 83.1801 158.476 83.209 158.661 83.2358V87.792V87.8002Z" fill="#E40521"/>
<path d="M65.482 63.8716C65.714 63.9884 65.9542 64.0878 66.2008 64.169C66.4534 64.2537 66.7204 64.3321 67.0038 64.4044L63.0504 69.9953L61.7811 70.2927V64.4044C62.0769 64.3321 62.3582 64.2516 62.6273 64.1587C62.8963 64.0657 63.1407 63.9707 63.3666 63.8716V63.252H58.0166V63.8716C58.5598 64.1476 59.1461 64.3278 59.75 64.4044V77.0133C59.1572 77.127 58.5768 77.2979 58.0166 77.5234V78.143H63.3666V77.5234C62.8693 77.2676 62.3338 77.0953 61.7811 77.0133V71.0238H62.808C63.5843 72.1859 64.3846 73.3343 65.2088 74.4688C66.0331 75.6034 66.8614 76.6594 67.6939 77.637L68.4127 78.1472H71.062V77.6081L70.0475 77.098C69.5402 76.5321 69.0206 75.9311 68.4948 75.3011C67.9691 74.6712 67.4474 74.0454 66.9504 73.4299C66.4534 72.8145 65.9708 72.2155 65.5128 71.6331C65.0548 71.0507 64.6482 70.5282 64.297 70.0593L68.5462 64.4044C68.8009 64.3466 69.0617 64.2764 69.3287 64.1979C69.6082 64.1067 69.8825 63.9998 70.1502 63.8778V63.2582H65.482V63.8778V63.8716ZM76.8002 77.5234C76.5531 77.4073 76.2986 77.308 76.0383 77.226C75.7687 77.1412 75.4944 77.0722 75.2168 77.0195V71.0548H81.8566V77.0133C81.3112 77.125 80.7796 77.2961 80.2711 77.5234V78.143H85.6211V77.5234C85.3619 77.4027 85.0933 77.3032 84.8181 77.226C84.5114 77.1396 84.2001 77.0707 83.8857 77.0195V64.4044C84.1835 64.3466 84.4813 64.2805 84.7852 64.1979C85.0768 64.1244 85.3578 64.0133 85.6211 63.8674V63.2478H80.2813V63.8674C80.5252 63.9829 80.7763 64.0822 81.033 64.1648C81.2918 64.2495 81.5711 64.328 81.8668 64.4003V69.954H75.2127V64.4044C75.4899 64.3498 75.764 64.2809 76.0342 64.1979C76.297 64.1138 76.5519 64.0066 76.7961 63.8778V63.2582H71.4502V63.8778C71.9953 64.148 72.5809 64.3259 73.1836 64.4044V77.0133C72.5908 77.1267 72.0103 77.2976 71.4502 77.5234V78.143H76.8002V77.5234ZM91.6406 77.5234C91.3844 77.404 91.1194 77.3045 90.8479 77.226C90.5456 77.1387 90.2383 77.0698 89.9278 77.0195V76.5445L96.2 67.806L97.1303 66.2116L96.925 67.806V77.0133C96.6301 77.0649 96.3396 77.1395 96.0562 77.2364C95.7892 77.3293 95.5428 77.4243 95.3169 77.5234V78.143H100.687V77.5234C100.134 77.2787 99.5514 77.1072 98.9541 77.0133V64.4044C99.2642 64.3321 99.5702 64.2537 99.8639 64.169C100.144 64.0896 100.419 63.9902 100.685 63.8716V63.252H95.3189V63.8633C95.5592 63.9624 95.8221 64.0554 96.1117 64.1463C96.414 64.2427 96.7211 64.3233 97.0317 64.3879V64.8918L90.8376 73.5435L89.821 75.2268L90.0551 73.6323V64.4044C90.3776 64.3321 90.6713 64.2537 90.9218 64.169C91.1681 64.0871 91.4083 63.9877 91.6406 63.8716V63.252H86.2906V63.8716C86.5762 63.986 86.8675 64.0853 87.1635 64.169C87.4592 64.2537 87.7488 64.3321 88.0301 64.4044V77.0133C87.4312 77.0997 86.8475 77.2714 86.2968 77.5234V78.143H91.6406V77.5234ZM110.053 70.1233H108.699L105.126 64.4044C105.391 64.3379 105.652 64.2558 105.908 64.1587C106.131 64.0745 106.35 63.9786 106.563 63.8716V63.252H101.891V63.8716C102.379 64.0792 102.879 64.2571 103.388 64.4044L107.362 70.2514C107.038 70.7182 106.678 71.2317 106.284 71.7921C105.89 72.3525 105.472 72.9329 105.031 73.5332C104.579 74.1308 104.107 74.7332 103.614 75.3404C103.121 75.9476 102.613 76.5362 102.09 77.1062L101.098 77.6164V78.1389H103.739L104.46 77.6081C105.283 76.6384 106.026 75.6022 106.68 74.5101C107.327 73.4265 108.031 72.303 108.794 71.1395L110.063 70.8214V77.0174C109.527 77.1066 109.007 77.2773 108.522 77.5234V78.143H113.452V77.5234C113.238 77.4093 113.015 77.3133 112.786 77.2364C112.555 77.1579 112.319 77.0835 112.078 77.0133V71.0238H113.31C114.071 72.1859 114.794 73.3308 115.479 74.4585C116.15 75.5708 116.91 76.6268 117.75 77.6164L118.469 78.1472H121.112V77.6081L120.12 77.098C119.597 76.5321 119.092 75.9366 118.606 75.3115C118.12 74.6864 117.656 74.0626 117.212 73.4403C116.768 72.8165 116.342 72.2142 115.932 71.6331C115.523 71.0521 115.136 70.5275 114.77 70.0593L118.615 64.4044C118.884 64.3321 119.151 64.2537 119.42 64.169C119.686 64.0846 119.947 63.9853 120.202 63.8716V63.252H115.55V63.8716C115.789 63.9563 116.033 64.0451 116.28 64.138C116.526 64.2309 116.791 64.3177 117.072 64.4044L113.519 69.9953L112.082 70.2927V64.4044L112.854 64.1277C113.057 64.0529 113.257 63.9674 113.452 63.8716V63.252H108.551V63.8716C108.77 63.9797 108.996 64.0722 109.227 64.1483C109.482 64.233 109.757 64.3177 110.048 64.4044V70.1233H110.053ZM126.846 77.5234C126.6 77.407 126.346 77.3076 126.086 77.226C125.817 77.1414 125.542 77.0724 125.265 77.0195V71.0548H131.904V77.0133C131.359 77.125 130.828 77.2961 130.319 77.5234V78.143H135.659V77.5234C135.4 77.4023 135.131 77.3029 134.856 77.226C134.55 77.1394 134.239 77.0705 133.925 77.0195V64.4044C134.221 64.3466 134.521 64.2805 134.825 64.1979C135.116 64.1244 135.396 64.0133 135.659 63.8674V63.2478H130.319V63.8674C130.562 63.9829 130.813 64.0822 131.069 64.1648C131.329 64.2495 131.609 64.328 131.904 64.4003V69.954H125.261V64.4044C125.538 64.3496 125.812 64.2806 126.082 64.1979C126.344 64.1141 126.599 64.007 126.842 63.8778V63.2582H121.502V63.8778C122.047 64.1501 122.633 64.3302 123.236 64.4106V77.0133C122.643 77.1265 122.062 77.2973 121.502 77.5234V78.143H126.842V77.5234H126.846ZM140.083 77.5234C139.5 77.2782 138.89 77.1069 138.265 77.0133L139.651 73.1201H144.679L146.116 77.0112C145.835 77.067 145.546 77.1372 145.25 77.2178C144.956 77.3017 144.667 77.401 144.383 77.5152V78.1348H149.838V77.5152C149.597 77.3728 149.338 77.2651 149.068 77.1951C148.792 77.1248 148.513 77.0608 148.232 77.005L142.874 63H142.257L136.918 77.0133C136.394 77.1321 135.884 77.303 135.394 77.5234V78.143H140.089V77.5234H140.083ZM141.693 67.5437L142.218 65.6849H142.259L142.67 67.5148L144.332 72.0214H140.072L141.693 67.5437ZM159.281 63.2561C158.844 63.2561 158.418 63.2437 158.002 63.2231C157.585 63.2024 157.238 63.1921 156.956 63.1921C156.241 63.1914 155.527 63.2731 154.831 63.4358C154.167 63.5844 153.534 63.8471 152.96 64.2124C152.416 64.5603 151.96 65.0296 151.627 65.5837C151.275 66.1932 151.099 66.8891 151.119 67.5933C151.11 68.1324 151.196 68.6688 151.374 69.1774C151.529 69.614 151.758 70.0206 152.05 70.3794C152.33 70.7177 152.666 71.0049 153.044 71.2283C153.417 71.452 153.814 71.6308 154.229 71.7612C153.945 72.1742 153.668 72.5873 153.393 73.0148C153.118 73.4423 152.832 73.874 152.536 74.3118C152.241 74.7497 151.92 75.2061 151.563 75.6729C151.188 76.1695 150.786 76.6452 150.36 77.098L149.343 77.6081V78.1389H152.013L152.732 77.6081C153.087 77.1846 153.412 76.7367 153.705 76.2677C153.986 75.8154 154.255 75.3466 154.51 74.8654C154.765 74.3841 155.013 73.8946 155.26 73.3969C155.506 72.8992 155.786 72.3993 156.096 71.8892H158.223V77.0133C157.587 77.0787 156.965 77.2511 156.385 77.5234V78.143H161.988V77.5234C161.444 77.2541 160.857 77.0815 160.254 77.0133V64.4044C160.591 64.3437 160.923 64.2616 161.249 64.1587C161.501 64.0785 161.748 63.9826 161.988 63.8716V63.252L159.281 63.2561ZM154.216 70.0717C153.659 69.4838 153.381 68.6576 153.383 67.5933C153.383 66.4312 153.703 65.5913 154.344 65.0736C154.985 64.5559 155.848 64.297 156.934 64.297C157.139 64.297 157.361 64.297 157.622 64.3177C157.825 64.3233 158.027 64.3524 158.223 64.4044V70.807C158.003 70.8696 157.776 70.9084 157.548 70.9226C157.279 70.9433 157.02 70.9536 156.765 70.9536C155.623 70.9536 154.774 70.6596 154.216 70.0717Z" fill="#1D1D1B"/>
</g>
<defs>
<clipPath id="clip0_817_384">
<rect width="108" height="36" fill="white" transform="translate(56 63)"/>
</clipPath>
</defs>
</svg>
