<svg width="221" height="161" viewBox="0 0 221 161" fill="none" xmlns="http://www.w3.org/2000/svg">
<g clip-path="url(#clip0)">
<path d="M65.2872 75.7266H54V78.9613H65.2872V75.7266Z" fill="#E84263"/>
<path d="M76.2385 58.362C76.0567 57.9187 75.7443 57.5426 75.3436 57.2847C74.9429 57.0268 74.4734 56.8995 73.9986 56.9203C72.6147 56.9203 71.6708 58.0833 71.6708 59.521C71.6708 60.9587 72.6707 62.1218 74.0706 62.1218C74.5273 62.1391 74.9786 62.0185 75.367 61.7753C75.7553 61.5322 76.0629 61.1775 76.2505 60.7568H79.3223C79.018 62.0621 78.2493 63.2091 77.1623 63.9796C76.0753 64.7501 74.7458 65.0904 73.4265 64.9359C72.1072 64.7813 70.8902 64.1427 70.0068 63.1414C69.1233 62.1401 68.6352 60.8459 68.635 59.5049C68.6394 58.1627 69.1345 56.8694 70.0251 55.873C70.9158 54.8766 72.1394 54.2472 73.4613 54.1056C74.7832 53.964 76.1103 54.3201 77.1882 55.1055C78.2662 55.891 79.019 57.0506 79.3023 58.362H76.2385Z" fill="#1D1D1B"/>
<path d="M80.946 64.6503V54.4129H83.7778V55.4992H83.8138C84.3418 54.4129 85.1977 54.0615 86.3417 54.0615V57.1428C84.5418 57.1428 83.9418 57.8455 83.9418 59.0046V64.6584L80.946 64.6503Z" fill="#1D1D1B"/>
<path d="M89.8495 60.4619C89.9333 61.0236 90.2216 61.5336 90.658 61.8921C91.0944 62.2506 91.6476 62.4318 92.2094 62.4004C92.5712 62.4121 92.9301 62.33 93.2515 62.1617C93.5729 61.9934 93.8462 61.7446 94.0452 61.4392H97.133C96.1731 63.6725 94.3332 64.9809 92.2094 64.9809C90.8275 64.912 89.5245 64.3109 88.5682 63.3014C87.612 62.2919 87.0753 60.9508 87.0687 59.5539C87.062 58.157 87.5858 56.8107 88.5324 55.792C89.479 54.7732 90.7763 54.1595 92.1574 54.0771C95.1731 54.0771 97.481 56.5002 97.481 59.6663C97.4835 59.9373 97.4593 60.2079 97.409 60.474L89.8495 60.4619ZM94.4652 58.3983C94.3419 57.8816 94.0439 57.4246 93.6226 57.1061C93.2013 56.7876 92.6831 56.6276 92.1574 56.6537C91.6356 56.6319 91.1227 56.7953 90.7077 57.1154C90.2927 57.4356 90.0019 57.8923 89.8855 58.4064L94.4652 58.3983Z" fill="#1D1D1B"/>
<path d="M106.728 64.6503V63.5438H106.692C106.256 64.4484 105.057 65.0016 103.729 65.0016C100.749 65.0016 98.677 62.623 98.677 59.5215C98.677 56.4967 100.841 54.0615 103.729 54.0615C104.965 54.0615 106.128 54.5623 106.692 55.5032H106.728V54.4129H109.744V64.6503H106.728ZM106.728 59.5215C106.73 59.1809 106.665 58.8433 106.537 58.5281C106.409 58.2129 106.221 57.9262 105.983 57.6846C105.745 57.443 105.463 57.2512 105.151 57.1201C104.84 56.989 104.506 56.9213 104.169 56.9207C103.834 56.9275 103.503 57.0015 103.197 57.1384C102.891 57.2753 102.615 57.4725 102.385 57.7183C102.154 57.9641 101.975 58.2537 101.857 58.5703C101.739 58.8868 101.685 59.2239 101.697 59.5619C101.702 60.2356 101.972 60.8795 102.448 61.3521C102.923 61.8247 103.565 62.0872 104.233 62.0819C104.9 62.0765 105.538 61.8037 106.006 61.3236C106.474 60.8434 106.734 60.1952 106.728 59.5215Z" fill="#1D1D1B"/>
<path d="M112.632 64.6499V56.7386H111.144V54.4125H112.632V51H115.651V54.4125H117.103V56.7386H115.651V64.6499H112.632Z" fill="#1D1D1B"/>
<path d="M120.575 60.4619C120.659 61.0236 120.947 61.5336 121.384 61.8921C121.82 62.2506 122.373 62.4318 122.935 62.4004C123.297 62.4125 123.656 62.3305 123.978 62.1622C124.299 61.9939 124.572 61.7449 124.771 61.4392H127.863C126.899 63.6725 125.063 64.9809 122.935 64.9809C121.553 64.912 120.25 64.3109 119.294 63.3014C118.338 62.2919 117.801 60.9508 117.794 59.5539C117.788 58.157 118.312 56.8107 119.258 55.792C120.205 54.7732 121.502 54.1595 122.883 54.0771C125.899 54.0771 128.207 56.5002 128.207 59.6663C128.209 59.9373 128.185 60.2079 128.135 60.474L120.575 60.4619ZM125.195 58.3983C125.072 57.8809 124.773 57.4234 124.351 57.1048C123.929 56.7862 123.41 56.6266 122.883 56.6537C122.361 56.6319 121.849 56.7953 121.434 57.1154C121.019 57.4356 120.728 57.8923 120.611 58.4064L125.195 58.3983Z" fill="#1D1D1B"/>
<path d="M137.51 64.6499V63.5434H137.474C136.91 64.4843 135.874 64.9811 134.454 64.9811C131.403 64.9811 129.403 62.6024 129.403 59.5049C129.403 56.4075 131.459 54.0611 134.394 54.0611C134.945 54.0407 135.493 54.1381 136.003 54.3469C136.513 54.5558 136.974 54.8712 137.354 55.2727V51H140.394V64.6499H137.51ZM137.51 59.4848C137.51 58.8014 137.241 58.1461 136.763 57.6629C136.284 57.1797 135.635 56.9082 134.958 56.9082C134.282 56.9082 133.633 57.1797 133.154 57.6629C132.675 58.1461 132.407 58.8014 132.407 59.4848C132.388 59.8284 132.441 60.1721 132.56 60.4945C132.679 60.8168 132.863 61.1109 133.1 61.3584C133.336 61.6058 133.621 61.8013 133.936 61.9327C134.251 62.0641 134.59 62.1284 134.93 62.1218C135.275 62.1309 135.619 62.0685 135.939 61.9387C136.259 61.8089 136.55 61.6144 136.793 61.367C137.036 61.1197 137.227 60.8247 137.353 60.5004C137.479 60.176 137.538 59.829 137.526 59.4807" fill="#1D1D1B"/>
<path d="M72.1308 69.4111H69.115V79.6486H72.1308V69.4111Z" fill="#1D1D1B"/>
<path d="M80.6341 79.6483V73.9663C80.6341 72.5851 80.1621 71.9471 79.0342 71.9471C77.8343 71.9471 77.3103 72.6295 77.3103 74.0107V79.6645H74.3105V69.4109H77.1103V70.4973H77.1463C77.7823 69.4473 78.6702 69.0596 79.8902 69.0596C81.706 69.0596 83.6339 70.0934 83.6339 73.1182V79.6483H80.6341Z" fill="#1D1D1B"/>
<path d="M103.877 79.6487V74.1322C103.877 72.5168 103.369 71.9393 102.333 71.9393C101.189 71.9393 100.661 72.638 100.661 73.9868V79.6406H97.645V74.0191C97.645 72.6905 97.169 71.9555 96.1331 71.9555C94.9332 71.9555 94.4252 72.7309 94.4252 74.1483V79.6487H91.4094V69.4113H94.2092V70.4976H94.2452C94.7732 69.5405 95.7371 69.0599 97.045 69.0599C97.6512 69.0548 98.2463 69.2237 98.7611 69.5469C99.2759 69.87 99.6892 70.3342 99.9528 70.8853C100.278 70.3223 100.746 69.8567 101.308 69.536C101.871 69.2153 102.507 69.051 103.153 69.0599C105.404 69.0599 106.896 70.4613 106.896 73.3205V79.6487H103.877Z" fill="#1D1D1B"/>
<path d="M113.996 79.9636C112.933 79.9557 111.896 79.6305 111.015 79.0291C110.135 78.4277 109.45 77.5769 109.047 76.5836C108.644 75.5903 108.541 74.4989 108.75 73.4465C108.96 72.3942 109.473 71.4279 110.225 70.6692C110.977 69.9105 111.934 69.3932 112.977 69.1823C114.019 68.9714 115.1 69.0764 116.083 69.484C117.067 69.8916 117.909 70.5837 118.504 71.4733C119.099 72.3628 119.42 73.4101 119.427 74.4835C119.446 75.2086 119.318 75.9301 119.052 76.6038C118.786 77.2774 118.386 77.8893 117.878 78.4021C117.37 78.9148 116.763 79.3177 116.096 79.5862C115.429 79.8546 114.714 79.9831 113.996 79.9636ZM116.396 74.5198C116.368 74.0427 116.203 73.5842 115.92 73.2011C115.637 72.8179 115.249 72.5269 114.804 72.3641C114.359 72.2013 113.877 72.1739 113.416 72.2851C112.956 72.3964 112.538 72.6415 112.214 72.9902C111.891 73.3388 111.675 73.7757 111.595 74.2466C111.515 74.7176 111.573 75.202 111.763 75.6399C111.952 76.0778 112.265 76.4499 112.662 76.7102C113.059 76.9705 113.522 77.1076 113.996 77.1044C114.653 77.0812 115.274 76.7964 115.724 76.3121C116.174 75.8277 116.415 75.1834 116.396 74.5198Z" fill="#1D1D1B"/>
<path d="M125.407 72.2864C125.407 71.6968 124.971 71.5151 124.479 71.5151C123.987 71.5151 123.607 71.8099 123.607 72.1976C123.607 72.7508 124.099 73.0053 125.499 73.4091C127.899 74.0512 128.699 75.0245 128.699 76.5268C128.699 78.6631 126.883 80.0119 124.591 80.0119C122.299 80.0119 120.703 78.6994 120.483 76.6156H123.483C123.497 76.7534 123.537 76.8872 123.602 77.0091C123.667 77.1311 123.755 77.239 123.861 77.3264C123.968 77.4139 124.09 77.4792 124.221 77.5187C124.353 77.5582 124.491 77.5711 124.627 77.5566C125.155 77.5566 125.683 77.2456 125.683 76.7489C125.683 76.1754 125.335 75.8806 123.827 75.4C121.283 74.5924 120.627 73.5949 120.627 72.3955C120.627 70.3762 122.499 69.0557 124.535 69.0557C126.715 69.0557 128.259 70.2672 128.407 72.2864H125.407Z" fill="#1D1D1B"/>
<path d="M137.31 73.3567C137.126 72.9122 136.81 72.5357 136.407 72.2785C136.003 72.0212 135.531 71.8957 135.054 71.919C133.674 71.919 132.73 73.0821 132.73 74.5198C132.73 75.9574 133.73 77.1205 135.13 77.1205C135.587 77.137 136.039 77.0161 136.428 76.7731C136.816 76.5301 137.125 76.1759 137.314 75.7555H140.394C140.101 77.086 139.333 78.2606 138.235 79.0542C137.138 79.8477 135.789 80.2044 134.447 80.0558C133.105 79.9072 131.865 79.2637 130.964 78.2488C130.063 77.2339 129.565 75.919 129.565 74.5561C129.565 73.1932 130.063 71.8783 130.964 70.8634C131.865 69.8485 133.105 69.2051 134.447 69.0564C135.789 68.9078 137.138 69.2645 138.235 70.058C139.333 70.8516 140.101 72.0262 140.394 73.3567H137.31Z" fill="#1D1D1B"/>
<path d="M146.993 79.9636C145.93 79.9557 144.893 79.6305 144.013 79.0291C143.132 78.4277 142.447 77.5769 142.044 76.5836C141.641 75.5903 141.538 74.4989 141.748 73.4465C141.957 72.3942 142.47 71.4279 143.222 70.6692C143.974 69.9105 144.932 69.3932 145.974 69.1823C147.017 68.9714 148.097 69.0764 149.081 69.484C150.064 69.8916 150.907 70.5837 151.502 71.4733C152.097 72.3628 152.418 73.4101 152.425 74.4835C152.444 75.2088 152.317 75.9305 152.051 76.6044C151.785 77.2784 151.385 77.8905 150.877 78.4034C150.368 78.9162 149.762 79.3191 149.094 79.5874C148.427 79.8556 147.712 79.9837 146.993 79.9636ZM149.393 74.5198C149.366 74.0427 149.2 73.5842 148.918 73.2011C148.635 72.8179 148.247 72.5269 147.802 72.3641C147.357 72.2013 146.874 72.1739 146.414 72.2851C145.954 72.3964 145.536 72.6415 145.212 72.9902C144.888 73.3388 144.673 73.7757 144.593 74.2466C144.512 74.7176 144.571 75.202 144.76 75.6399C144.95 76.0778 145.262 76.4499 145.659 76.7102C146.056 76.9705 146.52 77.1076 146.993 77.1044C147.65 77.0812 148.272 76.7964 148.721 76.3121C149.171 75.8277 149.413 75.1834 149.393 74.5198Z" fill="#1D1D1B"/>
<path d="M162.112 79.6486L160.421 73.0255H160.385L158.697 79.6486H155.897L152.809 69.4111H155.933L157.441 75.7757H157.477L159.133 69.4111H161.676L163.348 75.7757H163.384L164.892 69.4111H168L164.892 79.6486H162.112Z" fill="#1D1D1B"/>
</g>
<defs>
<clipPath id="clip0">
<rect width="114" height="29" fill="white" transform="translate(54 51)"/>
</clipPath>
</defs>
</svg>
