<svg width="221" height="161" viewBox="0 0 221 161" fill="none" xmlns="http://www.w3.org/2000/svg">
<rect width="221" height="161" fill="white"/>
<path d="M116.052 74.2079L127.07 63.1896V85.2262L116.052 74.2079ZM67.2082 74.2079L78.2264 63.1896V85.2262L67.2082 74.2079ZM176 63.1039L164.896 51.9998L142.774 74.1217V52.0045H127.07V63.0182L116.052 51.9998L93.9302 74.1219V52.0045H78.2264V63.0182L67.2082 51.9998L45 74.2079L67.2082 96.416L78.2264 85.3976V96.4209H93.9302V74.2939L116.052 96.416L127.07 85.3976V96.4209H142.774V74.2941L164.896 96.416L176 85.312L164.896 74.2079L176 63.1039" fill="#211D1D"/>
<path d="M66.8765 85.6187L55.377 74.1191L66.8765 62.6192L67.6548 63.3975L56.9334 74.1191L67.6548 84.8407L66.8765 85.6187" fill="#ED1C24"/>
<path d="M86.6281 87.9878H85.5273V59.5089H86.6281V87.9878Z" fill="#80D6F7"/>
<path d="M115.721 85.6187L104.221 74.1191L115.721 62.6192L116.499 63.3975L105.777 74.1191L116.499 84.8407L115.721 85.6187" fill="#80CC28"/>
<path d="M135.473 87.9878H134.372V59.5089H135.473V87.9878Z" fill="#EC008C"/>
<path d="M164.565 85.6187L153.065 74.1191L164.565 62.6192L165.343 63.3975L154.622 74.1191L165.343 84.8407L164.565 85.6187" fill="#FFF200"/>
<path d="M46.2158 107.458C46.2158 105.979 47.2818 104.906 48.7754 104.906C49.5223 104.906 50.0806 105.131 50.6316 105.631L50.1894 106.211C49.8341 105.885 49.3988 105.682 48.7973 105.682C47.7894 105.682 47.0932 106.421 47.0932 107.458C47.0932 108.466 47.7675 109.249 48.7682 109.249C49.3988 109.249 49.8777 108.981 50.2039 108.553L50.7404 109.105C50.2618 109.691 49.5949 110.025 48.7538 110.025C47.231 110.025 46.2158 108.88 46.2158 107.458Z" fill="#211D1D"/>
<path d="M51.6162 107.458C51.6162 105.979 52.6749 104.906 54.1833 104.906C55.7057 104.906 56.75 105.979 56.75 107.458C56.75 108.901 55.7057 110.025 54.1833 110.025C52.6749 110.025 51.6162 108.901 51.6162 107.458V107.458ZM55.8799 107.458C55.8799 106.436 55.22 105.682 54.1833 105.682C53.1535 105.682 52.4936 106.436 52.4936 107.458C52.4936 108.451 53.1535 109.249 54.1833 109.249C55.22 109.249 55.8799 108.451 55.8799 107.458" fill="#211D1D"/>
<path d="M64.6245 107.458C64.6245 108.894 63.5802 110.018 62.0865 110.018C60.738 110.018 59.7445 109.09 59.5777 107.85H58.8311V109.931H57.9756V105H58.8311V107.059H59.5777C59.7445 105.791 60.738 104.913 62.0865 104.913C63.5802 104.913 64.6245 105.979 64.6245 107.458V107.458ZM63.7542 107.458C63.7542 106.443 63.1017 105.689 62.0865 105.689C61.0786 105.689 60.4188 106.443 60.4188 107.458C60.4188 108.445 61.0786 109.242 62.0865 109.242C63.1017 109.242 63.7542 108.445 63.7542 107.458Z" fill="#211D1D"/>
<path d="M65.625 109.344L66.0239 108.735C66.3502 109.025 66.8288 109.25 67.4306 109.25C67.9525 109.25 68.373 108.952 68.373 108.474C68.373 108.003 68.0104 107.742 67.474 107.742H66.8141V107.038H67.4451C67.8944 107.038 68.1482 106.755 68.1482 106.364C68.1482 105.936 67.8003 105.682 67.2782 105.682C66.894 105.682 66.5169 105.806 66.1688 106.081L65.799 105.487C66.3139 105.073 66.8361 104.914 67.3581 104.914C68.3006 104.914 69.0112 105.494 69.0112 106.27C69.0112 106.763 68.7211 107.169 68.3441 107.328C68.8879 107.524 69.2285 107.959 69.2285 108.553C69.2285 109.351 68.5398 110.011 67.4811 110.011C66.72 110.011 66.1255 109.808 65.625 109.344" fill="#211D1D"/>
<path d="M77.2691 109.902V109.931H76.2611L74.376 107.727V109.931H73.5205V105H74.376V107.212L76.1453 105H77.1166V105.022L75.1738 107.444L77.2691 109.902Z" fill="#211D1D"/>
<path d="M78.4951 105H80.3874C81.446 105 82.0406 105.776 82.0406 106.588C82.0406 107.393 81.4605 108.132 80.3728 108.132H79.3506V109.931H78.4951V105ZM80.2784 107.4C80.9023 107.4 81.1777 107.001 81.1777 106.581C81.1777 106.117 80.8443 105.747 80.3 105.747H79.3506V107.4H80.2784" fill="#211D1D"/>
<path d="M86.5796 109.177V109.931H83.4111V105H86.5145V105.754H84.2666V107.059H86.2314V107.792H84.2666V109.177H86.5796" fill="#211D1D"/>
<path d="M92.402 109.909V109.931H91.5101L91.1041 109.039H88.7982L88.3922 109.931H87.4932V109.916L89.821 104.971H90.0816L92.402 109.909ZM89.6178 107.19L89.0813 108.365H90.8213L90.2847 107.19C90.1686 106.929 90.0671 106.668 89.951 106.349C89.8355 106.668 89.7334 106.921 89.6178 107.19" fill="#211D1D"/>
<path d="M96.0699 105.791H94.6775V109.931H93.822V105.791H92.4229V105H96.0699V105.791" fill="#211D1D"/>
<path d="M101.624 104.972V109.931H100.769V107.277C100.769 107.053 100.776 106.813 100.791 106.574C100.602 106.791 100.406 107.002 100.225 107.197L97.651 109.96H97.3975V105H98.253V107.654C98.253 107.887 98.2456 108.118 98.2311 108.351C98.4052 108.14 98.6009 107.915 98.8038 107.705L101.371 104.972H101.624" fill="#211D1D"/>
<path d="M107.055 108.568C107.055 109.387 106.416 109.931 105.51 109.931H103.407V105H105.372C106.235 105 106.859 105.522 106.859 106.291C106.859 106.762 106.626 107.124 106.272 107.349C106.743 107.56 107.055 108.002 107.055 108.568V108.568ZM104.256 107.045H105.242C105.727 107.045 105.996 106.791 105.996 106.356C105.996 105.95 105.684 105.704 105.227 105.704H104.256V107.045ZM106.192 108.481C106.192 108.031 105.873 107.741 105.402 107.741H104.256V109.227H105.372C105.858 109.227 106.192 108.945 106.192 108.481" fill="#211D1D"/>
<path d="M108.549 105H109.405V107.052H111.805V105H112.66V109.931H111.805V107.843H109.405V109.931H108.549V105Z" fill="#211D1D"/>
<path d="M114.443 105H115.299V106.885H116.437C117.337 106.885 118.047 107.516 118.047 108.408C118.047 109.3 117.337 109.931 116.437 109.931H114.443V105ZM116.35 109.191C116.836 109.191 117.192 108.901 117.192 108.408C117.192 107.915 116.836 107.625 116.35 107.625H115.299V109.191H116.35ZM118.808 105H119.664V109.931H118.808V105Z" fill="#211D1D"/>
<path d="M121.07 109.916L122.811 107.378L121.215 105.014V105H122.201L122.89 106.044C123.035 106.262 123.188 106.501 123.333 106.755C123.478 106.501 123.63 106.255 123.775 106.03L124.449 105H125.428V105.014L123.84 107.378L125.573 109.916V109.931H124.58L123.76 108.698C123.615 108.481 123.47 108.256 123.325 108.002C123.18 108.256 123.042 108.481 122.89 108.698L122.064 109.931H121.07V109.916" fill="#211D1D"/>
<path d="M133.425 109.902V109.931H132.417L130.533 107.727V109.931H129.677V105H130.533V107.212L132.302 105H133.273V105.022L131.33 107.444L133.425 109.902Z" fill="#211D1D"/>
<path d="M134.237 109.271C134.962 109.213 135.201 108.735 135.354 107.408L135.622 105.001H138.718V109.931H137.863V105.791H136.362L136.152 107.683C135.963 109.329 135.419 109.931 134.353 109.989L134.237 109.271" fill="#211D1D"/>
<path d="M144.7 109.909V109.931H143.808L143.402 109.039H141.096L140.69 109.931H139.791V109.916L142.118 104.971H142.379L144.7 109.909ZM141.915 107.19L141.379 108.365H143.119L142.582 107.19C142.466 106.929 142.365 106.668 142.249 106.349C142.133 106.668 142.031 106.921 141.915 107.19" fill="#211D1D"/>
<path d="M145.331 107.458C145.331 105.979 146.397 104.906 147.891 104.906C148.638 104.906 149.196 105.131 149.747 105.631L149.305 106.211C148.949 105.885 148.514 105.682 147.913 105.682C146.905 105.682 146.208 106.421 146.208 107.458C146.208 108.466 146.883 109.249 147.884 109.249C148.514 109.249 148.993 108.981 149.319 108.553L149.856 109.105C149.377 109.691 148.71 110.025 147.869 110.025C146.346 110.025 145.331 108.88 145.331 107.458" fill="#211D1D"/>
<path d="M154.379 105.791H152.987V109.931H152.132V105.791H150.732V105H154.379V105.791Z" fill="#211D1D"/>
<path d="M158.876 109.177V109.931H155.707V105H158.81V105.754H156.563V107.059H158.527V107.792H156.563V109.177H158.876" fill="#211D1D"/>
<path d="M160.354 105H162.247C163.306 105 163.9 105.776 163.9 106.588C163.9 107.393 163.32 108.132 162.233 108.132H161.21V109.931H160.354V105ZM162.139 107.4C162.762 107.4 163.038 107.001 163.038 106.581C163.038 106.117 162.704 105.747 162.16 105.747H161.21V107.4H162.139" fill="#211D1D"/>
<path d="M164.857 107.458C164.857 105.979 165.916 104.906 167.424 104.906C168.947 104.906 169.991 105.979 169.991 107.458C169.991 108.901 168.947 110.025 167.424 110.025C165.916 110.025 164.857 108.901 164.857 107.458ZM169.121 107.458C169.121 106.436 168.461 105.682 167.424 105.682C166.395 105.682 165.735 106.436 165.735 107.458C165.735 108.451 166.395 109.249 167.424 109.249C168.461 109.249 169.121 108.451 169.121 107.458" fill="#211D1D"/>
<path d="M175.153 108.568C175.153 109.387 174.515 109.931 173.608 109.931H171.506V105H173.471C174.334 105 174.957 105.522 174.957 106.291C174.957 106.762 174.725 107.124 174.37 107.349C174.841 107.56 175.153 108.002 175.153 108.568V108.568ZM172.354 107.045H173.34C173.826 107.045 174.095 106.791 174.095 106.356C174.095 105.95 173.782 105.704 173.326 105.704H172.354V107.045ZM174.29 108.481C174.29 108.031 173.971 107.741 173.5 107.741H172.354V109.227H173.471C173.957 109.227 174.29 108.945 174.29 108.481" fill="#211D1D"/>
<path d="M46.2158 107.458C46.2158 105.979 47.2818 104.906 48.7754 104.906C49.5223 104.906 50.0806 105.131 50.6316 105.631L50.1894 106.211C49.8341 105.885 49.3988 105.682 48.7973 105.682C47.7894 105.682 47.0932 106.421 47.0932 107.458C47.0932 108.466 47.7675 109.249 48.7682 109.249C49.3988 109.249 49.8777 108.981 50.2039 108.553L50.7404 109.105C50.2618 109.691 49.5949 110.025 48.7538 110.025C47.231 110.025 46.2158 108.88 46.2158 107.458Z" fill="#211D1D"/>
<path d="M51.6162 107.458C51.6162 105.979 52.6749 104.906 54.1833 104.906C55.7057 104.906 56.75 105.979 56.75 107.458C56.75 108.901 55.7057 110.025 54.1833 110.025C52.6749 110.025 51.6162 108.901 51.6162 107.458V107.458ZM55.8799 107.458C55.8799 106.436 55.22 105.682 54.1833 105.682C53.1535 105.682 52.4936 106.436 52.4936 107.458C52.4936 108.451 53.1535 109.249 54.1833 109.249C55.22 109.249 55.8799 108.451 55.8799 107.458" fill="#211D1D"/>
<path d="M64.6245 107.458C64.6245 108.894 63.5802 110.018 62.0865 110.018C60.738 110.018 59.7445 109.09 59.5777 107.85H58.8311V109.931H57.9756V105H58.8311V107.059H59.5777C59.7445 105.791 60.738 104.913 62.0865 104.913C63.5802 104.913 64.6245 105.979 64.6245 107.458V107.458ZM63.7542 107.458C63.7542 106.443 63.1017 105.689 62.0865 105.689C61.0786 105.689 60.4188 106.443 60.4188 107.458C60.4188 108.445 61.0786 109.242 62.0865 109.242C63.1017 109.242 63.7542 108.445 63.7542 107.458Z" fill="#211D1D"/>
<path d="M65.625 109.344L66.0239 108.735C66.3502 109.025 66.8288 109.25 67.4306 109.25C67.9525 109.25 68.373 108.952 68.373 108.474C68.373 108.003 68.0104 107.742 67.474 107.742H66.8141V107.038H67.4451C67.8944 107.038 68.1482 106.755 68.1482 106.364C68.1482 105.936 67.8003 105.682 67.2782 105.682C66.894 105.682 66.5169 105.806 66.1688 106.081L65.799 105.487C66.3139 105.073 66.8361 104.914 67.3581 104.914C68.3006 104.914 69.0112 105.494 69.0112 106.27C69.0112 106.763 68.7211 107.169 68.3441 107.328C68.8879 107.524 69.2285 107.959 69.2285 108.553C69.2285 109.351 68.5398 110.011 67.4811 110.011C66.72 110.011 66.1255 109.808 65.625 109.344" fill="#211D1D"/>
<path d="M77.2691 109.902V109.931H76.2611L74.376 107.727V109.931H73.5205V105H74.376V107.212L76.1453 105H77.1166V105.022L75.1738 107.444L77.2691 109.902Z" fill="#211D1D"/>
<path d="M78.4951 105H80.3874C81.446 105 82.0406 105.776 82.0406 106.588C82.0406 107.393 81.4605 108.132 80.3728 108.132H79.3506V109.931H78.4951V105ZM80.2784 107.4C80.9023 107.4 81.1777 107.001 81.1777 106.581C81.1777 106.117 80.8443 105.747 80.3 105.747H79.3506V107.4H80.2784" fill="#211D1D"/>
<path d="M86.5796 109.177V109.931H83.4111V105H86.5145V105.754H84.2666V107.059H86.2314V107.792H84.2666V109.177H86.5796" fill="#211D1D"/>
<path d="M92.402 109.909V109.931H91.5101L91.1041 109.039H88.7982L88.3922 109.931H87.4932V109.916L89.821 104.971H90.0816L92.402 109.909ZM89.6178 107.19L89.0813 108.365H90.8213L90.2847 107.19C90.1686 106.929 90.0671 106.668 89.951 106.349C89.8355 106.668 89.7334 106.921 89.6178 107.19" fill="#211D1D"/>
<path d="M96.0699 105.791H94.6775V109.931H93.822V105.791H92.4229V105H96.0699V105.791" fill="#211D1D"/>
<path d="M101.624 104.972V109.931H100.769V107.277C100.769 107.053 100.776 106.813 100.791 106.574C100.602 106.791 100.406 107.002 100.225 107.197L97.651 109.96H97.3975V105H98.253V107.654C98.253 107.887 98.2456 108.118 98.2311 108.351C98.4052 108.14 98.6009 107.915 98.8038 107.705L101.371 104.972H101.624" fill="#211D1D"/>
<path d="M107.055 108.568C107.055 109.387 106.416 109.931 105.51 109.931H103.407V105H105.372C106.235 105 106.859 105.522 106.859 106.291C106.859 106.762 106.626 107.124 106.272 107.349C106.743 107.56 107.055 108.002 107.055 108.568V108.568ZM104.256 107.045H105.242C105.727 107.045 105.996 106.791 105.996 106.356C105.996 105.95 105.684 105.704 105.227 105.704H104.256V107.045ZM106.192 108.481C106.192 108.031 105.873 107.741 105.402 107.741H104.256V109.227H105.372C105.858 109.227 106.192 108.945 106.192 108.481" fill="#211D1D"/>
<path d="M108.549 105H109.405V107.052H111.805V105H112.66V109.931H111.805V107.843H109.405V109.931H108.549V105Z" fill="#211D1D"/>
<path d="M114.443 105H115.299V106.885H116.437C117.337 106.885 118.047 107.516 118.047 108.408C118.047 109.3 117.337 109.931 116.437 109.931H114.443V105ZM116.35 109.191C116.836 109.191 117.192 108.901 117.192 108.408C117.192 107.915 116.836 107.625 116.35 107.625H115.299V109.191H116.35ZM118.808 105H119.664V109.931H118.808V105Z" fill="#211D1D"/>
<path d="M121.07 109.916L122.811 107.378L121.215 105.014V105H122.201L122.89 106.044C123.035 106.262 123.188 106.501 123.333 106.755C123.478 106.501 123.63 106.255 123.775 106.03L124.449 105H125.428V105.014L123.84 107.378L125.573 109.916V109.931H124.58L123.76 108.698C123.615 108.481 123.47 108.256 123.325 108.002C123.18 108.256 123.042 108.481 122.89 108.698L122.064 109.931H121.07V109.916" fill="#211D1D"/>
<path d="M133.425 109.902V109.931H132.417L130.533 107.727V109.931H129.677V105H130.533V107.212L132.302 105H133.273V105.022L131.33 107.444L133.425 109.902Z" fill="#211D1D"/>
<path d="M134.237 109.271C134.962 109.213 135.201 108.735 135.354 107.408L135.622 105.001H138.718V109.931H137.863V105.791H136.362L136.152 107.683C135.963 109.329 135.419 109.931 134.353 109.989L134.237 109.271" fill="#211D1D"/>
<path d="M144.7 109.909V109.931H143.808L143.402 109.039H141.096L140.69 109.931H139.791V109.916L142.118 104.971H142.379L144.7 109.909ZM141.915 107.19L141.379 108.365H143.119L142.582 107.19C142.466 106.929 142.365 106.668 142.249 106.349C142.133 106.668 142.031 106.921 141.915 107.19" fill="#211D1D"/>
<path d="M145.331 107.458C145.331 105.979 146.397 104.906 147.891 104.906C148.638 104.906 149.196 105.131 149.747 105.631L149.305 106.211C148.949 105.885 148.514 105.682 147.913 105.682C146.905 105.682 146.208 106.421 146.208 107.458C146.208 108.466 146.883 109.249 147.884 109.249C148.514 109.249 148.993 108.981 149.319 108.553L149.856 109.105C149.377 109.691 148.71 110.025 147.869 110.025C146.346 110.025 145.331 108.88 145.331 107.458" fill="#211D1D"/>
<path d="M154.379 105.791H152.987V109.931H152.132V105.791H150.732V105H154.379V105.791Z" fill="#211D1D"/>
<path d="M158.876 109.177V109.931H155.707V105H158.81V105.754H156.563V107.059H158.527V107.792H156.563V109.177H158.876" fill="#211D1D"/>
<path d="M160.354 105H162.247C163.306 105 163.9 105.776 163.9 106.588C163.9 107.393 163.32 108.132 162.233 108.132H161.21V109.931H160.354V105ZM162.139 107.4C162.762 107.4 163.038 107.001 163.038 106.581C163.038 106.117 162.704 105.747 162.16 105.747H161.21V107.4H162.139" fill="#211D1D"/>
<path d="M164.857 107.458C164.857 105.979 165.916 104.906 167.424 104.906C168.947 104.906 169.991 105.979 169.991 107.458C169.991 108.901 168.947 110.025 167.424 110.025C165.916 110.025 164.857 108.901 164.857 107.458ZM169.121 107.458C169.121 106.436 168.461 105.682 167.424 105.682C166.395 105.682 165.735 106.436 165.735 107.458C165.735 108.451 166.395 109.249 167.424 109.249C168.461 109.249 169.121 108.451 169.121 107.458" fill="#211D1D"/>
<path d="M175.153 108.568C175.153 109.387 174.515 109.931 173.608 109.931H171.506V105H173.471C174.334 105 174.957 105.522 174.957 106.291C174.957 106.762 174.725 107.124 174.37 107.349C174.841 107.56 175.153 108.002 175.153 108.568V108.568ZM172.354 107.045H173.34C173.826 107.045 174.095 106.791 174.095 106.356C174.095 105.95 173.782 105.704 173.326 105.704H172.354V107.045ZM174.29 108.481C174.29 108.031 173.971 107.741 173.5 107.741H172.354V109.227H173.471C173.957 109.227 174.29 108.945 174.29 108.481" fill="#211D1D"/>
<path d="M46.2158 107.458C46.2158 105.979 47.2818 104.906 48.7754 104.906C49.5223 104.906 50.0806 105.131 50.6316 105.631L50.1894 106.211C49.8341 105.885 49.3988 105.682 48.7973 105.682C47.7894 105.682 47.0932 106.421 47.0932 107.458C47.0932 108.466 47.7675 109.249 48.7682 109.249C49.3988 109.249 49.8777 108.981 50.2039 108.553L50.7404 109.105C50.2618 109.691 49.5949 110.025 48.7538 110.025C47.231 110.025 46.2158 108.88 46.2158 107.458Z" fill="#211D1D"/>
<path d="M51.6162 107.458C51.6162 105.979 52.6749 104.906 54.1833 104.906C55.7057 104.906 56.75 105.979 56.75 107.458C56.75 108.901 55.7057 110.025 54.1833 110.025C52.6749 110.025 51.6162 108.901 51.6162 107.458V107.458ZM55.8799 107.458C55.8799 106.436 55.22 105.682 54.1833 105.682C53.1535 105.682 52.4936 106.436 52.4936 107.458C52.4936 108.451 53.1535 109.249 54.1833 109.249C55.22 109.249 55.8799 108.451 55.8799 107.458" fill="#211D1D"/>
<path d="M64.6245 107.458C64.6245 108.894 63.5802 110.018 62.0865 110.018C60.738 110.018 59.7445 109.09 59.5777 107.85H58.8311V109.931H57.9756V105H58.8311V107.059H59.5777C59.7445 105.791 60.738 104.913 62.0865 104.913C63.5802 104.913 64.6245 105.979 64.6245 107.458V107.458ZM63.7542 107.458C63.7542 106.443 63.1017 105.689 62.0865 105.689C61.0786 105.689 60.4188 106.443 60.4188 107.458C60.4188 108.445 61.0786 109.242 62.0865 109.242C63.1017 109.242 63.7542 108.445 63.7542 107.458Z" fill="#211D1D"/>
<path d="M65.625 109.344L66.0239 108.735C66.3502 109.025 66.8288 109.25 67.4306 109.25C67.9525 109.25 68.373 108.952 68.373 108.474C68.373 108.003 68.0104 107.742 67.474 107.742H66.8141V107.038H67.4451C67.8944 107.038 68.1482 106.755 68.1482 106.364C68.1482 105.936 67.8003 105.682 67.2782 105.682C66.894 105.682 66.5169 105.806 66.1688 106.081L65.799 105.487C66.3139 105.073 66.8361 104.914 67.3581 104.914C68.3006 104.914 69.0112 105.494 69.0112 106.27C69.0112 106.763 68.7211 107.169 68.3441 107.328C68.8879 107.524 69.2285 107.959 69.2285 108.553C69.2285 109.351 68.5398 110.011 67.4811 110.011C66.72 110.011 66.1255 109.808 65.625 109.344" fill="#211D1D"/>
<path d="M77.2691 109.902V109.931H76.2611L74.376 107.727V109.931H73.5205V105H74.376V107.212L76.1453 105H77.1166V105.022L75.1738 107.444L77.2691 109.902Z" fill="#211D1D"/>
<path d="M78.4951 105H80.3874C81.446 105 82.0406 105.776 82.0406 106.588C82.0406 107.393 81.4605 108.132 80.3728 108.132H79.3506V109.931H78.4951V105ZM80.2784 107.4C80.9023 107.4 81.1777 107.001 81.1777 106.581C81.1777 106.117 80.8443 105.747 80.3 105.747H79.3506V107.4H80.2784" fill="#211D1D"/>
<path d="M86.5796 109.177V109.931H83.4111V105H86.5145V105.754H84.2666V107.059H86.2314V107.792H84.2666V109.177H86.5796" fill="#211D1D"/>
<path d="M92.402 109.909V109.931H91.5101L91.1041 109.039H88.7982L88.3922 109.931H87.4932V109.916L89.821 104.971H90.0816L92.402 109.909ZM89.6178 107.19L89.0813 108.365H90.8213L90.2847 107.19C90.1686 106.929 90.0671 106.668 89.951 106.349C89.8355 106.668 89.7334 106.921 89.6178 107.19" fill="#211D1D"/>
<path d="M96.0699 105.791H94.6775V109.931H93.822V105.791H92.4229V105H96.0699V105.791" fill="#211D1D"/>
<path d="M101.624 104.972V109.931H100.769V107.277C100.769 107.053 100.776 106.813 100.791 106.574C100.602 106.791 100.406 107.002 100.225 107.197L97.651 109.96H97.3975V105H98.253V107.654C98.253 107.887 98.2456 108.118 98.2311 108.351C98.4052 108.14 98.6009 107.915 98.8038 107.705L101.371 104.972H101.624" fill="#211D1D"/>
<path d="M107.055 108.568C107.055 109.387 106.416 109.931 105.51 109.931H103.407V105H105.372C106.235 105 106.859 105.522 106.859 106.291C106.859 106.762 106.626 107.124 106.272 107.349C106.743 107.56 107.055 108.002 107.055 108.568V108.568ZM104.256 107.045H105.242C105.727 107.045 105.996 106.791 105.996 106.356C105.996 105.95 105.684 105.704 105.227 105.704H104.256V107.045ZM106.192 108.481C106.192 108.031 105.873 107.741 105.402 107.741H104.256V109.227H105.372C105.858 109.227 106.192 108.945 106.192 108.481" fill="#211D1D"/>
<path d="M108.549 105H109.405V107.052H111.805V105H112.66V109.931H111.805V107.843H109.405V109.931H108.549V105Z" fill="#211D1D"/>
<path d="M114.443 105H115.299V106.885H116.437C117.337 106.885 118.047 107.516 118.047 108.408C118.047 109.3 117.337 109.931 116.437 109.931H114.443V105ZM116.35 109.191C116.836 109.191 117.192 108.901 117.192 108.408C117.192 107.915 116.836 107.625 116.35 107.625H115.299V109.191H116.35ZM118.808 105H119.664V109.931H118.808V105Z" fill="#211D1D"/>
<path d="M121.07 109.916L122.811 107.378L121.215 105.014V105H122.201L122.89 106.044C123.035 106.262 123.188 106.501 123.333 106.755C123.478 106.501 123.63 106.255 123.775 106.03L124.449 105H125.428V105.014L123.84 107.378L125.573 109.916V109.931H124.58L123.76 108.698C123.615 108.481 123.47 108.256 123.325 108.002C123.18 108.256 123.042 108.481 122.89 108.698L122.064 109.931H121.07V109.916" fill="#211D1D"/>
<path d="M133.425 109.902V109.931H132.417L130.533 107.727V109.931H129.677V105H130.533V107.212L132.302 105H133.273V105.022L131.33 107.444L133.425 109.902Z" fill="#211D1D"/>
<path d="M134.237 109.271C134.962 109.213 135.201 108.735 135.354 107.408L135.622 105.001H138.718V109.931H137.863V105.791H136.362L136.152 107.683C135.963 109.329 135.419 109.931 134.353 109.989L134.237 109.271" fill="#211D1D"/>
<path d="M144.7 109.909V109.931H143.808L143.402 109.039H141.096L140.69 109.931H139.791V109.916L142.118 104.971H142.379L144.7 109.909ZM141.915 107.19L141.379 108.365H143.119L142.582 107.19C142.466 106.929 142.365 106.668 142.249 106.349C142.133 106.668 142.031 106.921 141.915 107.19" fill="#211D1D"/>
<path d="M145.331 107.458C145.331 105.979 146.397 104.906 147.891 104.906C148.638 104.906 149.196 105.131 149.747 105.631L149.305 106.211C148.949 105.885 148.514 105.682 147.913 105.682C146.905 105.682 146.208 106.421 146.208 107.458C146.208 108.466 146.883 109.249 147.884 109.249C148.514 109.249 148.993 108.981 149.319 108.553L149.856 109.105C149.377 109.691 148.71 110.025 147.869 110.025C146.346 110.025 145.331 108.88 145.331 107.458" fill="#211D1D"/>
<path d="M154.379 105.791H152.987V109.931H152.132V105.791H150.732V105H154.379V105.791Z" fill="#211D1D"/>
<path d="M158.876 109.177V109.931H155.707V105H158.81V105.754H156.563V107.059H158.527V107.792H156.563V109.177H158.876" fill="#211D1D"/>
<path d="M160.354 105H162.247C163.306 105 163.9 105.776 163.9 106.588C163.9 107.393 163.32 108.132 162.233 108.132H161.21V109.931H160.354V105ZM162.139 107.4C162.762 107.4 163.038 107.001 163.038 106.581C163.038 106.117 162.704 105.747 162.16 105.747H161.21V107.4H162.139" fill="#211D1D"/>
<path d="M164.857 107.458C164.857 105.979 165.916 104.906 167.424 104.906C168.947 104.906 169.991 105.979 169.991 107.458C169.991 108.901 168.947 110.025 167.424 110.025C165.916 110.025 164.857 108.901 164.857 107.458ZM169.121 107.458C169.121 106.436 168.461 105.682 167.424 105.682C166.395 105.682 165.735 106.436 165.735 107.458C165.735 108.451 166.395 109.249 167.424 109.249C168.461 109.249 169.121 108.451 169.121 107.458" fill="#211D1D"/>
<path d="M175.153 108.568C175.153 109.387 174.515 109.931 173.608 109.931H171.506V105H173.471C174.334 105 174.957 105.522 174.957 106.291C174.957 106.762 174.725 107.124 174.37 107.349C174.841 107.56 175.153 108.002 175.153 108.568V108.568ZM172.354 107.045H173.34C173.826 107.045 174.095 106.791 174.095 106.356C174.095 105.95 173.782 105.704 173.326 105.704H172.354V107.045ZM174.29 108.481C174.29 108.031 173.971 107.741 173.5 107.741H172.354V109.227H173.471C173.957 109.227 174.29 108.945 174.29 108.481" fill="#211D1D"/>
</svg>
