<svg width="221" height="161" viewBox="0 0 221 161" fill="none" xmlns="http://www.w3.org/2000/svg">
<path d="M168.667 87.0328L160.505 71.7954L163.236 67.0952L164.129 67.6129L161.683 71.8157L169.57 86.5456L168.667 87.0328Z" fill="#232323"/>
<path d="M169.58 87.6522H163.55L155.428 72.6482L154.951 73.4197V62.3342L163.875 48.0713H170.087L172.97 53.5227L164.25 67.3694L172.838 82.5967L169.58 87.6522ZM164.159 86.637H169.021L171.671 82.5764L163.083 67.3491L171.813 53.4922L169.783 49.6448L156.088 71.6533L164.159 86.637ZM156.038 62.6489V69.8464L168.94 49.1271H164.504L156.038 62.6489Z" fill="#232323"/>
<path d="M151.206 66.3643H150.171V54.0403L145.857 51.7258L146.344 50.8223L151.206 53.4211V66.3643Z" fill="#232323"/>
<path d="M150.688 89.8142L145.369 87.4692V50.8526L150.688 48L156.008 50.8526V87.4692L150.688 89.8142ZM146.404 86.7687L150.688 88.6569L154.982 86.7687V51.4414L150.688 49.137L146.404 51.4414V86.7687Z" fill="#232323"/>
<path d="M151.206 89.2457H150.171V53.4209L155.247 50.7104L155.734 51.6139L151.206 54.0402V89.2457Z" fill="#232323"/>
<path d="M125.887 73.2161L124.933 72.8303L126.984 67.7038L130.76 67.2876L130.882 68.3129L127.714 68.6682L125.887 73.2161Z" fill="#232323"/>
<path d="M70.2881 87.0328L62.1262 71.7954L64.857 67.0952L65.7503 67.6129L63.3038 71.8157L71.2017 86.5456L70.2881 87.0328Z" fill="#232323"/>
<path d="M71.2009 87.6522H65.1709L57.0497 72.6482L56.5726 73.4197V62.3342L65.4958 48.0713H71.7085L74.6017 53.5227L65.8714 67.3694L74.4596 82.5967L71.2009 87.6522ZM65.7902 86.637H70.6426L73.2922 82.5764L64.704 67.3491L73.4444 53.4922L71.4141 49.6448L57.7096 71.6432L65.7902 86.637ZM57.6689 62.6489V69.8464L70.5716 49.1271H66.1353L57.6689 62.6489Z" fill="#232323"/>
<path d="M52.8277 66.3643H51.8024V54.0403L47.4778 51.7258L47.9651 50.8223L52.8277 53.4211V66.3643Z" fill="#232323"/>
<path d="M52.3194 89.8142L47 87.4692V50.8526L52.3194 48L57.6287 50.8526V87.4692L52.3194 89.8142ZM48.0253 86.7687L52.3194 88.6569L56.6034 86.7687V51.4414L52.3194 49.137L48.0253 51.4414V86.7687Z" fill="#232323"/>
<path d="M52.8274 89.2457H51.8021V53.4209L56.8779 50.7104L57.3652 51.6139L52.8274 54.0402V89.2457Z" fill="#232323"/>
<path d="M113.909 82.8504V81.8149H130.426L135.014 72.0694L134.121 67.9581L127.096 68.7296L123.837 63.9888L124.69 63.4102L127.603 67.6434L134.933 66.8312L136.09 72.1912L131.085 82.8504H113.909Z" fill="#232323"/>
<path d="M134.294 87.6516H116.173L113.331 82.3322L116.173 77.0128H127.34L129.106 73.3481L125.046 73.7846L121.635 68.8104L123.878 63.2169L128.568 62.7093L127.939 59.8161L116.772 61.1967L113.29 56.2732L115.463 50.6493L136.355 48.02L141.339 72.5664L134.294 87.6516ZM116.793 86.6365H133.644L140.304 72.4243L135.573 49.1468L116.793 51.5223L119.27 55.0246L132.02 53.4308L134.05 62.6179L134.142 63.156H133.604L124.67 64.1711L122.853 68.6886L125.614 72.7492L130.893 72.1705L128.051 78.0889H116.793L114.498 82.383L116.793 86.6365ZM128.761 58.7197L129.614 62.6382L132.883 62.2931L131.208 54.6084L118.823 56.1209L116.052 52.2025L114.539 56.1311L117.351 60.1003L128.761 58.7197Z" fill="#232323"/>
<path d="M89.8909 72.0894L89.6472 71.0945L103.037 67.8054V55.1972L80.389 52.9233L80.4906 51.8979L104.073 54.2633V68.6175L89.8909 72.0894Z" fill="#232323"/>
<path d="M85.4847 89.7023H84.4695V56.6895L99.2705 58.3442V65.0442L89.2712 67.4602V58.2122L85.4948 57.7858L85.4847 89.7023ZM90.2864 58.3239V66.0999L98.235 64.1813V59.2172L90.2864 58.3239Z" fill="#232323"/>
<path d="M84.9667 89.8036L79.6575 87.6819V52.3647L84.8043 48.0503L108.863 50.5577V72.6982L90.2861 77.2055V87.6819L84.9667 89.8036ZM80.6828 86.9814L84.9667 88.6971L89.2608 86.9814V76.5964H89.7278L89.6466 76.2919L107.838 71.9166V51.512L85.1292 49.1568L80.6828 52.8824V86.9814Z" fill="#232323"/>
<path d="M90.287 66.7598H89.2617V76.7387H90.287V66.7598Z" fill="#232323"/>
<path d="M118.542 55.3965L116.58 60.4824L117.536 60.8515L119.499 55.7656L118.542 55.3965Z" fill="#232323"/>
<path d="M99.0592 64.1761L98.4417 64.9946L103.247 68.62L103.865 67.8015L99.0592 64.1761Z" fill="#232323"/>
<path d="M50.2381 102.818L53.9434 100.362H55.5067H55.5575C55.5575 100.362 55.4864 100.453 55.3646 100.524L51.304 103.316L55.5372 106.361C55.5981 106.361 55.6285 106.422 55.6285 106.443C55.6285 106.463 55.6285 106.443 55.6285 106.443H54.1159L50.3903 103.874H49.294C49.1518 103.874 49.0808 103.955 49.0808 104.128V106.453H48.2788V100.362H49.0808V102.575C49.077 102.611 49.0804 102.648 49.0908 102.682C49.1013 102.717 49.1186 102.75 49.1417 102.778C49.1944 102.796 49.2514 102.796 49.3041 102.778L50.2381 102.818Z" fill="#232323"/>
<path d="M66.2265 100.341C66.5894 100.332 66.9508 100.391 67.2924 100.514C67.5961 100.617 67.8709 100.791 68.0944 101.021C68.3217 101.249 68.4982 101.522 68.6121 101.823C68.7339 102.148 68.7959 102.492 68.7948 102.838C68.7932 103.184 68.7349 103.527 68.6222 103.853C68.5158 104.156 68.3422 104.43 68.1147 104.655C67.8886 104.885 67.6148 105.062 67.3127 105.173C66.9647 105.3 66.5966 105.361 66.2265 105.356H63.516C63.298 105.356 63.0805 105.336 62.8663 105.295C62.6632 105.254 62.4656 105.189 62.2775 105.102C62.0979 105.025 61.9304 104.922 61.7801 104.798C61.6409 104.679 61.527 104.534 61.4451 104.371V106.401H60.6431V100.311L66.2265 100.341ZM62.8562 101.549C62.6662 101.547 62.4773 101.578 62.2978 101.64C62.1327 101.697 61.9808 101.787 61.8512 101.904C61.7229 102.023 61.6223 102.169 61.5568 102.331C61.4828 102.511 61.4448 102.704 61.4451 102.899C61.4371 103.078 61.4685 103.255 61.5369 103.42C61.6053 103.585 61.7091 103.733 61.841 103.853C62.1254 104.089 62.4868 104.212 62.8562 104.199H66.5107C66.9005 104.227 67.2862 104.103 67.5868 103.853C67.7168 103.732 67.8188 103.584 67.8854 103.419C67.952 103.254 67.9818 103.077 67.9725 102.899C67.9744 102.719 67.9434 102.54 67.8812 102.371C67.8216 102.211 67.7281 102.066 67.6071 101.945C67.4911 101.814 67.3447 101.712 67.1807 101.651C66.9896 101.578 66.7861 101.544 66.5818 101.549H62.8562Z" fill="#232323"/>
<path d="M74.8364 103.945V105.285H81.78V106.513H74.0344V100.382H81.78V101.61L74.8364 101.57V102.818H81.4247V103.945H74.8364Z" fill="#232323"/>
<path d="M94.4578 106.503L93.5544 105.082H88.9557L88.0624 106.503H86.8442C86.7934 106.503 86.763 106.503 86.7528 106.503C86.7427 106.503 86.7528 106.422 86.834 106.31L87.0066 106.036L87.4228 105.356C87.6056 105.082 87.7984 104.757 88.0218 104.402L88.7019 103.316L90.5495 100.382H91.5646L95.3106 106.341L95.3715 106.432H94.4578V106.503ZM89.646 103.975H92.864L91.3718 101.6L91.321 101.529C91.3099 101.524 91.2978 101.521 91.2855 101.521C91.2732 101.521 91.261 101.524 91.2499 101.529C91.2499 101.529 91.1687 101.529 91.118 101.641L89.646 103.975Z" fill="#232323"/>
<path d="M98.7431 100.341H106.864V101.57H103.596C103.505 101.564 103.416 101.589 103.342 101.641C103.272 101.726 103.239 101.836 103.25 101.945V106.463H102.448V101.915C102.457 101.819 102.436 101.723 102.388 101.641C102.305 101.582 102.204 101.556 102.103 101.57H98.7837L98.7431 100.341Z" fill="#232323"/>
<path d="M118.619 100.819L119.137 100.453C119.247 100.375 119.378 100.333 119.513 100.331C119.563 100.329 119.613 100.34 119.658 100.363C119.702 100.386 119.74 100.421 119.767 100.463C119.842 100.573 119.878 100.706 119.868 100.839V106.504H119.056V102.605C119.064 102.5 119.043 102.395 118.995 102.301C118.976 102.272 118.951 102.249 118.92 102.233C118.89 102.217 118.857 102.209 118.822 102.209C118.726 102.217 118.633 102.244 118.548 102.291L118.142 102.565L113.239 106.138C113.087 106.256 112.928 106.365 112.762 106.463C112.647 106.514 112.523 106.541 112.397 106.544C112.297 106.548 112.2 106.516 112.122 106.453C112.083 106.407 112.052 106.354 112.033 106.296C112.014 106.239 112.006 106.178 112.011 106.118V100.342H112.823V104.28C112.815 104.386 112.836 104.491 112.884 104.585C112.904 104.615 112.931 104.639 112.963 104.655C112.995 104.671 113.031 104.679 113.067 104.676C113.198 104.666 113.324 104.62 113.432 104.544L113.828 104.26L118.619 100.819Z" fill="#232323"/>
<path d="M133.186 101.895C133.192 102.139 133.143 102.382 133.044 102.605C132.966 102.777 132.856 102.932 132.719 103.062C133.032 103.172 133.301 103.381 133.484 103.658C133.667 103.935 133.755 104.264 133.734 104.595C133.756 105.101 133.582 105.596 133.247 105.976C133.06 106.161 132.836 106.304 132.589 106.395C132.342 106.486 132.078 106.523 131.815 106.503H125.278V100.413H131.369C131.623 100.408 131.876 100.442 132.12 100.514C132.329 100.586 132.525 100.692 132.699 100.829C132.859 100.957 132.988 101.12 133.074 101.306C133.168 101.502 133.216 101.718 133.216 101.935L133.186 101.895ZM126.841 101.621C126.66 101.615 126.482 101.668 126.334 101.773C126.27 101.828 126.219 101.897 126.186 101.974C126.153 102.051 126.137 102.135 126.141 102.22C126.139 102.314 126.16 102.408 126.202 102.494C126.242 102.574 126.301 102.644 126.374 102.697C126.451 102.754 126.537 102.799 126.628 102.829C126.726 102.839 126.825 102.839 126.922 102.829H131.684C131.863 102.831 132.038 102.774 132.181 102.666C132.254 102.615 132.312 102.546 132.351 102.466C132.39 102.387 132.409 102.298 132.404 102.209C132.406 102.114 132.385 102.021 132.343 101.935C132.303 101.858 132.243 101.791 132.171 101.742C132.099 101.692 132.02 101.651 131.937 101.621H131.684H126.841ZM132.049 105.336C132.269 105.352 132.487 105.283 132.658 105.143C132.732 105.079 132.79 104.999 132.829 104.91C132.867 104.82 132.885 104.723 132.881 104.625C132.889 104.521 132.87 104.417 132.828 104.321C132.785 104.225 132.72 104.142 132.638 104.077C132.467 103.952 132.26 103.888 132.049 103.895H126.973C126.879 103.88 126.783 103.88 126.689 103.895C126.596 103.921 126.509 103.966 126.434 104.027C126.359 104.088 126.297 104.164 126.252 104.25C126.202 104.358 126.177 104.476 126.181 104.595C126.176 104.711 126.201 104.826 126.252 104.93C126.303 105.012 126.368 105.085 126.445 105.143C126.524 105.202 126.614 105.244 126.709 105.265H126.973L132.049 105.336Z" fill="#232323"/>
<path d="M146.027 104.047C145.922 103.979 145.797 103.947 145.672 103.955H140.282C140.215 103.947 140.147 103.954 140.083 103.976C140.019 103.998 139.961 104.035 139.914 104.083C139.867 104.131 139.832 104.189 139.811 104.254C139.79 104.318 139.784 104.386 139.794 104.453V106.483H138.992V100.392H139.794V102.28C139.786 102.349 139.792 102.418 139.811 102.484C139.83 102.551 139.863 102.612 139.906 102.666C140.018 102.736 140.15 102.768 140.282 102.757H145.642C145.776 102.768 145.91 102.728 146.017 102.646C146.064 102.592 146.099 102.529 146.12 102.461C146.141 102.393 146.148 102.321 146.139 102.25V100.341H146.941V106.432H146.139V104.402C146.155 104.257 146.115 104.112 146.027 103.996" fill="#232323"/>
<path d="M159.59 106.503L158.697 105.082H154.098L153.195 106.503H151.977C151.977 106.503 151.895 106.503 151.885 106.503C151.875 106.503 151.885 106.422 151.967 106.31C152.029 106.222 152.086 106.131 152.139 106.036L152.565 105.356L153.154 104.402L153.845 103.316C154.383 102.453 155.002 101.478 155.682 100.382H156.697L160.443 106.341C160.443 106.341 160.504 106.412 160.504 106.432H159.621L159.59 106.503ZM154.779 103.975H157.997L156.514 101.6L156.454 101.529C156.444 101.524 156.434 101.522 156.423 101.522C156.413 101.522 156.402 101.524 156.393 101.529C156.393 101.529 156.301 101.529 156.261 101.641L154.779 103.975Z" fill="#232323"/>
<path d="M165.325 102.371C165.323 102.118 165.368 101.867 165.457 101.63C165.542 101.391 165.677 101.173 165.853 100.991C166.054 100.801 166.288 100.649 166.544 100.544C166.868 100.424 167.213 100.365 167.559 100.372H173V106.463H172.198V103.691C172.137 103.774 172.069 103.852 171.995 103.925C171.884 104.012 171.761 104.084 171.63 104.138L167.041 106.463H165.427V106.402C165.423 106.382 165.423 106.361 165.427 106.341L165.498 106.28L169.366 104.351H167.549C167.248 104.357 166.949 104.309 166.665 104.209C166.405 104.124 166.164 103.99 165.955 103.813C165.751 103.637 165.589 103.419 165.478 103.173C165.362 102.911 165.303 102.628 165.305 102.341L165.325 102.371ZM172.178 102.341C172.18 102.234 172.156 102.129 172.108 102.033C172.06 101.938 171.99 101.855 171.904 101.793C171.686 101.637 171.42 101.562 171.152 101.58H167.092C166.842 101.567 166.596 101.646 166.402 101.803C166.318 101.87 166.252 101.955 166.208 102.052C166.164 102.149 166.143 102.255 166.148 102.361C166.142 102.482 166.17 102.601 166.229 102.706C166.277 102.805 166.351 102.889 166.442 102.95C166.538 103.015 166.645 103.063 166.757 103.092C166.882 103.108 167.008 103.108 167.132 103.092H171.193C171.458 103.104 171.72 103.025 171.934 102.869C172.024 102.804 172.098 102.718 172.149 102.62C172.2 102.521 172.227 102.412 172.228 102.3" fill="#232323"/>
<path d="M65.6283 111.64C65.6302 111.81 65.5991 111.979 65.5369 112.137C65.4726 112.272 65.3869 112.395 65.2831 112.503C65.1806 112.598 65.0596 112.67 64.9278 112.716C64.7984 112.767 64.6609 112.795 64.5217 112.797H62.7249V112.34H64.7552C64.8844 112.344 65.0106 112.301 65.1105 112.219C65.2185 112.128 65.2905 112.002 65.3135 111.863H63.2122V111.406H65.3135C65.2832 111.276 65.2121 111.159 65.1105 111.071C65.0106 110.989 64.8844 110.946 64.7552 110.95H62.7249V110.493H64.5217C64.6636 110.491 64.8047 110.515 64.9379 110.564C65.0683 110.613 65.1887 110.685 65.2933 110.777C65.399 110.877 65.482 110.998 65.5369 111.132C65.6012 111.29 65.6323 111.459 65.6283 111.63" fill="#232323"/>
<path d="M74.997 111.416L76.3878 110.493H76.9766L76.8954 110.554L75.3727 111.569L76.9563 112.696H76.3878L74.9869 111.68H74.5808C74.5199 111.68 74.4996 111.68 74.4996 111.772V112.645H74.1951V110.493H74.4996V111.325C74.4911 111.348 74.4911 111.373 74.4996 111.396C74.4996 111.396 74.4996 111.396 74.5605 111.396L74.997 111.416Z" fill="#232323"/>
<path d="M87.6471 110.493C87.7962 110.494 87.9439 110.522 88.0836 110.574C88.2184 110.625 88.3423 110.7 88.4491 110.797C88.5529 110.905 88.6386 111.028 88.7029 111.163C88.836 111.488 88.836 111.853 88.7029 112.178C88.6486 112.315 88.5651 112.439 88.4582 112.541C88.3513 112.642 88.2234 112.719 88.0836 112.767C87.9279 112.825 87.7625 112.852 87.5963 112.848H86.5812C86.415 112.852 86.2496 112.825 86.0939 112.767C85.9541 112.719 85.8263 112.642 85.7193 112.541C85.6124 112.439 85.5289 112.315 85.4747 112.178C85.3426 111.852 85.3426 111.488 85.4747 111.163C85.5353 111.026 85.6214 110.902 85.7284 110.797C85.8352 110.7 85.9591 110.625 86.0939 110.574C86.2336 110.522 86.3813 110.494 86.5304 110.493H87.6471ZM87.8095 112.35C87.9006 112.357 87.992 112.344 88.0777 112.312C88.1634 112.281 88.2415 112.231 88.3069 112.168C88.4328 112.025 88.4983 111.84 88.4897 111.65C88.4884 111.553 88.4713 111.457 88.4389 111.366C88.3875 111.242 88.2998 111.137 88.1874 111.065C88.075 110.992 87.9432 110.956 87.8095 110.96H86.3375C86.2475 110.957 86.158 110.973 86.0743 111.006C85.9905 111.04 85.9144 111.089 85.8503 111.153C85.7891 111.217 85.7409 111.293 85.7081 111.376C85.6919 111.47 85.6919 111.566 85.7081 111.66C85.703 111.753 85.7165 111.845 85.7479 111.932C85.7793 112.02 85.8279 112.1 85.8909 112.168C85.957 112.23 86.0352 112.279 86.1208 112.31C86.2063 112.342 86.2973 112.355 86.3883 112.35H87.8095Z" fill="#232323"/>
<path d="M100.032 111.883C99.99 111.866 99.9426 111.866 99.9003 111.883H97.87C97.8452 111.88 97.82 111.882 97.7963 111.89C97.7726 111.898 97.7511 111.912 97.7334 111.93C97.7157 111.947 97.7023 111.969 97.6943 111.992C97.6863 112.016 97.6839 112.041 97.6873 112.066V112.838H97.3929V110.493H97.6873V111.203C97.671 111.249 97.671 111.299 97.6873 111.345C97.7338 111.358 97.7829 111.358 97.8294 111.345H99.8597C99.9062 111.358 99.9554 111.358 100.002 111.345C100.021 111.296 100.021 111.242 100.002 111.193V110.493H100.296V112.797H100.002V112.026C100.012 112.003 100.017 111.979 100.017 111.955C100.017 111.93 100.012 111.906 100.002 111.883" fill="#232323"/>
<path d="M111.279 110.493C111.428 110.494 111.576 110.522 111.716 110.574C111.852 110.621 111.977 110.698 112.081 110.797C112.188 110.902 112.274 111.026 112.335 111.163C112.468 111.488 112.468 111.853 112.335 112.178C112.281 112.316 112.198 112.441 112.091 112.543C111.981 112.641 111.854 112.717 111.716 112.767C111.56 112.825 111.394 112.852 111.228 112.848H110.213C110.047 112.852 109.882 112.825 109.726 112.767C109.586 112.719 109.458 112.642 109.351 112.541C109.244 112.439 109.161 112.315 109.107 112.178C108.975 111.852 108.975 111.488 109.107 111.163C109.171 111.028 109.257 110.905 109.36 110.797C109.467 110.7 109.591 110.625 109.726 110.574C109.866 110.522 110.013 110.494 110.162 110.493H111.279ZM111.442 112.35C111.534 112.356 111.627 112.343 111.714 112.312C111.802 112.28 111.881 112.231 111.949 112.168C112.067 112.021 112.128 111.838 112.122 111.65C112.12 111.553 112.103 111.457 112.071 111.366C112.02 111.242 111.932 111.137 111.819 111.065C111.707 110.992 111.575 110.956 111.442 110.96H109.97C109.88 110.957 109.79 110.973 109.706 111.006C109.623 111.04 109.546 111.089 109.482 111.153C109.421 111.217 109.373 111.293 109.34 111.376C109.324 111.47 109.324 111.566 109.34 111.66C109.335 111.753 109.349 111.845 109.38 111.932C109.411 112.02 109.46 112.1 109.523 112.168C109.589 112.23 109.667 112.279 109.753 112.31C109.838 112.342 109.929 112.355 110.02 112.35H111.442Z" fill="#232323"/>
<path d="M122.426 111.437L122.528 111.528H122.589C122.637 111.5 122.681 111.466 122.72 111.427L123.898 110.493H124.264V112.797H123.959V111.051L122.822 111.975C122.778 112.009 122.725 112.03 122.67 112.036C122.646 112.034 122.623 112.028 122.603 112.018C122.582 112.007 122.563 111.993 122.548 111.975L121.472 110.899V112.797H121.015V110.493H121.472L122.426 111.437Z" fill="#232323"/>
<path d="M135.37 110.665L135.562 110.533C135.609 110.518 135.658 110.518 135.705 110.533C135.737 110.521 135.773 110.521 135.806 110.533C135.819 110.58 135.819 110.629 135.806 110.675V112.797H135.512V111.335C135.525 111.299 135.525 111.26 135.512 111.224C135.512 111.224 135.512 111.224 135.451 111.224C135.417 111.217 135.383 111.217 135.349 111.224L135.197 111.315L133.36 112.665L133.177 112.777C133.13 112.79 133.081 112.79 133.035 112.777C133.019 112.783 133.001 112.787 132.984 112.787C132.966 112.787 132.949 112.783 132.933 112.777C132.92 112.737 132.92 112.694 132.933 112.655V110.493H133.238V111.975C133.23 112.012 133.23 112.05 133.238 112.086C133.249 112.092 133.261 112.095 133.273 112.095C133.286 112.095 133.298 112.092 133.309 112.086C133.357 112.083 133.403 112.065 133.441 112.036L133.593 111.924L135.37 110.665Z" fill="#232323"/>
<path d="M145.217 111.416L146.608 110.493H147.186C147.186 110.493 147.186 110.493 147.115 110.554L145.592 111.569L147.176 112.696H146.608L145.217 111.68H144.801C144.75 111.68 144.719 111.68 144.719 111.772V112.645H144.425V110.493H144.719V111.325C144.719 111.325 144.719 111.386 144.719 111.396C144.719 111.406 144.719 111.396 144.78 111.396L145.217 111.416Z" fill="#232323"/>
<path d="M158.342 112.797L158.007 112.259H156.281L155.946 112.797H155.449C155.449 112.797 155.449 112.797 155.449 112.726L155.52 112.625L155.672 112.371C155.743 112.269 155.814 112.147 155.896 112.016L156.149 111.609L156.84 110.503H157.215L158.626 112.736H158.302L158.342 112.797ZM156.535 111.853H157.743L157.185 110.96L156.535 111.853Z" fill="#232323"/>
</svg>
