<svg width="221" height="161" viewBox="0 0 221 161" fill="none" xmlns="http://www.w3.org/2000/svg">
<path d="M79.7844 74.5217L84.0186 72.3252H86.0129C86.0129 72.3252 86.0996 72.3252 86.0996 72.3979C86.0996 72.4707 86.0273 72.4997 85.9117 72.5579L81.1717 75.0162L85.9406 77.6927C86.114 77.7945 86.0851 77.9254 85.9406 77.9254H84.1198L79.9867 75.6272C79.8635 75.5396 79.7182 75.4892 79.5676 75.4817C79.4087 75.4817 79.3364 75.5981 79.3364 75.8017V77.9254H78.4404V72.3252H79.3364V74.3326C79.3364 74.5507 79.3364 74.6089 79.5098 74.6089C79.6074 74.6049 79.7022 74.5748 79.7844 74.5217Z" fill="#1D1D1B"/>
<path d="M88.0216 72.3249V73.6049C88.2551 73.1704 88.6125 72.8163 89.0478 72.5881C89.4831 72.36 89.9763 72.2683 90.4638 72.3249H92.8049C93.1871 72.2971 93.5709 72.3489 93.9323 72.4771C94.2937 72.6052 94.625 72.807 94.9055 73.0697C95.186 73.3324 95.4097 73.6505 95.5627 74.0041C95.7157 74.3578 95.7946 74.7393 95.7946 75.125C95.7946 75.5107 95.7157 75.8922 95.5627 76.2458C95.4097 76.5995 95.186 76.9176 94.9055 77.1803C94.625 77.443 94.2937 77.6447 93.9323 77.7729C93.5709 77.901 93.1871 77.9529 92.8049 77.9251H90.3482C89.8926 77.9803 89.4311 77.896 89.0238 77.6832C88.6165 77.4704 88.2824 77.1391 88.0649 76.7323V79.2197H87.1689V72.3249H88.0216ZM88.0216 75.1323C88.0216 75.5181 88.1738 75.888 88.4448 76.1608C88.7158 76.4336 89.0834 76.5869 89.4667 76.5869H93.3541C93.5529 76.611 93.7545 76.5905 93.9445 76.527C94.1346 76.4635 94.3083 76.3585 94.4533 76.2195C94.5983 76.0805 94.711 75.9109 94.7833 75.723C94.8556 75.535 94.8857 75.3333 94.8714 75.1323C94.8719 74.9324 94.8315 74.7345 94.7526 74.551C94.6738 74.3676 94.5582 74.2025 94.4131 74.066C94.268 73.9295 94.0965 73.8245 93.9093 73.7577C93.7221 73.6909 93.5233 73.6637 93.3252 73.6777H89.5823C89.383 73.6616 89.1826 73.6873 88.9937 73.7531C88.8048 73.819 88.6315 73.9236 88.4849 74.0603C88.3382 74.197 88.2213 74.3628 88.1415 74.5474C88.0618 74.7319 88.0209 74.931 88.0216 75.1323Z" fill="#1D1D1B"/>
<path d="M99.8277 77.9252C99.4391 77.9753 99.0444 77.9383 98.6717 77.817C98.2991 77.6956 97.9576 77.4929 97.6718 77.2233C97.386 76.9537 97.1629 76.6238 97.0185 76.2574C96.874 75.8909 96.8118 75.4968 96.8363 75.1033C96.7979 74.7402 96.8385 74.3731 96.9553 74.0273C97.072 73.6816 97.2621 73.3656 97.5124 73.1013C97.7626 72.837 98.067 72.6306 98.4045 72.4965C98.7419 72.3625 99.1042 72.3039 99.4664 72.325H103.036C104.481 72.325 105.464 73.0377 105.464 74.1869C105.464 75.0597 104.9 75.6415 103.686 75.6415H98.8739C98.0646 75.6415 97.7467 75.4088 97.5155 75.0306C97.5318 75.2537 97.5921 75.4714 97.6929 75.6708C97.7936 75.8703 97.9327 76.0476 98.1022 76.1925C98.2716 76.3373 98.468 76.4468 98.6799 76.5145C98.8918 76.5823 99.1149 76.6069 99.3363 76.587H104.915V77.8816L99.8277 77.9252ZM97.6889 74.2887C97.6889 74.6669 97.9779 74.8996 98.4548 74.8996H103.888C104.365 74.8996 104.654 74.6524 104.654 74.2742C104.654 73.896 104.336 73.6632 103.888 73.6632H98.4404C98.0068 73.6632 97.6889 73.9105 97.6889 74.2887Z" fill="#1D1D1B"/>
<path d="M106.692 75.1181C106.676 74.7371 106.741 74.3571 106.882 74.0033C107.024 73.6495 107.238 73.33 107.511 73.0659C107.785 72.8018 108.111 72.5993 108.468 72.4716C108.825 72.3439 109.204 72.294 109.582 72.3252H111.591C112.081 72.2612 112.58 72.3477 113.021 72.5735C113.461 72.7993 113.824 73.1539 114.062 73.5907V72.3252H115.03V77.9255H114.134V76.6745C113.871 77.097 113.497 77.4377 113.053 77.6586C112.609 77.8794 112.113 77.9718 111.62 77.9255H109.625C109.244 77.9587 108.86 77.91 108.499 77.7827C108.138 77.6553 107.808 77.4522 107.53 77.1868C107.253 76.9214 107.035 76.5998 106.89 76.2431C106.746 75.8865 106.678 75.503 106.692 75.1181ZM107.472 75.1181C107.459 75.3124 107.488 75.5073 107.556 75.6896C107.624 75.8719 107.73 76.0374 107.867 76.1752C108.004 76.3129 108.168 76.4196 108.349 76.4882C108.531 76.5567 108.724 76.5855 108.917 76.5727H112.487C112.688 76.5931 112.892 76.5706 113.084 76.5067C113.277 76.4428 113.453 76.3388 113.603 76.2017C113.753 76.0645 113.873 75.8972 113.954 75.7105C114.036 75.5238 114.077 75.322 114.076 75.1181C114.078 74.9114 114.035 74.7068 113.952 74.5179C113.869 74.329 113.747 74.1601 113.594 74.0225C113.441 73.8849 113.26 73.7817 113.064 73.7198C112.868 73.6578 112.662 73.6387 112.458 73.6635H108.903C108.708 73.6523 108.514 73.6834 108.332 73.7546C108.151 73.8258 107.986 73.9355 107.851 74.0763C107.715 74.217 107.611 74.3855 107.546 74.5702C107.48 74.755 107.455 74.9518 107.472 75.1472V75.1181Z" fill="#1D1D1B"/>
<path d="M116.216 72.3252H124.28V73.6634H121.043C120.811 73.6634 120.696 73.7798 120.696 74.0853V77.9254H119.8V74.0853C119.8 73.7507 119.684 73.6634 119.438 73.6634H116.216V72.3252Z" fill="#1D1D1B"/>
<path d="M126.881 77.6051C126.642 77.8119 126.342 77.9345 126.028 77.9542C125.652 77.9542 125.508 77.7069 125.508 77.2997V72.3249H126.404V75.8741C126.404 76.1069 126.476 76.1796 126.592 76.1796C126.707 76.1796 126.91 76.0632 127.184 75.8887L131.895 72.6304C132.137 72.4288 132.435 72.3069 132.748 72.2812C133.109 72.2812 133.254 72.5285 133.254 72.9504V77.9251H132.372V74.3759C132.372 74.1286 132.285 74.0704 132.184 74.0704C131.965 74.1133 131.76 74.2136 131.592 74.3613L126.881 77.6051Z" fill="#1D1D1B"/>
<path d="M142.199 74.7397C142.461 74.8288 142.687 75.0026 142.841 75.234C142.995 75.4655 143.069 75.7417 143.051 76.0197C143.051 77.3143 142.126 77.9253 140.84 77.9253H134.829V72.325H140.725C140.948 72.2932 141.175 72.3107 141.39 72.3764C141.606 72.4421 141.804 72.5543 141.972 72.7053C142.14 72.8563 142.273 73.0424 142.362 73.2506C142.451 73.4588 142.494 73.684 142.488 73.9106C142.479 74.2103 142.378 74.4999 142.199 74.7397ZM135.609 74.1287C135.609 74.4924 135.898 74.667 136.259 74.667H141.043C141.447 74.667 141.707 74.4488 141.707 74.1287C141.707 73.8087 141.418 73.6051 141.043 73.6051H136.259C135.869 73.6051 135.609 73.9106 135.609 74.1287ZM142.271 76.0343C142.271 75.6415 141.895 75.4524 141.418 75.4524H136.346C135.956 75.4524 135.609 75.6124 135.609 76.0488C135.634 76.2225 135.725 76.3798 135.862 76.4881C135.999 76.5964 136.172 76.6474 136.346 76.6307H141.418C141.939 76.6307 142.271 76.3979 142.271 76.0343Z" fill="#1D1D1B"/>
<path d="M150.768 75.6705H145.898C145.822 75.6611 145.744 75.6693 145.672 75.6945C145.599 75.7196 145.533 75.7611 145.479 75.8158C145.425 75.8705 145.383 75.9369 145.358 76.01C145.333 76.0831 145.325 76.161 145.334 76.2378V77.9251H144.438V72.3249H145.378V73.7795C145.378 74.2013 145.58 74.3323 145.941 74.3323H150.797C150.878 74.3446 150.96 74.3377 151.037 74.3121C151.115 74.2864 151.185 74.2429 151.243 74.1848C151.301 74.1268 151.344 74.0559 151.369 73.9779C151.395 73.8999 151.402 73.817 151.389 73.7359V72.2812H152.285V77.8815H151.389V76.2378C151.346 75.8014 151.158 75.6705 150.768 75.6705Z" fill="#1D1D1B"/>
<path d="M153.586 75.1182C153.569 74.7366 153.632 74.3555 153.772 74.0006C153.913 73.6457 154.127 73.3252 154.401 73.0606C154.675 72.7961 155.002 72.5936 155.36 72.4667C155.718 72.3399 156.099 72.2917 156.477 72.3253H158.471C158.964 72.2603 159.464 72.3462 159.908 72.572C160.351 72.7977 160.717 73.1528 160.957 73.5908V72.3253H161.838V77.9256H160.986V76.6746C160.718 77.0959 160.341 77.4354 159.895 77.6559C159.449 77.8765 158.951 77.9697 158.457 77.9256H156.506C156.125 77.959 155.742 77.9103 155.381 77.7829C155.021 77.6554 154.691 77.4521 154.415 77.1864C154.139 76.9208 153.922 76.5989 153.779 76.2423C153.636 75.8856 153.571 75.5024 153.586 75.1182ZM154.367 75.1182C154.354 75.3125 154.383 75.5074 154.451 75.6897C154.519 75.872 154.625 76.0376 154.762 76.1753C154.899 76.313 155.063 76.4197 155.244 76.4883C155.425 76.5568 155.619 76.5856 155.812 76.5728H159.367C159.567 76.5846 159.768 76.5561 159.958 76.4892C160.147 76.4222 160.322 76.3181 160.471 76.1828C160.62 76.0475 160.741 75.8837 160.827 75.701C160.913 75.5182 160.962 75.3201 160.971 75.1182C160.973 74.9102 160.93 74.7042 160.846 74.5141C160.762 74.3241 160.638 74.1544 160.484 74.0165C160.329 73.8787 160.147 73.7758 159.949 73.7149C159.751 73.654 159.543 73.6365 159.338 73.6636H155.783C155.589 73.6521 155.395 73.6831 155.214 73.7544C155.033 73.8258 154.87 73.9358 154.735 74.0768C154.601 74.2178 154.498 74.3866 154.434 74.5714C154.371 74.7562 154.348 74.9527 154.367 75.1473V75.1182Z" fill="#1D1D1B"/>
<path d="M165.422 72.3252H171V77.9254H170.104V75.7435L165.61 77.9254H163.399C163.24 77.9254 163.283 77.8091 163.399 77.7509L167.055 76.049H165.205C164.064 76.049 163.211 75.5108 163.211 74.2744C163.211 73.038 163.991 72.3252 165.422 72.3252ZM169.266 73.6634H164.931C164.82 73.6533 164.709 73.6665 164.604 73.7021C164.499 73.7378 164.403 73.7951 164.321 73.8704C164.24 73.9457 164.175 74.0374 164.13 74.1395C164.086 74.2417 164.063 74.352 164.064 74.4635C164.065 74.5783 164.09 74.6917 164.138 74.796C164.185 74.9004 164.255 74.9934 164.341 75.069C164.427 75.1445 164.527 75.2009 164.637 75.2344C164.746 75.268 164.861 75.2779 164.974 75.2635H169.309C169.916 75.2635 170.263 74.9144 170.263 74.478C170.263 74.0416 169.844 73.6634 169.266 73.6634Z" fill="#1D1D1B"/>
<path d="M83.1082 88.4566H78.4404V87.162H83.6718C84.0264 87.1898 84.3788 87.085 84.6614 86.8676C84.944 86.6502 85.1371 86.3355 85.2036 85.9838H79.4231V85.1983H85.2036C85.1137 84.8707 84.9127 84.5852 84.6356 84.3913C84.3584 84.1973 84.0225 84.1071 83.6862 84.1364H78.4404V82.8418H83.1226C83.8623 82.8418 84.5717 83.1376 85.0948 83.6641C85.6179 84.1906 85.9117 84.9046 85.9117 85.6492C85.9117 86.3938 85.6179 87.1078 85.0948 87.6343C84.5717 88.1608 83.8623 88.4566 83.1226 88.4566H83.1082Z" fill="#1D1D1B"/>
<path d="M88.8158 85.0676L93.0356 82.8711H95.0443C95.0443 82.8711 95.0443 82.8711 95.0443 82.9438C95.0443 83.0166 95.0443 83.0456 94.8709 83.1038L90.2032 85.5476L94.9721 88.2241C95.1455 88.3259 95.1166 88.4713 94.9721 88.4713H93.1512L89.0182 86.1731C88.8967 86.0928 88.758 86.0429 88.6135 86.0276C88.4546 86.0276 88.3678 86.1585 88.3678 86.3476V88.4568H87.4863V82.8711H88.3678V84.893C88.3678 85.0966 88.4401 85.1548 88.5557 85.1548C88.6484 85.1483 88.7379 85.1183 88.8158 85.0676Z" fill="#1D1D1B"/>
<path d="M95.8102 85.6783C95.7846 85.303 95.8391 84.9265 95.9702 84.5742C96.1013 84.2218 96.3059 83.9019 96.5702 83.6359C96.8345 83.3698 97.1523 83.1639 97.5024 83.0319C97.8524 82.9 98.2264 82.8451 98.5993 82.8709H101.49C101.864 82.8376 102.241 82.8873 102.595 83.0165C102.948 83.1458 103.269 83.3515 103.535 83.6192C103.801 83.8869 104.006 84.21 104.134 84.5657C104.262 84.9215 104.312 85.3013 104.279 85.6783C104.3 86.0526 104.242 86.4272 104.108 86.7771C103.974 87.127 103.768 87.444 103.502 87.7071C103.237 87.9701 102.919 88.173 102.569 88.3023C102.22 88.4316 101.847 88.4842 101.475 88.4566H98.5849C98.2141 88.4872 97.8411 88.4364 97.4916 88.3078C97.1422 88.1792 96.8247 87.9758 96.5609 87.7117C96.2971 87.4475 96.0934 87.129 95.9638 86.7779C95.8342 86.4269 95.7818 86.0517 95.8102 85.6783ZM96.5906 85.6783C96.5906 86.0641 96.7429 86.4341 97.0139 86.7069C97.2849 86.9797 97.6525 87.1329 98.0357 87.1329H102.024C102.408 87.1329 102.775 86.9797 103.046 86.7069C103.317 86.4341 103.469 86.0641 103.469 85.6783C103.482 85.484 103.454 85.2891 103.385 85.1068C103.317 84.9245 103.211 84.7589 103.074 84.6212C102.938 84.4835 102.773 84.3768 102.592 84.3082C102.411 84.2397 102.217 84.2109 102.024 84.2237H98.0068C97.817 84.2083 97.6261 84.2347 97.4473 84.3009C97.2686 84.3671 97.1062 84.4716 96.9716 84.6072C96.8369 84.7427 96.7331 84.9061 96.6673 85.086C96.6015 85.266 96.5753 85.4581 96.5906 85.6492V85.6783Z" fill="#1D1D1B"/>
<path d="M112.039 86.231H107.169C107.092 86.2185 107.013 86.2245 106.939 86.2486C106.865 86.2727 106.798 86.3141 106.743 86.3695C106.688 86.4249 106.646 86.4927 106.622 86.5672C106.598 86.6418 106.593 86.721 106.605 86.7983V88.4566H105.709V82.8709H106.605V84.3255C106.605 84.7619 106.807 84.8783 107.169 84.8783H112.024C112.103 84.8901 112.184 84.8833 112.261 84.8584C112.337 84.8336 112.406 84.7914 112.464 84.7351C112.521 84.6787 112.565 84.6099 112.591 84.5338C112.618 84.4577 112.626 84.3764 112.617 84.2964V82.8418H113.585V88.4566H112.689V86.7983C112.617 86.3474 112.429 86.231 112.039 86.231Z" fill="#1D1D1B"/>
<path d="M115.031 85.6783C115.005 85.303 115.059 84.9265 115.191 84.5742C115.322 84.2218 115.526 83.9019 115.791 83.6359C116.055 83.3698 116.373 83.1639 116.723 83.0319C117.073 82.9 117.447 82.8451 117.82 82.8709H120.71C121.085 82.8375 121.462 82.8873 121.815 83.0165C122.169 83.1458 122.49 83.3515 122.756 83.6192C123.022 83.8869 123.226 84.21 123.354 84.5657C123.483 84.9215 123.532 85.3013 123.499 85.6783C123.522 86.0593 123.462 86.4407 123.324 86.7961C123.186 87.1516 122.973 87.4725 122.699 87.7368C122.426 88.0011 122.098 88.2023 121.74 88.3266C121.381 88.4509 121 88.4953 120.623 88.4566H117.733C117.368 88.4763 117.003 88.4174 116.662 88.2839C116.322 88.1504 116.013 87.9454 115.758 87.6825C115.502 87.4196 115.305 87.1049 115.18 86.7593C115.054 86.4137 115.003 86.0452 115.031 85.6783ZM115.811 85.6783C115.811 86.0641 115.963 86.4341 116.234 86.7069C116.505 86.9797 116.873 87.1329 117.256 87.1329H121.274C121.657 87.1329 122.024 86.9797 122.295 86.7069C122.566 86.4341 122.719 86.0641 122.719 85.6783C122.731 85.484 122.703 85.2891 122.635 85.1068C122.567 84.9245 122.461 84.7589 122.324 84.6212C122.187 84.4835 122.022 84.3768 121.841 84.3082C121.66 84.2397 121.467 84.2109 121.274 84.2237H117.155C116.965 84.2083 116.774 84.2347 116.595 84.3009C116.417 84.3671 116.254 84.4716 116.12 84.6072C115.985 84.7427 115.881 84.9061 115.815 85.086C115.75 85.266 115.723 85.4581 115.739 85.6492L115.811 85.6783Z" fill="#1D1D1B"/>
<path d="M129.323 85.7658C129.424 85.7658 129.496 85.7658 129.829 85.4021L132.545 82.8711H134.106V88.4568H133.21V84.093L130.031 87.0022C129.843 87.1767 129.742 87.264 129.612 87.264C129.482 87.264 129.381 87.1767 129.222 87.0167L126.201 84.0202V88.4568H124.857V82.8711H126.303L128.832 85.3876C129.092 85.6639 129.207 85.7658 129.323 85.7658Z" fill="#1D1D1B"/>
<path d="M137.04 88.1657C136.797 88.3649 136.5 88.4864 136.187 88.5148C135.812 88.5148 135.667 88.2675 135.667 87.8457V82.8709H136.563V86.4201C136.563 86.6674 136.635 86.7256 136.751 86.7256C136.971 86.6862 137.177 86.5855 137.343 86.4347L142.054 83.1909C142.293 82.9841 142.593 82.8615 142.907 82.8418C143.283 82.8418 143.427 83.0891 143.427 83.4964V88.4566H142.488V84.9219C142.488 84.6892 142.416 84.6164 142.3 84.6164C142.184 84.6164 141.982 84.7328 141.708 84.9073L137.04 88.1657Z" fill="#1D1D1B"/>
<path d="M146.332 85.0676L150.552 82.8711H152.604C152.604 82.8711 152.69 82.8711 152.69 82.9438C152.69 83.0166 152.69 83.0456 152.502 83.1038L147.719 85.5476L152.488 88.2241C152.661 88.3259 152.632 88.4713 152.488 88.4713H150.667L146.534 86.1731C146.408 86.0921 146.264 86.0423 146.115 86.0276C145.956 86.0276 145.884 86.1585 145.884 86.3476V88.4568H144.988V82.8711H145.884V84.893C145.884 85.0966 145.884 85.1548 146.057 85.1548C146.155 85.1508 146.25 85.1207 146.332 85.0676Z" fill="#1D1D1B"/>
<path d="M153.225 85.664C153.209 85.283 153.274 84.903 153.416 84.5492C153.557 84.1954 153.771 83.8759 154.045 83.6119C154.318 83.3478 154.644 83.1452 155.001 83.0175C155.358 82.8898 155.738 82.8399 156.115 82.8711H158.124C158.616 82.8084 159.115 82.8972 159.557 83.1256C159.998 83.3541 160.36 83.7117 160.595 84.1512V82.8711H161.491V88.4568H160.595V87.1913C160.336 87.6189 159.963 87.9644 159.519 88.1883C159.074 88.4121 158.575 88.5052 158.081 88.4568H156.159C155.779 88.4899 155.396 88.4416 155.036 88.3151C154.676 88.1886 154.346 87.9868 154.069 87.723C153.792 87.4592 153.574 87.1394 153.428 86.7845C153.283 86.4296 153.213 86.0477 153.225 85.664ZM154.005 85.664C153.993 85.8583 154.021 86.0532 154.089 86.2355C154.157 86.4178 154.263 86.5834 154.4 86.7211C154.537 86.8588 154.702 86.9655 154.883 87.0341C155.064 87.1027 155.257 87.1315 155.45 87.1186H159.02C159.221 87.139 159.425 87.1165 159.617 87.0526C159.81 86.9887 159.987 86.8848 160.136 86.7476C160.286 86.6105 160.406 86.4431 160.487 86.2564C160.569 86.0697 160.611 85.8679 160.609 85.664C160.609 84.7185 159.945 84.2094 158.977 84.2094H155.494C155.298 84.196 155.102 84.2255 154.919 84.2957C154.735 84.366 154.569 84.4754 154.432 84.6164C154.295 84.7573 154.189 84.9266 154.123 85.1125C154.057 85.2983 154.032 85.4964 154.049 85.6931L154.005 85.664Z" fill="#1D1D1B"/>
<path d="M50.3613 39V121.985" stroke="#1D1D1B" stroke-width="0.5" stroke-miterlimit="10"/>
<path d="M143.673 39V68.034" stroke="#1D1D1B" stroke-width="0.5" stroke-miterlimit="10"/>
<path d="M143.673 92.937V121.986" stroke="#1D1D1B" stroke-width="0.5" stroke-miterlimit="10"/>
<path d="M50.3613 121.636H144.034" stroke="#1D1D1B" stroke-width="0.5" stroke-miterlimit="10"/>
<path d="M50.3613 39.3638H144.034" stroke="#1D1D1B" stroke-width="0.5" stroke-miterlimit="10"/>
</svg>
