<svg width="221" height="161" viewBox="0 0 221 161" fill="none" xmlns="http://www.w3.org/2000/svg">
<path d="M110.576 75.2471C110.373 75.7927 110.136 76.3894 110.068 76.577C109.984 76.7645 109.493 78.0602 108.967 79.4753C108.442 80.8733 107.951 82.1861 107.867 82.3737C107.799 82.5612 107.409 83.5501 107.02 84.5901C104.97 89.9946 104.987 89.9776 103.7 90.114C103.124 90.1822 102.87 90.2845 102.87 90.472C102.87 90.6766 103.26 90.7277 105.123 90.7789C107.223 90.813 107.375 90.7959 107.325 90.5232C107.291 90.3015 107.088 90.1992 106.546 90.1651C106.156 90.131 105.834 90.0799 105.834 90.0458C105.834 89.9776 106.071 89.3297 106.85 87.3179C106.918 87.1304 107.104 86.6871 107.24 86.3291L107.528 85.6983H110.475H113.422L113.676 86.2438C114.065 87.0792 115.149 89.8412 115.149 89.9776C115.149 90.0628 114.794 90.131 114.353 90.1651C113.744 90.1992 113.523 90.2845 113.49 90.5061C113.439 90.7959 113.693 90.813 116.911 90.813C120.281 90.813 120.4 90.7959 120.4 90.472C120.4 90.1822 120.281 90.131 119.739 90.131C118.74 90.131 118.35 89.6536 117.436 87.3179C116.995 86.1927 116.521 85.0333 116.403 84.7435C116.267 84.4537 115.59 82.7147 114.878 80.9074C114.184 79.0832 113.49 77.3271 113.337 77.0032C113.202 76.6793 113.032 76.253 112.948 76.0655C112.88 75.878 112.744 75.537 112.643 75.2983C112.558 75.0596 112.423 74.7357 112.372 74.5652C112.304 74.3606 112.101 74.2753 111.61 74.2753C110.966 74.2753 110.949 74.2924 110.576 75.2471ZM111.83 81.5383C112.541 83.2943 113.117 84.8287 113.117 84.9481C113.117 85.1356 112.575 85.1868 110.39 85.1868C108.273 85.1868 107.68 85.1356 107.748 84.9651C107.782 84.8628 108.138 83.9081 108.527 82.8851C108.934 81.8451 109.306 80.8563 109.391 80.6688C109.459 80.4812 109.696 79.8845 109.899 79.3389C110.102 78.8104 110.339 78.3671 110.407 78.3671C110.475 78.3671 111.118 79.7993 111.83 81.5383Z" fill="black"/>
<path d="M46.8953 74.855C46.8953 75.2642 46.9461 75.2983 47.6743 75.2983C48.2332 75.2983 48.5381 75.3835 48.6905 75.5881C48.8768 75.8268 48.9107 77.3101 48.9276 82.7317C48.9276 90.472 48.9954 90.131 47.6066 90.131C47.0138 90.131 46.8953 90.1822 46.8953 90.472C46.8953 90.7959 47.0138 90.813 51.1802 90.813C56.5999 90.813 58.158 90.5402 60.0549 89.2445C62.2567 87.7441 63.3237 85.5789 63.3237 82.6294C63.3237 78.7252 61.359 76.0484 57.633 74.855C56.9894 74.6504 55.6345 74.5652 51.8577 74.497L46.8953 74.3947V74.855ZM57.0233 75.7245C57.4975 75.9802 58.1242 76.4917 58.4121 76.8498C60.7832 79.8334 60.6138 86.2097 58.1072 88.733C57.108 89.7389 55.9055 90.131 53.8392 90.131H52.1456V82.6124V75.0766L54.1441 75.1619C55.9393 75.2301 56.2442 75.2983 57.0233 75.7245Z" fill="black"/>
<path d="M68.0997 74.7357C68.1336 74.9403 68.3707 75.0766 68.8111 75.1448C69.1837 75.213 69.5732 75.4006 69.7087 75.5711C69.8781 75.8098 69.9289 77.276 69.9289 82.6124C69.9289 86.3291 69.8611 89.4491 69.7934 89.5514C69.6071 89.8582 68.9635 90.131 68.4893 90.131C68.1505 90.131 68.0489 90.1992 68.0997 90.4209C68.1505 90.7107 68.6417 90.7277 75.0606 90.7789L81.9538 90.813V88.7671C81.9538 87.0792 81.903 86.7212 81.6997 86.7212C81.5642 86.7212 81.4118 86.9258 81.3441 87.1815C80.8021 89.79 80.1924 90.131 76.1446 90.131C73.9767 90.131 73.3162 90.0799 73.1637 89.8923C73.0283 89.7389 72.9774 88.5625 73.0113 86.0222L73.0621 82.3737H75.1792H77.2963L77.3471 83.3455C77.3809 84.0786 77.4656 84.3343 77.6519 84.3343C77.8552 84.3343 77.889 83.9592 77.8552 81.8963C77.8043 79.4753 77.6011 78.8275 77.3301 80.2084C77.1099 81.3507 76.7543 81.5212 74.7727 81.5212H73.0621V78.3671V75.213H76.026C78.5834 75.213 79.0746 75.2471 79.4641 75.5199C80.0908 75.9291 80.3956 76.4406 80.6327 77.4806C80.7513 77.975 80.9376 78.3671 81.0562 78.3671C81.2255 78.3671 81.2763 77.8727 81.2763 76.4065V74.4458H74.6542C68.4723 74.4458 68.0489 74.4629 68.0997 74.7357Z" fill="black"/>
<path d="M86.3911 74.7357C86.425 74.9403 86.679 75.0766 87.1871 75.1619C87.6105 75.2301 88.0001 75.3835 88.0848 75.5029C88.1525 75.6222 88.2202 78.7934 88.2202 82.5612C88.2202 87.8464 88.1694 89.4491 88.0001 89.6877C87.8815 89.8582 87.4581 90.0287 87.0686 90.0799C86.5266 90.1481 86.3572 90.2504 86.3911 90.455C86.4419 90.6936 87.1363 90.7277 93.0133 90.7789L99.5677 90.813V88.4261C99.5677 86.5507 99.5169 86.0733 99.3475 86.1415C99.229 86.1756 99.0257 86.6701 98.9072 87.2156C98.6362 88.4602 98.2128 89.1763 97.5014 89.6195C96.9933 89.9264 96.6885 89.9605 94.2327 89.9264L91.5229 89.8753V82.5442V75.213L92.4036 75.1278C93.352 75.0255 93.5722 74.9232 93.3859 74.6334C93.3181 74.514 92.0818 74.4458 89.8123 74.4458C86.6113 74.4458 86.3403 74.4629 86.3911 74.7357Z" fill="black"/>
<path d="M123.364 74.7867C123.177 75.1106 123.465 75.2982 124.126 75.2982C125.294 75.2982 125.311 75.3664 125.311 82.7146C125.311 90.0627 125.294 90.1309 124.143 90.1309C123.516 90.1309 122.991 90.4549 123.228 90.6935C123.279 90.7617 124.854 90.8129 126.7 90.8129C129.935 90.8129 130.053 90.7958 130.053 90.4719C130.053 90.165 129.935 90.1309 129.122 90.1309H128.19V82.7146V75.2982H129.698C131.967 75.2982 133.153 75.9631 133.898 77.6339C134.457 78.9296 134.457 81.146 133.881 82.3736C133.221 83.8227 131.916 84.6752 130.375 84.6752C129.664 84.6752 129.545 84.7264 129.545 85.0162C129.545 85.2037 129.647 85.3572 129.766 85.3572C130.087 85.3572 131.019 86.3972 132.408 88.3067C133.779 90.165 134.575 90.847 135.93 91.2732C136.709 91.5119 136.947 91.529 137.692 91.3414C138.742 91.0686 139.385 90.7447 139.792 90.3014C140.063 90.0116 140.063 89.9604 139.826 89.8581C139.69 89.807 139.419 89.8411 139.216 89.9434C138.86 90.148 137.861 90.1991 137.438 90.0286C137.302 89.9775 136.659 89.2273 136.032 88.3749C135.405 87.5054 134.728 86.67 134.542 86.4995C134.034 86.0221 132.56 85.3572 132.052 85.3572C131.798 85.3572 131.544 85.2719 131.493 85.1867C131.425 85.0844 131.679 85.0162 132.137 85.0162C133.102 85.0162 134.846 84.4365 135.761 83.8057C137.319 82.7316 138.081 80.771 137.692 78.9126C137.404 77.6169 136.794 76.5939 135.93 75.9631C134.321 74.7697 133.407 74.6162 128.021 74.6162C125.176 74.6162 123.431 74.6844 123.364 74.7867Z" fill="black"/>
<path d="M142.586 76.935C142.586 78.6911 142.637 79.2366 142.79 79.1855C142.908 79.1343 143.061 78.8445 143.145 78.5206C143.518 77.0032 143.738 76.5258 144.314 75.9462L144.958 75.2983H146.499H148.023L148.277 75.895C148.463 76.3724 148.514 77.6511 148.514 82.7147C148.514 89.9946 148.497 90.0799 147.295 90.1651C146.77 90.1992 146.55 90.3015 146.516 90.5061C146.465 90.7959 146.719 90.813 149.954 90.813C153.189 90.813 153.443 90.7959 153.392 90.5061C153.358 90.2845 153.138 90.1992 152.443 90.1651L151.563 90.114L151.597 82.7488L151.647 75.3835L153.155 75.3324C154.069 75.2983 154.865 75.3665 155.17 75.4858C155.915 75.7927 156.711 77.3101 156.847 78.7081C156.881 78.9468 156.999 79.1343 157.152 79.1343C157.372 79.1343 157.406 78.7763 157.406 76.918V74.7016L150.005 74.6504L142.586 74.6163V76.935Z" fill="black"/>
<path d="M161.42 74.9062C161.454 75.1278 161.674 75.2301 162.148 75.2642C162.521 75.2983 162.91 75.4006 163.029 75.5029C163.198 75.6393 163.249 77.2589 163.249 82.7147C163.249 88.1704 163.198 89.79 163.029 89.9264C162.91 90.0287 162.521 90.131 162.148 90.1651C161.674 90.1992 161.454 90.3015 161.42 90.5061C161.369 90.7959 161.792 90.813 168.398 90.813H175.443V88.8523C175.443 87.011 175.426 86.8917 175.105 86.8917C174.884 86.8917 174.766 87.011 174.766 87.1986C174.766 87.9487 174.207 89.1251 173.614 89.6195L172.987 90.131H169.736H166.467L166.501 86.2438L166.552 82.3737L168.33 82.3225C170.853 82.2543 170.87 82.2543 170.87 83.4137C170.87 84.0956 170.938 84.3514 171.091 84.3002C171.243 84.2491 171.311 83.5671 171.345 81.8963C171.379 79.9527 171.345 79.5606 171.141 79.5606C170.989 79.5606 170.853 79.8163 170.786 80.2425C170.718 80.7029 170.498 81.0609 170.159 81.3507C169.702 81.7429 169.515 81.777 168.059 81.777H166.467V78.5376V75.2983H169.397C171.988 75.2983 172.378 75.3324 172.852 75.6393C173.411 75.9803 174.088 77.0884 174.088 77.6681C174.088 78.1796 174.275 78.5376 174.529 78.5376C174.715 78.5376 174.766 78.1455 174.766 76.577V74.6163H168.059C161.776 74.6163 161.369 74.6334 161.42 74.9062Z" fill="black"/>
<path d="M101.227 74.1629C101.137 73.4977 101.654 72.9058 102.325 72.9058C103.006 72.9058 103.527 73.5144 103.42 74.1874L102.736 78.5206C102.695 78.7822 102.444 78.9568 102.184 78.9049C101.989 78.8659 101.841 78.7074 101.814 78.5104L101.227 74.1629Z" fill="#D06B6B"/>
</svg>
