<svg width="221" height="161" viewBox="0 0 221 161" fill="none" xmlns="http://www.w3.org/2000/svg">
<rect width="221" height="161" fill="white"/>
<g clip-path="url(#clip0)">
<path d="M23 92.5631C23 96.2201 25.4321 98.4949 29.3486 98.4949H33.1452C35.5383 98.4949 37.4549 99.2152 39.0043 100.698L39.3246 101.003L39.6422 100.695C41.1812 99.2152 43.0978 98.4949 45.4987 98.4949H49.3005C53.2039 98.4949 55.6283 96.2228 55.6283 92.5631V61H23V92.5631ZM23.6875 61.6991H54.9382V92.5604C54.9382 95.8361 52.8316 97.7905 49.3005 97.7905H45.5013C42.9936 97.7905 40.9703 98.5266 39.3246 100.039C37.6684 98.5266 35.6477 97.7905 33.1478 97.7905H29.3486C25.8045 97.7905 23.6875 95.8361 23.6875 92.5604V61.6991V61.6991Z" fill="#231F20"/>
<path d="M28.2966 81.2347C28.4476 81.3565 28.6169 81.4572 28.7835 81.5551C28.9398 81.6478 28.9502 81.6584 28.8721 81.82C28.8538 81.857 28.8304 81.8915 28.8122 81.9285C28.3148 82.8766 28.1976 83.859 28.5596 84.8838C28.6247 85.0692 28.708 85.2493 28.8044 85.4823C28.8903 85.0507 28.9606 84.6799 29.0413 84.3145C29.1481 83.8166 29.3694 83.3903 29.8017 83.0964C29.9423 83.001 30.0673 82.8819 30.2027 82.7759C30.2314 82.7521 30.273 82.7415 30.3173 82.7203C30.4527 82.911 30.5595 83.1069 30.5725 83.3294C30.6011 83.7955 30.5438 84.2456 30.3147 84.6667C30.1532 84.9606 30.0022 85.2625 29.872 85.5724C29.6012 86.2159 29.6793 86.8276 30.0881 87.389C30.2288 87.5849 30.398 87.7597 30.5673 87.961C30.5074 88.0378 30.4319 88.1225 30.3668 88.2152C30.247 88.3794 30.2418 88.525 30.359 88.6919C30.4084 88.766 30.4813 88.8216 30.536 88.8958C30.6246 89.0123 30.7365 89.1261 30.7808 89.2612C30.898 89.6187 30.9995 89.9815 30.8954 90.3708C30.8537 90.5217 30.8641 90.6859 31.0282 90.7839C31.3277 90.9587 31.6532 91.0037 31.9891 90.9587C32.1401 90.9375 32.1583 90.9004 32.1375 90.7362C32.1115 90.527 32.0438 90.3363 31.9162 90.1695C31.7573 89.963 31.5959 89.7564 31.4422 89.5419C31.1948 89.195 31.1688 88.7024 31.3797 88.3714C31.8406 88.6045 32.3302 88.7528 32.8458 88.8243C32.8458 88.8931 32.851 88.9328 32.8458 88.9726C32.8093 89.293 32.7963 89.6108 32.8302 89.9338C32.877 90.3946 33.239 90.8766 33.6556 91.0063C34.1296 91.152 34.5879 91.0752 35.0201 90.8607C35.4628 90.6409 35.7467 90.1986 35.6581 89.5684C35.6321 89.3857 35.5774 89.2056 35.5305 89.0043C35.6321 88.8613 35.8066 88.8931 35.9602 88.8825C36.119 88.8719 36.2414 88.9408 36.3039 89.0997C36.3768 89.2824 36.4419 89.4678 36.5227 89.6478C36.5669 89.7432 36.5487 89.812 36.5018 89.8994C36.3664 90.151 36.2466 90.4131 36.1138 90.6674C36.0357 90.8183 36.08 90.9401 36.1893 91.0434C36.2649 91.1149 36.3586 91.1705 36.4367 91.242C36.5721 91.3665 36.5565 91.4856 36.382 91.5254C36.2284 91.5571 36.0591 91.5624 35.9055 91.528C35.6217 91.4671 35.4342 91.5598 35.3118 91.8193C35.2727 91.9014 35.2311 91.9729 35.1243 91.9914C34.8717 92.0338 34.7441 92.2218 34.6556 92.4469C34.64 92.484 34.653 92.5316 34.653 92.5978C34.7597 92.5502 34.8353 92.5105 34.916 92.4787C35.4316 92.2642 35.968 92.2986 36.4914 92.4125C37.0409 92.5316 37.5486 92.7673 38.0252 93.0772C38.0486 93.093 38.0825 93.093 38.1215 93.101C38.1762 92.8388 38.1345 92.6349 37.8898 92.5105C37.8247 92.4787 37.7648 92.4337 37.6971 92.4125C37.3664 92.3066 37.033 92.2033 36.6997 92.1026C36.6086 92.0762 36.507 92.0682 36.4862 91.912C36.6867 91.8564 36.8898 91.8537 37.0825 91.8961C37.5877 92.0073 38.0877 92.1371 38.5902 92.2668C38.7439 92.3066 38.8923 92.3675 39.0564 92.4231C39.0746 92.3648 39.1032 92.3198 39.098 92.2774C39.0694 92.0497 39.0329 91.8246 38.9079 91.6207C38.8142 91.4671 38.7361 91.3029 38.6397 91.1493C38.5225 90.9613 38.5095 90.768 38.5981 90.5429C39.0225 90.5191 39.4157 90.6859 39.8167 90.7945C40.2256 90.9057 40.6266 91.0513 41.0641 91.1943C41.0797 91.0037 41.0927 90.8368 41.1057 90.67C41.1734 90.6435 41.2333 90.6197 41.2932 90.5959C41.5198 90.5138 41.5172 90.5138 41.6812 90.7018C42.1343 91.2235 42.702 91.5571 43.3556 91.7425C43.4884 91.7796 43.6316 91.8034 43.8087 91.7478C43.7045 91.6631 43.6264 91.6101 43.5613 91.5439C43.491 91.475 43.3973 91.4115 43.4077 91.2923C43.4363 91.2817 43.4519 91.2658 43.465 91.2685C43.7123 91.3426 43.9571 91.4221 44.2045 91.4962C44.3972 91.5545 44.4597 91.5254 44.5404 91.3373C44.6211 91.144 44.655 90.9428 44.6368 90.7336C44.6316 90.6727 44.6368 90.6117 44.6368 90.5376C44.8216 90.5535 44.9362 90.6541 45.056 90.7256C45.3893 90.9242 45.3893 90.9269 45.6784 90.6488C45.707 90.6197 45.7357 90.5906 45.7643 90.5614C46.2955 89.9603 46.634 89.2612 46.7903 88.4668C46.8137 88.3502 46.858 88.239 46.8892 88.1384C47.0689 88.1146 47.2356 88.2231 47.3658 88.0907C47.3501 87.9371 47.1366 87.9186 47.1861 87.7412C47.4231 87.7094 47.673 87.7597 47.91 87.6167C47.8657 87.5823 47.8371 87.5558 47.8058 87.5373C47.4829 87.3493 47.2147 87.103 47.0325 86.772C46.8319 86.4065 46.6392 86.0331 46.4413 85.6677C46.2877 85.3817 46.1835 85.3579 45.9336 85.53C45.9231 85.5379 45.9023 85.53 45.845 85.53C45.7357 85.3393 45.6081 85.1301 45.4935 84.9156C45.4154 84.7726 45.3685 84.6217 45.3659 84.4469C45.3633 84.3251 45.306 84.1927 45.2383 84.0868C45.155 83.9596 45.082 83.9623 44.9492 84.0417C44.9024 84.0709 44.8555 84.0973 44.7878 84.1371C44.7644 83.957 44.7435 83.7981 44.7201 83.618C44.6081 83.618 44.5144 83.6127 44.4206 83.6207C44.3087 83.6313 44.2331 83.5863 44.1759 83.4936C44.0821 83.34 43.9858 83.1864 43.8998 83.0275C43.8269 82.8977 43.866 82.8315 44.0118 82.8104C44.043 82.8051 44.0769 82.8077 44.1081 82.8077C44.9623 82.7945 45.7773 82.6117 46.5325 82.1933C46.8554 82.0159 47.1965 81.8941 47.548 81.7988C47.6939 81.759 47.8371 81.7485 47.9543 81.8756C48.1964 82.1404 48.4438 82.4025 48.6834 82.67C48.8032 82.8024 48.8657 82.9587 48.8292 83.1467C48.8006 83.2976 48.8657 83.4088 48.9646 83.5227C49.0766 83.6498 49.1651 83.8008 49.2589 83.9438C49.3761 84.1212 49.3813 84.3145 49.3162 84.5105C49.2745 84.6349 49.2407 84.7647 49.186 84.8812C49.1026 85.0639 49.1521 85.2122 49.2953 85.3181C49.4959 85.4691 49.7068 85.6094 49.9255 85.7312C50.0896 85.8213 50.1833 85.7551 50.2067 85.5671C50.2432 85.2413 50.2198 84.9236 50.0505 84.6349C49.8344 84.2668 49.7172 83.867 49.7172 83.438C49.7172 83.0222 49.5375 82.7018 49.2667 82.4052C49.0584 82.1775 48.8813 81.9179 48.7094 81.6611C48.5975 81.4916 48.5219 81.2956 48.4256 81.1182C48.2694 80.8296 48.0715 80.6071 47.7043 80.6415C47.535 80.6574 47.3658 80.6574 47.1939 80.6574C47.1496 80.6574 47.1028 80.6309 47.0585 80.6177C47.0559 80.5992 47.0507 80.5833 47.0481 80.5674C47.3684 80.4747 47.5559 80.2231 47.7616 79.9927C48.0064 79.72 48.2563 79.4499 48.5089 79.1824C48.6391 79.0447 48.6756 79.05 48.811 79.1745C48.8527 79.2142 48.8891 79.2566 48.9282 79.2989C49.1209 79.5108 49.311 79.7253 49.5115 79.9292C49.6339 80.0537 49.7068 80.1808 49.6885 80.3661C49.6703 80.5515 49.7536 80.6786 49.9359 80.7422C49.9984 80.7634 50.0661 80.8137 50.1026 80.8719C50.3005 81.1871 50.2823 81.3592 50.0297 81.6452C50.0088 81.669 49.988 81.6955 49.9646 81.7167C49.8161 81.865 49.8161 82.0371 49.8969 82.2145C50.0114 82.4661 50.1937 82.6409 50.4541 82.7309C50.6651 82.8024 50.7692 82.7627 50.7979 82.5402C50.8213 82.3549 50.8135 82.1616 50.777 81.9788C50.6885 81.5498 50.5869 81.1261 50.639 80.6866C50.6703 80.4244 50.5635 80.2284 50.3916 80.0484C50.1286 79.7703 49.8708 79.4843 49.6208 79.1904C49.3709 78.8991 49.1365 78.5919 49.048 78.2C49.0349 78.1364 49.0063 78.0755 48.975 78.0172C48.8579 77.8107 48.6834 77.7498 48.4881 77.8795C48.3423 77.9775 48.2121 78.1073 48.0975 78.2423C47.9048 78.4754 47.6782 78.6528 47.41 78.7799C47.2486 78.8567 47.1548 78.8249 47.0793 78.6554C47.0403 78.5654 47.0142 78.4701 46.996 78.3721C46.9127 77.9034 46.7408 77.4717 46.4648 77.0877C46.345 76.9236 46.207 76.77 46.0872 76.6058C45.8789 76.3145 45.6185 76.0629 45.4987 75.7081C45.2617 75.0169 45.0065 74.3337 44.7618 73.6452C44.7149 73.5101 44.6758 73.3698 44.6211 73.1976C44.7904 73.2135 44.9258 73.2188 45.0586 73.24C45.3555 73.2877 45.6523 73.338 45.8971 73.5366C46.0169 73.6346 46.1263 73.7485 46.2539 73.8332C46.3528 73.8994 46.4674 73.9471 46.582 73.9762C46.6392 73.9894 46.7252 73.9497 46.7668 73.9047C46.7877 73.8835 46.7382 73.7935 46.72 73.7352C46.7122 73.7087 46.7017 73.6823 46.6913 73.6584C46.7799 73.6743 46.8398 73.7114 46.897 73.7511C47.0429 73.8544 47.147 73.857 47.2564 73.722C47.3111 73.6531 47.3397 73.5472 47.3449 73.4545C47.3527 73.3009 47.3371 73.1447 47.3267 72.9884C47.3163 72.8296 47.2564 72.713 47.1054 72.6362C47.009 72.5886 46.9179 72.5065 46.8528 72.4164C46.5455 71.9822 46.246 71.5426 45.9492 71.1003C45.8945 71.0209 45.8502 70.9282 45.8268 70.8355C45.7773 70.6501 45.7252 70.4727 45.5794 70.3377C45.5612 70.3218 45.5664 70.2821 45.5612 70.2423C45.6497 70.2291 45.7252 70.2185 45.8268 70.2026C45.7409 70.0199 45.6836 69.8425 45.5846 69.6995C45.5091 69.5909 45.3919 69.4876 45.2721 69.4479C45.1237 69.4002 44.944 69.387 44.793 69.4214C44.4883 69.4929 44.2618 69.3976 44.0509 69.1857C43.9311 69.0666 43.7826 68.9765 43.642 68.8812C43.6108 68.86 43.5587 68.8706 43.4988 68.8627C43.5092 68.9633 43.5196 69.0401 43.5327 69.1539C43.2462 69.1169 42.978 69.0824 42.702 69.048C42.6864 69.2678 42.9051 69.334 42.952 69.5273C42.8738 69.5432 42.8061 69.5644 42.741 69.5671C42.3947 69.5803 42.0458 69.5697 41.7046 69.6703C41.6552 69.6836 41.5797 69.6465 41.5328 69.6121C41.3635 69.485 41.1864 69.4611 40.9833 69.5088C40.6787 69.5829 40.4052 69.7154 40.1422 69.8822C40.0928 69.914 40.0355 69.9325 39.9365 69.9775C39.9365 69.8027 39.9053 69.665 39.9417 69.5512C40.1188 69.0136 40.0876 68.4813 39.9287 67.9491C39.861 67.724 39.7647 67.5068 39.6761 67.2685C39.6917 67.2499 39.71 67.2102 39.7386 67.1837C39.9547 67.0037 40.0407 66.7521 40.0563 66.4846C40.0641 66.3496 40.0094 66.1933 39.9417 66.0715C39.8818 65.963 39.749 66.0424 39.6475 66.0292C39.5381 66.0159 39.4209 65.9974 39.3298 65.9418C39.0459 65.7617 38.7621 65.7696 38.4757 65.9179C38.1137 66.106 37.7387 66.2542 37.3351 66.3205C37.0356 66.3681 36.7414 66.384 36.4497 66.2728C36.3716 66.2437 36.2909 66.2278 36.1841 66.1986C36.2805 66.5853 36.5331 66.7998 36.8013 66.9931C36.7128 67.1546 36.5539 66.9957 36.4706 67.0937C36.4732 67.1175 36.4654 67.1387 36.4758 67.1467C36.731 67.3665 37.0174 67.4989 37.3612 67.475C37.4393 67.4697 37.5226 67.4724 37.5955 67.4962C37.796 67.5624 37.9887 67.581 38.1814 67.4803C38.2439 67.4486 38.3116 67.4168 38.3715 67.4671C38.3637 67.4883 38.3663 67.4989 38.3637 67.5042C38.3533 67.5253 38.3429 67.5518 38.3272 67.5651C37.9835 67.8405 37.8793 68.2139 37.8767 68.6376C37.8767 68.8574 37.8533 69.0772 37.7491 69.2837C37.7101 69.3605 37.7049 69.4558 37.6788 69.5432C37.6606 69.6041 37.6398 69.6597 37.6163 69.7259C37.4419 69.6783 37.2882 69.6253 37.1294 69.5988C37.0226 69.5803 36.8976 69.575 36.7987 69.6121C36.6607 69.665 36.5591 69.6465 36.4393 69.5644C36.1841 69.3896 35.9081 69.3711 35.6373 69.5326C35.4628 69.6386 35.2988 69.7577 35.1321 69.8742C35.0045 69.9616 34.8847 70.0623 34.7519 70.1391C34.666 70.1894 34.5592 70.2026 34.5045 70.0834C34.3952 69.8372 34.2936 69.5882 34.1843 69.342C34.0905 69.1354 34.0202 68.9024 33.7207 68.9183C33.601 68.9262 33.5541 68.8388 33.5541 68.7223C33.5541 68.6587 33.5697 68.5661 33.5359 68.5369C33.3874 68.4125 33.338 68.2456 33.2989 68.0656C33.2807 67.9782 33.226 67.9173 33.1374 67.957C33.1322 68.0629 33.127 68.1556 33.127 68.1953C33.1817 68.3463 33.2208 68.4522 33.2729 68.5872C33.2624 68.5846 33.2937 68.5925 33.3223 68.6031C33.4291 68.6429 33.4421 68.725 33.3744 68.7938C33.2859 68.8865 33.1817 68.9712 33.0671 69.0295C33.0203 69.0533 32.9109 69.0321 32.8744 68.9898C32.739 68.8415 32.5333 68.7064 32.6713 68.4495C32.6192 68.2006 32.7364 68.0656 32.9578 67.9967C32.9682 67.9941 32.9734 67.9702 32.9786 67.9596C32.9031 67.8617 32.8276 67.769 32.7573 67.671C32.4604 67.2579 32.1714 66.8421 31.8719 66.4317C31.812 66.3496 31.7261 66.2754 31.6401 66.2225C31.5308 66.1563 31.4032 66.1827 31.3277 66.2648C31.2391 66.3575 31.2599 66.4608 31.3094 66.5614C31.3485 66.6329 31.3928 66.7018 31.4396 66.7706C31.7729 67.2579 32.1063 67.7451 32.4422 68.2298C32.4942 68.3065 32.5541 68.3833 32.4969 68.476C32.4187 68.6058 32.4708 68.7144 32.5437 68.815C32.6192 68.9209 32.713 69.0136 32.7859 69.1222C32.8562 69.2307 32.9421 69.342 32.9604 69.4638C32.9994 69.7259 33.1244 69.9431 33.2494 70.1629C33.3197 70.2847 33.39 70.4039 33.4551 70.5283C33.5723 70.7508 33.5411 70.9388 33.3614 71.1056C33.2546 71.2063 33.1322 71.2936 33.0437 71.4075C32.9135 71.5743 32.7937 71.7518 32.6974 71.9398C32.6349 72.0589 32.6062 72.2072 32.7364 72.3423C32.8875 72.3026 33.0463 72.2761 33.1973 72.2231C33.4421 72.1357 33.6504 72.3185 33.601 72.5992C33.5697 72.7686 33.4864 72.9063 33.3119 72.9673C33.2286 72.9964 33.14 73.0149 33.0567 73.0441C32.7625 73.1553 32.4604 73.2533 32.174 73.3857C31.7209 73.5922 31.6974 74.1245 31.924 74.4264C32.1167 74.6859 32.0854 74.8262 31.8302 75.0328C31.7157 75.1255 31.5933 75.2049 31.4761 75.2923C31.3355 75.3956 31.2443 75.5254 31.2704 75.7107C31.286 75.8246 31.2339 75.8961 31.1558 75.9649C31.0048 76.1079 30.9006 76.2827 30.8355 76.4813C30.8121 76.582 30.8121 76.6746 30.8928 76.7541C30.9709 76.8309 31.0438 76.7726 31.1167 76.7435C31.2912 76.6746 31.4579 76.582 31.6375 76.5449C32.0724 76.4575 32.5125 76.3807 32.9604 76.4019C33.3301 76.4204 33.6895 76.476 33.9942 76.7011C34.2285 76.8759 34.4394 77.0798 34.6634 77.2678C34.7571 77.3446 34.8457 77.4373 34.9524 77.4876C35.0722 77.5432 35.2337 77.5247 35.3326 77.5988C35.4342 77.6756 35.4837 77.8239 35.5592 77.9404C35.5644 77.9484 35.5696 77.9537 35.5774 77.959C35.6816 78.049 35.6685 78.1655 35.6373 78.2794C35.606 78.3933 35.5071 78.3774 35.4186 78.388C34.9446 78.4462 34.4733 78.5124 34.0202 78.674C33.9317 78.7058 33.8692 78.6952 33.7963 78.6369C33.6765 78.5389 33.5541 78.4436 33.4265 78.3536C32.9239 78.0093 32.3927 77.7418 31.7755 77.6968C31.325 77.665 30.9318 77.8107 30.5959 78.1179C30.1923 78.4886 29.9137 78.9494 29.6793 79.4419C29.5647 79.6803 29.484 79.9265 29.4345 80.1887C29.3851 80.4535 29.3121 80.7157 29.2366 80.9779C29.1976 81.1208 29.1351 81.1553 29.0283 81.0838C28.7575 80.9063 28.4684 80.7501 28.2836 80.4615C28.0492 80.096 28.044 79.9054 28.4086 79.532C28.458 79.479 28.5414 79.4605 28.6169 79.4234C28.6768 79.5796 28.6117 79.7306 28.7367 79.8418C28.8382 79.9292 28.9085 80.0537 28.9919 80.1622C29.2731 79.8921 29.2132 79.3784 28.8981 79.2248C28.8356 79.193 28.7575 79.1718 28.6872 79.1771C28.2862 79.2168 28.0049 79.3572 27.8825 79.8074C27.7419 80.3529 27.8331 80.8613 28.2966 81.2347ZM32.4656 68.0126C32.1531 67.5545 31.8354 67.0964 31.5256 66.6382C31.4709 66.5561 31.3563 66.4396 31.4657 66.3628C31.5959 66.2701 31.6219 66.4476 31.6766 66.5217C31.9839 66.9454 32.2859 67.3718 32.5854 67.7981C32.6375 67.8723 32.6739 67.9596 32.7234 68.0523C32.5802 68.1212 32.5203 68.092 32.4656 68.0126ZM30.9188 87.3519C30.7391 87.0818 30.5543 86.8593 30.4501 86.5839C30.4683 86.5681 30.4866 86.5522 30.5022 86.5389C30.5569 86.5892 30.6168 86.6343 30.6662 86.6899C30.7548 86.7852 30.8381 86.8858 30.9292 86.9785C31.062 87.1136 31.0646 87.1136 30.9188 87.3519ZM31.5047 90.2198C31.4266 90.2463 31.3615 90.2675 31.3016 90.286C31.2443 90.4131 31.3433 90.4767 31.3771 90.5641C31.3954 90.6117 31.3875 90.67 31.3901 90.723C31.3329 90.715 31.2652 90.723 31.2209 90.6938C31.023 90.5667 30.9839 90.4529 31.0699 90.2357C31.1219 90.1007 31.1402 89.9815 31.0907 89.8332C31.0126 89.5975 31.0282 89.4413 31.0933 89.2903C31.2183 89.3777 31.4657 89.9206 31.5047 90.2198ZM31.1584 86.7508C30.9371 86.6581 30.7938 86.5204 30.7209 86.3244C30.6975 86.2635 30.7417 86.1682 30.773 86.0967C30.8876 85.8345 31.0256 85.5803 31.1245 85.3128C31.3771 84.6376 31.4422 83.9305 31.3563 83.2235C31.3068 82.8209 31.0985 82.4635 30.8251 82.1589C30.7522 82.0768 30.7157 82.0053 30.7496 81.8968C30.8902 81.4174 31.023 80.9328 31.1688 80.4535C31.3563 79.8392 31.7651 79.4578 32.3745 79.2804C32.6427 79.201 32.9109 79.1506 33.1869 79.1904C33.2312 79.1957 33.2755 79.2195 33.3458 79.2407C33.3093 79.3095 33.2885 79.3704 33.252 79.4181C32.8796 79.9371 32.7078 80.533 32.6192 81.1579C32.5411 81.6955 32.5281 82.241 32.5437 82.7839C32.5489 82.9984 32.5541 83.2129 32.5828 83.4221C32.6218 83.6975 32.5854 83.9623 32.5541 84.2324C32.5177 84.5475 32.364 84.7885 32.1219 84.9765C31.9813 85.0877 31.8354 85.191 31.6844 85.289C31.5256 85.3923 31.4266 85.53 31.3875 85.7207C31.3172 86.049 31.2417 86.3774 31.1584 86.7508ZM32.7312 88.4059C32.3458 88.3105 31.9813 88.1543 31.6427 87.9477C31.5099 87.8656 31.5125 87.8233 31.6349 87.6008C32.1141 87.765 32.5958 87.9318 33.0802 88.0987C33.0645 88.3238 32.9265 88.4562 32.7312 88.4059ZM39.3662 82.474C39.585 82.7494 39.8063 83.0222 40.0198 83.3003C40.1084 83.4168 40.1969 83.5359 40.2672 83.6657C40.2985 83.7213 40.3167 83.8246 40.2855 83.867C40.2464 83.9199 40.1448 83.9676 40.0823 83.9543C39.7282 83.8802 39.3923 83.7584 39.2074 83.4062C39.1319 83.2658 39.0538 83.1811 38.8845 83.2288C38.8454 83.2394 38.7881 83.2182 38.7543 83.189C38.6449 83.1017 38.546 83.0063 38.4418 82.9136C38.3715 82.8501 38.3533 82.7839 38.4054 82.6965C38.4757 82.5773 38.5564 82.4608 38.6085 82.3363C38.7309 82.045 38.8689 81.7538 38.9496 81.4466C39.0876 80.9275 39.1866 80.3953 39.309 79.8365C39.5459 79.7703 39.8141 79.6962 40.1266 79.6114C40.1162 79.7279 40.1214 79.818 40.0954 79.8974C39.9157 80.4509 39.7282 81.0017 39.5433 81.5525C39.473 81.7617 39.4027 81.9709 39.322 82.1775C39.2829 82.2887 39.2959 82.384 39.3662 82.474ZM40.1761 81.759C40.3297 81.2453 40.4834 80.7369 40.65 80.1861C40.7177 80.2417 40.7672 80.2708 40.8037 80.3105C40.9729 80.4985 41.1396 80.6866 41.3062 80.8772C41.4573 81.052 41.4078 81.4333 41.2255 81.5604C41.0745 81.6637 40.4026 81.7961 40.1761 81.759ZM38.2335 82.0212C37.8221 82.0927 37.4106 82.1854 37.0018 82.2807C36.5435 82.3867 36.4706 82.339 36.4055 81.865C36.3846 81.7114 36.369 81.5551 36.3508 81.3989C36.343 81.3963 36.3352 81.3963 36.3248 81.3936C36.4055 80.8428 36.4862 80.292 36.5721 79.7412C36.5982 79.5717 36.6372 79.4022 36.6841 79.238C36.7284 79.0765 36.7648 79.0553 36.9315 79.0765C37.5148 79.1533 38.1007 79.2327 38.684 79.3148C38.7387 79.3228 38.7908 79.3493 38.8454 79.3678C38.9418 79.4022 38.9782 79.4658 38.9678 79.5743C38.8923 80.2946 38.7439 80.999 38.5746 81.6981C38.5277 81.8915 38.4314 81.9868 38.2335 82.0212ZM39.348 79.005C38.7543 78.8223 38.1397 78.6952 37.5851 78.3986C37.4861 78.3456 37.3507 78.3032 37.3585 78.1708C37.3638 78.0305 37.52 78.004 37.6163 77.9934C37.8715 77.9643 38.1319 77.9643 38.3897 77.9643C38.4418 77.9643 38.4965 77.9987 38.5434 78.0305C38.9001 78.2768 39.1761 78.6051 39.4574 78.9732C39.3949 78.9918 39.3688 79.0103 39.348 79.005ZM37.8273 77.1513C37.533 77.3049 37.2388 77.4638 36.9393 77.6041C36.7857 77.6756 36.6216 77.7286 36.4576 77.7657C36.2336 77.816 36.0435 77.7233 35.8925 77.5565C35.7987 77.4532 35.7961 77.3632 35.9003 77.2811C36.1425 77.0904 36.4211 76.9447 36.7258 77.0427C37.02 77.1354 37.2648 77.0798 37.507 76.9236C37.5486 76.8971 37.5877 76.868 37.6268 76.8415C37.8715 76.6693 37.9054 76.6799 38.0616 77.0057C37.9783 77.0613 37.9054 77.1116 37.8273 77.1513ZM36.4445 84.86C36.6372 84.6084 36.7726 84.582 37.0383 84.7594C37.0721 84.7806 37.1034 84.807 37.132 84.8362C37.1424 84.8468 37.145 84.8653 37.1606 84.9024C36.8482 85.3102 36.343 85.4691 35.981 85.8266C35.8717 85.6306 35.8821 85.5485 35.9993 85.4055C36.1503 85.2281 36.3013 85.048 36.4445 84.86ZM35.7675 85.3579C35.6607 85.5009 35.5201 85.6174 35.4055 85.7551C35.1061 86.1152 35.1556 86.4542 35.5488 86.7058C35.7206 86.8143 35.8638 86.9335 35.9368 87.1295C35.955 87.1798 35.955 87.238 35.9654 87.2963C35.6737 87.2857 35.4186 87.2751 35.1634 87.2645C34.6061 87.2433 34.0931 87.3916 33.6192 87.6909C33.5619 87.7279 33.4812 87.7518 33.4187 87.7438C33.0098 87.6856 32.6114 87.5876 32.2391 87.3969C32.1036 87.3281 31.963 87.2645 31.8328 87.201C31.8615 86.9547 32.0672 86.5469 32.2469 86.3906C32.5593 86.1205 32.9083 85.9325 33.3301 85.8742C33.5749 85.8425 33.8119 85.7445 34.0488 85.6624C34.6478 85.4558 35.2233 85.1937 35.7727 84.8759C35.8013 84.86 35.8326 84.8521 35.8638 84.8441C35.8795 84.8415 35.8951 84.8494 35.9315 84.8547C35.9993 85.0639 35.8743 85.2149 35.7675 85.3579ZM34.7363 89.9921C34.5436 90.0954 34.1869 89.9815 34.1061 89.7829C34.0853 89.7326 34.0957 89.6452 34.1296 89.6002C34.1999 89.5022 34.2806 89.4068 34.377 89.3353C34.554 89.2056 34.7441 89.1023 34.9733 89.0626C35.1972 89.4095 35.0462 89.8279 34.7363 89.9921ZM38.6163 91.7107C38.4106 91.8511 37.8637 91.7796 37.4835 91.573C37.1086 91.3691 36.7805 90.9269 36.7752 90.5959C37.0695 90.6144 37.3533 90.678 37.5929 90.8501C37.8559 91.0381 38.1007 91.2552 38.3507 91.4644C38.4418 91.5386 38.5251 91.626 38.6163 91.7107ZM40.4573 90.106C40.4052 90.0954 40.3506 90.0927 40.2985 90.0742C40.0198 89.9841 39.736 89.9259 39.4392 89.9391C39.059 89.955 38.6788 89.9868 38.2986 89.9683C37.9965 89.9524 37.6867 89.9735 37.3872 89.8597C37.1086 89.7538 36.8924 89.579 36.731 89.3353C36.5591 89.0811 36.5904 88.8031 36.6789 88.5303C36.7518 88.3026 36.7336 88.2284 36.507 88.1755C36.2779 88.1252 36.0461 88.0801 35.8144 88.0722C35.3951 88.0563 34.9733 88.0351 34.5618 88.1675C34.1843 88.2893 33.8379 88.4641 33.6088 88.8084C33.2572 89.3433 33.239 89.9153 33.4551 90.5058C33.4734 90.5535 33.4838 90.6065 33.4968 90.6541C33.4812 90.6647 33.4655 90.678 33.4499 90.6885C33.39 90.6329 33.3197 90.5826 33.2702 90.5164C32.9473 90.0954 32.9057 89.6081 33.0072 89.1103C33.0567 88.8746 33.1661 88.6442 33.2807 88.4323C33.5098 88.006 33.9291 87.8259 34.3457 87.6644C34.8144 87.4817 35.2988 87.4208 35.7961 87.5293C36.0331 87.5796 36.2675 87.6379 36.507 87.675C36.9028 87.7332 37.2961 87.7173 37.6867 87.6141C37.7257 87.6035 37.7648 87.5902 37.8038 87.577C38.0668 87.479 38.2517 87.5637 38.434 87.7835C38.6345 88.0272 38.8923 88.2205 39.1267 88.4376C39.1709 88.48 39.2126 88.5224 39.2543 88.5647C39.2439 88.5806 39.2334 88.5992 39.223 88.6177C39.1371 88.6098 39.0538 88.6018 38.9392 88.5886C38.9652 88.6521 38.9756 88.6972 38.9965 88.7342C39.2543 89.1367 39.6345 89.3804 40.0459 89.5869C40.1188 89.624 40.1917 89.6584 40.2646 89.6928C40.499 89.8014 40.5042 89.8147 40.4573 90.106ZM43.0119 89.481C42.8192 89.8941 42.5067 90.2013 42.1525 90.4714C42.1343 90.4846 42.1083 90.4846 42.038 90.5005C42.1916 90.151 42.3296 89.8385 42.4676 89.5287C42.4572 89.5181 42.4494 89.5101 42.439 89.4995C42.3062 89.579 42.176 89.6637 42.038 89.7352C41.8973 89.8041 41.7515 89.857 41.5823 89.8915C41.801 89.5604 41.9312 89.2109 41.9989 88.8375C41.7906 88.9275 41.6031 89.0493 41.3974 89.0864C41.0823 89.1447 40.7594 89.142 40.4391 89.1659C40.4313 89.1473 40.4209 89.1261 40.4131 89.1076C40.4547 89.0705 40.4912 89.0229 40.5406 88.999C40.7672 88.8905 40.9964 88.7898 41.2255 88.6839C41.2672 88.6654 41.3036 88.6389 41.3974 88.5859C41.1786 88.5594 41.0172 88.5409 40.8557 88.5224C40.6969 88.5038 40.538 88.4879 40.374 88.4244C40.5823 88.3291 40.7984 88.2496 40.9937 88.1357C41.1864 88.0219 41.3583 87.8683 41.577 87.7067C41.4885 87.6882 41.4468 87.667 41.4078 87.6697C40.762 87.72 40.1318 87.6485 39.5121 87.4552C39.4235 87.4287 39.3428 87.3784 39.2621 87.3095C39.8844 87.3042 40.4834 87.2248 41.0588 86.9785C40.7386 86.9838 40.4287 86.9706 40.1188 86.8805C39.8193 86.7931 39.5251 86.6952 39.2386 86.576C39.2386 86.5575 39.2412 86.5363 39.2412 86.5177C39.2959 86.5098 39.3532 86.4886 39.4079 86.4939C39.9547 86.5416 40.4886 86.4568 41.0146 86.3271C41.2724 86.2635 41.5328 86.2026 41.7854 86.1152C42.3036 85.9351 42.5275 86.4145 42.4806 86.7614C42.4338 87.095 42.3999 87.4287 42.3556 87.7624C42.327 87.9769 42.4103 88.1331 42.5874 88.239C42.8009 88.3661 42.9259 88.5674 43.0197 88.7898C43.1212 89.0176 43.116 89.2533 43.0119 89.481ZM42.8764 86.5972C42.9363 86.3694 42.9832 86.1391 43.0379 85.9034C43.228 85.8954 43.3738 86.0146 43.379 86.2211C43.3816 86.3324 43.366 86.4542 43.3269 86.5575C43.2332 86.817 43.1212 87.0738 43.0119 87.3281C42.991 87.3784 42.9389 87.4155 42.8712 87.4923C42.8035 87.1586 42.8009 86.8779 42.8764 86.5972ZM45.8164 89.0229C45.5742 89.5207 45.1758 89.8385 44.681 90.0424C44.5612 90.0927 44.4389 90.1324 44.3113 90.1775C44.2175 90.4767 44.1212 90.7786 44.0196 91.0964C43.7618 91.0222 43.5509 90.9083 43.3816 90.7309C43.2436 90.5879 43.2436 90.3814 43.4025 90.2198C43.5821 90.0345 43.7774 89.8491 43.9988 89.722C44.4623 89.4572 44.9492 89.2347 45.4258 88.9937C45.5612 88.9249 45.6966 88.8587 45.832 88.7898C45.8997 88.8825 45.8528 88.9487 45.8164 89.0229ZM45.2149 84.7912C45.4492 85.1354 45.5039 85.5591 45.7461 85.9113C45.8372 85.8504 45.9153 85.808 45.983 85.7551C46.069 85.6862 46.1471 85.6915 46.2226 85.763C46.2903 85.8266 46.2721 85.8928 46.2252 85.9616C46.0742 86.1814 46.1679 86.3774 46.4544 86.3933C46.5741 86.3986 46.6497 86.4568 46.6913 86.5707C46.7825 86.8143 46.8736 87.0606 46.97 87.3148C46.9205 87.3387 46.8632 87.3625 46.7929 87.3969C46.8033 87.5108 46.8163 87.622 46.8267 87.7359C46.7408 87.8206 46.6757 87.7571 46.6184 87.7015C46.4075 87.4975 46.194 87.2963 45.9935 87.0818C45.8711 86.952 45.7721 86.7984 45.6523 86.6396C45.6914 86.5866 45.7174 86.5548 45.7383 86.523C45.8763 86.3218 45.8398 86.192 45.6159 86.0861C45.4883 86.0278 45.3893 85.9484 45.3529 85.7922C45.3086 85.6015 45.2201 85.4214 45.168 85.2334C45.1263 85.093 45.0742 84.9447 45.2149 84.7912ZM44.6498 85.2493C44.8086 85.3261 44.8581 85.4558 44.8763 85.6571C44.7982 85.6174 44.7513 85.5988 44.7097 85.5697C44.5847 85.477 44.4649 85.4691 44.3347 85.5512C44.2514 85.6041 44.2305 85.6703 44.2852 85.7577C44.3712 85.8954 44.4467 86.0411 44.5456 86.1708C44.7878 86.4833 45.0222 86.7984 45.1003 87.1983C45.1315 87.3493 45.1445 87.5081 45.1498 87.6617C45.155 87.8842 45.2487 88.0378 45.4492 88.1278C45.4779 88.141 45.5013 88.1649 45.5534 88.2046C45.4648 88.3238 45.3867 88.4429 45.2956 88.5542C45.181 88.6919 45.0612 88.8269 44.9336 88.954C44.6888 89.1976 44.3946 89.2056 44.1003 89.0811C43.8243 88.9646 43.5847 88.6971 43.616 88.3555C43.6368 88.1437 43.655 87.9318 43.6759 87.7173C43.7228 87.2115 43.7748 86.7031 43.8191 86.1973C43.8269 86.1179 43.8165 86.0331 43.8061 85.951C43.7592 85.5803 43.5769 85.3923 43.2098 85.4082C42.9389 85.4188 42.6681 85.4903 42.3999 85.5485C42.2254 85.5856 42.0614 85.6544 41.8869 85.6862C41.8062 85.7021 41.7046 85.6862 41.6343 85.6439C41.3609 85.4823 41.1005 85.3022 40.8297 85.1381C40.5172 84.95 40.1969 84.7726 39.8792 84.5925C39.861 84.582 39.835 84.5899 39.8193 84.5873C39.874 84.7991 39.9626 85.0057 39.9678 85.2149C39.973 85.4214 39.8896 85.628 39.8402 85.8557C39.8584 85.8742 39.8949 85.9087 39.9209 85.9484C39.9547 85.9987 40.0146 86.0887 40.0016 86.1046C39.9521 86.1602 39.8792 86.2185 39.8115 86.2211C39.6345 86.2344 39.4522 86.2423 39.2777 86.2106C38.8402 86.1364 38.4054 86.0358 37.9705 85.951C37.7674 85.9113 37.5643 85.8769 37.3429 85.8636C37.6945 86.2582 38.0851 86.6131 38.309 87.1003C38.283 87.1242 38.2647 87.1533 38.2491 87.1533C37.8872 87.1506 37.5565 87.2936 37.2153 87.3916C37.0851 87.4287 36.994 87.4102 36.9237 87.2963C36.8247 87.1374 36.7258 86.9759 36.6268 86.817C36.4524 86.5389 36.5539 86.2979 36.7388 86.0781C36.8221 85.9775 36.9133 85.8769 37.0174 85.8054C37.369 85.5644 37.6033 85.2175 37.8559 84.8865C37.9158 84.8097 37.9627 84.7197 38.0304 84.6508C38.0773 84.6031 38.145 84.5608 38.2075 84.5502C38.8298 84.4495 39.4522 84.3516 40.0771 84.2615C40.999 84.1318 41.8583 83.7981 42.7098 83.4433C42.8218 83.3956 42.8843 83.4168 42.9572 83.5095C43.0926 83.6842 43.2306 83.8564 43.3816 84.0179C43.4832 84.1291 43.4806 84.2271 43.4155 84.3516C43.3009 84.5661 43.3035 84.5687 43.517 84.6773C43.8972 84.868 44.2722 85.0639 44.6498 85.2493ZM46.7226 79.6776C46.8033 79.4419 46.9439 79.2698 47.1835 79.1771C47.4387 79.0765 47.6783 78.9414 47.9282 78.8249C48.0923 78.7481 48.0923 78.7508 48.311 78.8276C48.1652 79.0129 48.048 79.1877 47.9048 79.3413C47.7225 79.5373 47.535 79.7306 47.3241 79.8921C47.2252 79.9689 47.0715 80.0033 46.9413 80.006C46.7434 80.0166 46.6575 79.8683 46.7226 79.6776ZM41.7099 72.3105C41.8739 71.389 42.2697 70.5945 43.1238 70.1205C43.215 70.0702 43.3165 70.0358 43.4129 69.9987C43.5691 69.9378 43.7228 69.9246 43.8842 69.9961C43.9727 70.0358 44.0743 70.0437 44.1628 70.0781C44.2436 70.1099 44.3191 70.1179 44.3946 70.0676C44.5144 69.9881 44.6159 70.0225 44.7279 70.1046C44.8972 70.2317 45.082 70.3377 45.2513 70.4621C45.3503 70.5336 45.4414 70.6157 45.5221 70.7084C45.6341 70.8408 45.595 70.9547 45.431 71.0023C45.3529 71.0235 45.2721 71.0315 45.194 71.0553C45.1602 71.0659 45.1341 71.095 45.0742 71.1348C45.1498 71.148 45.1862 71.1586 45.2227 71.1639C45.2617 71.1692 45.3008 71.1718 45.3242 71.1745C45.3841 71.2672 45.4206 71.3731 45.4935 71.4155C45.5664 71.4578 45.6758 71.4366 45.7669 71.4525C45.819 71.4605 45.8737 71.4817 45.9153 71.5134C45.9518 71.5399 45.983 71.5876 46.0039 71.63C46.207 72.1066 46.5715 72.4429 46.9413 72.7792C46.9648 72.8004 46.9882 72.8243 47.0064 72.8507C47.0142 72.8613 47.0142 72.8825 47.0194 72.9011C46.996 72.9964 46.9205 72.9911 46.8476 72.9858C46.6445 72.9699 46.4466 72.9831 46.2513 73.0626C46.1862 73.0891 46.0924 73.0732 46.0169 73.0493C45.6549 72.9355 45.293 72.8137 44.9336 72.6945C44.7878 72.6468 44.6368 72.6151 44.4961 72.5594C44.0092 72.3741 43.8608 71.9716 44.0951 71.4896C44.1342 71.4102 44.1706 71.3281 44.2071 71.246C44.2097 71.2407 44.1993 71.2327 44.1837 71.201C43.9571 71.3757 43.7931 71.5743 43.7644 71.8736C43.7306 72.2496 43.8425 72.5886 44.0118 72.9116C44.1706 73.2162 44.3712 73.5022 44.4961 73.82C44.6862 74.2993 44.8269 74.7945 44.9857 75.287C45.0248 75.4115 45.056 75.5412 45.0873 75.6683C45.2461 76.2748 45.181 76.8785 45.0352 77.4744C44.9597 77.7763 44.8633 78.0729 44.7539 78.3615C44.6602 78.6051 44.6211 78.6104 44.3659 78.5416C44.116 78.4754 43.866 78.4065 43.6134 78.3483C43.4103 78.3006 43.2046 78.2741 42.9962 78.3721C43.1395 78.4913 43.3087 78.531 43.4806 78.5681C43.8191 78.6422 44.1602 78.7137 44.4753 78.8752C44.6003 78.9388 44.681 79.0262 44.7123 79.1665C44.7539 79.3492 44.8034 79.5346 44.8607 79.712C44.8998 79.8365 44.8581 79.908 44.7435 79.9318C44.53 79.9742 44.3165 80.0219 44.1003 80.0404C43.8608 80.0589 43.6186 80.0457 43.3764 80.0457C43.3686 80.0642 43.3634 80.0828 43.3556 80.1013C43.3999 80.1357 43.4415 80.1834 43.491 80.2019C43.9102 80.3529 44.3295 80.4985 44.7487 80.6521C44.7982 80.6707 44.8451 80.7104 44.8789 80.7501C44.9857 80.8772 45.1185 80.9381 45.28 80.9434C45.7643 80.954 46.2486 80.9593 46.7304 80.8666C47.0689 80.8004 47.4178 80.7713 47.7694 80.8216C47.9647 80.8481 48.1027 80.9381 48.2043 81.0997C48.2642 81.195 48.324 81.2956 48.3735 81.3989C48.3865 81.428 48.3787 81.4863 48.3553 81.5075C48.3345 81.5287 48.2772 81.534 48.2485 81.5181C48.16 81.4757 48.0793 81.4227 47.9959 81.3724C47.8215 81.2665 47.6548 81.2691 47.4673 81.3592C47.0663 81.5525 46.6549 81.7273 46.246 81.9047C45.8424 82.0795 45.4258 82.1324 44.9883 82.098C44.4389 82.0556 43.8946 81.9894 43.3686 81.8094C42.9468 81.6664 42.5692 81.4466 42.2931 81.0838C41.9078 80.5753 41.5302 80.0616 41.1526 79.5479C40.926 79.2407 40.8635 78.9017 40.9573 78.5204C41.1005 77.9457 41.1239 77.3499 41.2047 76.7647C41.288 76.1635 41.3844 75.5624 41.4625 74.9613C41.4989 74.6859 41.5067 74.4052 41.5328 74.1271C41.5875 73.5181 41.6057 72.9063 41.7099 72.3105ZM41.6109 71.6935C41.6682 71.7703 41.6239 71.8471 41.5797 71.9186C41.1135 72.668 40.9443 73.4889 41.0042 74.3655C41.0276 74.7256 41.0536 75.0884 41.0562 75.4486C41.0615 75.9808 40.775 76.3251 40.3193 76.5369C40.1891 76.5952 40.0433 76.627 39.9027 76.6508C39.8063 76.6667 39.749 76.6111 39.7725 76.4999C39.8506 76.1265 39.9391 75.7531 40.2568 75.5068C40.3844 75.4062 40.4183 75.2923 40.3974 75.1414C40.3714 74.9534 40.3506 74.768 40.3245 74.58C40.2881 74.3019 40.3532 74.0371 40.4313 73.7802C40.5068 73.5313 40.624 73.2956 40.7203 73.052C40.7307 73.0229 40.7438 72.9964 40.7542 72.9673C40.5172 73.0493 40.3584 73.2506 40.0876 73.2983C40.098 73.24 40.0954 73.1976 40.111 73.1659C40.3141 72.7501 40.5641 72.3661 40.887 72.0378C41.0276 71.8948 41.2073 71.7888 41.3739 71.675C41.4468 71.6247 41.5432 71.6061 41.6109 71.6935ZM41.0953 69.9351C41.1057 69.9299 41.1239 69.9404 41.163 69.9484C41.1422 69.9908 41.1292 70.0358 41.1031 70.0623C40.9208 70.2423 40.7828 70.4515 40.6761 70.6872C40.637 70.7746 40.5823 70.8699 40.5068 70.9203C40.0251 71.2539 39.7516 71.7359 39.598 72.2814C39.4704 72.7395 39.4157 73.2162 39.3011 73.677C39.2543 73.8703 39.1579 74.0609 39.0512 74.2304C38.96 74.3708 38.7986 74.4317 38.5824 74.4078C38.6814 74.6409 38.8298 74.7918 38.9861 74.9189C39.1397 75.0434 39.3246 75.1281 39.4964 75.2314C39.3897 75.4618 39.2777 75.7001 39.1553 75.9623C38.7934 75.475 38.4574 75.0169 38.1345 74.5826C38.3481 74.2595 38.5486 73.9709 38.7335 73.6743C38.9808 73.2771 39.1058 72.8349 39.1267 72.3688C39.1371 72.1384 39.1996 71.9345 39.2959 71.7332C39.6839 70.915 40.2985 70.3324 41.0953 69.9351ZM38.934 68.8838C39.1345 68.8865 39.1631 68.9209 39.1163 69.1169C39.0876 69.2307 39.059 69.3261 39.2439 69.3684C39.2621 69.2281 39.2803 69.0904 39.2985 68.9474C39.7673 68.8653 39.8506 68.9447 39.7308 69.3658C39.6631 69.5988 39.5537 69.8239 39.4365 70.0358C39.3454 70.1973 39.2699 70.192 39.1189 70.0861C38.8715 69.9087 38.7699 69.6386 38.6736 69.3684C38.6111 69.191 38.5798 69.003 38.5147 68.8256C38.4679 68.6958 38.5095 68.6031 38.5928 68.5131C38.8767 68.2112 39.4444 68.2324 39.7152 68.5555C39.5798 68.7223 39.3584 68.762 39.1605 68.6746C39.0616 68.6296 38.9496 68.6005 38.8402 68.5978C38.7751 68.5952 38.71 68.6614 38.6449 68.6985C38.7152 68.8468 38.809 68.8838 38.934 68.8838ZM39.3975 67.2155C39.4782 67.3744 39.5329 67.5465 39.5902 67.7187C39.6292 67.8378 39.6527 67.9623 39.6917 68.1159C39.4782 68.1 39.3168 68.0947 39.1579 68.0762C38.9808 68.055 38.9027 67.949 38.9288 67.769C38.9574 67.5624 39.0277 67.3718 39.1527 67.2023C39.2543 67.0646 39.3194 67.0593 39.3975 67.2155ZM37.1398 67.2817C37.1346 67.2632 37.1268 67.242 37.1216 67.2235C37.3898 67.1043 37.658 66.9851 37.9497 66.8554C37.7778 67.1626 37.4471 67.3294 37.1398 67.2817ZM38.1892 66.5164C37.9288 66.6647 37.6814 66.8395 37.3768 66.8924C37.1554 66.9322 36.9601 66.866 36.7779 66.7468C36.7388 66.7203 36.7206 66.6621 36.6711 66.5879C36.8377 66.6038 36.9653 66.6091 37.0929 66.6276C37.3351 66.6647 37.5591 66.617 37.7674 66.4899C38.0095 66.3416 38.2569 66.1986 38.5017 66.053C38.6814 65.9471 38.8715 65.9391 39.0642 66.0027C39.1032 66.0159 39.1319 66.0556 39.1709 66.0901C39.1397 66.1192 39.1215 66.1457 39.1032 66.1483C38.7569 66.1616 38.4783 66.3522 38.1892 66.5164ZM36.4133 70.2821C36.6945 70.486 36.9549 70.7243 37.2153 70.9573C37.4601 71.1745 37.6867 71.4155 38.0043 71.5187C38.1632 71.5717 38.3324 71.5823 38.5434 71.622C38.3507 71.7385 38.1632 71.7888 37.9835 71.7782C37.796 71.7677 37.6111 71.6935 37.421 71.6458C37.5773 71.9371 38.1788 72.1304 38.8767 72.1066C38.8767 72.1834 38.9001 72.2682 38.8715 72.3317C38.7986 72.5038 38.7204 72.6786 38.6163 72.8322C38.4418 73.0891 38.1944 73.1606 37.8924 73.0891C36.7492 72.819 35.9888 72.0854 35.4837 71.0447C35.4342 70.9441 35.4029 70.8276 35.3899 70.7163C35.3717 70.5522 35.3274 70.4145 35.1764 70.3244C35.1399 70.3032 35.1243 70.2503 35.0826 70.1894C35.5722 69.9934 36.0123 69.9934 36.4133 70.2821ZM33.7598 69.4611C33.9343 69.7048 34.0983 69.9325 34.2624 70.1655C35.3613 71.7147 36.4602 73.2638 37.5591 74.813C38.3403 75.9146 39.1189 77.0189 39.9053 78.1179C40.7333 79.2778 41.5666 80.4323 42.3947 81.5896C42.9181 82.3205 43.4389 83.0566 43.9597 83.7902C44.043 83.9067 44.116 84.0179 44.28 84.0232C44.3894 84.0258 44.4206 84.1185 44.4336 84.2139C44.4623 84.431 44.4883 84.6482 44.5196 84.9236C44.2331 84.7832 43.9753 84.6561 43.7045 84.5237C43.7358 84.4495 43.7488 84.3939 43.7774 84.3516C43.8634 84.2245 43.8477 84.1185 43.7592 83.9941C43.1941 83.1996 42.6395 82.3999 42.077 81.6028C41.3245 80.533 40.5667 79.4605 39.8115 78.3933C39.197 77.5247 38.5824 76.6561 37.9679 75.7875C36.6372 73.902 35.3066 72.0139 33.9759 70.1258C33.89 70.004 33.8015 69.8875 33.7129 69.771C33.6348 69.6597 33.6374 69.5644 33.7598 69.4611ZM34.7832 76.0576C34.2337 76.0126 33.7259 75.8431 33.2182 75.6419C32.6609 75.4194 32.1089 75.4486 31.5828 75.7637C31.562 75.7743 31.5386 75.7822 31.5099 75.7928C31.4084 75.6842 31.4448 75.5889 31.5256 75.4909C31.7026 75.2738 31.9318 75.1467 32.1922 75.0672C32.8432 74.8686 33.4916 74.6674 34.14 74.4635C34.2702 74.4237 34.3978 74.3708 34.5254 74.3178C34.5723 74.2993 34.6113 74.2595 34.6972 74.1986C33.8171 74.0424 33.0203 74.1536 32.2234 74.4687C32.0047 74.0954 32.0412 73.9073 32.3667 73.6664C32.6531 73.4519 32.9864 73.383 33.3275 73.3804C33.8067 73.3777 34.2806 73.4333 34.7415 73.5657C35.1608 73.6875 35.5748 73.8226 35.9914 73.9524C36.0045 73.9577 36.0123 73.9762 36.0331 73.9974C35.9211 74.1351 35.7388 74.1457 35.6008 74.2304C35.4628 74.3152 35.3144 74.3814 35.1686 74.4555C35.0175 74.5323 34.8639 74.6117 34.7103 74.6859C34.5644 74.7547 34.4186 74.8289 34.2702 74.8898C34.1139 74.9534 33.9551 75.001 33.7989 75.0831C33.9265 75.1493 34.0514 75.0884 34.1764 75.0699C34.3119 75.0513 34.4499 75.0354 34.5853 75.0143C34.7207 74.9957 34.8587 74.9745 34.9915 74.9507C35.1217 74.9269 35.2519 74.8924 35.3977 74.8607C35.3222 75.0964 35.1842 75.1943 34.5957 75.4433C34.6321 75.4618 34.6582 75.4909 34.6842 75.4909C35.1217 75.4724 35.5592 75.4512 35.9472 75.1996C36.0487 75.1334 36.1581 75.0752 36.2675 75.0249C36.3039 75.009 36.3742 75.009 36.3951 75.0328C36.4185 75.0593 36.4263 75.1281 36.4107 75.1679C36.3091 75.4168 36.1529 75.6286 35.9315 75.7769C35.5852 76.01 35.2024 76.0921 34.7832 76.0576ZM34.5566 79.3863C34.9368 79.2063 35.3482 79.1559 35.7545 79.0844C35.9263 79.0553 35.9628 79.0977 35.9758 79.2804C35.9966 79.5929 36.0175 79.9027 36.0461 80.2152C36.119 81.0229 35.8248 81.7114 35.4029 82.3655C35.1373 82.7759 34.8353 83.144 34.4134 83.4009C34.2468 83.5015 34.1035 83.6392 33.9525 83.7637C33.8926 83.814 33.8457 83.8802 33.7598 83.9755C34.0905 84.153 34.4134 84.1212 34.7155 84.1688C34.7649 84.2774 34.7207 84.3357 34.6347 84.3701C34.4629 84.439 34.2884 84.5078 34.1139 84.5714C33.8093 84.6826 33.4968 84.7726 33.1999 84.8971C32.6114 85.146 32.1714 85.5697 31.8589 86.1338C31.7834 86.2688 31.7104 86.4065 31.6323 86.5416C31.5907 86.6157 31.5308 86.6952 31.4422 86.6448C31.3954 86.6184 31.3615 86.5204 31.3667 86.4595C31.4006 85.914 31.6505 85.4956 32.0932 85.1831C32.575 84.8441 32.8875 84.3966 32.9395 83.7849C33.0255 82.768 33.1635 81.7564 33.4057 80.7634C33.5645 80.1199 33.9629 79.667 34.5566 79.3863ZM29.4397 82.76C29.6559 82.4529 29.7366 82.0954 29.747 81.7352C29.7626 81.0864 29.9449 80.4879 30.2262 79.9159C30.3616 79.6379 30.5178 79.3704 30.6793 79.0685C30.6168 79.103 30.5673 79.1189 30.5308 79.1506C30.3407 79.3175 30.1558 79.487 29.9658 79.6538C29.9215 79.6935 29.8642 79.72 29.7861 79.765C29.7809 79.7015 29.7678 79.6644 29.7809 79.6432C30.135 78.96 30.5933 78.38 31.2808 78.0093C31.4657 77.9087 31.661 77.8636 31.8641 77.8795C32.5099 77.9246 33.0307 78.237 33.4812 78.6952C33.5411 78.7561 33.5853 78.8223 33.5359 78.915C33.4838 79.0103 33.4239 79.0633 33.3041 79.05C33.0411 79.0182 32.7755 78.997 32.5099 78.9759C31.8016 78.9176 31.3303 79.2857 30.9761 79.8603C30.7053 80.2999 30.5412 80.7792 30.4631 81.2877C30.3642 81.9073 30.0725 82.4131 29.609 82.8209C29.5595 82.8633 29.497 82.8924 29.4397 82.9269C29.4241 82.9083 29.4111 82.8924 29.3955 82.8739C29.4085 82.8342 29.4163 82.7918 29.4397 82.76Z" fill="#231F20"/>
<path d="M39.3923 69.6306C39.2621 69.4956 39.1111 69.5247 38.9314 69.5591C39.0616 69.8372 39.1944 69.8557 39.3923 69.6306Z" fill="#231F20"/>
<path d="M63.8101 66.6806H67.0625V67.8166H68.1301V65.7008H67.4349V61.3711H64.1903V62.2476C64.1903 64.194 63.8179 65.1367 63.1461 65.7008H62.7424V67.8166H63.8101V66.6806ZM65.211 62.3509H66.3672V65.6981H64.3257C64.8933 65.0149 65.1876 63.9769 65.211 62.3509Z" fill="#231F20"/>
<path d="M72.8877 65.6981H70.3462V64.3555H72.143V63.4313H70.3462V62.3509H72.7914V61.3711H69.2786V66.6806H72.8877V65.6981Z" fill="#231F20"/>
<path d="M75.2234 62.3509H77.3535V66.6806H78.4211V61.3711H74.1558V66.6806H75.2234V62.3509Z" fill="#231F20"/>
<path d="M80.9054 65.9888H83.0406L83.3323 66.6799H84.4807L82.1553 61.2725H81.7985L79.4653 66.6799H80.6137L80.9054 65.9888ZM81.973 63.3009L82.6683 65.0964H81.2751L81.973 63.3009Z" fill="#231F20"/>
<path d="M86.5978 64.8057H87.491C88.5899 64.8057 89.3737 64.1066 89.3737 63.0844C89.3737 62.0464 88.5899 61.3711 87.491 61.3711H85.5276V66.6806H86.5952V64.8057H86.5978ZM86.5978 62.3271H87.491C87.991 62.3271 88.2826 62.6422 88.2826 63.0844C88.2826 63.5426 87.991 63.8577 87.491 63.8577H86.5978V62.3271Z" fill="#231F20"/>
<path d="M91.863 66.6806H92.9307V62.3509H94.6076V61.3711H90.1938V62.3509H91.863V66.6806Z" fill="#231F20"/>
<path d="M95.717 66.6799L96.0086 65.9888H98.1439L98.4356 66.6799H99.5839L97.2586 61.2725H96.9018L94.5686 66.6799H95.717ZM97.0789 63.3009L97.7741 65.0964H96.381L97.0789 63.3009Z" fill="#231F20"/>
<path d="M101.704 63.8491L103.016 65.5227H103.365L104.678 63.8491V66.6799H105.745V61.2725H105.399L103.191 64.1457L100.982 61.2725H100.634V66.6799H101.704V63.8491Z" fill="#231F20"/>
<path d="M110.899 65.6981H108.36V64.3555H110.156V63.4313H108.36V62.3509H110.805V61.3711H107.292V66.6806H110.899V65.6981Z" fill="#231F20"/>
<path d="M113.237 64.3873H115.547V66.6806H116.614V61.3711H115.547V63.4049H113.237V61.3711H112.169V66.6806H113.237V64.3873Z" fill="#231F20"/>
<path d="M119.33 66.6806H120.398V62.3509H122.075V61.3711H117.661V62.3509H119.33V66.6806Z" fill="#231F20"/>
<path d="M67.4426 76.3378V71.0283H63.1772V76.3378H64.2449V72.0108H66.375V76.3378H67.4426Z" fill="#231F20"/>
<path d="M70.0519 74.4629H70.9451C72.044 74.4629 72.8278 73.7638 72.8278 72.7417C72.8278 71.7036 72.044 71.0283 70.9451 71.0283H68.9817V76.3378H70.0493V74.4629H70.0519ZM70.0519 71.9843H70.9451C71.4425 71.9843 71.7367 72.2994 71.7367 72.7417C71.7367 73.1998 71.4451 73.5149 70.9451 73.5149H70.0519V71.9843Z" fill="#231F20"/>
<path d="M77.5489 75.358H75.01V74.0128H76.8068V73.0886H75.01V72.0108H77.4552V71.0283H73.9424V76.3378H77.5489V75.358Z" fill="#231F20"/>
<path d="M79.554 76.3378H82.8064V77.4712H83.874V75.3554H83.1787V71.0283H79.9342V71.9049C79.9342 73.8512 79.5618 74.794 78.8899 75.358H78.4863V77.4739H79.554V76.3378ZM80.9549 72.0108H82.1111V75.358H80.0696C80.6372 74.6721 80.9289 73.6341 80.9549 72.0108Z" fill="#231F20"/>
<path d="M86.0901 72.0108H88.2176V76.3378H89.2852V71.0283H85.0225V76.3378H86.0901V72.0108Z" fill="#231F20"/>
<path d="M92.7901 71.0283H90.8267V76.3378H91.8943V74.4629H92.7875C93.8864 74.4629 94.6702 73.7638 94.6702 72.7417C94.6728 71.7036 93.889 71.0283 92.7901 71.0283ZM92.7901 73.5149H91.8969V71.9869H92.7901C93.2874 71.9869 93.5817 72.2994 93.5817 72.7443C93.5791 73.1998 93.2874 73.5149 92.7901 73.5149Z" fill="#231F20"/>
<path d="M96.8549 71.0286H95.7847V76.4361H96.1336L99.2428 73.0809V76.3381H100.313V70.9307H99.9563L96.8549 74.262V71.0286Z" fill="#231F20"/>
<path d="M105.227 73.0647H102.917V71.0283H101.849V76.3378H102.917V74.0445H105.227V76.3378H106.294V71.0283H105.227V73.0647Z" fill="#231F20"/>
<path d="M108.901 74.262V71.0286H107.831V76.4361H108.18L111.289 73.0809V76.3381H112.359V70.9307H112.002L108.901 74.262Z" fill="#231F20"/>
<path d="M116.45 73.8039L114.242 70.9307H113.896V76.3381H114.963V73.5073L116.276 75.1809H116.625L117.937 73.5073V76.3381H119.007V70.9307H118.658L116.45 73.8039Z" fill="#231F20"/>
<path d="M121.203 76.3381L121.494 75.647H123.632L123.924 76.3381H125.072L122.747 70.9307H122.39L120.057 76.3381H121.203ZM122.562 72.9591L123.257 74.7546H121.864L122.562 72.9591Z" fill="#231F20"/>
<path d="M126.71 76.3378H127.778V72.0108H129.455V71.0283H125.041V72.0108H126.71V76.3378Z" fill="#231F20"/>
<path d="M134.108 75.358H131.566V74.0128H133.363V73.0886H131.566V72.0108H134.012V71.0283H130.499V76.3378H134.108V75.358Z" fill="#231F20"/>
<path d="M138.53 76.3378H139.597V71.0283H136.202V72.0108C136.202 74.3358 135.798 75.2547 134.959 75.358V76.3802C136.28 76.2849 137.191 75.4216 137.222 72.0108H138.53V76.3378Z" fill="#231F20"/>
<path d="M145.183 74.5927C145.183 73.5626 144.399 72.8555 143.277 72.8555H142.209V71.0283H141.141V76.3378H143.277C144.399 76.3378 145.183 75.6467 145.183 74.5927ZM143.274 75.3818H142.206V73.8062H143.274C143.797 73.8062 144.089 74.1346 144.089 74.6033C144.089 75.0588 143.797 75.3818 143.274 75.3818Z" fill="#231F20"/>
<path d="M148.927 76.4361C149.94 76.4361 150.787 75.9303 151.237 75.1174L150.43 74.5374C150.081 75.1015 149.591 75.4298 148.935 75.4298C147.961 75.4298 147.25 74.7122 147.25 73.6927C147.25 72.6625 147.961 71.937 148.935 71.937C149.591 71.937 150.084 72.268 150.43 72.8294L151.237 72.2494C150.779 71.4365 149.94 70.9307 148.935 70.9307C147.375 70.9307 146.149 72.1223 146.149 73.6821C146.152 75.2445 147.378 76.4361 148.927 76.4361Z" fill="#231F20"/>
<path d="M152.099 72.0108H153.768V76.3378H154.836V72.0108H156.513V71.0283H152.099V72.0108Z" fill="#231F20"/>
<path d="M161.601 74.7781C161.601 74.1266 161.244 73.6764 160.677 73.4672C160.922 73.2263 161.065 72.9032 161.065 72.5086C161.065 71.6321 160.377 71.0283 159.411 71.0283H157.56V76.3378H159.885C160.896 76.3378 161.601 75.6943 161.601 74.7781ZM158.586 71.9605H159.323C159.765 71.9605 160.002 72.1935 160.002 72.5642C160.002 72.927 159.765 73.176 159.323 73.176H158.586V71.9605ZM158.586 75.4057V74.0684H159.804C160.271 74.0684 160.549 74.3252 160.549 74.7357C160.549 75.1541 160.273 75.403 159.804 75.403H158.586V75.4057Z" fill="#231F20"/>
<path d="M164.583 70.9307L162.247 76.3381H163.395L163.687 75.647H165.822L166.114 76.3381H167.262L164.937 70.9307H164.583ZM164.059 74.7546L164.754 72.9591L165.45 74.7546H164.059Z" fill="#231F20"/>
<path d="M67.703 85.9983V80.5908H67.3463L64.2449 83.9222V80.6862H63.1772V86.0936H63.5262L66.6354 82.7385V85.9983H67.703Z" fill="#231F20"/>
<path d="M71.9553 80.6862V86.0936H72.3017L75.4134 82.7385V85.9983H76.4811V80.5908H76.1243L73.023 83.9222V80.6862H71.9553Z" fill="#231F20"/>
<path d="M79.0852 83.7054H81.395V85.9987H82.4652V80.6865H81.395V82.7229H79.0852V80.6865H78.0176V85.9987H79.0852V83.7054Z" fill="#231F20"/>
<path d="M88.4468 85.9987V80.6865H87.3791V82.7229H85.0694V80.6865H84.0017V85.9987H85.0694V83.7054H87.3791V85.9987H88.4468Z" fill="#231F20"/>
<path d="M95.2301 83.3422C95.2301 81.7798 93.9801 80.5908 92.4438 80.5908C90.91 80.5908 89.6731 81.7825 89.6731 83.3422C89.6731 84.9046 90.9074 86.0936 92.4438 86.0936C93.9801 86.0936 95.2301 84.9046 95.2301 83.3422ZM90.7772 83.3422C90.7772 82.32 91.4803 81.5971 92.4542 81.5971C93.4125 81.5971 94.1312 82.32 94.1312 83.3422C94.1312 84.3724 93.4099 85.0873 92.4542 85.0873C91.4803 85.0873 90.7772 84.3724 90.7772 83.3422Z" fill="#231F20"/>
<path d="M99.5684 83.1255C99.8132 82.8845 99.9564 82.5614 99.9564 82.1668C99.9564 81.2903 99.269 80.6865 98.3029 80.6865H96.4514V85.9987H98.7768C99.7898 85.9987 100.493 85.3552 100.493 84.4389C100.495 83.7848 100.139 83.3347 99.5684 83.1255ZM97.48 81.6213H98.2169C98.6596 81.6213 98.8966 81.8544 98.8966 82.2251C98.8966 82.5879 98.6596 82.8368 98.2169 82.8368H97.48V81.6213ZM98.6987 85.0639H97.48V83.7292H98.6987C99.1648 83.7292 99.4434 83.9861 99.4434 84.3966C99.4408 84.815 99.1648 85.0639 98.6987 85.0639Z" fill="#231F20"/>
<path d="M103.477 80.5908L101.144 85.9983H102.292L102.584 85.3071H104.719L105.011 85.9983H106.159L103.834 80.5908H103.477ZM102.954 84.4121L103.649 82.6193L104.344 84.4121H102.954Z" fill="#231F20"/>
<path d="M111.456 80.6865H110.388V85.0162H108.276V80.6865H107.206V85.9987H111.076V87.1321H112.146V85.0162H111.456V80.6865Z" fill="#231F20"/>
<path d="M113.315 80.6862V86.0936H113.661L116.77 82.7385V85.9983H117.841V80.5908H117.484L114.383 83.9222V80.6862H113.315Z" fill="#231F20"/>
<path d="M121.822 80.5908C120.286 80.5908 119.052 81.7825 119.052 83.3422C119.052 84.9046 120.286 86.0936 121.822 86.0936C123.356 86.0936 124.608 84.902 124.608 83.3422C124.606 81.7798 123.356 80.5908 121.822 80.5908ZM121.83 85.0873C120.856 85.0873 120.153 84.3724 120.153 83.3422C120.153 82.32 120.856 81.5971 121.83 81.5971C122.788 81.5971 123.507 82.32 123.507 83.3422C123.507 84.3724 122.786 85.0873 121.83 85.0873Z" fill="#231F20"/>
<path d="M130.275 85.9987V80.6865H129.205V82.7229H126.895V80.6865H125.827V85.9987H126.895V83.7054H129.205V85.9987H130.275Z" fill="#231F20"/>
<path d="M135.189 82.7229H132.879V80.6865H131.811V85.9987H132.879V83.7054H135.189V85.9987H136.256V80.6865H135.189V82.7229Z" fill="#231F20"/>
<path d="M140.256 80.5908C138.72 80.5908 137.485 81.7825 137.485 83.3422C137.485 84.9046 138.72 86.0936 140.256 86.0936C141.792 86.0936 143.042 84.902 143.042 83.3422C143.04 81.7798 141.79 80.5908 140.256 80.5908ZM140.264 85.0873C139.29 85.0873 138.587 84.3724 138.587 83.3422C138.587 82.32 139.29 81.5971 140.264 81.5971C141.222 81.5971 141.941 82.32 141.941 83.3422C141.941 84.3724 141.22 85.0873 140.264 85.0873Z" fill="#231F20"/>
<path d="M144.261 85.9987H145.329V81.669H147.623V80.6865H144.261V85.9987Z" fill="#231F20"/>
<path d="M151.078 80.5908C149.542 80.5908 148.308 81.7825 148.308 83.3422C148.308 84.9046 149.542 86.0936 151.078 86.0936C152.612 86.0936 153.865 84.902 153.865 83.3422C153.865 81.7798 152.612 80.5908 151.078 80.5908ZM151.086 85.0873C150.112 85.0873 149.409 84.3724 149.409 83.3422C149.409 82.32 150.112 81.5971 151.086 81.5971C152.044 81.5971 152.763 82.32 152.763 83.3422C152.763 84.3724 152.044 85.0873 151.086 85.0873Z" fill="#231F20"/>
<path d="M159.784 80.6865H157.82V85.9987H158.888V84.1238H159.784C160.882 84.1238 161.666 83.422 161.666 82.3999C161.666 81.3618 160.885 80.6865 159.784 80.6865ZM159.784 83.1731H158.888V81.6451H159.784C160.281 81.6451 160.575 81.9576 160.575 82.4025C160.575 82.8606 160.283 83.1731 159.784 83.1731Z" fill="#231F20"/>
<path d="M164.197 80.5908L161.864 85.9983H163.013L163.304 85.3071H165.44L165.731 85.9983H166.88L164.554 80.5908H164.197ZM163.677 84.4121L164.372 82.6193L165.067 84.4121H163.677Z" fill="#231F20"/>
<path d="M170.858 83.1886C171.158 82.9397 171.332 82.5849 171.332 82.1585C171.332 81.2502 170.541 80.5908 169.543 80.5908C168.705 80.5908 168.01 81.0569 167.661 81.7507L168.405 82.2909C168.697 81.8566 169.077 81.5998 169.538 81.5998C169.981 81.5998 170.275 81.8566 170.275 82.2274C170.275 82.5743 170.038 82.8391 169.603 82.8391H168.796V83.7315H169.825C170.291 83.7315 170.562 84.0122 170.562 84.375C170.562 84.8331 170.142 85.09 169.627 85.09C169.096 85.09 168.661 84.8411 168.322 84.3167L167.57 84.8649C167.95 85.6037 168.687 86.0963 169.635 86.0963C170.744 86.0963 171.621 85.429 171.621 84.4306C171.619 83.856 171.332 83.4296 170.858 83.1886Z" fill="#231F20"/>
<path d="M175.981 83.1255C176.225 82.8845 176.369 82.5614 176.369 82.1668C176.369 81.2903 175.681 80.6865 174.715 80.6865H172.864V85.9987H175.189C176.202 85.9987 176.905 85.3552 176.905 84.4389C176.905 83.7848 176.548 83.3347 175.981 83.1255ZM173.89 81.6213H174.626C175.069 81.6213 175.306 81.8544 175.306 82.2251C175.306 82.5879 175.069 82.8368 174.626 82.8368H173.89V81.6213ZM175.108 85.0639H173.89V83.7292H175.108C175.574 83.7292 175.853 83.9861 175.853 84.3966C175.853 84.815 175.577 85.0639 175.108 85.0639Z" fill="#231F20"/>
<path d="M179.173 83.9222V80.6862H178.105V86.0936H178.454L181.564 82.7385V85.9983H182.631V80.5908H182.274L179.173 83.9222Z" fill="#231F20"/>
<path d="M183.675 81.669H185.344V85.9987H186.412V81.669H188.092V80.6865H183.675V81.669Z" fill="#231F20"/>
<path d="M190.204 83.9222V80.6862H189.136V86.0936H189.482L192.594 82.7385V85.9983H193.662V80.5908H193.305L190.204 83.9222Z" fill="#231F20"/>
<path d="M197.156 80.6865C195.977 80.6865 195.138 81.4201 195.138 82.5217C195.138 83.1969 195.464 83.7451 195.985 84.0576L194.742 85.996H195.938L196.997 84.3542C197.052 84.3621 197.102 84.3621 197.156 84.3621H197.932V85.996H199V80.6865H197.156ZM197.932 83.4062H197.141C196.578 83.4062 196.232 83.0354 196.232 82.5217C196.232 82.0132 196.581 81.6451 197.141 81.6451H197.932V83.4062Z" fill="#231F20"/>
<path d="M63.1772 95.6559H64.2449V91.3262H66.539V90.3438H63.1772V95.6559Z" fill="#231F20"/>
<path d="M69.9945 90.249C68.4582 90.249 67.2239 91.4407 67.2239 93.0004C67.2239 94.5628 68.4582 95.7518 69.9945 95.7518C71.5309 95.7518 72.7808 94.5602 72.7808 93.0004C72.7808 91.4407 71.5283 90.249 69.9945 90.249ZM70.0024 94.7482C69.0285 94.7482 68.3254 94.0332 68.3254 93.0031C68.3254 91.9809 69.0285 91.258 70.0024 91.258C70.9606 91.258 71.6793 91.9809 71.6793 93.0031C71.6793 94.0306 70.9606 94.7482 70.0024 94.7482Z" fill="#231F20"/>
<path d="M75.9629 90.3438H73.9995V95.6559H75.0672V93.781H75.9629C77.0618 93.781 77.8456 93.0793 77.8456 92.0597C77.8456 91.0217 77.0618 90.3438 75.9629 90.3438ZM75.9629 92.8303H75.0672V91.3024H75.9629C76.4603 91.3024 76.7546 91.6149 76.7546 92.0597C76.7546 92.5179 76.4603 92.8303 75.9629 92.8303Z" fill="#231F20"/>
<path d="M81.5539 90.249C80.0175 90.249 78.7832 91.4407 78.7832 93.0004C78.7832 94.5628 80.0175 95.7518 81.5539 95.7518C83.0902 95.7518 84.3402 94.5602 84.3402 93.0004C84.3376 91.4407 83.0876 90.249 81.5539 90.249ZM81.5617 94.7482C80.5878 94.7482 79.8847 94.0332 79.8847 93.0031C79.8847 91.9809 80.5878 91.258 81.5617 91.258C82.52 91.258 83.2387 91.9809 83.2387 93.0031C83.2387 94.0306 82.5174 94.7482 81.5617 94.7482Z" fill="#231F20"/>
<path d="M89.7251 90.3438H86.4805V91.2203C86.4805 93.1667 86.1082 94.1094 85.4363 94.6708H85.0327V96.7866H86.1004V95.6532H89.3528V96.7866H90.4204V94.6708H89.7251V90.3438ZM88.6575 94.6734H86.616C87.1862 93.9902 87.4779 92.9522 87.5013 91.3262H88.6575V94.6734Z" fill="#231F20"/>
<path d="M93.6027 90.249L91.2695 95.6565H92.4179L92.7096 94.9653H94.8448L95.1365 95.6565H96.2849L93.9595 90.249H93.6027ZM93.0793 94.0703L93.7746 92.2775L94.4699 94.0703H93.0793Z" fill="#231F20"/>
<path d="M102.61 93.1222L100.402 90.249H100.053V95.6565H101.12V92.823L102.435 94.4966H102.782L104.097 92.823V95.6565H105.164V90.249H104.815L102.61 93.1222Z" fill="#231F20"/>
<path d="M109.172 90.249C107.636 90.249 106.401 91.4407 106.401 93.0004C106.401 94.5628 107.636 95.7518 109.172 95.7518C110.706 95.7518 111.958 94.5602 111.958 93.0004C111.956 91.4407 110.706 90.249 109.172 90.249ZM109.18 94.7482C108.206 94.7482 107.503 94.0332 107.503 93.0031C107.503 91.9809 108.206 91.258 109.18 91.258C110.138 91.258 110.857 91.9809 110.857 93.0031C110.857 94.0306 110.136 94.7482 109.18 94.7482Z" fill="#231F20"/>
<path d="M115.739 91.2553C116.396 91.2553 116.888 91.5837 117.234 92.1477L118.041 91.5678C117.583 90.7548 116.745 90.249 115.739 90.249C114.18 90.249 112.953 91.4407 112.953 93.0004C112.953 94.5628 114.18 95.7518 115.732 95.7518C116.745 95.7518 117.591 95.246 118.041 94.4331L117.234 93.8531C116.885 94.4172 116.396 94.7456 115.739 94.7456C114.766 94.7456 114.055 94.0306 114.055 93.0084C114.055 91.9783 114.766 91.2553 115.739 91.2553Z" fill="#231F20"/>
<path d="M123.543 90.3438H122.27L120.275 92.8065V90.3438H119.208V95.6559H120.275V92.8886L122.515 95.6559H123.804L121.541 92.8489L123.543 90.3438Z" fill="#231F20"/>
<path d="M127.965 92.7827C128.21 92.5417 128.353 92.2186 128.353 91.8241C128.353 90.9449 127.666 90.3438 126.7 90.3438H124.848V95.6559H127.174C128.186 95.6559 128.89 95.0124 128.89 94.0935C128.892 93.4421 128.535 92.9919 127.965 92.7827ZM125.877 91.2785H126.614C127.056 91.2785 127.293 91.5116 127.293 91.8823C127.293 92.2451 127.056 92.494 126.614 92.494H125.877V91.2785ZM127.095 94.7238H125.877V93.3891H127.095C127.562 93.3891 127.84 93.646 127.84 94.0564C127.84 94.4722 127.562 94.7238 127.095 94.7238Z" fill="#231F20"/>
<path d="M132.21 92.171H131.142V90.3438H130.074V95.6559H132.21C133.332 95.6559 134.116 94.9647 134.116 93.9108C134.118 92.8807 133.335 92.171 132.21 92.171ZM132.21 94.6973H131.142V93.119H132.21C132.733 93.119 133.025 93.45 133.025 93.9161C133.027 94.3768 132.733 94.6973 132.21 94.6973Z" fill="#231F20"/>
<path d="M136.095 90.3438H135.027V95.6559H136.095V90.3438Z" fill="#231F20"/>
</g>
<defs>
<clipPath id="clip0">
<rect width="176" height="40" fill="white" transform="translate(23 61)"/>
</clipPath>
</defs>
</svg>
