<svg width="221" height="161" viewBox="0 0 221 161" fill="none" xmlns="http://www.w3.org/2000/svg">
<path d="M111.487 99.2134L71.1372 59H111.487V99.2134Z" fill="#A80C3D"/>
<path d="M70.2119 101.214V60.8447L110.678 101.214H70.2119Z" fill="#42B23C"/>
<path d="M83.5345 91.9307C83.5539 91.7883 83.5604 91.6588 83.5733 91.5358C83.6251 90.9597 83.6703 90.5454 84.0003 90.1893C84.3239 89.8527 84.8803 89.6391 85.7991 89.3607C86.6726 89.0953 87.3973 88.6875 87.9538 88.1437C88.3226 87.7876 88.6202 87.3798 88.8532 86.8943C88.9308 86.7389 88.892 86.5124 88.7626 86.2858C88.5232 85.878 88.0508 85.5802 87.6238 85.5608C87.6108 85.5608 87.5979 85.5608 87.585 85.5608C87.1709 85.5608 86.8085 85.9038 86.4268 86.2599C86.1356 86.5383 85.8315 86.8296 85.4756 86.9526C85.2944 87.0173 85.1003 87.0756 84.9191 87.0756C84.6862 87.0756 84.3821 86.9785 84.2462 86.5253C84.175 86.2858 84.1362 85.9362 84.1297 85.3148C84.1103 84.0589 84.0262 82.7966 83.5604 82.0715C83.418 81.845 83.0039 81.709 82.5057 81.709C81.9622 81.709 81.4251 81.8773 81.2181 82.1168C81.1469 82.201 81.0175 82.4535 80.9786 83.1979C80.9528 83.7482 80.9786 84.3761 80.9981 84.9328C81.0175 85.3212 81.0304 85.6579 81.0239 85.9233C81.0175 86.2469 80.9722 86.4606 80.8687 86.6289C80.7781 86.7842 80.5969 86.9655 80.241 86.9655C79.8463 86.9655 79.3093 86.7325 78.4617 86.344C77.6528 85.9751 77.2193 85.6708 76.8699 85.4313C76.527 85.1982 76.307 85.0429 75.8864 84.9393C75.8605 84.9328 75.8282 84.9263 75.7958 84.9263C75.3688 84.9263 74.8706 85.4248 74.6959 85.865C74.56 86.2081 74.5017 86.7195 75.0129 87.205C76.1776 88.3055 77.504 88.7134 78.4746 89.0111C78.7334 89.0888 78.9793 89.1665 79.1863 89.2442C79.2252 89.2571 79.264 89.2765 79.3028 89.2895C79.8334 89.4837 80.1828 89.6132 80.3704 90.0016C80.5322 90.3382 80.5192 90.7978 80.4481 91.6912C80.3381 93.1024 79.9304 96.242 79.7816 97.3296L83.1527 97.4267C83.2174 96.3715 83.3986 93.1542 83.5345 91.9307ZM83.4762 98.1258L79.3869 98.0093C79.2899 98.0093 79.1993 97.964 79.1346 97.8863C79.0699 97.8151 79.044 97.7115 79.0569 97.6144C79.0634 97.5756 79.6328 93.329 79.7687 91.6329C79.814 90.9985 79.8528 90.4936 79.7557 90.2994C79.6975 90.1699 79.5034 90.0987 79.0763 89.9368C79.0375 89.9174 78.9987 89.911 78.9599 89.8915C78.7658 89.8203 78.5393 89.7491 78.2805 89.6714C77.2452 89.3542 75.8282 88.9205 74.547 87.71C73.9388 87.1338 73.7641 86.3699 74.0682 85.6125C74.3788 84.8422 75.1423 84.2402 75.8088 84.2402C75.8929 84.2402 75.9835 84.2466 76.0611 84.2725C76.6111 84.402 76.9023 84.6091 77.2776 84.8681C77.6011 85.0947 78.0152 85.373 78.7658 85.7226C79.4322 86.0268 80.0081 86.2793 80.254 86.2793C80.2734 86.2793 80.2798 86.2793 80.2863 86.2728C80.2993 86.2534 80.3316 86.1628 80.3381 85.9103C80.3445 85.6708 80.3316 85.3471 80.3122 84.9717C80.2475 83.431 80.2345 82.2139 80.6939 81.6766C81.1081 81.1976 81.9233 81.0293 82.4992 81.0293C83.2627 81.0293 83.8645 81.2753 84.1362 81.7155C84.6927 82.5894 84.7897 83.9618 84.8091 85.3212C84.8156 85.7032 84.8286 85.9621 84.8544 86.1498C84.8739 86.2987 84.8997 86.3699 84.9127 86.4023C85.0033 86.3958 85.1715 86.3376 85.2297 86.3182C85.4433 86.2405 85.6827 86.0139 85.935 85.7744C86.375 85.3536 86.8732 84.881 87.5656 84.881C87.5914 84.881 87.6108 84.881 87.6367 84.881C88.2902 84.9134 88.9761 85.3407 89.332 85.9427C89.5908 86.3699 89.6296 86.8296 89.4549 87.1986C88.7885 88.5709 87.6238 89.5225 85.9803 90.021C85.0874 90.2929 84.6668 90.4741 84.4792 90.6684C84.3174 90.8367 84.2915 91.0632 84.2397 91.6005C84.2268 91.7235 84.2139 91.8595 84.2009 92.0084C84.0456 93.4325 83.8127 97.7633 83.8127 97.8022C83.7998 97.9834 83.6509 98.1323 83.4698 98.1323H83.4762V98.1258Z" fill="white"/>
<path d="M101.658 81.2559L101.296 81.1135C101.231 81.0876 101.16 81.0617 101.095 81.0358C101.024 81.0034 100.947 80.971 100.875 80.9452C100.804 80.9128 100.733 80.8869 100.668 80.8545C100.636 80.8416 100.61 80.8286 100.578 80.8222C100.526 80.8027 100.474 80.7833 100.422 80.7574C100.325 80.7186 100.235 80.6733 100.138 80.628C100.06 80.5956 99.9889 80.5567 99.9112 80.5244C99.853 80.505 99.8012 80.4791 99.7495 80.4532C99.6848 80.4273 99.6201 80.3949 99.5489 80.369C99.5036 80.3496 99.4648 80.3237 99.4195 80.3043C99.3936 80.2913 99.3677 80.2784 99.3418 80.2654C99.2901 80.2395 99.2383 80.2136 99.1866 80.1878C99.1218 80.1619 99.0571 80.1295 98.9924 80.0971C98.9536 80.0777 98.9148 80.0518 98.8695 80.0324C98.8436 80.0194 98.8242 80.0065 98.7983 79.9935C98.7466 79.9677 98.6948 79.9418 98.643 79.9159C98.546 79.8641 98.4489 79.8123 98.3519 79.7605C98.2872 79.7281 98.2289 79.6893 98.1707 79.6569C98.1319 79.631 98.093 79.6116 98.0542 79.5857C98.0089 79.5598 97.9636 79.5339 97.9183 79.508C97.8601 79.4757 97.8083 79.4498 97.7501 79.4174L97.7178 79.398C97.5819 79.3203 97.446 79.2361 97.3101 79.152C97.1095 79.029 96.8831 78.8801 96.6566 78.7312C96.4237 78.5759 96.2037 78.4205 96.0031 78.2651C95.8737 78.168 95.7443 78.0644 95.6213 77.9609L95.5308 77.8832C95.4855 77.8443 95.4402 77.812 95.4013 77.7796C95.2719 77.676 95.1361 77.566 95.0067 77.4495C94.7802 77.2423 94.5537 77.0222 94.3143 76.7762C94.1461 76.6014 93.9908 76.4202 93.8743 76.2842C93.7449 76.1289 93.6155 75.9606 93.4861 75.7793C93.3632 75.6045 93.2596 75.4491 93.169 75.2938C93.059 75.1061 92.9555 74.9183 92.8649 74.7306C92.7808 74.5623 92.7096 74.4199 92.6514 74.2839C92.6061 74.1803 92.5738 74.0768 92.5479 73.9732C92.5414 73.9343 92.5285 73.902 92.522 73.8696L92.4897 73.779C92.4573 73.6884 92.4249 73.5848 92.3991 73.4877C92.3732 73.3906 92.3538 73.287 92.3408 73.1964L92.3214 73.0734C92.302 72.9892 92.2891 72.8986 92.2761 72.8015C92.2697 72.7367 92.2697 72.685 92.2632 72.6267C92.2632 72.6008 92.2632 72.5814 92.2567 72.5555C92.2502 72.549 92.2502 72.5361 92.2502 72.5296L92.2373 72.4778V71.8693L92.2567 71.8175C92.2567 71.811 92.2567 71.811 92.2632 71.8046V71.7722C92.2632 71.7204 92.2632 71.6621 92.2761 71.6039C92.302 71.4226 92.3344 71.2737 92.3602 71.1378C92.3926 70.9889 92.4379 70.8141 92.4961 70.6458C92.5414 70.5034 92.6061 70.361 92.6708 70.225C92.7549 70.0632 92.852 69.8884 92.9685 69.7266C93.0914 69.5518 93.2338 69.3835 93.389 69.2216C93.5379 69.0663 93.7061 68.9368 93.829 68.8332C93.9584 68.7361 94.0878 68.6584 94.2173 68.5808L94.2237 68.5743C94.3402 68.5031 94.4696 68.4319 94.6055 68.3607C94.6767 68.3218 94.7543 68.2959 94.819 68.27L94.8708 68.2506C94.9743 68.2118 95.0778 68.1729 95.1749 68.1276C95.2202 68.1147 95.259 68.1017 95.2913 68.0952C95.3043 68.0888 95.3172 68.0888 95.3302 68.0888C95.3431 68.0823 95.3561 68.0823 95.369 68.0758C95.3884 68.0693 95.4143 68.0564 95.4402 68.0564C95.5502 68.0305 95.6537 67.9981 95.7637 67.9722C95.8219 67.9593 95.8802 67.9463 95.9384 67.9399C96.0225 67.9269 96.1066 67.914 96.1972 67.901C96.3201 67.8816 96.4496 67.8687 96.5725 67.8557L96.6048 67.8492C96.6372 67.8428 96.6825 67.8428 96.7278 67.8428H97.019C97.3166 67.8428 97.6142 67.8428 97.9183 67.8492C98.0413 67.8492 98.1578 67.8687 98.2678 67.8881C98.313 67.8946 98.3583 67.901 98.4036 67.9075L98.5072 67.9205C98.5719 67.9269 98.6366 67.9334 98.7013 67.9463L98.7983 67.9593C98.9083 67.9722 99.0313 67.9917 99.1477 68.0111C99.2318 68.0305 99.316 68.0499 99.3936 68.0693C99.4324 68.0823 99.4713 68.0888 99.5165 68.1017C99.536 68.1082 99.5618 68.1082 99.5812 68.1147C99.6071 68.1211 99.633 68.1211 99.6589 68.1276C99.6848 68.1341 99.7107 68.1341 99.743 68.1406C99.8271 68.1535 99.9177 68.1729 100.015 68.2053C100.125 68.2441 100.235 68.2894 100.338 68.3348C100.377 68.3542 100.416 68.3671 100.448 68.3865C100.649 68.4772 100.804 68.6131 100.921 68.7232C101.069 68.8656 101.179 69.0274 101.251 69.2022C101.302 69.3317 101.361 69.4935 101.348 69.6813C101.348 69.7071 101.348 69.7395 101.348 69.7654C101.348 69.869 101.348 69.992 101.296 70.1279C101.205 70.3869 101.069 70.5811 100.895 70.7235C100.765 70.8271 100.617 70.9047 100.442 70.963C100.293 71.0083 100.138 71.0277 99.9501 71.0277C99.8659 71.0277 99.7818 71.0213 99.7107 71.0213C99.5812 71.0148 99.4583 70.9824 99.3418 70.9565C99.2707 70.9371 99.1995 70.9177 99.1283 70.8983C99.0636 70.8788 98.9989 70.8594 98.9342 70.8465C98.8824 70.8335 98.8242 70.8271 98.766 70.8141C98.6948 70.8012 98.6236 70.7947 98.5524 70.7753C98.326 70.7235 98.0672 70.6976 97.7501 70.6976C97.6531 70.6976 97.5495 70.6976 97.4201 70.7041C97.3037 70.7105 97.1742 70.7235 97.0254 70.7559C96.9219 70.7753 96.7795 70.8076 96.6631 70.853C96.4496 70.9371 96.2878 71.0342 96.1454 71.1443C95.9966 71.2608 95.8737 71.4032 95.7637 71.5909C95.699 71.701 95.6537 71.8305 95.6019 72.0117C95.5372 72.2512 95.5178 72.5231 95.5308 72.8533C95.5372 72.9245 95.5502 73.0022 95.5631 73.0863C95.5696 73.1187 95.576 73.1446 95.576 73.1769L95.5825 73.2093C95.6019 73.3129 95.6149 73.41 95.6408 73.5006C95.6472 73.5459 95.6666 73.5977 95.686 73.6495C95.699 73.6754 95.7055 73.7013 95.7119 73.7272L95.7313 73.7855C95.7443 73.8308 95.7572 73.8696 95.7702 73.9085L95.7766 73.9279C95.8155 74.025 95.8543 74.1156 95.8996 74.2062C95.9902 74.381 96.0743 74.5429 96.1649 74.6917C96.236 74.8083 96.3266 74.9377 96.4366 75.0802C96.5337 75.2096 96.6437 75.3391 96.7731 75.475L96.8054 75.5139C96.9543 75.6757 97.0966 75.8311 97.2454 75.9735C97.3684 76.09 97.5042 76.1936 97.6401 76.3101L97.7436 76.3943C97.9119 76.5302 98.0607 76.6467 98.216 76.7568C98.3842 76.8798 98.5589 76.9963 98.7272 77.1064L98.8113 77.1646C98.9213 77.2423 99.0571 77.3329 99.193 77.4106C99.2966 77.4689 99.3936 77.5271 99.5036 77.5919L99.633 77.6631C99.8012 77.7537 99.963 77.8508 100.131 77.9414C100.287 78.0256 100.403 78.0839 100.507 78.1421C100.578 78.1745 100.649 78.2069 100.714 78.2392C100.798 78.2781 100.875 78.3169 100.959 78.3558C101.011 78.3816 101.057 78.4011 101.108 78.427C101.277 78.5046 101.445 78.5953 101.613 78.7183C101.833 78.8866 101.982 79.0808 102.059 79.3009C102.111 79.4627 102.137 79.631 102.131 79.7929C102.124 79.9612 102.085 80.1165 102.046 80.2654C102.001 80.4208 101.949 80.5632 101.898 80.7056L101.885 80.7315C101.859 80.7963 101.833 80.8545 101.807 80.9128C101.794 80.9322 101.788 80.9581 101.775 80.9775L101.658 81.2559Z" fill="white"/>
<path d="M101.542 80.9646L101.613 80.8157C101.632 80.7704 101.658 80.7186 101.677 80.6668C101.742 80.505 101.794 80.3625 101.833 80.2137C101.872 80.0712 101.91 79.9418 101.91 79.7994C101.917 79.6634 101.891 79.5275 101.852 79.3915C101.794 79.2167 101.671 79.0549 101.49 78.919C101.347 78.8089 101.199 78.7377 101.037 78.66C100.979 78.6341 100.927 78.6082 100.875 78.5823C100.797 78.5435 100.713 78.5047 100.636 78.4658L100.422 78.3687C100.306 78.3104 100.189 78.2457 100.034 78.1616C99.8657 78.0709 99.6975 77.9738 99.5357 77.8832L99.4063 77.812C99.2963 77.7537 99.1928 77.689 99.0893 77.6307C98.9469 77.5466 98.811 77.4559 98.6946 77.3783L98.6105 77.32C98.4228 77.197 98.2546 77.0805 98.0864 76.964C97.9311 76.8539 97.7758 76.7309 97.6075 76.595L97.504 76.5108C97.3552 76.3943 97.2193 76.2842 97.0899 76.1677C96.9411 76.0253 96.7987 75.8699 96.6499 75.7081L96.6046 75.6563C96.4752 75.5139 96.3652 75.3779 96.2617 75.242C96.1388 75.0866 96.0482 74.9572 95.9705 74.8277C95.8799 74.6723 95.7894 74.5105 95.6988 74.3292C95.6535 74.2451 95.6147 74.1545 95.5758 74.0574C95.5435 73.9861 95.537 73.9473 95.5241 73.9149L95.4723 73.7531C95.4529 73.6884 95.4335 73.6301 95.4141 73.5783C95.3947 73.4942 95.3817 73.4035 95.3623 73.3129L95.3429 73.1705C95.3235 73.0475 95.3041 72.9569 95.3041 72.8792C95.2847 72.5231 95.3105 72.2318 95.3817 71.9664C95.4335 71.7657 95.4917 71.6168 95.5629 71.4874C95.6858 71.2737 95.8282 71.1054 96.0029 70.9695C96.1646 70.8465 96.3458 70.7429 96.5787 70.6458C96.7211 70.5876 96.8764 70.5552 96.9799 70.5293C97.1417 70.4969 97.284 70.4775 97.407 70.4775C97.5364 70.471 97.6464 70.471 97.7434 70.471C98.0799 70.471 98.3452 70.4969 98.5975 70.5552C98.6558 70.5681 98.714 70.5746 98.7722 70.5876C98.8628 70.6005 98.9275 70.6134 98.9858 70.6264C99.0505 70.6393 99.1152 70.6588 99.1863 70.6782L99.2381 70.6976C99.2899 70.7105 99.3416 70.7235 99.3934 70.7364C99.4969 70.7623 99.6069 70.7882 99.7234 70.7947C99.9693 70.8077 100.189 70.8012 100.364 70.7429C100.513 70.6911 100.642 70.6264 100.746 70.5422C100.888 70.4192 100.998 70.2574 101.076 70.0438C101.108 69.9467 101.115 69.856 101.115 69.7589C101.115 69.7266 101.115 69.6942 101.121 69.6554C101.127 69.5129 101.089 69.39 101.043 69.2799C100.985 69.131 100.888 69.0015 100.765 68.8785C100.668 68.7814 100.532 68.6649 100.364 68.5872L100.273 68.5484C100.15 68.4966 100.053 68.4448 99.9434 68.4125C99.8593 68.3801 99.7816 68.3736 99.7104 68.3607L99.5487 68.3348C99.5034 68.3283 99.484 68.3218 99.4581 68.3153C99.4193 68.3024 99.374 68.2959 99.3287 68.283C99.2575 68.2636 99.1863 68.2441 99.1087 68.2312C99.0052 68.2118 98.8952 68.1988 98.7916 68.1859L98.3775 68.1341C98.3258 68.1276 98.2805 68.1211 98.2352 68.1147C98.1317 68.1017 98.0281 68.0823 97.9181 68.0823C97.737 68.0758 97.5623 68.0758 97.3811 68.0758H96.734C96.6952 68.0758 96.6629 68.0823 96.6435 68.0888C96.4817 68.1082 96.3523 68.1211 96.2358 68.1406C96.1517 68.1535 96.0676 68.1665 95.9835 68.1794C95.9252 68.1859 95.8735 68.1988 95.8217 68.2118L95.3947 68.3283L95.3494 68.3412C95.317 68.3477 95.2911 68.3542 95.2523 68.3671C95.1553 68.3995 95.0517 68.4448 94.9547 68.4772L94.9029 68.4966C94.8447 68.516 94.78 68.5484 94.7153 68.5743C94.5794 68.6455 94.4629 68.7102 94.3464 68.7814C94.217 68.8591 94.0941 68.9303 93.9712 69.0274C93.8482 69.1245 93.6929 69.2475 93.5571 69.39C93.4147 69.5388 93.2724 69.7007 93.1559 69.869C93.0459 70.0179 92.9618 70.1862 92.8777 70.3416C92.813 70.4646 92.7547 70.594 92.7159 70.73C92.6641 70.8918 92.6253 71.0601 92.593 71.2025C92.5606 71.332 92.5347 71.4744 92.5088 71.6557C92.5024 71.7075 92.5024 71.7463 92.5024 71.7916L92.4765 72.4584L92.5024 72.6073C92.5088 72.685 92.5088 72.7303 92.5153 72.7885C92.5283 72.8727 92.5412 72.9633 92.5541 73.041L92.5735 73.164C92.5865 73.2546 92.6059 73.3453 92.6253 73.4424C92.6512 73.533 92.6771 73.6172 92.703 73.7013L92.7612 73.8761C92.8 74.012 92.8324 74.1091 92.8712 74.2062C92.923 74.3357 92.9877 74.4717 93.0718 74.64C93.1624 74.8148 93.2594 75.0025 93.3694 75.1902C93.46 75.3391 93.5571 75.488 93.68 75.6563C93.8094 75.8376 93.9323 75.9994 94.0617 76.1483C94.1717 76.2778 94.3206 76.459 94.4888 76.6273C94.7217 76.8733 94.9482 77.087 95.1747 77.2941C95.2976 77.4106 95.427 77.5142 95.5564 77.6178L95.7764 77.799C95.8929 77.8961 96.0223 77.9997 96.1517 78.0968C96.3523 78.2522 96.5723 78.4011 96.7987 78.5564C97.0252 78.7053 97.2517 78.8542 97.4458 78.9772C97.5817 79.0614 97.7175 79.1391 97.847 79.2167L98.2999 79.4757C98.3516 79.508 98.4099 79.5469 98.4681 79.5793C98.5652 79.631 98.6558 79.6828 98.7528 79.7346L99.4452 80.0842C99.471 80.0971 99.5034 80.1101 99.5293 80.1295C99.5875 80.1619 99.6134 80.1748 99.6393 80.1813C99.704 80.2137 99.7687 80.2396 99.8334 80.2654L100.235 80.4402C100.332 80.492 100.422 80.5309 100.519 80.5697C100.565 80.5891 100.616 80.6085 100.662 80.628L100.972 80.751C101.043 80.7833 101.115 80.8092 101.186 80.8416L101.542 80.9646ZM101.775 81.5472L101.011 81.2494C100.94 81.2171 100.862 81.1912 100.785 81.1588L100.519 81.0487C100.442 81.0164 100.383 80.997 100.325 80.9711C100.228 80.9257 100.131 80.8804 100.034 80.8351L99.6522 80.6668C99.5875 80.6409 99.5163 80.6085 99.4516 80.5762C99.4193 80.5632 99.3869 80.5438 99.3481 80.5244L98.5393 80.1166C98.4422 80.0648 98.3452 80.013 98.2417 79.9612C98.1769 79.9224 98.1122 79.8835 98.054 79.8447L97.6399 79.6116C97.4717 79.5145 97.3293 79.4304 97.187 79.3397C96.9864 79.2167 96.7534 79.0678 96.527 78.9125C96.294 78.7506 96.0676 78.5953 95.8605 78.4399C95.7247 78.3363 95.5952 78.2328 95.4723 78.1292L95.2523 77.9479C95.1229 77.8444 94.9805 77.7343 94.8511 77.6113C94.6247 77.4042 94.3917 77.1776 94.1459 76.9316C93.9712 76.7503 93.8159 76.5691 93.6994 76.4267C93.5635 76.2648 93.4341 76.0965 93.2982 75.9088C93.1688 75.7275 93.0588 75.5657 92.9682 75.4038C92.8582 75.2161 92.7547 75.0154 92.6577 74.8342C92.5671 74.6529 92.4959 74.504 92.4377 74.3616C92.3924 74.2516 92.36 74.1415 92.3212 74.0315L92.263 73.8502C92.2241 73.7402 92.1918 73.643 92.1724 73.5395C92.14 73.4359 92.1271 73.3258 92.1077 73.2223L92.0883 73.1057C92.0753 73.0151 92.0559 72.9245 92.043 72.8274C92.0365 72.7562 92.03 72.6979 92.03 72.6332L92.0042 72.4843L92.03 71.7657C92.03 71.688 92.0365 71.6363 92.043 71.5715C92.0753 71.3838 92.1012 71.2284 92.1336 71.0925C92.1724 70.9371 92.2112 70.7559 92.2694 70.5811C92.3212 70.4257 92.3859 70.2703 92.4636 70.1279C92.5541 69.9596 92.6512 69.7719 92.7741 69.5971C92.91 69.4094 93.0588 69.2346 93.2206 69.0663C93.3824 68.9044 93.5506 68.762 93.6865 68.6584C93.8223 68.5549 93.9582 68.4707 94.0941 68.3866C94.23 68.3089 94.3529 68.2312 94.5017 68.16C94.5859 68.1211 94.6635 68.0888 94.7347 68.0564L94.7929 68.0435C94.8964 68.0046 95 67.9658 95.1035 67.9269C95.1617 67.9075 95.207 67.8946 95.2458 67.8881L95.3688 68.0953L95.3041 67.8752L95.7182 67.7651C95.7829 67.7522 95.8476 67.7392 95.9123 67.7263C95.9964 67.7133 96.087 67.7004 96.1711 67.6874C96.294 67.668 96.4235 67.6551 96.5464 67.6356C96.6176 67.6227 96.6758 67.6162 96.734 67.6162H97.3811C97.5623 67.6162 97.7434 67.6162 97.9246 67.6227C98.0605 67.6292 98.1834 67.6421 98.2999 67.6615C98.3452 67.668 98.384 67.6745 98.4293 67.6809L98.824 67.7263C98.9599 67.7457 99.0763 67.7586 99.1863 67.778C99.2834 67.791 99.3675 67.8169 99.4452 67.8363L99.6134 67.8752C99.6328 67.8816 99.6651 67.8816 99.691 67.8881L99.7751 67.9075C99.8657 67.9205 99.9757 67.9399 100.079 67.9787C100.196 68.0176 100.312 68.0694 100.416 68.1147L100.519 68.16C100.759 68.2636 100.933 68.4189 101.063 68.5419C101.231 68.7038 101.36 68.8915 101.445 69.0986C101.503 69.2411 101.567 69.4417 101.555 69.6748V69.746C101.555 69.8625 101.548 70.0179 101.49 70.1862C101.386 70.484 101.231 70.7105 101.017 70.8853C100.869 71.0083 100.694 71.099 100.487 71.1637C100.319 71.2155 100.137 71.2414 99.9304 71.2414C99.8463 71.2414 99.7687 71.2349 99.6975 71.2349C99.5293 71.222 99.3999 71.1961 99.2704 71.1637C99.2122 71.1507 99.154 71.1313 99.0957 71.1184L99.0505 71.1054C98.9793 71.086 98.921 71.0666 98.8693 71.0536C98.8175 71.0472 98.7658 71.0342 98.714 71.0278C98.6169 71.0083 98.5522 71.0019 98.4811 70.9824C98.274 70.9371 98.0346 70.9112 97.737 70.9112C97.6399 70.9112 97.5428 70.9177 97.4134 70.9177C97.3099 70.9177 97.1934 70.9371 97.0576 70.963C96.9734 70.9824 96.844 71.0083 96.7405 71.0472C96.5464 71.1249 96.404 71.209 96.2746 71.3061C96.1517 71.4032 96.0417 71.5327 95.9511 71.688C95.8994 71.7787 95.8605 71.8887 95.8152 72.0506C95.757 72.2642 95.7376 72.5102 95.7505 72.8209C95.757 72.8856 95.7635 72.9504 95.7764 73.0281L95.8023 73.1964C95.8152 73.2805 95.8282 73.3582 95.8476 73.4359C95.8541 73.4747 95.867 73.5136 95.8864 73.5589L95.9317 73.7013C95.9511 73.7596 95.9576 73.7855 95.9641 73.8049L96.0029 73.8696C96.0352 73.9538 96.0676 74.0315 96.1064 74.1027C96.1905 74.2775 96.2746 74.4328 96.3588 74.5752C96.4299 74.6853 96.5076 74.8018 96.6176 74.9442C96.7146 75.0672 96.8182 75.1902 96.9411 75.3262L96.9799 75.365C97.1287 75.5333 97.2646 75.6822 97.407 75.8117C97.5234 75.9217 97.6528 76.0253 97.7887 76.1353L97.8922 76.2195C98.054 76.349 98.2028 76.4655 98.3516 76.5755C98.5134 76.6921 98.6752 76.8021 98.8369 76.9122L98.9405 76.9769C99.0505 77.0546 99.1799 77.1387 99.3157 77.2229C99.4128 77.2812 99.5163 77.3394 99.6199 77.3977L99.7557 77.4689C99.9175 77.566 100.086 77.6566 100.247 77.7473C100.396 77.8249 100.513 77.8897 100.616 77.9479L100.817 78.045C100.901 78.0839 100.985 78.1292 101.069 78.168C101.115 78.1875 101.16 78.2133 101.212 78.2328C101.393 78.3234 101.58 78.414 101.762 78.55C102.02 78.7442 102.195 78.9772 102.286 79.2491C102.35 79.4368 102.376 79.631 102.37 79.8188C102.363 80.013 102.318 80.1813 102.273 80.3431C102.227 80.4985 102.176 80.6539 102.117 80.8027C102.079 80.9063 102.046 80.9646 102.02 81.0293L101.775 81.5472Z" fill="#A80C3D"/>
<path d="M100.397 74.6071C100.299 74.6071 100.196 74.6006 100.099 74.6006C99.963 74.6006 99.8336 74.5877 99.7106 74.5747L99.6459 74.5682C99.4907 74.5488 99.3418 74.5294 99.206 74.51C99.083 74.4906 98.9407 74.4711 98.7983 74.4452C98.6495 74.4194 98.5071 74.387 98.3713 74.3546C98.3001 74.3352 98.2354 74.3158 98.1772 74.2964C98.1383 74.2834 98.0995 74.2769 98.0607 74.264C98.0348 74.2575 98.0089 74.251 97.983 74.2446C97.9248 74.2316 97.8536 74.2187 97.7825 74.1928C97.666 74.1475 97.5236 74.0957 97.3878 74.018C97.2131 73.9209 97.0513 73.7849 96.9089 73.6166C96.8054 73.4936 96.7213 73.3512 96.6631 73.1894C96.5919 73.0146 96.5725 72.8269 96.5854 72.6132C96.5984 72.4514 96.6437 72.3025 96.7278 72.1342C96.8184 71.9529 96.9413 71.8041 97.1031 71.6875C97.226 71.6034 97.3489 71.5516 97.4654 71.5063C97.6466 71.4351 97.8213 71.4286 97.9572 71.4286C98.0089 71.4286 98.0672 71.4286 98.1189 71.4286C98.1448 71.4286 98.1771 71.4286 98.203 71.4286C98.3001 71.4286 98.3907 71.448 98.4618 71.4674C98.4877 71.4739 98.5071 71.4804 98.533 71.4869C98.5783 71.4933 98.6171 71.5063 98.6624 71.5127C98.766 71.5386 98.8695 71.5581 98.9665 71.584C99.0054 71.5904 99.0507 71.6034 99.0895 71.6098C99.1542 71.6293 99.2254 71.6422 99.2965 71.6616C99.3483 71.6746 99.413 71.6811 99.4712 71.6875L99.5359 71.694C99.6654 71.7134 99.7883 71.7328 99.9177 71.7458H99.9306C99.9824 71.7458 100.041 71.7458 100.092 71.7458C100.215 71.7523 100.338 71.7523 100.461 71.7458C100.526 71.7458 100.597 71.7264 100.675 71.7134C100.714 71.707 100.746 71.7005 100.785 71.694L100.83 71.6875C100.882 71.6811 100.934 71.6746 100.972 71.6616C101.044 71.6422 101.128 71.6163 101.225 71.5904C101.309 71.5645 101.38 71.5322 101.445 71.5063C101.49 71.4869 101.529 71.4674 101.561 71.4415L101.6 71.4156C101.697 71.3509 101.788 71.2926 101.865 71.2214C101.943 71.1567 102.014 71.0725 102.098 70.9431C102.15 70.8654 102.195 70.7748 102.254 70.6518C102.279 70.5935 102.299 70.5288 102.318 70.4446C102.351 70.3151 102.376 70.1792 102.396 70.0756C102.396 70.0627 102.396 70.0238 102.396 69.9979V69.985C102.396 69.9462 102.396 69.9008 102.396 69.862C102.396 69.7455 102.396 69.6354 102.389 69.5189C102.383 69.4542 102.37 69.383 102.364 69.3118C102.357 69.2729 102.351 69.2405 102.344 69.2017L102.338 69.1434C102.331 69.0917 102.325 69.0463 102.318 69.001C102.299 68.9169 102.279 68.8457 102.26 68.7745C102.221 68.6579 102.189 68.5673 102.156 68.4831C102.118 68.386 102.072 68.2889 102.021 68.1918L101.995 68.14C101.956 68.0494 101.917 67.9717 101.872 67.9005C101.814 67.797 101.742 67.6934 101.671 67.5833C101.561 67.428 101.477 67.3114 101.393 67.2079C101.27 67.059 101.173 66.9489 101.076 66.8518L101.056 66.8259C100.882 66.6447 100.714 66.4699 100.532 66.3145C100.377 66.1786 100.215 66.0491 100.041 65.9196C99.9759 65.8678 99.9112 65.8161 99.8401 65.7643C99.7624 65.6995 99.6848 65.6413 99.6071 65.5895C99.5295 65.5312 99.4454 65.4794 99.3612 65.4276L99.2642 65.3629C99.2318 65.337 99.193 65.3176 99.1607 65.2917C99.0765 65.2399 98.9989 65.1817 98.9213 65.1363C98.8048 65.0651 98.6948 65.0004 98.5848 64.9357C98.5266 64.9033 98.4683 64.8709 98.4166 64.8386C98.3842 64.8191 98.3454 64.7932 98.3066 64.7738C98.2483 64.735 98.1901 64.7026 98.1319 64.6702C98.0672 64.6314 98.0024 64.599 97.9313 64.5667L97.7501 64.4696C97.6725 64.4307 97.6013 64.3854 97.5236 64.3466C97.4072 64.2883 97.2842 64.23 97.1678 64.1653C97.116 64.1394 97.0707 64.12 97.0189 64.0941C96.9542 64.0617 96.8895 64.0294 96.8248 63.997C96.7213 63.9452 96.6048 63.887 96.4884 63.8222C96.3201 63.7316 96.1778 63.6086 96.0613 63.4726C95.9513 63.3432 95.8801 63.1878 95.8349 63.026C95.7766 62.8124 95.796 62.6052 95.809 62.4498C95.8154 62.3333 95.8478 62.2297 95.8801 62.1391C95.8866 62.1197 95.8931 62.0938 95.8996 62.0744C95.9254 61.9837 95.9578 61.8931 95.9966 61.7895C96.016 61.7377 96.0419 61.686 96.0613 61.6342C96.0743 61.6018 96.0872 61.5759 96.1001 61.5435C96.1066 61.5241 96.126 61.4918 96.1325 61.4788L96.2748 61.1875C96.2748 61.1875 96.3719 61.2199 96.5078 61.2652C96.5143 61.2652 96.8184 61.3817 96.8831 61.4011C96.9801 61.44 97.0772 61.4723 97.1742 61.5112C97.2648 61.5435 97.3489 61.5889 97.4331 61.6277C97.4783 61.6471 97.5236 61.673 97.5689 61.686C97.6207 61.7054 97.6725 61.7313 97.7177 61.7507C97.7889 61.7766 97.8536 61.809 97.9248 61.8413L97.9377 61.8478C98.1319 61.9384 98.3324 62.0291 98.5266 62.1197C98.6236 62.165 98.7142 62.2168 98.8048 62.2621C98.8565 62.2945 98.9148 62.3204 98.9665 62.3463C99.0248 62.3722 99.083 62.4045 99.1348 62.4304C99.2254 62.4757 99.3224 62.5275 99.413 62.5728C99.4777 62.6052 99.5424 62.644 99.6006 62.6829C99.6395 62.7088 99.6783 62.7282 99.7171 62.7541C99.7624 62.78 99.8077 62.8059 99.8595 62.8318C99.9242 62.8641 99.9889 62.8965 100.047 62.9353C100.228 63.0389 100.422 63.1554 100.617 63.272C100.817 63.395 101.011 63.5244 101.186 63.641C101.328 63.7381 101.477 63.8352 101.619 63.9387C101.691 63.9905 101.755 64.0423 101.826 64.0941L101.904 64.1524C101.936 64.1783 101.969 64.1977 102.001 64.2236C102.079 64.2818 102.156 64.3401 102.234 64.4048C102.493 64.6185 102.739 64.8321 102.991 65.0457C103.172 65.2075 103.341 65.3694 103.496 65.5248C103.658 65.6931 103.806 65.8678 103.955 66.0362L104.001 66.0944C104.091 66.198 104.208 66.3339 104.318 66.4764C104.421 66.6188 104.518 66.7612 104.622 66.9166C104.712 67.0525 104.783 67.169 104.848 67.2855C104.919 67.4085 104.984 67.538 105.055 67.674C105.113 67.7905 105.178 67.9135 105.23 68.0429C105.262 68.1142 105.288 68.1854 105.308 68.2501C105.314 68.276 105.327 68.3019 105.333 68.3278L105.353 68.386C105.372 68.4443 105.398 68.5026 105.418 68.5608C105.437 68.6061 105.45 68.6579 105.456 68.7032C105.463 68.7421 105.469 68.7745 105.482 68.8133C105.495 68.8716 105.508 68.9233 105.521 68.9687C105.579 69.1564 105.605 69.3376 105.625 69.5124C105.625 69.5383 105.631 69.5642 105.631 69.5966C105.638 69.6678 105.651 69.7455 105.651 69.8296L105.657 69.9203C105.663 70.1015 105.676 70.2828 105.67 70.4705C105.67 70.5935 105.651 70.71 105.638 70.8201C105.631 70.8589 105.625 70.8978 105.618 70.9431L105.612 70.9819C105.605 71.0531 105.592 71.1308 105.579 71.2085C105.566 71.2668 105.553 71.325 105.541 71.3703C105.534 71.3898 105.528 71.4092 105.521 71.4221L105.508 71.4739C105.502 71.4998 105.495 71.5257 105.489 71.5516C105.443 71.7134 105.385 71.9012 105.288 72.0824C105.269 72.1277 105.243 72.1666 105.223 72.2054L105.211 72.3155L105.133 72.3802C105.107 72.4255 105.088 72.4708 105.062 72.5226C104.971 72.6715 104.868 72.8074 104.764 72.9304C104.609 73.1247 104.441 73.293 104.253 73.4419C104.227 73.4613 104.208 73.4807 104.182 73.5066C104.13 73.5454 104.078 73.5907 104.013 73.6361C103.871 73.7332 103.735 73.8238 103.58 73.9079C103.405 73.9921 103.211 74.0892 102.985 74.1798C102.894 74.2187 102.804 74.2446 102.726 74.264C102.694 74.2705 102.668 74.2834 102.635 74.2899L102.532 74.3223C102.441 74.3481 102.351 74.3805 102.26 74.4064C102.202 74.4258 102.15 74.4323 102.105 74.4388C102.085 74.4452 102.066 74.4452 102.046 74.4452C101.988 74.4582 101.936 74.4647 101.878 74.4776L101.833 74.4841C101.814 74.4906 101.794 74.497 101.775 74.497L101.639 74.5165C101.574 74.5229 101.509 74.5294 101.445 74.5359C101.238 74.5618 101.018 74.5682 100.739 74.5682C100.636 74.6071 100.519 74.6071 100.397 74.6071Z" fill="white"/>
<path d="M101.438 74.3424C101.503 74.336 101.574 74.3295 101.639 74.323L102.079 74.2453C102.131 74.2389 102.176 74.2324 102.228 74.2194C102.286 74.2065 102.344 74.1871 102.402 74.1677L102.694 74.0835C102.778 74.0641 102.849 74.0382 102.92 74.0058C103.14 73.9087 103.328 73.8246 103.496 73.7339C103.645 73.6562 103.774 73.5721 103.904 73.4815C103.955 73.4426 104.001 73.4103 104.039 73.3714C104.078 73.339 104.098 73.3196 104.13 73.2937C104.298 73.1578 104.46 73.0024 104.609 72.8212C104.693 72.7111 104.796 72.5816 104.887 72.4392C104.9 72.4133 104.919 72.381 104.932 72.3486L105.036 72.1414C105.055 72.0961 105.081 72.0508 105.101 72.0055C105.185 71.8437 105.236 71.6753 105.288 71.52L105.333 71.3452C105.353 71.2869 105.366 71.2416 105.372 71.1963C105.385 71.1251 105.398 71.0539 105.405 70.9827C105.411 70.8985 105.418 70.8532 105.424 70.8144C105.437 70.7173 105.456 70.6137 105.456 70.4972C105.456 70.3159 105.45 70.1411 105.443 69.9663L105.437 69.8692C105.431 69.798 105.424 69.7268 105.418 69.6556L105.411 69.6103C105.385 69.4031 105.366 69.2348 105.314 69.073C105.295 69.0212 105.288 68.9629 105.269 68.8917L105.249 68.7882C105.236 68.7493 105.23 68.7105 105.217 68.6652L105.107 68.3544C105.081 68.2832 105.062 68.225 105.036 68.1667C104.984 68.0567 104.932 67.9466 104.881 67.843C104.796 67.6747 104.732 67.5517 104.661 67.4287C104.596 67.3187 104.525 67.2022 104.441 67.0792C104.337 66.9238 104.246 66.7814 104.143 66.6454C104.033 66.503 103.923 66.3735 103.839 66.2764L103.794 66.2247C103.638 66.0434 103.489 65.8751 103.341 65.7132C103.192 65.5579 103.036 65.4025 102.855 65.2472C102.609 65.0271 102.364 64.8199 102.105 64.6063C102.034 64.548 101.956 64.4898 101.878 64.4315L101.665 64.2697C101.613 64.2308 101.561 64.192 101.509 64.1531C101.361 64.0496 101.218 63.9525 101.076 63.8554C100.908 63.7453 100.714 63.6158 100.513 63.4928C100.325 63.3763 100.131 63.2598 99.9501 63.1562C99.8983 63.1238 99.8465 63.098 99.7948 63.0721L99.5101 62.9102C99.4389 62.8649 99.3807 62.8325 99.3224 62.8002C99.2318 62.7549 99.1413 62.7095 99.0507 62.6642L98.7077 62.4894C98.6236 62.4441 98.533 62.3988 98.436 62.3535C98.2548 62.2693 98.0801 62.1852 97.8989 62.1075L97.8472 62.0816C97.7631 62.0428 97.6984 62.0169 97.6336 61.991L97.4784 61.9198C97.4331 61.9004 97.3878 61.8809 97.3425 61.855C97.2584 61.8162 97.1807 61.7774 97.0966 61.7515C97.0319 61.7256 96.9607 61.6997 96.8895 61.6738L96.8054 61.6414C96.6825 61.5961 96.456 61.5119 96.4366 61.5055C96.4237 61.499 96.4107 61.499 96.3978 61.4925L96.2813 61.7385C96.2554 61.7903 96.236 61.8421 96.2166 61.8939C96.1778 61.991 96.1519 62.0751 96.126 62.1593L96.1066 62.224C96.0807 62.3147 96.0549 62.3923 96.0484 62.483C96.0355 62.6319 96.0225 62.8066 96.0678 62.975C96.1066 63.1109 96.1649 63.2339 96.2554 63.3375C96.3525 63.454 96.469 63.5511 96.6178 63.6288C96.7084 63.6806 96.799 63.7259 96.8831 63.7647L97.2842 63.9654C97.4137 64.0301 97.5301 64.0884 97.6401 64.1467L98.0478 64.3603C98.1319 64.4056 98.1966 64.438 98.2548 64.4703C98.313 64.5027 98.3713 64.5415 98.436 64.5739L98.7724 64.7681C98.8695 64.8264 98.9601 64.8846 99.0571 64.9364C99.1154 64.9688 99.1736 65.0076 99.2383 65.0529L99.5036 65.2277C99.6136 65.2989 99.6848 65.3443 99.756 65.396C99.8336 65.4478 99.9112 65.5126 99.9954 65.5773L100.189 65.7262C100.364 65.8621 100.532 65.9916 100.688 66.1276C100.869 66.2829 101.037 66.4512 101.212 66.6325L101.251 66.6713C101.348 66.7749 101.451 66.8914 101.581 67.0403C101.671 67.1504 101.762 67.2734 101.872 67.4352C101.949 67.5453 102.027 67.6618 102.085 67.7718C102.131 67.8495 102.169 67.9401 102.215 68.0308L102.241 68.0826C102.292 68.1926 102.338 68.2897 102.376 68.3868C102.409 68.471 102.448 68.5681 102.486 68.6975C102.512 68.7752 102.532 68.8529 102.551 68.9435C102.564 68.9953 102.571 69.0536 102.577 69.1054L102.603 69.2672C102.616 69.3449 102.629 69.429 102.635 69.4938C102.642 69.5909 102.642 69.688 102.642 69.7916V69.9728C102.642 70.0311 102.642 70.0829 102.635 70.1023C102.616 70.2059 102.59 70.3483 102.558 70.4842C102.532 70.5813 102.506 70.6655 102.48 70.7302C102.422 70.8662 102.37 70.9697 102.312 71.0604C102.208 71.2093 102.124 71.3128 102.034 71.3905C101.949 71.4617 101.852 71.5265 101.749 71.5977L101.71 71.6236C101.658 71.6559 101.606 71.6818 101.548 71.7077C101.477 71.7401 101.399 71.766 101.309 71.7983C101.205 71.8307 101.121 71.8566 101.044 71.876C100.992 71.889 100.934 71.8955 100.875 71.9084L100.72 71.9343C100.617 71.9537 100.545 71.9667 100.481 71.9667C100.416 71.9667 100.351 71.9731 100.287 71.9731L99.8271 71.9602L99.4518 71.9278C99.3677 71.9149 99.3095 71.9084 99.2577 71.8954C99.193 71.8825 99.1283 71.8631 99.0571 71.8501L98.4101 71.7012C98.3454 71.6883 98.2742 71.6689 98.203 71.6689H98.1189C98.0672 71.6689 98.0154 71.6689 97.9636 71.6689C97.8472 71.6689 97.7048 71.6753 97.556 71.7271C97.4525 71.766 97.349 71.8113 97.2519 71.876C97.1225 71.9667 97.019 72.0897 96.9478 72.2385C96.8766 72.381 96.8378 72.5104 96.8313 72.6399C96.8184 72.8147 96.8378 72.9701 96.8895 73.1189C96.9413 73.2549 97.0125 73.3779 97.0966 73.4815C97.2195 73.6304 97.3619 73.7469 97.5107 73.831C97.6336 73.8958 97.7631 73.9476 97.8731 73.9929C97.9313 74.0123 97.9895 74.0252 98.0413 74.0382C98.0672 74.0447 98.0995 74.0511 98.1319 74.0576L98.2289 74.0835C98.313 74.1094 98.3713 74.1288 98.436 74.1418C98.5654 74.1676 98.7077 74.2 98.8501 74.2259C98.986 74.2518 99.1218 74.2712 99.2448 74.2906C99.3677 74.3101 99.523 74.3295 99.6718 74.3424L99.7301 74.3489C99.853 74.3619 99.9759 74.3748 100.099 74.3748C100.189 74.3748 100.28 74.3748 100.371 74.3748L100.759 74.3813C101.031 74.3813 101.238 74.3683 101.438 74.3424ZM100.455 74.8409H100.39C100.274 74.8409 100.183 74.8409 100.092 74.8409C99.9501 74.8409 99.8077 74.8279 99.6783 74.8085L99.6201 74.8021C99.4648 74.7826 99.303 74.7632 99.1736 74.7438C99.0442 74.7244 98.9019 74.705 98.7595 74.6791C98.6107 74.6467 98.4619 74.6208 98.326 74.5884C98.2548 74.569 98.1836 74.5496 98.1189 74.5302L97.9442 74.4849C97.8731 74.4654 97.7889 74.4525 97.7113 74.4201C97.5819 74.3683 97.4331 74.3101 97.2842 74.2324C97.0837 74.1223 96.9025 73.967 96.7407 73.7728C96.6178 73.6303 96.5272 73.462 96.456 73.2808C96.3784 73.0736 96.346 72.8535 96.3654 72.6075C96.3784 72.4198 96.4301 72.2385 96.5272 72.0443C96.6307 71.8307 96.786 71.6495 96.9801 71.507C97.1225 71.4035 97.2648 71.3517 97.3942 71.2999C97.6919 71.1898 97.9248 71.2028 98.1319 71.2093H98.216C98.3389 71.2093 98.4425 71.2416 98.5201 71.2546L98.5848 71.274C98.6107 71.2805 98.6495 71.2869 98.6819 71.2934L99.1413 71.397C99.2189 71.4164 99.2771 71.4294 99.3418 71.4423C99.3871 71.4553 99.4324 71.4553 99.4842 71.4682L99.9565 71.5329H99.9889H100.287C100.345 71.5329 100.403 71.5329 100.455 71.5329C100.5 71.5329 100.552 71.52 100.61 71.5135L100.804 71.4811C100.849 71.4747 100.895 71.4682 100.934 71.4617C100.998 71.4423 101.069 71.4229 101.16 71.397C101.231 71.3711 101.302 71.3452 101.361 71.3193C101.393 71.3064 101.419 71.2934 101.445 71.274L101.484 71.2481C101.574 71.1898 101.658 71.1316 101.729 71.0668C101.788 71.0151 101.846 70.9503 101.924 70.8338C101.969 70.7691 102.008 70.6914 102.053 70.5813C102.079 70.5295 102.092 70.4778 102.105 70.413C102.137 70.2835 102.163 70.1541 102.176 70.057V70.0246V69.8239C102.176 69.7333 102.176 69.6427 102.169 69.5585C102.163 69.5067 102.156 69.442 102.144 69.3773L102.118 69.2089C102.111 69.1636 102.105 69.1183 102.098 69.0795C102.079 69.0083 102.066 68.9371 102.046 68.8723C102.008 68.7687 101.982 68.6781 101.949 68.6004C101.911 68.5098 101.872 68.4192 101.826 68.3285L101.794 68.2703C101.755 68.1926 101.723 68.1149 101.684 68.0437C101.626 67.9466 101.561 67.843 101.49 67.7459C101.387 67.597 101.302 67.4805 101.218 67.3769C101.102 67.2345 101.011 67.1245 100.921 67.0338L101.05 66.8332L100.882 66.995C100.714 66.8267 100.558 66.6649 100.384 66.5095C100.235 66.38 100.073 66.257 99.9048 66.1276L99.7042 65.9722C99.6265 65.9075 99.5554 65.8557 99.4777 65.8039C99.413 65.7586 99.3483 65.7132 99.2836 65.6744L98.9795 65.4737C98.9213 65.4349 98.8695 65.396 98.8113 65.3637C98.7142 65.3054 98.6236 65.2536 98.533 65.1954L98.1901 64.9947C98.1319 64.9623 98.0801 64.93 98.0219 64.8976C97.9636 64.8652 97.9119 64.8393 97.8601 64.807L97.4266 64.5739C97.3166 64.5156 97.2001 64.4639 97.0901 64.4056L96.6696 64.1984C96.579 64.1531 96.4819 64.1013 96.3849 64.0496C96.1907 63.946 96.0225 63.8036 95.8866 63.6417C95.7572 63.4864 95.6666 63.3051 95.6149 63.1109C95.5437 62.8584 95.5631 62.6254 95.5761 62.4635C95.589 62.3147 95.6278 62.1917 95.6537 62.101H95.8931L95.6731 62.0363C95.699 61.9392 95.7313 61.8421 95.7766 61.732C95.796 61.6803 95.8219 61.622 95.8413 61.5702L96.1713 60.9229L96.3654 60.9941C96.3654 60.9941 96.4625 61.0264 96.5919 61.0717C96.5919 61.0717 96.8443 61.1624 96.9478 61.2012L97.0578 61.2465C97.129 61.2724 97.2001 61.2983 97.2713 61.3242C97.3619 61.3631 97.4525 61.4019 97.5366 61.4407C97.5884 61.4666 97.6336 61.486 97.6725 61.5055L97.8213 61.5702C97.8925 61.6026 97.9636 61.6285 98.0348 61.6608L98.0995 61.6867C98.2807 61.7709 98.4683 61.855 98.6495 61.9392C98.7466 61.9845 98.8436 62.0363 98.9342 62.0881L99.2642 62.2564C99.3613 62.3017 99.4518 62.347 99.5424 62.3988C99.6136 62.4377 99.6783 62.4765 99.743 62.5153L99.9889 62.6578C100.073 62.7031 100.131 62.7354 100.189 62.7678C100.371 62.8714 100.565 62.9879 100.759 63.1109C100.959 63.2404 101.16 63.3698 101.335 63.4799C101.477 63.577 101.632 63.6806 101.775 63.7841C101.833 63.823 101.891 63.8683 101.949 63.9136L102.15 64.069C102.234 64.1337 102.318 64.192 102.402 64.2632C102.661 64.4768 102.914 64.6904 103.159 64.9105C103.347 65.0788 103.515 65.2407 103.677 65.4025C103.839 65.5708 103.988 65.7456 104.13 65.9075L104.195 65.9787C104.285 66.0822 104.408 66.2247 104.518 66.38C104.628 66.5224 104.725 66.6713 104.835 66.8332C104.926 66.9691 105.003 67.0921 105.068 67.2086C105.139 67.3381 105.211 67.4676 105.282 67.6035C105.353 67.7524 105.411 67.8625 105.463 67.9854C105.495 68.0567 105.515 68.1214 105.541 68.1861L105.657 68.5163C105.676 68.5681 105.696 68.6263 105.709 68.6846L105.735 68.8011C105.741 68.8529 105.754 68.8917 105.767 68.9306C105.832 69.1377 105.858 69.3384 105.877 69.5261L105.657 69.6362L105.883 69.6038C105.896 69.6815 105.903 69.7657 105.909 69.8498L105.916 69.9404C105.929 70.1282 105.935 70.3159 105.929 70.5101C105.929 70.6396 105.909 70.7691 105.89 70.8856C105.883 70.9244 105.877 70.9633 105.877 71.0021C105.864 71.1251 105.858 71.2028 105.838 71.2869C105.825 71.3581 105.806 71.4164 105.793 71.4682L105.553 71.4617L105.78 71.52L105.741 71.6559C105.696 71.8307 105.631 72.0314 105.521 72.2321C105.508 72.258 105.495 72.2839 105.482 72.3162L105.463 72.4716L105.353 72.5687C105.327 72.6205 105.314 72.6464 105.288 72.6852C105.185 72.8535 105.075 72.9959 104.978 73.1189C104.809 73.3261 104.622 73.5138 104.428 73.6692L104.363 73.721C104.298 73.7792 104.24 73.8246 104.169 73.8699C104.02 73.967 103.878 74.0641 103.716 74.1482C103.535 74.2389 103.334 74.336 103.108 74.4331C103.017 74.4719 102.92 74.4978 102.836 74.5237L102.538 74.6143C102.474 74.6337 102.409 74.6532 102.351 74.6726C102.279 74.692 102.221 74.6985 102.163 74.7114L102.072 74.4913L102.118 74.7179L101.904 74.7632C101.898 74.7697 101.865 74.7762 101.826 74.7826L101.691 74.7956C101.626 74.8021 101.561 74.8085 101.497 74.815C101.277 74.8409 101.05 74.8538 100.759 74.8538C100.655 74.8409 100.558 74.8409 100.455 74.8409Z" fill="#A80C3D"/>
<path d="M116.65 92.2871V87.3672H117.459V91.3808L119.775 87.3672H120.811V92.2871H120.002V88.2735L117.685 92.2871H116.65Z" fill="#231F20"/>
<path d="M122.299 91.9501C121.93 91.6588 121.73 91.2445 121.697 90.7072H122.513C122.538 91.0697 122.668 91.3287 122.914 91.484C123.153 91.6394 123.457 91.7236 123.82 91.7236C124.208 91.7236 124.505 91.6394 124.712 91.4776C124.92 91.3093 125.023 91.1021 125.023 90.8496C125.023 90.6036 124.945 90.4094 124.784 90.267C124.628 90.1246 124.357 90.0599 123.975 90.0599H123.321V89.406H123.845C124.13 89.406 124.376 89.3478 124.577 89.2313C124.784 89.1147 124.881 88.9076 124.881 88.6163C124.881 88.435 124.797 88.2732 124.622 88.1308C124.447 87.9948 124.188 87.9236 123.845 87.9236C123.703 87.9236 123.554 87.943 123.412 87.9689C123.27 88.0013 123.14 88.0531 123.03 88.1243C122.914 88.1955 122.823 88.2861 122.745 88.3962C122.668 88.5127 122.623 88.6486 122.603 88.817H121.788C121.807 88.5127 121.878 88.2602 122.008 88.0595C122.137 87.8589 122.293 87.7035 122.48 87.587C122.668 87.4705 122.888 87.3863 123.127 87.3345C123.367 87.2827 123.613 87.2568 123.858 87.2568C124.111 87.2568 124.35 87.2827 124.57 87.3345C124.79 87.3863 124.984 87.464 125.152 87.574C125.321 87.6841 125.457 87.82 125.554 87.9883C125.651 88.1567 125.702 88.3509 125.702 88.5774C125.702 88.8623 125.618 89.0953 125.463 89.2701C125.301 89.4449 125.12 89.5549 124.913 89.6002V89.6197C125.03 89.6391 125.14 89.6779 125.256 89.7362C125.372 89.7945 125.47 89.8721 125.56 89.9692C125.651 90.0663 125.722 90.1893 125.78 90.3318C125.838 90.4742 125.871 90.6425 125.871 90.8302C125.871 91.0956 125.812 91.3287 125.702 91.5229C125.586 91.7171 125.437 91.8789 125.243 92.0084C125.055 92.1379 124.835 92.2285 124.596 92.2932C124.35 92.358 124.098 92.3903 123.839 92.3903C123.179 92.3903 122.668 92.2414 122.299 91.9501Z" fill="#231F20"/>
<path d="M130.2 91.5746V88.0854H128.239V88.5062C128.239 88.8169 128.22 89.1276 128.187 89.4319C128.155 89.7426 128.103 90.0274 128.051 90.3058C127.993 90.5777 127.935 90.8237 127.864 91.0438C127.799 91.2639 127.734 91.4451 127.67 91.5746H130.2ZM126.253 93.7756V91.5681H126.835C126.906 91.4322 126.977 91.2509 127.049 91.0179C127.12 90.7848 127.184 90.5324 127.249 90.2475C127.307 89.9627 127.359 89.6649 127.398 89.3477C127.437 89.0305 127.456 88.7198 127.456 88.4155V87.3604H131.008V91.5617H131.675V93.7691H130.905V92.2737H127.029V93.7691H126.253V93.7756Z" fill="#231F20"/>
<path d="M134.657 91.575C134.845 91.5038 135 91.4132 135.123 91.3031C135.246 91.1931 135.33 91.0701 135.389 90.9406C135.447 90.8112 135.473 90.6882 135.473 90.5781V89.7495C135.376 89.8337 135.24 89.8919 135.078 89.9178C134.916 89.9502 134.742 89.9761 134.56 90.002C134.379 90.0279 134.198 90.0538 134.01 90.0796C133.829 90.1055 133.661 90.1509 133.519 90.2156C133.37 90.2803 133.253 90.371 133.163 90.4875C133.072 90.604 133.027 90.7658 133.027 90.9665C133.027 91.1025 133.053 91.2125 133.111 91.3031C133.163 91.3938 133.234 91.4715 133.318 91.5232C133.402 91.5815 133.506 91.6203 133.616 91.6462C133.732 91.6721 133.849 91.6851 133.978 91.6851C134.237 91.6851 134.463 91.6462 134.657 91.575ZM133.163 92.3195C132.969 92.2742 132.794 92.1965 132.645 92.08C132.496 91.9699 132.38 91.8275 132.296 91.6527C132.212 91.4779 132.166 91.2708 132.166 91.0248C132.166 90.7464 132.212 90.5198 132.309 90.3386C132.406 90.1638 132.529 90.0149 132.684 89.9049C132.839 89.7948 133.014 89.7107 133.214 89.6524C133.415 89.5941 133.622 89.5488 133.829 89.51C134.049 89.4647 134.263 89.4323 134.463 89.4129C134.664 89.3935 134.839 89.3611 134.987 89.3158C135.143 89.2769 135.259 89.2122 135.35 89.1345C135.434 89.0568 135.479 88.9403 135.479 88.7849C135.479 88.6102 135.447 88.4677 135.382 88.3577C135.317 88.2476 135.233 88.17 135.123 88.1117C135.02 88.0534 134.903 88.0146 134.774 87.9952C134.644 87.9758 134.515 87.9693 134.392 87.9693C134.049 87.9693 133.764 88.034 133.538 88.1635C133.312 88.293 133.189 88.539 133.169 88.9015H132.36C132.373 88.5972 132.438 88.3383 132.548 88.1311C132.664 87.924 132.813 87.7557 133.007 87.6262C133.195 87.4967 133.415 87.4061 133.661 87.3478C133.907 87.2896 134.166 87.2637 134.444 87.2637C134.664 87.2637 134.884 87.2831 135.104 87.309C135.324 87.3414 135.518 87.4061 135.699 87.5032C135.88 87.6003 136.023 87.7427 136.126 87.9175C136.23 88.0923 136.288 88.3253 136.288 88.6102V91.1413C136.288 91.329 136.301 91.4715 136.32 91.5621C136.34 91.6527 136.417 91.698 136.54 91.698C136.599 91.698 136.683 91.6851 136.786 91.6527V92.2806C136.644 92.3648 136.456 92.4036 136.204 92.4036C135.997 92.4036 135.829 92.3454 135.706 92.2289C135.583 92.1123 135.524 91.9181 135.524 91.6527C135.298 91.9181 135.046 92.1123 134.748 92.2289C134.45 92.3454 134.133 92.4036 133.79 92.4036C133.57 92.3907 133.357 92.3648 133.163 92.3195Z" fill="#231F20"/>
<path d="M138.721 92.2871V88.0857H136.968V87.3672H141.29V88.0857H139.53V92.2871H138.721Z" fill="#231F20"/>
<path d="M145.217 88.8166C145.146 88.6483 145.049 88.4994 144.92 88.3764C144.797 88.2534 144.654 88.1563 144.486 88.0851C144.318 88.0139 144.13 87.975 143.93 87.975C143.723 87.975 143.535 88.0139 143.367 88.0851C143.199 88.1563 143.056 88.2599 142.933 88.3829C142.817 88.5123 142.72 88.6612 142.649 88.8295C142.577 88.9978 142.539 89.1726 142.526 89.3668H145.347C145.334 89.1662 145.288 88.9849 145.217 88.8166ZM142.991 92.1958C142.694 92.0663 142.448 91.8915 142.254 91.6649C142.06 91.4384 141.911 91.1665 141.814 90.8493C141.717 90.5321 141.665 90.189 141.665 89.8135C141.665 89.4445 141.723 89.1079 141.833 88.7907C141.95 88.48 142.111 88.2081 142.312 87.975C142.519 87.7485 142.765 87.5672 143.043 87.4442C143.328 87.3147 143.632 87.25 143.969 87.25C144.409 87.25 144.771 87.3406 145.056 87.5219C145.347 87.7031 145.573 87.9362 145.748 88.2081C145.923 88.4864 146.039 88.7907 146.11 89.1208C146.175 89.451 146.201 89.7617 146.188 90.0595H142.513C142.506 90.2731 142.532 90.4803 142.59 90.6745C142.649 90.8687 142.739 91.037 142.862 91.1859C142.991 91.3348 143.153 91.4513 143.347 91.5419C143.541 91.6326 143.774 91.6779 144.04 91.6779C144.383 91.6779 144.661 91.6002 144.881 91.4384C145.101 91.283 145.25 91.0435 145.314 90.7133H146.117C146.007 91.2701 145.774 91.6908 145.405 91.9627C145.036 92.2411 144.577 92.377 144.014 92.377C143.632 92.39 143.289 92.3252 142.991 92.1958Z" fill="#231F20"/>
<path d="M146.738 92.3192C146.647 92.3062 146.576 92.2933 146.518 92.2803V91.5682C146.582 91.5877 146.641 91.6006 146.692 91.6071C146.751 91.6136 146.796 91.6136 146.848 91.6136C147.055 91.6136 147.216 91.5294 147.326 91.3676C147.436 91.2057 147.52 90.9533 147.572 90.6102C147.624 90.2671 147.656 89.8269 147.669 89.296C147.682 88.7587 147.695 88.1243 147.708 87.3799H151.157V92.2933H150.348V88.092H148.485C148.465 88.6681 148.446 89.2119 148.42 89.7298C148.4 90.2476 148.342 90.6943 148.252 91.0827C148.161 91.4711 148.019 91.7754 147.825 92.002C147.63 92.2285 147.346 92.3451 146.977 92.3451C146.912 92.3451 146.828 92.3321 146.738 92.3192Z" fill="#231F20"/>
<path d="M155.745 90.7522C155.745 90.2149 155.408 89.943 154.729 89.943H153.24V91.5679H154.729C155.408 91.5744 155.745 91.296 155.745 90.7522ZM152.432 92.2864V87.373H153.24V89.2568H154.987C155.466 89.2568 155.855 89.3863 156.146 89.6517C156.437 89.9171 156.579 90.2861 156.579 90.7587C156.579 91.2248 156.443 91.5938 156.165 91.8721C155.887 92.1505 155.505 92.2929 155.026 92.2929H152.432V92.2864Z" fill="#231F20"/>
<path d="M158.501 92.2094C158.21 92.0929 157.971 91.9181 157.776 91.698C157.582 91.4779 157.433 91.2125 157.343 90.9083C157.246 90.604 157.194 90.2674 157.194 89.8919C157.194 89.5229 157.239 89.1798 157.336 88.8626C157.433 88.5454 157.576 88.2606 157.77 88.0275C157.964 87.788 158.203 87.6068 158.495 87.4708C158.779 87.3349 159.122 87.2637 159.517 87.2637C159.795 87.2637 160.06 87.296 160.3 87.3608C160.546 87.4255 160.759 87.5291 160.947 87.6715C161.135 87.8139 161.29 87.9887 161.406 88.2023C161.523 88.416 161.607 88.6684 161.633 88.9597H160.798C160.733 88.649 160.604 88.4095 160.397 88.2347C160.196 88.0664 159.925 87.9758 159.582 87.9758C159.291 87.9758 159.045 88.0275 158.851 88.1376C158.656 88.2476 158.501 88.3901 158.378 88.5648C158.262 88.7396 158.178 88.9468 158.126 89.1798C158.074 89.4129 158.048 89.6524 158.048 89.8984C158.048 90.125 158.074 90.3451 158.126 90.5652C158.178 90.7788 158.262 90.973 158.378 91.1413C158.495 91.3096 158.637 91.4456 158.818 91.5491C158.999 91.6527 159.219 91.698 159.478 91.698C159.879 91.698 160.19 91.5944 160.416 91.3808C160.643 91.1737 160.779 90.8759 160.83 90.5004H161.659C161.568 91.1154 161.342 91.588 160.986 91.9117C160.623 92.2353 160.125 92.4036 159.491 92.4036C159.116 92.3907 158.786 92.326 158.501 92.2094Z" fill="#231F20"/>
<path d="M162.558 92.2871V87.3672H163.367V89.7171L165.618 87.3672H166.692L164.518 89.5034L166.951 92.2871H165.916L163.865 89.9436L163.367 90.4292V92.2871H162.558Z" fill="#231F20"/>
<path d="M169.779 91.575C169.967 91.5038 170.128 91.4132 170.245 91.3031C170.361 91.1931 170.452 91.0701 170.51 90.9406C170.568 90.8112 170.594 90.6882 170.594 90.5781V89.7495C170.491 89.8337 170.361 89.8919 170.193 89.9178C170.025 89.9437 169.857 89.9761 169.676 90.002C169.494 90.0279 169.313 90.0538 169.126 90.0796C168.944 90.1055 168.776 90.1509 168.634 90.2156C168.485 90.2803 168.369 90.371 168.278 90.4875C168.187 90.604 168.136 90.7658 168.136 90.9665C168.136 91.1025 168.161 91.2125 168.22 91.3031C168.271 91.3938 168.343 91.4715 168.427 91.5232C168.517 91.5815 168.614 91.6203 168.731 91.6462C168.841 91.6721 168.964 91.6851 169.093 91.6851C169.365 91.6851 169.591 91.6462 169.779 91.575ZM168.291 92.3195C168.097 92.2742 167.922 92.1965 167.773 92.08C167.624 91.9699 167.508 91.8275 167.424 91.6527C167.34 91.4779 167.294 91.2708 167.294 91.0248C167.294 90.7464 167.34 90.5198 167.437 90.3386C167.534 90.1638 167.657 90.0149 167.812 89.9049C167.967 89.7948 168.142 89.7107 168.343 89.6524C168.543 89.5941 168.744 89.5488 168.957 89.51C169.177 89.4647 169.391 89.4323 169.591 89.4129C169.792 89.3935 169.967 89.3611 170.116 89.3158C170.271 89.2769 170.387 89.2122 170.478 89.1345C170.568 89.0568 170.614 88.9403 170.614 88.7849C170.614 88.6102 170.581 88.4677 170.517 88.3577C170.452 88.2476 170.368 88.17 170.258 88.1117C170.154 88.0534 170.031 88.0146 169.902 87.9952C169.773 87.9758 169.643 87.9693 169.52 87.9693C169.177 87.9693 168.893 88.034 168.666 88.1635C168.44 88.293 168.31 88.539 168.291 88.9015H167.482C167.495 88.5972 167.56 88.3383 167.67 88.1311C167.786 87.924 167.935 87.7557 168.123 87.6262C168.317 87.4967 168.53 87.4061 168.776 87.3478C169.022 87.2896 169.281 87.2637 169.559 87.2637C169.779 87.2637 169.999 87.2831 170.219 87.309C170.439 87.3414 170.633 87.4061 170.814 87.5032C170.996 87.6003 171.138 87.7427 171.241 87.9175C171.345 88.0923 171.403 88.3253 171.403 88.6102V91.1413C171.403 91.329 171.416 91.4715 171.436 91.5621C171.461 91.6527 171.533 91.698 171.662 91.698C171.72 91.698 171.804 91.6851 171.908 91.6527V92.2806C171.765 92.3648 171.578 92.4036 171.326 92.4036C171.118 92.4036 170.95 92.3454 170.827 92.2289C170.704 92.1123 170.646 91.9181 170.646 91.6527C170.426 91.9181 170.167 92.1123 169.87 92.2289C169.572 92.3454 169.255 92.4036 168.912 92.4036C168.692 92.3907 168.485 92.3648 168.291 92.3195Z" fill="#231F20"/>
<path d="M175.732 89.6977V88.0793H174.308C173.965 88.0793 173.72 88.1505 173.571 88.2994C173.415 88.4418 173.344 88.6425 173.344 88.8885C173.344 89.1409 173.422 89.3416 173.571 89.484C173.72 89.6264 173.972 89.6977 174.308 89.6977H175.732ZM172.083 92.2871L173.7 90.3644C173.351 90.3126 173.066 90.1573 172.846 89.8854C172.62 89.62 172.51 89.2833 172.51 88.8755C172.51 88.4159 172.645 88.0469 172.924 87.775C173.202 87.5031 173.577 87.3672 174.05 87.3672H176.541V92.2806H175.732V90.3903H174.658L173.157 92.2806H172.083V92.2871Z" fill="#231F20"/>
<path d="M147.805 101.045V96.125H151.17V96.8371H148.614V101.045H147.805Z" fill="#231F20"/>
<path d="M154.864 100.282C155.052 100.172 155.207 100.029 155.317 99.8544C155.434 99.6796 155.512 99.4725 155.563 99.2459C155.615 99.0193 155.641 98.7863 155.641 98.5403C155.641 98.3137 155.609 98.0936 155.55 97.8735C155.492 97.6534 155.395 97.4592 155.272 97.2909C155.149 97.1226 154.987 96.9802 154.8 96.8831C154.606 96.7795 154.379 96.7342 154.12 96.7342C153.849 96.7342 153.616 96.786 153.428 96.896C153.24 97.0061 153.079 97.142 152.962 97.3168C152.839 97.4916 152.749 97.6858 152.697 97.9124C152.645 98.1325 152.619 98.359 152.619 98.5856C152.619 98.8251 152.645 99.0582 152.703 99.2847C152.762 99.5113 152.852 99.7055 152.975 99.8803C153.098 100.049 153.253 100.191 153.454 100.295C153.648 100.398 153.887 100.45 154.166 100.45C154.444 100.444 154.67 100.392 154.864 100.282ZM151.843 102.916V96.1257H152.652V96.7924H152.671C152.807 96.5206 153.014 96.3199 153.299 96.1969C153.583 96.0739 153.9 96.0156 154.243 96.0156C154.625 96.0156 154.955 96.0804 155.24 96.2228C155.518 96.3587 155.757 96.5529 155.945 96.786C156.133 97.019 156.275 97.2974 156.366 97.6081C156.463 97.9188 156.508 98.249 156.508 98.5986C156.508 98.9546 156.463 99.2848 156.372 99.589C156.281 99.8933 156.139 100.165 155.952 100.398C155.764 100.631 155.531 100.812 155.246 100.942C154.962 101.078 154.638 101.143 154.263 101.143C154.133 101.143 153.997 101.13 153.855 101.104C153.706 101.078 153.564 101.039 153.415 100.981C153.273 100.923 153.13 100.845 153.001 100.748C152.872 100.651 152.762 100.528 152.671 100.385H152.652V102.91H151.843V102.916Z" fill="#231F20"/>
<path d="M157.666 102.98C157.569 102.968 157.479 102.942 157.388 102.909V102.171C157.466 102.197 157.543 102.223 157.621 102.249C157.699 102.275 157.783 102.288 157.867 102.288C158.035 102.288 158.165 102.249 158.268 102.171C158.372 102.094 158.456 101.984 158.533 101.841L158.863 101.013L156.916 96.125H157.828L159.265 100.145H159.284L160.662 96.125H161.516L159.375 101.686C159.277 101.925 159.187 102.132 159.096 102.294C159.006 102.463 158.902 102.599 158.792 102.702C158.682 102.806 158.559 102.883 158.423 102.929C158.288 102.974 158.132 103 157.951 103C157.854 103 157.763 102.993 157.666 102.98Z" fill="#231F20"/>
<path d="M162.202 101.045V96.125H166.207V101.045H165.399V96.8371H163.004V101.045H162.202Z" fill="#231F20"/>
<path d="M167.424 101.045V96.125H171.435V101.045H170.627V96.8371H168.233V101.045H167.424Z" fill="#231F20"/>
<path d="M174.871 100.334C175.059 100.263 175.214 100.166 175.337 100.055C175.46 99.9454 175.544 99.8224 175.602 99.6929C175.661 99.5635 175.687 99.4405 175.687 99.3239V98.4953C175.583 98.5795 175.454 98.6378 175.285 98.6701C175.117 98.7025 174.949 98.7284 174.768 98.7543C174.587 98.7802 174.405 98.8061 174.218 98.832C174.037 98.8579 173.868 98.9032 173.726 98.9614C173.577 99.0262 173.461 99.1168 173.37 99.2333C173.273 99.3498 173.234 99.5117 173.234 99.7124C173.234 99.8483 173.26 99.9584 173.312 100.049C173.364 100.14 173.435 100.211 173.525 100.269C173.61 100.327 173.713 100.366 173.823 100.392C173.933 100.418 174.056 100.431 174.185 100.431C174.457 100.444 174.684 100.405 174.871 100.334ZM173.383 101.078C173.189 101.033 173.014 100.949 172.865 100.839C172.717 100.729 172.6 100.586 172.51 100.411C172.425 100.237 172.38 100.03 172.38 99.7771C172.38 99.4987 172.425 99.2722 172.522 99.0909C172.62 98.9096 172.742 98.7737 172.898 98.6572C173.053 98.5471 173.228 98.463 173.428 98.4047C173.629 98.3465 173.829 98.3011 174.043 98.2623C174.263 98.217 174.477 98.1846 174.677 98.1652C174.878 98.1458 175.052 98.1134 175.208 98.0681C175.357 98.0292 175.479 97.9645 175.57 97.8868C175.661 97.8091 175.699 97.6926 175.699 97.5437C175.699 97.3689 175.667 97.2265 175.596 97.1165C175.531 97.0064 175.447 96.9288 175.344 96.8705C175.24 96.8122 175.124 96.7734 174.994 96.754C174.865 96.7345 174.735 96.7281 174.606 96.7281C174.263 96.7281 173.978 96.7928 173.752 96.9223C173.525 97.0517 173.402 97.2977 173.383 97.6603H172.574C172.587 97.356 172.652 97.0971 172.762 96.8899C172.878 96.6828 173.027 96.5144 173.221 96.385C173.409 96.2555 173.629 96.1584 173.875 96.1066C174.121 96.0484 174.379 96.0225 174.658 96.0225C174.878 96.0225 175.098 96.0354 175.318 96.0678C175.538 96.1001 175.732 96.1649 175.913 96.262C176.088 96.3591 176.23 96.5015 176.34 96.6763C176.45 96.8511 176.502 97.0841 176.502 97.369V99.9001C176.502 100.088 176.515 100.23 176.534 100.321C176.554 100.411 176.631 100.457 176.754 100.457C176.812 100.457 176.896 100.444 177 100.411V101.039C176.858 101.124 176.67 101.162 176.418 101.162C176.211 101.162 176.042 101.104 175.919 100.988C175.797 100.871 175.732 100.677 175.732 100.411C175.512 100.677 175.253 100.871 174.955 100.988C174.664 101.104 174.341 101.162 173.998 101.162C173.791 101.149 173.577 101.124 173.383 101.078Z" fill="#231F20"/>
<path d="M49.2995 91.3663C49.4224 90.7643 49.2865 90.0845 48.8918 89.9227C48.7689 89.8256 48.4518 89.8515 48.2836 90.1104C47.6236 91.1656 46.5107 93.7421 47.4554 93.9233C48.6524 94.1823 49.1118 92.2985 49.2995 91.3663ZM52.4829 98.0728C51.8229 97.1925 51.6418 96.2991 51.3571 95.464C51.2535 95.1598 51.1306 94.726 51.0271 94.7455C50.93 94.7584 50.8782 94.8879 50.7812 95.0756C49.9012 96.7587 47.5718 98.3836 45.9931 98.0728C44.6407 97.8074 43.9225 96.2603 44.0066 94.862C44.149 92.428 44.576 90.3111 45.9607 88.2655C47.7077 85.6826 50.16 85.5919 52.0106 88.1295C52.0494 88.1813 52.1206 88.2525 52.1659 88.2461C54.2429 87.7541 54.2364 89.5796 54.2105 90.8873C54.1846 92.2532 54.3982 93.399 54.8511 94.6225C55.317 95.9042 55.5952 96.3509 55.8087 97.0371C56.0222 97.7233 55.7958 98.0405 54.9805 98.4613C53.8676 99.0957 53.1364 98.9532 52.4829 98.0728Z" fill="#42B23C"/>
<path d="M56.7988 92.4478C56.7729 89.3664 59.0699 86.0973 61.7099 85.4693C63.0104 85.1586 64.518 86.272 64.8221 88.4213C65.0486 89.9619 64.4663 90.8423 62.9522 90.6417C62.1434 90.5316 62.0722 89.8648 61.9687 89.1657C61.9493 89.0362 61.8393 88.8615 61.5546 89.0103C60.3058 89.6512 59.4905 92.1241 60.1246 93.4059C60.8105 94.7977 62.234 95.089 63.0492 93.736C63.7092 92.5772 64.0263 92.2018 64.9192 92.5643C66.168 93.0757 66.1745 93.6001 65.8509 94.4546C65.3851 95.6781 63.6057 97.6007 61.3669 97.8467C58.9923 97.9049 56.8247 95.3479 56.7988 92.4478Z" fill="#42B23C"/>
<path d="M116.411 70.9697L117.666 69.6815C118.637 70.5748 119.523 71.1316 120.921 71.1316C122.81 71.1316 124.24 69.7592 124.544 67.9207H119.556V66.2505H124.525C124.195 64.4574 122.765 63.1368 120.921 63.1368C119.633 63.1368 118.65 63.6611 117.757 64.4574L116.644 63.1238C117.692 62.1398 118.902 61.376 120.901 61.376C124.253 61.376 126.621 63.9848 126.621 67.1309C126.621 70.3612 124.221 72.8859 120.979 72.8859C118.889 72.8794 117.556 72.1803 116.411 70.9697Z" fill="#A80C3D"/>
<path d="M174.509 67.1251C174.509 64.9629 172.937 63.1698 170.724 63.1698C168.517 63.1698 166.978 64.9305 166.978 67.1251C166.978 69.2872 168.55 71.0804 170.756 71.0804C172.969 71.0804 174.509 69.3131 174.509 67.1251ZM164.933 67.1251C164.933 63.9919 167.346 61.3701 170.763 61.3701C174.179 61.3701 176.56 63.9595 176.56 67.1251C176.56 70.2582 174.147 72.88 170.73 72.88C167.314 72.88 164.933 70.2841 164.933 67.1251Z" fill="#A80C3D"/>
<path d="M151.934 72.88V61.5449H154.069L157.168 65.5779L160.358 61.5449H162.455V72.88H160.112V65.7851L157.55 68.8406H156.806L154.308 65.7851V72.88H151.934Z" fill="#A80C3D"/>
<path d="M129.054 72.8788V61.5049H131.61V65.7709H132.186C132.186 65.7709 133.156 65.3501 133.441 64.4697C133.726 63.5958 134.936 61.5955 135.796 61.5955H137.563V63.9066H136.637C136.637 63.9066 135.887 63.9778 135.55 65.3437C135.266 66.496 134.534 66.7355 134.534 66.7355C134.534 66.7355 135.609 67.6871 137.42 71.0468C138.003 72.1279 138.358 72.8788 138.358 72.8788H135.744C135.744 72.8788 133.447 68.6581 132.386 68.2373C131.817 67.9331 131.526 68.0431 131.526 68.0431V72.8853H129.054V72.8788Z" fill="#A80C3D"/>
<path d="M141.717 71.9085C140.791 71.3324 140.021 70.4261 139.633 69.4874C138.863 67.6231 139.077 65.4026 140.164 63.7066C140.817 62.6838 141.717 61.8681 143.684 61.3373C146.796 60.7741 149.365 62.3212 149.365 62.3212V64.9495C149.365 64.9495 146.738 62.9815 144.434 63.6354C142.137 64.2892 141.866 65.7716 141.866 65.7716C141.866 65.7716 140.895 68.3092 142.985 69.7593C145.068 71.2094 147.003 70.2772 147.003 70.2772C147.003 70.2772 148.97 69.5198 149.365 69.099V71.7596C149.365 71.7532 145.56 74.1742 141.717 71.9085Z" fill="#A80C3D"/>
</svg>
