<svg width="221" height="161" viewBox="0 0 221 161" fill="none" xmlns="http://www.w3.org/2000/svg">
<g clip-path="url(#clip0_909_492)">
<path fill-rule="evenodd" clip-rule="evenodd" d="M94.7993 81.0871V91.0285H101.398V81.8954C99.1449 81.6779 96.9455 81.4071 94.7993 81.083V81.0871ZM118.862 82.4763V91.0285H125.306V82.1527C123.196 82.3071 121.048 82.4149 118.862 82.4763Z" fill="#27578A"/>
<path fill-rule="evenodd" clip-rule="evenodd" d="M74.6493 61.1313C74.5138 61.1408 74.3783 61.153 74.2347 61.1652H74.2482L74.358 61.1557L74.5206 61.1422L74.6439 61.1341L74.6493 61.1313ZM74.0789 61.1801L73.8079 61.2112L73.9597 61.1936L74.0748 61.1801H74.0789ZM73.5369 61.2478C73.4014 61.2668 73.2659 61.2871 73.1305 61.3087L73.2659 61.2884L73.4041 61.2708L73.5315 61.2532L73.5369 61.2478ZM72.995 61.3317L72.7836 61.371L72.8662 61.3548L72.995 61.3317ZM71.3677 61.7L71.1672 61.7583L71.258 61.7312L71.3677 61.7ZM70.7472 61.8883H70.735H70.7431H70.7472ZM70.5019 61.9709L70.4667 61.983L70.4952 61.9736H70.5019V61.9709ZM69.1023 62.5287C69.0265 62.5626 68.9506 62.5978 68.8761 62.6343L69.0115 62.5721L69.105 62.5287H69.1023ZM68.7622 62.6885L68.601 62.767L68.6376 62.7494L68.7622 62.6885ZM67.845 63.1665L67.6309 63.2897L67.7 63.2491L67.845 63.1665ZM62.0013 68.9632C61.8536 69.2177 61.714 69.4791 61.584 69.7418C60.2281 72.4426 59.7263 75.4918 60.1452 78.4843C60.5641 81.4769 61.8839 84.2714 63.9293 86.4968C67.6905 90.6361 73.2537 92.3273 78.4769 91.4391C79.5629 91.2358 80.6249 90.9209 81.646 90.4993C85.3456 89.0691 88.361 86.2841 90.0789 82.7108H83.0023C82.0741 83.6944 80.9538 84.477 79.7106 85.0102C78.4675 85.5433 77.128 85.8156 75.7752 85.8103C70.3814 85.8103 66.0064 81.5707 66.0064 76.3441C66.005 74.9864 66.3049 73.6453 66.8843 72.4174C65.1545 71.4201 63.5215 70.2637 62.0067 68.9632H62.0013ZM66.8871 72.4038V72.3903L66.8776 72.4092L66.8871 72.4038ZM66.8965 72.3822V72.3916V72.3822ZM66.9101 72.374V72.3632V72.374ZM66.9169 72.3591V72.3469V72.3551V72.3591ZM66.9169 72.3497V72.3334L66.9087 72.3524L66.9169 72.3497ZM66.9358 72.2874V72.2792L66.9264 72.2968L66.9358 72.2874ZM73.6358 75.6441C74.4135 75.9487 76.3456 76.7341 76.7521 76.8735C79.2262 77.7361 81.8818 78.5146 84.6945 79.1998H71.5764L73.6358 75.6441Z" fill="#27578A"/>
<path fill-rule="evenodd" clip-rule="evenodd" d="M159.386 80.6065C158.018 85.1236 154.521 88.9325 149.708 90.6413C147.947 91.2726 146.09 91.5934 144.22 91.5892C137.496 91.5892 131.754 87.5013 129.504 81.752L129.512 81.7723C131.655 81.5466 133.746 81.2731 135.785 80.9517L135.766 80.9179C136.093 81.4751 136.476 81.9974 136.91 82.4764C140.461 86.4113 146.634 86.8094 150.695 83.3687C152.012 82.2612 152.999 80.8134 153.549 79.1834H144.705C150.472 77.7779 155.583 75.9783 159.81 73.8768C159.856 74.1549 159.892 74.4334 159.92 74.7123V74.7299C160.034 75.8421 160.021 76.9636 159.882 78.073C159.788 78.9285 159.621 79.7742 159.382 80.601L159.386 80.6065ZM159.759 73.583L159.775 73.671V73.6534V73.6358V73.6033V73.5857L159.759 73.583ZM159.775 73.6886L159.783 73.736V73.69L159.775 73.6886ZM159.783 73.7374V73.7563V73.7414V73.7374ZM159.783 73.759V73.778V73.7604V73.759ZM159.783 73.778V73.8051V73.7766V73.778ZM159.79 73.8159L159.798 73.866V73.8484V73.8159H159.79ZM159.798 73.8674V73.8768V73.8633V73.8674ZM129.481 81.7208C129.447 81.6328 129.413 81.5435 129.381 81.45C129.413 81.538 129.447 81.6274 129.481 81.7208ZM129.345 81.3742C129.316 81.2916 129.287 81.2077 129.259 81.1251L129.344 81.3715L129.345 81.3742ZM129.21 80.9815C129.17 80.8615 129.132 80.741 129.096 80.62L129.141 80.7676L129.21 80.9815ZM129.095 80.6146C129.074 80.5496 129.057 80.486 129.038 80.421C129.057 80.486 129.074 80.5496 129.095 80.6146ZM128.656 78.7067L128.644 78.6309L128.654 78.6973V78.7067H128.656ZM128.596 78.3005L128.589 78.2423V78.2531L128.596 78.3005ZM134.791 78.5754L134.8 78.6147L134.808 78.6417L134.791 78.5754ZM134.883 78.9031V78.9247V78.9058V78.9031ZM134.987 79.228L134.999 79.2646V79.2781L134.983 79.228H134.987ZM135.067 79.4542L135.079 79.4853L135.066 79.4501L135.067 79.4542ZM135.086 79.507L135.096 79.5286V79.5422L135.081 79.507H135.086ZM135.185 79.7534L135.2 79.7913V79.7981L135.182 79.7534H135.185ZM135.222 79.8441L135.232 79.8685L135.223 79.8468L135.222 79.8441ZM135.434 80.3086L135.452 80.3451L135.461 80.3627L135.434 80.3086ZM135.694 80.8028L135.701 80.815L135.72 80.8461L135.694 80.8028Z" fill="#27578A"/>
<path fill-rule="evenodd" clip-rule="evenodd" d="M125.306 82.153C123.196 82.3082 121.049 82.4161 118.864 82.4766V71.9678L110.709 81.1604H109.556L101.398 71.9678V81.8889C99.1449 81.6723 96.9455 81.4015 94.7993 81.0765V61.7339H100.422L110.131 72.6015L119.838 61.7339H125.306V82.153Z" fill="#02477A"/>
<path fill-rule="evenodd" clip-rule="evenodd" d="M75.7753 61.0935C75.6777 61.0935 75.5815 61.0935 75.484 61.0935H75.446L75.2076 61.1003H75.0843H74.9162L74.8106 61.107L74.6439 61.1355L74.5206 61.1436L74.358 61.1571L74.2483 61.1666L74.0789 61.1829L73.9637 61.1964L73.8052 61.2154L73.6792 61.2303L73.5315 61.2506L73.4042 61.2709L73.2592 61.2925L73.1237 61.3142L72.9882 61.3372L72.8595 61.3602L72.7145 61.3873L72.579 61.4131L72.4435 61.4401L72.3081 61.4686L72.1726 61.4997L72.0588 61.5227L71.9084 61.5593L71.7878 61.5877L71.636 61.627L71.5276 61.6554L71.3813 61.6961L71.2594 61.7313L71.1103 61.7773L71.0046 61.8125L70.8312 61.8667L70.7472 61.8937C70.6632 61.9208 70.5806 61.9493 70.4993 61.9777L70.3258 62.0386L70.2472 62.0671L70.0562 62.1375L70.002 62.1578L69.8367 62.2187L69.7419 62.2553L69.6199 62.3067L69.4966 62.3582L69.3706 62.4123L69.2568 62.4624L69.1213 62.5234L69.0156 62.5721L68.8802 62.6344L68.7731 62.6845L68.6376 62.7495L68.5306 62.8023L68.3951 62.8687L68.2921 62.9228L68.1566 62.9932L68.0604 63.0447L67.9249 63.1219L67.845 63.1666L67.7 63.2491L67.612 63.3006L67.4765 63.3818L67.3952 63.4306L67.2448 63.5227L67.1919 63.5565L67.0212 63.6662L66.9955 63.6838C66.9318 63.7258 66.8681 63.7664 66.8058 63.8097L66.7909 63.8192C66.3808 64.0954 65.9861 64.3902 65.6067 64.7034L65.5728 64.7305L65.4197 64.8564L65.3669 64.9011C65.3113 64.9485 65.2558 64.9959 65.2016 65.0446L65.1813 65.0622L65.0227 65.2044L64.9834 65.2396L64.8358 65.375L64.7965 65.4116L64.6488 65.547L64.6095 65.5849L64.474 65.7203L64.4279 65.7663L64.2857 65.9112L64.2572 65.9396L64.1109 66.094L64.077 66.1306L63.9348 66.2863L63.9117 66.3107L63.7613 66.4813L63.7505 66.4935C63.6976 66.553 63.6462 66.614 63.596 66.6735L63.5865 66.6844C63.0479 67.3262 62.5625 68.0109 62.1354 68.7317L62.126 68.7479C62.0853 68.817 62.0447 68.8834 62.0054 68.9551C63.5198 70.2565 65.1528 71.4134 66.883 72.4107V72.4012V72.3876V72.3741V72.3578V72.347V72.3362V72.3199V72.3091V72.2928V72.282V72.2685C67.4755 71.1321 68.2917 70.1271 69.2826 69.3139C73.331 65.8598 79.5107 66.2402 83.0687 70.1629C83.9716 71.1471 84.6526 72.3135 85.0658 73.5833H74.8499L73.6521 75.6333C74.4298 75.938 76.3619 76.7233 76.7684 76.8628C79.2425 77.7253 81.8981 78.5039 84.7108 79.189H91.2144C91.3283 78.5895 91.4052 77.9836 91.4447 77.3746V77.315V77.2554V77.2487V77.2013V77.1417V77.0821L91.4528 76.8953V76.7274V75.8946V75.835V75.7755V75.7159V75.6563V75.5967V75.5453V75.4857V75.4275V75.3679V75.3516L91.4447 75.2487V75.1905V75.1309V75.0714V75.0118L91.4379 74.9536V74.9089V74.894L91.4312 74.8344V74.8114V74.7681V74.7098L91.423 74.6503V74.6069V74.5907L91.4163 74.5311V74.5121V74.4729L91.339 74.4052L91.3309 74.3456L91.3228 74.2874V74.2711V74.2278L91.3146 74.1696L91.3065 74.114L91.297 74.0558L91.2875 73.9962L91.2794 73.9421L91.2699 73.8825L91.2591 73.8229L91.2483 73.7647L91.2374 73.7065L91.2266 73.6469C91.0463 72.7019 90.774 71.7767 90.4136 70.8846C90.023 69.8541 89.5209 68.8693 88.9165 67.9477C87.4507 65.8215 85.4872 64.0856 83.1969 62.891C80.9065 61.6964 78.3587 61.0793 75.7753 61.0935Z" fill="#02477A"/>
<path fill-rule="evenodd" clip-rule="evenodd" d="M129.051 80.4225C129.034 80.3615 129.018 80.302 129.001 80.241L128.958 80.0772C128.938 80.0027 128.919 79.9282 128.901 79.8524L128.873 79.7306C128.852 79.6439 128.832 79.5572 128.813 79.4706L128.791 79.3704C128.772 79.2756 128.753 79.1808 128.736 79.086L128.721 79.0034C128.702 78.9032 128.686 78.8017 128.669 78.7015L128.658 78.6351C128.642 78.5282 128.626 78.4198 128.612 78.3129L128.604 78.2601C128.591 78.1463 128.577 78.0312 128.565 77.9161V77.889C128.553 77.7699 128.542 77.6507 128.532 77.5316V77.5045C128.523 77.3813 128.515 77.2581 128.508 77.1335V77.1227C128.501 76.9967 128.497 76.8694 128.493 76.7435V76.7313C128.493 76.5959 128.493 76.4741 128.493 76.3441C128.491 74.183 128.963 72.0478 129.875 70.0884C130.811 68.0396 132.19 66.2236 133.913 64.771C138.502 60.8808 144.767 60.0318 150.073 62.0629C150.645 62.3088 151.203 62.5869 151.743 62.8956C153.066 63.5851 154.283 64.4581 155.361 65.4887C156.182 66.3124 156.909 67.2247 157.529 68.2089C157.898 68.7728 158.228 69.3609 158.518 69.9692H151.448C150.52 68.9854 149.399 68.2027 148.156 67.6695C146.912 67.1364 145.573 66.8642 144.22 66.8698C143.34 66.8692 142.465 66.984 141.615 67.211C136.552 68.6111 133.544 73.6455 134.791 78.5756L134.8 78.6148L134.808 78.6419V78.6527L134.819 78.692V78.7069L134.826 78.7299L134.837 78.7678L134.846 78.803L134.856 78.8342L134.867 78.8721L134.873 78.8924V78.9114L134.884 78.9493V78.9574L134.894 78.9872L134.906 79.0224L134.918 79.0603L134.926 79.0847V79.0996L134.938 79.1375V79.1497L134.947 79.1754L134.959 79.2133L134.971 79.2499L134.98 79.2783V79.2878L134.993 79.3257V79.3419L135.001 79.3636L135.016 79.4069L135.028 79.4394L135.04 79.4706L135.055 79.5071L135.063 79.5288V79.5451L135.078 79.583V79.5924L135.089 79.6195L135.104 79.6561L135.119 79.694L135.129 79.7184V79.7306L135.144 79.7685V79.782L135.154 79.805L135.17 79.8429L135.185 79.8768L135.197 79.9066V79.9147L135.213 79.9513L135.222 79.9702L135.23 79.9892L135.246 80.0257V80.0325L135.261 80.0623L135.276 80.0962L135.293 80.1327L135.303 80.1544L135.311 80.1693L135.329 80.2058V80.2167L135.354 80.2708V80.2789L135.372 80.3155L135.386 80.3412V80.3521L135.405 80.3886L135.413 80.4035L135.424 80.4252L135.441 80.4617L135.457 80.4929L135.474 80.5227L135.494 80.5592L135.503 80.5782L135.513 80.5944L135.532 80.631V80.6391L135.562 80.6933L135.582 80.7298L135.594 80.7529L135.601 80.7651L135.623 80.8003L135.629 80.8138L135.643 80.8368L135.663 80.872L135.684 80.9059C133.644 81.2254 131.552 81.4989 129.408 81.7264V81.7061C129.368 81.6073 129.331 81.5084 129.294 81.4082L129.264 81.327C129.234 81.2444 129.206 81.1604 129.177 81.0765L129.134 80.9411C129.108 80.8666 129.085 80.7921 129.061 80.7177L129.016 80.5701C129.091 80.5579 129.072 80.4902 129.051 80.4225Z" fill="#02477A"/>
<path fill-rule="evenodd" clip-rule="evenodd" d="M159.81 73.8823C155.583 75.9838 150.474 77.7847 144.705 79.1888L141.828 79.1712L145.102 73.5654L151.795 73.583H159.759C159.777 73.6819 159.794 73.7821 159.81 73.8823Z" fill="#C9332E"/>
<path d="M68.5022 98.0874H70.4736V98.5071H68.5022V99.7691H70.7378V100.182H67.9941V96.5302H70.6768V96.9432H68.509V98.0874H68.5022ZM71.4193 96.5302H73.071C73.4327 96.5302 73.6929 96.5952 73.8487 96.7239C73.9921 96.8322 74.0977 96.9828 74.1508 97.1544C74.1675 97.2054 74.1784 97.2581 74.1833 97.3115C74.1886 97.3605 74.1913 97.4098 74.1915 97.4591C74.1961 97.5555 74.1815 97.6518 74.1485 97.7425C74.1155 97.8332 74.0647 97.9164 73.9991 97.9872C73.8816 98.1117 73.7298 98.1984 73.5628 98.2363V98.2512L73.6238 98.2621C73.6445 98.2651 73.6649 98.2701 73.6847 98.277C73.8617 98.3236 74.0227 98.4171 74.1508 98.5478C74.226 98.6294 74.2837 98.7256 74.3203 98.8304C74.3569 98.9352 74.3716 99.0464 74.3635 99.1571C74.3635 99.4848 74.2732 99.719 74.0926 99.8598C73.92 99.9974 73.7162 100.09 73.4991 100.131C73.4144 100.15 73.3283 100.162 73.2417 100.167C73.1563 100.167 73.0791 100.175 73.0073 100.175H71.4193V96.5302ZM71.9234 98.4895V99.7623H73.0615C73.2467 99.7563 73.4284 99.7101 73.594 99.6269C73.7552 99.5457 73.8365 99.3751 73.8365 99.1165C73.8445 99.0246 73.8289 98.9323 73.7912 98.8482C73.7535 98.7641 73.6949 98.691 73.6211 98.6358C73.4232 98.5231 73.1965 98.4712 72.9693 98.4868L71.9234 98.4895ZM71.9234 96.9432V98.0779H72.9395C73.2105 98.0779 73.3921 98.0265 73.495 97.9222C73.5914 97.8324 73.6533 97.7116 73.6698 97.581C73.6712 97.5688 73.6712 97.5566 73.6698 97.5444V97.5079C73.6698 97.4754 73.6698 97.4388 73.6698 97.3968C73.6639 97.3501 73.6511 97.3044 73.6319 97.2614C73.5884 97.1689 73.5187 97.0912 73.4314 97.038C73.2859 96.9607 73.1215 96.9259 72.9572 96.9378L71.9234 96.9432ZM75.2659 96.5302H76.801C77.2237 96.5302 77.5426 96.6169 77.7576 96.7902C77.8682 96.8877 77.9548 97.0094 78.0105 97.1459C78.0662 97.2824 78.0896 97.4299 78.0787 97.5769C78.0853 97.868 77.9894 98.1522 77.8077 98.3799C77.6271 98.6073 77.2775 98.7211 76.759 98.7211H75.7808V100.175H75.274V96.5302H75.2659ZM75.7726 96.9432V98.3081H76.6953C77.0332 98.3081 77.259 98.2386 77.3728 98.0996C77.4925 97.9558 77.5556 97.7733 77.5503 97.5864C77.5604 97.4891 77.5439 97.3909 77.5026 97.3022C77.4613 97.2135 77.3968 97.1377 77.3159 97.0827C77.1228 96.9819 76.906 96.9352 76.6886 96.9473L75.7726 96.9432ZM80.4173 100.284C79.8355 100.284 79.3911 100.109 79.084 99.7596C78.7769 99.4103 78.6234 98.9413 78.6234 98.3528C78.6234 97.766 78.7796 97.2975 79.0922 96.9473C79.4038 96.5979 79.8468 96.4219 80.4173 96.4219C80.9877 96.4219 81.4348 96.5979 81.7451 96.9473C82.0553 97.2966 82.2125 97.7597 82.2125 98.3528C82.2125 98.9459 82.0567 99.4144 81.7478 99.7596C81.4388 100.105 80.9958 100.278 80.4173 100.278V100.284ZM80.4173 99.8707C80.8463 99.8707 81.1624 99.7289 81.3657 99.4455C81.581 99.1229 81.6882 98.7402 81.6719 98.3528C81.6719 97.8743 81.5816 97.5273 81.4009 97.3115C81.2515 97.1146 81.046 96.9674 80.8115 96.8891C80.7441 96.8696 80.6752 96.8556 80.6056 96.8471C80.5408 96.8392 80.4757 96.8352 80.4105 96.8349C80.3265 96.8363 80.2428 96.8436 80.1598 96.8566C80.0479 96.8743 79.9392 96.9085 79.8374 96.9581C79.6432 97.0564 79.4803 97.2069 79.3672 97.3928C79.2254 97.604 79.154 97.924 79.1531 98.3528C79.1531 98.3948 79.1531 98.4381 79.1531 98.4882C79.1531 98.5383 79.1531 98.5762 79.1613 98.6236C79.1899 98.9346 79.2992 99.2328 79.4783 99.4888C79.659 99.7506 79.9688 99.8815 80.4078 99.8815L80.4173 99.8707ZM83.5525 96.9432V100.175H83.0471V96.5302H85.9669V100.175H85.4602V96.9432H83.5525ZM87.5183 98.0874H89.4897V98.5071H87.521V99.7691H89.7566V100.182H87.0129V96.5302H89.6956V96.9432H87.5278V98.0874H87.5183ZM90.9408 99.4631L92.9433 96.5302H93.4501V100.175H92.9433V97.2235L90.9408 100.175H90.4341V96.5302H90.9408V99.4631ZM91.0221 95.7056H91.4177C91.4307 95.8256 91.4877 95.9365 91.5776 96.017C91.6848 96.0917 91.8145 96.1271 91.9448 96.1172C92.0677 96.1264 92.19 96.0935 92.2916 96.0238C92.3617 95.9714 92.4153 95.9 92.4461 95.818C92.4528 95.799 92.4582 95.7795 92.4623 95.7598C92.4635 95.7417 92.4635 95.7236 92.4623 95.7056H92.8688C92.8688 95.7178 92.8688 95.73 92.8593 95.7422C92.8549 95.7541 92.8513 95.7663 92.8485 95.7787C92.8024 95.9415 92.7113 96.0879 92.5856 96.2012C92.4045 96.3438 92.176 96.4125 91.9461 96.3935C91.7541 96.4052 91.5629 96.3605 91.396 96.2648C91.2857 96.193 91.1931 96.0972 91.1251 95.9845C91.0974 95.9377 91.0755 95.8877 91.06 95.8356C91.0465 95.7913 91.0361 95.746 91.0289 95.7002L91.0221 95.7056ZM97.1571 98.9662H97.6801C97.6709 99.0494 97.6555 99.1317 97.634 99.2126C97.6077 99.3087 97.5723 99.4021 97.5283 99.4915C97.4164 99.7086 97.2526 99.8947 97.0514 100.033C96.8278 100.194 96.5027 100.276 96.0732 100.276C96.019 100.276 95.9065 100.267 95.7358 100.251C95.5475 100.23 95.3642 100.177 95.1938 100.094C94.9415 99.9701 94.7251 99.7836 94.5652 99.5525C94.3773 99.297 94.2829 98.9188 94.282 98.4178C94.282 98.3528 94.2888 98.2269 94.3023 98.04C94.32 97.8359 94.3679 97.6356 94.4446 97.4456C94.5577 97.1741 94.7348 96.9339 94.9608 96.7455C95.2047 96.5343 95.5696 96.4287 96.0555 96.4287C96.5189 96.4287 96.8613 96.5131 97.0826 96.6819C97.2823 96.8229 97.4379 97.0178 97.531 97.2438C97.5574 97.3133 97.5778 97.3848 97.592 97.4578C97.6056 97.5282 97.6164 97.5932 97.6232 97.6568H97.1056C97.1056 97.6175 97.0961 97.5769 97.088 97.5336C97.0791 97.4901 97.0664 97.4475 97.05 97.4063C96.9846 97.2506 96.8772 97.116 96.7398 97.0177C96.5371 96.8857 96.2968 96.8239 96.0555 96.8417C95.6166 96.8417 95.3004 96.9888 95.1071 97.2831C94.9036 97.6187 94.8033 98.0067 94.8185 98.3988C94.8153 98.7611 94.9247 99.1154 95.1315 99.413C95.3411 99.7154 95.6608 99.8666 96.0908 99.8666C96.2301 99.876 96.3699 99.8568 96.5015 99.8103C96.6332 99.7637 96.7539 99.6907 96.8563 99.5958C97.0268 99.4298 97.1325 99.2085 97.1544 98.9716L97.1571 98.9662ZM98.9794 98.1903L100.673 96.5302H101.291L99.5011 98.2147L101.407 100.175H100.742L98.9808 98.2797V100.175H98.4795V96.5302H98.9862V98.1903H98.9794ZM102.398 99.2316L102.043 100.179H101.501L102.925 96.5343H103.467L104.892 100.179H104.35L103.99 99.2316H102.398ZM102.533 98.8253H103.85L103.192 97.0326L102.544 98.8199L102.533 98.8253ZM107.858 98.7319H107L106.083 100.181H105.46L106.479 98.6818C106.409 98.6767 106.341 98.6663 106.273 98.6507C106.185 98.6297 106.099 98.5993 106.017 98.56C105.867 98.4884 105.736 98.3821 105.635 98.2499C105.507 98.0684 105.445 97.8485 105.46 97.627V97.5471C105.476 97.2894 105.579 97.0447 105.751 96.8525C105.933 96.6413 106.267 96.5356 106.758 96.5356H108.37V100.181H107.865V98.7319H107.858ZM107.858 96.9486H106.799C106.608 96.9352 106.418 96.9827 106.257 97.084C106.154 97.1566 106.075 97.2572 106.028 97.3738C106.012 97.4177 106 97.4631 105.992 97.5092C105.986 97.55 105.983 97.5912 105.983 97.6324C105.982 97.8078 106.046 97.9774 106.162 98.1091C106.282 98.2499 106.519 98.3203 106.874 98.3203H107.864V96.9432L107.858 96.9486ZM113.425 100.181L112.206 97.1206H112.195L112.206 97.256V100.178H111.698V96.5302H112.454L113.63 99.5308L114.806 96.5302H115.561V100.175H115.054V97.2533L115.069 97.1179H115.054L113.835 100.178L113.425 100.181ZM117.113 98.0928H119.085V98.5071H117.118V99.7691H119.353V100.182H116.609V96.5302H119.292V96.9432H117.118V98.0874L117.113 98.0928ZM123.045 99.7678H123.587L123.542 101.005H123.101V100.181H120.181V101.005H119.739L119.699 99.7678H120.039C120.309 99.4346 120.495 99.0412 120.581 98.6209C120.668 98.1814 120.717 97.7351 120.727 97.2871L120.747 96.5356H123.044V99.7678H123.045ZM122.538 96.9486H121.251L121.236 97.4009V97.4442C121.236 97.4605 121.236 97.4754 121.236 97.4889C121.227 97.776 121.203 98.1091 121.155 98.4828C121.095 98.8931 120.948 99.2858 120.724 99.6351C120.712 99.6554 120.697 99.6757 120.684 99.6987C120.67 99.7226 120.654 99.7457 120.638 99.7678H122.543V96.9432L122.538 96.9486ZM124.694 99.4685L126.697 96.5356H127.203V100.181H126.698V97.2289L124.695 100.181H124.189V96.5302H124.695V99.4631L124.694 99.4685ZM128.669 99.237L128.314 100.185H127.772L129.196 96.5397H129.738L131.162 100.185H130.62L130.261 99.237H128.669ZM128.805 98.8308H130.123L129.463 97.038L128.805 98.8308ZM132.217 96.9432V100.175H131.708V96.5302H134.107V96.9432H132.217ZM134.737 96.5302H136.268C136.69 96.5302 137.007 96.6169 137.216 96.7902C137.327 96.8872 137.415 97.0088 137.471 97.1454C137.527 97.282 137.55 97.4297 137.539 97.5769C137.545 97.8679 137.449 98.1519 137.268 98.3799C137.085 98.606 136.734 98.7211 136.218 98.7211H135.241V100.175H134.733V96.5302H134.737ZM135.245 96.9432V98.3081H136.166C136.505 98.3081 136.731 98.2386 136.844 98.0996C136.963 97.9558 137.026 97.7733 137.021 97.5864C137.031 97.4892 137.015 97.3911 136.974 97.3024C136.933 97.2138 136.869 97.1378 136.788 97.0827C136.594 96.9821 136.377 96.9354 136.159 96.9473L135.245 96.9432ZM139.595 98.7211L140.502 96.5302H141.023L139.751 99.5267C139.616 99.8463 139.467 100.044 139.303 100.116C139.144 100.187 138.972 100.224 138.799 100.224C138.744 100.224 138.69 100.222 138.636 100.216C138.587 100.212 138.538 100.204 138.49 100.194C138.471 100.192 138.452 100.188 138.434 100.182C138.416 100.178 138.397 100.175 138.379 100.175V99.7475L138.484 99.7745C138.521 99.7827 138.559 99.7908 138.595 99.7962C138.619 99.8002 138.643 99.803 138.667 99.8043H138.732H138.769C138.88 99.7957 138.987 99.7573 139.078 99.6933C139.203 99.5812 139.29 99.4324 139.326 99.2681L137.899 96.5302H138.513L139.597 98.7211H139.595ZM142.107 96.9432V100.175H141.601V96.5302H144.52V100.175H144.004V96.9432H142.107ZM145.92 96.9432V100.175H145.413V96.5302H148.332V100.175H147.825V96.9432H145.92ZM149.799 99.2316L149.444 100.179H148.902L150.326 96.5343H150.868L152.292 100.179H151.75L151.391 99.2316H149.799ZM149.935 98.8253H151.253L150.593 97.0326L149.935 98.8253Z" fill="#3C3C3B"/>
</g>
<defs>
<clipPath id="clip0_909_492">
<rect width="100" height="40" fill="white" transform="translate(60 61)"/>
</clipPath>
</defs>
</svg>
