<svg width="221" height="161" viewBox="0 0 221 161" fill="none" xmlns="http://www.w3.org/2000/svg">
<path fill-rule="evenodd" clip-rule="evenodd" d="M80.4125 95.1745L84.0227 98.8008H76.804L80.4125 95.1745ZM95.0243 80.5007L98.634 76.8768V84.1229L95.0243 80.5007ZM69.6372 69.5332H82.215L69.6372 82.166V69.5332ZM62.1938 62.2012H98.634V72.6457L90.8119 80.5007L98.634 88.3569V98.8008H88.264L80.4125 90.9157L72.5609 98.8002H62.1938V62.2012ZM91.4764 69.1708L93.7651 73.4899L92.425 74.8189L88.1306 72.4944L91.66 76.0209L89.8968 77.7929L83.465 71.3318L85.835 68.951L90.9014 71.9198L87.947 66.8311L90.3171 64.4509L96.7489 70.9103L94.9868 72.6782L91.4764 69.1708ZM82.3287 78.3594L83.1445 77.5412C83.3934 77.289 83.5267 77.049 83.5487 76.8107C83.5741 76.5352 83.4511 76.2633 83.1826 75.9925C82.9234 75.7304 82.6116 75.6626 82.2548 75.7983C82.0042 75.891 81.7381 76.0806 81.4563 76.3648L80.8998 76.9243L82.3287 78.3594ZM85.831 81.8755L83.8674 83.8446L77.4367 77.387L80.3218 74.4907C81.1584 73.6488 81.9956 73.2006 82.8333 73.1519C83.6295 73.1061 84.3685 73.4238 85.0475 74.1051C85.7663 74.8288 86.1202 75.5779 86.1075 76.359C86.0983 77.18 85.6664 78.019 84.8195 78.8708L83.8299 79.8646L85.831 81.8755ZM78.5857 84.7555L75.6481 83.0746L77.3473 85.9981L78.5857 84.7555ZM78.9361 88.7981L77.0158 90.7284L72.7289 82.115L74.726 80.1105L83.3021 84.414L81.3484 86.3773L80.267 85.7604L78.3126 87.7208L78.9361 88.7981ZM67.7515 93.5006C68.143 93.8949 68.5517 94.0659 68.9749 94.0114C69.2376 93.9737 69.5136 93.8496 69.7983 93.6351L67.7082 91.5373C67.4842 91.8567 67.3537 92.1316 67.3162 92.3606C67.2481 92.7613 67.3941 93.1434 67.7515 93.5006ZM71.543 89.694C71.1932 89.3379 70.83 89.1901 70.4599 89.2365C70.2376 89.2707 69.9513 89.4006 69.6031 89.6319L71.6932 91.728C71.9045 91.3975 72.0217 91.1134 72.0425 90.8762C72.084 90.4651 71.9189 90.0668 71.543 89.694ZM71.4489 95.294C70.412 96.0739 69.4276 96.4409 68.5015 96.3899C67.6257 96.3476 66.8075 95.9428 66.0448 95.178C65.2949 94.4254 64.9259 93.5759 64.9375 92.6285C64.9507 91.6857 65.311 90.7551 66.0194 89.8407L65.5304 89.3478L67.4657 87.4013L67.9732 87.8779C68.7504 87.0969 69.6666 86.7275 70.7255 86.7664C71.7365 86.8029 72.6019 87.1816 73.3236 87.9069C74.1031 88.688 74.498 89.5693 74.5061 90.5498C74.513 91.5268 74.1377 92.4893 73.3831 93.4269L73.8548 93.9024L71.968 95.7961L71.4489 95.294Z" fill="#00A651"/>
<path fill-rule="evenodd" clip-rule="evenodd" d="M60 60H100.826V101H60V60ZM60.9959 60.9973H99.8321V100.001H60.9959V60.9973Z" fill="#00A651"/>
<path d="M106.366 71.9315H104.93V61.418H108.504C109.102 61.418 112.169 61.433 112.169 64.6621C112.169 67.8912 109.581 68.1017 108.4 68.1017H106.366V71.9315ZM108.28 66.8551C109.132 66.8551 110.628 66.6898 110.628 64.752C110.628 62.86 109.058 62.6646 108.101 62.6646H106.366V66.8551H108.28V66.8551Z" fill="#00A651"/>
<path d="M113.199 67.5605H117.266V68.7022H113.199V67.5605Z" fill="#00A651"/>
<path d="M124.563 72.3067H123.127V71.0299C119.837 70.9997 118.296 69.7078 118.296 66.6742C118.296 64.5415 119.149 62.2889 123.127 62.5139V61.418H124.563V62.5144C124.727 62.4994 124.877 62.4994 125.042 62.4994C126.582 62.4994 129.394 62.7846 129.394 66.6747C129.394 69.6939 127.838 71.0154 124.563 71.0304V72.3067V72.3067ZM119.837 66.6747C119.837 69.0631 120.734 69.7687 123.127 69.8743V63.6706C120.809 63.5807 119.837 64.5421 119.837 66.6747ZM124.563 69.8737C126.925 69.7838 127.853 69.0474 127.853 66.6742C127.853 64.0005 126.328 63.7153 125.011 63.6706C124.862 63.6706 124.713 63.6706 124.563 63.6706V69.8737Z" fill="#00A651"/>
<path d="M131.918 71.9315H130.333L134.686 61.418H135.972L140.324 71.9315H138.738L137.706 69.0776H132.95L131.918 71.9315ZM135.328 63.2352L133.518 67.8309H137.138L135.328 63.2352Z" fill="#00A651"/>
<path d="M143.297 71.9315H141.861V61.418H145.436C146.034 61.418 149.1 61.433 149.1 64.6621C149.1 67.8912 146.512 68.1017 145.331 68.1017H143.297V71.9315V71.9315ZM145.212 66.8551C146.064 66.8551 147.56 66.6898 147.56 64.752C147.56 62.86 145.989 62.6646 145.032 62.6646H143.297V66.8551H145.212V66.8551Z" fill="#00A651"/>
<path d="M152.328 63.2804V71.9315H150.892V61.418H152.881L155.468 67.9214L158.026 61.418H160V71.9315H158.565V63.2804L155.933 69.9491H154.975L152.328 63.2804Z" fill="#00A651"/>
<path d="M108.094 76.9647V76.4834H108.861V82.102H108.094V78.0808L105.64 81.4601V82.102H104.873V76.4834H105.64V80.424L108.094 76.9647Z" fill="#00A651"/>
<path d="M110.714 82.1012H110.051V78.3525H110.714V79.7894H112.457V78.3525H113.121V82.1012H112.457V80.3675H110.714V82.1012Z" fill="#00A651"/>
<path d="M114.885 82.1012H114.221V78.3525H114.885V79.7894H116.628V78.3525H117.292V82.1012H116.628V80.3675H114.885V82.1012Z" fill="#00A651"/>
<path d="M120.031 78.2646C120.966 78.2646 121.965 78.9309 121.965 80.1909C121.965 80.9458 121.581 82.1895 120.031 82.1895C118.488 82.1895 118.105 80.9615 118.105 80.1909C118.105 78.9309 119.104 78.2646 120.031 78.2646ZM120.031 81.6114C121.03 81.6114 121.205 80.7289 121.205 80.1984C121.205 79.8377 121.07 78.8422 120.031 78.8422C119.056 78.8422 118.864 79.749 118.864 80.1984C118.864 80.4964 118.905 81.6114 120.031 81.6114Z" fill="#00A651"/>
<path d="M122.78 78.3535H124.194C124.458 78.3535 125.433 78.3698 125.433 79.2766C125.433 79.6216 125.217 80.0147 124.809 80.1116C125.281 80.1516 125.681 80.4722 125.681 81.0178C125.681 81.9815 124.881 82.1016 124.321 82.1016H122.779V78.3535H122.78ZM124.003 79.8541C124.29 79.8541 124.674 79.8304 124.674 79.3323C124.674 78.9148 124.25 78.931 124.003 78.931H123.443V79.8541H124.003ZM124.115 81.524C124.546 81.524 124.921 81.4835 124.921 80.9459C124.921 80.5766 124.666 80.4322 124.115 80.4322H123.443V81.524H124.115V81.524Z" fill="#00A651"/>
<path d="M126.472 78.8103C127.024 78.3684 127.559 78.2646 127.943 78.2646C129.333 78.2646 129.341 79.4846 129.341 79.7258V81.1064C129.341 81.3952 129.405 81.5639 129.725 81.5796V82.1895C129.181 82.1895 128.902 81.9333 128.766 81.6433C128.358 81.9408 127.975 82.1895 127.424 82.1895C126.576 82.1895 126.209 81.6677 126.209 81.0977C126.209 79.9259 127.328 79.7734 128.678 79.7252C128.718 78.9628 128.246 78.8422 127.871 78.8422C127.591 78.8422 127.256 78.9784 126.784 79.2915L126.472 78.8103ZM126.967 81.0977C126.967 81.3546 127.151 81.6033 127.583 81.6033C127.91 81.6033 128.39 81.4027 128.677 80.9533V80.2796C127.263 80.2471 126.967 80.7684 126.967 81.0977Z" fill="#00A651"/>
<path d="M132.705 81.5236V78.3525H133.367V81.5236H133.888V83.2011H133.224V82.1012H130.427V78.3525H131.091V81.5236H132.705Z" fill="#00A651"/>
<path d="M136.996 78.9469V78.3525H137.659V82.1012H136.996V79.7818L135.253 81.548V82.1018H134.59V78.3531H135.253V80.7131L136.996 78.9469Z" fill="#00A651"/>
<path d="M140.399 78.2646C141.334 78.2646 142.334 78.9309 142.334 80.1909C142.334 80.9458 141.95 82.1895 140.399 82.1895C138.857 82.1895 138.474 80.9615 138.474 80.1909C138.474 78.9309 139.473 78.2646 140.399 78.2646ZM140.399 81.6114C141.399 81.6114 141.574 80.7289 141.574 80.1984C141.574 79.8377 141.439 78.8422 140.399 78.8422C139.425 78.8422 139.233 79.749 139.233 80.1984C139.233 80.4964 139.274 81.6114 140.399 81.6114Z" fill="#00A651"/>
<path d="M143.812 82.1012H143.149V78.3525H143.812V79.7894H145.555V78.3525H146.217V82.1012H145.555V80.3675H143.812V82.1012Z" fill="#00A651"/>
<path d="M147.983 82.1012H147.32V78.3525H147.983V79.7894H149.725V78.3525H150.389V82.1012H149.725V80.3675H147.983V82.1012Z" fill="#00A651"/>
<path d="M152.154 78.3535V79.4854H152.753C153.904 79.4854 154.288 79.9747 154.288 80.7378C154.288 81.7653 153.729 82.1022 152.649 82.1022H151.49V78.3535H152.154ZM152.706 81.5241C153.033 81.5241 153.529 81.4754 153.529 80.801C153.529 80.111 153.002 80.0629 152.706 80.0629H152.154V81.5241H152.706V81.5241ZM154.992 78.3535H155.655V82.1022H154.992V78.3535Z" fill="#00A651"/>
<path d="M159.881 81.4427C159.506 81.9164 158.938 82.1895 158.331 82.1895C157.204 82.1895 156.469 81.3227 156.469 80.2552C156.469 79.1153 157.188 78.2646 158.218 78.2646C159.457 78.2646 159.913 79.3884 159.881 80.3596H157.228C157.212 80.8408 157.436 81.6114 158.331 81.6114C158.802 81.6114 159.066 81.4427 159.466 81.0415L159.881 81.4427ZM159.131 79.7821C159.099 79.4527 158.93 78.8433 158.196 78.8433C157.492 78.8433 157.3 79.3808 157.261 79.7821H159.131Z" fill="#00A651"/>
<path d="M121.741 86.956H120.622V86.3779H123.524V86.956H122.405V90.126H121.742V86.956H121.741Z" fill="#00A651"/>
<path d="M127.375 89.4687C127 89.9418 126.432 90.2155 125.825 90.2155C124.698 90.2155 123.963 89.3481 123.963 88.2806C123.963 87.1412 124.682 86.29 125.713 86.29C126.952 86.29 127.407 87.4138 127.375 88.3856H124.722C124.706 88.8668 124.929 89.6374 125.825 89.6374C126.297 89.6374 126.56 89.4687 126.96 89.0675L127.375 89.4687ZM126.624 87.8075C126.592 87.4781 126.424 86.8687 125.689 86.8687C124.986 86.8687 124.794 87.4062 124.754 87.8075H126.624Z" fill="#00A651"/>
<path d="M128.573 90.126H127.767L129.157 88.0954L127.943 86.3779H128.749L129.629 87.6379L130.507 86.3779H131.315L130.1 88.0954L131.491 90.126H130.684L129.629 88.5697L128.573 90.126Z" fill="#00A651"/>
<path d="M132.832 90.126H132.168V86.3779H132.832V87.8148H134.575V86.3779H135.238V90.126H134.575V88.3929H132.832V90.126Z" fill="#00A651"/>
<path d="M137.979 86.29C138.914 86.29 139.913 86.9569 139.913 88.2168C139.913 88.9712 139.529 90.2155 137.979 90.2155C136.436 90.2155 136.053 88.9874 136.053 88.2168C136.052 86.9569 137.052 86.29 137.979 86.29ZM137.979 89.6374C138.978 89.6374 139.154 88.7543 139.154 88.2244C139.154 87.8631 139.018 86.8681 137.979 86.8681C137.004 86.8681 136.812 87.775 136.812 88.2244C136.812 88.5218 136.852 89.6374 137.979 89.6374Z" fill="#00A651"/>
<path d="M141.719 89.2116C141.399 90.0941 140.911 90.2153 140.583 90.2153C140.503 90.2153 140.432 90.2153 140.351 90.2072V89.6128C140.991 89.5722 141.143 88.9791 141.223 88.5529C141.351 87.8785 141.407 86.9879 141.422 86.3779H143.796V90.126H143.133V86.956H142.062C142.046 87.6617 141.943 88.5854 141.719 89.2116Z" fill="#00A651"/>
<path d="M146.537 86.29C147.472 86.29 148.471 86.9569 148.471 88.2168C148.471 88.9712 148.087 90.2155 146.537 90.2155C144.994 90.2155 144.611 88.9874 144.611 88.2168C144.611 86.9569 145.61 86.29 146.537 86.29ZM146.537 89.6374C147.536 89.6374 147.712 88.7543 147.712 88.2244C147.712 87.8631 147.576 86.8681 146.537 86.8681C145.562 86.8681 145.37 87.775 145.37 88.2244C145.37 88.5218 145.41 89.6374 146.537 89.6374Z" fill="#00A651"/>
<path d="M149.949 90.126H149.285V86.3779H151.676V86.956H149.949V90.126H149.949Z" fill="#00A651"/>
<path d="M154.759 86.9723V86.3779H155.422V90.126H154.759V87.8066L153.016 89.5722V90.126H152.354V86.3779H153.016V88.7378L154.759 86.9723Z" fill="#00A651"/>
<path d="M158.93 86.9723V86.3779H159.594V90.126H158.93V87.8066L157.188 89.5722V90.126H156.524V86.3779H157.188V88.7378L158.93 86.9723Z" fill="#00A651"/>
<path d="M128.07 96.9873C128.502 97.4373 128.805 97.6616 129.373 97.6616C129.932 97.6616 130.18 97.3648 130.18 97.0998C130.18 96.5542 129.604 96.4979 129.11 96.4979H128.957V95.9523H129.133C129.949 95.9523 130.084 95.6235 130.084 95.391C130.084 95.1417 129.876 94.8935 129.388 94.8935C128.973 94.8935 128.654 95.0454 128.342 95.2942L128.03 94.7973C128.421 94.4598 128.957 94.3154 129.437 94.3154C130.372 94.3154 130.82 94.741 130.82 95.2704C130.82 95.8804 130.412 96.121 130.18 96.1941C130.835 96.3466 130.939 96.796 130.939 97.0766C130.939 97.6709 130.444 98.2409 129.453 98.2409C128.67 98.2409 128.143 97.9591 127.671 97.3816L128.07 96.9873Z" fill="#00A651"/>
<path d="M132.065 99.2513H131.402V97.582H131.881C132.081 97.3326 132.425 96.747 132.425 95.2939V94.4033H134.903V97.582H135.446V99.2513H134.783V98.1595H132.065V99.2513V99.2513ZM134.239 94.9814H133.089C133.097 96.2971 132.993 96.972 132.657 97.582H134.239V94.9814Z" fill="#00A651"/>
<path d="M137.811 94.3145C138.746 94.3145 139.746 94.9807 139.746 96.2407C139.746 96.995 139.361 98.2393 137.811 98.2393C136.269 98.2393 135.885 97.0113 135.885 96.2407C135.884 94.9807 136.884 94.3145 137.811 94.3145ZM137.811 97.6618C138.811 97.6618 138.986 96.7787 138.986 96.2488C138.986 95.8875 138.85 94.8925 137.811 94.8925C136.837 94.8925 136.644 95.7994 136.644 96.2488C136.644 96.5457 136.684 97.6618 137.811 97.6618Z" fill="#00A651"/>
<path d="M141.223 99.6924H140.56V94.4026H141.223V94.9488C141.335 94.7719 141.654 94.3145 142.366 94.3145C143.612 94.3145 144.108 95.3257 144.108 96.2488C144.108 97.0756 143.684 98.2399 142.414 98.2399C141.887 98.2399 141.503 98.0225 141.223 97.7175V99.6924V99.6924ZM142.342 97.5975C143.069 97.5975 143.348 96.9069 143.348 96.2494C143.348 95.4469 142.925 94.9494 142.317 94.9494C141.678 94.9494 141.223 95.4706 141.223 96.2731C141.223 96.7544 141.391 97.5975 142.342 97.5975Z" fill="#00A651"/>
<path d="M146.561 94.3145C147.496 94.3145 148.495 94.9807 148.495 96.2407C148.495 96.995 148.111 98.2393 146.561 98.2393C145.018 98.2393 144.635 97.0113 144.635 96.2407C144.635 94.9807 145.634 94.3145 146.561 94.3145ZM146.561 97.6618C147.56 97.6618 147.736 96.7787 147.736 96.2488C147.736 95.8875 147.6 94.8925 146.561 94.8925C145.586 94.8925 145.394 95.7994 145.394 96.2488C145.394 96.5457 145.434 97.6618 146.561 97.6618Z" fill="#00A651"/>
<path d="M149.309 94.4033H150.724C150.988 94.4033 151.963 94.419 151.963 95.3264C151.963 95.6714 151.746 96.0645 151.339 96.1608C151.81 96.2014 152.21 96.5215 152.21 97.0677C152.21 98.0313 151.411 98.1508 150.851 98.1508H149.309V94.4033H149.309ZM150.532 95.9039C150.82 95.9039 151.203 95.8802 151.203 95.3827C151.203 94.9652 150.78 94.9814 150.532 94.9814H149.973V95.9039H150.532ZM150.645 97.5739C151.076 97.5739 151.452 97.5333 151.452 96.9958C151.452 96.627 151.196 96.482 150.645 96.482H149.973V97.5739H150.645Z" fill="#00A651"/>
<path d="M153.68 94.4033V95.5352H154.463C155.742 95.5352 155.966 96.1857 155.966 96.787C155.966 97.6144 155.654 98.1514 154.359 98.1514H153.017V94.4033H153.68ZM154.415 97.5738C155.087 97.5738 155.206 97.2132 155.206 96.8514C155.206 96.5296 155.135 96.1127 154.415 96.1127H153.68V97.5738H154.415Z" fill="#00A651"/>
<path d="M158.562 96.6823C158.075 96.6823 158.075 96.8591 157.788 97.316C157.412 97.9103 157.14 98.2397 156.717 98.2397C156.629 98.2397 156.549 98.2229 156.469 98.191V97.6297C156.501 97.6297 156.533 97.6297 156.565 97.6297C156.86 97.6053 156.917 97.3728 157.149 97.0116C157.276 96.8191 157.372 96.666 157.692 96.5698V96.5292C157.149 96.5535 156.732 96.1198 156.732 95.5423C156.732 94.8836 157.205 94.4023 157.964 94.4023H159.602V98.1504H158.94V96.6817H158.562V96.6823ZM158.108 94.981C157.94 94.981 157.492 94.981 157.492 95.5266C157.492 96.096 157.931 96.1042 158.123 96.1042H158.939V94.981H158.108Z" fill="#00A651"/>
</svg>
