<svg width="221" height="161" viewBox="0 0 221 161" fill="none" xmlns="http://www.w3.org/2000/svg">
<g clip-path="url(#clip0_556:294)">
<path d="M75.8347 94.948C72.7197 94.8817 69.9649 94.2823 67.5702 93.1496C65.1755 92.017 63.2982 90.3755 61.9381 88.2252C60.5766 86.0745 60 83.5335 60 80.6C60 77.8336 60.585 75.3582 61.962 73.1747C63.3391 70.9912 65.2335 69.2669 67.6441 67.9995C70.0548 66.7322 72.7849 66.0679 75.8347 66.0002V63H81.5459V66.0002C84.6289 66.0672 87.3838 66.7336 89.8104 67.9995C92.237 69.2655 94.1393 70.9905 95.5174 73.1747C96.8945 75.3582 97.4794 77.8294 97.4794 80.6C97.4794 83.5335 96.9028 86.0745 95.5414 88.2252C94.1799 90.3758 92.2824 92.0166 89.8562 93.1496C87.4299 94.2826 84.657 94.8993 81.5459 94.9998V98H75.8347V94.948ZM75.8347 71.0473C73.9334 71.1178 72.2034 71.5346 70.6449 72.2977C69.1298 73.0266 67.8439 74.1694 66.9311 75.5983C66.0124 77.0335 65.553 78.6841 65.553 80.5502C65.553 83.6167 66.5123 85.925 68.431 87.4751C70.3497 89.0253 72.8176 89.8335 75.8347 89.8998V71.0473ZM89.0401 87.4751C90.9588 85.9236 91.9181 83.6153 91.9181 80.5502C91.9181 78.6503 91.4587 76.9929 90.54 75.5782C89.6164 74.1545 88.3221 73.0192 86.8012 72.2988C85.2302 71.5336 83.4784 71.1171 81.5459 71.0494V89.8998C84.6262 89.8335 87.1242 89.0253 89.0401 87.4751Z" fill="#0D295D"/>
<path d="M101.605 63H107.313V98H101.605V63Z" fill="#0D295D"/>
<path d="M132.401 63H138.108V87.6878L155.179 63H160V98H154.294V73.2117L137.224 98H132.401V63Z" fill="#0D295D"/>
<path d="M116.953 88.2252C116.953 84.3248 115.822 83.1251 112.379 83.1251V78.0219C115.822 78.0219 116.953 76.9714 116.953 73.2212V70.5501C116.953 65.4003 118.827 63 123.792 63H127.331V67.6547H125.249C123.085 67.6547 122.151 68.5539 122.151 71.1044V73.1557C122.151 77.4559 121.097 79.0734 116.62 79.3739V81.624C121.096 81.9234 122.151 83.5917 122.151 87.9406V89.8448C122.151 92.4451 123.087 93.3453 125.249 93.3453H127.331V98H123.792C118.823 98 116.953 95.5997 116.953 90.4488V88.2252Z" fill="#0D295D"/>
</g>
<defs>
<clipPath id="clip0_556:294">
<rect width="100" height="35" fill="white" transform="translate(60 63)"/>
</clipPath>
</defs>
</svg>
