<svg width="221" height="161" viewBox="0 0 221 161" fill="none" xmlns="http://www.w3.org/2000/svg">
<path fill-rule="evenodd" clip-rule="evenodd" d="M159.326 77.618C160.066 77.6143 160.806 77.618 161.547 77.618C161.547 79.6374 161.543 81.6569 161.547 83.6763C163.079 81.6569 164.603 79.6301 166.135 77.6143C166.853 77.618 167.568 77.6217 168.286 77.6106C168.294 77.9453 168.294 78.2801 168.294 78.6148C167.978 78.6369 167.663 78.6553 167.348 78.6737C167.355 80.6968 167.333 82.7199 167.359 84.743C167.678 84.7504 167.997 84.7651 168.319 84.7835C168.29 85.0888 168.268 85.3904 168.253 85.6994C167.209 85.7068 166.164 85.7031 165.12 85.7031C165.12 85.4235 165.12 85.1403 165.12 84.8607C165.413 84.8129 165.71 84.7835 166.014 84.7541C166.025 82.97 166.018 81.186 166.018 79.3983C164.413 81.4987 162.818 83.6027 161.21 85.7031C160.883 85.7068 160.561 85.7031 160.235 85.6957C160.246 83.3563 160.235 81.0168 160.238 78.6774C159.92 78.6553 159.601 78.6406 159.282 78.6111C159.3 78.2801 159.319 77.949 159.326 77.618ZM153.154 78.6442C153.118 80.6931 152.949 82.8008 152.106 84.6952C153.473 84.6952 154.836 84.6952 156.2 84.6952C156.2 82.6758 156.203 80.66 156.2 78.6406C155.185 78.6442 154.169 78.6406 153.154 78.6442ZM150.813 77.6143C153.033 77.618 155.258 77.6143 157.479 77.618C157.479 79.9758 157.479 82.3374 157.479 84.6989C157.904 84.6989 158.329 84.6989 158.754 84.6989C158.747 85.8282 158.721 86.9574 158.674 88.0867C158.336 88.0867 157.999 88.0867 157.662 88.0867C157.622 87.2922 157.581 86.4976 157.53 85.7031C155.276 85.7031 153.026 85.7031 150.776 85.7031C150.728 86.4976 150.703 87.2922 150.659 88.0867C150.362 88.0904 150.061 88.0904 149.764 88.0904C149.702 86.9611 149.731 85.8318 149.676 84.7026C150.087 84.7026 150.494 84.6989 150.908 84.7026C151.872 82.8671 152.062 80.7446 152.088 78.7031C151.644 78.6847 151.201 78.6774 150.758 78.6516C150.78 78.3058 150.798 77.9601 150.813 77.6143ZM107.971 77.6143C108.865 77.618 109.759 77.6106 110.654 77.618C111.482 79.6632 112.317 81.7084 113.146 83.7535C113.245 84.0074 113.347 84.2648 113.479 84.5076C114.436 82.2123 115.378 79.9096 116.338 77.6143C117.221 77.618 118.101 77.6143 118.98 77.6143C118.98 77.9453 118.98 78.2801 118.98 78.6111C118.672 78.6332 118.364 78.6479 118.06 78.67C118.082 80.6968 118.119 82.7236 118.156 84.7467C122.143 84.743 126.134 84.7467 130.121 84.7467C130.187 82.7199 130.301 80.6931 130.363 78.6663C130.015 78.6516 129.667 78.6369 129.322 78.6038C129.351 78.2727 129.377 77.9417 129.392 77.6106C130.282 77.6069 131.177 77.618 132.067 77.6069C133.024 79.9059 133.954 82.2197 134.889 84.5297C135.86 82.2344 136.806 79.928 137.751 77.6216C138.642 77.5996 139.536 77.618 140.426 77.6143C140.426 77.9453 140.427 78.2764 140.43 78.6111C140.111 78.6332 139.792 78.6516 139.477 78.6737C139.536 80.6968 139.532 82.7199 139.587 84.7467C139.906 84.7614 140.225 84.7761 140.547 84.7798C140.525 85.0851 140.511 85.3904 140.5 85.6957C139.8 85.7031 139.104 85.6994 138.407 85.6994C138.4 83.5145 138.345 81.3295 138.33 79.1445C137.392 81.3258 136.458 83.5108 135.523 85.6957C135.098 85.6957 134.673 85.6994 134.248 85.6957C133.295 83.5145 132.316 81.3405 131.356 79.1629C131.319 81.3405 131.254 83.5181 131.195 85.6957C126.46 85.7031 121.725 85.6921 116.986 85.6994C116.953 83.5071 116.909 81.3184 116.906 79.1261C115.946 81.3111 115.04 83.5181 114.08 85.6994C113.659 85.6957 113.241 85.6957 112.823 85.6994C111.859 83.5292 110.896 81.3589 109.935 79.1886C109.884 81.0462 109.858 82.9075 109.8 84.7651C110.1 84.7761 110.401 84.7909 110.705 84.8019C110.683 85.0998 110.661 85.3941 110.643 85.6921C109.701 85.6994 108.759 85.6921 107.817 85.6957C107.799 85.3684 107.777 85.0447 107.751 84.721C108.059 84.6952 108.367 84.6879 108.678 84.6952C108.781 82.6868 108.854 80.6784 108.939 78.67C108.594 78.6479 108.25 78.6332 107.909 78.6111C107.916 78.2801 107.942 77.9453 107.971 77.6143ZM79.3636 77.618C82.2002 77.618 85.0367 77.618 87.8733 77.618C87.8733 77.949 87.8733 78.2801 87.877 78.6111C87.5838 78.6369 87.2942 78.6516 87.0047 78.67C87.0047 80.6931 86.9974 82.7162 87.0084 84.7394C87.3236 84.7467 87.6387 84.7614 87.9576 84.7835C87.9429 85.0888 87.9173 85.3941 87.8916 85.6994C87.1513 85.6994 86.411 85.6994 85.6744 85.6994C85.6744 83.3563 85.6744 81.0131 85.6744 78.67C84.3038 78.6663 82.9295 78.67 81.5588 78.67C81.5662 80.6931 81.5442 82.7162 81.5698 84.7394C81.8923 84.7467 82.2185 84.7614 82.541 84.7872C82.508 85.0888 82.486 85.3904 82.4714 85.6957C81.4342 85.6921 80.3971 85.6994 79.36 85.6921C79.327 85.361 79.305 85.0336 79.3196 84.7026C79.6312 84.6952 79.939 84.6805 80.2505 84.6621C80.2505 82.6647 80.2468 80.6674 80.2505 78.67C79.9353 78.6442 79.6165 78.6295 79.3013 78.6075C79.3233 78.2801 79.3416 77.949 79.3636 77.618ZM172.567 82.0394C172.112 82.1277 171.647 82.2601 171.273 82.547C170.507 83.1061 170.723 84.4892 171.603 84.8203C172.706 85.2507 174.231 84.9748 174.795 83.8345C174.832 83.1576 174.799 82.4735 174.81 81.7966C174.062 81.8592 173.307 81.896 172.567 82.0394ZM171.189 78.1109C171.834 77.6731 172.592 77.3752 173.38 77.4046C174.154 77.3899 175.004 77.5885 175.517 78.2139C175.99 78.7767 176.118 79.5418 176.118 80.2591C176.111 81.7488 176.125 83.2349 176.111 84.7246C178.573 84.7835 181.043 84.732 183.506 84.7504C187.384 84.7504 191.265 84.7504 195.142 84.7504C194.38 83.9779 193.61 83.2128 192.848 82.4404C193.075 82.2086 193.302 81.9806 193.533 81.7525C194.699 82.9038 195.842 84.0699 197 85.2249C195.842 86.3836 194.691 87.5423 193.533 88.701C193.306 88.4766 193.082 88.2486 192.859 88.0242C193.625 87.248 194.402 86.4756 195.171 85.6994C188.534 85.6884 181.897 85.7178 175.26 85.6847C175.136 85.3573 174.997 85.0373 174.865 84.7173C174.403 85.4309 173.593 85.8466 172.761 85.9128C171.9 85.9827 170.954 85.9017 170.243 85.3684C169.529 84.835 169.323 83.8234 169.551 82.9958C169.756 82.2712 170.427 81.8077 171.097 81.5539C172.285 81.1125 173.564 81.0389 174.813 80.9175C174.81 80.2775 174.868 79.5859 174.531 79.0121C174.234 78.5192 173.615 78.3757 173.084 78.3794C172.417 78.35 171.761 78.6038 171.266 79.0415C171.24 79.3946 171.218 79.7478 171.203 80.1046C170.859 80.1046 170.522 80.1046 170.181 80.1009C170.225 79.2475 170.218 78.3904 170.24 77.537C170.522 77.537 170.804 77.537 171.086 77.5407C171.119 77.732 171.152 77.9196 171.189 78.1109ZM143.725 78.9275C143.127 79.4425 142.908 80.248 142.823 81.0021C144.384 81.0095 145.949 81.0021 147.514 81.0058C147.529 80.4319 147.525 79.8213 147.232 79.3064C146.994 78.8318 146.499 78.5339 145.99 78.4383C145.213 78.2985 144.341 78.3904 143.725 78.9275ZM142.427 78.6479C143.018 77.9233 143.926 77.5113 144.846 77.4267C145.667 77.3642 146.539 77.4193 147.272 77.8313C147.943 78.1955 148.397 78.8797 148.573 79.619C148.749 80.3731 148.804 81.1897 148.537 81.9327C146.627 81.9291 144.718 81.9364 142.809 81.9291C142.864 82.8891 143.164 83.9485 144.014 84.5003C145.271 85.2801 147.056 84.9785 148.02 83.8639C148.222 84.0809 148.438 84.2869 148.628 84.5187C148.478 84.8681 148.126 85.0925 147.829 85.3132C146.884 85.9422 145.685 86.0452 144.593 85.8576C143.769 85.7105 142.97 85.3169 142.431 84.6584C141.724 83.8198 141.493 82.6795 141.504 81.6054C141.5 80.557 141.753 79.4682 142.427 78.6479ZM102.045 78.4714C101.561 78.5927 101.107 78.8613 100.817 79.2733C100.308 79.9648 100.202 80.8586 100.194 81.6973C100.22 82.5912 100.367 83.5659 101.001 84.2428C101.558 84.8644 102.456 85.0336 103.251 84.9343C103.925 84.8681 104.57 84.5003 104.933 83.9154C105.42 83.1393 105.49 82.1829 105.457 81.289C105.428 80.4614 105.226 79.5712 104.607 78.9827C103.925 78.361 102.91 78.2801 102.045 78.4714ZM102.052 77.4488C103.071 77.3421 104.16 77.3973 105.072 77.9122C105.787 78.3095 106.311 79.0047 106.564 79.7809C106.868 80.7225 106.897 81.7415 106.74 82.7162C106.575 83.7057 106.084 84.6768 105.244 85.2543C104.339 85.8907 103.17 86.0194 102.096 85.887C101.162 85.773 100.242 85.3205 99.6776 84.5481C99.0399 83.7057 98.8384 82.6243 98.8347 81.5906C98.8384 80.5423 99.0656 79.4351 99.7546 78.6148C100.326 77.9343 101.184 77.5628 102.052 77.4488ZM91.3695 79.5307C91.3732 81.0977 91.3732 82.6647 91.3732 84.2317C92.3004 85.0189 93.7113 85.1403 94.7888 84.6106C95.7086 84.1361 96.1118 83.073 96.2107 82.0946C96.3023 81.1456 96.2987 80.0825 95.7233 79.2769C95.2212 78.6001 94.3197 78.4162 93.5207 78.4346C92.6778 78.4088 91.8569 78.8429 91.3695 79.5307ZM91.3109 78.4861C91.9375 77.7725 92.8904 77.412 93.8249 77.4083C94.7118 77.3715 95.6463 77.5665 96.35 78.1329C97.0536 78.6884 97.4384 79.5602 97.5557 80.432C97.6766 81.3479 97.6107 82.2859 97.3578 83.176C97.0976 84.0625 96.5808 84.9122 95.7856 85.4052C95.06 85.876 94.1657 85.99 93.3228 85.9164C92.6265 85.8613 91.9339 85.6369 91.3768 85.2102C91.3842 86.3983 91.3695 87.5828 91.3842 88.7709C91.6957 88.7819 92.0108 88.7966 92.326 88.8114C92.315 89.1167 92.293 89.4256 92.2674 89.7346C91.2302 89.7346 90.1968 89.7346 89.1596 89.7346C89.1376 89.4073 89.1157 89.0836 89.0937 88.7562C89.4088 88.7304 89.7277 88.7157 90.0465 88.701C90.0465 85.361 90.0465 82.021 90.0465 78.681C89.735 78.659 89.4198 78.6406 89.1083 78.6222C89.1266 78.2874 89.1413 77.9564 89.156 77.6216C89.8376 77.6216 90.5229 77.6217 91.2083 77.6253C91.2412 77.9086 91.2742 78.1955 91.3109 78.4861ZM72.9869 78.0557C73.5659 77.6915 74.2182 77.4046 74.9146 77.4083C75.7135 77.3862 76.5784 77.526 77.1941 78.0741C77.8354 78.6516 77.9014 79.6742 77.5129 80.4099C77.3003 80.8219 76.9412 81.1345 76.5527 81.3699C77.1647 81.5208 77.7914 81.8408 78.0699 82.4404C78.4218 83.2496 78.1909 84.2501 77.5899 84.8791C76.9852 85.5413 76.0873 85.8502 75.2151 85.9164C74.3832 85.9716 73.5256 85.9091 72.7377 85.6185C72.1843 85.4199 71.6749 85.0741 71.3524 84.5738C71.5246 84.309 71.6969 84.0478 71.8838 83.7903C72.4775 84.5628 73.4706 84.8902 74.4088 84.9306C75.0978 84.9748 75.8344 84.846 76.3768 84.3899C76.7689 84.0699 77.0401 83.5439 76.9339 83.0326C76.8166 82.525 76.3108 82.2344 75.8381 82.1277C75.1161 81.9438 74.3722 82.0762 73.6429 82.0541C73.6429 81.7635 73.6429 81.4729 73.6392 81.1823C74.3905 81.1419 75.2444 81.3405 75.8821 80.8219C76.6004 80.3547 76.758 79.0636 75.9407 78.6148C75.0172 78.1844 73.8701 78.3389 73.0565 78.9459C73.0309 79.2549 73.0309 79.5638 72.9905 79.8728C72.657 79.9317 72.3125 79.8839 71.9754 79.8986C72.0084 79.1114 72.0084 78.3205 72.0487 77.5334C72.3272 77.537 72.6094 77.537 72.8916 77.5407C72.9172 77.7136 72.9502 77.8828 72.9869 78.0557ZM64.7264 82.4551C63.8432 82.9369 63.9788 84.412 64.8803 84.7945C65.9908 85.269 67.5703 84.9858 68.1274 83.8161C68.1567 83.1429 68.1274 82.4698 68.1383 81.7966C66.9913 81.9143 65.7599 81.8739 64.7264 82.4551ZM64.5139 78.1219C65.1809 77.6327 66.0054 77.3605 66.8337 77.4083C67.6656 77.4046 68.5855 77.7173 69.0216 78.4787C69.4943 79.2585 69.4467 80.2039 69.4394 81.083C69.443 82.3006 69.4357 83.5181 69.443 84.7357C69.7655 84.7504 70.088 84.7688 70.4105 84.7798C70.3629 85.0741 70.4215 85.4162 70.3079 85.6884C69.6592 85.7141 69.0069 85.6884 68.3546 85.6957C68.2923 85.372 68.23 85.052 68.175 84.7283C67.7169 85.4199 66.9216 85.8318 66.108 85.9054C65.2395 85.979 64.2903 85.9054 63.5683 85.3684C62.8207 84.8092 62.6155 83.7352 62.905 82.8818C63.1579 82.1792 63.8322 81.7562 64.5029 81.5171C65.6683 81.1051 66.9143 81.0315 68.1347 80.9101C68.1274 80.2554 68.1897 79.5271 67.8085 78.9569C67.486 78.475 66.863 78.361 66.3243 78.3757C65.6829 78.3573 65.0599 78.6185 64.5798 79.0378C64.5578 79.391 64.5395 79.7441 64.5139 80.1009C64.1767 80.1009 63.8395 80.1009 63.506 80.1009C63.5317 79.2438 63.5354 78.3904 63.5647 77.5334C63.8432 77.5334 64.1217 77.5334 64.4039 77.5334C64.4406 77.7357 64.4772 77.927 64.5139 78.1219ZM55.0843 75.2049C57.4738 75.1792 59.8706 75.2675 62.2563 75.1498C62.26 76.1098 62.2563 77.0699 62.2563 78.03C61.9009 78.03 61.549 78.03 61.1972 78.03C61.1679 77.4488 61.1386 76.8676 61.1203 76.2864C59.9732 76.2864 58.8261 76.2901 57.6827 76.2864C57.6753 79.1004 57.6827 81.9143 57.679 84.732C58.1664 84.7614 58.6575 84.7651 59.1449 84.7909C59.1083 85.0962 59.09 85.3978 59.079 85.7068C57.7523 85.7068 56.4256 85.7068 55.099 85.7068C55.0733 85.3831 55.0513 85.0557 55.0367 84.732C55.4655 84.6989 55.8943 84.6915 56.323 84.6731C56.323 81.8445 56.3267 79.0194 56.323 76.1908C55.8906 76.1834 55.4618 76.154 55.0294 76.1576C55.0294 75.8339 55.0587 75.5213 55.0843 75.2049ZM35.452 70C38.9482 73.4945 42.4298 77.0037 45.9223 80.5018C42.4408 84.0037 38.9519 87.5018 35.4667 91C31.9778 87.4945 28.4889 83.9926 25 80.4908C28.4852 76.9926 31.9668 73.4945 35.452 70ZM36.9766 81.1088C37.6985 79.7809 37.6875 78.0962 36.9766 76.7683C36.2656 78.0962 36.2546 79.7846 36.9766 81.1088ZM31.626 79.5087C30.3323 81.2338 30.6731 83.8823 32.227 85.3316C33.9311 86.9059 36.9033 86.8986 38.5121 85.1808C38.5084 84.2097 38.5121 83.2349 38.5121 82.2638C37.5739 82.2638 36.6394 82.2638 35.7012 82.2638C35.6975 82.7052 35.7012 83.1429 35.7012 83.5843C36.1813 83.4041 36.8849 83.1944 37.2551 83.6873C37.6399 84.3163 37.409 85.2176 36.808 85.6295C36.2619 86.0121 35.5546 86.0562 34.9169 85.979C34.1913 85.8944 33.4767 85.5302 33.0699 84.9049C32.3956 83.9117 32.6448 82.4109 33.594 81.6826C34.1913 81.2191 34.9646 81.0977 35.6975 81.072C35.2431 80.0089 35.0379 78.8502 35.0306 77.6952C33.7259 77.846 32.3992 78.4052 31.626 79.5087ZM36.9326 73.6269C36.2839 74.5943 35.8881 75.7236 35.7415 76.8749C35.507 78.6957 35.9687 80.5901 36.9876 82.113C37.8085 80.8734 38.2886 79.3946 38.2849 77.9012C38.3142 76.382 37.8634 74.8592 37.0279 73.5938C36.9986 73.6012 36.9546 73.6159 36.9326 73.6269Z" fill="#009DE0"/>
</svg>
