<svg width="221" height="161" viewBox="0 0 221 161" fill="none" xmlns="http://www.w3.org/2000/svg">
<rect width="221" height="161" fill="white"/>
<g clip-path="url(#clip0)">
<path d="M114.969 69.7784L112.908 69.1414L114.768 68.2432C115.481 66.8353 116.577 66.0262 117.971 65.695V64.835H113.031V65.695L114.029 66.383L111.437 68.9312H110.918V66.4021L112.299 65.6631V64.835H105.771V65.6631L107.204 66.4021V73.0847L105.752 73.7536V74.5818H112.305V73.7536L110.924 73.0847V70.0779H111.495C112.052 71.3456 113.394 74.2633 114.84 74.5818H118.418V73.7345C116.992 72.9255 115.721 71.868 114.969 69.7784Z" fill="#222222"/>
<path d="M90.3567 71.3772V67.8735C90.3567 65.4081 88.3342 64.6182 85.4367 64.6182C83.0383 64.6182 81.1974 65.2871 81.1974 66.593C81.1974 67.1345 81.5344 67.7206 82.2864 68.1028H83.3041L84.5033 65.9751V65.9942C84.7366 65.8349 85.0218 65.7457 85.3265 65.7457C86.0784 65.7457 86.6294 66.2554 86.6294 67.9244V68.8545C86.1822 68.8036 85.7154 68.7653 85.2358 68.7653C83.317 68.7653 80.5815 69.396 80.5815 71.8932C80.5815 73.333 81.5992 74.7791 83.6735 74.7791C84.9246 74.7791 86.2664 74.2885 86.9146 73.1418C87.2193 74.021 88.2954 74.7791 89.4427 74.7791C90.441 74.7791 91.3938 74.4605 91.893 73.8999V72.7851C91.6207 72.8934 91.4068 72.9444 91.2642 72.9444C90.5576 72.9444 90.3567 72.2054 90.3567 71.3772ZM86.6359 72.2181C86.3118 72.5367 85.8645 72.8361 85.4173 72.8361C84.8663 72.8361 84.2569 72.4156 84.2569 71.5875C84.2569 70.2369 85.333 69.8483 86.6359 69.74V72.2181Z" fill="#222222"/>
<path d="M100.845 64.6377C99.5612 64.6377 98.1222 65.2174 97.4092 66.5552V64.7269L92.4697 65.2174V66.0456L93.9153 66.8037V78.5699L92.4697 79.2388V80.067H99.0751V79.2388L97.6231 78.5699V74.3654C98.3037 74.6138 99.0362 74.7858 99.7363 74.7858C103.224 74.7858 104.728 72.7282 104.728 69.5238C104.734 67.154 103.515 64.6377 100.845 64.6377ZM99.0751 73.4353C98.6084 73.4353 98.0574 73.1869 97.6231 72.8365V68.6829C97.6425 67.5936 97.9472 66.6954 99.0167 66.6954C100.326 66.6954 100.929 67.9057 100.929 69.6321C100.935 71.3968 100.702 73.4353 99.0751 73.4353Z" fill="#222222"/>
<path d="M77.7941 62.72L79.3369 61.86V61H64.0519V61.86L65.5752 62.72V73.0466L64 73.7155V74.5755H70.6378V73.7155L69.4061 73.0657V62.4588H73.9696V73.0657L72.7315 73.7155V74.5755H79.3693V73.7155L77.7941 73.0466V62.72Z" fill="#222222"/>
<path d="M117.277 67.6318C116.83 67.6318 116.454 67.9631 116.454 68.3708C116.454 68.7913 116.83 69.1289 117.277 69.1289C117.685 69.1289 118.048 68.7913 118.048 68.3708C118.042 67.9631 117.685 67.6318 117.277 67.6318Z" fill="#222222"/>
<path d="M121.691 91.2596C121.283 90.6098 120.907 89.9727 120.44 89.5905L118.761 89.1L121.037 86.9913C122.145 86.1122 122.93 85.7045 123.63 85.6344V84.7744H118.69V85.6344L119.695 86.3224L117.102 88.8706H116.583V86.3415L117.964 85.6026V84.7744H111.417V85.6026L112.85 86.3415V93.0242L111.398 93.6931V94.5212H117.945V93.6931L116.564 93.0242V90.0173H117.141C117.692 91.285 119.034 94.2027 120.486 94.5212H124.064V93.6612C123.014 93.3746 122.333 92.2788 121.691 91.2596Z" fill="#222222"/>
<path d="M106.783 88.043C106.083 88.043 105.389 88.1513 104.721 88.3742V86.3357L106.154 85.5967V84.7686H99.5744V85.5967L101.007 86.3357V93.0183L99.5549 93.6872V94.5154H105.765C108.591 94.5154 110.756 93.6044 110.756 91.19C110.756 89.0113 108.786 88.043 106.783 88.043ZM105.48 93.2986H104.728V89.2916C104.838 89.2725 104.981 89.2725 105.071 89.2725C106.446 89.2725 107.094 90.33 107.094 91.4002C107.087 92.3685 106.621 93.2859 105.48 93.2986Z" fill="#222222"/>
<path d="M94.434 84.5771C93.144 84.5771 91.7115 85.1569 90.9984 86.4947V84.6663L86.0396 85.1569V85.985L87.4916 86.6858V98.503L86.0396 99.1783V100.006H92.6644V99.1783L91.2123 98.5094V94.3049C91.893 94.5533 92.6255 94.7253 93.3255 94.7253C96.813 94.7253 98.3168 92.6676 98.3168 89.4697C98.3168 87.0935 97.1047 84.5771 94.434 84.5771ZM92.6644 93.3684C92.1976 93.3684 91.6402 93.1199 91.2123 92.7696V88.6224C91.2253 87.533 91.5365 86.6348 92.606 86.6348C93.9154 86.6348 94.5183 87.8452 94.5183 89.5716C94.5247 91.3298 94.2914 93.3684 92.6644 93.3684Z" fill="#222222"/>
<path d="M151.646 84.5576C149.085 84.5576 146.311 86.0865 146.311 89.6604C146.311 91.9665 147.581 94.7249 151.646 94.7249C154.239 94.7249 156.993 93.196 156.993 89.6221C157 87.3224 155.729 84.5576 151.646 84.5576ZM151.646 93.6164C150.356 93.6164 150.122 91.6671 150.122 89.8387C150.122 87.9722 150.109 85.6342 151.646 85.6342C152.949 85.6342 153.182 87.59 153.182 89.4183C153.188 91.2785 153.201 93.6164 151.646 93.6164Z" fill="#222222"/>
<path d="M135.849 85.5967L137.294 86.3357V93.0183L135.849 93.6872V94.5154H142.467V93.6872L141.021 93.0183V86.0235H143.037L144.347 88.4125H145.364L145.721 84.7686H135.849V85.5967Z" fill="#222222"/>
<path d="M129.671 84.5576C127.111 84.5576 124.336 86.0865 124.336 89.6604C124.336 91.9665 125.607 94.7249 129.671 94.7249C132.264 94.7249 135.019 93.196 135.019 89.6221C135.025 87.3224 133.755 84.5576 129.671 84.5576ZM129.671 93.6164C128.381 93.6164 128.148 91.6671 128.148 89.8387C128.148 87.9722 128.128 85.6342 129.671 85.6342C130.974 85.6342 131.207 87.59 131.207 89.4183C131.214 91.2785 131.227 93.6164 129.671 93.6164Z" fill="#222222"/>
<path d="M75.3373 80.9395H64.175V81.7995L65.7307 82.6595V92.986L64.1555 93.6549V94.5149H71.1304V93.6549L69.5617 92.986V82.4174H72.2777L73.9242 85.1949H74.9613L75.3373 80.9395Z" fill="#222222"/>
<path d="M79.7257 84.5576C77.1652 84.5576 74.3909 86.0865 74.3909 89.6604C74.3909 91.9665 75.6614 94.7249 79.7257 94.7249C82.3186 94.7249 85.0735 93.196 85.0735 89.6221C85.0735 87.3224 83.803 84.5576 79.7257 84.5576ZM79.7257 93.6164C78.4358 93.6164 78.2024 91.6671 78.2024 89.8387C78.2024 87.9722 78.1829 85.6342 79.7257 85.6342C81.0351 85.6342 81.2685 87.59 81.2685 89.4183C81.262 91.2785 81.2814 93.6164 79.7257 93.6164Z" fill="#222222"/>
</g>
<defs>
<clipPath id="clip0">
<rect width="93" height="39" fill="white" transform="translate(64 61)"/>
</clipPath>
</defs>
</svg>
