<svg width="221" height="161" viewBox="0 0 221 161" fill="none" xmlns="http://www.w3.org/2000/svg">
<path d="M129.592 50.1474V45.9487C129.592 45.9487 122.659 40 110.503 40C98.348 40 91.6999 45.2094 91.6999 45.2094V49.9778C79.9451 56.5641 72 69.1263 72 83.547C72 104.785 89.2349 122 110.503 122C131.765 122 149 104.785 149 83.547C149 69.2484 141.184 56.7744 129.592 50.1474Z" fill="#FFFCDF"/>
<path d="M128.458 52.237V54.2176C138.332 60.2681 144.926 71.148 144.926 83.5474C144.926 102.513 129.484 117.937 110.497 117.937C91.5098 117.937 76.0677 102.506 76.0677 83.5474C76.0677 71.0327 82.8041 60.0578 92.834 54.0412V52.0674C81.8195 58.2603 74.3564 70.0424 74.3564 83.5474C74.3564 103.456 90.5727 119.653 110.503 119.653C130.434 119.653 146.644 103.456 146.644 83.5474C146.644 70.1645 139.317 58.4706 128.458 52.237Z" fill="#B10836"/>
<path d="M92.834 59.6233V58.1514C84.8006 63.7474 79.5242 73.0401 79.5242 83.547C79.5242 85.7786 79.7686 88.0102 80.2372 90.1672C80.3051 90.4928 80.6243 90.6963 80.9502 90.6285C81.2762 90.5607 81.4799 90.2419 81.412 89.9163C80.957 87.8407 80.7261 85.6972 80.7261 83.547C80.7261 73.7455 85.4932 65.0497 92.834 59.6233Z" fill="#B10836"/>
<path d="M128.458 58.3623V59.841C135.629 65.2742 140.274 73.8751 140.274 83.5409C140.274 85.5555 140.07 87.5768 139.669 89.5303C139.602 89.8559 139.812 90.1747 140.138 90.2425C140.464 90.3036 140.783 90.1001 140.851 89.7745C141.265 87.7396 141.483 85.6369 141.483 83.5409C141.476 73.1697 136.328 63.9786 128.458 58.3623Z" fill="#B10836"/>
<path d="M128.458 64.243V66.6578C132.621 71.0735 135.181 77.0154 135.181 83.5475C135.181 97.1475 124.105 108.211 110.497 108.211C96.8814 108.211 85.8057 97.1475 85.8057 83.5475C85.8057 76.8662 88.488 70.7954 92.8273 66.3525V63.9717C87.4626 68.8012 84.0876 75.7877 84.0876 83.5475C84.0876 98.0903 95.9307 109.92 110.49 109.92C125.042 109.92 136.892 98.0903 136.892 83.5475C136.899 75.9302 133.646 69.059 128.458 64.243Z" fill="#B10836"/>
<path d="M82.6342 94.2168L85.0585 95.119L85.5406 96.2721L83.0552 95.2614L81.31 98.1646L80.8278 97.0114L82.152 94.9087L81.5409 94.6713L80.0944 95.2818L79.7209 94.3932L83.9991 92.5957L84.3726 93.4843L82.6342 94.2168Z" fill="#B10836"/>
<path d="M84.6035 98.8899L85.0789 99.6496C85.4184 100.185 85.8327 100.029 86.0771 99.8735C86.4574 99.6293 86.4914 99.324 86.1722 98.8085L85.758 98.1574L84.6035 98.8899ZM82.512 100.206L82.0027 99.3919L85.9277 96.9229L87.0618 98.7136C87.5371 99.4733 87.3402 100.226 86.5661 100.715C86.2197 100.938 85.1943 101.311 84.5288 100.253L83.938 99.3173L82.512 100.206Z" fill="#B10836"/>
<path d="M86.8582 103.279L87.6731 104.215L88.6442 102.532L88.6374 102.526L86.8582 103.279ZM89.7918 102.275L87.3607 106.541L86.6816 105.754L87.2045 104.9L86.0841 103.611L85.1469 103.998L84.4814 103.231L89.0584 101.434L89.7918 102.275Z" fill="#B10836"/>
<path d="M92.6643 106.989C92.7797 106.724 93.0106 106.202 92.3995 105.7C92.0328 105.402 91.2858 105.219 90.4573 106.223C89.9276 106.867 89.7103 107.681 90.3419 108.203C90.7561 108.549 91.2518 108.536 91.7 108.169L92.4402 108.78C91.6525 109.431 90.695 109.56 89.7986 108.82C88.8479 108.04 88.6985 106.833 89.7171 105.605C90.7493 104.357 91.992 104.31 92.9156 105.069C93.9817 105.951 93.8119 107.043 93.4113 107.606L92.6643 106.989Z" fill="#B10836"/>
<path d="M95.0408 108.889L96.6027 109.777L97.4787 108.258L98.3139 108.739L96.0119 112.755L95.1766 112.28L96.2088 110.476L94.6402 109.581L93.608 111.385L92.7727 110.903L95.0748 106.881L95.91 107.362L95.0408 108.889Z" fill="#B10836"/>
<path d="M99.4821 112.314L100.643 112.735L100.677 110.801L100.664 110.795L99.4821 112.314ZM101.56 110.008L101.506 114.912L100.528 114.559L100.569 113.555L98.966 112.972L98.3344 113.759L97.377 113.413L100.507 109.621L101.56 110.008Z" fill="#B10836"/>
<path d="M106.32 111.988L105.146 111.777C104.663 111.689 104.419 111.988 104.378 112.225C104.31 112.605 104.507 112.903 105.003 112.992L106.103 113.188L106.32 111.988ZM106.592 115.929L105.641 115.759L105.96 113.975L105.261 113.846L103.882 115.44L102.769 115.237L104.222 113.561C103.74 113.304 103.292 112.802 103.421 112.076C103.55 111.35 104.222 110.787 105.105 110.943L107.414 111.357L106.592 115.929Z" fill="#B10836"/>
<path d="M114.53 111.283L114.863 115.902L113.899 115.97L113.627 112.151L111.821 112.28L112.099 116.099L111.135 116.167L110.802 111.555L114.53 111.283Z" fill="#B10836"/>
<path d="M119.155 110.238L120.262 114.729L119.325 114.959L118.408 111.235L117.138 111.554L117.613 113.474C117.899 114.634 117.804 115.461 116.914 115.678C116.703 115.733 116.5 115.76 116.33 115.753L116.153 115.034C116.215 115.041 116.316 115.034 116.439 115C116.86 114.898 116.894 114.579 116.656 113.603L116.018 111.012L119.155 110.238Z" fill="#B10836"/>
<path d="M123.596 112.687C124.071 112.476 124.615 111.88 124.092 110.693C123.562 109.506 122.761 109.512 122.285 109.723C121.803 109.933 121.267 110.53 121.796 111.717C122.319 112.897 123.121 112.897 123.596 112.687ZM121.953 108.976C122.509 108.725 124.092 108.318 124.975 110.306C125.857 112.287 124.499 113.182 123.936 113.433C123.379 113.684 121.796 114.084 120.92 112.11C120.031 110.13 121.389 109.227 121.953 108.976Z" fill="#B10836"/>
<path d="M127.711 110.428L128.696 109.722L126.468 106.602L127.249 106.046L129.484 109.159L130.468 108.454L128.234 105.34L129.022 104.777L131.249 107.898L131.629 107.626L132.662 109.078L131.935 109.6L131.358 108.8L127.392 111.635L124.696 107.87L125.484 107.307L127.711 110.428Z" fill="#B10836"/>
<path d="M132.763 105.056L133.612 104.154L131.847 103.36L131.84 103.367L132.763 105.056ZM131.466 102.234L135.955 104.222L135.242 104.982L134.339 104.547L133.171 105.789L133.646 106.677L132.947 107.417L130.699 103.048L131.466 102.234Z" fill="#B10836"/>
<path d="M137.768 100.226L135.228 98.5577L134.536 99.6091L135.072 99.9618C136.07 100.62 136.485 100.979 136.817 101.671L137.768 100.226ZM135.093 97.3164L138.298 99.4191L138.549 99.0393L140.029 100.009L139.541 100.762L138.726 100.226L137.225 102.505L138.047 103.041L137.551 103.794L136.07 102.824L136.301 102.478C135.989 101.759 135.52 101.339 134.536 100.688L133.381 99.9347L135.093 97.3164Z" fill="#B10836"/>
<path d="M139.561 96.9025L139.996 95.9054C140.179 95.478 140.023 95.1185 139.676 94.9693C139.296 94.8065 138.99 94.9964 138.821 95.3966L138.386 96.3937L139.561 96.9025ZM137.653 96.0749L138.135 94.9693C138.488 94.1486 139.262 93.7348 140.104 94.1011C140.946 94.4674 141.136 95.2813 140.763 96.1292L139.907 98.1098L135.656 96.2649L136.043 95.3831L137.653 96.0749Z" fill="#B10836"/>
<path d="M116.975 101.698C116.71 101.99 116.316 102.132 115.793 102.132C115.155 102.132 114.707 101.922 114.456 101.502C114.327 101.278 114.252 100.986 114.238 100.627H115.114C115.114 100.81 115.148 100.959 115.203 101.081C115.311 101.305 115.515 101.413 115.8 101.413C115.977 101.413 116.126 101.352 116.262 101.23C116.391 101.108 116.459 100.939 116.459 100.715C116.459 100.416 116.337 100.213 116.092 100.118C115.956 100.064 115.739 100.037 115.447 100.037V99.3989C115.725 99.3989 115.922 99.365 116.038 99.3175C116.228 99.2294 116.323 99.053 116.323 98.7817C116.323 98.6053 116.275 98.4629 116.174 98.3611C116.079 98.2526 115.936 98.1916 115.759 98.1916C115.556 98.1916 115.399 98.2594 115.304 98.395C115.209 98.5307 115.162 98.7071 115.169 98.9377H114.32C114.327 98.7138 114.367 98.4968 114.435 98.2933C114.51 98.1169 114.625 97.9541 114.775 97.7981C114.89 97.6896 115.033 97.6082 115.189 97.5539C115.352 97.4997 115.549 97.4658 115.78 97.4658C116.214 97.4658 116.561 97.5811 116.825 97.8049C117.09 98.0288 117.226 98.3272 117.226 98.7071C117.226 98.9716 117.145 99.1954 116.988 99.3854C116.893 99.5007 116.792 99.5753 116.683 99.6228C116.764 99.6228 116.88 99.6906 117.029 99.833C117.253 100.043 117.369 100.328 117.369 100.694C117.369 101.068 117.233 101.407 116.975 101.698ZM113.383 101.108C113.118 101.807 112.622 102.16 111.909 102.16C111.569 102.16 111.257 102.058 110.985 101.861C110.714 101.658 110.558 101.373 110.517 100.986H111.406C111.427 101.122 111.488 101.23 111.576 101.312C111.671 101.393 111.794 101.441 111.95 101.441C112.249 101.441 112.452 101.278 112.574 100.945C112.642 100.762 112.683 100.498 112.697 100.152C112.615 100.254 112.527 100.335 112.439 100.382C112.276 100.484 112.072 100.532 111.821 100.532C111.454 100.532 111.142 100.41 110.856 100.159C110.571 99.9077 110.435 99.5549 110.435 99.0801C110.435 98.5918 110.578 98.2051 110.856 97.8999C111.135 97.5946 111.502 97.4454 111.95 97.4454C112.642 97.4454 113.111 97.7507 113.369 98.3679C113.512 98.7138 113.586 99.1683 113.586 99.7381C113.6 100.281 113.525 100.735 113.383 101.108ZM108.432 83.4453V82.2514H110.293V83.4453H108.432ZM109.322 101.732C109.037 101.997 108.643 102.132 108.133 102.132C107.624 102.132 107.237 101.997 106.979 101.732C106.714 101.461 106.585 101.135 106.585 100.756C106.585 100.498 106.646 100.267 106.755 100.064C106.87 99.8534 107.04 99.6974 107.257 99.5956C107.04 99.4532 106.897 99.2904 106.836 99.1276C106.768 98.958 106.734 98.7952 106.734 98.646C106.734 98.3136 106.857 98.0423 107.108 97.8117C107.359 97.5743 107.706 97.459 108.161 97.459C108.616 97.459 108.962 97.5743 109.213 97.8117C109.464 98.0423 109.587 98.3204 109.587 98.646C109.587 98.7952 109.553 98.9513 109.492 99.1276C109.424 99.2972 109.281 99.4396 109.064 99.5617C109.288 99.6838 109.458 99.8534 109.566 100.064C109.682 100.267 109.736 100.498 109.736 100.756C109.743 101.135 109.607 101.461 109.322 101.732ZM106.266 83.4453V82.2514H108.12V83.4453H106.266ZM104.073 83.4453V82.2514H105.947V83.4453H104.073ZM105.41 102.024H104.5V98.8902H103.434V98.2797C103.713 98.2662 103.91 98.2458 104.018 98.2255C104.195 98.1848 104.344 98.1102 104.453 97.9881C104.527 97.9067 104.589 97.8049 104.629 97.6693C104.65 97.5879 104.663 97.5268 104.663 97.4861H105.403V102.024H105.41ZM110.612 83.4453V82.2514H112.473V83.4453H110.612ZM112.785 83.4453V82.2514H114.646V83.4453H112.785ZM114.965 83.4453V82.2514H116.846V83.4453H114.965ZM130.162 91.0626L127.616 93.5452H126.672V91.5374L124.547 83.5945V83.5199H125.008V82.9637H124.547V79.796H125.008V79.2398H124.519L123.487 72.8637V70.7406H125.83L125.042 69.9674L125.83 69.1466H123.487V68.665H123.216V69.1466H123.209V70.7474H123.216V72.8705L122.183 79.2466H121.688V79.8028H122.156V82.9704H121.688V83.5266H122.156V83.6013L120.506 89.7467L117.803 84.5034L118.367 83.4588H117.389V81.5121H116.839V81.9191H104.073V81.5121H103.516V83.452H102.545L103.108 84.4966L100.399 89.7399L98.7554 83.5945V83.5199H99.2239V82.9637H98.7554V79.796H99.2239V79.2398H98.735L97.7028 72.8637V70.7406H100.046L99.2647 69.9674L100.046 69.1466H97.7028V68.665H97.4244V72.8705L96.3922 79.2466H95.9033V79.8028H96.3718V82.9704H95.9033V83.5266H96.3718V83.6013L94.2396 91.5442V93.552H93.2956L90.7491 91.0694L89.0039 92.738C92.6234 100.993 100.874 106.772 110.476 106.772C120.071 106.772 128.315 101.007 131.928 92.7583L130.162 91.0626Z" fill="#B10836"/>
<path d="M111.997 98.1846C111.841 98.1846 111.712 98.2321 111.604 98.3134C111.427 98.4491 111.345 98.673 111.345 98.9918C111.345 99.2631 111.4 99.4598 111.508 99.5954C111.617 99.7311 111.787 99.7989 112.018 99.7989C112.14 99.7989 112.255 99.765 112.364 99.6904C112.575 99.5547 112.676 99.3309 112.676 99.0121C112.676 98.7543 112.615 98.5509 112.493 98.4016C112.378 98.2592 112.215 98.1846 111.997 98.1846Z" fill="#B10836"/>
<path d="M108.167 99.3106C108.351 99.3106 108.493 99.2563 108.595 99.1546C108.697 99.0528 108.751 98.9172 108.751 98.7544C108.751 98.578 108.697 98.4356 108.595 98.3406C108.493 98.2457 108.351 98.1914 108.167 98.1914C107.984 98.1914 107.841 98.2457 107.746 98.3406C107.644 98.4424 107.59 98.5848 107.59 98.7544C107.59 98.924 107.644 99.0528 107.746 99.1546C107.841 99.2563 107.984 99.3106 108.167 99.3106Z" fill="#B10836"/>
<path d="M108.167 99.9893C107.964 99.9893 107.808 100.05 107.685 100.172C107.563 100.294 107.509 100.471 107.509 100.701C107.509 100.925 107.57 101.102 107.685 101.224C107.801 101.346 107.964 101.407 108.167 101.407C108.378 101.407 108.541 101.346 108.65 101.224C108.765 101.102 108.826 100.925 108.826 100.701C108.826 100.471 108.765 100.288 108.65 100.172C108.527 100.05 108.371 99.9893 108.167 99.9893Z" fill="#B10836"/>
<path d="M103.665 47.2306L103.896 47.1831V43.7373L103.557 43.7984C100.623 44.3139 97.7437 45.155 95.0003 46.3013L94.8237 46.3759V64.7986L95.0003 64.8732C95.9306 65.2666 96.8949 65.6193 97.8524 65.9381L98.2259 66.0602C98.2259 66.0602 98.2259 49.1027 98.2259 48.7025C99.9983 48.0784 101.825 47.5833 103.665 47.2306Z" fill="#B10836"/>
<path d="M106.415 43.3978L106.157 43.4181C106.157 43.4181 106.157 56.3669 106.157 56.9706C104.887 56.8282 103.896 55.7564 103.896 54.4541V49.4889L103.55 49.5635C102.592 49.7603 101.635 49.9977 100.691 50.2825L100.487 50.3436V54.4609C100.487 57.6421 103.006 60.24 106.15 60.3893C106.15 60.7148 106.15 61.3389 106.15 61.3389C106.15 62.743 105.01 63.8825 103.604 63.8825C103.421 63.8825 103.237 63.8622 103.067 63.8282C103.054 63.8282 101.696 63.5366 100.847 63.2992L100.48 63.1974V66.7178L100.684 66.7789C101.051 66.8874 102.076 67.1044 102.382 67.1655C102.769 67.2469 103.183 67.2876 103.604 67.2876C106.884 67.2876 109.553 64.6219 109.553 61.3457V43.1875L109.261 43.2011C108.31 43.2282 107.352 43.296 106.415 43.3978Z" fill="#B10836"/>
<path d="M126.414 46.3755C125.511 45.8532 124.485 45.5751 123.44 45.5751C121.939 45.5751 120.533 46.1313 119.433 47.1352C117.803 44.6594 115.087 43.1875 112.106 43.1875H111.821V67.9727L112.113 67.9659C113.064 67.932 114.021 67.8641 114.965 67.7692L115.223 67.7421C115.223 67.7421 115.223 48.6071 115.223 47.5965C116.629 48.6004 117.484 50.2283 117.484 51.9647V67.43L117.817 67.369C118.768 67.1994 119.725 66.9959 120.669 66.7585L120.893 66.711V51.5238C120.893 50.2147 121.885 49.1498 123.155 49.0073C123.155 49.611 123.155 66.0599 123.155 66.0599L123.528 65.9378C124.492 65.619 125.45 65.2595 126.38 64.8728L126.557 64.7982V46.4569L126.414 46.3755Z" fill="#B10836"/>
</svg>
