<svg width="221" height="161" viewBox="0 0 221 161" fill="none" xmlns="http://www.w3.org/2000/svg">
<path d="M179 63H143.725V97.9996H179V63Z" fill="#510C76"/>
<path d="M153.583 63V67.9109H148.68V63H153.583ZM148.68 93.0702V72.7754H153.583V93.0702H148.68ZM158.878 93.0702V88.1933L167.063 77.64H158.878V72.7754H174.031V77.64L165.856 88.1933H174.031V93.0702H158.878Z" fill="white"/>
<path d="M139.499 63H42V97.9996H139.499V63Z" fill="#510C76"/>
<path d="M55.3395 67.8213H53.2364C53.1275 67.8213 53.0231 67.8642 52.9461 67.9406C52.869 68.017 52.8258 68.1207 52.8258 68.2287V70.2351L49.4908 75.9577V68.2411C49.4924 68.1868 49.4831 68.1327 49.4634 68.0821C49.4437 68.0314 49.414 67.9852 49.3761 67.9461C49.3381 67.907 49.2926 67.8758 49.2423 67.8543C49.192 67.8329 49.1379 67.8217 49.0832 67.8213H46.9771C46.8681 67.8213 46.7637 67.8642 46.6867 67.9406C46.6097 68.017 46.5664 68.1207 46.5664 68.2287V92.922C46.5688 93.0284 46.6132 93.1297 46.6899 93.2041C46.7667 93.2785 46.8697 93.3202 46.9771 93.3202H49.0832C49.1916 93.3194 49.2952 93.2761 49.3716 93.1997C49.4479 93.1234 49.4908 93.0203 49.4908 92.9127V83.7762L52.8258 78.0443V92.9127C52.8258 93.0208 52.869 93.1244 52.9461 93.2008C53.0231 93.2773 53.1275 93.3202 53.2364 93.3202H55.3395C55.4484 93.3202 55.5528 93.2773 55.6299 93.2008C55.7069 93.1244 55.7501 93.0208 55.7501 92.9127V68.2195C55.7477 68.113 55.7034 68.0117 55.6266 67.9373C55.5499 67.8629 55.4468 67.8213 55.3395 67.8213V67.8213Z" fill="white"/>
<path d="M122.482 67.667H120.379C120.27 67.667 120.166 67.7099 120.089 67.7863C120.012 67.8627 119.968 67.9664 119.968 68.0744V70.0838L116.633 75.8034V68.0868C116.633 67.9792 116.591 67.8761 116.514 67.7998C116.438 67.7234 116.334 67.6802 116.226 67.6793H114.12C114.011 67.6793 113.906 67.7223 113.829 67.7987C113.752 67.8751 113.709 67.9787 113.709 68.0868V92.78C113.71 92.8876 113.753 92.9904 113.83 93.0662C113.907 93.1419 114.011 93.1844 114.12 93.1844H116.226C116.334 93.1844 116.438 93.1418 116.514 93.066C116.59 92.9901 116.633 92.8873 116.633 92.78V83.6219L119.968 77.89V92.7615C119.969 92.869 120.013 92.9719 120.09 93.0476C120.167 93.1234 120.271 93.1659 120.379 93.1659H122.482C122.589 93.1643 122.692 93.121 122.767 93.0455C122.843 92.9699 122.886 92.868 122.886 92.7615V68.0683C122.885 67.9623 122.842 67.8612 122.766 67.7863C122.691 67.7114 122.589 67.6686 122.482 67.667Z" fill="white"/>
<path d="M75.0825 79.5504C75.4776 78.8713 75.8136 78.2941 76.0158 77.9391C76.9491 76.3248 77.8233 75.013 77.8233 73.6456V70.2904C77.7922 68.5063 76.0345 67.7161 75.1572 67.7408H70.0365C69.9281 67.7416 69.8244 67.7849 69.7481 67.8612C69.6717 67.9375 69.6289 68.0407 69.6289 68.1482V92.8415C69.6289 92.949 69.6717 93.0522 69.7481 93.1285C69.8244 93.2048 69.9281 93.2481 70.0365 93.2489H76.0252C76.9025 93.2736 78.6602 92.4835 78.6913 90.6994V86.6003C78.6966 86.0887 78.5737 85.5838 78.3335 85.131L75.0825 79.5504ZM72.5533 73.2659C72.5533 73.189 72.5841 73.1152 72.6389 73.0607C72.6938 73.0063 72.7681 72.9758 72.8457 72.9758H74.7123C75.4434 72.9758 75.4932 73.7042 75.3656 74.0036C75.2847 74.1888 73.9003 76.7168 72.5377 79.1584L72.5533 73.2659ZM75.7669 88.1282C75.7373 88.2982 75.6453 88.4513 75.5085 88.5579C75.3718 88.6645 75.2 88.7171 75.0265 88.7054H72.8488C72.7713 88.7054 72.6969 88.6748 72.642 88.6204C72.5872 88.566 72.5564 88.4922 72.5564 88.4152V83.8933L73.7355 81.8684L75.3812 84.6958C75.6262 85.0853 75.7606 85.5332 75.7701 85.9922L75.7669 88.1282Z" fill="white"/>
<path d="M134.596 67.8218H128.71C127.833 67.7972 126.075 68.5873 126.044 70.3714V73.7143C126.044 75.0786 126.921 76.3935 127.848 78.0078C128.01 78.2856 128.247 78.6992 128.533 79.1869L126.542 82.61C126.3 83.0625 126.176 83.5674 126.181 84.0793C126.181 84.8448 126.181 91.1508 126.181 92.9102C126.181 92.9636 126.191 93.0164 126.212 93.0657C126.233 93.1149 126.263 93.1596 126.301 93.1972C126.339 93.2348 126.385 93.2645 126.435 93.2847C126.484 93.3048 126.538 93.315 126.591 93.3146H128.695C128.802 93.3154 128.906 93.2741 128.984 93.1996C129.061 93.1251 129.106 93.0234 129.108 92.9164V84.4898C129.118 84.0312 129.251 83.5835 129.494 83.1934L130.182 82.0143C130.882 83.2212 131.56 84.3818 131.964 85.0763V92.9009C131.964 93.009 132.007 93.1126 132.084 93.1891C132.162 93.2655 132.266 93.3084 132.375 93.3084H134.596C134.674 93.3084 134.748 93.2778 134.803 93.2234C134.858 93.169 134.889 93.0952 134.889 93.0182V68.112C134.889 68.035 134.858 67.9612 134.803 67.9068C134.748 67.8524 134.674 67.8218 134.596 67.8218V67.8218ZM131.964 80.3969C130.43 77.6652 128.579 74.3038 128.486 74.0785C128.359 73.7698 128.408 73.0537 129.139 73.0476H131.554C131.662 73.0476 131.767 73.0905 131.844 73.1669C131.921 73.2433 131.964 73.3469 131.964 73.455V80.3969Z" fill="white"/>
<path d="M101.013 88.7803H96.1504C95.9334 88.7803 95.7253 88.6948 95.5718 88.5426C95.4184 88.3903 95.3322 88.1838 95.3322 87.9685V73.8687C95.3322 73.6531 95.4183 73.4463 95.5716 73.2936C95.725 73.1408 95.9331 73.0546 96.1504 73.0538H99.8338C99.8758 73.0539 99.9173 73.0449 99.9555 73.0275C99.9936 73.0101 100.028 72.9846 100.055 72.9529C100.082 72.9212 100.102 72.884 100.113 72.8438C100.124 72.8037 100.127 72.7616 100.12 72.7205L99.3921 68.217C99.3763 68.1071 99.321 68.0066 99.2364 67.934C99.1517 67.8614 99.0435 67.8216 98.9316 67.8219H95.3042C94.9169 67.7997 94.5293 67.8593 94.167 67.997C93.8047 68.1346 93.4761 68.347 93.2028 68.6202C92.9295 68.8934 92.7179 69.221 92.5819 69.5815C92.4459 69.942 92.3887 70.327 92.414 70.711V90.4224C92.389 90.808 92.447 91.1945 92.5842 91.5561C92.7215 91.9177 92.9348 92.2461 93.2101 92.5195C93.4853 92.7929 93.8161 93.0049 94.1804 93.1415C94.5447 93.2781 94.9342 93.336 95.3228 93.3115H100.223C100.334 93.3121 100.441 93.2732 100.526 93.2018C100.61 93.1305 100.666 93.0314 100.683 92.9226L101.305 89.1137C101.312 89.0721 101.309 89.0297 101.297 88.9894C101.285 88.949 101.265 88.9117 101.237 88.88C101.209 88.8483 101.175 88.8229 101.136 88.8057C101.097 88.7885 101.055 88.7799 101.013 88.7803V88.7803Z" fill="white"/>
<path d="M64.4272 78.8906L65.2579 77.4553C66.1912 75.8441 66.7356 75.0847 66.7356 73.7204V70.3776C66.7045 68.5935 64.9468 67.7972 64.0695 67.8218H59.602C59.4904 67.8219 59.3825 67.8614 59.2976 67.9332C59.2126 68.005 59.1562 68.1045 59.1385 68.2138L58.4105 72.7111C58.4037 72.7526 58.4062 72.7951 58.4176 72.8357C58.429 72.8762 58.4492 72.9137 58.4767 72.9457C58.5043 72.9777 58.5385 73.0034 58.577 73.021C58.6155 73.0386 58.6574 73.0476 58.6998 73.0476H63.0926C63.2715 73.0385 63.4472 73.0972 63.5841 73.2118C63.7209 73.3265 63.8088 73.4884 63.8299 73.6649V74.026C63.7907 74.8688 63.5599 75.6918 63.1548 76.4336C62.7379 77.1034 61.6366 78.9029 61.6366 78.9029H60.5696C60.4723 78.9018 60.3778 78.9355 60.3035 78.9979C60.2292 79.0602 60.1801 79.1471 60.1651 79.2425L59.8136 81.4031C59.8068 81.4447 59.8092 81.4872 59.8207 81.5277C59.8321 81.5682 59.8523 81.6058 59.8798 81.6378C59.9073 81.6698 59.9415 81.6955 59.9801 81.713C60.0186 81.7306 60.0605 81.7397 60.1029 81.7396H62.6135C63.049 81.755 63.833 81.9803 63.833 83.1162V84.3509C63.833 85.4528 63.833 86.7184 63.833 87.9716C63.833 88.1869 63.7468 88.3933 63.5934 88.5456C63.4399 88.6978 63.2318 88.7833 63.0148 88.7833H58.423C58.3806 88.7833 58.3386 88.7923 58.3001 88.8099C58.2616 88.8275 58.2274 88.8532 58.1999 88.8852C58.1723 88.9172 58.1522 88.9547 58.1407 88.9952C58.1293 89.0358 58.1269 89.0783 58.1336 89.1198L58.7558 92.9164C58.7735 93.0252 58.8294 93.1243 58.9137 93.196C58.998 93.2678 59.1052 93.3076 59.2163 93.3084H63.8486C64.236 93.3306 64.6237 93.2709 64.9861 93.1333C65.3486 92.9957 65.6774 92.7834 65.9509 92.5102C66.2244 92.2371 66.4364 91.9095 66.5727 91.549C66.709 91.1886 66.7667 90.8035 66.7418 90.4193V86.7894V82.4001C66.7418 79.048 64.4272 78.8906 64.4272 78.8906Z" fill="white"/>
<path d="M89.7637 73.0467C89.8061 73.0468 89.848 73.0377 89.8865 73.0202C89.9251 73.0026 89.9593 72.9769 89.9868 72.9449C90.0143 72.9129 90.0345 72.8753 90.0459 72.8348C90.0574 72.7943 90.0598 72.7518 90.053 72.7103L89.325 68.2161C89.3079 68.1073 89.252 68.0082 89.1675 67.9369C89.0831 67.8655 88.9756 67.8266 88.8646 67.8272H81.9799C81.9024 67.8272 81.828 67.8577 81.7732 67.9121C81.7183 67.9666 81.6875 68.0404 81.6875 68.1173V93.0359C81.6875 93.1129 81.7183 93.1866 81.7732 93.2411C81.828 93.2955 81.9024 93.326 81.9799 93.326H88.9175C89.0285 93.3266 89.1359 93.2877 89.2204 93.2163C89.3049 93.145 89.3608 93.0459 89.3779 92.9371L90.0001 89.1282C90.0069 89.0867 90.0045 89.0442 89.9931 89.0036C89.9816 88.9631 89.9614 88.9256 89.9339 88.8936C89.9064 88.8616 89.8722 88.8359 89.8337 88.8183C89.7951 88.8007 89.7532 88.7917 89.7108 88.7917H84.6212V81.7109H87.0073C87.0497 81.711 87.0917 81.702 87.1302 81.6844C87.1687 81.6668 87.2029 81.6411 87.2304 81.6091C87.258 81.5771 87.2781 81.5396 87.2896 81.499C87.301 81.4585 87.3034 81.416 87.2967 81.3745L86.942 79.1984C86.9249 79.0896 86.869 78.9906 86.7845 78.9192C86.7 78.8478 86.5925 78.8089 86.4816 78.8095H84.615V73.0467H89.7637Z" fill="white"/>
<path d="M110.86 68.2161C110.842 68.1073 110.787 68.0082 110.702 67.9369C110.618 67.8655 110.51 67.8266 110.399 67.8272H102.594C102.482 67.8265 102.374 67.8653 102.289 67.9366C102.204 68.0079 102.148 68.1071 102.13 68.2161L101.421 72.701C101.414 72.7424 101.416 72.7847 101.428 72.8251C101.439 72.8655 101.459 72.9029 101.487 72.9346C101.515 72.9664 101.549 72.9918 101.587 73.009C101.626 73.0263 101.668 73.0349 101.71 73.0344H105.039V92.9155C105.039 93.0236 105.082 93.1272 105.159 93.2036C105.236 93.28 105.341 93.323 105.45 93.323H107.556C107.609 93.323 107.663 93.3124 107.712 93.2919C107.762 93.2714 107.807 93.2413 107.845 93.2034C107.883 93.1656 107.913 93.1206 107.933 93.0712C107.953 93.0218 107.964 92.9689 107.963 92.9155C107.963 92.9155 107.963 78.933 107.963 73.0313H111.311C111.353 73.0318 111.395 73.0232 111.433 73.0059C111.472 72.9887 111.506 72.9633 111.534 72.9315C111.561 72.8998 111.582 72.8624 111.593 72.822C111.604 72.7817 111.607 72.7393 111.6 72.6979L110.86 68.2161Z" fill="white"/>
</svg>
