<svg width="221" height="161" viewBox="0 0 221 161" fill="none" xmlns="http://www.w3.org/2000/svg">
<g clip-path="url(#clip0)">
<path d="M71.3425 58H69.5809C69.3834 58 69.2352 58.1447 69.2352 58.3377V59.9939L66.453 64.7052V58.3377C66.453 58.1447 66.2883 58 66.1073 58H64.3457C64.1482 58 64 58.1447 64 58.3377V78.6623C64 78.8392 64.1482 79 64.3457 79H66.1073C66.2883 79 66.453 78.8553 66.453 78.6623V71.1371L69.2352 66.4096V78.6623C69.2352 78.8392 69.3834 79 69.5809 79H71.3425C71.5236 79 71.6882 78.8553 71.6882 78.6623V58.3377C71.6882 58.1447 71.5236 58 71.3425 58Z" fill="#510C76"/>
<path d="M127.514 58H125.752C125.571 58 125.407 58.1447 125.407 58.3377V59.9939L122.624 64.7052V58.3377C122.624 58.1447 122.476 58 122.279 58H120.517C120.336 58 120.171 58.1447 120.171 58.3377V78.6623C120.171 78.8392 120.32 79 120.517 79H122.279C122.46 79 122.624 78.8553 122.624 78.6623V71.1371L125.407 66.4096V78.6623C125.407 78.8392 125.555 79 125.752 79H127.514C127.695 79 127.86 78.8553 127.86 78.6623V58.3377C127.86 58.1447 127.711 58 127.514 58Z" fill="#510C76"/>
<path d="M87.8547 67.7275C88.1839 67.1647 88.4638 66.6984 88.6284 66.3929C89.4022 65.0583 90.143 63.9809 90.143 62.8554V60.1057C90.1265 58.6425 88.6613 57.9832 87.9205 57.9993C87.7888 57.9993 84.6773 57.9993 83.6402 57.9993C83.4591 57.9993 83.2944 58.144 83.2944 58.337V78.6616C83.2944 78.8546 83.4426 78.9993 83.6402 78.9993C84.7926 78.9993 88.4309 78.9832 88.6449 78.9832C89.3857 78.9993 90.8509 78.3561 90.8674 76.8768V76.7803V74.69V73.5322C90.8674 72.8086 90.571 72.3263 90.571 72.3263L87.8547 67.7275ZM85.7474 62.5498C85.7474 62.4212 85.8626 62.3087 85.9943 62.3087H87.5748C88.1839 62.3087 88.2333 62.9036 88.1181 63.1609C88.0358 63.3056 86.8833 65.3959 85.7474 67.4059V62.5498ZM88.4309 74.7864C88.3979 74.9472 88.2662 75.2528 87.8053 75.2528H85.9779C85.8462 75.2528 85.7309 75.1402 85.7309 75.0116V71.2972C86.0273 70.7987 86.373 70.2198 86.7187 69.6249L88.1016 71.9564C88.1016 71.9564 88.4309 72.4227 88.4309 73.0177V74.7864V74.7864Z" fill="#510C76"/>
<path d="M137.655 57.9993C136.651 57.9993 132.897 57.9993 132.733 57.9993C131.992 57.9832 130.527 58.6264 130.51 60.1057V62.8554C130.51 63.9809 131.251 65.0583 132.025 66.3929C132.157 66.618 132.354 66.9557 132.601 67.3577L130.938 70.1716C130.938 70.1716 130.642 70.654 130.642 71.3776C130.642 72.0047 130.642 77.1984 130.642 78.6456C130.642 78.8224 130.79 78.9832 130.988 78.9832H132.749C132.93 78.9832 133.095 78.8385 133.095 78.6456C133.095 77.1662 133.095 71.8117 133.095 71.7152C133.095 71.1203 133.424 70.654 133.424 70.654L134 69.6892C134.593 70.6861 135.153 71.6348 135.499 72.2137V78.6616C135.499 78.8385 135.647 78.9993 135.844 78.9993H137.705C137.836 78.9993 137.951 78.8868 137.951 78.7581V58.2405C137.902 58.1119 137.787 57.9993 137.655 57.9993ZM135.449 68.3546C134.165 66.1035 132.618 63.3217 132.535 63.1448C132.42 62.9036 132.469 62.3087 133.078 62.2926H135.103C135.284 62.2926 135.449 62.4373 135.449 62.6303V68.3546V68.3546Z" fill="#510C76"/>
<path d="M109.553 75.2693H105.486C105.108 75.2693 104.795 74.9638 104.795 74.594V62.9845C104.795 62.6147 105.108 62.3091 105.486 62.3091H108.565C108.713 62.3091 108.828 62.1805 108.812 62.0358L108.203 58.3214C108.17 58.1445 108.005 57.9998 107.808 57.9998H104.779C104.12 57.9516 102.342 58.3536 102.359 60.3796V76.62C102.342 78.6621 104.137 79.048 104.795 78.9998H108.894C109.092 78.9998 109.256 78.8712 109.273 78.6782L109.783 75.5427C109.816 75.398 109.701 75.2693 109.553 75.2693Z" fill="#510C76"/>
<path d="M78.9483 67.1331C79.2446 66.6346 79.508 66.1683 79.6397 65.9593C80.4135 64.6246 80.8744 64.0136 80.8744 62.888V60.1224C80.8415 58.643 79.3763 57.9998 78.6355 58.0159H74.8984C74.7008 58.0159 74.5362 58.1446 74.5197 58.3375L73.9106 62.0358C73.8777 62.1805 73.9929 62.3092 74.1411 62.3092H77.8288C78.0757 62.3092 78.3721 62.4217 78.4379 62.8076V63.1132C78.4379 63.1132 78.405 64.2387 77.8617 65.107C77.516 65.6537 76.5941 67.1331 76.5941 67.1331H75.7215C75.5569 67.1331 75.4087 67.2456 75.3758 67.4225L75.0795 69.1913C75.063 69.336 75.1783 69.4807 75.3264 69.4807H76.6599C77.1374 69.4807 77.3678 69.4807 77.4337 69.4807C77.7959 69.4968 78.4544 69.6737 78.4544 70.6063V71.6193C78.4544 72.5197 78.4544 73.5649 78.4544 74.594C78.4544 74.9639 78.1416 75.2694 77.7629 75.2694H73.9106C73.7625 75.2694 73.6472 75.398 73.6637 75.5427L74.174 78.6782C74.207 78.8712 74.3716 78.9998 74.5527 78.9998H78.4379C79.0964 79.0481 80.8744 78.6461 80.858 76.6201V73.6292V70.0113C80.8744 67.2617 78.9483 67.1331 78.9483 67.1331Z" fill="#510C76"/>
<path d="M100.136 62.3093C100.284 62.3093 100.399 62.1807 100.383 62.036L99.7738 58.3377C99.7409 58.1447 99.5763 58 99.3952 58H93.6332C93.5015 58 93.3862 58.1126 93.3862 58.2412V78.7588C93.3862 78.8874 93.5015 79 93.6332 79H99.4446C99.6421 79 99.8068 78.8714 99.8232 78.6784L100.334 75.5429C100.35 75.3982 100.235 75.2695 100.087 75.2695H95.8227V69.4487H97.8148C97.9629 69.4487 98.0782 69.3201 98.0617 69.1753L97.7654 67.3905C97.7324 67.1975 97.5678 67.0689 97.3867 67.0689H95.8392V62.3093H100.136Z" fill="#510C76"/>
<path d="M117.784 58.3216C117.768 58.1447 117.603 58 117.406 58H110.87C110.672 58 110.508 58.1286 110.491 58.3216L109.882 62.0199C109.866 62.1646 109.981 62.2933 110.129 62.2933H112.911V78.6623C112.911 78.8392 113.06 79 113.257 79H115.019C115.2 79 115.364 78.8553 115.364 78.6623C115.364 78.6623 115.364 67.1493 115.364 62.2772H118.163C118.311 62.2772 118.426 62.1485 118.41 62.0038L117.784 58.3216Z" fill="#510C76"/>
<path d="M149.508 60.9426H146.512V58H143.483V79H164.983V58H149.492V60.9426H149.508ZM149.508 76.0574H146.512V63.8691H149.508V76.0574ZM152.735 73.1309L157.723 66.7956H152.735V63.8691H161.971V66.7956L156.983 73.1309H161.971V76.0574H152.735V73.1309Z" fill="#510C76"/>
</g>
<defs>
<clipPath id="clip0">
<rect width="101" height="21" fill="white" transform="translate(64 58)"/>
</clipPath>
</defs>
</svg>
