<svg width="221" height="161" viewBox="0 0 221 161" fill="none" xmlns="http://www.w3.org/2000/svg">
<g clip-path="url(#clip0)">
<path d="M114.073 85.1787L112.896 85.7744L123.361 104.239L124.538 103.643L114.073 85.1787Z" fill="#232323"/>
<path d="M123.347 104.24L112.708 85.4635L116.28 79.6934L117.438 80.3242L114.258 85.4821L124.525 103.646L123.347 104.24Z" fill="#232323"/>
<path d="M124.544 105H116.673L106.152 86.5206L105.523 87.4854V73.8114L117.144 56H125.251L129 62.7164L117.635 80.0269L128.843 98.766L124.544 105ZM117.478 103.72H123.818L127.273 98.7103L116.084 79.9898L127.469 62.6607L124.819 57.9296L106.956 85.2775L117.478 103.72ZM106.858 74.1825V83.0326L123.68 57.2802H117.909L106.858 74.1825Z" fill="#232323"/>
<path d="M100.597 78.784H99.2618V63.6072L93.6282 60.7499L94.2563 59.6367L100.597 62.8465V78.784Z" fill="#232323"/>
<path d="M106.858 105H93V59.6736L99.9291 56.167L106.858 59.6736V105ZM94.3348 103.72H105.504V60.4343L99.9291 57.5956L94.3348 60.4343V103.72Z" fill="#232323"/>
<path d="M100.597 103.943H99.2617V62.8465L105.877 59.4883L106.505 60.62L100.597 63.6072V103.943Z" fill="#232323"/>
</g>
<defs>
<clipPath id="clip0">
<rect width="36" height="49" fill="white" transform="translate(93 56)"/>
</clipPath>
</defs>
</svg>
