<svg width="221" height="161" viewBox="0 0 221 161" fill="none" xmlns="http://www.w3.org/2000/svg">
<path d="M119.189 65.4789V52.7676H125.011V56.6187C125.011 56.6187 125.93 56.6815 126.661 55.9454C127.392 55.2183 127.633 52.7676 127.633 52.7676H133.018C133.018 52.7676 132.733 55.8197 132.243 56.7982C131.752 57.7767 130.664 58.7552 130.664 58.7552C130.664 58.7552 131.877 59.976 132.367 61.565C132.849 63.1539 133.018 65.4789 133.018 65.4789H127.918C127.918 65.4789 128.043 61.8522 125.011 60.766V65.4789H119.189Z" fill="#006EB6"/>
<path d="M143.763 52.7676C139.875 52.7676 134.784 52.7676 134.784 52.7676V65.4789L140.883 65.5058V62.9654C140.883 62.9654 143.192 62.5704 145.733 61.6009C148.185 60.6583 150.227 59.1591 150.102 55.9723C150.022 53.6563 147.65 52.7676 143.763 52.7676ZM144.619 57.1124C143.281 58.827 140.856 59.213 140.856 59.213V55.5235C140.856 55.5235 142.916 55.5235 143.772 55.5235C144.619 55.5235 145.154 56.4122 144.619 57.1124Z" fill="#006EB6"/>
<path d="M149.157 61.52C147.9 61.3943 146.857 62.4446 146.982 63.7014C147.062 64.5542 147.722 65.2813 148.551 65.4429C149.951 65.7212 151.163 64.5003 150.887 63.082C150.727 62.2561 150.004 61.6098 149.157 61.52Z" fill="#006EB6"/>
<path d="M133.348 75.524C132.965 74.1146 132.234 73.4413 132.234 73.4413C132.234 73.4413 133.321 72.409 133.696 70.3623C134.079 68.3065 132.983 66.5381 129.006 66.5381C125.029 66.5381 119.189 66.5381 119.189 66.5381V79.2494H125.305V77.059C125.912 76.9064 127.321 76.3858 127.321 76.3858C127.321 76.3858 127.891 76.6461 128.087 77.4181C128.275 78.1722 128.435 79.2494 128.435 79.2494H133.919C133.91 79.2494 133.723 76.9334 133.348 75.524ZM128.15 71.4485C127.294 72.2564 125.279 73.2438 125.279 73.2438L125.305 68.908C125.305 68.908 127.062 68.8452 127.695 68.8811C128.854 68.9439 129.229 70.4251 128.15 71.4485Z" fill="#006EB6"/>
<path d="M150.12 66.5381L150.085 76.1254C150.085 76.1703 150.076 77.6156 148.658 78.5313C147.222 79.4738 143.888 79.5277 142.514 79.5277H142.399C141.025 79.5277 137.691 79.4649 136.246 78.5313C134.846 77.6156 134.828 76.1973 134.828 76.1254L134.793 66.5381H140.892L140.856 75.5599C140.856 75.5599 141.204 76.0895 142.452 76.0985C143.7 76.0895 144.039 75.5599 144.039 75.5599L144.012 66.5381H150.12Z" fill="#006EB6"/>
<path fill-rule="evenodd" clip-rule="evenodd" d="M76.9154 51.1604L71.0483 47.9556C71.0483 47.9556 87.1783 47.9646 94.8555 47.9736C97.3967 47.9736 99.8309 48.9969 101.623 50.8013C101.98 50.3794 102.176 50.155 102.818 49.5715C104.129 48.3865 105.885 47.0669 108.997 47.0041C109.871 46.9861 111.048 47.1746 111.681 47.9107C113.001 47.9018 114.392 48.0364 115.506 48.1711L112.216 50.909C111.512 55.2269 109.425 56.8248 108.48 57.6687C110.343 59.5179 111.378 62.0494 111.369 64.6796C111.36 72.3908 111.342 88.244 111.342 88.244C111.342 88.244 106.206 78.6926 103.906 74.6171C102.8 72.6601 101.944 69.7246 101.026 66.1967C100.723 66.5468 82.9608 86.6641 82.9608 86.6641L91.2264 68.1896L72.8673 76.5381C72.8673 76.5381 92.4837 58.9972 93.2059 58.3419C91.1194 57.6866 87.5617 57.0044 84.86 55.4962C81.9978 53.9073 76.9154 51.1604 76.9154 51.1604Z" fill="#BC4038"/>
</svg>
