<svg width="221" height="161" viewBox="0 0 221 161" fill="none" xmlns="http://www.w3.org/2000/svg">
<path d="M58.35 65C58.35 65.2251 58.1893 66.361 58.125 66.9504H57.7607C57.7601 66.5458 57.6801 66.1453 57.525 65.7716C57.3643 65.5251 57.0964 65.4287 56.3571 65.4287H55.4571C54.9536 65.4287 54.9214 65.4287 54.825 65.9216L53.6679 71.8694C53.4536 73.0268 53.5393 73.0804 54.6857 73.1554L54.6 73.509H51.2786L51.3429 73.1554C52.2643 73.0804 52.4143 73.0268 52.5964 71.8694L53.6679 66.6289C53.8393 65.4715 53.7536 65.4287 52.7679 65.3537L52.8536 65H58.35Z" fill="#414C73"/>
<path d="M62.0785 72.298C61.6135 72.955 60.9422 73.4378 60.1714 73.6697C59.9143 73.6697 59.7535 73.4661 59.9357 72.5123L60.1928 71.2692C59.7095 71.9438 59.1405 72.5526 58.5 73.0803C58.1674 73.4038 57.7387 73.6107 57.2785 73.6697C56.9357 73.6697 56.5178 73.2303 56.5178 72.1801C56.5183 71.5136 56.6565 70.8545 56.9239 70.244C57.1912 69.6336 57.5819 69.085 58.0714 68.6329C58.7545 68.0403 59.6121 67.6866 60.5143 67.6255C60.7843 67.6275 61.0534 67.6562 61.3178 67.7112C61.4825 67.7541 61.6513 67.7792 61.8214 67.7862V67.8505C61.6071 68.6543 61.2107 70.444 60.9107 72.1372C60.825 72.598 60.9107 72.7052 60.9107 72.7052C61.2675 72.5417 61.5881 72.3085 61.8535 72.0193L62.0785 72.298ZM60.375 70.2618C60.525 69.7367 60.7178 68.7936 60.8143 68.3649C60.534 68.2579 60.2355 68.207 59.9357 68.2149C59.6038 68.2106 59.2786 68.3078 59.0035 68.4935C58.5393 68.9421 58.1737 69.4825 57.9302 70.0804C57.6867 70.6783 57.5705 71.3204 57.5893 71.9657C57.5893 72.5552 57.7607 72.8231 57.9428 72.8231C58.5 72.8231 59.9357 71.162 60.375 70.2618Z" fill="#414C73"/>
<path d="M64.0929 68.2903C64.297 68.076 64.5433 67.9064 64.8162 67.792C65.0891 67.6777 65.3828 67.6211 65.6786 67.6258C66.0265 67.6053 66.3684 67.7234 66.6294 67.9544C66.8905 68.1854 67.0494 68.5104 67.0715 68.8582C67.0602 69.0303 67.0075 69.1972 66.918 69.3446C66.8285 69.492 66.7047 69.6156 66.5572 69.7049C66.3163 69.8662 66.0618 70.006 65.7965 70.1228C66.1314 70.1768 66.4357 70.3493 66.654 70.609C66.8723 70.8687 66.9901 71.1982 66.9858 71.5374C66.9858 72.9306 65.3358 73.6808 64.3072 73.6808C64.0171 73.7067 63.7252 73.6584 63.459 73.5403C63.1929 73.4221 62.9611 73.2381 62.7858 73.0056C62.7436 72.9284 62.7214 72.8418 62.7214 72.7538C62.7214 72.6657 62.7436 72.5791 62.7858 72.5019C62.851 72.3497 62.9543 72.2168 63.0858 72.1161C63.1822 72.0411 63.2572 72.1161 63.3215 72.2126C63.4401 72.4902 63.6371 72.7272 63.8882 72.8947C64.1394 73.0622 64.4339 73.1529 64.7358 73.1556C64.9079 73.163 65.0797 73.1329 65.2391 73.0674C65.3985 73.0019 65.5417 72.9025 65.6589 72.7761C65.7761 72.6497 65.8644 72.4993 65.9178 72.3354C65.9711 72.1715 65.9882 71.9979 65.9679 71.8268C65.985 71.6625 65.964 71.4965 65.9064 71.3418C65.8488 71.187 65.7563 71.0477 65.6359 70.9346C65.5156 70.8215 65.3708 70.7378 65.2128 70.6899C65.0548 70.642 64.8879 70.6313 64.725 70.6586C64.5682 70.6438 64.4104 70.6438 64.2536 70.6586V70.3586C65.8393 69.9621 66.1286 69.3834 66.1286 69.0297C66.1286 68.6761 65.8393 68.301 65.2608 68.301C64.976 68.3374 64.7026 68.436 64.4601 68.5897C64.2176 68.7434 64.0118 68.9485 63.8572 69.1905L63.6108 68.9333L64.0929 68.2903Z" fill="#414C73"/>
<path d="M72.3428 72.1801C72.0127 72.6089 71.5958 72.9632 71.1195 73.2199C70.6432 73.4766 70.1181 73.6298 69.5785 73.6697C68.9785 73.6697 68.1428 73.3161 68.1428 71.7514C68.1368 71.1048 68.274 70.4649 68.5444 69.8776C68.8149 69.2902 69.2119 68.77 69.707 68.3542C70.224 67.9354 70.8548 67.6816 71.5178 67.6255C71.6655 67.6136 71.8141 67.6326 71.9542 67.6811C72.0942 67.7296 72.2227 67.8067 72.3314 67.9074C72.4402 68.0081 72.5269 68.1303 72.586 68.2662C72.6451 68.4022 72.6754 68.5489 72.6749 68.6972C72.6749 69.9939 70.4678 70.7012 69.2142 71.012C69.2043 71.1511 69.2043 71.2908 69.2142 71.4299C69.2142 72.1372 69.4285 72.9088 70.2321 72.9088C70.972 72.8159 71.6533 72.458 72.1499 71.9015L72.3428 72.1801ZM70.4999 68.3221C70.1357 68.58 69.8353 68.9179 69.6217 69.3098C69.4081 69.7017 69.2871 70.1374 69.2678 70.5833C71.1428 70.0903 71.6892 69.5116 71.6892 68.8794C71.6921 68.7922 71.6773 68.7054 71.6456 68.6242C71.6139 68.543 71.5661 68.469 71.5049 68.4069C71.4438 68.3447 71.3707 68.2957 71.29 68.2627C71.2093 68.2297 71.1228 68.2134 71.0356 68.2149C70.8508 68.2037 70.6662 68.2407 70.4999 68.3221Z" fill="#414C73"/>
<path d="M82.6071 72.4051C82.1333 73.0065 81.4863 73.4479 80.7536 73.6697C80.4321 73.6697 80.325 73.2732 80.55 72.3194L81.2679 69.2866C81.4071 68.6436 81.3321 68.44 81.1393 68.44C80.5179 68.44 78.9214 70.2939 78.4607 71.1727C78.3 71.7943 78.1071 72.673 77.9464 73.4339C77.6197 73.4706 77.2991 73.5499 76.9929 73.6697L76.9179 73.5732C77.2393 72.2551 77.5821 70.9155 77.8607 69.6402C78.0429 68.7507 78.0321 68.44 77.7536 68.44C77.1214 68.44 75.525 70.3368 75.1071 71.1727C74.9357 71.7621 74.7429 72.6409 74.5714 73.4339C74.2484 73.4719 73.9315 73.5511 73.6286 73.6697L73.5 73.5732C73.8964 72.0943 74.2607 70.594 74.5714 69.1151C74.6786 68.6436 74.6464 68.5686 74.5714 68.5578C74.2335 68.7143 73.9254 68.9282 73.6607 69.1901L73.5107 68.8793C73.9814 68.2817 74.6249 67.8438 75.3536 67.6255C75.6964 67.6255 75.7286 68.1077 75.4607 69.233L75.2357 70.1653C75.8535 69.2519 76.6521 68.475 77.5821 67.8827C77.8259 67.726 78.107 67.6373 78.3964 67.6255C78.75 67.6255 79.0821 67.947 78.7071 69.6188L78.5893 70.1546C79.2175 69.2313 80.0358 68.453 80.9893 67.872C81.2256 67.7179 81.5001 67.6325 81.7821 67.6255C82.05 67.6255 82.4786 67.7755 82.0607 69.5223L81.4179 72.2658C81.3429 72.5873 81.3643 72.6838 81.4179 72.6838C81.7521 72.5513 82.055 72.3506 82.3071 72.0943L82.6071 72.4051Z" fill="#414C73"/>
<path d="M89.2499 72.298C88.7848 72.955 88.1136 73.4378 87.3428 73.6697C87.0856 73.6697 86.9249 73.4661 87.1071 72.5123L87.3642 71.2692C86.8809 71.9438 86.3119 72.5526 85.6714 73.0803C85.3387 73.4038 84.9101 73.6107 84.4499 73.6697C84.1071 73.6697 83.6892 73.2303 83.6892 72.1801C83.6951 71.5105 83.8401 70.8494 84.1149 70.2387C84.3897 69.6281 84.7884 69.0812 85.2856 68.6329C85.9687 68.0403 86.8263 67.6866 87.7285 67.6255C87.9985 67.6275 88.2677 67.6562 88.5321 67.7112C88.6968 67.7541 88.8656 67.7792 89.0356 67.7862V67.8505C88.8214 68.6543 88.4249 70.444 88.1249 72.1372C88.0392 72.598 88.1249 72.7052 88.1249 72.7052C88.4817 72.5417 88.8023 72.3085 89.0678 72.0193L89.2499 72.298ZM87.5464 70.2618C87.6964 69.7367 87.8892 68.7936 87.9856 68.3649C87.7051 68.259 87.4068 68.208 87.1071 68.2149C86.7752 68.2106 86.45 68.3078 86.1749 68.4935C85.7107 68.9421 85.3451 69.4825 85.1016 70.0804C84.858 70.6783 84.7419 71.3204 84.7606 71.9657C84.7606 72.5552 84.9321 72.8231 85.1142 72.8231C85.6178 72.8231 87.1071 71.162 87.5464 70.2618Z" fill="#414C73"/>
<path d="M62.85 92.4563C62.4 92.4563 60.5143 89.7771 59.775 88.8341C59.0357 87.891 57.7393 85.2011 55.4893 85.319L55.3821 89.6485C55.3821 91.7061 55.5964 91.5561 57.4286 91.7061V92.3813H51V91.7061C52.7464 91.7061 52.7464 91.7061 52.7464 89.6485V80.4C52.6821 78.2567 52.8857 78.2567 51 78.2567V77.5815H57.4286V78.2567C55.4357 78.321 55.4143 77.9673 55.425 80.175V84.6546C55.9877 84.606 56.5326 84.4327 57.02 84.1472C57.5074 83.8617 57.9251 83.4713 58.2429 83.0042C60.0321 80.8608 62.8286 77.5815 63.9 77.5815H65.7536V78.246H64.7571C63.6 78.246 62.325 79.4141 60.5786 81.386C59.8739 82.2914 59.1116 83.1506 58.2964 83.958V84.0223C59.4321 84.3652 62.6786 89.0484 63.2571 89.895C63.5906 90.4515 64.0612 90.9132 64.6239 91.2359C65.1867 91.5586 65.8228 91.7316 66.4714 91.7383V92.4134L62.85 92.4563Z" fill="#414C73"/>
<path d="M90.9643 92.4134V91.7919C92.775 91.6633 92.8928 91.6204 92.8928 89.6485V78.9318H87.3536C87.3536 85.0618 87.3536 89.5306 85.8321 91.2882C85.5744 91.6493 85.2357 91.945 84.8431 92.1516C84.4505 92.3582 84.0149 92.4699 83.5714 92.4777C83.1107 92.4777 82.5643 92.4777 81.9321 92.4777V89.7128C82.081 89.9554 82.2766 90.1658 82.5076 90.3319C82.7386 90.498 83.0004 90.6165 83.2777 90.6803C83.5549 90.7442 83.8421 90.7521 84.1225 90.7038C84.4029 90.6554 84.6708 90.5517 84.9107 90.3987C86.2178 89.2734 85.9821 84.7296 85.9821 79.9606C85.9821 78.7818 85.9821 78.1924 84.6 78.2138V77.5815H97.3178V78.2138C95.475 78.3531 95.2821 78.5353 95.2821 80.2178V89.4878C95.2821 91.4596 95.475 91.5775 97.3178 91.7168V92.3491L90.9643 92.4134Z" fill="#414C73"/>
<path d="M98.9249 92.4135V91.7919C100.789 91.7919 100.586 91.6097 100.586 89.6486V80.4001C100.586 78.439 100.446 78.3532 98.6035 78.2568V77.6138H105.118V78.2568C103.211 78.3854 102.975 78.5033 102.975 80.4644V83.4436C103.859 83.3167 104.75 83.2416 105.643 83.2186C109.446 83.2186 110.882 85.3619 110.882 87.8803C110.913 88.6374 110.712 89.3858 110.306 90.0255C109.9 90.6652 109.309 91.1656 108.611 91.4597C107.191 92.1602 105.617 92.4884 104.036 92.4135H98.9249ZM102.996 89.6486C102.996 91.1275 103.168 91.1168 105.011 91.1168C106.854 91.1168 107.957 90.1094 107.957 87.9018C108.002 87.4591 107.951 87.012 107.808 86.5907C107.666 86.1693 107.434 85.7835 107.129 85.4594C106.824 85.1353 106.454 84.8805 106.042 84.712C105.63 84.5436 105.187 84.4656 104.743 84.4832C104.111 84.4832 103.489 84.4832 102.986 84.5582L102.996 89.6486Z" fill="#414C73"/>
<path d="M125.229 80.8283C125.261 80.2979 125.15 79.7687 124.907 79.2958C124.586 78.835 124.35 78.8457 122.539 78.8457H120.557V89.6481C120.557 91.5557 120.246 91.9094 122.518 91.8451V92.4666H116.089V91.7915C118.393 91.7915 118.071 91.5021 118.071 89.5946V78.8779H116.175C114.161 78.8779 113.925 78.8136 113.721 79.1672C113.518 79.5209 113.507 79.7888 113.496 80.839H112.896V77.624H125.754C125.754 77.624 125.754 80.6247 125.754 80.839L125.229 80.8283Z" fill="#414C73"/>
<path d="M141.836 78.2137C140.572 78.2137 140.764 78.5138 139.929 80.0784C138.857 81.9753 136.811 87.5801 135.814 89.7234C134.411 92.6276 132.761 96.7536 130.586 96.9465C130.051 96.9854 129.514 96.9854 128.979 96.9465C129.043 96.6357 128.979 94.5138 128.979 94.5138C129.424 94.8909 129.992 95.0929 130.575 95.0818C130.967 95.1055 131.357 95.0174 131.7 94.8276C132.044 94.6379 132.326 94.3543 132.514 94.0101C132.995 93.3886 133.295 92.6472 133.382 91.8667C133.18 91.0569 132.885 90.273 132.504 89.5305C132 88.4588 128.936 81.6002 128.304 80.2392C127.672 78.8781 127.725 78.3852 125.764 78.1816V77.5278H132.857V78.1387H130.993C130.629 78.1387 130.886 79.7033 131.347 80.6464L134.947 88.5874C136.018 86.0262 137.572 82.0288 138.45 79.5104C138.793 78.2351 138.857 78.2244 137.914 78.2244L136.714 78.2887V77.5814H141.793L141.836 78.2137Z" fill="#414C73"/>
<path d="M82.4035 78.3101C81.1392 78.3101 81.332 78.5137 80.4963 80.0784C79.4249 81.9752 77.3785 87.58 76.382 89.7234C74.9785 92.6276 72.9106 96.7428 71.1535 96.9464C70.6189 96.9968 70.0808 96.9968 69.5463 96.9464C69.6106 96.6356 69.5463 94.3744 69.5463 94.3744C69.7515 94.5932 69.9985 94.7686 70.2728 94.8901C70.547 95.0116 70.8428 95.0768 71.1427 95.0817C71.5343 95.1055 71.9246 95.0174 72.268 94.8276C72.6114 94.6378 72.8937 94.3543 73.082 94.0101C73.5622 93.3886 73.8624 92.6472 73.9499 91.8667C73.7525 91.0553 73.4575 90.2709 73.0713 89.5305C72.5677 88.4588 69.5035 81.6001 68.8713 80.2391C68.2392 78.8781 68.2927 78.3851 66.332 78.1815V77.5278H73.4249V78.1387H71.5606C71.1963 78.1387 71.4535 79.7033 71.9142 80.6464L75.5142 88.5874C76.5856 86.0261 78.1392 82.0288 79.0177 79.5104C79.3606 78.2351 79.4249 78.2244 78.482 78.2244H77.3249V77.5171H82.4035V78.3101Z" fill="#414C73"/>
<path d="M148.372 77.603C150.086 77.603 151.457 77.603 152.422 78.3318C152.949 78.6501 153.385 79.0998 153.688 79.6369C153.99 80.1741 154.148 80.7803 154.147 81.3967C154.147 84.3331 150.932 85.2762 148.789 85.3298H147.064V89.6164C147.064 91.5454 147.429 91.7598 149.604 91.8991V92.4671H142.254V91.7919C144.782 91.7919 144.493 91.4811 144.493 89.595V80.4215C144.493 78.4175 144.214 78.3746 142.425 78.2782V77.6352L148.372 77.603ZM147.043 84.6117C147.528 84.6956 148.019 84.7387 148.511 84.7403C150.086 84.7403 151.822 84.3545 151.822 81.461C151.822 79.0069 150.547 78.8247 148.607 78.8247C147.922 78.8247 147.15 78.8247 147.15 78.8247C147.093 79.1031 147.071 79.3876 147.086 79.6713L147.043 84.6117Z" fill="#414C73"/>
<path d="M164.454 92.4777V91.7919C166.382 91.7919 167.121 91.9419 166.511 90.5487C166.104 89.6378 165.793 89.0698 165.193 87.8374H159.664C159.15 88.9091 158.882 89.6914 158.454 90.5702C157.789 91.9312 158.646 91.749 160.457 91.9098V92.4885H155.432V91.7919C156.954 91.5775 156.707 91.7919 157.918 89.3806L162.804 77.5923H163.5C165 81.7504 166.779 85.2118 168.321 89.3806C169.093 91.4704 169.393 91.6847 170.979 91.824V92.4027L164.454 92.4777ZM162.429 81.4289C162.289 81.7825 160.789 85.2976 160.2 86.7872H164.893L162.429 81.4289Z" fill="#414C73"/>
</svg>
