<svg width="221" height="161" viewBox="0 0 221 161" fill="none" xmlns="http://www.w3.org/2000/svg">
<g clip-path="url(#clip0)">
<path d="M54 59.3213V73.6923C54 75.6886 54.3444 78.5686 57.1754 80.3389C58.7918 81.3211 60.5321 81.4833 62.2603 81.4833H65.1728V78.699H62.1938C61.2391 78.699 59.8704 78.699 58.6891 77.6849C57.3234 76.5114 57.2056 74.8715 57.2056 73.6952V59.3213H54Z" fill="#395782"/>
<path d="M81.2099 68.6248H69.6716C70.3967 64.6785 74.2821 62.1057 79.2038 62.1057H81.2099V59.3213H78.8865C70.5266 59.3213 66.333 65.1798 66.333 70.4096C66.333 75.6219 70.5296 81.4804 78.8231 81.4804H81.2099V78.6961H78.6569C73.6053 78.6961 70.1157 75.5582 69.6716 71.4063H81.2099V68.6248V68.6248Z" fill="#395782"/>
<path d="M106.039 62.9926C104.299 61.2252 102.139 60.0141 99.9512 59.4201C98.8635 59.1304 97.7124 59 96.5129 59C94.4192 59 92.3798 59.423 90.5035 60.2719C86.2254 62.2045 83.6724 66.3217 83.6724 70.4099C83.6724 76.732 89.4642 81.8024 96.1625 81.8024C102.072 81.8024 108.293 77.7808 108.293 70.8445V69.0075H96.6066V71.7919H104.939C104.492 76.7667 100.132 79.0209 96.1655 79.0209C90.9809 79.0209 87.017 75.1268 87.017 70.4099C87.017 66.7882 89.3373 64.0356 91.8722 62.7811C93.2016 62.106 94.6367 61.7989 96.1655 61.7989C97.2169 61.7989 98.2592 61.9437 99.211 62.2624C100.71 62.7956 102.586 64.0356 103.885 65.1453L106.039 62.9926Z" fill="#395782"/>
<path d="M125.629 68.6248H114.091C114.816 64.6785 118.701 62.1057 123.623 62.1057H125.629V59.3213H123.309C114.946 59.3213 110.749 65.1798 110.749 70.4096C110.749 75.6219 114.946 81.4804 123.239 81.4804H125.626V78.6961H123.073C118.022 78.6961 114.532 75.5582 114.088 71.4063H125.626V68.6248H125.629Z" fill="#395782"/>
<path d="M132.046 81.4837V63.3142H132.128L140.488 79.2932C141.198 80.7245 141.823 81.8053 143.796 81.8053C146.268 81.8053 146.268 79.8379 146.268 78.5689V59.3216H143.056V77.1202H142.974L135.303 62.2653C134.234 60.2082 133.527 59 131.632 59C128.901 59 128.835 61.06 128.835 62.558V81.4837H132.046Z" fill="#395782"/>
<path d="M153.453 81.4834V62.1057H155.51C161.68 62.1057 164.662 66.3533 164.662 70.4125C164.662 74.6137 161.616 78.699 156.087 78.699H154.821V81.4834H156.468C161.453 81.4834 165.109 78.473 166.752 75.4336C167.592 73.8893 168.003 72.1799 168.003 70.4125C168.003 68.5929 167.592 66.9182 166.752 65.3739C163.84 60.0804 158.818 59.3242 155.132 59.3242H150.244V81.4834H153.453Z" fill="#395782"/>
<path d="M77.5391 102H78.4273V91.4737C78.4273 90.2336 78.5935 88.5445 80.2039 87.5796C80.8111 87.2088 81.5574 87.0813 82.3097 87.0813C82.9049 87.0813 83.5122 87.1624 84.0379 87.4348C85.1437 87.9331 85.7026 88.8342 85.7026 90.0598C85.7026 90.7349 85.5727 91.4418 85.1558 92.0039C84.1708 93.3078 82.5575 93.357 81.4879 93.357H79.3005V94.2117H82.6904C83.6119 94.2117 85.0954 94.3885 85.9655 95.8517C86.2948 96.4485 86.4247 97.0917 86.4247 97.7842C86.4247 98.4303 86.2948 99.0706 85.9836 99.6009C85.1256 101.084 83.5152 101.163 82.346 101.163H79.3005V102H82.8566C83.8778 102 85.9323 101.872 86.9716 99.7283C87.2526 99.1518 87.3825 98.5057 87.3825 97.8306C87.3825 97.0425 87.2344 96.2689 86.8538 95.5793C86.0501 94.0987 84.8627 93.7771 84.3551 93.6641C85.1951 93.3425 85.9353 92.7775 86.3613 91.6331C86.5577 91.1376 86.6392 90.6045 86.6392 90.0569C86.6392 88.3359 85.6331 87.287 84.6633 86.7568C83.9563 86.3859 83.1647 86.2266 82.3278 86.2266C81.3731 86.2266 80.4365 86.3859 79.6449 86.9017C77.6388 88.1417 77.5391 90.1351 77.5391 91.4708V102Z" fill="#395782"/>
<path d="M89.4973 102H90.3856V92.7138C90.3856 90.703 90.4883 88.8342 92.3797 87.6608C93.0564 87.2262 93.8269 87.0813 94.6668 87.0813C95.5067 87.0813 96.2802 87.2262 96.9721 87.6608C98.8664 88.8313 98.948 90.703 98.948 92.7138V93.583H91.2618V94.4175H98.948V102H99.8514V92.7138C99.8514 90.8798 99.8695 88.3996 97.4827 86.9365C96.6427 86.4381 95.688 86.2295 94.6668 86.2295C93.6607 86.2295 92.6909 86.4381 91.8509 86.9365C89.4641 88.3996 89.4973 90.8827 89.4973 92.7138V102Z" fill="#395782"/>
<path d="M103.48 86.4521H102.592V101.999H103.48V86.4521Z" fill="#395782"/>
<path d="M106.244 101.999H107.136V94.2896H110.541C112.498 94.2896 114.967 94.7097 114.967 99.0876V100.841C114.967 101.18 115.048 101.66 115.115 102.002H116.036C115.97 101.808 115.873 101.423 115.873 101.006V99.0442C115.873 94.1679 113.009 93.7159 111.891 93.6C112.595 93.4088 113.305 92.893 114.012 91.3024L116.169 86.4579H115.166L113.719 89.8392C112.335 93.0234 111.447 93.458 109.553 93.458H107.139V86.4521H106.247V101.999H106.244Z" fill="#395782"/>
<path d="M118.209 102H119.097V92.7138C119.097 90.703 119.194 88.8342 121.088 87.6608C121.765 87.2262 122.535 87.0813 123.375 87.0813C124.215 87.0813 124.992 87.2262 125.68 87.6608C127.572 88.8313 127.656 90.703 127.656 92.7138V93.583H119.97V94.4175H127.656V102H128.56V92.7138C128.56 90.8798 128.578 88.3996 126.191 86.9365C125.351 86.4381 124.396 86.2295 123.375 86.2295C122.369 86.2295 121.399 86.4381 120.559 86.9365C118.173 88.3996 118.209 90.8827 118.209 92.7138V102Z" fill="#395782"/>
<path d="M138.328 101.999V101.162H135.841C132.321 101.162 132.188 98.5545 132.188 96.7205V86.4521H131.3V97.1551C131.3 98.6704 131.533 101.999 135.841 101.999H138.328Z" fill="#395782"/>
<path d="M155.948 87.7243C155.356 87.6693 154.939 87.4433 154.697 87.0319C154.51 87.2057 154.238 87.5679 153.876 88.1242V88.1068C153.851 88.2053 153.767 88.382 153.628 88.6399C153.498 88.863 153.431 89.0513 153.431 89.1875C153.431 89.3614 153.534 89.4454 153.746 89.4454C154.444 89.4454 155.181 88.8717 155.948 87.7243ZM156.525 86.4843C156.525 86.2061 156.38 86.067 156.096 86.067C155.888 86.067 155.658 86.1424 155.404 86.2901C155.16 86.4437 155.045 86.5944 155.045 86.7566C155.045 86.916 155.15 87.0753 155.371 87.226C155.604 87.3651 155.821 87.4317 156.033 87.4317C156.054 87.4317 156.078 87.4288 156.114 87.4143V87.3998C156.211 87.3998 156.311 87.2665 156.41 86.9942C156.486 86.774 156.525 86.603 156.525 86.4843ZM157.909 87.4954C157.909 87.5939 157.746 87.6722 157.432 87.7359C157.175 87.7823 156.96 87.7997 156.788 87.7997C156.664 87.7997 156.546 87.7968 156.425 87.7852C156.009 88.3965 155.522 88.9499 154.963 89.4425C154.181 90.1292 153.483 90.471 152.869 90.471C152.011 90.471 151.588 90.1668 151.588 89.5555C151.588 88.8166 152.057 87.9764 153.002 87.0463C153.99 86.0786 154.945 85.5977 155.867 85.5977C156.601 85.5977 156.972 85.8642 156.972 86.4031C156.972 86.577 156.855 86.9247 156.625 87.4491C156.731 87.4723 156.827 87.4838 156.906 87.4838C156.99 87.4838 157.126 87.4723 157.302 87.4491C157.471 87.4143 157.607 87.3998 157.694 87.3998C157.833 87.4027 157.909 87.4317 157.909 87.4954Z" fill="#395782"/>
<path d="M165.544 81.5268C165.423 81.3646 165.332 81.2863 165.263 81.2863C164.526 81.2863 163.462 82.0802 162.072 83.6651C160.885 85.0297 160.096 86.1279 159.701 86.9652C160.595 86.4784 161.728 85.644 163.093 84.4532C164.595 83.1378 165.411 82.1642 165.544 81.5268ZM166.039 81.2863C166.039 82.0049 165.157 83.1146 163.405 84.6183C161.988 85.8294 160.695 86.774 159.537 87.4491L159.453 87.5621C160.003 87.5563 160.498 87.4085 160.936 87.1274C161.087 87.0231 161.32 86.8696 161.628 86.6784L161.646 86.7073C161.58 86.8609 161.38 87.1014 161.051 87.4317C160.459 88.0372 159.743 88.3443 158.912 88.3646L156.015 92.7744L154.416 92.9338L156.688 89.428C156.897 89.1295 157.256 88.5761 157.776 87.7707L157.969 87.3534C158.099 87.0753 158.281 86.7537 158.516 86.3857C159.214 85.2615 160.145 84.146 161.296 83.0363C162.819 81.5906 164.112 80.8662 165.163 80.8662C165.746 80.8691 166.039 81.0082 166.039 81.2863Z" fill="#395782"/>
</g>
<defs>
<clipPath id="clip0">
<rect width="114" height="43" fill="white" transform="translate(54 59)"/>
</clipPath>
</defs>
</svg>
