<svg width="221" height="161" viewBox="0 0 221 161" fill="none" xmlns="http://www.w3.org/2000/svg">
<g clip-path="url(#clip0_761:830)">
<path d="M64.3514 76.4298V88.753H61.8786V80.7607L58.33 86.4808H58.0386L54.49 80.7774V88.753H52V76.4298H54.5714L58.1971 82.2545L61.8014 76.4298H64.3514ZM166.514 78.7019V82.3466H163.943C163.467 82.3249 163.019 82.1198 162.698 81.7762C162.376 81.4326 162.208 80.9786 162.229 80.5138C162.219 80.2848 162.255 80.0562 162.336 79.8411C162.417 79.626 162.541 79.4286 162.7 79.2602C162.86 79.0919 163.051 78.9559 163.265 78.8601C163.478 78.7643 163.708 78.7106 163.943 78.7019H166.514ZM159.751 80.5138C159.763 81.3288 160.03 82.1209 160.518 82.7825C161.005 83.4442 161.689 83.9435 162.477 84.2129L159.391 88.753H162.186L165.091 84.4765H166.514V88.753H169V76.4298H163.956C163.404 76.4248 162.857 76.5269 162.346 76.7301C161.835 76.9333 161.37 77.2336 160.979 77.6135C160.588 77.9935 160.278 78.4455 160.067 78.9434C159.856 79.4413 159.749 79.9751 159.751 80.5138ZM79.9429 82.2922V78.7019H83.2857V86.4306H79.0771C79.6514 85.4556 79.9343 84.0748 79.9343 82.2922H79.9429ZM87.1429 88.753V86.4306H85.7843V76.4298H77.4529V82.2545C77.4529 84.0873 77.1043 85.4821 76.4071 86.439H75.1814V88.7614L87.1429 88.753ZM155.286 88.753V81.221L149.877 88.753H147.983V76.4298H150.473V83.9618L155.881 76.4298H157.771V88.753H155.286ZM146.573 76.4298V78.7521H141.884V88.753H139.399V76.4298H146.573ZM131.084 86.6231C131.906 86.6364 132.714 86.4105 133.404 85.9741C134.094 85.5377 134.635 84.9107 134.959 84.1728C135.282 83.435 135.373 82.6198 135.221 81.8311C135.068 81.0424 134.679 80.3159 134.102 79.7442C133.525 79.1725 132.786 78.7815 131.981 78.621C131.175 78.4604 130.339 78.5377 129.579 78.8428C128.818 79.148 128.168 79.6673 127.711 80.3345C127.254 81.0017 127.011 81.7866 127.013 82.5893C126.992 83.1196 127.082 83.6486 127.278 84.1435C127.475 84.6384 127.773 85.0887 128.154 85.4668C128.536 85.8448 128.993 86.1424 129.497 86.3413C130.001 86.5402 130.541 86.6361 131.084 86.6231ZM131.084 88.9999C129.786 88.9999 128.516 88.6239 127.437 87.9195C126.357 87.2151 125.515 86.2139 125.018 85.0425C124.521 83.8711 124.391 82.5822 124.645 81.3386C124.898 80.0951 125.523 78.9529 126.442 78.0563C127.36 77.1598 128.53 76.5492 129.803 76.3019C131.077 76.0545 132.397 76.1815 133.597 76.6667C134.797 77.1519 135.822 77.9735 136.543 79.0278C137.265 80.082 137.65 81.3214 137.65 82.5893C137.664 83.4349 137.504 84.2746 137.179 85.0585C136.853 85.8424 136.37 86.5545 135.758 87.1525C135.145 87.7505 134.416 88.2222 133.613 88.5395C132.81 88.8569 131.95 89.0134 131.084 88.9999ZM111.957 88.753V86.5017C113.933 86.7779 114.19 85.2799 114.19 83.7191V76.4298H122.761V88.753H120.293V78.7521H116.65V83.648C116.65 86.6566 115.553 89.0877 111.936 88.753H111.957ZM103.879 84.2631H107.341L105.627 79.2417L103.913 84.2631H103.879ZM108.871 88.753L108.117 86.5352H103.086L102.327 88.753H99.64L104.059 76.4298H107.14L111.571 88.753H108.871ZM95.9286 88.753V81.221L90.52 88.753H88.6257V76.4298H91.1157V83.9618L96.5243 76.4298H98.4143V88.753H95.9286ZM68.68 86.4306H73.9986V88.753H66.19V76.4298H73.9043V78.7521H68.68V81.3758H73.4586V83.6647H68.68V86.4306Z" fill="#232323"/>
<path fill-rule="evenodd" clip-rule="evenodd" d="M110.5 39.5105V41.1508C110.322 41.1508 110.145 41.1864 109.982 41.2554L105.636 43.2096C105.358 43.3646 105.148 43.6156 105.05 43.9133C104.951 44.211 104.97 44.534 105.102 44.8189C105.235 45.1038 105.472 45.3302 105.766 45.4535C106.061 45.5769 106.392 45.5885 106.694 45.4859L109.21 44.3519V50.8127L102.854 54.2984L102.623 51.5994C102.593 51.2664 102.429 50.9588 102.166 50.7442C101.904 50.5296 101.565 50.4255 101.224 50.4549C100.883 50.4843 100.568 50.6448 100.348 50.901C100.128 51.1572 100.021 51.4882 100.052 51.8212L100.454 56.4785C100.481 56.6985 100.563 56.9085 100.694 57.0894L98.2387 58.4159V43.3769C98.2421 42.3525 98.6604 41.371 99.4023 40.6466C100.144 39.9222 101.15 39.5138 102.199 39.5105H110.5ZM118.896 51.6454C118.924 51.4587 119.025 51.2897 119.177 51.1729C119.328 51.056 119.52 51.0002 119.713 51.0167C119.905 51.0333 120.084 51.121 120.213 51.262C120.341 51.4029 120.41 51.5865 120.404 51.7751L120.006 56.4157C119.984 56.6245 119.88 56.8168 119.714 56.9513C118.429 57.8677 117.143 58.7632 115.832 59.6754C115.668 59.7897 115.464 59.8358 115.266 59.8036C115.067 59.7715 114.89 59.6636 114.773 59.5038C114.656 59.344 114.609 59.1453 114.642 58.9515C114.675 58.7577 114.785 58.5846 114.949 58.4702L117.854 56.4324L110.5 52.3902L103.159 56.4324L106.064 58.4702C106.228 58.5846 106.339 58.7577 106.372 58.9515C106.404 59.1453 106.357 59.344 106.24 59.5038C106.123 59.6636 105.946 59.7715 105.747 59.8036C105.549 59.8358 105.345 59.7897 105.182 59.6754C103.896 58.7632 102.61 57.8677 101.299 56.9513C101.214 56.8869 101.144 56.8067 101.092 56.7155C101.04 56.6242 101.006 56.5237 100.994 56.4199L100.592 51.7793C100.583 51.6823 100.594 51.5846 100.624 51.4917C100.654 51.3989 100.702 51.3127 100.766 51.2381C100.83 51.1635 100.909 51.1019 100.997 51.0569C101.086 51.012 101.182 50.9844 101.282 50.9759C101.381 50.9674 101.481 50.978 101.576 51.0073C101.671 51.0365 101.76 51.0838 101.836 51.1464C101.912 51.2089 101.975 51.2856 102.021 51.3719C102.068 51.4582 102.096 51.5526 102.104 51.6496L102.404 55.1352L109.733 51.1098V43.5778L106.48 45.0423C106.3 45.1205 106.096 45.1276 105.911 45.0621C105.725 44.9966 105.573 44.8635 105.486 44.6909C105.441 44.6021 105.416 44.5056 105.41 44.4069C105.405 44.3082 105.419 44.2095 105.454 44.1166C105.488 44.0237 105.541 43.9385 105.61 43.866C105.679 43.7936 105.762 43.7354 105.854 43.695L110.183 41.745C110.283 41.7036 110.391 41.6822 110.5 41.6822C110.609 41.6822 110.717 41.7036 110.817 41.745L115.146 43.695C115.319 43.782 115.451 43.9306 115.515 44.1101C115.579 44.2895 115.57 44.4861 115.489 44.6591C115.409 44.8322 115.263 44.9684 115.083 45.0398C114.903 45.1111 114.701 45.112 114.52 45.0423L111.263 43.5778V51.1098L118.596 55.1352L118.896 51.6496V51.6454ZM123.263 43.3728C123.259 42.2137 122.785 41.1034 121.945 40.2841C121.105 39.4649 119.967 39.0033 118.78 39H102.22C101.032 39.0033 99.894 39.4655 99.054 40.2856C98.2141 41.1058 97.7407 42.2171 97.7373 43.3769V59.5457C97.7407 60.7055 98.2141 61.8168 99.054 62.637C99.894 63.4571 101.032 63.9193 102.22 63.9226H118.78C119.968 63.9193 121.106 63.4571 121.946 62.637C122.786 61.8168 123.26 60.7055 123.263 59.5457V43.3769V43.3728Z" fill="#232323"/>
</g>
<defs>
<clipPath id="clip0_761:830">
<rect width="117" height="50" fill="white" transform="translate(52 39)"/>
</clipPath>
</defs>
</svg>
