<svg width="221" height="161" viewBox="0 0 221 161" fill="none" xmlns="http://www.w3.org/2000/svg">
<path d="M62.6797 77.3363C61.8688 77.3363 61.193 76.6457 61.193 75.817C61.193 74.9883 61.8688 74.2977 62.6797 74.2977C63.4907 74.2977 64.1665 74.9883 64.1665 75.817C64.3017 76.6457 63.6259 77.3363 62.6797 77.3363ZM59.1655 77.3363C58.3546 77.3363 57.6788 76.6457 57.6788 75.817C57.6788 74.9883 58.3546 74.2977 59.1655 74.2977C59.9765 74.2977 60.6523 74.9883 60.6523 75.817C60.6523 76.6457 59.9765 77.3363 59.1655 77.3363ZM55.5162 77.3363C54.7052 77.3363 54.0294 76.6457 54.0294 75.817C54.0294 74.9883 54.7052 74.2977 55.5162 74.2977C56.3271 74.2977 57.0029 74.9883 57.0029 75.817C57.0029 76.6457 56.3271 77.3363 55.5162 77.3363ZM55.7865 58.1377V71.1209C55.7865 71.6734 55.381 72.0878 54.8404 72.0878H53.2184C53.0833 72.0878 53.0833 72.0878 53.0833 72.2259V82.9992C53.4887 82.9992 53.8942 82.9992 54.1645 82.9992C60.9226 82.9992 66.4643 77.3363 66.4643 70.4303C66.5994 64.0768 61.8688 58.8283 55.7865 58.1377Z" fill="#39B54A"/>
<path d="M51.8668 68.359C51.0558 68.359 50.38 67.6684 50.38 66.8396C50.38 66.0109 51.0558 65.3203 51.8668 65.3203C52.6778 65.3203 53.3536 66.0109 53.3536 66.8396C53.4887 67.6684 52.8129 68.359 51.8668 68.359ZM54.2997 58C47.5416 58 42 63.6629 42 70.5689C42 76.6461 46.19 81.6184 51.5965 82.8615V71.5357C51.5965 70.9832 52.002 70.5689 52.5426 70.5689H53.0833H54.1646C54.2997 70.5689 54.2997 70.5689 54.2997 70.4308V58Z" fill="#39B54A"/>
<path d="M177.027 64.9053V69.6013H170.809V64.9053H167.7V77.336H170.809V72.3637H177.027V77.336H180V64.9053H177.027Z" fill="#39B54A"/>
<path d="M121.34 72.2255L123.232 67.6675C123.232 67.5294 123.367 67.5294 123.503 67.5294C123.638 67.5294 123.638 67.5294 123.773 67.6675L125.665 72.2255H121.34ZM125.936 66.2863C125.395 65.1814 124.449 64.6289 123.503 64.6289C122.557 64.6289 121.475 65.1814 120.935 66.2863L115.934 77.3359H119.177L120.259 74.7116H126.611L127.693 77.3359H130.937L125.936 66.2863Z" fill="#39B54A"/>
<path d="M89.4415 62.6963C87.9547 62.6963 87.1437 63.525 86.4679 65.0443L82.413 74.4364L78.4934 65.0443C77.8175 63.3869 76.8714 62.6963 75.3846 62.6963C74.033 62.6963 72.6814 63.6631 72.6814 65.873V77.337H75.7901V66.0112L79.845 75.2652C80.3856 76.5082 81.1966 77.337 82.5482 77.337C83.7647 77.337 84.7108 76.5082 85.2514 75.2652L89.3063 66.0112V77.337H92.415V65.7349C92.2799 63.6631 90.7931 62.6963 89.4415 62.6963Z" fill="#39B54A"/>
<path d="M97.5513 74.7118C97.4161 74.7118 97.2809 74.5736 97.2809 74.4355V72.2256H104.985V69.7395H97.2809V67.8058C97.2809 67.6677 97.4161 67.5295 97.5513 67.5295H105.12V64.9053H96.0645C94.9832 64.9053 94.3074 65.8721 94.3074 66.7008V75.4024C94.3074 76.5073 94.9832 77.336 96.0645 77.336H105.12V74.7118H97.5513Z" fill="#39B54A"/>
<path d="M110.392 77.336V67.8058C110.392 67.6677 110.527 67.5295 110.662 67.5295H118.231V64.9053H109.04C107.959 64.9053 107.283 65.8721 107.283 66.7008V77.336H110.392Z" fill="#39B54A"/>
<path d="M159.185 74.9894H158.104C155.536 74.9894 154.59 73.7463 154.59 71.2602C154.59 68.774 155.401 67.5309 158.104 67.5309H159.05C161.618 67.5309 162.564 68.774 162.564 71.2602C162.699 73.7463 161.618 74.9894 159.185 74.9894ZM165.673 71.1221C165.673 66.7022 163.781 64.7686 159.185 64.7686H158.104C153.508 64.7686 151.616 66.8403 151.616 71.1221C151.616 75.4038 153.508 77.4755 158.104 77.4755H159.185C163.781 77.4755 165.673 75.4038 165.673 71.1221Z" fill="#39B54A"/>
<path d="M146.21 71.1207C145.804 72.3638 145.128 73.1925 142.966 73.1925H141.614V65.5959H143.506C145.263 65.5959 146.48 66.7009 146.48 69.3252C146.48 70.0158 146.48 70.7064 146.21 71.1207ZM138.505 73.1925H137.154C135.126 73.1925 134.315 72.3638 133.91 71.1207C133.64 70.7064 133.64 70.0158 133.64 69.3252C133.64 66.7009 134.856 65.5959 136.613 65.5959H138.505V73.1925ZM143.101 62.9717H137.019C132.558 62.9717 130.666 65.3197 130.666 69.3252C130.666 70.0158 130.666 70.5683 130.801 71.1207C131.342 74.0212 132.964 75.8168 137.154 75.8168H138.505V77.3361H141.614V75.8168H142.966C147.156 75.8168 148.913 74.0212 149.318 71.1207C149.454 70.5683 149.454 70.0158 149.454 69.3252C149.454 65.3197 147.561 62.9717 143.101 62.9717Z" fill="#39B54A"/>
</svg>
