<svg width="221" height="161" viewBox="0 0 221 161" fill="none" xmlns="http://www.w3.org/2000/svg">
<path d="M153 66H69V96H153V66Z" fill="#007632"/>
<path d="M92.7219 88.2499V78.2617C92.7219 76.88 91.7857 76.0012 90.0746 76.0012C88.3944 76.0012 87.3831 77.0053 87.3831 78.2935V88.2499H84.7128V78.2617C84.7128 76.88 83.8034 76.0012 82.0732 76.0012C80.3852 76.0012 79.3817 77.0053 79.3817 78.2935V88.2499H76.7344V74.0211H79.0933L79.1894 75.3487C80.0949 74.311 81.0312 73.7145 82.9691 73.7145C83.6724 73.71 84.3653 73.88 84.9823 74.2084C85.5993 74.5369 86.1199 75.013 86.4949 75.5917C87.3351 74.5241 88.6904 73.707 90.9167 73.707C93.5313 73.707 95.3731 75.53 95.3731 78.043V88.2499H92.7219Z" fill="white"/>
<path d="M109.482 79.7708L107.512 81.749H100.633C100.696 83.7907 102.054 86.2719 104.96 86.2719C106.396 86.3039 107.792 85.8086 108.869 84.8845L108.292 87.6891C107.452 88.1921 106.291 88.5698 104.578 88.5698C100.925 88.5698 97.8933 85.5782 97.8933 81.1562C97.8933 76.4445 101.025 73.7109 104.093 73.7109C107.554 73.7109 109.521 76.4127 109.521 79.0827C109.524 79.3126 109.511 79.5425 109.482 79.7708ZM104.182 75.9378C102.63 75.9378 101.081 77.572 100.758 79.6137H106.796C106.823 79.4581 106.834 79.3003 106.829 79.1425C106.833 77.6337 105.801 75.9378 104.182 75.9378Z" fill="white"/>
<path d="M119.846 76.1258H115.842V84.4181C115.842 85.5175 116.649 86.1775 117.714 86.1775C118.191 86.2006 118.667 86.1141 119.102 85.9251L118.651 88.2492C118.249 88.3952 117.82 88.4588 117.391 88.4362C115.065 88.4362 113.225 86.9927 113.225 84.3845V76.1258H110.77V74.0205H113.218V71.3187L115.834 69.9688V74.0205H120.235L119.846 76.1258Z" fill="white"/>
<path d="M129.334 76.0973C127.234 76.0973 124.912 77.479 124.912 80.9979V88.2506H122.228V74.0219H124.753L124.849 76.159C125.522 74.5248 127.202 73.833 129.174 73.833L129.593 76.0973H129.334Z" fill="white"/>
<path d="M137.301 88.7662C135.721 88.7662 134.177 88.3107 132.864 87.4573C131.551 86.6038 130.527 85.3908 129.923 83.9716C129.318 82.5524 129.16 80.9907 129.468 79.4841C129.776 77.9775 130.537 76.5935 131.654 75.5073C132.771 74.4211 134.194 73.6814 135.743 73.3817C137.292 73.082 138.898 73.2358 140.357 73.8236C141.816 74.4115 143.063 75.407 143.941 76.6843C144.818 77.9615 145.287 79.4632 145.287 80.9993C145.294 82.0213 145.093 83.0345 144.694 83.9801C144.295 84.9257 143.707 85.7848 142.964 86.5074C142.221 87.2301 141.338 87.8019 140.366 88.1897C139.393 88.5775 138.352 88.7734 137.301 88.7662ZM139.506 74.7002C139.936 75.3097 140.297 75.9622 140.584 76.6466C141.021 76.4595 141.443 76.2401 141.846 75.9903C141.172 75.3988 140.373 74.9584 139.506 74.7002ZM142.474 76.6036C141.965 76.9206 141.431 77.1982 140.877 77.4337C141.273 78.4376 141.524 79.4905 141.621 80.5618H144.12C144.052 79.0985 143.471 77.7018 142.474 76.6036ZM138.268 74.4141C138.099 74.371 137.925 74.3484 137.751 74.3468V77.4057C138.44 77.3325 139.119 77.1857 139.775 76.9682C139.382 76.0599 138.876 75.2021 138.268 74.4141ZM140.067 77.7385C139.326 78.0305 138.546 78.2193 137.751 78.2994V80.5431H140.721C140.64 79.5835 140.42 78.6398 140.067 77.7404V77.7385ZM136.851 74.3487C136.676 74.3504 136.503 74.373 136.334 74.416C135.726 75.2066 135.22 76.0661 134.827 76.9756C135.483 77.1907 136.162 77.3349 136.851 77.4057V74.3487ZM141.621 81.4368C141.542 82.5109 141.291 83.5664 140.877 84.5649C141.43 84.8019 141.965 85.08 142.474 85.397C143.469 84.2973 144.049 82.9002 144.116 81.4368H141.621ZM132.758 75.9903C133.16 76.2405 133.581 76.4599 134.017 76.6466C134.304 75.9618 134.666 75.3092 135.098 74.7002C134.23 74.958 133.431 75.3984 132.758 75.9903ZM137.756 81.4368V83.6918C138.552 83.7719 139.332 83.9607 140.073 84.2527C140.421 83.3446 140.641 82.3949 140.727 81.4294L137.756 81.4368ZM136.857 78.3088C136.061 78.2284 135.281 78.0396 134.54 77.7479C134.185 78.653 133.965 79.6033 133.888 80.5693H136.857V78.3088ZM140.569 85.3315C140.297 86.0258 139.942 86.6866 139.512 87.3004C140.379 87.0421 141.178 86.6017 141.851 86.0102C141.445 85.7445 141.014 85.5172 140.563 85.3315H140.569ZM132.127 76.6036C131.133 77.7028 130.554 79.0991 130.486 80.5618H132.985C133.081 79.4906 133.331 78.4377 133.727 77.4337C133.172 77.1983 132.637 76.9207 132.127 76.6036ZM137.751 84.5874V87.65C137.925 87.649 138.099 87.627 138.268 87.5846C138.872 86.7888 139.371 85.9218 139.752 85.0043C139.103 84.7947 138.431 84.6549 137.751 84.5874ZM136.851 81.4368H133.883C133.967 82.4024 134.186 83.3522 134.534 84.2602C135.276 83.9684 136.055 83.7796 136.851 83.6992V81.4368ZM136.851 84.5874C136.17 84.6549 135.499 84.7947 134.85 85.0043C135.232 85.9211 135.73 86.7879 136.334 87.5846C136.503 87.627 136.676 87.649 136.851 87.65V84.5874ZM132.983 81.4368H130.484C130.552 82.9 131.131 84.2969 132.125 85.397C132.635 85.08 133.169 84.8019 133.723 84.5649C133.309 83.5665 133.059 82.5109 132.983 81.4368ZM134.04 85.3315C133.591 85.5167 133.162 85.744 132.758 86.0102C133.431 86.6021 134.23 87.0426 135.098 87.3004C134.666 86.6875 134.311 86.0265 134.04 85.3315Z" fill="white"/>
<path d="M142.974 72.9009C142.975 72.6822 143.041 72.4686 143.167 72.2869C143.292 72.1052 143.469 71.9636 143.677 71.88C143.885 71.7964 144.114 71.7745 144.334 71.8171C144.555 71.8597 144.757 71.9649 144.916 72.1194C145.075 72.2739 145.184 72.4708 145.228 72.6852C145.272 72.8997 145.25 73.122 145.165 73.3242C145.079 73.5264 144.934 73.6994 144.747 73.8214C144.561 73.9434 144.341 74.0089 144.116 74.0097C143.966 74.0102 143.818 73.9818 143.679 73.9263C143.54 73.8708 143.414 73.7892 143.308 73.6861C143.202 73.5831 143.118 73.4607 143.061 73.3259C143.003 73.1912 142.974 73.0467 142.974 72.9009ZM145.05 72.9009C145.05 72.7204 144.995 72.544 144.891 72.3941C144.788 72.2442 144.641 72.1276 144.469 72.0589C144.297 71.9903 144.109 71.9727 143.927 72.0084C143.745 72.0441 143.578 72.1315 143.447 72.2596C143.316 72.3876 143.227 72.5506 143.191 72.7278C143.156 72.905 143.175 73.0884 143.247 73.255C143.318 73.4215 143.439 73.5637 143.594 73.6634C143.749 73.7631 143.93 73.816 144.116 73.8152C144.239 73.815 144.361 73.7911 144.475 73.745C144.588 73.6989 144.691 73.6315 144.778 73.5465C144.865 73.4616 144.934 73.3609 144.98 73.2501C145.027 73.1393 145.051 73.0206 145.05 72.9009ZM143.874 72.9738V73.5348H143.664V72.2259H144.097C144.343 72.2259 144.597 72.2895 144.597 72.5849C144.598 72.6593 144.57 72.7314 144.52 72.7873C144.47 72.8432 144.4 72.8791 144.324 72.8878C144.516 72.9233 144.529 73.0037 144.551 73.144C144.564 73.2709 144.59 73.3962 144.629 73.5179H144.362C144.347 73.4431 144.326 73.3609 144.316 73.2842C144.319 73.1869 144.293 73.0908 144.241 73.0075C144.189 72.9551 144.12 72.9607 144.049 72.9551L143.874 72.9738ZM144.093 72.77C144.285 72.77 144.335 72.6859 144.335 72.5831C144.335 72.4802 144.291 72.4353 144.124 72.4353H143.874V72.7682L144.093 72.77Z" fill="white"/>
</svg>
