<svg width="221" height="161" viewBox="0 0 221 161" fill="none" xmlns="http://www.w3.org/2000/svg">
<path d="M177 63H44V98H177V63Z" fill="#C31841"/>
<path d="M76.6759 89.695H73.7248V80.0308H76.6759V89.695ZM78.5035 76.1719H71.7956L67.6396 78.7591V90.9667L71.7854 93.5565H78.595L82.7408 90.9667V78.7591L78.6052 76.1719H78.5035Z" fill="white"/>
<path d="M94.5475 76.1719H87.8421L83.6963 78.7591V90.9667L87.8421 93.5565H94.6517L98.7975 90.9667V85.718H92.7224V89.695H89.7713V80.0308H92.7224V83.2693H98.7975V78.7591L94.6517 76.1719H94.5475Z" fill="white"/>
<path d="M115.172 76.4153H109.229L105.683 82.4871V76.4153H99.6104V93.3127H105.683V87.1743C106.565 88.5794 109.529 93.3127 109.529 93.3127H116.318C116.318 93.3127 110.797 84.4691 110.561 84.082L115.84 76.4102L115.172 76.4153Z" fill="white"/>
<path d="M125.654 82.9563H122.703V80.1794H125.654V82.9563ZM125.654 89.5435H122.703V86.723H125.654V89.5435ZM131.729 90.7973V86.182L128.824 84.7178L131.251 83.3281V78.6409L127.393 76.4102H116.628V93.3076H127.581" fill="white"/>
<path d="M140.138 80.2053C140.227 80.7181 141.104 85.8309 141.226 86.5386H138.938L140.123 80.2053H140.138ZM144.22 76.4155H135.273L131.519 93.313H137.85C137.85 93.313 138.249 90.7976 138.326 90.3078H141.976C142.065 90.7873 142.527 93.313 142.527 93.313H148.867L144.497 76.4155H144.22Z" fill="white"/>
<path d="M66.4066 76.4155H59.2691C59.2691 76.4155 57.4898 83.1617 57.3423 83.7694C57.172 83.1719 55.2682 76.4155 55.2682 76.4155H47.7773V93.313H53.8524V85.5027C54.5768 88.2796 55.8859 93.313 55.8859 93.313H58.6489L60.6823 85.5027V93.313H66.7574V76.4155H66.4066Z" fill="white"/>
<path d="M52.8153 68.623V69.4614L52.1061 70.0204H50.3904V68.623H52.8153ZM50.3904 71.5563H52.1061L52.8153 72.1153V72.9537H50.3904V71.5563ZM47.7773 66.9409V74.6332H55.4385V71.5563L54.1879 70.7871L55.4385 70.0178V66.9409H47.7773Z" fill="white"/>
<path d="M63.8623 66.9463V68.7642H59.4014V69.8796H61.6229V71.695H59.4014V72.813H63.8623V74.6283H56.7324V68.9027V66.9463H63.8623Z" fill="white"/>
<path d="M67.4814 66.9463V70.1591H69.7386V66.9463H72.4076V74.6283H69.7386V72.1155H64.8125V68.9027V66.9463H67.4814Z" fill="white"/>
<path d="M80.9154 66.9463V68.7642H76.457V69.8796H78.6761V71.695H76.457V72.813H80.9154V74.6283H73.7881V68.9027V66.9463H80.9154Z" fill="white"/>
<path d="M84.7031 70.5924H86.9578V68.8976H84.7006L84.7031 70.5924ZM89.6292 66.9463V72.4078H84.7031V74.6283H82.0342V66.936L89.6292 66.9463Z" fill="white"/>
<path d="M93.584 66.9463V69.7822H95.8996V66.9463H98.566V74.6283H95.8996V71.7386H93.584V74.6283H90.915V68.9027V66.9463H93.584Z" fill="white"/>
<path d="M102.671 70.5232H104.931V68.7642H102.671V70.5232ZM107.597 68.8976V74.6283H104.931V72.3386H104.145L102.597 74.6283H99.6309L101.446 72.2001H100.01V66.9463H107.597V68.8976Z" fill="white"/>
<path d="M111.702 70.5232H113.962V68.7642H111.702V70.5232ZM116.628 68.8976V74.6283H113.962V72.3386H113.176L111.628 74.6283H108.662L110.469 72.2001H109.033V66.9463H116.628V68.8976Z" fill="white"/>
</svg>
