<svg width="221" height="161" viewBox="0 0 221 161" fill="none" xmlns="http://www.w3.org/2000/svg">
<rect width="221" height="161" fill="white"/>
<g clip-path="url(#clip0)">
<path d="M103.859 78.2168H102.774V71.7129H103.859L106.027 74.6189L108.06 71.7129H109.145V78.0784H108.06V73.3735L106.298 75.7259H105.621L103.859 73.3735V78.2168Z" fill="#221F1F"/>
<path d="M111.72 78.2168H110.771V71.7129H111.855V76.4179L115.515 71.7129H116.464V78.0784H115.244V73.5118L111.72 78.2168Z" fill="#221F1F"/>
<path d="M119.039 78.2168H117.955V71.7129H119.039V74.2038H122.428V71.7129H123.512V78.0784H122.428V75.1724H119.039V78.2168Z" fill="#221F1F"/>
<path d="M130.56 77.3862C129.883 77.9398 129.069 78.3549 128.12 78.3549C127.172 78.3549 126.358 77.9398 125.681 77.3862C125.003 76.6943 124.732 76.0024 124.732 75.0337C124.732 74.0651 125.003 73.2348 125.681 72.6813C126.358 71.9894 127.172 71.5742 128.12 71.5742C129.069 71.5742 129.883 71.9894 130.56 72.5429C131.238 73.2348 131.509 73.9267 131.509 74.8954C131.509 75.864 131.102 76.6943 130.56 77.3862ZM126.494 76.6943C126.901 77.1095 127.443 77.3862 128.12 77.3862C128.798 77.3862 129.34 77.1095 129.747 76.6943C130.154 76.2792 130.425 75.7257 130.425 75.0337C130.425 74.3418 130.154 73.7883 129.747 73.3732C129.34 72.8196 128.798 72.5429 128.12 72.5429C127.443 72.5429 126.901 72.8196 126.494 73.2348C126.087 73.7883 125.816 74.3418 125.816 75.0337C125.816 75.7257 126.087 76.2792 126.494 76.6943Z" fill="#221F1F"/>
<path d="M135.575 78.2168H132.865V71.7129H137.473V72.6816H133.813V74.0654H135.575C136.253 74.0654 136.931 74.2038 137.337 74.6189C137.744 75.034 138.015 75.4492 138.015 76.1411C138.015 76.833 137.744 77.2481 137.337 77.6633C136.931 77.94 136.389 78.2168 135.575 78.2168ZM133.813 75.034V77.3865H135.44C135.846 77.3865 136.253 77.2481 136.524 77.1098C136.795 76.833 136.931 76.5562 136.931 76.1411C136.931 75.7259 136.795 75.4492 136.524 75.3108C136.253 75.034 135.982 75.034 135.44 75.034H133.813Z" fill="#221F1F"/>
<path d="M140.319 78.2168H139.235V71.7129H142.081C142.759 71.7129 143.301 71.8513 143.708 72.2664C144.115 72.5432 144.25 73.0967 144.25 73.6502C144.25 74.2038 144.115 74.6189 143.708 75.034C143.301 75.3108 142.759 75.5876 142.081 75.5876H140.319V78.2168ZM140.319 72.6816V74.6189H141.946C142.353 74.6189 142.624 74.4805 142.895 74.3421C143.166 74.2038 143.166 73.927 143.166 73.6502C143.166 73.3735 143.03 73.0967 142.895 72.9583C142.624 72.8199 142.353 72.6816 141.946 72.6816H140.319Z" fill="#221F1F"/>
<path d="M146.419 78.2168H145.335V71.7129H146.419V74.2038H149.808V71.7129H150.892V78.0784H149.808V75.1724H146.419V78.2168Z" fill="#221F1F"/>
<path d="M153.06 78.2168H151.976L154.822 71.7129H155.771L158.618 78.2168H157.533L156.856 76.5562H153.738L153.06 78.2168ZM155.229 72.9583L154.145 75.7259H156.585L155.229 72.9583Z" fill="#221F1F"/>
<path d="M160.651 78.3552C160.244 78.3552 159.973 78.3552 159.702 78.2168V77.2481C159.973 77.3865 160.244 77.3865 160.515 77.3865C160.786 77.3865 161.057 77.3865 161.193 77.2481C161.328 77.1098 161.599 76.833 161.735 76.4179L159.16 71.7129H160.38L162.277 75.3108L163.904 71.8513H164.988L162.548 76.833C162.006 77.8017 161.464 78.3552 160.651 78.3552Z" fill="#221F1F"/>
<path d="M167.021 78.2168H165.937V71.7129H167.021V74.3421L169.732 71.7129H171.087L167.97 74.7573L171.494 78.2168H170.139L167.021 75.1724V78.2168Z" fill="#221F1F"/>
<path d="M173.392 78.2168H172.578V71.7129H173.663V76.4179L177.187 71.7129H178.136V78.0784H177.051V73.5118L173.392 78.2168Z" fill="#221F1F"/>
<path d="M103.859 89.2874H102.774V82.9219H105.621C106.298 82.9219 106.84 83.0603 107.247 83.4754C107.654 83.7522 107.789 84.3057 107.789 84.8592C107.789 85.4127 107.654 85.8279 107.247 86.243C106.84 86.5198 106.298 86.6582 105.621 86.6582H103.859V89.2874ZM103.859 83.7522V85.6895H105.621C106.027 85.6895 106.298 85.5511 106.569 85.4127C106.705 85.2744 106.84 84.9976 106.84 84.7208C106.84 84.4441 106.705 84.1673 106.569 84.0289C106.298 83.8905 105.892 83.7522 105.621 83.7522H103.859Z" fill="#221F1F"/>
<path d="M114.567 88.4568C113.889 89.1487 113.076 89.4255 112.127 89.4255C111.178 89.4255 110.365 89.1487 109.823 88.4568C109.145 87.7649 108.874 87.073 108.874 86.1044C108.874 85.1357 109.145 84.3054 109.823 83.7519C110.365 83.06 111.178 82.7832 112.127 82.7832C113.076 82.7832 113.889 83.06 114.567 83.7519C115.244 84.4438 115.515 85.1357 115.515 86.1044C115.515 87.073 115.244 87.7649 114.567 88.4568ZM110.5 87.7649C111.042 88.1801 111.585 88.4568 112.127 88.4568C112.804 88.4568 113.347 88.1801 113.753 87.7649C114.16 87.3498 114.431 86.7963 114.431 86.1044C114.431 85.4124 114.16 84.8589 113.753 84.4438C113.347 83.8903 112.804 83.7519 112.127 83.7519C111.449 83.7519 110.907 84.0286 110.5 84.4438C110.094 84.8589 109.823 85.4124 109.823 86.1044C109.823 86.7963 110.094 87.3498 110.5 87.7649Z" fill="#221F1F"/>
<path d="M120.124 89.4255C119.175 89.4255 118.362 89.1487 117.684 88.4568C117.006 87.7649 116.735 87.073 116.735 86.1044C116.735 85.1357 117.006 84.3054 117.684 83.7519C118.226 83.06 119.175 82.7832 120.124 82.7832C120.801 82.7832 121.344 82.9216 121.886 83.1983V84.167C121.344 83.8903 120.801 83.7519 120.124 83.7519C119.446 83.7519 118.904 84.0286 118.362 84.4438C117.955 84.8589 117.684 85.4124 117.684 86.1044C117.684 86.7963 117.955 87.3498 118.362 87.7649C118.904 88.1801 119.446 88.4568 120.124 88.4568C120.937 88.4568 121.479 88.3185 122.021 87.9033V88.872C121.479 89.2871 120.801 89.4255 120.124 89.4255Z" fill="#221F1F"/>
<path d="M126.358 89.4255C125.409 89.4255 124.596 89.1487 123.919 88.4568C123.241 87.9033 122.97 87.073 122.97 86.1044C122.97 85.1357 123.241 84.3054 123.919 83.7519C124.596 83.06 125.409 82.7832 126.358 82.7832C127.036 82.7832 127.578 82.9216 128.12 83.1983V84.167C127.578 83.8903 127.036 83.7519 126.358 83.7519C125.681 83.7519 125.138 84.0286 124.596 84.4438C124.19 84.8589 123.919 85.4124 123.919 86.1044C123.919 86.7963 124.19 87.3498 124.596 87.7649C125.138 88.1801 125.681 88.4568 126.358 88.4568C127.172 88.4568 127.714 88.3185 128.256 87.9033V88.872C127.714 89.2871 127.036 89.4255 126.358 89.4255Z" fill="#221F1F"/>
<path d="M130.425 89.2874H129.612V82.9219H130.696V87.6268L134.356 82.9219H135.304V89.2874H134.084V84.5825L130.425 89.2874Z" fill="#221F1F"/>
<path d="M137.609 89.2874H136.795V82.9219H137.88V87.6268L141.539 82.9219H142.488V89.2874H141.268V84.5825L137.609 89.2874Z" fill="#221F1F"/>
<path d="M79.5963 93.5771C79.4607 93.5771 79.3252 93.7155 79.3252 93.8539C79.3252 93.9923 79.4607 94.1307 79.5963 94.1307C79.7318 94.1307 79.8674 93.9923 79.8674 93.8539C79.8674 93.7155 79.7318 93.5771 79.5963 93.5771Z" fill="#253C7A"/>
<path d="M80.4097 96.3447C80.4097 96.4831 80.5452 96.6215 80.6807 96.6215C80.8163 96.6215 80.9518 96.4831 80.9518 96.3447C80.9518 96.2063 80.8163 96.068 80.6807 96.068C80.5452 95.9296 80.4097 96.068 80.4097 96.3447Z" fill="#253C7A"/>
<path d="M79.5963 95.9297C79.4607 95.9297 79.3252 96.0681 79.3252 96.2064C79.3252 96.3448 79.4607 96.4832 79.5963 96.4832C79.7318 96.4832 79.8674 96.3448 79.8674 96.2064C79.8674 96.0681 79.7318 95.9297 79.5963 95.9297Z" fill="#253C7A"/>
<path d="M81.6296 96.3447C81.6296 96.4831 81.7652 96.6215 81.9007 96.6215C82.0363 96.6215 82.1718 96.4831 82.1718 96.3447C82.1718 96.2063 82.0363 96.068 81.9007 96.068C81.7652 95.9296 81.6296 96.068 81.6296 96.3447Z" fill="#253C7A"/>
<path d="M79.1899 90.9482V91.5018H78.6477V92.3321L79.1899 92.1937V92.8856H79.8676V92.1937L80.4098 92.3321V91.5018H79.8676V90.9482H79.1899Z" fill="#253C7A"/>
<path d="M80.0032 93.2998V95.7907H82.3074C82.1718 94.5452 81.2231 93.5766 80.0032 93.2998Z" fill="#253C7A"/>
<path d="M79.5963 94.8223C79.4607 94.8223 79.3252 94.9606 79.3252 95.099C79.3252 95.2374 79.4607 95.3758 79.5963 95.3758C79.7318 95.3758 79.8674 95.2374 79.8674 95.099C79.8674 94.9606 79.7318 94.8223 79.5963 94.8223Z" fill="#253C7A"/>
<path d="M80.5452 98.0049C80.4097 98.0049 80.2741 98.5584 80.4097 99.1119C80.5452 99.2503 80.8163 99.3887 80.9518 99.2503C81.0874 99.2503 81.2229 98.9736 81.2229 98.8352C81.2229 98.42 80.8163 98.0049 80.5452 98.0049Z" fill="#253C7A"/>
<path d="M78.5122 98.0049C78.2411 98.0049 77.8345 98.42 77.8345 98.9736C77.8345 99.1119 77.8345 99.2503 78.1056 99.3887C78.2411 99.3887 78.5122 99.3887 78.6477 99.1119C78.7833 98.5584 78.6477 98.0049 78.5122 98.0049Z" fill="#253C7A"/>
<path d="M79.5963 97.5898C79.3252 97.5898 78.783 98.8353 79.1897 99.5272C79.1897 99.6656 79.3252 99.6656 79.5963 99.6656C79.7318 99.6656 79.8674 99.6656 80.0029 99.5272C80.4096 98.8353 79.7318 97.5898 79.5963 97.5898Z" fill="#253C7A"/>
<path d="M76.6147 96.3444C76.6147 96.0677 76.6147 95.9293 76.6147 95.9293H78.9189V95.6525V93.8536V93.3C77.9701 93.5768 77.0213 94.4071 76.7502 95.6525C76.7502 95.7909 76.4791 95.7909 76.3436 95.7909C75.3948 95.6525 73.6327 95.2374 73.6327 94.9606C73.6327 94.4071 74.0394 94.2687 74.3105 94.2687C74.8526 94.2687 75.3948 94.5455 75.8014 93.8536C74.3105 93.8536 75.5303 91.5011 74.1749 91.0859C74.1749 91.6395 74.1749 92.7465 73.9038 93.3C73.9038 93.3 73.4972 92.7465 72.955 92.6081C72.955 93.0233 72.955 93.9919 72.6839 94.4071C72.6839 94.4071 72.1418 93.8536 71.5996 93.7152C72.1418 94.4071 72.1418 95.5141 72.0062 96.206C72.0062 96.3444 72.1418 96.6212 72.5484 96.6212C73.2261 96.6212 75.3948 96.7596 76.3436 97.0363C76.4791 97.1747 76.7502 97.3131 76.8858 97.5899C77.0213 97.8666 77.2924 98.2818 77.5635 98.5585C77.699 98.005 78.2412 97.4515 78.6478 97.4515C78.7833 97.4515 78.9189 97.5899 78.9189 97.8666C78.9189 97.7282 79.19 97.1747 79.5966 97.1747C79.8677 97.1747 80.1388 97.5899 80.2743 97.8666C80.2743 97.5899 80.4098 97.4515 80.5454 97.4515C80.952 97.4515 81.3586 97.7282 81.6297 98.4201C81.6297 98.2818 82.3074 97.3131 82.443 96.7596H76.7502C76.7502 96.7596 76.6147 96.4828 76.6147 96.3444Z" fill="#253C7A"/>
<path d="M78.1055 96.3447C78.1055 96.4831 78.241 96.6215 78.3766 96.6215C78.5121 96.6215 78.6476 96.4831 78.6476 96.3447C78.6476 96.2063 78.5121 96.068 78.3766 96.068C78.241 95.9296 78.1055 96.068 78.1055 96.3447Z" fill="#253C7A"/>
<path d="M76.8855 96.3451C76.8855 96.4835 77.021 96.6219 77.1566 96.6219C77.2921 96.6219 77.4277 96.4835 77.4277 96.3451C77.4277 96.2067 77.2921 96.0684 77.1566 96.0684C77.021 96.0684 76.8855 96.0684 76.8855 96.3451Z" fill="#253C7A"/>
<path d="M54.5213 97.4521C54.3858 97.5905 54.2502 98.1441 54.2502 98.5592C54.2502 98.6976 54.3858 98.836 54.5213 98.836C54.6569 98.836 54.7924 98.6976 54.7924 98.5592C54.928 98.1441 54.6569 97.5905 54.5213 97.4521Z" fill="#253C7A"/>
<path d="M56.5543 99.2511C56.4188 99.3895 56.2832 99.5278 56.1477 99.5278C56.1477 99.5278 56.2832 99.6662 56.5543 99.6662C56.6899 99.6662 56.8254 99.6662 56.8254 99.5278C56.961 99.2511 56.8254 98.8359 56.6899 98.8359C56.8254 98.9743 56.6899 99.1127 56.5543 99.2511Z" fill="#253C7A"/>
<path d="M55.741 98.4203C56.0121 98.282 56.0121 98.1436 56.0121 98.0052C55.8766 97.7284 55.4699 97.3133 54.9278 96.7598C54.9278 96.8981 54.9278 97.0365 54.7922 97.1749C55.1989 97.5901 55.3344 98.1436 55.1989 98.6971H55.3344C55.4699 98.6971 55.6055 98.5587 55.741 98.4203Z" fill="#253C7A"/>
<path d="M56.554 98.559C56.554 98.4206 56.554 98.2822 56.554 98.2822L56.4185 98.4206C56.4185 98.559 56.2829 98.559 56.1474 98.6974C56.0119 98.8358 55.8763 98.9741 55.7408 98.9741C55.7408 99.1125 55.6052 99.1125 55.6052 99.1125H55.7408C55.8763 99.1125 56.0119 99.1125 56.2829 98.8358C56.4185 98.6974 56.554 98.559 56.554 98.559Z" fill="#253C7A"/>
<path d="M52.8946 95.5141L52.759 95.6525C52.8946 95.6525 53.0301 95.6525 53.1657 95.6525C53.1657 95.5141 53.1657 95.3757 53.1657 95.2373C53.1657 95.3757 53.0301 95.5141 52.8946 95.5141Z" fill="#253C7A"/>
<path d="M54.3857 95.7909C54.3857 95.7909 55.4701 96.7596 55.8767 97.1747C56.0122 97.3131 56.1478 97.3131 56.1478 97.1747C56.2833 97.1747 56.2833 97.0363 56.4189 97.0363C57.5032 96.6212 59.4008 96.6212 60.0785 96.6212C60.4851 96.6212 60.6207 96.3444 60.6207 96.206C60.4851 95.5141 60.4851 94.4071 61.0273 93.5768C60.4851 93.7152 59.8074 94.2687 59.8074 94.2687C59.6719 93.8536 59.5363 92.8849 59.5363 92.4697C59.1297 92.7465 58.5875 93.3 58.5875 93.3C58.452 92.7465 58.3164 91.6395 58.452 91.0859C57.0966 91.5011 58.3164 93.8536 56.8255 93.8536C57.2321 94.4071 57.7743 94.1303 58.1809 94.1303C58.5875 94.1303 58.9942 94.4071 58.8586 94.8222C58.8586 95.2374 56.6899 95.6525 55.7411 95.6525C55.199 95.6525 54.7923 95.5141 54.3857 95.099C54.3857 94.9606 54.2502 94.8222 54.1146 94.8222C53.8435 94.8222 53.708 95.099 53.708 95.5141C53.708 95.9293 53.8435 96.6212 54.2502 96.6212C54.5213 96.7596 54.5213 96.0677 54.3857 95.7909Z" fill="#253C7A"/>
<path d="M52.2171 95.376H52.3526C52.2171 95.5144 52.2171 95.7912 52.3526 95.7912C52.4882 95.9295 52.4882 95.6528 52.7593 95.376C53.0304 95.0993 53.1659 94.9609 53.1659 94.8225C53.0304 94.8225 52.8948 94.8225 52.7593 94.9609V94.8225C52.6237 94.5457 52.2171 94.269 51.946 94.269C51.946 94.269 51.946 94.269 51.8105 94.269C51.946 94.1306 51.946 93.9922 51.8105 93.8538C51.6749 93.7155 51.6749 93.8538 51.6749 93.9922C51.6749 93.8538 51.6749 93.8538 51.5394 93.7154C51.2683 93.1619 49.5063 91.363 49.0996 91.2246C48.8286 91.0862 48.8286 91.2246 48.8286 91.2246C48.8286 91.2246 48.693 91.363 48.8286 91.6397C48.8286 92.0549 50.5906 93.8538 51.1328 94.269C51.2683 94.4074 51.2683 94.4074 51.4039 94.4074C51.2683 94.4074 51.2683 94.4074 51.2683 94.5457C51.4039 94.5457 51.4039 94.6841 51.6749 94.5457C51.6749 94.5457 51.6749 94.5457 51.6749 94.6841C51.6749 94.8225 51.946 95.2376 52.2171 95.376Z" fill="#253C7A"/>
<path d="M53.5723 96.7596C53.5723 96.6212 53.1657 96.2061 52.7591 96.2061C52.2169 96.2061 51.9458 96.6212 51.9458 96.7596C51.9458 97.1747 52.3524 97.1747 52.3524 97.1747C52.7591 97.3131 53.5723 96.7596 53.5723 96.7596Z" fill="#253C7A"/>
<path d="M53.0301 97.5897C52.8945 97.8664 52.759 98.0048 52.8945 98.2816C52.8945 98.5583 53.1656 98.5583 53.4367 98.5583C53.7078 98.5583 53.8433 98.4199 53.9789 98.2816C54.2499 97.8664 54.2499 97.0361 54.1144 97.0361C53.8433 97.0361 53.3011 97.3129 53.0301 97.5897Z" fill="#253C7A"/>
<path d="M47.744 89.0109C47.6085 88.8725 47.2019 89.1492 47.0663 89.0109C47.2019 88.4573 47.4729 89.0109 47.8796 88.5957C48.0151 88.4573 47.8796 88.1806 47.8796 88.1806C47.744 88.3189 47.4729 88.3189 47.4729 88.1806C47.744 87.2119 46.9308 86.1048 46.2531 86.2432C46.3886 86.3816 46.3886 87.2119 46.3886 87.3503C46.6597 87.627 46.5241 88.0422 46.1175 87.9038C45.8464 87.7654 45.5753 87.2119 45.982 86.9351C45.982 86.7968 45.7109 86.7968 45.4398 87.0735C45.7109 86.3816 44.491 86.6584 44.2199 86.7968C44.0844 87.0735 43.9488 88.1806 44.491 88.0422C44.2199 88.3189 44.3555 88.5957 44.491 88.5957C44.8976 88.1806 45.4398 88.4573 45.4398 88.7341C45.5753 89.0109 45.1687 89.2876 44.8976 89.0109C44.7621 89.1492 44.0844 89.0109 43.8133 88.8725C43.6778 89.7028 44.7621 90.3947 45.7109 89.9795C45.8464 89.9795 45.8464 90.2563 45.7109 90.3947C45.8464 90.533 45.982 90.533 46.1175 90.3947C46.5241 89.9795 45.982 89.7028 46.5241 89.5644C46.6597 89.8411 46.3886 90.1179 46.5241 90.3947C46.7952 90.533 47.2019 89.9795 47.4729 89.9795C47.4729 89.7028 48.0151 89.2876 47.744 89.0109ZM44.8976 87.7654C44.8976 87.7654 44.7621 87.627 44.8976 87.3503C45.1687 87.0735 45.3043 87.3503 45.3043 87.3503C45.3043 87.3503 45.4398 87.7654 45.5753 88.0422C45.3043 88.0422 44.8976 87.7654 44.8976 87.7654ZM46.6597 89.1492C46.5241 89.1492 46.2531 89.426 46.1175 89.2876L45.5753 88.7341L45.8464 88.4573L46.1175 88.1806L46.6597 88.5957C46.7952 88.7341 46.6597 89.0109 46.6597 89.1492Z" fill="#253C7A"/>
<path d="M47.8794 90.1172C47.8794 90.1172 47.7438 90.1172 47.7438 90.2556C47.7438 90.2556 47.6083 90.394 47.7438 90.5323C47.7438 90.6707 47.8794 90.8091 47.8794 90.8091C48.0149 90.9475 48.1505 90.9475 48.286 90.9475C48.286 90.9475 48.4215 90.9475 48.4215 90.8091C48.5571 90.6707 48.4215 90.394 48.286 90.2556C48.1505 90.2556 48.0149 90.1172 47.8794 90.1172Z" fill="#253C7A"/>
<path d="M46.1173 88.3184L45.9817 88.4567L45.8462 88.7335C45.8462 88.7335 46.1173 89.1486 46.3884 89.0103C46.5239 88.5951 46.1173 88.3184 46.1173 88.3184Z" fill="#253C7A"/>
<path d="M77.6988 86.6575C77.6988 86.7959 77.2921 86.9343 76.8855 86.3808C76.6144 86.3808 76.2078 86.2424 76.0723 86.104C76.4789 86.9343 76.75 87.4878 77.2921 87.903C78.1054 88.4565 79.3253 88.3181 79.7319 87.7646C79.0542 87.3494 78.2409 86.3808 77.8343 85.4121C77.6988 85.5505 77.5632 85.9656 77.4277 86.2424C77.5632 86.3808 77.6988 86.5192 77.6988 86.6575Z" fill="#253C7A"/>
<path d="M85.2892 74.619C86.238 74.2039 87.4579 73.3736 88.0001 72.8201C88.1356 72.8201 88.2712 73.3736 87.5935 73.9271C87.1868 74.3423 86.238 74.7574 85.4248 75.0342C85.1537 75.5877 84.476 76.1412 83.6627 76.6947C85.2892 76.418 87.4579 75.7261 88.4067 74.7574C90.3043 72.8201 89.3555 70.4676 89.0844 69.9141C87.8645 71.4363 85.4248 73.2352 83.2561 74.0655C83.9338 74.2039 84.7471 74.3423 85.2892 74.619Z" fill="#253C7A"/>
<path d="M83.9336 71.0207C85.0179 70.0521 86.2378 68.1147 86.3734 67.5612C86.6445 67.6996 86.78 68.2531 86.3734 68.945C85.8312 70.0521 84.7469 71.0207 83.7981 71.7126C83.7981 72.4045 83.527 73.2348 83.1204 73.7884C84.4758 72.8197 85.9667 71.4359 86.78 70.4672C87.7288 69.2218 88.1354 67.9763 87.9999 66.7309C87.9999 65.3471 87.0511 63.9633 86.6445 63.6865C86.3734 65.2087 84.8824 67.6996 83.6625 69.2218C83.7981 69.7753 83.7981 70.4672 83.9336 71.0207Z" fill="#253C7A"/>
<path d="M82.985 79.7393C83.2561 80.016 83.5271 80.4312 83.6627 80.7079C84.747 80.9847 85.9669 80.8463 85.9669 80.8463C85.9669 80.8463 85.9669 81.5382 85.2892 81.5382C85.0181 81.5382 84.0693 81.3998 83.6627 81.2615C83.3916 81.3998 82.7139 81.5382 81.9006 81.6766C82.985 82.0917 84.6115 82.5069 85.5603 82.5069C85.6958 82.5069 85.6958 82.5069 85.8314 82.5069C87.4579 82.3685 88.2711 80.8463 88.2711 80.016C87.7289 80.016 86.9157 80.1544 86.1024 80.1544C85.4247 80.1544 84.0693 80.016 82.985 79.7393Z" fill="#253C7A"/>
<path d="M89.6264 75.5879C88.1354 76.2798 85.6957 77.1101 83.6625 77.1101C84.2047 77.3868 84.6113 77.802 85.0179 78.0787C85.8312 78.0787 86.9155 77.802 87.5932 77.5252C87.5932 77.6636 87.5933 78.2171 86.9155 78.3555C86.3734 78.4939 85.5601 78.6323 84.8824 78.6323C84.4758 78.909 83.6625 79.1858 83.1204 79.4626C83.6625 79.4626 84.3402 79.6009 85.0179 79.6009C86.1023 79.6009 87.0511 79.4626 87.5932 79.3242C88.1354 79.0474 89.8975 78.2171 89.6264 75.5879Z" fill="#253C7A"/>
<path d="M81.9005 83.1986C82.5782 83.4753 83.1204 83.6137 83.6625 83.7521C83.6625 83.7521 83.527 84.3056 82.7137 84.1672C82.3071 84.1672 81.6294 83.7521 81.6294 83.6137C81.2228 83.6137 80.5451 83.6137 80.1384 83.6137C81.0872 84.3056 82.4426 84.9975 83.6625 85.1359H83.7981C85.0179 85.1359 85.9667 83.8905 86.2378 83.1986C85.0179 83.1986 82.8493 82.645 81.4938 81.9531C81.7649 82.2299 81.9005 82.645 81.9005 83.1986Z" fill="#253C7A"/>
<path d="M79.8675 84.8593C80.1386 85.2744 80.6808 85.5512 80.6808 85.5512C80.6808 85.5512 80.5452 85.828 80.2741 85.828C80.1386 85.828 80.0031 85.828 80.0031 85.6896C79.5964 85.5512 79.3254 85.1361 79.3254 85.1361C78.9187 85.1361 78.5121 84.9977 78.1055 84.8593C78.7832 85.828 80.0031 86.7966 81.0874 87.0734C81.2229 87.0734 81.494 87.0734 81.6296 87.0734C82.7139 87.0734 83.5272 86.2431 83.7982 85.828C82.5784 85.6896 80.8163 84.7209 79.8675 83.8906C79.8675 84.1674 79.8675 84.5825 79.8675 84.8593Z" fill="#253C7A"/>
<path d="M72.0062 98.4205C72.5484 98.4205 72.955 98.1438 73.2261 97.5902C72.5484 98.0054 71.5996 97.7286 69.9731 97.3135C69.9731 97.3135 69.2954 97.5902 69.0243 97.5902C69.9731 97.867 71.4641 98.4205 71.5996 98.9741C71.7352 99.3892 71.4641 99.3892 71.4641 99.3892C70.9219 98.8357 70.2442 98.4205 68.8888 98.0054C68.8888 98.2821 68.8888 98.4205 68.8888 98.4205C68.8888 98.4205 68.6177 98.5589 67.94 98.4205C68.4821 98.8357 69.8376 100.081 69.9731 101.327C70.1086 102.157 69.5665 102.157 69.5665 102.157C69.4309 100.773 68.8888 100.081 67.6689 98.6973C67.6689 98.6973 67.5333 98.9741 67.2623 99.1124C67.2623 99.1124 66.8556 98.9741 66.449 98.8357C66.5845 100.496 66.7201 104.509 66.5845 105.201C66.5845 105.616 66.3135 105.893 66.3135 105.893C66.3135 105.893 66.0424 105.755 66.0424 105.201C65.9068 104.509 66.0424 100.635 66.1779 98.9741C65.7713 99.1124 65.3647 99.2508 65.3647 99.2508C65.0936 98.9741 64.958 98.6973 64.958 98.6973C63.7382 100.081 63.196 100.773 63.196 102.018C63.196 102.018 62.6538 102.018 62.7894 101.188C62.7894 99.9427 64.1448 98.8357 64.687 98.4205C64.0092 98.5589 63.7382 98.4205 63.7382 98.4205C63.7382 98.4205 63.7382 98.2821 63.7382 98.0054C62.3827 98.4205 61.705 98.8357 61.1629 99.5276C61.1629 99.5276 60.8918 99.3892 61.0273 98.9741C61.2984 98.4205 62.6538 98.0054 63.6026 97.7286C63.196 97.7286 62.6538 97.4519 62.6538 97.4519C61.0273 97.7286 60.0785 98.0054 59.2653 97.5902C59.5364 98.1438 59.943 98.4205 60.4851 98.4205C59.8074 98.6973 59.1297 99.5276 58.8586 100.219C59.4008 102.295 61.1629 102.849 61.1629 102.849C60.7562 101.88 60.8918 99.9427 63.4671 98.6973C61.8406 100.219 61.2984 101.742 61.705 103.125C62.1117 104.371 63.3315 104.924 64.2803 104.924C63.6026 102.849 63.8737 100.911 65.3647 99.3892C64.687 101.05 63.8737 106.17 66.3135 107C68.7532 106.17 67.94 101.05 67.2623 99.3892C68.6177 100.911 69.0243 102.849 68.3466 104.924C69.2954 104.924 70.5153 104.371 70.9219 103.125C71.3285 101.742 70.7864 100.219 69.1598 98.6973C71.7352 100.081 71.8707 102.018 71.4641 102.987C71.4641 102.987 73.2261 102.434 73.7683 100.358C73.4972 99.5276 72.8195 98.6973 72.0062 98.4205Z" fill="#253C7A"/>
<path d="M55.3343 87.903C55.741 87.4878 56.1476 86.9343 56.5542 86.104C56.2831 86.2424 56.012 86.2424 55.6054 86.3808C55.3343 86.9343 54.9277 86.7959 54.9277 86.6575C54.9277 86.5192 55.0632 86.3808 55.1988 86.2424C55.0632 85.9656 54.9277 85.5505 54.7922 85.4121C54.3855 86.3808 53.4367 87.3494 52.759 87.6262C53.1657 88.3181 54.5211 88.4565 55.3343 87.903Z" fill="#253C7A"/>
<path d="M48.9641 76.6947C48.1508 76.1412 47.4731 75.5877 47.2021 75.0342C46.3888 74.7574 45.44 74.3423 45.0334 73.9271C44.3557 73.3736 44.4912 72.8201 44.6268 72.6817C45.1689 73.2352 46.3888 74.2039 47.3376 74.4806C47.8798 74.2039 48.693 74.0655 49.3707 74.0655C47.2021 73.2352 44.7623 71.4363 43.5424 69.9141C43.2713 70.4676 42.3225 72.8201 44.2201 74.7574C45.1689 75.7261 47.3376 76.418 48.9641 76.6947Z" fill="#253C7A"/>
<path d="M49.3705 73.6497C49.0994 73.0962 48.8283 72.2659 48.6928 71.574C47.744 70.8821 46.6596 69.9134 46.1175 68.8063C45.7109 68.2528 45.8464 67.6993 46.1175 67.4225C46.253 68.1144 47.6084 69.9134 48.6928 70.8821C48.6928 70.3285 48.8283 69.6366 48.9639 69.0831C47.6084 67.6993 46.1175 65.07 45.9819 63.5479C45.5753 63.8246 44.6265 65.2084 44.6265 66.5922C44.491 67.976 44.8976 69.2215 45.7109 70.4669C46.5241 71.2972 48.0151 72.8194 49.3705 73.6497Z" fill="#253C7A"/>
<path d="M48.8284 80.8456C48.9639 80.5689 49.235 80.1537 49.5061 79.877C48.5573 80.0153 47.2019 80.1537 46.5241 80.1537C45.7109 80.1537 44.8976 80.1537 44.3555 80.0153C44.3555 80.8456 45.1687 82.3678 46.7952 82.5062C46.9308 82.5062 46.9308 82.5062 47.0663 82.5062C48.0151 82.5062 49.6416 82.091 50.726 81.6759C49.9127 81.5375 49.235 81.3991 48.9639 81.2608C48.5573 81.3991 47.6085 81.5375 47.3374 81.5375C46.6597 81.5375 46.5241 80.984 46.5241 80.984C46.5241 80.984 47.8796 80.984 48.8284 80.8456Z" fill="#253C7A"/>
<path d="M45.033 79.1858C45.7107 79.4626 46.5239 79.6009 47.6083 79.6009C48.286 79.6009 48.9637 79.6009 49.5059 79.4626C48.9637 79.1858 48.1504 78.909 47.7438 78.6323C47.2016 78.6323 46.3884 78.6323 45.8462 78.4939C45.033 78.2171 45.033 77.6636 45.033 77.5252C45.7107 77.802 46.795 78.0787 47.6083 78.0787C48.0149 77.802 48.4215 77.3868 48.9637 77.1101C46.9306 77.1101 44.4908 76.2798 42.9998 75.5879C42.7288 78.2171 44.4908 79.0474 45.033 79.1858Z" fill="#253C7A"/>
<path d="M48.693 85.1362H48.8285C50.0484 84.9978 51.4038 84.3059 52.3526 83.614C52.0815 83.614 51.2683 83.7524 50.8617 83.614C50.8617 83.7524 50.3195 84.0291 49.7773 84.1675C48.9641 84.3059 48.8285 83.7524 48.8285 83.7524C49.3707 83.7524 50.0484 83.4756 50.5906 83.1988C50.5906 82.7837 50.7261 82.3686 50.8617 82.0918C49.5062 82.7837 47.4731 83.3372 46.1177 83.3372C46.3888 83.8908 47.4731 85.1362 48.693 85.1362Z" fill="#253C7A"/>
<path d="M50.997 87.2118C51.1326 87.2118 51.4037 87.2118 51.5392 87.2118C52.6235 86.7966 53.7079 85.828 54.3856 84.9977C53.979 85.1361 53.7079 85.1361 53.3013 85.1361C53.3013 85.1361 53.0302 85.5512 52.7591 85.5512C52.6236 85.6896 52.488 85.828 52.3525 85.828C52.0814 85.828 51.9458 85.5512 51.9458 85.5512C51.9458 85.5512 52.488 85.2744 52.7591 84.8593C52.7591 84.5825 52.6235 84.1674 52.6235 83.8906C51.8103 84.7209 50.0482 85.6896 48.8284 85.828C49.0995 86.3815 49.9127 87.2118 50.997 87.2118Z" fill="#253C7A"/>
<path d="M65.9067 56.9064C65.9067 57.1831 66.0423 57.3215 66.3134 57.3215C66.5844 57.3215 66.72 57.0447 66.72 56.9064C66.72 56.6296 66.5844 56.4912 66.3134 56.4912C66.0423 56.4912 65.9067 56.6296 65.9067 56.9064Z" fill="#253C7A"/>
<path d="M66.0422 55.9373H66.5844V55.2454H67.1265V54.6919H66.5844V54H66.0422V54.6919H65.3645V55.2454H66.0422V55.9373Z" fill="#253C7A"/>
<path d="M63.8734 63.2719C63.8734 63.2719 64.0089 63.2719 64.1445 63.2719H68.4818C68.6174 63.2719 68.6174 63.2719 68.7529 63.2719C68.8884 63.2719 69.024 63.1335 69.024 62.9951H63.6023C63.7378 63.1335 63.7378 63.1335 63.8734 63.2719Z" fill="#253C7A"/>
<path d="M68.6175 62.5799L68.7531 62.4415V62.1647L68.6175 62.0264H63.8735V62.1647V62.4415V62.5799H68.6175Z" fill="#253C7A"/>
<path d="M69.1598 61.7498C69.2954 61.6114 69.8375 60.366 69.8375 59.1205C69.8375 58.0135 68.4821 57.46 67.6689 57.46C67.6689 58.9822 67.1267 61.473 66.3134 61.473C65.6357 61.473 64.958 58.9822 64.8225 57.46C64.0092 57.46 62.6538 58.1519 62.6538 59.1205C62.6538 60.366 63.196 61.473 63.3315 61.7498H69.1598Z" fill="#253C7A"/>
<path d="M66.3133 60.6423C66.7199 60.6423 67.1266 59.3969 67.2621 58.2899C67.2621 58.0131 66.8555 57.7363 66.3133 57.7363C65.7711 57.7363 65.3645 58.1515 65.3645 58.2899C65.5 59.3969 65.9067 60.6423 66.3133 60.6423Z" fill="#253C7A"/>
<path d="M73.2259 78.7699C73.2259 78.6315 73.0904 78.4932 72.9548 78.4932H59.6717C59.5362 78.4932 59.4006 78.6315 59.4006 78.7699V88.0415C59.4006 88.0415 59.4006 88.4566 59.6717 89.1485C59.9428 89.8404 61.0271 90.9475 62.5181 91.6394C64.5512 92.7464 65.7711 93.5767 66.3133 94.1302C66.8555 93.5767 68.0753 92.7464 70.1085 91.7778C71.5994 91.0859 72.6838 89.8404 72.9548 89.2869C73.2259 88.595 73.2259 88.0415 73.2259 88.0415V78.7699ZM68.753 82.2295C69.0241 82.9214 69.0241 83.6133 69.1597 84.3052C69.7018 84.7203 70.1085 85.2738 70.6506 85.689C71.4639 84.7203 71.8705 83.89 71.8705 83.1981C71.4639 83.1981 71.1928 82.9214 71.1928 82.5062C71.1928 82.3678 71.1928 82.2295 71.3283 82.0911C70.9217 81.9527 70.3795 81.8143 70.1085 81.8143C69.8374 81.8143 69.4308 81.8143 69.0241 81.9527H68.8886V81.8143L69.0241 81.6759C70.1085 81.3992 70.9217 81.5376 71.4639 81.8143C71.5994 81.8143 71.735 81.6759 71.8705 81.6759C72.2771 81.6759 72.5482 81.9527 72.5482 82.3678C72.5482 82.6446 72.4127 82.9214 72.1416 82.9214C72.1416 83.7517 71.735 84.7203 70.7862 85.8274L70.9217 85.9658C70.9217 85.9658 70.9217 86.1041 71.0573 86.1041L70.9217 86.2425C70.9217 86.2425 70.9217 86.1041 70.7862 86.1041L70.6506 85.9658C70.5151 86.2425 70.3795 86.3809 70.244 86.5193H70.1085C69.9729 86.6577 69.8374 86.796 69.7018 86.6577C69.9729 86.3809 70.244 86.2425 70.3795 85.9658C69.9729 85.5506 69.5663 85.1355 69.1597 84.7203C69.1597 85.1355 69.1597 85.5506 69.1597 85.8274C69.1597 86.1041 69.1597 86.5193 69.1597 86.9344C69.1597 86.9344 69.0241 87.0728 68.8886 87.0728V86.9344C68.8886 86.5193 68.8886 86.1041 68.8886 85.689C68.8886 85.5506 68.8886 85.4122 68.8886 85.2738V85.1355C68.8886 84.8587 68.8886 84.0284 68.753 83.6133C68.753 83.1981 68.6175 82.783 68.482 82.3678C68.6175 82.3678 68.6175 82.3678 68.753 82.2295ZM64.2802 81.1224C64.8223 79.877 65.5 79.0467 66.3133 79.0467C67.1265 79.0467 67.8042 79.7386 68.3464 81.1224C68.3464 81.1224 68.2109 81.1224 68.0753 81.2608C67.6687 80.1537 66.991 79.4618 66.3133 79.4618C65.6356 79.4618 64.9579 80.1537 64.5512 81.2608C64.4157 81.2608 64.2802 81.2608 64.2802 81.1224ZM64.0091 81.5376C64.2802 81.6759 64.6868 81.8143 65.2289 81.6759C65.6356 81.5376 66.3133 81.5376 66.3133 81.5376C66.3133 81.5376 66.8555 81.5376 67.3976 81.6759C67.9398 81.8143 68.3464 81.6759 68.6175 81.5376H68.753C68.753 81.8143 68.482 82.3678 67.6687 82.5062C66.8555 82.6446 66.5844 83.6133 66.4488 83.89H66.3133C66.1777 83.4749 65.9067 82.6446 65.0934 82.5062C64.2802 82.3678 64.0091 81.8143 64.0091 81.5376ZM65.3645 83.7517C65.5 83.7517 65.6356 83.7517 65.7711 83.6133C65.9067 83.7517 65.9067 83.89 65.9067 84.0284C65.7711 84.0284 65.6356 84.1668 65.3645 84.1668C64.8223 84.1668 64.2802 83.7517 64.2802 83.0597C64.2802 82.9214 64.2802 82.783 64.4157 82.6446C64.5512 82.6446 64.6868 82.783 64.8223 82.783C64.8223 82.9214 64.8223 82.9214 64.8223 83.0597C64.6868 83.4749 64.9579 83.7517 65.3645 83.7517ZM65.0934 83.0597C65.0934 83.0597 65.0934 82.9214 65.0934 83.0597C65.2289 83.0597 65.5 83.1981 65.5 83.3365H65.3645C65.2289 83.3365 65.0934 83.1981 65.0934 83.0597ZM65.3645 84.4436C65.6356 84.4436 65.9067 84.3052 66.0422 84.3052C66.0422 84.3052 66.1777 84.5819 66.3133 84.5819C66.4488 84.5819 66.4488 84.3052 66.5844 84.3052C66.7199 84.4436 66.991 84.4436 67.2621 84.4436C67.6687 84.4436 67.9398 84.3052 68.2109 84.0284C68.3464 84.4436 68.3464 84.9971 68.3464 85.2738C68.3464 85.5506 68.2109 85.689 68.2109 85.9658C68.0753 86.2425 68.0753 86.5193 68.0753 86.5193C68.0753 86.5193 68.0753 86.5193 68.0753 86.6577C67.9398 86.9344 67.8042 87.2112 67.5332 87.6263C67.1265 87.3496 66.7199 87.2112 66.1777 87.2112C65.7711 87.2112 65.2289 87.3496 64.9579 87.4879C64.6868 87.2112 64.5512 86.9344 64.5512 86.6577C64.5512 86.5193 64.4157 86.5193 64.4157 86.5193C64.4157 86.5193 64.2802 86.2425 64.2802 85.9658C64.2802 85.8274 64.1446 85.5506 64.1446 85.4122C64.1446 85.2738 64.1446 84.7203 64.2802 84.1668C64.2802 84.1668 64.2802 84.0284 64.4157 84.0284C64.5512 84.3052 64.9579 84.4436 65.3645 84.4436ZM67.2621 83.7517C67.6687 83.7517 67.9398 83.4749 67.9398 83.0597C67.9398 82.9214 67.9398 82.9214 67.9398 82.783C68.0753 82.783 68.2109 82.6446 68.3464 82.6446C68.3464 82.783 68.482 82.9214 68.482 83.0597C68.482 83.6133 68.0753 84.1668 67.3976 84.1668C67.2621 84.1668 66.991 84.1668 66.8555 84.0284C66.8555 83.89 66.991 83.7517 66.991 83.6133C66.991 83.7517 67.1265 83.7517 67.2621 83.7517ZM67.1265 83.3365C67.2621 83.1981 67.3976 83.0597 67.5332 82.9214V83.0597C67.5332 83.1981 67.3976 83.3365 67.2621 83.3365C67.1265 83.3365 67.1265 83.3365 67.1265 83.3365ZM60.7561 81.8143C60.8916 81.8143 61.0271 81.8143 61.1627 81.9527C61.5693 81.6759 61.9759 81.5376 62.5181 81.5376C62.7892 81.5376 63.1958 81.5376 63.6024 81.6759C63.6024 81.8143 63.6024 81.8143 63.738 81.9527V82.0911H63.6024H63.4669C63.0603 82.0911 62.7892 81.9527 62.5181 81.9527C62.1115 81.9527 61.7049 81.9527 61.2982 82.2295C61.2982 82.3678 61.4338 82.5062 61.4338 82.6446C61.4338 83.0597 61.1627 83.3365 60.7561 83.3365C60.7561 84.0284 61.1627 84.8587 61.9759 85.8274C62.3826 85.4122 62.9247 84.8587 63.4669 84.4436C63.6024 83.7517 63.6024 83.0597 63.8735 82.3678V82.2295L64.0091 82.3678C64.0091 82.9214 64.0091 83.3365 63.8735 83.89C63.8735 84.1668 63.738 84.7203 63.738 85.1355C63.738 85.4122 63.738 85.689 63.738 85.9658C63.738 86.2425 63.738 86.6577 63.738 87.0728C63.6024 87.0728 63.6024 87.0728 63.4669 87.0728C63.4669 86.796 63.4669 86.3809 63.4669 86.1041C63.4669 85.689 63.4669 85.2738 63.4669 84.9971C63.0603 85.1355 62.6536 85.5506 62.247 85.9658C62.5181 86.2425 62.9247 86.6577 63.3314 86.9344H63.1958C63.0603 86.9344 62.9247 86.9344 62.7892 86.9344C62.5181 86.6577 62.247 86.3809 62.1115 86.1041L61.9759 86.2425C61.9759 86.2425 61.8404 86.2425 61.8404 86.3809C61.9759 86.2425 62.1115 86.1041 62.1115 85.9658C61.1627 84.8587 60.7561 83.89 60.7561 83.1981C60.2139 82.9214 60.0783 82.783 60.0783 82.5062C60.0783 82.0911 60.3494 81.8143 60.7561 81.8143ZM68.482 90.394C68.0753 91.3626 67.5332 92.1929 66.991 92.4697C66.991 92.7464 66.7199 93.0232 66.3133 93.0232C65.9067 93.0232 65.6356 92.7464 65.6356 92.4697C65.0934 92.1929 64.5512 91.501 64.1446 90.394L64.4157 90.2556C64.8223 91.2242 65.2289 91.7778 65.6356 92.1929C65.7711 91.9161 66.0422 91.6394 66.3133 91.6394C66.5844 91.6394 66.8555 91.7778 66.991 92.0545C67.3976 91.7778 67.8042 91.2242 68.2109 90.2556C68.3464 90.2556 68.3464 90.2556 68.482 90.394ZM65.7711 90.2556C65.7711 89.9788 65.9067 89.4253 65.9067 89.2869C66.0422 89.1485 66.1777 89.1485 66.3133 89.1485C66.4488 89.1485 66.7199 89.1485 66.8555 89.2869C66.991 89.5637 66.991 90.1172 66.991 90.2556C66.991 90.5323 66.4488 90.6707 66.3133 90.6707C66.1777 90.6707 65.7711 90.5323 65.7711 90.2556ZM72.6838 88.0415L72.5482 88.1799C72.5482 88.1799 72.4127 88.1799 72.2771 88.1799C72.1416 88.1799 72.0061 88.1799 72.0061 88.1799C72.0061 88.1799 72.0061 88.1799 71.8705 88.1799C71.735 88.1799 71.3283 88.3182 71.1928 88.3182C71.1928 88.3182 71.735 88.3182 72.0061 88.595C72.1416 88.7334 72.4127 88.7334 72.5482 88.7334C72.5482 88.7334 72.0061 89.1485 71.0573 89.0101H70.7862C70.3795 88.8718 69.8374 88.8718 69.4308 88.8718H69.5663C69.7018 88.8718 69.8374 89.0101 69.9729 89.0101C69.9729 89.0101 69.9729 89.0101 70.1085 89.0101H70.244C70.244 89.0101 70.3795 89.0101 70.3795 89.1485C70.5151 89.1485 70.5151 89.2869 70.5151 89.2869V89.4253C70.5151 89.5637 70.5151 89.5637 70.5151 89.702C70.3795 89.8404 70.1085 89.8404 69.9729 89.702C69.9729 89.702 69.8374 89.5637 69.8374 89.4253C69.8374 89.4253 69.8374 89.4253 69.8374 89.2869C69.5663 89.1485 69.5663 89.1485 69.4308 89.1485C69.2952 89.0101 69.0241 89.0101 68.8886 89.0101H68.753C68.8886 89.1485 69.0241 89.2869 69.1597 89.4253C69.2952 89.5637 69.2952 89.702 69.2952 89.8404C69.4308 90.2556 69.5663 90.2556 69.7018 90.394C69.5663 90.394 68.753 90.394 68.3464 89.8404C68.3464 89.8404 68.3464 89.8404 68.3464 89.702C68.2109 89.4253 68.0753 89.2869 68.0753 89.1485C68.0753 89.0101 68.0753 88.8718 68.0753 88.7334C67.9398 88.7334 67.9398 88.7334 67.9398 88.7334C67.9398 88.7334 67.9398 88.7334 67.9398 88.8718C67.9398 88.8718 67.9398 88.8718 67.8042 88.8718H67.6687C67.6687 88.8718 67.5332 88.8718 67.5332 88.7334C67.5332 88.7334 67.5332 88.7334 67.5332 88.595C67.5332 88.595 67.5332 88.595 67.3976 88.595H67.2621V88.4566C67.2621 88.4566 67.1265 88.4566 67.1265 88.595H66.991C66.991 88.595 66.991 88.595 66.991 88.4566C66.8555 88.4566 66.8555 88.4566 66.7199 88.4566C66.7199 88.4566 66.5844 88.4566 66.4488 88.595H66.3133C66.3133 88.595 66.3133 88.595 66.3133 88.7334V88.8718H66.1777V89.0101H66.0422C66.0422 89.0101 66.0422 89.0101 66.0422 89.1485C66.0422 89.1485 66.0422 89.2869 65.9067 89.2869H65.7711C65.7711 89.2869 65.7711 89.2869 65.6356 89.2869C65.6356 89.2869 65.6356 89.2869 65.6356 89.1485C64.6868 88.7334 64.5512 89.1485 64.5512 89.1485C64.0091 90.2556 62.7892 90.394 62.7892 90.394C62.7892 90.394 63.0603 90.2556 63.1958 89.8404C63.1958 89.5637 63.1958 89.5637 63.3314 89.4253C63.3314 89.4253 63.3314 89.4253 63.3314 89.2869C63.4669 89.1485 63.4669 89.1485 63.6024 89.0101H63.4669C63.3314 89.0101 63.0603 89.1485 62.9247 89.1485C62.7892 89.1485 62.7892 89.2869 62.6536 89.2869C62.6536 89.2869 62.6536 89.2869 62.6536 89.4253C62.6536 89.4253 62.6536 89.5637 62.5181 89.5637C62.3826 89.8404 62.1115 89.8404 61.9759 89.5637C61.9759 89.5637 61.9759 89.5637 61.9759 89.4253C61.9759 89.2869 61.9759 89.2869 61.9759 89.1485C61.9759 89.1485 61.9759 89.0101 62.1115 89.0101L62.247 88.8718C62.247 88.8718 62.3826 88.8718 62.3826 88.7334H62.5181C62.5181 88.7334 62.5181 88.7334 62.6536 88.7334C62.6536 88.7334 62.7892 88.7334 62.7892 88.595C62.7892 88.595 62.9247 88.595 62.9247 88.4566C62.9247 88.4566 62.9247 88.4566 63.0603 88.4566C62.6536 88.4566 62.1115 88.4566 61.7049 88.595C61.5693 88.595 61.5693 88.595 61.4338 88.595C60.8916 89.1485 59.8073 88.8718 59.8073 88.7334C59.8073 88.7334 60.0783 88.7334 60.3494 88.4566C60.6205 88.4566 60.7561 88.3182 60.8916 88.3182C61.0271 88.3182 61.2982 88.3182 61.4338 88.3182C61.2982 88.3182 60.8916 88.1799 60.6205 88.1799C60.6205 88.1799 60.6205 88.1799 60.485 88.1799C60.3494 88.1799 60.2139 88.1799 60.0783 88.1799C59.9428 88.1799 59.9428 88.1799 59.8073 88.1799C59.6717 88.1799 59.6717 88.1799 59.6717 88.0415C59.6717 88.0415 59.5362 87.9031 59.6717 87.7647C59.6717 87.4879 59.9428 87.4879 60.2139 87.4879C60.3494 87.4879 60.485 87.6263 60.485 87.6263C60.6205 87.6263 60.8916 87.7647 61.0271 87.7647C61.2982 87.9031 61.4338 87.9031 61.5693 87.9031C61.5693 87.9031 61.4338 87.9031 61.4338 87.7647C61.4338 87.7647 61.2982 87.7647 61.2982 87.6263C61.2982 87.6263 61.1627 87.6263 61.1627 87.4879C61.0271 87.7647 60.6205 87.6263 60.485 87.3496C60.3494 87.0728 60.2139 86.9344 60.2139 86.796C60.0783 86.2425 59.9428 86.1041 59.9428 85.9658C59.9428 85.9658 60.7561 86.2425 61.0271 86.6577C61.1627 86.9344 61.2982 87.0728 61.2982 87.2112C61.2982 87.3496 61.5693 87.4879 61.7049 87.7647H61.8404C61.8404 87.6263 61.7049 87.6263 61.7049 87.4879C61.7049 87.4879 61.7049 87.4879 61.5693 87.4879C61.5693 87.4879 61.5693 87.4879 61.4338 87.3496C61.4338 87.3496 61.4338 87.2112 61.2982 87.2112C61.2982 87.0728 61.1627 86.9344 61.2982 86.796C61.2982 86.796 61.4338 86.6577 61.5693 86.6577C61.8404 86.6577 61.9759 86.796 61.9759 87.0728V87.2112V87.3496C62.1115 87.7647 62.3826 88.0415 62.6536 88.1799C62.3826 87.9031 62.1115 87.0728 62.247 87.0728C62.247 87.0728 62.6536 87.2112 62.9247 87.3496C63.0603 87.4879 63.3314 87.6263 63.4669 87.6263C63.6024 87.6263 63.6024 87.7647 63.738 87.9031C63.8735 88.0415 63.8735 88.0415 64.0091 88.1799L64.1446 88.3182C64.1446 88.3182 64.2802 88.3182 64.2802 88.4566C64.4157 88.4566 64.5512 88.4566 64.5512 88.4566H64.6868L64.8223 88.3182C64.8223 88.1799 64.9579 88.1799 64.9579 88.0415C64.9579 88.0415 64.9579 88.0415 65.0934 88.0415C65.0934 88.0415 65.0934 87.9031 65.2289 87.9031C65.3645 87.9031 65.5 87.9031 65.6356 87.9031L65.7711 88.0415C65.7711 88.0415 65.7711 88.0415 65.7711 88.1799V88.3182C65.9067 88.3182 65.9067 88.3182 66.0422 88.3182H66.1777H66.3133H66.4488H66.5844C66.5844 88.3182 66.5844 88.3182 66.7199 88.3182V88.1799V88.0415C66.7199 88.0415 66.7199 88.0415 66.7199 87.9031C66.8555 87.9031 66.991 87.7647 66.991 87.9031C66.991 87.9031 67.1265 87.9031 67.1265 88.0415H67.2621C67.3976 88.0415 67.3976 88.1799 67.3976 88.3182C67.3976 88.3182 67.3976 88.3182 67.5332 88.3182C67.5332 88.3182 67.8042 88.3182 67.9398 88.3182H68.2109C68.2109 88.3182 68.2109 88.3182 68.3464 88.1799C68.3464 88.0415 68.482 88.0415 68.6175 87.9031C68.753 87.7647 68.753 87.7647 68.8886 87.6263C69.0241 87.4879 69.2952 87.4879 69.4308 87.3496C70.1085 87.2112 70.244 86.796 70.244 86.9344C70.244 86.9344 70.1085 87.9031 69.7018 88.1799C70.1085 87.9031 70.3795 87.6263 70.3795 87.3496V87.2112V87.0728C70.5151 86.796 70.6506 86.6577 70.7862 86.6577C70.9217 86.6577 70.9217 86.796 71.0573 86.796C71.0573 86.9344 71.0573 87.0728 71.0573 87.2112C71.0573 87.2112 71.0573 87.3496 70.9217 87.3496C70.9217 87.3496 70.9217 87.4879 70.7862 87.4879C70.7862 87.4879 70.7862 87.4879 70.6506 87.4879C70.6506 87.6263 70.5151 87.6263 70.5151 87.7647C70.5151 87.7647 70.6506 87.7647 70.6506 87.6263C71.0573 87.4879 71.1928 87.3496 71.1928 87.2112C71.1928 87.0728 71.3283 86.9344 71.4639 86.6577C71.735 86.3809 71.735 86.2425 72.1416 86.1041C72.2771 86.1041 72.5482 85.9658 72.5482 85.9658C72.5482 85.9658 72.2771 86.1041 72.1416 86.6577C72.1416 86.796 72.0061 87.0728 71.8705 87.3496C71.735 87.6263 71.4639 87.7647 71.1928 87.9031C71.1928 87.9031 71.0573 87.9031 71.0573 88.0415C70.9217 88.0415 70.9217 88.1799 70.7862 88.1799C70.9217 88.1799 71.0573 88.0415 71.3283 88.0415C71.4639 87.9031 71.5994 87.7647 71.8705 87.7647C71.8705 87.6263 72.0061 87.6263 72.1416 87.6263C72.4127 87.4879 72.5482 87.6263 72.6838 87.9031V88.0415Z" fill="#253C7A"/>
<path d="M82.1719 76.9708C82.9851 76.5557 84.3405 75.587 84.8827 75.0335C84.0694 74.7567 82.5785 74.48 81.6297 74.48C83.3917 73.2345 83.5273 70.6053 82.9851 68.668C82.5785 70.1902 81.4941 71.4356 80.8164 72.2659C80.8164 72.9578 80.6809 74.3416 80.2743 75.1719C80.8164 75.3103 81.4941 75.7254 82.0363 76.1406C81.6297 76.5557 80.952 77.1092 80.5453 77.5244C80.952 77.9395 81.4941 78.6314 81.7652 79.0466C81.3586 79.3233 80.4098 79.7385 80.0032 79.8768C80.2743 80.292 80.5453 81.2607 80.6809 81.8142C80.1387 81.9526 79.461 81.9526 78.6478 81.9526C78.6478 82.5061 78.6478 83.4748 78.5122 83.8899C77.8345 83.8899 77.0212 83.4748 76.6146 83.3364C76.4791 84.305 75.9369 84.997 75.9369 84.997C75.2592 84.305 74.5815 83.8899 74.0393 83.8899V83.4748C74.5815 83.4748 75.2592 83.7515 75.8014 84.1667C75.9369 83.8899 76.208 83.0596 76.208 82.6445C76.6146 82.9212 77.2923 83.198 77.97 83.198C77.97 82.6445 78.1056 81.9526 77.97 81.399C78.5122 81.399 79.1899 81.399 79.8676 81.2607C79.7321 80.7071 79.3255 79.8768 79.0544 79.4617C79.7321 79.4617 80.5453 79.0466 80.952 78.9082C80.6809 78.493 80.0032 77.8011 79.7321 77.5244C80.1387 77.2476 80.8164 76.5557 81.2231 76.2789C80.6809 75.8638 80.0032 75.587 79.461 75.3103C80.1387 74.2032 80.4098 72.1275 80.2743 71.1588C79.461 73.3729 77.5634 75.0335 76.3435 75.8638L76.208 76.0022C76.208 76.0022 75.9369 76.2789 76.0725 76.6941C76.0725 76.8325 76.0725 76.8325 76.208 76.9708C76.3435 77.386 76.3435 78.0779 75.6658 78.6314C75.1237 79.1849 74.4459 79.1849 74.0393 79.1849V77.9395C74.0393 77.8011 73.9038 77.6627 73.7682 77.6627H72.955L72.5484 77.2476C72.5484 77.2476 72.955 77.2476 73.3616 77.2476C73.7682 77.2476 74.3104 76.9708 74.3104 76.9708C74.3104 76.9708 73.7682 76.9708 73.6327 76.9708C73.3616 76.9708 72.8194 76.6941 72.2773 76.1406C72.1417 75.8638 72.0062 75.587 71.8706 75.4486C71.3285 75.0335 70.9218 74.48 70.6508 73.7881C70.3797 73.3729 70.2441 72.5426 70.2441 72.1275C70.1086 72.2659 69.9731 72.5426 69.702 72.8194C69.2953 73.2345 69.1598 73.9265 69.1598 73.9265L69.0243 74.48L68.7532 74.0648C68.7532 74.0648 68.3465 73.3729 68.3465 72.5426C68.3465 72.1275 68.3465 71.8507 68.3465 71.574C68.211 71.7124 68.0755 71.7124 67.9399 71.8507C67.2622 72.4043 66.8556 72.8194 66.8556 72.8194C66.5845 73.3729 66.3134 73.6497 66.3134 73.9265C66.1779 73.6497 66.0423 73.3729 65.6357 72.8194C65.6357 72.8194 65.2291 72.2659 64.6869 71.8507C64.5514 71.7124 64.4158 71.7124 64.2803 71.574C64.2803 71.8507 64.2803 72.2659 64.2803 72.5426C64.2803 73.3729 63.8737 73.9265 63.8737 74.0648L63.6026 74.48L63.467 73.9265C63.467 73.9265 63.3315 73.2345 62.9249 72.681C62.6538 72.5426 62.5182 72.2659 62.3827 72.1275C62.3827 72.5426 62.2472 73.3729 61.9761 73.7881C61.705 74.48 61.1628 75.0335 60.7562 75.4486C60.6206 75.587 60.4851 75.8638 60.3496 76.1406C59.8074 76.6941 59.2652 76.9708 58.9941 76.9708C58.7231 76.9708 58.3164 76.9708 58.3164 76.9708C58.3164 76.9708 58.7231 77.2476 59.2652 77.2476C59.6719 77.2476 60.0785 77.2476 60.0785 77.2476L59.6719 77.6627H58.8586C58.7231 77.6627 58.5875 77.8011 58.5875 77.9395V79.1849C58.1809 79.1849 57.5032 79.1849 56.961 78.6314C56.4188 78.0779 56.4188 77.386 56.4188 76.9708C56.4188 76.8325 56.4188 76.8325 56.4188 76.6941C56.5544 76.2789 56.2833 76.0022 56.2833 76.0022L56.1478 75.8638C55.0634 75.0335 53.0303 73.3729 52.3526 71.1588C52.217 72.1275 52.3526 74.3416 53.1658 75.3103C52.6237 75.587 51.9459 75.8638 51.5393 76.2789C51.8104 76.5557 52.4881 77.1092 52.8947 77.5244C52.6237 77.8011 51.9459 78.493 51.6749 78.9082C52.0815 79.1849 52.7592 79.4617 53.4369 79.6001C53.1658 80.0152 52.7592 80.8455 52.6237 81.399C53.3014 81.5374 53.9791 81.5374 54.5212 81.5374C54.3857 82.0909 54.5212 82.7829 54.5212 83.3364C55.199 83.198 55.8767 83.0596 56.2833 82.7829C56.4188 83.0596 56.6899 83.8899 56.8255 84.1667C57.3676 83.7515 57.9098 83.4748 58.5875 83.4748V84.0283C58.0453 84.0283 57.3676 84.305 56.6899 85.1353C56.6899 85.1353 56.1478 84.305 56.0122 83.4748C55.6056 83.6131 54.7923 83.8899 54.1146 84.0283C53.9791 83.4748 53.9791 82.6445 53.9791 82.0909C53.1658 82.0909 52.4881 82.0909 51.9459 81.9526C52.0815 81.399 52.3526 80.4304 52.6237 80.0152C52.217 79.8768 51.2682 79.4617 50.8616 79.1849C51.1327 78.6314 51.6749 77.9395 52.0815 77.5244C51.6749 77.1092 50.9972 76.5557 50.5905 76.1406C51.1327 75.7254 51.8104 75.3103 52.3526 75.1719C51.9459 74.3416 51.8104 72.9578 51.8104 72.2659C51.1327 71.4356 50.0484 70.1902 49.6417 68.668C49.0996 70.6053 49.0996 73.2345 50.8616 74.48C50.0484 74.48 48.4219 74.6184 47.7441 74.8951C48.2863 75.587 49.6417 76.4173 50.455 76.8325C49.7773 77.2476 48.6929 77.8011 48.2863 78.2163C48.964 78.6314 50.3194 79.0466 50.8616 79.1849C50.455 79.4617 49.7773 80.4304 49.5062 80.8455C50.0484 80.9839 51.1327 81.1223 51.8104 81.2607C51.5393 81.8142 51.2682 82.6445 51.1327 83.198C51.5393 83.198 52.6237 83.198 53.1658 83.0596C53.1658 83.4748 53.1658 84.4434 53.1658 84.7202C53.708 84.5818 54.5212 84.4434 54.9279 84.305C55.0634 84.7202 55.47 85.6889 55.6056 85.8272C55.8767 85.8272 56.1478 85.6889 56.4188 85.5505C57.0965 85.2737 58.0453 85.5505 58.3164 86.3808C58.8586 87.6262 58.5875 89.1484 57.6387 88.8716C56.4188 89.01 57.2321 90.5322 56.5544 91.0857C57.5032 91.7776 57.7743 90.2554 58.8586 90.3938C58.7231 90.9473 58.7231 92.0544 58.8586 92.4695C59.2652 92.1928 59.8074 91.916 60.0785 91.916C59.9429 92.1928 59.9429 93.0231 60.0785 93.5766C60.3496 93.4382 61.8405 93.0231 61.8405 93.0231C61.8405 93.0231 61.2984 94.1301 61.705 95.3755C61.8405 95.5139 63.1959 94.822 63.1959 94.4069C63.1959 94.9604 62.6538 96.0674 61.705 96.2058C62.6538 97.1745 63.6026 97.1745 63.7381 97.1745C63.8737 97.1745 64.0092 97.1745 64.1447 97.0361C64.0092 97.3129 64.0092 97.728 64.1447 97.8664H64.2803C64.5514 97.8664 64.6869 97.8664 64.958 97.728C64.958 98.0048 65.0935 98.2815 65.3646 98.5583L65.5002 98.6967C65.7712 98.6967 66.3134 98.4199 66.3134 98.2816C66.449 98.4199 66.9911 98.6967 67.1267 98.6967L67.2622 98.5583C67.3978 98.2815 67.5333 98.0048 67.6688 97.728C67.8044 97.8664 68.0755 97.8664 68.3465 97.8664H68.4821C68.4821 97.5896 68.4821 97.3129 68.4821 97.0361C68.6176 97.0361 68.7532 97.1745 68.8887 97.1745C69.0243 97.1745 69.8375 97.1745 70.9218 96.2058C69.9731 96.0674 69.4309 94.822 69.4309 94.4069C69.4309 94.822 70.7863 95.5139 71.0574 95.3755C71.3285 94.1301 70.7863 92.8847 70.7863 92.8847C70.7863 92.8847 72.2773 93.2998 72.5484 93.4382C72.6839 92.8847 72.5484 92.1928 72.5484 91.7776C72.955 91.7776 73.3616 92.0544 73.7682 92.3312C73.9038 91.916 73.9038 90.809 73.7682 90.2554C74.8526 89.9787 75.2592 91.5009 76.0725 90.9473C75.3947 90.5322 76.208 89.01 74.9881 88.7332C73.9038 89.1484 73.7682 87.6262 74.3104 86.3808C74.5815 85.6889 75.5303 85.2737 76.208 85.5505C76.4791 85.6889 76.7502 85.6889 77.0212 85.8272C77.1568 85.5505 77.5634 84.7202 77.699 84.305C78.1056 84.4434 78.9188 84.7202 79.461 84.7202C79.5966 84.305 79.5966 83.4748 79.461 83.0596C80.0032 83.0596 81.0875 83.198 81.4941 83.198C81.4941 82.6445 81.2231 81.8142 80.952 81.399C81.6297 81.399 82.714 81.2607 83.2562 80.9839C82.9851 80.5688 82.1718 79.6001 81.9008 79.3233C82.5785 79.1849 83.9339 78.7698 84.4761 78.3547C83.9339 77.8011 82.714 77.2476 82.1719 76.9708ZM73.3616 89.4252C73.3616 89.5635 73.2261 89.5635 73.2261 89.7019C73.2261 89.7019 73.2261 89.7019 73.2261 89.8403L73.0905 89.9787C73.0905 89.9787 73.0905 90.1171 72.955 90.1171C72.8194 90.1171 72.8194 90.2554 72.6839 90.2554L72.5484 90.3938L72.4128 90.5322C72.4128 90.5322 72.2773 90.6706 72.1417 90.6706L72.0062 90.809C71.8706 91.0857 71.7351 91.2241 71.464 91.3625C71.1929 91.6393 70.9218 91.7776 70.6508 91.916C70.5152 91.916 70.3797 92.0544 70.3797 92.0544C67.9399 93.4382 66.72 94.4069 66.3134 94.6836C65.9068 94.4069 64.6869 93.4382 62.2472 92.1928C62.1116 92.1928 61.9761 92.0544 61.9761 92.0544C61.705 91.7776 61.4339 91.6393 61.1628 91.3625C60.8917 91.2241 60.7562 91.0857 60.4851 90.9473L60.3496 90.809C60.214 90.809 60.214 90.6706 60.0785 90.6706L59.9429 90.5322L59.8074 90.3938C59.8074 90.2554 59.8074 90.1171 59.6719 89.9787C59.6719 89.9787 59.6719 89.8403 59.5363 89.8403C59.5363 89.7019 59.4008 89.7019 59.4008 89.7019C59.4008 89.7019 59.4008 89.7019 59.4008 89.5635C59.4008 89.4252 59.2652 89.4252 59.2652 89.2868C58.8586 88.5949 58.9941 88.0413 58.9941 88.0413V78.3547C58.9941 78.2163 59.1297 78.0779 59.2652 78.0779H60.0785H66.3134H72.5484H73.3616C73.4972 78.0779 73.6327 78.2163 73.6327 78.3547V88.0413C73.6327 88.0413 73.6327 88.5949 73.3616 89.4252Z" fill="#253C7A"/>
<path d="M73.0905 62.8567C73.226 62.8567 73.4971 62.7183 73.4971 62.4415C73.4971 62.3031 73.3615 62.0264 73.0905 62.0264C72.9549 62.0264 72.6838 62.1647 72.6838 62.4415C72.6838 62.7183 72.8194 62.8567 73.0905 62.8567Z" fill="#253C7A"/>
<path d="M73.0905 64.9318C73.3615 64.9318 73.4971 63.9631 73.4971 63.548C73.4971 63.2712 73.3615 63.1328 73.0905 63.1328C72.8194 63.1328 72.6838 63.2712 72.6838 63.548C72.6838 63.9631 72.8194 64.9318 73.0905 64.9318Z" fill="#253C7A"/>
<path d="M72.8193 61.4724H73.2259V60.9189H73.7681V60.5037H73.2259V59.9502H72.8193V60.5037H72.2771V60.9189H72.8193V61.4724Z" fill="#253C7A"/>
<path d="M70.9217 66.0396C71.0573 66.0396 71.1928 66.0396 71.4639 66.178C71.4639 66.178 71.4639 66.178 71.5994 66.178H71.735H71.8705C71.8705 66.178 71.8705 66.178 72.0061 66.178H72.1416C72.5482 66.178 73.0904 66.0396 73.497 65.9012C73.9036 65.7628 74.4458 65.7628 74.8524 65.6245C74.8524 65.6245 74.8524 65.6245 74.988 65.6245C75.3946 65.2093 75.5302 64.6558 75.5302 64.2407C75.5302 63.5487 75.1235 62.8568 73.9036 62.5801C73.9036 63.4104 73.497 65.3477 73.0904 65.3477C72.6838 65.3477 72.2771 63.4104 72.2771 62.5801C70.9217 62.8568 70.6506 63.6871 70.6506 64.2407C70.6506 64.6558 70.7862 65.4861 70.9217 66.0396C70.9217 65.9012 70.9217 65.9012 70.9217 66.0396Z" fill="#253C7A"/>
<path d="M77.4278 62.5799C77.4278 62.5799 77.0212 61.6113 77.6989 61.4729C78.2411 61.1961 77.4278 61.3345 77.97 60.0891C78.5122 58.5669 79.5965 58.982 79.5965 58.982C78.7832 58.2901 78.2411 58.4285 77.8344 58.7053C77.4278 58.8437 77.1567 59.2588 76.8856 60.2275C76.479 61.3345 76.8856 62.4416 77.4278 62.5799Z" fill="#253C7A"/>
<path d="M80.2741 60.3652C80.2741 62.1641 83.3916 62.9944 83.3916 62.9944C83.3916 62.9944 81.6296 61.749 82.0362 60.7803C82.0362 60.7803 83.1205 61.3338 84.476 61.0571C81.6296 60.3652 82.4428 59.5349 81.7651 58.843C81.0874 58.0127 80.0031 58.0127 79.732 58.0127C79.0543 58.0127 78.9187 58.0127 78.1055 58.1511C80.0031 58.1511 80.2741 59.1197 80.2741 60.3652Z" fill="#253C7A"/>
<path d="M79.8678 63.8253C80.2744 62.3031 79.4612 61.7496 79.4612 61.7496C79.1901 61.4728 78.1057 61.4728 77.6991 61.7496C77.6991 61.7496 78.7834 61.7496 78.6479 63.4101C78.5124 64.9323 76.3437 65.3475 75.8015 65.3475V65.4859C76.7503 65.4859 79.4612 65.2091 79.8678 63.8253Z" fill="#253C7A"/>
<path d="M68.6173 63.6865H67.3975C67.9396 65.2087 69.4306 65.7622 70.5149 65.9006V65.7622C69.4306 65.3471 68.8884 64.932 68.6173 63.6865Z" fill="#253C7A"/>
<path d="M59.5362 62.8567C59.6718 62.8567 59.9428 62.7183 59.9428 62.4415C59.9428 62.3031 59.8073 62.0264 59.5362 62.0264C59.4007 62.1647 59.2651 62.3031 59.2651 62.4415C59.2651 62.7183 59.4007 62.8567 59.5362 62.8567Z" fill="#253C7A"/>
<path d="M59.5363 64.9318C59.8074 64.9318 59.9429 63.9631 59.9429 63.548C59.9429 63.2712 59.8074 63.1328 59.5363 63.1328C59.2652 63.1328 59.1296 63.2712 59.1296 63.548C59.1296 63.9631 59.2652 64.9318 59.5363 64.9318Z" fill="#253C7A"/>
<path d="M59.2653 61.4724H59.8074L59.6719 60.9189H60.3496V60.5037H59.6719L59.8074 59.9502H59.2653L59.4008 60.5037H58.8586V60.9189H59.4008L59.2653 61.4724Z" fill="#253C7A"/>
<path d="M57.3675 65.6245H57.5031C57.5031 65.6245 57.5031 65.6245 57.6386 65.6245C58.1808 65.6245 58.5874 65.7628 58.994 65.9012C59.4007 66.0396 59.8073 66.0396 60.3494 66.178H60.485C60.485 66.178 60.485 66.178 60.6205 66.178H60.7561H60.8916C60.8916 66.178 60.8916 66.178 61.0272 66.178C61.1627 66.178 61.4338 66.178 61.5693 66.0396C61.5693 66.0396 61.5693 66.0396 61.5693 65.9012C61.8404 65.4861 61.976 64.6558 61.976 64.2407C61.976 63.5487 61.5693 62.8568 60.3494 62.5801C60.3494 63.4104 59.9428 65.3477 59.5362 65.3477C59.1296 65.3477 58.7229 63.4104 58.7229 62.5801C57.3675 62.8568 57.0964 63.6871 57.0964 64.2407C57.0964 64.6558 57.232 65.2093 57.3675 65.6245Z" fill="#253C7A"/>
<path d="M53.1658 58.9816C53.1658 58.9816 54.2501 58.7048 54.7923 60.0887C55.1989 61.3341 54.3857 61.1957 55.0634 61.4725C55.47 61.6108 55.1989 62.4411 55.1989 62.4411C55.7411 62.3028 56.1477 61.3341 55.8766 60.0887C55.6055 59.2584 55.1989 58.7048 54.9278 58.5665C54.3857 58.2897 53.8435 58.2897 53.1658 58.9816Z" fill="#253C7A"/>
<path d="M50.7261 60.7804C51.1328 61.7491 49.3707 62.9945 49.3707 62.9945C49.3707 62.9945 52.3526 62.3026 52.4882 60.3653C52.4882 59.1198 52.7593 58.1512 54.5213 58.1512C53.5725 57.8744 53.5725 57.8744 52.8948 58.0128C52.6237 58.0128 51.5394 58.1512 50.8617 58.8431C50.0484 59.535 50.9972 60.3653 48.2864 61.0572C49.5063 61.1955 50.7261 60.7804 50.7261 60.7804Z" fill="#253C7A"/>
<path d="M53.979 63.4101C53.8434 61.7496 54.7922 61.7496 54.7922 61.7496C54.3856 61.4728 53.3012 61.4728 53.0302 61.7496C53.0302 61.7496 52.3525 62.4415 52.7591 63.8253C53.1657 65.3475 55.8765 65.6242 56.9609 65.6242V65.4859C56.2832 65.3475 54.1145 64.9323 53.979 63.4101Z" fill="#253C7A"/>
<path d="M65.0935 63.6865H64.0092C63.7381 64.932 63.0604 65.3471 62.1116 65.7622V65.9006C63.0604 65.7622 64.5513 65.2087 65.0935 63.6865Z" fill="#253C7A"/>
<path d="M67.6687 70.4675C67.3976 71.0211 67.1266 71.5746 66.8555 72.1281C67.1266 71.8513 67.3976 71.713 67.6687 71.4362C68.2109 71.0211 68.6175 70.8827 68.6175 70.8827L69.0241 70.7443L68.8886 71.1594C68.8886 71.1594 68.7531 71.8513 68.7531 72.5432C68.7531 72.82 68.8886 73.0968 68.8886 73.2352C69.0241 72.9584 69.1597 72.6816 69.2952 72.4049C69.8374 71.713 70.244 71.4362 70.244 71.4362L70.5151 71.2978V71.713C70.5151 71.713 70.6506 72.9584 70.9217 73.6503C71.4639 74.7573 72.2772 75.3109 72.8193 75.726C72.9549 75.5876 72.8193 75.4493 72.6838 75.3109C72.4127 75.0341 72.1416 74.619 72.0061 73.5119C71.8705 72.6816 72.2772 71.713 72.4127 71.4362C72.4127 71.713 72.5482 71.8513 72.6838 71.9897C72.6838 71.9897 72.6838 71.8513 72.6838 71.5746C72.8193 70.8827 73.497 70.0524 74.3103 69.3605C74.4458 69.2221 74.5814 69.2221 74.7169 69.0837C74.8525 68.9453 74.988 68.9453 75.1235 68.807C74.988 68.807 74.7169 68.807 74.5814 68.9453C74.4458 68.9453 74.3103 68.9453 74.0392 68.9453C73.6326 68.9453 73.0904 68.9453 72.6838 68.5302C72.4127 68.2534 72.2772 67.8383 72.1416 67.6999C72.0061 67.6999 71.735 67.6999 71.4639 67.6999C71.1928 67.6999 70.9217 67.5615 70.6506 67.5615C70.3796 67.8383 69.8374 67.8383 69.2952 67.9767C69.2952 67.9767 69.1597 67.9767 69.0241 67.9767C69.1597 68.115 69.4308 68.2534 69.5663 68.3918H69.4308C69.5663 68.3918 68.8886 68.807 67.6687 70.4675Z" fill="#253C7A"/>
<path d="M74.7167 67.4229C74.5812 67.4229 74.3101 67.4229 74.1746 67.4229C74.1746 67.5612 74.1746 67.6996 74.1746 67.838C74.1746 67.9764 74.3101 68.1148 74.4456 68.2531C74.5812 67.9764 74.7167 67.838 74.7167 67.4229Z" fill="#253C7A"/>
<path d="M75.2592 66.1772C75.1237 66.1772 75.1237 66.1772 75.2592 66.1772C75.1237 66.1772 75.1237 66.1772 75.2592 66.1772H75.1237H74.9881C74.5815 66.1772 74.1749 66.3155 73.7683 66.4539C73.0905 66.4539 72.6839 66.5923 72.2773 66.5923C72.1418 66.5923 72.1418 66.5923 72.0062 66.5923H71.8707C71.8707 66.5923 71.8707 66.5923 71.7351 66.5923H71.5996C70.5152 66.4539 69.702 66.1772 69.4309 65.9004C69.5665 66.0388 69.5665 66.1772 69.702 66.3155L69.8375 66.4539C70.1086 66.5923 70.2442 66.7307 70.3797 66.7307C70.6508 66.8691 71.464 67.2842 72.6839 67.1458C74.0393 67.0074 74.3104 67.0074 74.5815 67.0074H74.7171C75.1237 67.0074 75.9369 67.4226 76.208 67.561C76.3436 67.2842 76.4791 67.0074 76.4791 66.7307C76.4791 66.5923 76.3436 66.4539 76.208 66.3155C76.208 66.3155 76.0725 66.3155 76.0725 66.1772C75.9369 66.1772 75.8014 66.0388 75.5303 66.0388C75.3948 66.1772 75.2592 66.1772 75.2592 66.1772Z" fill="#253C7A"/>
<path d="M79.0542 70.7439C79.0542 70.6055 78.9187 70.6055 79.0542 70.7439C79.0542 70.7439 78.5121 71.0206 77.5633 70.3287C76.4789 69.6368 75.6657 69.3601 75.2591 69.2217C75.1235 69.2217 75.1235 69.3601 74.988 69.3601C74.8524 69.4984 74.7169 69.6368 74.5813 69.7752L74.4458 69.9136C74.4458 69.9136 74.4458 69.9136 74.5813 69.9136C75.3946 69.9136 76.2078 70.6055 76.2078 70.7439C76.3434 70.4671 76.2078 70.1903 76.2078 70.1903C76.2078 70.1903 76.6145 70.4671 77.5633 71.0206C78.5121 71.4358 78.7831 70.8823 79.0542 70.7439Z" fill="#253C7A"/>
<path d="M73.7683 67.9764C73.7683 67.838 73.7683 67.838 73.6327 67.6996C73.6327 67.5612 73.6327 67.5612 73.4972 67.4229C73.2261 67.4229 72.955 67.4229 72.6839 67.5612C72.5484 67.5612 72.5484 67.5612 72.4128 67.5612C72.5484 67.838 72.8195 68.2531 73.3616 68.3915H73.4972H73.6327C73.9038 68.3915 74.0393 68.3915 74.3104 68.3915C74.7171 68.3915 75.1237 68.3915 75.5303 68.2531C75.6658 68.1148 75.6658 67.9764 75.8014 67.838C75.8014 67.838 75.8014 67.838 75.6658 67.838C75.8014 67.838 75.3948 67.6996 75.3948 67.5612C75.3948 67.6996 75.2592 67.838 75.1237 67.9764C74.8526 68.1148 74.7171 68.2531 74.446 68.2531C74.3104 68.2531 74.0393 68.1148 73.7683 67.9764C73.9038 67.9764 73.9038 67.9764 73.7683 67.9764Z" fill="#253C7A"/>
<path d="M76.7499 67.1465C76.4788 67.9768 75.9367 68.6687 75.53 69.0838C77.9698 68.3919 78.3764 69.6373 78.3764 69.7757C78.3764 69.7757 79.1897 68.8071 78.6475 67.9768C78.2409 67.2849 77.021 67.1465 76.7499 67.1465ZM76.7499 67.8384C76.7499 67.7 76.8855 67.4232 76.8855 67.4232C77.021 67.4232 77.4276 67.4232 77.4276 67.7C77.1565 67.7 76.8855 67.7 76.7499 67.8384Z" fill="#253C7A"/>
<path d="M58.4518 67.838C58.4518 67.6996 58.4518 67.5612 58.4518 67.4229C58.1808 67.4229 58.0452 67.4229 57.9097 67.4229C57.9097 67.838 58.0452 67.9764 58.1808 68.1148C58.3163 68.1148 58.3163 67.9764 58.4518 67.838Z" fill="#253C7A"/>
<path d="M61.1628 66.5923C61.0272 66.5923 61.0272 66.5923 61.1628 66.5923C61.0272 66.5923 61.0272 66.5923 61.0272 66.5923H60.8917C60.8917 66.5923 60.8917 66.5923 60.7561 66.5923H60.6206C60.4851 66.5923 60.4851 66.5923 60.3495 66.5923C59.9429 66.5923 59.4007 66.4539 58.9941 66.3155C58.5875 66.3155 58.1808 66.1772 57.7742 66.1772H57.6387C57.5031 66.1772 57.5031 66.1772 57.3676 66.1772C57.232 66.1772 56.961 66.1772 56.8254 66.3155C56.5543 66.3155 56.5543 66.3155 56.4188 66.3155C56.2832 66.4539 56.1477 66.5923 56.1477 66.5923C56.2832 66.8691 56.2832 67.1458 56.4188 67.4226C56.6899 67.2842 57.3676 67.0074 57.9098 67.0074H58.0453C58.3164 67.0074 58.5875 67.0074 59.9429 67.1458C61.1628 67.2842 61.976 66.8691 62.2471 66.7307C62.3826 66.7307 62.5182 66.5923 62.6537 66.4539L62.7893 66.3155C62.9248 66.1772 63.0604 66.0388 63.0604 65.9004C62.7893 66.1772 62.1116 66.4539 61.1628 66.5923Z" fill="#253C7A"/>
<path d="M53.5723 70.7442C53.7078 70.8825 54.1144 71.5745 54.9277 71.0209C55.7409 70.4674 56.2831 70.1906 56.2831 70.1906C56.2831 70.1906 56.1476 70.4674 56.2831 70.7442C56.4187 70.6058 57.2319 69.9139 58.1807 69.9139H58.3162L58.1807 69.7755C57.9096 69.6371 57.7741 69.4987 57.6385 69.4987C57.503 69.4987 57.503 69.3604 57.3674 69.3604C56.9608 69.3604 56.1476 69.6371 55.1988 70.329C54.1144 71.0209 53.7078 70.7442 53.5723 70.7442C53.5723 70.6058 53.5723 70.6058 53.5723 70.7442Z" fill="#253C7A"/>
<path d="M57.2319 67.5612C57.0964 67.6996 56.8253 67.838 56.6897 67.838H56.5542C56.6897 67.9764 56.6897 68.1148 56.8253 68.2531C57.2319 68.3915 57.6385 68.3915 58.0452 68.3915C58.3162 68.3915 58.4518 68.3915 58.7229 68.3915H58.8584H58.994C59.5361 68.2531 59.8072 67.9764 59.9428 67.5612C59.8072 67.5612 59.8072 67.5612 59.6717 67.5612C59.265 67.5612 58.994 67.4229 58.8584 67.4229C58.8584 67.5612 58.8584 67.5612 58.7229 67.6996C58.8584 67.838 58.8584 67.838 58.7229 67.9764C58.7229 67.9764 58.7229 67.9764 58.5873 67.9764C58.5873 68.1148 58.3162 68.2531 58.1807 68.2531C57.9096 68.2531 57.7741 68.2531 57.6385 68.1148C57.3675 67.9764 57.3675 67.6996 57.2319 67.5612Z" fill="#253C7A"/>
<path d="M53.8434 67.9768C53.3012 68.8071 54.1144 69.6373 54.1144 69.7757C54.1144 69.7757 54.5211 68.5303 56.9608 69.0838C56.6897 68.6687 56.1476 67.9768 55.8765 67.1465C55.4699 67.1465 54.3855 67.2849 53.8434 67.9768ZM55.8765 67.8384C55.7409 67.7 55.4699 67.7 55.1988 67.8384C55.1988 67.5616 55.4699 67.5616 55.7409 67.5616C55.7409 67.4232 55.7409 67.7 55.8765 67.8384Z" fill="#253C7A"/>
<path d="M63.4668 67.9767C63.3313 67.9767 63.3313 67.9767 63.1957 67.9767C62.7891 67.8383 62.2469 67.8383 61.8403 67.5615C61.7048 67.5615 61.4337 67.6999 61.0271 67.6999C60.756 67.6999 60.4849 67.6999 60.3494 67.6999C60.3494 67.8383 60.2138 68.2534 59.8072 68.5302C59.4006 68.807 58.8584 68.9453 58.4518 68.9453C58.3162 68.9453 58.0451 68.9453 57.9096 68.9453C57.7741 68.9453 57.503 68.9453 57.3674 68.807C57.503 68.9453 57.6385 68.9453 57.7741 69.0837C57.9096 69.2221 58.1807 69.2221 58.3162 69.3605C59.1295 69.914 59.8072 70.8827 59.9427 71.4362C59.9427 71.713 59.9427 71.8513 59.9427 71.8513C60.0783 71.713 60.2138 71.5746 60.2138 71.2978C60.3494 71.713 60.6204 72.6816 60.6204 73.5119C60.4849 74.619 60.0783 75.0341 59.8072 75.3109C59.8072 75.4493 59.6716 75.5876 59.5361 75.5876C60.2138 75.3109 61.0271 74.7573 61.5692 73.6503C61.8403 72.9584 61.9759 71.713 61.9759 71.713V71.2978L62.2469 71.4362C62.2469 71.4362 62.7891 71.713 63.1957 72.4049C63.3313 72.6816 63.4668 72.9584 63.6024 73.2352C63.7379 73.0968 63.7379 72.82 63.7379 72.5432C63.7379 71.8513 63.6024 71.1594 63.6024 71.1594V70.7443L64.009 70.8827C64.009 70.8827 64.4156 71.0211 64.9578 71.4362C65.2289 71.713 65.5 71.8513 65.6355 72.1281C65.5 71.5746 65.2289 71.0211 64.9578 70.4675C63.7379 68.807 63.0602 68.3918 63.0602 68.3918H62.9247C63.1957 68.115 63.3313 68.115 63.4668 67.9767Z" fill="#253C7A"/>
</g>
<defs>
<clipPath id="clip0">
<rect width="135" height="53" fill="white" transform="translate(43 54)"/>
</clipPath>
</defs>
</svg>
