<svg width="221" height="161" viewBox="0 0 221 161" fill="none" xmlns="http://www.w3.org/2000/svg">
<path d="M126.698 61.4999C126.698 70.418 119.443 77.6316 110.508 77.6316C101.557 77.6316 94.3176 70.4028 94.3176 61.4999C94.3176 52.5818 101.573 45.3682 110.508 45.3682C119.443 45.3682 126.698 52.597 126.698 61.4999Z" fill="white"/>
<path d="M97.9988 65.4721V57.7715H100.58L102.245 60.313L103.833 57.7715H106.369V65.4721H103.833V61.1348L102.566 63.1589H101.771L100.58 61.3935V65.4721H97.9988Z" fill="#0B0C15"/>
<path d="M110.355 65.4721L112.554 61.9262V65.4721H115.136V57.7715H112.554L110.355 61.4087V57.7715H107.774V65.4721H110.355Z" fill="#0B0C15"/>
<path d="M119.779 62.0171C120.344 62.0171 121.001 61.804 121.001 60.6626C121.001 59.7799 120.42 59.5669 119.779 59.5669H119.122V62.0171H119.779ZM116.541 65.4717V57.7559H120.222C121.932 57.7559 123.597 58.5929 123.597 60.6474C123.597 62.8845 121.841 63.7976 120.222 63.7976H119.122V65.4717H116.541Z" fill="#0B0C15"/>
<path d="M124.819 55.5648L135.892 50.9687C133.204 44.4704 128.026 38.9917 121.016 36.085L116.434 47.1641C120.222 48.7468 123.246 51.7753 124.819 55.5648Z" fill="#B1D138"/>
<path d="M96.1812 67.4346L85.1079 72.0154C87.7961 78.5137 92.9738 83.9924 99.9843 86.8992L104.582 75.82C100.779 74.2525 97.7544 71.224 96.1812 67.4346Z" fill="#1782C5"/>
<path d="M95.0051 61.5C95.0051 59.3999 95.4174 57.391 96.1811 55.5648L85.1078 50.9688C82.4197 57.4671 82.2058 65.0003 85.1078 72.0161L96.1811 67.4353C95.4174 65.609 95.0051 63.6002 95.0051 61.5Z" fill="#2192D0"/>
<path d="M110.508 76.9921C108.4 76.9921 106.399 76.566 104.582 75.8203L99.9995 86.8994C107.01 89.8062 114.54 89.5931 121.046 86.8994L116.464 75.8203C114.601 76.5812 112.6 76.9921 110.508 76.9921Z" fill="#2192D0"/>
<path d="M104.566 47.1787L99.9843 36.0996C92.9738 39.0064 87.7961 44.4698 85.1079 50.9834L96.1812 55.5794C97.7544 51.7748 100.779 48.7463 104.566 47.1787Z" fill="#00AA6D"/>
<path d="M124.819 67.4346C123.246 71.224 120.222 74.2525 116.434 75.82L121.016 86.8992C128.026 83.9924 133.204 78.5137 135.892 72.0154L124.819 67.4346Z" fill="#00AA6D"/>
<path d="M135.908 50.9834L124.834 55.5794C125.583 57.4056 126.01 59.4145 126.01 61.5147C126.01 63.6148 125.583 65.6237 124.834 67.4499L135.908 72.0307C138.596 65.5172 138.81 57.9992 135.908 50.9834Z" fill="#8CC542"/>
<path d="M110.508 46.0073C112.615 46.0073 114.616 46.4334 116.434 47.1791L121.016 36.0999C114.005 33.1932 106.476 33.4063 99.969 36.0999L104.551 47.1791C106.399 46.4182 108.4 46.0073 110.508 46.0073Z" fill="#8CC542"/>
</svg>
