<svg width="221" height="161" viewBox="0 0 221 161" fill="none" xmlns="http://www.w3.org/2000/svg">
<g clip-path="url(#clip0_892_333)">
<path d="M126.704 80.4847C126.709 83.6788 125.764 86.8029 123.987 89.4616C122.21 92.1202 119.681 94.194 116.721 95.4204C113.76 96.6468 110.501 96.9707 107.356 96.3511C104.211 95.7315 101.321 94.1963 99.0515 91.9398C96.7824 89.6832 95.2361 86.8068 94.6085 83.6745C93.9808 80.5421 94.3 77.2947 95.5256 74.3431C96.7512 71.3915 98.8281 68.8685 101.494 67.0933C104.159 65.3182 107.293 64.3706 110.499 64.3706C114.792 64.3706 118.909 66.0674 121.947 69.0885C124.985 72.1097 126.696 76.2083 126.704 80.4847Z" fill="white"/>
<path d="M97.9912 84.4912V76.7729H100.593L102.249 79.3064L103.816 76.7729H106.359V84.4912H103.816V80.1313L102.575 82.164H101.776L100.593 80.3964V84.4912H97.9912Z" fill="#0A0B14"/>
<path d="M110.352 84.4912L112.54 80.9267V84.4912H115.142V76.7729H112.54L110.352 80.3964V76.7729H107.779V84.4912H110.352Z" fill="#0A0B14"/>
<path d="M119.785 81.015C120.347 81.015 121.027 80.8088 121.027 79.6599C121.027 78.511 120.435 78.57 119.785 78.57H119.134V81.015H119.785ZM116.532 84.4618V76.7729H120.228C121.914 76.7729 123.599 77.5978 123.599 79.7189C123.609 80.1533 123.527 80.5849 123.359 80.9857C123.19 81.3864 122.938 81.7472 122.62 82.0446C122.302 82.342 121.925 82.5693 121.513 82.7117C121.101 82.854 120.663 82.9083 120.228 82.871H119.134V84.5207L116.532 84.4618Z" fill="#0A0B14"/>
<path d="M124.841 74.5639L135.9 69.9683C133.106 63.3142 127.795 58.0231 121.115 55.2388L116.443 66.1681C120.238 67.7635 123.253 70.778 124.841 74.5639Z" fill="#B0D037"/>
<path d="M96.1883 86.4355L85.0996 91.0017C87.8503 97.7261 93.1681 103.088 99.8846 105.908L104.586 94.8019C102.703 94.0261 100.992 92.8878 99.5507 91.4521C98.1097 90.0165 96.9671 88.3118 96.1883 86.4355Z" fill="#1480C4"/>
<path d="M95.005 80.4851C95.0042 78.4626 95.4062 76.46 96.1878 74.5933L85.0991 69.9683C82.3029 76.7028 82.3029 84.2674 85.0991 91.002L96.1878 86.4359C95.407 84.569 95.005 82.5665 95.005 80.5441" fill="#1F91CE"/>
<path d="M110.5 95.9806C108.469 95.9814 106.459 95.5809 104.586 94.8022L99.9727 106.026C103.31 107.405 106.887 108.115 110.5 108.115C114.112 108.115 117.689 107.405 121.026 106.026L116.443 94.9201C114.569 95.6987 112.559 96.0992 110.529 96.0984" fill="#1F91CE"/>
<path d="M104.556 66.1679L99.9724 55.0913C93.2654 57.9103 87.9502 63.2585 85.1875 69.9681L96.1875 74.5637C97.7551 70.7744 100.763 67.7563 104.556 66.1679Z" fill="#00A96C"/>
<path d="M124.841 86.4355C123.252 90.2139 120.236 93.2187 116.443 94.8019L121.027 106.026C127.743 103.205 133.061 97.8439 135.812 91.1195L124.841 86.4355Z" fill="#00A96C"/>
<path d="M135.9 69.9683L124.841 74.5639C126.355 78.3469 126.355 82.5644 124.841 86.3475L135.9 90.9136C137.291 87.5805 138.007 84.0064 138.007 80.3968C138.007 76.7871 137.291 73.213 135.9 69.8799" fill="#8AC441"/>
<path d="M110.5 64.9894C112.528 65.0029 114.536 65.4028 116.414 66.1677L121.026 55.0911C117.689 53.7119 114.112 53.002 110.5 53.002C106.887 53.002 103.31 53.7119 99.9727 55.0911L104.556 66.1677C106.434 65.4028 108.441 65.0029 110.47 64.9894" fill="#8AC441"/>
</g>
<defs>
<clipPath id="clip0_892_333">
<rect width="55" height="55" fill="white" transform="translate(83 53)"/>
</clipPath>
</defs>
</svg>
