<svg width="221" height="161" viewBox="0 0 221 161" fill="none" xmlns="http://www.w3.org/2000/svg">
<g clip-path="url(#clip0_1085_564)">
<path d="M105.725 65.7976V63.5507C105.725 63.3884 105.725 63.21 105.725 63.0153C105.725 62.8206 105.697 62.6097 105.68 62.4191L105.62 61.7417L109.982 67.9228C110.038 68.0635 110.136 68.1837 110.262 68.2672C110.388 68.3506 110.537 68.3932 110.688 68.3893H111.033C111.18 68.3917 111.325 68.3481 111.447 68.2646C111.569 68.181 111.662 68.0616 111.714 67.9228L116.073 61.762L116.012 62.4475C115.983 62.7679 115.963 65.1284 115.959 66.0288C116.121 65.8949 116.344 65.7205 116.628 65.5258C116.964 65.2932 117.333 65.1115 117.723 64.9864V59H116.077H115.813C115.759 59.0035 115.705 59.0158 115.655 59.0365C115.611 59.0501 115.573 59.0771 115.545 59.1136C115.496 59.1669 115.456 59.227 115.424 59.292L111.56 64.7187C111.475 64.8891 111.377 65.0878 111.292 65.2987C111.207 65.5096 111.118 65.7246 111.033 65.9517L110.862 66.4141L110.688 65.9517C110.587 65.6921 110.485 65.4366 110.384 65.1933L110.153 64.7066L106.264 59.3204C106.23 59.2465 106.185 59.1781 106.13 59.1176C106.106 59.0859 106.074 59.0607 106.037 59.0446C105.987 59.024 105.933 59.0116 105.879 59.0081H105.611H103.969V64.9661C104.32 65.0367 104.659 65.1584 104.975 65.3271C105.236 65.4647 105.487 65.6219 105.725 65.7976Z" fill="#1D1D1B"/>
<path d="M117.447 70.9606L115.963 72.3558C116.662 73.0642 117.614 73.4657 118.609 73.4722C119.604 73.4787 120.56 73.0895 121.268 72.3903C121.977 71.6911 122.378 70.7392 122.385 69.7439C122.391 68.7487 122.002 67.7916 121.303 67.0833C120.968 66.7212 120.564 66.4297 120.115 66.2256C119.666 66.0216 119.181 65.9091 118.688 65.8949C118.195 65.8732 117.704 65.9515 117.242 66.125C116.781 66.2986 116.359 66.5639 116.003 66.9048L115.91 67.0062L110.988 72.3842L110.744 72.875L110.497 72.3842L105.481 66.9129C104.755 66.2446 103.796 65.8888 102.809 65.9221C101.823 65.9555 100.89 66.3755 100.21 67.0914C99.5113 67.7997 99.1223 68.7568 99.1287 69.752C99.1352 70.7473 99.5367 71.6992 100.245 72.3984C100.953 73.0976 101.91 73.4868 102.905 73.4803C103.9 73.4739 104.851 73.0723 105.55 72.364L104.066 70.9688C103.745 71.246 103.332 71.3945 102.908 71.3855C102.483 71.3765 102.077 71.2107 101.767 70.9201C101.514 70.6892 101.335 70.388 101.254 70.0549C101.172 69.7218 101.192 69.372 101.31 69.0502C101.429 68.7284 101.64 68.4493 101.918 68.2484C102.196 68.0476 102.528 67.9342 102.87 67.9228H102.911C103.326 67.9161 103.729 68.0602 104.046 68.3284L110.339 75.4788C110.453 75.5782 110.594 75.6417 110.744 75.6614C110.912 75.6368 111.068 75.5602 111.19 75.4423L117.439 68.3487C117.764 68.07 118.179 67.9187 118.607 67.9228C118.881 67.9322 119.149 68.0071 119.389 68.1414C119.628 68.2758 119.832 68.4655 119.983 68.6948C120.134 68.9241 120.228 69.1862 120.258 69.4594C120.287 69.7325 120.25 70.0086 120.15 70.2646C120.051 70.5206 119.892 70.749 119.686 70.9308C119.48 71.1125 119.233 71.2423 118.967 71.3093C118.701 71.3762 118.422 71.3784 118.155 71.3157C117.888 71.2529 117.639 71.127 117.431 70.9485L117.447 70.9606Z" fill="#1D1D1B"/>
<path d="M54.5422 89.1592C54.4786 89.1623 54.4158 89.1746 54.3557 89.1957C54.2985 89.2213 54.2463 89.2571 54.2016 89.3012C54.1495 89.3576 54.1045 89.4202 54.0678 89.4877L50.7024 95.8067C50.6132 95.9771 50.5281 96.1515 50.447 96.334C50.3659 96.5165 50.2929 96.7031 50.2199 96.8978C50.1307 96.6706 50.0415 96.4557 49.9523 96.2448L49.7455 95.8392L46.3112 89.4877C46.2772 89.4196 46.2335 89.3568 46.1814 89.3012C46.139 89.2545 46.0862 89.2184 46.0274 89.1957C45.9673 89.1746 45.9044 89.1623 45.8408 89.1592C45.7598 89.1547 45.6786 89.1547 45.5976 89.1592H44V100.564H45.8692V93.1907C45.8692 93.0488 45.8692 92.8906 45.8692 92.7243C45.8692 92.558 45.8449 92.3836 45.8287 92.2092L49.3157 98.6986C49.3823 98.8405 49.4886 98.9601 49.6217 99.0429C49.7549 99.1257 49.9091 99.1681 50.0658 99.165H50.3659C50.5226 99.1681 50.6769 99.1257 50.81 99.0429C50.9431 98.9601 51.0494 98.8405 51.116 98.6986L54.5625 92.2092C54.5301 92.554 54.5139 92.8703 54.5139 93.1664V100.532H56.3669V89.1511H54.7652C54.6908 89.15 54.6164 89.1528 54.5422 89.1592Z" fill="#1D1D1B"/>
<path d="M71.0854 91.8525C70.8524 91.4241 70.5618 91.0297 70.2217 90.6803C69.8827 90.3309 69.4964 90.0305 69.0742 89.788C68.6334 89.5384 68.1617 89.3475 67.6713 89.2202C67.1415 89.0838 66.5965 89.0156 66.0494 89.0174C65.2419 89.0089 64.4403 89.1577 63.6896 89.4555C63.0044 89.7316 62.3833 90.1457 61.865 90.6722C61.3509 91.2027 60.9495 91.8318 60.6851 92.5217C60.1281 94.0209 60.1281 95.6704 60.6851 97.1697C60.9413 97.8604 61.3344 98.4922 61.8406 99.0272C62.359 99.5537 62.9801 99.9679 63.6653 100.244C65.1871 100.828 66.8712 100.828 68.3931 100.244C69.077 99.9678 69.6968 99.5536 70.2136 99.0272C70.7253 98.4964 71.1239 97.8672 71.3854 97.1778C71.6636 96.435 71.8011 95.6469 71.7909 94.8538C71.7938 94.3169 71.7312 93.7816 71.6044 93.2598C71.4939 92.77 71.3194 92.2968 71.0854 91.8525ZM69.3905 96.537C69.2386 97.0027 68.9945 97.433 68.6728 97.8024C68.362 98.155 67.9752 98.4324 67.5416 98.6135C66.5724 98.9813 65.5021 98.9813 64.533 98.6135C64.0981 98.4324 63.71 98.1551 63.3977 97.8024C63.0728 97.4346 62.8272 97.0038 62.6759 96.537C62.3408 95.4399 62.3408 94.2677 62.6759 93.1706C62.8272 92.7037 63.0728 92.273 63.3977 91.9052C63.7093 91.5518 64.0977 91.2743 64.533 91.094C65.5021 90.7263 66.5724 90.7263 67.5416 91.094C67.9757 91.2743 68.3627 91.5518 68.6728 91.9052C68.9945 92.2746 69.2386 92.7049 69.3905 93.1706C69.7257 94.2677 69.7257 95.4399 69.3905 96.537Z" fill="#1D1D1B"/>
<path d="M83.0752 97.7657C83.0091 97.766 82.9439 97.7813 82.8846 97.8103C82.8221 97.8405 82.7647 97.8802 82.7143 97.928C82.547 98.0807 82.365 98.2166 82.171 98.3335C81.9866 98.4457 81.7908 98.5382 81.5871 98.6093C81.3695 98.6819 81.1455 98.7335 80.9181 98.7635C80.6491 98.7974 80.3782 98.8136 80.1071 98.8121C79.6226 98.8157 79.1425 98.7205 78.6961 98.5323C78.2645 98.3452 77.8776 98.0688 77.5608 97.7211C77.221 97.3396 76.9605 96.8943 76.7944 96.4111C76.598 95.8398 76.5019 95.2387 76.5106 94.6346C76.5016 94.0361 76.5907 93.4401 76.7741 92.8703C76.9298 92.3886 77.1808 91.9431 77.5121 91.5603C77.8239 91.2088 78.2105 90.9316 78.6434 90.7491C79.104 90.5558 79.5995 90.4592 80.099 90.4652C80.3708 90.4638 80.6423 90.4869 80.9099 90.5342C81.1224 90.5754 81.3313 90.6337 81.5344 90.7086C81.6983 90.77 81.8569 90.8446 82.0088 90.9316C82.1466 91.0128 82.2642 91.0898 82.3696 91.1588C82.4623 91.221 82.5584 91.2779 82.6575 91.3291C82.7338 91.3738 82.8205 91.3976 82.9089 91.3981C83.0088 91.4037 83.108 91.3782 83.1927 91.3251C83.258 91.2788 83.3143 91.2211 83.359 91.1547L84.0969 90.1286C83.6051 89.6541 83.0289 89.2758 82.398 89.0132C81.663 88.7229 80.8767 88.5849 80.0868 88.6076C79.2732 88.5982 78.4656 88.7498 77.7108 89.0538C77.0158 89.3375 76.3875 89.763 75.8659 90.303C75.3356 90.851 74.9218 91.5009 74.6495 92.2133C74.3666 92.9928 74.2292 93.8176 74.244 94.6468C74.2382 95.4752 74.3753 96.2985 74.6495 97.0803C74.8943 97.7918 75.2836 98.445 75.7929 98.9987C76.2958 99.5394 76.9082 99.9666 77.5891 100.252C78.3396 100.562 79.1454 100.715 79.9571 100.702C80.8232 100.725 81.6843 100.563 82.4832 100.228C83.1737 99.9189 83.7811 99.4504 84.2551 98.8608L83.3874 97.9158C83.3484 97.8707 83.3006 97.8341 83.2469 97.8082C83.1932 97.7824 83.1347 97.7679 83.0752 97.7657Z" fill="#1D1D1B"/>
<path d="M111.657 91.5278C111.416 91.0824 111.115 90.6728 110.761 90.3111C110.411 89.9476 110.011 89.6362 109.573 89.3864C109.114 89.1255 108.624 88.9264 108.113 88.7942C107.559 88.6532 106.99 88.5837 106.418 88.5874C105.585 88.5775 104.759 88.7318 103.985 89.0416C103.273 89.3288 102.627 89.7596 102.088 90.307C101.558 90.8586 101.144 91.511 100.871 92.2254C100.293 93.7808 100.293 95.4924 100.871 97.0478C101.143 97.7642 101.557 98.4181 102.088 98.9703C102.627 99.5178 103.273 99.9485 103.985 100.236C105.563 100.842 107.31 100.842 108.888 100.236C109.598 99.9494 110.242 99.5185 110.777 98.9703C111.309 98.4193 111.723 97.765 111.993 97.0478C112.286 96.2788 112.432 95.4616 112.423 94.6387C112.425 94.0815 112.361 93.526 112.233 92.9839C112.106 92.4752 111.912 91.9856 111.657 91.5278ZM109.897 96.3948C109.742 96.8776 109.489 97.3234 109.155 97.7049C108.828 98.0593 108.427 98.3364 107.979 98.516C106.974 98.8946 105.866 98.8946 104.861 98.516C104.412 98.3369 104.009 98.0598 103.681 97.7049C103.343 97.3248 103.088 96.8787 102.931 96.3948C102.585 95.2552 102.585 94.0384 102.931 92.8987C103.089 92.414 103.344 91.9667 103.681 91.5846C104.008 91.2288 104.412 90.9515 104.861 90.7735C105.865 90.3896 106.975 90.3896 107.979 90.7735C108.427 90.9515 108.83 91.2288 109.155 91.5846C109.488 91.9682 109.741 92.4152 109.897 92.8987C110.249 94.0376 110.249 95.256 109.897 96.3948Z" fill="#1D1D1B"/>
<path d="M146.024 100.556H153.489V98.7958H148.234V95.4497H152.378V93.7544H148.234V90.4692H153.489V88.717H146.024V100.556Z" fill="#1D1D1B"/>
<path d="M165.236 89.7756C164.81 89.4214 164.314 89.1616 163.78 89.0131C163.115 88.8139 162.423 88.7195 161.729 88.7332H157.881V100.572H160.082V96.3907H161.729C162.415 96.4037 163.1 96.3065 163.756 96.1027C164.287 95.935 164.777 95.6587 165.195 95.2915C165.571 94.9571 165.865 94.5408 166.055 94.0748C166.25 93.5733 166.346 93.039 166.339 92.5011C166.345 91.9802 166.253 91.4629 166.067 90.9761C165.89 90.515 165.605 90.1032 165.236 89.7756ZM163.999 93.3975C163.907 93.6592 163.754 93.8954 163.553 94.0869C163.337 94.284 163.081 94.432 162.803 94.5209C162.462 94.6256 162.106 94.6762 161.749 94.671H160.103V90.4205H161.749C162.108 90.4143 162.466 90.4621 162.811 90.5624C163.086 90.6434 163.34 90.7817 163.557 90.968C163.753 91.1502 163.904 91.375 163.999 91.6251C164.1 91.9004 164.149 92.1918 164.145 92.4849C164.144 92.7965 164.087 93.1054 163.979 93.3975H163.999Z" fill="#1D1D1B"/>
<path d="M168.662 88.717V90.5259H172.23V100.556H174.432V90.5259H178V88.717H168.662Z" fill="#1D1D1B"/>
<path d="M89.8548 88.717H87.6531V100.556H89.8548V88.717Z" fill="#1D1D1B"/>
<path d="M95.1259 96.9504C93.9094 95.1334 93.4391 94.3263 93.4391 94.3263L97.1167 88.7171H95.2353C95.0448 88.7123 94.858 88.7708 94.7042 88.8834C94.5425 88.9892 94.4045 89.1273 94.2987 89.2889L90.9617 94.3303C90.9617 94.3303 91.3915 94.9428 91.9672 95.9121C92.5009 96.9141 93.1456 97.8529 93.8892 98.7107C95.6489 100.771 97.3965 100.536 97.3965 100.536L97.956 98.6539C96.8283 98.4725 95.8143 97.8621 95.1259 96.9504Z" fill="#1D1D1B"/>
<path d="M123.878 94.4885C122.552 94.4114 122.081 93.8315 120.326 93.5232C119.656 93.4133 118.977 93.3631 118.298 93.3731V88.717H116.089V100.556H118.298V95.2348C119.321 95.1984 120.341 95.3766 121.291 95.758C122.122 96.0874 122.991 96.3095 123.878 96.4191V100.556H126.088V88.717H123.878C123.878 88.717 123.878 94.2289 123.878 94.4885Z" fill="#1D1D1B"/>
<path d="M141.102 100.008C140.565 99.896 140.085 99.5936 139.752 99.1567L139.776 98.8647V88.7251H137.558V98.8647H133.098V88.7251H130.888V100.564H138.211C139.991 102.511 142.546 101.927 142.546 101.927V99.9638C142.074 100.087 141.581 100.102 141.102 100.008Z" fill="#1D1D1B"/>
</g>
<defs>
<clipPath id="clip0_1085_564">
<rect width="134" height="43" fill="white" transform="translate(44 59)"/>
</clipPath>
</defs>
</svg>
