<svg width="221" height="161" viewBox="0 0 221 161" fill="none" xmlns="http://www.w3.org/2000/svg">
<g clip-path="url(#clip0_817_412)">
<path d="M89.8674 92.9112H88.9967V88.7328H87.4912V87.9741H91.3705V88.7328H89.8674V92.9112Z" fill="#242023"/>
<path d="M95.5834 92.9112H92.1807V87.9741H95.5834V88.7328H93.0514V90.0155H95.5307V90.7833H93.0514V92.1503H95.5834V92.9112Z" fill="#242023"/>
<path d="M96.3145 93.0001V92.23C96.4428 92.2369 96.5706 92.2094 96.6846 92.1505C96.7987 92.0916 96.8948 92.0034 96.9629 91.8951C97.1065 91.6703 97.218 91.2093 97.2975 90.5122L97.5885 87.9741H100.961V92.9112H100.091V88.7328H98.3698L98.1613 90.5714C98.1185 90.9981 98.0356 91.4199 97.9138 91.8313C97.8363 92.1076 97.696 92.3625 97.5037 92.5763C97.358 92.7267 97.1792 92.8414 96.9812 92.9112C96.765 92.9754 96.54 93.0054 96.3145 93.0001Z" fill="#242023"/>
<path d="M105.517 92.9112H102.114V87.9741H105.517V88.7328H102.996V90.0155H105.476V90.7833H102.985V92.1503H105.506L105.517 92.9112Z" fill="#242023"/>
<path d="M110.577 92.9112H109.504L107.836 90.8311L107.405 91.3346V92.9112H106.532V87.9741H107.405V90.3276L109.348 87.9741H110.428L108.409 90.3048L110.577 92.9112Z" fill="#242023"/>
<path d="M116.048 92.9112H115.058L114.694 91.9635H112.414L112.049 92.9112H111.06L113.01 87.9741H114.098L116.048 92.9112ZM114.444 91.2025L113.55 88.8467L112.657 91.2025H114.444Z" fill="#242023"/>
<path d="M121.091 92.9112H120.221V90.7582H117.638V92.9112H116.768V87.9741H117.638V89.995H120.223V87.9741H121.094L121.091 92.9112Z" fill="#242023"/>
<path d="M126.804 92.9112H125.815L125.448 91.9635H123.161L122.797 92.9112H121.805L123.757 87.9741H124.843L126.804 92.9112ZM125.201 91.2025L124.307 88.8467L123.413 91.2025H125.201Z" fill="#242023"/>
<path d="M127.356 93.0001V92.23C127.485 92.2369 127.613 92.2094 127.727 92.1505C127.841 92.0916 127.937 92.0034 128.005 91.8951C128.148 91.6703 128.26 91.2093 128.339 90.5122L128.637 87.9741H132.01V92.9112H131.14V88.7328H129.419L129.21 90.5691C129.168 90.9961 129.084 91.418 128.96 91.829C128.885 92.1055 128.745 92.3606 128.553 92.574C128.407 92.7245 128.228 92.8391 128.03 92.909C127.812 92.9746 127.584 93.0054 127.356 93.0001Z" fill="#242023"/>
<path d="M67.2118 68.3511L63.7174 77.4119L60.223 68.3511H56V82.0552H59.4875V75.1496L62.1111 82.0552H65.3214L67.9473 75.1496V82.0552H71.4531V68.3511H67.2118Z" fill="#242023"/>
<path d="M79.2434 68.1348C77.1811 68.1348 75.4511 68.8183 74.1015 70.1374C72.7519 71.4566 72.0645 73.1744 72.0645 75.2135C72.0645 77.2526 72.7519 78.9613 74.1015 80.2896C75.4511 81.6179 77.1811 82.2922 79.2434 82.2922C81.3056 82.2922 83.0562 81.6224 84.4127 80.3033C85.7692 78.9841 86.4498 77.2686 86.4498 75.2158C86.4498 73.163 85.7624 71.452 84.4127 70.1283C83.0631 68.8046 81.3194 68.1348 79.2434 68.1348ZM81.9495 78.1206C81.6112 78.4976 81.193 78.7953 80.7251 78.9923C80.2571 79.1893 79.7511 79.2806 79.2434 79.2598C78.7373 79.2809 78.2329 79.1895 77.7668 78.9925C77.3007 78.7954 76.8846 78.4976 76.5487 78.1206C75.8484 77.3158 75.4807 76.277 75.5199 75.2135C75.4807 74.15 75.8484 73.1112 76.5487 72.3064C76.8847 71.9295 77.3008 71.6318 77.7669 71.4348C78.233 71.2377 78.7373 71.1463 79.2434 71.1672C79.7511 71.1464 80.2571 71.2378 80.7251 71.4347C81.193 71.6317 81.6112 71.9294 81.9495 72.3064C82.6542 73.1092 83.0252 74.1486 82.9875 75.2135C83.0252 76.2784 82.6542 77.3178 81.9495 78.1206Z" fill="#242023"/>
<path d="M97.3464 77.2479L97.2226 77.4917C96.9506 78.0126 96.5431 78.4516 96.0426 78.763C95.5408 79.0831 94.9568 79.2524 94.3607 79.2505C93.8439 79.2679 93.3294 79.1753 92.8516 78.9788C92.3739 78.7823 91.9438 78.4866 91.5904 78.1114C91.2234 77.724 90.9378 77.2678 90.7501 76.7694C90.5624 76.2711 90.4765 75.7405 90.4974 75.2088C90.4606 74.1355 90.8537 73.0915 91.5904 72.3062C91.9438 71.931 92.3739 71.6352 92.8516 71.4387C93.3294 71.2423 93.8439 71.1496 94.3607 71.167C94.9572 71.1665 95.541 71.3391 96.0403 71.6637C96.5388 71.9762 96.9464 72.4129 97.2226 72.9305L97.3509 73.1697L100.282 71.7366L100.135 71.4792C98.8701 69.2533 96.927 68.1255 94.3607 68.1255C92.2984 68.1255 90.5295 68.7908 89.1409 70.1031C87.7523 71.4154 87.042 73.1378 87.042 75.2042C87.042 77.2707 87.7477 78.9885 89.1409 80.3054C90.5341 81.6222 92.2847 82.283 94.3607 82.283C96.8812 82.283 98.8289 81.1438 100.133 78.911L100.284 78.6513L97.3464 77.2479Z" fill="#242023"/>
<path d="M107.813 74.8056L113.308 68.3511H109.098L104.836 73.7006V68.3511H101.459V82.0552H104.836V77.838L105.574 76.9631L109.451 82.0552H113.645L107.813 74.8056Z" fill="#242023"/>
<path d="M125.225 75.9083C124.921 75.5133 124.529 75.1936 124.08 74.9741C124.452 74.7722 124.779 74.498 125.042 74.1676C125.529 73.5433 125.782 72.7699 125.757 71.9804C125.764 71.5002 125.672 71.0237 125.485 70.5807C125.299 70.1377 125.022 69.7378 124.673 69.4059C123.954 68.7065 122.943 68.3511 121.671 68.3511H114.431V82.0552H121.889C123.177 82.0552 124.197 81.6906 124.921 80.9684C125.28 80.6105 125.563 80.1836 125.751 79.7135C125.94 79.2435 126.03 78.7402 126.016 78.2344C126.029 77.3917 125.75 76.5701 125.225 75.9083ZM121.992 73.2973C121.734 73.5219 121.397 73.6358 121.055 73.614H117.813V71.3152H121.06C121.229 71.3062 121.399 71.3308 121.559 71.3875C121.719 71.4442 121.866 71.5319 121.992 71.6455C122.105 71.7528 122.193 71.8825 122.252 72.0263C122.31 72.17 122.337 72.3245 122.331 72.4794C122.336 72.6318 122.309 72.7836 122.25 72.9246C122.192 73.0656 122.104 73.1927 121.992 73.2973ZM117.813 76.5758H121.16C121.351 76.5638 121.543 76.5898 121.723 76.6524C121.904 76.715 122.07 76.8129 122.212 76.9403C122.334 77.0555 122.429 77.1947 122.493 77.3489C122.557 77.5031 122.588 77.669 122.583 77.8357C122.595 78.0048 122.569 78.1744 122.506 78.3321C122.443 78.4897 122.346 78.6315 122.221 78.747C121.921 78.9847 121.543 79.1032 121.16 79.0797H117.813V76.5758Z" fill="#242023"/>
<path d="M135.218 68.3511H131.304L125.975 82.0552H129.783L130.615 79.8292H135.885L136.698 82.0552H140.53L135.218 68.3511ZM131.6 76.8059L133.261 72.2493L134.922 76.8059H131.6Z" fill="#242023"/>
<path d="M162.295 76.3226V68.3599H157.967L152.596 76.776V79.3436H158.92V82.064H162.295V79.3436H164V76.3226H162.295ZM156.15 76.3226L158.92 72.0667V76.3226H156.15Z" fill="#242023"/>
<path d="M146.925 79.0726C147.383 78.7582 148.112 78.2684 149.239 77.5234C150.962 76.3842 151.989 74.7529 151.989 73.1581C151.983 71.786 151.429 70.4724 150.45 69.5054C149.471 68.5384 148.147 67.997 146.767 68C143.886 68 142.184 70.1075 141.588 71.4175L144.395 72.7845C144.668 72.2445 145.493 71.1031 146.767 71.1236C147.311 71.1236 147.833 71.3374 148.219 71.7185C148.606 72.0996 148.825 72.6171 148.829 73.1581C148.829 73.7642 148.371 74.4249 147.514 75.0172C145.451 76.4617 141.696 79.1045 141.659 79.1296L141.54 79.2139V82.055H152.044V79.0726H146.925Z" fill="#242023"/>
</g>
<defs>
<clipPath id="clip0_817_412">
<rect width="108" height="25" fill="white" transform="translate(56 68)"/>
</clipPath>
</defs>
</svg>
