<svg width="221" height="161" viewBox="0 0 221 161" fill="none" xmlns="http://www.w3.org/2000/svg">
<g clip-path="url(#clip0)">
<path fill-rule="evenodd" clip-rule="evenodd" d="M72.1103 52L64.4045 60.8475L56.7063 52.0117L43 67.7479L48.8752 74.4925L56.6152 65.6061L64.3248 74.4575L72.0685 65.5672L75.1751 69.1459L67.439 78.0284L73.3598 84.8276L96.0214 58.8108L90.1044 52.0117L81.1149 62.3311L72.1103 52Z" fill="#2D2D2D"/>
<path fill-rule="evenodd" clip-rule="evenodd" d="M119.849 63.7949L116.871 68.3705L113.753 63.7949H111.532L115.899 70.1774V74.056H117.791V70.1774L122.037 63.7988H119.849V63.7949Z" fill="#2D2D2D"/>
<path fill-rule="evenodd" clip-rule="evenodd" d="M130.095 68.4058V70.2088H133.316V72.2026C132.613 72.4207 131.759 72.5453 130.954 72.5453C128.481 72.5453 127.004 71.2641 127.004 69.1184C127.004 67.0701 128.591 65.6916 130.954 65.6916C132.082 65.6916 133.255 65.9447 134.349 66.4315L134.524 66.5094L135.105 64.8037L134.949 64.7375C133.605 64.1573 132.218 63.8652 130.824 63.8652C127.365 63.8652 125.044 66.0148 125.044 69.2158C125.044 72.4518 127.228 74.3833 130.881 74.3833C132.325 74.3833 133.98 74.0289 135.101 73.476L135.203 73.4253V68.4058H130.095Z" fill="#2D2D2D"/>
<path fill-rule="evenodd" clip-rule="evenodd" d="M164.242 72.4287V69.9092H169.008V68.1062H164.242V65.7385H169.498V63.9355H162.354V74.2278H169.585V72.4248H164.242V72.4287Z" fill="#2D2D2D"/>
<path fill-rule="evenodd" clip-rule="evenodd" d="M175.24 68.1449C173.77 67.9268 172.874 67.7321 172.874 66.8754C172.874 66.1238 173.615 65.6916 174.906 65.6916C176.262 65.6916 177.432 66.2251 177.872 66.4548L178.032 66.5405L178.776 64.9517L178.632 64.866C177.595 64.2391 176.163 63.8613 174.803 63.8613C172.369 63.8613 170.914 65.0218 170.914 66.9688C170.914 67.9073 171.222 68.5966 171.853 69.0756C172.627 69.6636 173.759 69.831 174.754 69.9751C176.167 70.1815 177.037 70.349 177.037 71.1512C177.037 72.409 175.331 72.5453 174.602 72.5453C173.505 72.5453 172.494 72.2571 171.59 71.6847L171.435 71.5834L170.569 73.18L170.709 73.2735C171.442 73.7758 172.711 74.3716 174.591 74.3716C177.268 74.3716 179 73.0749 179 71.0694C179 68.7017 176.915 68.3941 175.24 68.1449Z" fill="#2D2D2D"/>
<path fill-rule="evenodd" clip-rule="evenodd" d="M101.103 74.2276L103.021 68.5382L106.26 74.1886L109.5 68.5382L111.418 74.2276H113.389L109.94 63.8691L106.26 70.3139L102.58 63.8691L99.1318 74.2276H101.103Z" fill="#2D2D2D"/>
<path fill-rule="evenodd" clip-rule="evenodd" d="M141.307 68.0359L142.769 70.7696H139.848L141.307 68.0359ZM137.991 74.2276L139.005 72.3389L143.604 72.335L144.618 74.2276H146.753L141.303 63.8691L135.853 74.2276H137.991Z" fill="#2D2D2D"/>
<path fill-rule="evenodd" clip-rule="evenodd" d="M149.18 74.2276L151.097 68.3747L154.337 74.1925L157.577 68.3747L159.494 74.2276H161.465L158.017 63.8691L154.337 70.3139L150.657 63.8691L147.208 74.2276H149.18Z" fill="#2D2D2D"/>
<path fill-rule="evenodd" clip-rule="evenodd" d="M123.628 72.6234L121.942 74.3797L120.255 72.6234L121.942 70.8672L123.628 72.6234Z" fill="#2D2D2D"/>
<path fill-rule="evenodd" clip-rule="evenodd" d="M88.1447 73.3203C88.1067 73.3359 88.0459 73.3437 87.97 73.3437H87.8029V72.9504H87.9624C88.0649 72.9504 88.1409 72.962 88.1865 72.9893C88.232 73.0166 88.2548 73.0711 88.2548 73.149C88.2548 73.2346 88.2168 73.293 88.1447 73.3203ZM88.4181 73.8421C88.4143 73.8149 88.4143 73.7876 88.4143 73.7603V73.6786C88.4143 73.624 88.3953 73.5656 88.3574 73.5072C88.3194 73.4488 88.2586 73.4138 88.1789 73.4021C88.2434 73.3904 88.2928 73.3748 88.3308 73.3476C88.3991 73.3008 88.4333 73.2307 88.4333 73.1295C88.4333 72.9932 88.3801 72.8997 88.27 72.853C88.2092 72.8257 88.1143 72.8141 87.9814 72.8141H87.613V73.9083H87.7991V73.4761H87.9434C88.0421 73.4761 88.1105 73.4877 88.1485 73.5111C88.213 73.5501 88.2472 73.6357 88.2472 73.7603V73.846L88.251 73.8811C88.251 73.8849 88.251 73.8888 88.2548 73.8927C88.2548 73.8966 88.2548 73.9005 88.2586 73.9044H88.4333L88.4257 73.8927C88.4257 73.8888 88.4219 73.8733 88.4181 73.8421ZM88.0004 74.2315C87.5446 74.2315 87.1762 73.846 87.1762 73.3709C87.1762 72.8958 87.5446 72.5103 88.0004 72.5103C88.4561 72.5103 88.8245 72.8958 88.8245 73.3709C88.8283 73.846 88.4561 74.2315 88.0004 74.2315ZM88.0042 72.374C87.4763 72.374 87.0471 72.8218 87.0471 73.3748C87.0471 73.9278 87.4763 74.3756 88.0042 74.3756C88.5321 74.3756 88.9612 73.9278 88.9612 73.3748C88.9612 72.8218 88.5321 72.374 88.0042 72.374Z" fill="#2D2D2D"/>
</g>
<path d="M74.5381 103.028C74.5381 102.221 74.6451 101.447 74.8592 100.705C75.0769 99.9629 75.3998 99.2885 75.8279 98.6819C76.2561 98.0754 76.7003 97.6472 77.1606 97.3975L77.3639 98.0504C76.843 98.45 76.4149 99.0601 76.0795 99.8808C75.7476 100.701 75.5657 101.62 75.5336 102.637L75.5282 103.092C75.5282 104.469 75.7797 105.665 76.2828 106.678C76.5861 107.284 76.9465 107.759 77.3639 108.101L77.1606 108.706C76.686 108.442 76.2329 108 75.8012 107.379C74.9591 106.166 74.5381 104.715 74.5381 103.028Z" fill="#2D2D2D"/>
<path d="M79.8045 98.3983L82.352 104.756L84.8996 98.3983H86.2322V106.191H85.2046V103.156L85.301 99.8808L82.7427 106.191H81.956L79.4031 99.8968L79.5047 103.156V106.191H78.4772V98.3983H79.8045Z" fill="#2D2D2D"/>
<path d="M91.4665 106.191C91.4094 106.077 91.363 105.873 91.3273 105.581C90.867 106.059 90.3176 106.298 89.6789 106.298C89.108 106.298 88.6388 106.137 88.2713 105.816C87.9074 105.491 87.7254 105.081 87.7254 104.585C87.7254 103.982 87.9538 103.515 88.4105 103.183C88.8707 102.848 89.5165 102.68 90.3479 102.68H91.3112V102.225C91.3112 101.879 91.2078 101.604 91.0008 101.401C90.7939 101.194 90.4888 101.09 90.0856 101.09C89.7324 101.09 89.4363 101.18 89.1972 101.358C88.9581 101.536 88.8386 101.752 88.8386 102.006H87.8431C87.8431 101.717 87.9448 101.438 88.1482 101.171C88.3552 100.899 88.6335 100.685 88.9831 100.528C89.3364 100.371 89.7235 100.293 90.1445 100.293C90.8117 100.293 91.3344 100.461 91.7126 100.796C92.0909 101.128 92.2871 101.586 92.3014 102.171V104.837C92.3014 105.368 92.3692 105.791 92.5047 106.105V106.191H91.4665ZM89.8234 105.436C90.1338 105.436 90.4282 105.356 90.7065 105.195C90.9848 105.035 91.1864 104.826 91.3112 104.569V103.381H90.5352C89.3221 103.381 88.7155 103.736 88.7155 104.446C88.7155 104.756 88.819 104.999 89.0259 105.174C89.2329 105.349 89.4987 105.436 89.8234 105.436Z" fill="#2D2D2D"/>
<path d="M94.9292 106.191H93.9391V100.4H94.9292V106.191ZM93.8588 98.8639C93.8588 98.7033 93.907 98.5678 94.0033 98.4572C94.1032 98.3465 94.2495 98.2912 94.4422 98.2912C94.6348 98.2912 94.7811 98.3465 94.881 98.4572C94.9809 98.5678 95.0309 98.7033 95.0309 98.8639C95.0309 99.0245 94.9809 99.1583 94.881 99.2653C94.7811 99.3723 94.6348 99.4259 94.4422 99.4259C94.2495 99.4259 94.1032 99.3723 94.0033 99.2653C93.907 99.1583 93.8588 99.0245 93.8588 98.8639Z" fill="#2D2D2D"/>
<path d="M97.5945 106.191H96.6044V97.9701H97.5945V106.191Z" fill="#2D2D2D"/>
<path d="M99.2054 105.672C99.2054 105.5 99.2554 105.358 99.3553 105.243C99.4588 105.129 99.6122 105.072 99.8156 105.072C100.019 105.072 100.172 105.129 100.276 105.243C100.383 105.358 100.436 105.5 100.436 105.672C100.436 105.836 100.383 105.973 100.276 106.084C100.172 106.194 100.019 106.25 99.8156 106.25C99.6122 106.25 99.4588 106.194 99.3553 106.084C99.2554 105.973 99.2054 105.836 99.2054 105.672Z" fill="#2D2D2D"/>
<path d="M104.873 101.288C104.723 101.263 104.561 101.251 104.386 101.251C103.737 101.251 103.296 101.527 103.064 102.08V106.191H102.074V100.4H103.037L103.054 101.069C103.378 100.552 103.838 100.293 104.434 100.293C104.627 100.293 104.773 100.318 104.873 100.368V101.288Z" fill="#2D2D2D"/>
<path d="M109.364 105.618C108.978 106.071 108.413 106.298 107.667 106.298C107.05 106.298 106.579 106.119 106.254 105.763C105.933 105.402 105.771 104.871 105.767 104.168V100.4H106.757V104.141C106.757 105.019 107.114 105.458 107.828 105.458C108.584 105.458 109.087 105.176 109.337 104.612V100.4H110.327V106.191H109.385L109.364 105.618Z" fill="#2D2D2D"/>
<path d="M120.464 105.169C120.2 105.547 119.83 105.83 119.356 106.02C118.885 106.205 118.335 106.298 117.707 106.298C117.072 106.298 116.508 106.15 116.016 105.854C115.524 105.554 115.142 105.129 114.871 104.58C114.603 104.03 114.466 103.393 114.459 102.669V101.989C114.459 100.816 114.732 99.9058 115.277 99.26C115.827 98.6141 116.598 98.2912 117.59 98.2912C118.403 98.2912 119.058 98.5 119.554 98.9174C120.05 99.3313 120.353 99.92 120.464 100.684H119.436C119.243 99.6524 118.63 99.1369 117.595 99.1369C116.906 99.1369 116.384 99.3795 116.027 99.8647C115.674 100.346 115.495 101.046 115.492 101.963V102.6C115.492 103.474 115.691 104.17 116.091 104.687C116.491 105.201 117.031 105.458 117.713 105.458C118.098 105.458 118.435 105.415 118.724 105.329C119.013 105.243 119.252 105.099 119.441 104.896V103.146H117.638V102.311H120.464V105.169Z" fill="#2D2D2D"/>
<path d="M124.825 101.288C124.676 101.263 124.513 101.251 124.338 101.251C123.689 101.251 123.248 101.527 123.016 102.08V106.191H122.026V100.4H122.99L123.006 101.069C123.33 100.552 123.791 100.293 124.387 100.293C124.579 100.293 124.726 100.318 124.825 100.368V101.288Z" fill="#2D2D2D"/>
<path d="M125.371 103.242C125.371 102.675 125.482 102.164 125.703 101.711C125.928 101.258 126.238 100.908 126.634 100.662C127.034 100.416 127.489 100.293 127.999 100.293C128.788 100.293 129.425 100.566 129.91 101.112C130.399 101.658 130.643 102.384 130.643 103.29V103.36C130.643 103.923 130.534 104.43 130.317 104.88C130.103 105.326 129.794 105.673 129.391 105.923C128.991 106.173 128.531 106.298 128.01 106.298C127.225 106.298 126.588 106.025 126.099 105.479C125.614 104.933 125.371 104.211 125.371 103.311V103.242ZM126.367 103.36C126.367 104.002 126.515 104.517 126.811 104.906C127.111 105.295 127.51 105.49 128.01 105.49C128.513 105.49 128.913 105.293 129.209 104.901C129.505 104.505 129.653 103.952 129.653 103.242C129.653 102.607 129.501 102.093 129.198 101.7C128.898 101.304 128.499 101.106 127.999 101.106C127.51 101.106 127.116 101.301 126.816 101.69C126.517 102.079 126.367 102.635 126.367 103.36Z" fill="#2D2D2D"/>
<path d="M135.46 105.618C135.075 106.071 134.509 106.298 133.763 106.298C133.146 106.298 132.675 106.119 132.35 105.763C132.029 105.402 131.867 104.871 131.863 104.168V100.4H132.853V104.141C132.853 105.019 133.21 105.458 133.924 105.458C134.68 105.458 135.183 105.176 135.433 104.612V100.4H136.423V106.191H135.481L135.46 105.618Z" fill="#2D2D2D"/>
<path d="M142.824 103.36C142.824 104.241 142.623 104.951 142.219 105.49C141.816 106.028 141.27 106.298 140.582 106.298C139.879 106.298 139.326 106.075 138.923 105.629V108.417H137.932V100.4H138.837L138.885 101.042C139.288 100.543 139.849 100.293 140.566 100.293C141.261 100.293 141.811 100.555 142.214 101.08C142.621 101.604 142.824 102.334 142.824 103.269V103.36ZM141.834 103.247C141.834 102.594 141.695 102.079 141.417 101.7C141.138 101.322 140.757 101.133 140.271 101.133C139.672 101.133 139.222 101.399 138.923 101.931V104.698C139.219 105.226 139.672 105.49 140.282 105.49C140.757 105.49 141.133 105.302 141.411 104.928C141.693 104.55 141.834 103.989 141.834 103.247Z" fill="#2D2D2D"/>
<path d="M146.373 103.081C146.373 103.877 146.267 104.64 146.057 105.372C145.85 106.1 145.531 106.772 145.099 107.39C144.671 108.007 144.221 108.446 143.75 108.706L143.541 108.101C144.091 107.68 144.531 107.027 144.863 106.143C145.199 105.254 145.37 104.269 145.377 103.188V103.017C145.377 102.268 145.299 101.572 145.142 100.93C144.985 100.284 144.765 99.706 144.483 99.1957C144.205 98.6855 143.891 98.2877 143.541 98.0022L143.75 97.3975C144.221 97.6579 144.669 98.0932 145.093 98.7033C145.522 99.3135 145.841 99.986 146.051 100.721C146.266 101.456 146.373 102.243 146.373 103.081Z" fill="#2D2D2D"/>
<defs>
<clipPath id="clip0">
<rect width="136" height="32.8276" fill="white" transform="translate(43 52)"/>
</clipPath>
</defs>
</svg>
