<svg width="221" height="161" viewBox="0 0 221 161" fill="none" xmlns="http://www.w3.org/2000/svg">
<g clip-path="url(#clip0_1079_562)">
<path d="M154.823 50.1787V78.2645L67.5117 110.529L95.2151 50.1787H154.823ZM155.223 49H94.975C94.8278 49.0027 94.6841 49.0466 94.5599 49.127C94.4356 49.2073 94.3356 49.3209 94.2708 49.4552L66.0713 110.878C66.0217 111.001 66.0024 111.134 66.015 111.266C66.0275 111.397 66.0716 111.524 66.1434 111.635C66.2152 111.745 66.3125 111.836 66.4268 111.9C66.5412 111.964 66.6691 111.998 66.7995 112C66.8922 111.999 66.9841 111.982 67.0716 111.951L155.487 79.2481C155.635 79.1902 155.763 79.089 155.854 78.9573C155.945 78.8256 155.996 78.6693 155.999 78.5084V49.8129C155.999 49.5973 155.915 49.3905 155.765 49.2381C155.615 49.0856 155.411 49 155.199 49H155.223Z" fill="#F73449"/>
<path d="M98.5689 54.731H97.2085V51.39H95.9922V59.1858H97.2085V55.8447H98.5689V59.1858H99.8012V51.39H98.5689V54.731ZM149.438 51.39H148.23V59.1858H149.438V51.39ZM101.794 51.39L100.561 59.1858H101.674L101.882 57.7713H103.362L103.61 59.1858H104.827L103.554 51.39H101.794ZM102.01 56.7145L102.594 52.7638L103.17 56.7145H102.01ZM112.221 54.6091L111.788 56.3162V51.39H110.708V59.1858H111.948L112.957 55.609L113.453 53.6905V59.1858H114.541V51.39H113.213L112.221 54.6091ZM131.37 57.2104L131.506 52.5037H132.554V59.1858H133.786V51.39H130.377L130.177 57.2836C130.177 58.007 129.977 58.0965 129.433 58.0965V59.2101H129.617C130.817 59.1939 131.33 58.6411 131.37 57.2104ZM147.542 57.2592V56.243C147.542 54.9993 146.95 54.3165 145.741 54.3165H145.173V51.39H143.965V59.1858H145.741C146.95 59.1858 147.542 58.5029 147.542 57.2592ZM145.141 55.4301H145.709C146.094 55.4301 146.302 55.609 146.302 56.1699V57.3323C146.302 57.8932 146.094 58.0721 145.709 58.0721H145.141V55.4301ZM138.339 57.2592V56.243C138.339 54.9993 137.747 54.3165 136.547 54.3165H135.971V51.39H134.771V59.1858H136.547C137.747 59.1858 138.339 58.5029 138.339 57.2592ZM135.939 55.4301H136.515C136.899 55.4301 137.099 55.609 137.099 56.1699V57.3323C137.099 57.8932 136.899 58.0721 136.515 58.0721H135.939V55.4301ZM140.42 55.8447H141.788V59.1858H143.021V51.39H141.772V54.731H140.42V51.39H139.196V59.1858H140.42V55.8447ZM109.356 51.39H108.123V58.0721H106.755V51.39H105.547V59.1858H108.708V60.2344H109.884V58.0965H109.356V51.39ZM127.617 59.1858H128.833L127.617 51.39H125.808L124.584 59.1858H125.688L125.896 57.7713H127.377L127.617 59.1858ZM126.016 56.7145L126.6 52.7638L127.185 56.7145H126.016ZM153.664 52.5037V51.39H150.375V59.1858H153.664V58.0721H151.623V55.7878H153.271V54.6904H151.623V52.5037H153.664ZM117.262 51.3006C117.007 51.2787 116.751 51.3152 116.513 51.4074C116.274 51.4996 116.059 51.6451 115.883 51.8332C115.707 52.0213 115.575 52.2471 115.496 52.494C115.418 52.741 115.395 53.0026 115.429 53.2597V57.3242C115.429 57.8179 115.622 58.2914 115.966 58.6405C116.31 58.9896 116.776 59.1858 117.262 59.1858C117.748 59.1858 118.214 58.9896 118.558 58.6405C118.901 58.2914 119.094 57.8179 119.094 57.3242V53.2597C119.129 53.0026 119.106 52.741 119.028 52.494C118.949 52.2471 118.817 52.0213 118.641 51.8332C118.465 51.6451 118.25 51.4996 118.011 51.4074C117.772 51.3152 117.516 51.2787 117.262 51.3006ZM117.886 57.3892C117.886 57.9501 117.646 58.1615 117.262 58.1615C116.878 58.1615 116.638 57.9501 116.638 57.3892V53.1784C116.638 52.6256 116.878 52.4143 117.262 52.4143C117.646 52.4143 117.886 52.6256 117.886 53.1784V57.3892ZM121.215 55.8447H122.575V59.1858H123.8V51.39H122.575V54.731H121.215V51.39H119.991V59.1858H121.215V55.8447ZM138.139 61.8602V60.7465H134.819V68.5098H138.107V67.4286H136.035V65.1443H137.691V64.0307H136.035V61.8602H138.139ZM141.74 68.5098H142.981L141.3 64.1851L142.981 60.714H141.772L140.172 64.1119V60.7465H138.988V68.5098H140.196V66.1442L140.564 65.437L141.74 68.5098ZM146.062 68.5098V61.8602H147.326V60.7465H143.621V61.8602H144.877V68.5098H146.062ZM151.663 66.5832V65.5996C151.663 64.3558 151.071 63.673 149.863 63.673H149.294V60.7465H148.094V68.5098H149.863C151.071 68.5098 151.663 67.8594 151.663 66.6157V66.5832ZM149.262 64.7541H149.831C150.223 64.7541 150.423 64.933 150.423 65.4858V66.6563C150.423 67.2172 150.223 67.3961 149.831 67.3961H149.262V64.7541ZM129.497 63.6486V62.6731C129.497 61.4212 128.905 60.7465 127.697 60.7465H125.952V68.5098H127.16V65.5833H127.729C128.937 65.6158 129.529 64.933 129.529 63.6811L129.497 63.6486ZM127.096 61.8277H127.665C128.049 61.8277 128.257 62.0065 128.257 62.5593V63.7299C128.257 64.2908 128.049 64.4696 127.665 64.4696H127.096V61.8277ZM121.215 68.5098H122.415V61.8602H123.792V68.5098H125.016V60.7465H121.215V68.5098ZM152.423 68.5098H153.624V60.7465H152.423V68.5098ZM132.098 60.6571C131.843 60.6352 131.587 60.6718 131.349 60.764C131.11 60.8561 130.895 61.0017 130.719 61.1897C130.543 61.3778 130.411 61.6037 130.332 61.8506C130.254 62.0975 130.231 62.3591 130.265 62.6162V66.6807C130.265 67.1744 130.458 67.6479 130.802 67.997C131.146 68.3461 131.612 68.5423 132.098 68.5423C132.584 68.5423 133.05 68.3461 133.394 67.997C133.737 67.6479 133.93 67.1744 133.93 66.6807V62.6162C133.965 62.3591 133.942 62.0975 133.864 61.8506C133.785 61.6037 133.653 61.3778 133.477 61.1897C133.301 61.0017 133.086 60.8561 132.847 60.764C132.608 60.6718 132.352 60.6352 132.098 60.6571ZM132.722 66.7458C132.722 67.3067 132.482 67.5587 132.098 67.5587C131.714 67.5587 131.474 67.3473 131.474 66.7458V62.5349C131.474 61.9821 131.714 61.7708 132.098 61.7708C132.482 61.7708 132.722 61.9821 132.722 62.5349V66.7458ZM151.247 73.3221L150.823 75.013V70.1356H149.751V77.9313H150.991L151.999 74.3545L152.495 72.4361V77.9313H153.576V70.1356H152.247L151.247 73.3221ZM133.418 70.0136C133.166 69.9969 132.914 70.0372 132.679 70.1316C132.444 70.2261 132.233 70.3723 132.061 70.5598C131.889 70.7473 131.76 70.9713 131.683 71.2156C131.606 71.46 131.584 71.7186 131.618 71.9727V76.0372C131.618 76.531 131.811 77.0044 132.154 77.3536C132.498 77.7027 132.964 77.8988 133.45 77.8988C133.936 77.8988 134.402 77.7027 134.746 77.3536C135.09 77.0044 135.283 76.531 135.283 76.0372V71.9727C135.318 71.7127 135.295 71.4479 135.214 71.1983C135.134 70.9488 134.999 70.7211 134.82 70.5323C134.64 70.3436 134.421 70.1988 134.178 70.109C133.935 70.0191 133.675 69.9865 133.418 70.0136ZM134.018 76.1023C134.018 76.6632 133.778 76.8745 133.394 76.8745C133.01 76.8745 132.77 76.6632 132.77 76.1023V71.8914C132.77 71.3387 133.01 71.1273 133.394 71.1273C133.778 71.1273 134.018 71.3387 134.018 71.8914V76.1023ZM129.057 70.1356H127.281V77.9313H128.481V75.013H129.057C130.257 75.013 130.849 74.3301 130.849 73.0783V72.0296C130.817 70.7778 130.257 70.1356 129.057 70.1356ZM129.649 73.1514C129.649 73.7123 129.441 73.883 129.057 73.883H128.481V71.2167H129.057C129.441 71.2167 129.649 71.3956 129.649 71.9483V73.1514ZM137.883 70.0461C136.699 70.0461 136.083 70.7534 136.083 72.0052V76.0698C136.059 76.3244 136.088 76.5813 136.168 76.824C136.248 77.0667 136.376 77.2897 136.546 77.4789C136.715 77.6681 136.922 77.8193 137.152 77.9227C137.382 78.0261 137.632 78.0796 137.883 78.0796C138.135 78.0796 138.384 78.0261 138.615 77.9227C138.845 77.8193 139.051 77.6681 139.221 77.4789C139.39 77.2897 139.519 77.0667 139.599 76.824C139.679 76.5813 139.708 76.3244 139.684 76.0698V75.013H138.548V76.1267C138.548 76.6876 138.299 76.8908 137.915 76.8908C137.531 76.8908 137.291 76.6876 137.291 76.1267V71.8914C137.291 71.3387 137.531 71.1273 137.915 71.1273C138.299 71.1273 138.548 71.3387 138.548 71.8914V72.7043H139.684V71.9483C139.684 70.7209 139.068 70.0136 137.883 70.0136V70.0461ZM142.301 70.0461C141.116 70.0461 140.5 70.7534 140.5 72.0052V76.0698C140.462 76.3247 140.481 76.5852 140.556 76.8317C140.631 77.0781 140.76 77.3041 140.933 77.4926C141.106 77.6811 141.319 77.8273 141.556 77.9202C141.793 78.0131 142.048 78.0502 142.301 78.0289C143.485 78.0289 144.093 77.3135 144.093 76.0698V75.013H142.957V76.1267C142.957 76.6876 142.717 76.8908 142.333 76.8908C141.948 76.8908 141.708 76.6876 141.708 76.1267V71.8914C141.708 71.3387 141.948 71.1273 142.333 71.1273C142.717 71.1273 142.957 71.3387 142.957 71.8914V72.7043H144.093V71.9483C144.093 70.7209 143.485 70.0136 142.301 70.0136V70.0461ZM146.47 73.3547L146.022 75.013V70.1356H144.957V77.9313H146.198L147.206 74.3545L147.694 72.4361V77.9313H148.782V70.1356H147.454L146.47 73.3547Z" fill="#F73449"/>
</g>
<defs>
<clipPath id="clip0_1079_562">
<rect width="90" height="63" fill="white" transform="translate(66 49)"/>
</clipPath>
</defs>
</svg>
