<svg width="221" height="161" viewBox="0 0 221 161" fill="none" xmlns="http://www.w3.org/2000/svg">
<g clip-path="url(#clip0)">
<path d="M120.092 88.8213L119.202 79.8172C119.092 78.8069 119.026 77.6197 119.026 77.6197H118.983C118.983 77.6197 118.767 78.7841 118.461 79.8172L115.806 88.8213H113.544L110.889 79.8172C110.584 78.7841 110.367 77.6197 110.367 77.6197H110.324C110.324 77.6197 110.281 78.8041 110.171 79.8172L109.258 88.8213H105.842L107.736 73.2275H111.869L114.198 81.2613C114.457 82.1888 114.653 83.3075 114.653 83.3075H114.697C114.697 83.3075 114.893 82.1859 115.152 81.2613L117.481 73.2275H121.614L123.508 88.8213H120.092V88.8213Z" fill="#3732AE"/>
<path d="M148.014 76.2841V88.8213H144.402V73.2275H153.539L152.796 76.2869H148.014V76.2841Z" fill="#3732AE"/>
<path d="M82.3392 88.8213V82.4685H77.9234V88.8213H74.2253V73.2275H77.9234V79.4747H82.3392V73.2275H86.0373V88.8213H82.3392V88.8213Z" fill="#3732AE"/>
<path d="M97.4111 67.9277H93.9868V93.9753H97.4111V67.9277Z" fill="#3732AE"/>
<path d="M66.2757 75.8643H56V86.0384H66.2757V75.8643Z" fill="#E20613"/>
<path d="M134.349 58.4727H131.95V103.427H134.349V58.4727Z" fill="#3732AE"/>
<path d="M166.003 47H164.625V115H166.003V47Z" fill="#3732AE"/>
</g>
<defs>
<clipPath id="clip0">
<rect width="110" height="68" fill="white" transform="translate(56 47)"/>
</clipPath>
</defs>
</svg>
