<svg width="221" height="161" viewBox="0 0 221 161" fill="none" xmlns="http://www.w3.org/2000/svg">
<g clip-path="url(#clip0_874_465)">
<path d="M164 62.6976C161.455 60.2471 158.281 59 154.444 59C150.533 59 147.279 60.293 144.708 62.8377C142.137 65.3824 140.869 68.4346 140.869 72.0564C140.839 73.7717 141.164 75.4748 141.824 77.0608C142.484 78.6467 143.466 80.0818 144.708 81.2774C147.279 83.8267 150.533 85.1174 154.444 85.1174C158.258 85.1174 161.417 83.9185 163.949 81.4979L154.493 72.1184L164 62.6976ZM152.801 67.1714C152.412 67.1728 152.032 67.0599 151.708 66.847C151.384 66.634 151.131 66.3307 150.982 65.9754C150.832 65.6201 150.792 65.2287 150.867 64.8509C150.942 64.4731 151.128 64.1259 151.403 63.8531C151.677 63.5804 152.027 63.3945 152.408 63.3188C152.789 63.2432 153.184 63.2813 153.543 63.4284C153.903 63.5754 154.21 63.8247 154.426 64.1448C154.642 64.4648 154.757 64.8412 154.757 65.2262C154.757 65.4816 154.706 65.7346 154.608 65.9706C154.509 66.2066 154.364 66.4211 154.182 66.6017C154 66.7823 153.783 66.9256 153.545 67.0234C153.307 67.1211 153.051 67.1714 152.794 67.1714" fill="#0D0506"/>
<path d="M121.68 62.8377C124.249 60.293 127.506 59 131.419 59C135.332 59 138.55 60.293 141.121 62.8377C143.692 65.3824 144.958 68.4346 144.958 72.0564C144.958 75.6782 143.692 78.7649 141.121 81.3096C138.55 83.8542 135.326 85.1128 131.419 85.1128C127.513 85.1128 124.249 83.8221 121.683 81.2728C120.441 80.0779 119.46 78.6436 118.8 77.0585C118.139 75.4733 117.814 73.771 117.844 72.0564C117.844 68.4346 119.109 65.3961 121.683 62.8377" fill="#E00007"/>
<path d="M99.6641 84.6098V59.5029H112.519C114.872 59.5029 116.791 60.0403 118.314 61.1519C119.835 62.2267 120.593 63.8068 120.593 65.922C120.631 67.0255 120.272 68.1064 119.58 68.972C118.885 69.7965 118.242 70.3706 117.552 70.6922C118.639 70.908 119.724 71.6269 120.774 72.8464C121.824 74.0292 122.367 75.5358 122.367 77.3295C122.396 78.3492 122.177 79.3609 121.731 80.28C121.284 81.199 120.621 81.9986 119.798 82.6117C118.096 83.9392 115.857 84.6213 113.064 84.6213L99.6641 84.6098ZM107.449 68.8755H111.39C112.44 68.8755 113.244 68.159 113.244 67.2679C113.244 66.2275 112.449 65.5109 111.39 65.5109H107.449V68.8755ZM107.449 78.4158H111.54C112.955 78.4158 113.859 77.6257 113.859 76.3718C113.859 75.1178 112.88 74.2543 111.54 74.2543H107.449V78.4158Z" fill="#0D0506"/>
<path d="M79.7529 62.8377C82.3215 60.293 85.581 59 89.4919 59C93.4027 59 96.6228 60.293 99.1937 62.8377C101.765 65.3824 103.03 68.4346 103.03 72.0564C103.03 75.6782 101.765 78.7649 99.1937 81.3096C96.6228 83.8542 93.3981 85.1128 89.4919 85.1128C85.5856 85.1128 82.3215 83.8221 79.7552 81.2728C78.5134 80.0781 77.5318 78.6439 76.8711 77.0587C76.2104 75.4736 75.8847 73.7711 75.9139 72.0564C75.9139 68.4346 77.1797 65.3961 79.7529 62.8377Z" fill="#E00007"/>
<path d="M89.4732 75.9397L83.4226 80.3125L85.7524 73.2618L79.6855 68.9143L87.1735 68.9303L89.4732 61.8682L91.7729 68.9303L99.2608 68.9143L93.1916 73.2618L95.5215 80.3125L89.4732 75.9397Z" fill="white"/>
<path d="M56 84.6098V59.5029H63.787V68.0028H71.5322V59.5029H79.3169V84.6098H71.5322V74.7113H63.787V84.6098H56Z" fill="#0D0506"/>
<path d="M86.1582 100.516V93.0705C86.1579 93.0454 86.1627 93.0205 86.1722 92.9972C86.1818 92.9739 86.196 92.9528 86.2139 92.935C86.2318 92.9173 86.2531 92.9032 86.2766 92.8938C86.3001 92.8843 86.3253 92.8796 86.3506 92.8799H87.2988C87.7856 92.8799 88.3142 92.8799 88.6341 92.8799C91.5435 92.8799 91.8541 94.7172 91.8541 95.5256C91.8541 96.8531 90.8364 98.2012 88.8937 98.2012C88.75 98.2012 88.4533 98.2012 88.1983 98.1828V100.537C88.1986 100.562 88.1938 100.588 88.1841 100.611C88.1744 100.635 88.1601 100.656 88.1419 100.674C88.1238 100.692 88.1022 100.706 88.0784 100.716C88.0547 100.725 88.0292 100.73 88.0035 100.73H86.3553C86.3036 100.73 86.2541 100.709 86.2176 100.673C86.1811 100.637 86.1605 100.588 86.1605 100.537L86.1582 100.516ZM88.1983 96.2537C88.4122 96.2778 88.6274 96.29 88.8427 96.2904C89.1673 96.2904 89.7144 96.1917 89.7144 95.5141C89.7144 95.0066 89.4432 94.7907 88.808 94.7907C88.6619 94.7907 88.5367 94.7907 88.3698 94.8022H88.1983V96.2537Z" fill="#1B1C20"/>
<path d="M100.012 100.581L99.4854 99.1273H96.569L96.0428 100.583C96.0293 100.621 96.0044 100.653 95.9716 100.676C95.9388 100.698 95.8996 100.71 95.8596 100.71H94.2137C94.1818 100.709 94.1505 100.701 94.1225 100.686C94.0945 100.671 94.0706 100.65 94.053 100.623C94.0354 100.597 94.0245 100.567 94.0214 100.536C94.0183 100.504 94.0231 100.472 94.0352 100.443L97.1532 92.9907C97.1683 92.9556 97.1936 92.9258 97.2257 92.905C97.2579 92.8841 97.2956 92.8732 97.3341 92.8735H98.827C98.8651 92.8734 98.9024 92.8844 98.9342 92.9052C98.966 92.9261 98.9908 92.9558 99.0055 92.9907L102.133 100.443C102.145 100.472 102.151 100.504 102.148 100.535C102.145 100.567 102.135 100.597 102.117 100.624C102.1 100.65 102.076 100.672 102.048 100.687C102.02 100.702 101.988 100.71 101.957 100.71H100.199C100.159 100.71 100.12 100.697 100.087 100.674C100.054 100.651 100.03 100.619 100.016 100.581H100.012ZM98.8015 97.2188L98.0342 95.0921L97.2645 97.2188H98.8015Z" fill="#1B1C20"/>
<path d="M111.017 101.809V100.709H106.612V101.809C106.612 101.835 106.607 101.86 106.597 101.883C106.587 101.906 106.573 101.927 106.555 101.945C106.537 101.963 106.515 101.977 106.492 101.986C106.468 101.996 106.443 102 106.417 102H104.878C104.853 102 104.828 101.995 104.804 101.985C104.781 101.976 104.76 101.962 104.742 101.944C104.724 101.926 104.71 101.905 104.7 101.882C104.691 101.859 104.686 101.834 104.686 101.809V98.9914C104.686 98.9406 104.706 98.8919 104.742 98.8558C104.778 98.8197 104.827 98.7991 104.878 98.7985H105.573C105.889 98.3392 106.501 96.805 106.598 94.529L106.661 93.0638C106.663 93.0148 106.684 92.9687 106.72 92.9349C106.756 92.9011 106.804 92.8823 106.853 92.8823H111.721C111.747 92.882 111.772 92.8867 111.796 92.8962C111.819 92.9056 111.841 92.9196 111.859 92.9374C111.877 92.9551 111.891 92.9762 111.901 92.9995C111.911 93.0228 111.916 93.0477 111.916 93.073V98.7985H112.758C112.809 98.7991 112.858 98.8197 112.894 98.8558C112.93 98.8919 112.95 98.9406 112.95 98.9914V101.809C112.95 101.86 112.93 101.908 112.894 101.944C112.858 101.98 112.809 102 112.758 102H111.216C111.191 102 111.165 101.996 111.142 101.986C111.118 101.977 111.097 101.963 111.078 101.945C111.06 101.927 111.046 101.906 111.036 101.883C111.026 101.86 111.021 101.835 111.021 101.809H111.017ZM109.881 98.7985V94.7908H108.624L108.518 95.9277C108.432 96.9137 108.198 97.8815 107.822 98.7985H109.881Z" fill="#1B1C20"/>
<path d="M120.897 100.516V96.3432L117.814 100.629C117.796 100.654 117.772 100.674 117.745 100.688C117.717 100.702 117.687 100.709 117.656 100.709H116.203C116.151 100.709 116.102 100.688 116.066 100.652C116.03 100.616 116.01 100.567 116.01 100.516V93.0728C116.01 93.022 116.03 92.9733 116.066 92.9372C116.102 92.9011 116.151 92.8805 116.203 92.8799H117.853C117.905 92.8805 117.954 92.901 117.99 92.937C118.027 92.9731 118.047 93.0218 118.048 93.0728V97.2458L121.129 92.9626C121.146 92.9371 121.169 92.9162 121.196 92.9018C121.223 92.8873 121.253 92.8798 121.284 92.8799H122.74C122.792 92.8805 122.841 92.901 122.877 92.937C122.914 92.9731 122.934 93.0218 122.935 93.0728V100.516C122.934 100.567 122.914 100.616 122.877 100.652C122.841 100.688 122.792 100.709 122.74 100.709H121.09C121.038 100.709 120.989 100.688 120.953 100.652C120.917 100.616 120.897 100.567 120.897 100.516Z" fill="#1B1C20"/>
<path d="M129.688 100.838C127.219 100.838 125.497 99.1752 125.497 96.7959C125.497 94.4533 127.258 92.7515 129.688 92.7515C132.117 92.7515 133.875 94.4142 133.875 96.7959C133.875 99.1384 132.113 100.838 129.688 100.838ZM129.688 94.6623C128.482 94.6623 127.641 95.5396 127.641 96.7959C127.632 97.0696 127.678 97.3424 127.776 97.5983C127.875 97.8543 128.024 98.0883 128.214 98.2868C128.404 98.4853 128.633 98.6444 128.886 98.7547C129.139 98.865 129.412 98.9244 129.688 98.9294C131.192 98.9294 131.733 97.827 131.733 96.7959C131.733 95.558 130.873 94.6623 129.688 94.6623Z" fill="#1B1C20"/>
</g>
<defs>
<clipPath id="clip0_874_465">
<rect width="108" height="43" fill="white" transform="translate(56 59)"/>
</clipPath>
</defs>
</svg>
