<svg width="221" height="161" viewBox="0 0 221 161" fill="none" xmlns="http://www.w3.org/2000/svg">
<path fill-rule="evenodd" clip-rule="evenodd" d="M153.642 59.0785C153.126 59.1074 152.088 59.2142 151.864 59.2611C151.743 59.2869 151.442 59.3489 151.198 59.3991C148.747 59.9024 146.625 61.0438 144.808 62.8363C143.945 63.6873 143.646 64.0256 143.23 64.6192C142.895 65.0981 142.9 65.0251 143.177 65.4708C144.878 68.2054 145.462 72.5462 144.533 75.5464C144.454 75.8018 144.343 76.1597 144.288 76.3417C144.232 76.5237 144.146 76.7498 144.096 76.8444C144.047 76.9389 144.006 77.0524 144.006 77.0965C144.006 77.1885 143.197 78.754 143.082 78.8839C142.958 79.0248 143.052 79.1923 143.693 79.9725C145.41 82.0639 147.657 83.6004 150.004 84.2883C150.233 84.3555 150.483 84.4311 150.559 84.4565C150.802 84.5372 152.121 84.773 152.698 84.8386C153.316 84.9093 155.932 84.8775 156.585 84.7916C157.382 84.6871 158.573 84.4211 159.085 84.234C159.146 84.2118 159.383 84.1253 159.612 84.0423C160.249 83.8114 161.348 83.2689 161.945 82.8907C162.503 82.5369 163.889 81.4351 163.889 81.3444C163.889 81.3033 159.808 77.2878 156.46 74.0339C155.383 72.9872 154.502 72.096 154.502 72.0532C154.502 72.0105 155.573 70.9161 156.881 69.6213C158.189 68.3266 160.158 66.3729 161.255 65.2795C162.352 64.1861 163.381 63.1676 163.542 63.0161C163.894 62.6836 163.895 62.6652 163.597 62.3951C162.295 61.2155 160.659 60.2784 158.974 59.7477C158.699 59.6612 158.399 59.5663 158.307 59.5371C157.295 59.2126 155.097 58.9965 153.642 59.0785ZM103.434 59.7525C101.449 59.768 99.7907 59.8021 99.7496 59.8281C99.6884 59.867 99.679 60.2156 99.6982 61.7291L99.7218 63.5824L99.9457 63.8127C101.502 65.4142 102.643 67.9638 102.964 70.5591C103.424 74.2681 102.483 77.6088 100.188 80.425L99.7966 80.9048L99.7976 82.6929C99.7979 83.6763 99.8205 84.5154 99.8476 84.5572C99.9077 84.6508 113.791 84.6038 114.653 84.5073C116.176 84.3366 117.266 84.0378 118.373 83.4885C119.518 82.9199 121.041 81.6654 121.245 81.1219C121.267 81.0643 121.348 80.9762 121.426 80.9257C121.504 80.8756 121.568 80.8051 121.568 80.7694C121.568 80.7337 121.667 80.5035 121.788 80.2578C121.908 80.0121 122.038 79.7062 122.075 79.5776C122.112 79.4493 122.164 79.3165 122.19 79.2827C122.361 79.0579 122.43 77.0737 122.303 76.0397C122.077 74.2099 120.282 71.8275 118.615 71.1447C118.421 71.0659 118.21 70.9679 118.146 70.9273C118.081 70.8865 117.981 70.8643 117.923 70.8781C117.782 70.9116 117.657 70.8225 117.697 70.7173C117.716 70.6701 117.801 70.6147 117.886 70.5945C118.194 70.5212 119.294 69.5027 119.738 68.8797C119.945 68.5897 120.214 68.1407 120.251 68.0256C120.546 67.0888 120.628 66.4311 120.565 65.5068C120.508 64.6771 120.474 64.5334 120.124 63.6332C119.774 62.7344 119.03 61.8333 118.137 61.229C117.915 61.0788 117.724 60.9556 117.712 60.9556C117.7 60.9556 117.542 60.8727 117.36 60.7714C116.678 60.3922 115.634 60.0542 114.653 59.8947C113.37 59.686 112.854 59.6792 103.434 59.7525ZM71.6138 59.9555C71.5939 60.0066 71.5952 61.8818 71.6168 64.1224C71.6501 67.6297 71.6446 68.2054 71.5759 68.2613C71.4766 68.3424 63.9408 68.3768 63.8594 68.2967C63.829 68.2671 63.8022 66.5382 63.7937 64.0954L63.7796 59.9445L60.1974 59.9362C58.2271 59.9314 56.5043 59.9436 56.3687 59.9635L56.1226 59.9992L56.133 67.923C56.1386 72.2813 56.1595 77.8574 56.1791 80.3147L56.2154 84.7823L60.0529 84.7681L63.8908 84.7543L63.8738 79.8789L63.8568 75.0036L63.9849 74.9769C64.1977 74.9328 71.5194 74.9068 71.5903 74.9498C71.6871 75.0087 71.6841 74.8685 71.69 79.9182C71.6929 82.4877 71.7165 84.6231 71.7423 84.663C71.808 84.7649 79.302 84.7585 79.3719 84.6566C79.4226 84.5823 79.3748 60.3189 79.3232 60.0404L79.2902 59.8629H75.4703C71.9266 59.8629 71.6475 59.8693 71.6138 59.9555ZM153.642 63.4621C155.534 64.3742 154.86 67.1724 152.753 67.1534C150.96 67.1373 150.111 65.0782 151.382 63.8275C151.979 63.2402 152.879 63.0949 153.642 63.4621ZM112.259 65.786C113.626 66.4462 113.629 68.1992 112.265 68.8556L111.932 69.0161H109.71H107.489L107.474 67.3399C107.461 65.7767 107.466 65.6619 107.557 65.6397C107.611 65.6265 108.618 65.6184 109.794 65.622L111.932 65.6281L112.259 65.786ZM111.974 74.335C114.439 74.6308 114.687 77.8207 112.293 78.4289C111.88 78.534 107.762 78.5971 107.58 78.5015L107.46 78.4379L107.474 76.4047L107.489 74.3713L107.711 74.344C108.141 74.2912 111.548 74.2838 111.974 74.335ZM129.121 92.7595C127.969 92.9318 126.795 93.6255 126.347 94.3993C125.806 95.3345 125.709 95.6783 125.712 96.6672C125.716 97.7365 125.964 98.5427 126.463 99.1023C126.555 99.2058 126.668 99.3438 126.714 99.4094C127.311 100.267 129.632 100.901 130.815 100.53C130.907 100.502 131.094 100.445 131.232 100.404C134.775 99.3631 134.815 93.9156 131.287 92.9267C131.15 92.8881 130.964 92.8344 130.873 92.8071C130.639 92.737 129.483 92.7054 129.121 92.7595ZM107.961 92.9222L106.878 92.9511L106.842 93.4432C106.822 93.7136 106.79 94.2546 106.771 94.6453C106.732 95.4316 106.673 95.878 106.509 96.6125C106.449 96.883 106.378 97.2039 106.351 97.3255C106.297 97.5715 106.096 98.1153 105.912 98.5115L105.792 98.771H105.378C104.861 98.771 104.899 98.6366 104.918 100.438L104.934 101.859L105.684 101.874C106.758 101.897 106.684 101.943 106.684 101.258C106.684 100.513 106.475 100.575 109.001 100.575C111.45 100.575 111.238 100.512 111.238 101.238C111.238 101.535 111.262 101.785 111.293 101.804C111.406 101.872 112.978 101.835 113.025 101.763C113.076 101.683 113.087 99.1917 113.036 98.9437L113.002 98.7752L112.522 98.7595L112.043 98.7437L112.03 95.9021C112.016 93.082 112.015 93.0598 111.898 92.965C111.773 92.8624 110.637 92.8502 107.961 92.9222ZM116.25 92.9055C116.196 92.927 116.181 93.7317 116.181 96.6704V100.408L116.306 100.486C116.396 100.542 116.578 100.56 116.958 100.551C117.991 100.526 117.86 100.576 118.22 100.069C118.397 99.8211 118.896 99.1264 119.33 98.5253C119.764 97.924 120.301 97.1801 120.523 96.872C121.104 96.0668 121.068 95.9661 121.068 98.4099C121.068 100.768 120.95 100.527 122.096 100.508L122.984 100.493L123 96.8038C123.008 94.7749 123.001 93.0598 122.985 92.9923C122.955 92.8717 122.939 92.8691 122.136 92.8695H121.318L121.152 93.1142C121.06 93.2486 120.966 93.3592 120.943 93.3599C120.92 93.3605 120.902 93.3872 120.902 93.4194C120.902 93.4789 120.876 93.5159 120.335 94.2353C120.166 94.4607 119.881 94.8563 119.701 95.1145C118.731 96.5064 118.261 97.1235 118.208 97.0717C118.174 97.0383 118.142 96.2388 118.125 95.0116C118.109 93.9085 118.077 92.9753 118.052 92.9376C118.007 92.8695 116.412 92.8412 116.25 92.9055ZM86.4671 93.0322C86.3338 93.1152 86.3789 100.514 86.5135 100.62C86.6096 100.695 88.1151 100.68 88.2419 100.603C88.2795 100.58 88.3001 100.154 88.3001 99.3982C88.3001 98.0793 88.3017 98.0748 88.7367 98.1307C89.1401 98.1825 90.0415 98.0478 90.4105 97.8809C90.94 97.6413 91.7434 96.8621 91.7434 96.5884C91.7434 96.5559 91.7656 96.4864 91.7924 96.4343C92.1762 95.6911 91.9232 94.4105 91.2659 93.768C90.9449 93.4544 90.5387 93.2402 89.9696 93.0849C89.5369 92.9672 86.642 92.9232 86.4671 93.0322ZM97.3691 93.047C97.34 93.0843 97.209 93.3734 97.0779 93.6889C96.9468 94.0047 96.7903 94.3736 96.7298 94.5086C96.5968 94.8064 96.5559 94.9055 96.4432 95.2029C96.3951 95.3297 96.3085 95.5387 96.2506 95.6676C96.1928 95.7966 96.0513 96.1359 95.9362 96.4211C95.8208 96.7067 95.7051 96.9637 95.679 96.9923C95.6528 97.0209 95.6313 97.0756 95.6313 97.1139C95.6313 97.1521 95.5662 97.3255 95.4865 97.4991C95.3185 97.8658 95.3502 97.7908 94.9053 98.8804C94.7151 99.3464 94.5161 99.8259 94.4631 99.9462C94.149 100.659 94.1144 100.627 95.2145 100.627C96.2225 100.627 96.1163 100.697 96.4154 99.8368L96.6622 99.1264L98.1719 99.1116L99.6819 99.0971L99.7571 99.2483C99.7986 99.3316 99.8662 99.5101 99.9078 99.6455C99.9493 99.7805 100.001 99.9159 100.023 99.9462C100.045 99.9761 100.091 100.099 100.124 100.219C100.234 100.61 100.208 100.6 101.114 100.619C102.282 100.644 102.36 100.6 102.102 100.072C102.025 99.9162 101.963 99.7696 101.963 99.7461C101.963 99.7223 101.898 99.5609 101.818 99.3872C101.738 99.2136 101.654 99.0225 101.63 98.9624C101.606 98.9023 101.511 98.681 101.418 98.4707C101.326 98.26 101.158 97.8667 101.046 97.5963C100.81 97.0248 100.75 96.8887 100.553 96.4607C100.473 96.287 100.408 96.1137 100.408 96.0754C100.408 96.0372 100.386 95.9825 100.36 95.9542C100.335 95.9256 100.182 95.5824 100.021 95.1917C99.7433 94.5199 99.675 94.362 99.408 93.7715C99.3469 93.6365 99.2969 93.5123 99.2969 93.4953C99.2969 93.4782 99.2462 93.3551 99.1844 93.2216L99.072 92.9785H98.247C97.6522 92.9785 97.4074 92.9978 97.3691 93.047ZM130.155 94.5295C132.17 94.8846 132.579 97.7821 130.737 98.6504C130.383 98.8177 129.442 98.8611 129.144 98.7244C129.055 98.6836 128.901 98.6122 128.803 98.5659C127.261 97.842 127.444 95.1078 129.066 94.627C129.706 94.4372 129.657 94.4417 130.155 94.5295ZM109.978 94.7408C110.065 94.8035 110.072 94.9756 110.058 96.7765L110.044 98.7437L109.048 98.7588C107.879 98.7762 107.913 98.7939 108.093 98.2658C108.26 97.7764 108.428 97.0846 108.507 96.5578C108.583 96.0561 108.684 95.1229 108.683 94.9306C108.683 94.6903 109.701 94.5411 109.978 94.7408ZM89.5565 94.8707C89.9294 95.0447 90.0379 95.7577 89.7395 96.0713C89.4829 96.3404 88.8374 96.461 88.4426 96.3134L88.3001 96.26V95.5464C88.3001 94.8685 88.306 94.8309 88.4184 94.79C88.6008 94.7234 89.3561 94.7772 89.5565 94.8707ZM98.297 95.2737C98.297 95.3303 98.3189 95.3898 98.3461 95.4062C98.3729 95.4226 98.4078 95.4917 98.4232 95.5599C98.4389 95.6278 98.5572 95.9664 98.686 96.3121C98.8148 96.6575 98.9239 97.0019 98.9282 97.0772L98.9357 97.2136L98.1987 97.229C97.2962 97.2477 97.2933 97.2428 97.6561 96.3938C97.6947 96.3038 97.796 96.0211 97.8813 95.7654C98.0764 95.1795 98.297 94.9187 98.297 95.2737Z" fill="#0F0809"/>
<path fill-rule="evenodd" clip-rule="evenodd" d="M130.177 59.203C128.894 59.2914 127.075 59.6947 126.192 60.0861C126.063 60.1436 125.93 60.1906 125.897 60.1906C125.767 60.1906 124.282 60.9865 123.706 61.3651C122.252 62.3202 120.369 64.2108 120.468 64.617C120.494 64.7222 120.537 65.1226 120.564 65.5069C120.628 66.4308 120.547 67.0872 120.251 68.0256C120.166 68.2945 119.718 68.9412 119.269 69.4429C118.938 69.813 118.117 70.5299 117.958 70.5887C117.907 70.6074 117.902 70.6212 117.944 70.6238C117.982 70.626 118.014 70.6768 118.014 70.736C118.014 70.8643 118.142 70.9515 118.615 71.1448C120.282 71.8275 122.077 74.2099 122.303 76.0398C122.43 77.0737 122.361 79.0579 122.19 79.2827C122.164 79.3165 122.111 79.4548 122.071 79.5902C122.032 79.7256 121.918 79.996 121.819 80.1912C121.72 80.3868 121.608 80.6411 121.57 80.7569L121.5 80.9676L121.77 81.2403C123.614 83.1036 126.438 84.5032 129.01 84.829C129.27 84.8621 129.677 84.9139 129.915 84.9444C130.852 85.065 132.826 84.9933 134.148 84.79C136.264 84.4652 138.601 83.4127 140.171 82.0767C141.066 81.3159 142.185 80.1629 142.419 79.7613C142.448 79.7121 142.503 79.641 142.541 79.603C142.58 79.5648 142.667 79.4358 142.736 79.3159C142.804 79.1962 142.893 79.0985 142.933 79.0985C142.973 79.0985 143.006 79.0695 143.006 79.0345C143.006 78.9991 143.04 78.9315 143.082 78.884C143.197 78.754 144.006 77.1885 144.006 77.0965C144.006 77.0525 144.047 76.9389 144.096 76.8444C144.146 76.7498 144.232 76.5238 144.288 76.3417C144.343 76.1597 144.454 75.8018 144.533 75.5464C145.243 73.2554 145.054 69.8066 144.081 67.2789C143.819 66.5964 143.097 65.2589 142.836 64.9721C142.781 64.9122 142.482 64.5482 142.172 64.1639C141.263 63.0393 140.219 62.0697 139.202 61.4078C138.988 61.2689 138.746 61.1107 138.664 61.0566C137.814 60.4942 136.485 59.9414 135.203 59.6162C134.749 59.5014 134.428 59.4381 133.426 59.2657C132.993 59.1911 130.925 59.1515 130.177 59.203ZM87.9112 59.4024C85.8288 59.6201 84.0707 60.1864 82.3574 61.1911C81.5631 61.6571 80.2741 62.6656 79.7194 63.2554C79.5664 63.4175 79.419 63.5432 79.3916 63.5345C79.3622 63.5252 79.3563 65.5741 79.3772 68.5353C79.3968 71.2943 79.4128 75.2422 79.4131 77.3088C79.4138 80.1674 79.4295 81.0657 79.4795 81.0657C79.5158 81.0657 79.7596 81.2686 80.0214 81.5165C81.8397 83.239 83.9825 84.3758 86.273 84.8325C86.4257 84.8627 86.6662 84.9126 86.8074 84.9431C87.8027 85.157 89.9847 85.2242 91.2522 85.0795C94.5155 84.7074 96.8649 83.6452 99.0351 81.5603C99.3339 81.2734 99.6215 81.0184 99.6738 80.9943C99.8075 80.9322 100.524 80.0256 101.018 79.2927C103.514 75.594 103.778 70.427 101.682 66.3395C101.242 65.4834 100.299 64.1205 99.8872 63.7468C99.8065 63.6735 99.7392 63.5513 99.7369 63.4734C99.7343 63.3962 99.7199 63.3634 99.7045 63.4011C99.6548 63.522 99.5591 63.4754 99.3002 63.2043C99.0757 62.9692 98.8129 62.7309 98.2654 62.2655C98.1121 62.135 97.5516 61.7169 97.2051 61.4747C95.6395 60.38 93.5382 59.6603 91.1411 59.3975C90.255 59.3004 88.8672 59.3023 87.9112 59.4024ZM89.5775 62.2263C89.5778 62.2337 89.7245 62.6701 89.904 63.1962C90.0834 63.722 90.3233 64.4475 90.4374 64.8084C90.5511 65.1689 90.6649 65.5133 90.69 65.5734C90.7152 65.6336 90.9783 66.4202 91.2748 67.322C91.5712 68.2237 91.854 68.9949 91.9036 69.0357C91.9782 69.0972 92.5982 69.1042 95.5549 69.0763C99.6659 69.0374 99.4633 69.01 98.7779 69.5114C97.3332 70.5681 96.5622 71.1296 96.2422 71.3577C95.2133 72.0912 94.2197 72.7958 94.1118 72.8685C93.7265 73.1284 93.3542 73.4374 93.3542 73.4979C93.3542 73.5718 93.9307 75.3342 94.0154 75.5191C94.0429 75.5792 94.3579 76.5135 94.7155 77.5956C95.0731 78.6775 95.3859 79.612 95.4107 79.6722C95.698 80.3713 95.6137 80.4903 95.096 80.116C94.9665 80.0221 94.5776 79.7433 94.2321 79.4963C93.8866 79.2493 93.329 78.8492 92.993 78.6077C92.657 78.3659 92.1824 78.0282 91.938 77.8571C91.6935 77.686 91.0937 77.2589 90.6051 76.9084C89.483 76.1034 89.5961 76.1288 89.0221 76.5495C88.7626 76.7399 88.2469 77.1145 87.8762 77.3821C86.2675 78.544 85.2428 79.2869 84.829 79.5918C84.5845 79.7716 84.2472 80.0108 84.0792 80.1231C83.9112 80.2356 83.7534 80.3588 83.7285 80.3971C83.5641 80.6511 83.5445 80.2961 83.6962 79.8201C83.8622 79.3004 85.0487 75.6815 85.268 75.0271C85.8432 73.3094 85.8403 73.5024 85.2951 73.138C85.1215 73.0219 84.945 72.8933 84.9029 72.8518C84.861 72.8103 84.7254 72.7138 84.6022 72.6373C84.4044 72.5144 82.8114 71.395 81.4762 70.4411C81.2206 70.2584 80.9582 70.0722 80.8931 70.0275C80.2783 69.605 79.8858 69.2882 79.8858 69.2142C79.8858 69.1332 80.2113 69.1229 83.5331 69.0981C85.5389 69.083 87.1908 69.0583 87.2042 69.0435C87.2173 69.0283 87.2686 68.893 87.3183 68.7428C87.5543 68.0308 87.6389 67.767 87.8282 67.1579C88.0504 66.4421 88.1733 66.07 88.2426 65.9012C88.2671 65.841 88.3181 65.6812 88.3557 65.5461C88.3933 65.4107 88.4436 65.2509 88.4681 65.1908C88.4923 65.1306 88.5802 64.8602 88.6633 64.5897C88.8035 64.1327 89.065 63.3229 89.2807 62.6772C89.4052 62.3031 89.5765 62.0433 89.5775 62.2263Z" fill="#E0050C"/>
<path fill-rule="evenodd" clip-rule="evenodd" d="M152.864 59.0465C152.123 59.1266 151.247 59.2681 150.865 59.3691C149.622 59.6984 149.138 59.8743 148.143 60.3583C147.777 60.5365 147.427 60.7134 147.367 60.751C145.462 61.9322 143.692 63.5788 142.987 64.8259C142.818 65.1237 142.921 65.0813 143.124 64.7696C144.443 62.7365 147.134 60.6738 149.519 59.8685C150.348 59.5884 150.88 59.4514 151.837 59.2704C153.67 58.9237 156.796 59.0526 158.307 59.5373C158.399 59.5665 158.698 59.6614 158.974 59.7479C160.658 60.2786 162.295 61.2157 163.597 62.3953C163.895 62.6654 163.894 62.6838 163.542 63.0163C163.381 63.1678 162.352 64.1863 161.255 65.2797C160.157 66.3731 158.189 68.3268 156.881 69.6215C155.573 70.9163 154.502 72.0107 154.502 72.0534C154.502 72.0962 155.382 72.9874 156.46 74.0341C159.808 77.288 163.889 81.3035 163.889 81.3446C163.889 81.4353 162.503 82.5371 161.945 82.8909C161.348 83.2691 160.249 83.8116 159.612 84.0425C159.383 84.1255 159.145 84.212 159.084 84.2342C158.573 84.4213 157.381 84.6873 156.585 84.7918C155.932 84.8777 153.316 84.9095 152.697 84.8388C152.121 84.7732 150.801 84.5374 150.559 84.4567C150.483 84.4313 150.233 84.3557 150.004 84.2885C149.008 83.9968 147.766 83.4189 146.784 82.7909C145.6 82.0332 143.8 80.2911 143.181 79.3035C143.11 79.1906 143.031 79.0986 143.005 79.0986C142.846 79.0986 143.748 80.2451 144.514 81.0176C146.546 83.0649 148.736 84.2232 151.615 84.7716C154.438 85.3093 158.06 84.9166 160.373 83.8216C160.655 83.6884 160.899 83.5794 160.917 83.5794C160.936 83.5794 161.087 83.4935 161.254 83.3884C161.421 83.2832 161.57 83.197 161.585 83.197C161.628 83.197 162.519 82.6246 162.611 82.5374C162.657 82.4943 162.838 82.3541 163.013 82.2255C163.405 81.939 164 81.398 164 81.3292C164 81.3012 163.256 80.5526 162.347 79.6653C157.936 75.3591 154.613 72.0766 154.627 72.039C154.642 71.9965 157.533 69.1051 161.664 65.0031C164.014 62.6696 164.029 62.6516 163.819 62.476C163.75 62.4184 163.594 62.2789 163.472 62.1657C163.35 62.0525 163.15 61.8875 163.028 61.7994C162.906 61.7113 162.769 61.6045 162.724 61.5624C162.096 60.9745 159.621 59.7531 158.612 59.5334C158.506 59.5099 158.268 59.4485 158.085 59.3964C157.608 59.2614 156.785 59.1253 155.947 59.044C155.332 58.9841 153.428 58.9857 152.864 59.0465ZM90.7019 59.354C90.7555 59.3678 90.8428 59.3678 90.8964 59.354C90.9497 59.3405 90.9062 59.3292 90.799 59.3292C90.6921 59.3292 90.6486 59.3405 90.7019 59.354ZM99.6964 59.71C99.6474 59.7582 99.6298 60.2609 99.6298 61.6315C99.6298 62.6526 99.6484 63.4694 99.6713 63.4472C99.6938 63.4247 99.7046 62.6111 99.6951 61.6386C99.6791 59.9763 99.684 59.8676 99.7788 59.819C99.9383 59.7373 112.669 59.6743 113.489 59.7508C115.132 59.9049 116.404 60.2403 117.36 60.7716C117.542 60.8729 117.7 60.9558 117.712 60.9558C117.802 60.9558 118.618 61.5775 118.948 61.8971C119.599 62.5275 120.009 63.2224 120.368 64.3065C120.386 64.3615 120.428 64.3889 120.463 64.368C120.497 64.3471 120.503 64.3149 120.476 64.2962C120.449 64.2773 120.395 64.1396 120.356 63.9901C120.184 63.3372 119.654 62.4606 119.107 61.9238C117.888 60.7294 116.291 60.0168 114.181 59.7264C113.398 59.619 99.805 59.6032 99.6964 59.71ZM73.5264 59.8084L71.5548 59.8357L71.5503 64.0161L71.5457 68.1965L67.7784 68.24C64.7169 68.2753 64.0027 68.2702 63.9654 68.2126C63.9406 68.1737 63.918 66.3712 63.9157 64.2075C63.9135 62.0435 63.8939 60.1744 63.8723 60.0541L63.8327 59.8357L59.974 59.8557C57.1954 59.8701 56.0979 59.893 56.0544 59.9377C56.0057 59.9878 56.0841 84.7635 56.1338 84.8861C56.1479 84.9211 63.8621 84.8433 63.921 84.8073C63.9537 84.7876 63.9736 82.9234 63.9736 79.9213V75.0674L66.1537 75.0301C67.3526 75.0095 69.0584 75.0005 69.9441 75.0099L71.5548 75.0272L71.5689 79.8582C71.579 83.3173 71.6009 84.7101 71.6454 84.7629C71.7483 84.8854 79.3158 84.8703 79.4407 84.7474C79.5322 84.6574 79.5678 81.8296 79.4845 81.2662C79.4047 80.7281 79.3714 81.3308 79.3949 82.8906C79.409 83.8254 79.3992 84.6204 79.3734 84.6568C79.3011 84.7587 71.8078 84.7651 71.7421 84.6632C71.7163 84.6233 71.6928 82.4879 71.6898 79.9184C71.6839 74.8687 71.6869 75.0089 71.5901 74.95C71.5192 74.907 64.1975 74.933 63.9847 74.9771L63.8566 75.0038L63.8736 79.8791L63.8906 84.7545L60.0527 84.7684L56.2152 84.7825L56.1789 80.3149C56.1593 77.8576 56.1384 72.2815 56.1328 67.9232L56.1224 59.9994L56.3685 59.9637C56.5041 59.9438 58.227 59.9316 60.1972 59.9364L63.7795 59.9447L63.7935 64.0956C63.802 66.5384 63.8288 68.2673 63.8592 68.2969C63.9406 68.377 71.4764 68.3426 71.5758 68.2615C71.6444 68.2056 71.65 67.6299 71.6166 64.1226C71.595 61.882 71.5937 60.0068 71.6137 59.9557C71.6454 59.875 79.2514 59.7965 79.3132 59.8766C79.3188 59.884 79.3387 60.714 79.3567 61.7209L79.39 63.5514L79.4018 61.7138C79.4119 60.1467 79.4015 59.8663 79.3312 59.809C79.2465 59.7399 78.4611 59.7399 73.5264 59.8084ZM152.334 63.298C150.853 63.6096 150.269 65.507 151.329 66.5664C152.327 67.564 154.021 67.2784 154.586 66.0165C155.236 64.5657 153.912 62.9664 152.334 63.298ZM153.337 63.4283C155.377 64.0547 154.916 67.0764 152.781 67.0764C150.808 67.0764 150.117 64.2792 151.911 63.5524C152.038 63.5006 152.18 63.4379 152.225 63.4125C152.354 63.3417 153.09 63.3524 153.337 63.4283ZM107.557 65.6399C107.466 65.6621 107.46 65.7769 107.474 67.3401L107.488 69.0163H109.71H111.932L112.265 68.8558C113.629 68.1994 113.626 66.4464 112.259 65.7862L111.932 65.6283L109.793 65.6222C108.617 65.6186 107.611 65.6267 107.557 65.6399ZM112.24 65.8611C113.515 66.486 113.513 68.1679 112.237 68.7642L111.932 68.907L109.724 68.9224L107.516 68.9378V67.3604C107.516 66.4927 107.534 65.7653 107.556 65.7437C107.674 65.6276 111.984 65.7357 112.24 65.8611ZM96.1449 69.0813C96.1982 69.0951 96.2858 69.0951 96.3391 69.0813C96.3927 69.0674 96.3489 69.0562 96.242 69.0562C96.1351 69.0562 96.0913 69.0674 96.1449 69.0813ZM97.4248 69.0842C97.6938 69.0944 98.1184 69.0941 98.3691 69.0842C98.6195 69.0742 98.3995 69.0658 97.8805 69.0658C97.3611 69.0658 97.1562 69.0742 97.4248 69.0842ZM117.774 70.6368C117.658 70.7008 117.652 70.8246 117.763 70.8668C117.887 70.9134 118.013 70.8484 118.013 70.7375C118.013 70.6166 117.899 70.568 117.774 70.6368ZM107.711 74.3442L107.488 74.3715L107.474 76.4049L107.459 78.4381L107.58 78.5017C107.762 78.5973 111.88 78.5342 112.293 78.4291C114.687 77.8209 114.439 74.631 111.974 74.3352C111.548 74.284 108.141 74.2914 107.711 74.3442ZM112.265 74.4734C114.353 75.0234 114.431 77.7392 112.376 78.3049C111.959 78.4197 107.691 78.4886 107.622 78.3818C107.566 78.2943 107.553 74.4902 107.609 74.4355C107.685 74.3606 111.97 74.3956 112.265 74.4734ZM121.334 80.9976C121.287 81.0501 121.24 81.1231 121.228 81.1597C121.143 81.4279 119.895 82.5915 119.262 82.9935C118.142 83.7042 116.905 84.1618 115.459 84.4008C114.58 84.5461 113.755 84.5654 107.025 84.5985C100.956 84.6285 99.889 84.6223 99.8474 84.5574C99.8203 84.5156 99.7978 83.6881 99.7974 82.7188C99.7968 81.7495 99.7746 80.9565 99.7481 80.9565C99.6742 80.9565 99.6664 84.3979 99.7399 84.5879L99.8007 84.7452L106.838 84.7085C110.864 84.6876 114.137 84.6481 114.487 84.6162C115.07 84.5629 115.277 84.5323 116 84.3921C116.405 84.3136 117.233 84.0837 117.36 84.0145C117.413 83.9856 117.484 83.9621 117.518 83.9621C117.668 83.9621 119.033 83.2614 119.485 82.9517C120.119 82.5172 121.29 81.3906 121.29 81.215C121.29 81.133 121.453 81.0025 121.511 81.0378C121.543 81.0571 121.552 81.0356 121.533 80.9867C121.491 80.8767 121.438 80.8796 121.334 80.9976ZM128.955 92.6818C127.978 92.8735 127.393 93.1674 126.742 93.7949C126.44 94.0856 125.955 94.7703 125.955 94.9054C125.955 94.9478 125.938 94.9993 125.917 95.0198C125.772 95.1629 125.567 96.111 125.567 96.64C125.566 97.9943 126.115 99.1051 127.208 99.9663C128.657 101.108 131.359 100.93 132.798 99.5981C135.007 97.553 134.091 93.5125 131.257 92.8086C130.353 92.5838 129.651 92.5452 128.955 92.6818ZM130.873 92.8073C130.963 92.8346 131.15 92.8883 131.287 92.9269C134.815 93.9158 134.775 99.3633 131.232 100.405C131.094 100.445 130.907 100.502 130.815 100.53C129.632 100.901 127.311 100.267 126.713 99.4096C126.668 99.344 126.555 99.206 126.463 99.1025C125.964 98.5429 125.715 97.7367 125.712 96.6674C125.709 95.6785 125.805 95.3347 126.347 94.3995C126.693 93.801 127.808 93.0353 128.593 92.8561C129.233 92.7101 130.462 92.6838 130.873 92.8073ZM116.458 92.8047C116.321 92.814 116.183 92.8459 116.153 92.8758C116.079 92.9475 116.114 100.525 116.188 100.602C116.244 100.659 117.541 100.697 117.803 100.649C117.926 100.627 118.105 100.411 118.743 99.5186C119.176 98.9121 119.664 98.2396 119.827 98.0239C119.99 97.8084 120.124 97.6161 120.124 97.5968C120.124 97.5656 120.311 97.3054 120.497 97.0784C120.535 97.0327 120.654 96.8725 120.761 96.7224L120.957 96.449L120.958 98.3889C120.958 99.8422 120.976 100.363 121.029 100.465L121.099 100.602L122.053 100.617C122.989 100.632 123.008 100.63 123.073 100.51C123.159 100.352 123.089 92.9343 123 92.8285C122.959 92.7796 122.711 92.7603 122.121 92.7603H121.299L121.138 92.9652C120.99 93.1543 120.233 94.2052 119.802 94.8211C119.701 94.9648 119.588 95.1195 119.55 95.1646C119.364 95.3884 118.791 96.2104 118.791 96.2535C118.791 96.2808 118.772 96.3114 118.749 96.3213C118.696 96.3445 118.402 96.7304 118.402 96.777C118.402 96.796 118.365 96.8488 118.319 96.8938C118.245 96.9668 118.236 96.7548 118.236 94.9877C118.236 93.3591 118.221 92.9806 118.157 92.8938C118.078 92.788 117.299 92.7471 116.458 92.8047ZM97.3304 92.9185C97.2627 92.9922 97.1156 93.309 96.9081 93.8258C96.8842 93.8859 96.7993 94.0772 96.7198 94.2509C96.6404 94.4246 96.5754 94.5908 96.5754 94.6204C96.5754 94.65 96.5525 94.7169 96.5244 94.7693C96.4103 94.9825 96.1864 95.499 96.1864 95.5495C96.1864 95.5791 96.1635 95.646 96.1354 95.6981C96.0518 95.8537 95.853 96.3085 95.853 96.3445C95.853 96.3625 95.8132 96.4673 95.7641 96.5773C95.7154 96.687 95.6527 96.832 95.6252 96.8996C95.5108 97.1822 95.4487 97.3321 95.383 97.4871C95.3448 97.5772 95.2873 97.7126 95.2556 97.7878C95.2239 97.8627 95.1454 98.0409 95.0813 98.1834C95.017 98.3258 94.9647 98.4574 94.9647 98.4757C94.9647 98.494 94.9245 98.5985 94.8758 98.7085C94.8267 98.8182 94.765 98.9571 94.7382 99.0173C94.7117 99.0774 94.6375 99.2614 94.5731 99.426C94.5087 99.591 94.3943 99.8589 94.3188 100.021C94.2325 100.207 94.1874 100.39 94.1979 100.514L94.2149 100.711L95.1438 100.726C96.2338 100.744 96.2126 100.753 96.4057 100.158C96.4727 99.9512 96.5492 99.7331 96.5757 99.673C96.6018 99.6129 96.6551 99.4714 96.6937 99.3588L96.7643 99.1539H98.1893H99.6147L99.7098 99.4135C99.7621 99.5563 99.8269 99.7222 99.8537 99.7823C99.8801 99.8425 99.9383 100.002 99.9828 100.137C100.122 100.56 100.197 100.683 100.319 100.691C100.926 100.724 102.202 100.683 102.271 100.627C102.4 100.522 102.326 100.294 101.713 98.9079C101.673 98.8179 101.56 98.5471 101.462 98.3069C101.364 98.0663 101.239 97.7714 101.184 97.6511C101.13 97.5309 100.955 97.125 100.797 96.7494C100.638 96.3738 100.476 95.9927 100.436 95.9023C100.396 95.8122 100.283 95.5418 100.185 95.3012C100.087 95.0607 99.9468 94.7343 99.8736 94.5754C99.8007 94.4168 99.7409 94.2773 99.7409 94.2651C99.7409 94.2532 99.666 94.084 99.5742 93.8891C99.4827 93.6942 99.4078 93.5212 99.4078 93.5045C99.4078 93.3385 99.1117 92.8767 98.9852 92.8455C98.6754 92.769 97.4167 92.8243 97.3304 92.9185ZM106.794 92.8976C106.745 92.9558 106.709 93.3385 106.678 94.1416C106.633 95.3003 106.558 96.085 106.463 96.394C106.435 96.4844 106.382 96.7056 106.346 96.8861C106.192 97.637 105.841 98.5532 105.66 98.6748C105.627 98.697 105.449 98.7153 105.264 98.7159C104.773 98.7169 104.795 98.6413 104.795 100.331C104.795 102.173 104.691 102.01 105.85 101.986C106.883 101.964 106.85 101.989 106.85 101.22V100.684H108.988H111.126V101.207C111.126 101.977 111.079 101.941 112.096 101.941C112.566 101.941 112.99 101.926 113.038 101.908C113.147 101.867 113.174 98.8069 113.066 98.7413C113.033 98.7211 112.839 98.7069 112.635 98.7095C112.047 98.7175 112.102 99.0086 112.071 95.7267L112.043 92.842L109.453 92.8278C107.18 92.8156 106.856 92.824 106.794 92.8976ZM86.4271 92.9217C86.2303 93.005 86.227 93.0838 86.2679 96.9343C86.3137 101.299 86.1757 100.793 87.3203 100.792C88.5241 100.791 88.4228 100.919 88.4133 99.4135C88.4094 98.7899 88.4257 98.2795 88.4503 98.2792C90.7621 98.2705 92.0145 97.318 92.0417 95.5473C92.0613 94.2721 91.4259 93.4427 90.1048 93.0189C89.7269 92.8976 86.6748 92.8172 86.4271 92.9217ZM111.898 92.9652C112.015 93.06 112.016 93.0822 112.029 95.9023L112.043 98.7439L112.522 98.7597L113.002 98.7754L113.036 98.9439C113.086 99.1919 113.076 101.683 113.025 101.763C112.978 101.835 111.405 101.872 111.293 101.804C111.262 101.785 111.237 101.535 111.237 101.238C111.237 100.512 111.45 100.575 109.001 100.575C106.475 100.575 106.683 100.513 106.683 101.258C106.683 101.943 106.758 101.897 105.684 101.875L104.934 101.859L104.918 100.438C104.899 98.6368 104.861 98.7712 105.378 98.7712H105.792L105.912 98.5117C106.095 98.1155 106.297 97.5717 106.351 97.3257C106.378 97.2041 106.448 96.8832 106.509 96.6127C106.672 95.8782 106.732 95.4318 106.771 94.6455C106.79 94.2548 106.822 93.7138 106.842 93.4434L106.878 92.9513L107.961 92.9224C110.637 92.8504 111.772 92.8626 111.898 92.9652ZM118.052 92.9378C118.076 92.9755 118.109 93.9087 118.124 95.0118C118.141 96.239 118.174 97.0385 118.208 97.0719C118.26 97.1237 118.731 96.5066 119.701 95.1147C119.881 94.8565 120.166 94.4609 120.335 94.2355C120.876 93.5161 120.901 93.4791 120.901 93.4196C120.901 93.3874 120.92 93.3607 120.943 93.3601C120.966 93.3594 121.06 93.2488 121.151 93.1144L121.318 92.8697H122.136C122.939 92.8693 122.955 92.8719 122.984 92.9925C123.001 93.06 123.008 94.7751 122.999 96.804L122.984 100.493L122.096 100.508C120.95 100.527 121.068 100.768 121.068 98.4101C121.068 95.9663 121.104 96.067 120.523 96.8722C120.301 97.1803 119.764 97.9242 119.33 98.5255C118.896 99.1266 118.397 99.8213 118.22 100.069C117.86 100.576 117.991 100.526 116.958 100.551C116.578 100.56 116.395 100.542 116.306 100.486L116.181 100.408V96.6706C116.181 93.7318 116.195 92.9272 116.25 92.9057C116.412 92.8414 118.007 92.8697 118.052 92.9378ZM89.9694 93.0851C91.0899 93.3906 91.7044 93.9949 91.9067 94.9896C92.0073 95.4852 91.9573 96.1142 91.7923 96.4345C91.7655 96.4866 91.7432 96.5561 91.7432 96.5886C91.7432 96.8623 90.9399 97.6415 90.4104 97.8811C90.0414 98.048 89.1399 98.1827 88.7366 98.131C88.3015 98.075 88.2999 98.0795 88.2999 99.3984C88.2999 100.154 88.2793 100.581 88.2417 100.603C88.1149 100.681 86.6094 100.695 86.5134 100.62C86.3787 100.514 86.3336 93.1154 86.4669 93.0324C86.6418 92.9234 89.5367 92.9674 89.9694 93.0851ZM99.1843 93.2218C99.246 93.3553 99.2967 93.4784 99.2967 93.4955C99.2967 93.5125 99.3467 93.6367 99.4078 93.7717C99.6749 94.3622 99.7432 94.5201 100.02 95.1919C100.181 95.5826 100.334 95.9258 100.36 95.9544C100.386 95.9827 100.407 96.0374 100.407 96.0756C100.407 96.1139 100.473 96.2872 100.553 96.4609C100.75 96.8889 100.809 97.025 101.046 97.5965C101.158 97.8669 101.325 98.2602 101.418 98.4709C101.511 98.6812 101.606 98.9025 101.63 98.9626C101.654 99.0227 101.738 99.2138 101.818 99.3874C101.897 99.5611 101.962 99.7225 101.962 99.7463C101.962 99.7698 102.025 99.9164 102.101 100.072C102.36 100.6 102.281 100.644 101.114 100.619C100.208 100.6 100.233 100.61 100.124 100.219C100.091 100.099 100.045 99.9763 100.023 99.9464C100.001 99.9161 99.9491 99.7807 99.9076 99.6457C99.8661 99.5103 99.7984 99.3318 99.7569 99.2485L99.6817 99.0973L98.1717 99.1118L96.662 99.1266L96.4152 99.837C96.1161 100.698 96.2224 100.627 95.2144 100.627C94.1142 100.627 94.1488 100.659 94.4629 99.9464C94.5159 99.8261 94.7149 99.3466 94.9052 98.8806C95.35 97.791 95.3183 97.866 95.4863 97.4993C95.5661 97.3257 95.6311 97.1523 95.6311 97.1141C95.6311 97.0758 95.6527 97.0211 95.6788 96.9925C95.705 96.9639 95.8207 96.7069 95.9361 96.4213C96.0511 96.1361 96.1926 95.7968 96.2505 95.6679C96.3083 95.5389 96.3949 95.3299 96.443 95.2031C96.5558 94.9057 96.5966 94.8066 96.7296 94.5088C96.7901 94.3738 96.9467 94.0049 97.0777 93.6891C97.4 92.9131 97.2918 92.9787 98.2469 92.9787H99.0718L99.1843 93.2218ZM129.454 94.5175C128.987 94.6429 128.856 94.6947 128.599 94.8539C127.366 95.6186 127.494 97.9515 128.803 98.5661C128.901 98.6124 129.055 98.6838 129.143 98.7246C129.442 98.8613 130.383 98.8179 130.737 98.6506C132.267 97.93 132.316 95.6174 130.821 94.7552C130.434 94.5323 129.806 94.423 129.454 94.5175ZM130.589 94.7555C131.422 95.143 132.018 96.2323 131.796 96.9603C131.761 97.0768 131.731 97.2183 131.731 97.2749C131.731 97.4781 131.413 98.0361 131.178 98.2445C129.763 99.5003 127.599 98.2606 127.853 96.3397C127.962 95.5164 128.369 95.0073 129.177 94.6815C129.468 94.5641 130.268 94.6059 130.589 94.7555ZM108.808 94.7291C108.72 94.7638 108.683 94.8237 108.683 94.9308C108.684 95.1231 108.583 96.0563 108.507 96.558C108.428 97.0848 108.26 97.7766 108.093 98.266C107.913 98.7941 107.879 98.7764 109.048 98.759L110.043 98.7439L110.058 96.7767C110.072 94.9758 110.065 94.8037 109.978 94.741C109.868 94.6616 109.001 94.6526 108.808 94.7291ZM88.4182 94.7902C88.3058 94.8311 88.2999 94.8687 88.2999 95.5466V96.2602L88.4424 96.3136C89.3334 96.6468 90.2005 95.919 89.8292 95.1491C89.6805 94.841 88.8552 94.631 88.4182 94.7902ZM109.976 96.6304C110.02 98.987 110.141 98.7166 109.041 98.7166C107.99 98.7166 108.047 98.7507 108.219 98.2249C108.485 97.4151 108.649 96.5648 108.738 95.5286C108.807 94.7236 108.755 94.7822 109.399 94.7822H109.942L109.976 96.6304ZM89.6285 95.0594C90.1992 95.6209 89.5521 96.3831 88.6343 96.2303L88.411 96.1933V95.5788C88.411 94.843 88.3715 94.8915 88.9712 94.8915C89.4403 94.8915 89.4638 94.8973 89.6285 95.0594ZM98.1184 95.207C98.073 95.2588 97.9661 95.5103 97.8811 95.7656C97.7958 96.0213 97.6945 96.304 97.6559 96.394C97.2931 97.243 97.2961 97.2479 98.1985 97.2292L98.9355 97.2138L98.928 97.0774C98.9238 97.0022 98.8146 96.6577 98.6858 96.3123C98.557 95.9666 98.4387 95.628 98.423 95.5601C98.4077 95.4919 98.3727 95.4228 98.3459 95.4064C98.3188 95.39 98.2969 95.3305 98.2969 95.2739C98.2969 95.1276 98.2145 95.0967 98.1184 95.207ZM98.5139 96.1483C98.5819 96.3435 98.6584 96.5526 98.6839 96.6127C98.9215 97.1739 98.9565 97.1369 98.1776 97.1478C97.5817 97.1562 97.5474 97.1507 97.5543 97.0485C97.5618 96.9324 97.8792 96.0187 97.9664 95.8621C97.9955 95.81 98.0194 95.7399 98.0194 95.7064C98.0194 95.673 98.0602 95.5604 98.1106 95.4566L98.2018 95.2671L98.2962 95.5302C98.3479 95.6746 98.4459 95.9528 98.5139 96.1483Z" fill="#989596"/>
<path fill-rule="evenodd" clip-rule="evenodd" d="M130.427 59.072C130.396 59.0865 130.096 59.1222 129.76 59.1512C128.889 59.2271 128.457 59.3004 127.511 59.5322C127.047 59.6461 126.329 59.8809 125.913 60.0552C125.313 60.3063 123.786 61.11 123.678 61.2309C123.663 61.2483 123.466 61.3891 123.241 61.5441C122.541 62.0253 121.507 62.9698 120.956 63.6319C120.819 63.796 120.638 64.0008 120.554 64.087C120.383 64.2629 120.372 64.2899 120.471 64.2896C120.509 64.2893 120.664 64.1391 120.815 63.9551C121.517 63.1003 122.752 61.9947 123.706 61.3666C124.286 60.9852 125.767 60.1912 125.899 60.1912C125.933 60.1912 126.064 60.142 126.191 60.0819C126.317 60.0217 126.444 59.9725 126.471 59.9725C126.499 59.9725 126.601 59.9381 126.697 59.896C126.793 59.8542 126.934 59.8043 127.011 59.7853C129.067 59.2795 129.396 59.2271 130.843 59.1778C133.662 59.0817 136.181 59.6413 138.291 60.8328C138.402 60.8952 138.55 60.9791 138.622 61.0193C138.769 61.1032 139.648 61.7033 139.807 61.8294C140.708 62.5414 141.478 63.3036 142.236 64.2372C142.577 64.6569 142.862 65 142.869 65C142.876 65 142.926 64.9325 142.979 64.8498C143.032 64.7672 143.043 64.7302 143.002 64.7678C142.889 64.873 142.858 64.8556 142.666 64.5765C141.379 62.7103 138.938 60.8106 136.786 59.9989C136.047 59.7204 135.636 59.593 135.036 59.4567C134.822 59.4081 134.597 59.3544 134.536 59.337C133.933 59.1669 130.672 58.9569 130.427 59.072ZM88.439 59.2393C87.8552 59.2669 86.7224 59.4348 86.0785 59.5892C85.665 59.6882 84.7691 59.94 84.69 59.9796C84.6443 60.0024 84.3567 60.1134 84.0514 60.2263C83.7458 60.3391 83.3496 60.5128 83.1712 60.6118C82.9927 60.7112 82.8241 60.7923 82.7963 60.7923C82.7688 60.7923 82.7463 60.8112 82.7463 60.8341C82.7463 60.8572 82.6486 60.9174 82.5293 60.9682C81.7523 61.2994 79.4137 63.1881 79.4137 63.4843C79.4137 63.5519 79.5223 63.4695 79.7533 63.2261C79.9403 63.0296 80.4466 62.5839 80.878 62.2359C81.5673 61.6802 81.9004 61.4496 82.5917 61.0486C82.8904 60.8752 83.7046 60.4855 84.107 60.3231C84.3207 60.2369 84.5041 60.1471 84.5142 60.124C84.5243 60.1008 84.5815 60.0819 84.6417 60.0819C84.7015 60.0819 84.9558 60.0195 85.2061 59.9432C86.1079 59.6686 86.7619 59.5322 87.7448 59.4142C88.455 59.329 90.8135 59.3303 91.4381 59.4162C92.8583 59.612 93.9461 59.8889 95.076 60.3423C95.6774 60.5839 96.9514 61.2621 97.2652 61.5081C97.2982 61.5342 97.5002 61.684 97.714 61.8413C97.9277 61.9989 98.1761 62.1899 98.2653 62.2661C98.8128 62.7315 99.0756 62.9698 99.3001 63.2049C99.5636 63.4808 99.6299 63.5197 99.6299 63.3978C99.6299 63.1952 97.3214 61.2843 97.0769 61.2843C97.0455 61.2843 97.0197 61.2653 97.0197 61.2418C97.0197 61.2187 96.9259 61.1521 96.8115 61.0939C96.6968 61.0357 96.5406 60.9476 96.4644 60.8981C96.168 60.7061 94.9619 60.1365 94.8514 60.1365C94.8214 60.1365 94.7534 60.1124 94.7001 60.0831C94.5324 59.9899 93.3999 59.6448 93.2623 59.6448C93.1897 59.6448 93.0871 59.6223 93.0341 59.5946C92.9809 59.567 92.6877 59.5046 92.3821 59.456C92.0768 59.4075 91.7078 59.3444 91.5627 59.3158C91.2845 59.2611 89.1038 59.2078 88.439 59.2393ZM72.565 59.795C73.0899 59.804 73.9649 59.804 74.5087 59.795C75.0529 59.786 74.6235 59.7786 73.5543 59.7786C72.4852 59.7786 72.0401 59.786 72.565 59.795ZM75.874 59.7934C75.9583 59.8059 76.0832 59.8056 76.1515 59.7924C76.2198 59.7796 76.1508 59.7693 75.9982 59.7696C75.8455 59.7702 75.7897 59.7808 75.874 59.7934ZM58.7115 59.8497C59.1315 59.859 59.8189 59.859 60.2389 59.8497C60.6589 59.8403 60.3154 59.8326 59.4754 59.8326C58.635 59.8326 58.2915 59.8403 58.7115 59.8497ZM56 62.9781C56 63.6844 56.0082 63.9735 56.0177 63.6204C56.0275 63.2673 56.0275 62.6893 56.0177 62.3362C56.0082 61.9831 56 62.2719 56 62.9781ZM89.4208 62.3089C89.3937 62.3613 89.3306 62.5273 89.2806 62.6778C89.0649 63.3235 88.8034 64.1333 88.6632 64.5903C88.5802 64.8608 88.4923 65.1312 88.4681 65.1914C88.4436 65.2515 88.3932 65.4113 88.3556 65.5467C88.3181 65.6818 88.2671 65.8416 88.2426 65.9018C88.1958 66.0159 88.0965 66.3121 87.95 66.7762C87.9023 66.9264 87.7585 67.3814 87.6304 67.7873C87.5022 68.1928 87.3558 68.6479 87.3052 68.798L87.2127 69.0714L83.5494 69.0987C80.2126 69.1235 79.8857 69.1338 79.8857 69.2148C79.8857 69.2943 80.6041 69.8648 80.9006 70.0211C80.964 70.0542 81.049 70.114 81.0895 70.1536C81.1921 70.2539 84.3351 72.4732 84.6623 72.6765C84.7538 72.7334 84.8626 72.8132 84.9041 72.854C84.9456 72.8945 85.1215 73.0225 85.295 73.1386C85.8406 73.503 85.8432 73.3039 85.2692 75.0277C85.0035 75.8255 83.8331 79.392 83.6961 79.8207C83.5444 80.2967 83.5644 80.6543 83.7285 80.3967C83.7533 80.3578 83.8461 80.2774 83.9347 80.2179C84.0233 80.1584 84.1507 80.0732 84.2184 80.0278C84.2857 79.9828 84.5508 79.7927 84.8071 79.6056C85.2653 79.2711 86.5498 78.3407 87.8762 77.3827C88.2468 77.1151 88.7626 76.7405 89.0221 76.5501C89.599 76.1272 89.4624 76.0912 90.7439 77.0055C91.309 77.4084 92.0556 77.94 92.403 78.1864C92.7501 78.4327 93.2904 78.819 93.6032 79.0444C95.5404 80.4404 95.5757 80.462 95.5757 80.2584C95.5757 80.1571 95.5032 79.8989 95.411 79.6728C95.3865 79.6126 95.2701 79.2682 95.1521 78.9077C95.0345 78.5469 94.9191 78.2436 94.8959 78.2337C94.8727 78.2237 94.8537 78.1619 94.8537 78.0963C94.8537 78.0307 94.8014 77.8423 94.7377 77.6773C94.6739 77.5126 94.602 77.3039 94.5778 77.2135C94.5112 76.9643 94.0729 75.6438 94.016 75.5197C93.9885 75.4596 93.8401 75.0293 93.6865 74.5633C93.5326 74.0973 93.3783 73.6609 93.3433 73.5934C93.3084 73.5258 93.2904 73.4634 93.3031 73.4544C93.3159 73.4457 93.4757 73.329 93.6584 73.1949C93.8408 73.0608 94.0451 72.9145 94.1118 72.8691C94.2196 72.7964 95.2132 72.0918 96.2422 71.3583C96.4406 71.2168 96.9906 70.818 97.4639 70.4723C97.9375 70.1266 98.5291 69.6943 98.7792 69.512C99.0289 69.3296 99.2125 69.1598 99.1874 69.1344C99.1622 69.109 97.5018 69.0917 95.4973 69.0958C92.5566 69.1023 91.8487 69.0901 91.8304 69.0328C91.8179 68.9939 91.7179 68.6794 91.6078 68.3337C91.4976 67.9879 91.3721 67.6191 91.329 67.5139C91.2858 67.4088 91.1587 67.0277 91.0469 66.6668C90.9351 66.3063 90.8211 65.9876 90.7936 65.9593C90.7661 65.9307 90.7439 65.8503 90.7439 65.7808C90.7439 65.7114 90.721 65.6117 90.6929 65.5596C90.6652 65.5075 90.5494 65.1695 90.4364 64.809C90.3229 64.4482 90.0834 63.7226 89.9039 63.1968C89.7245 62.6707 89.5777 62.2343 89.5774 62.2269C89.5771 62.1709 89.4607 62.232 89.4208 62.3089ZM89.8232 63.3335C89.9641 63.7541 90.1013 64.1478 90.1281 64.2079C90.1553 64.2677 90.219 64.4646 90.2703 64.645C90.3213 64.8254 90.4115 65.093 90.4704 65.2396C90.5292 65.3866 90.5772 65.5406 90.5772 65.5821C90.5772 65.6236 90.5991 65.7001 90.6259 65.7522C90.6524 65.8043 90.7433 66.0683 90.8269 66.3391C90.9109 66.6096 90.9995 66.8801 91.0234 66.9402C91.0472 67.0003 91.1348 67.2583 91.2175 67.5139C91.3005 67.7693 91.3875 68.0275 91.411 68.0876C91.4349 68.1478 91.5199 68.4099 91.6006 68.6701C91.6885 68.9547 91.7826 69.1563 91.8366 69.1766C91.8859 69.1952 93.5159 69.1952 95.4587 69.1766L98.9913 69.1425L98.7968 69.3296C98.6899 69.4326 98.415 69.6477 98.1859 69.8079C97.9568 69.968 97.761 70.1198 97.7509 70.1452C97.7408 70.1706 97.7032 70.1915 97.6672 70.1915C97.6313 70.1915 97.5394 70.2478 97.4636 70.3169C97.3874 70.3858 97.2001 70.525 97.0475 70.626C96.7066 70.8518 96.014 71.3448 95.932 71.4203C95.899 71.4509 95.8114 71.5181 95.7375 71.5696C95.5215 71.721 94.4654 72.4787 93.83 72.9386C93.1459 73.4335 93.1639 73.3766 93.4368 74.1809C93.5437 74.4964 93.7833 75.2094 93.9689 75.7654C94.1546 76.3214 94.3262 76.8257 94.3504 76.8858C94.3745 76.946 94.4618 77.2042 94.5445 77.4596C94.6272 77.7149 94.7164 77.9732 94.7429 78.0333C94.7691 78.0934 94.8171 78.2288 94.8488 78.334C94.972 78.7382 95.194 79.4043 95.2407 79.5088C95.2675 79.5689 95.3018 79.6795 95.3172 79.7548C95.3322 79.8297 95.3626 79.949 95.3848 80.0198L95.425 80.1481L95.2364 80.0523C95.1328 79.9999 94.9197 79.8558 94.7632 79.7326C94.4612 79.4953 94.2513 79.3422 94.0444 79.2084C93.7689 79.0299 92.9887 78.4729 92.9194 78.4051C92.8789 78.3655 92.8021 78.3102 92.7491 78.2825C92.6962 78.2546 92.3795 78.0352 92.0454 77.7953C91.7114 77.5551 91.2031 77.1907 90.9158 76.9855C90.6285 76.7804 90.236 76.4958 90.0432 76.353C89.597 76.0227 89.5228 76.0265 89.0067 76.4076C88.7724 76.5803 88.3919 76.8572 88.1608 77.0225C87.9301 77.1878 87.7108 77.3489 87.6735 77.3811C87.6363 77.4129 87.4182 77.5718 87.1891 77.7342C86.96 77.8966 86.7603 78.0449 86.7449 78.0642C86.7296 78.0831 86.6171 78.1635 86.4949 78.2423C86.373 78.3211 86.0814 78.5279 85.8474 78.7012C85.6131 78.8749 85.278 79.1155 85.1025 79.2354C84.927 79.3557 84.7064 79.5181 84.6119 79.5959C84.2916 79.8603 83.7736 80.1861 83.7553 80.1346C83.7451 80.1066 83.7657 79.9912 83.801 79.8783C83.9697 79.338 84.5433 77.5837 84.5828 77.4869C84.7054 77.1875 84.9123 76.5273 84.9123 76.4366C84.9123 76.38 84.9332 76.3105 84.9587 76.2819C84.9842 76.2533 85.0728 76.0089 85.1552 75.7381C85.2378 75.4676 85.3294 75.2036 85.3588 75.1515C85.3882 75.0994 85.4121 74.9997 85.4121 74.9302C85.4121 74.8608 85.432 74.7804 85.4562 74.7517C85.4804 74.7231 85.5454 74.5524 85.6006 74.3719C85.6556 74.1918 85.7203 74.0063 85.7438 73.96C85.7677 73.914 85.8046 73.7738 85.8262 73.649C85.8703 73.3914 85.8925 73.4184 85.2731 72.9836C85.0594 72.8334 84.8587 72.689 84.8277 72.6627C84.7963 72.6363 84.4462 72.388 84.0501 72.1108C83.6536 71.8336 83.0045 71.3737 82.6074 71.0888C82.2103 70.8038 81.7854 70.5041 81.6631 70.4227C81.5409 70.3411 81.4284 70.2603 81.4131 70.2433C81.398 70.2259 81.1415 70.0455 80.8434 69.8419C80.5453 69.6387 80.2698 69.4412 80.2315 69.4036C80.1929 69.3657 80.1246 69.3203 80.0792 69.303C80.0341 69.2856 81.5762 69.2692 83.5062 69.2669C87.0581 69.2624 87.2718 69.2509 87.3346 69.0585C87.3519 69.0055 87.3852 68.9129 87.4088 68.8527C87.4323 68.7926 87.4768 68.6575 87.5075 68.552C87.6503 68.0645 87.8758 67.3682 87.919 67.2824C87.9455 67.2303 87.9667 67.1396 87.9667 67.0807C87.9667 67.0219 87.9919 66.9585 88.0223 66.9402C88.053 66.9215 88.0778 66.853 88.0778 66.7878C88.0778 66.7225 88.1373 66.5089 88.2099 66.3128C88.2828 66.1169 88.4357 65.6612 88.5498 65.3007C88.6642 64.9399 88.7766 64.5958 88.7995 64.5356C88.8413 64.4272 89.096 63.6184 89.2038 63.2515C89.4718 62.3378 89.4908 62.3404 89.8232 63.3335ZM153.947 63.7603C153.947 63.7699 154.029 63.8497 154.128 63.9381L154.308 64.0986L154.145 63.9207C153.993 63.7554 153.947 63.7181 153.947 63.7603ZM71.5459 67.7873C71.5459 68.0124 71.5557 68.1047 71.5678 67.9921C71.5795 67.8793 71.5795 67.695 71.5678 67.5821C71.5557 67.4695 71.5459 67.5618 71.5459 67.7873ZM63.9355 67.869C63.9359 68.0494 63.9463 68.1166 63.9587 68.0185C63.9708 67.9201 63.9708 67.7725 63.9581 67.6905C63.9453 67.6085 63.9352 67.6889 63.9355 67.869ZM65.3485 68.2652C65.6309 68.2748 66.0934 68.2748 66.3761 68.2652C66.6585 68.2552 66.4274 68.2468 65.8623 68.2468C65.2972 68.2468 65.0661 68.2552 65.3485 68.2652ZM158.194 68.4565L157.974 68.6887L158.21 68.4729C158.43 68.2719 158.471 68.2243 158.43 68.2243C158.42 68.2243 158.314 68.3288 158.194 68.4565ZM56.0549 74.2353C56.0549 74.7913 56.0631 75.019 56.0732 74.7408C56.0833 74.4629 56.0833 74.0079 56.0732 73.73C56.0631 73.4518 56.0549 73.6795 56.0549 74.2353ZM67.1573 75.0415C67.7319 75.0502 68.6565 75.0502 69.2122 75.0415C69.7675 75.0325 69.2975 75.0251 68.1672 75.0251C67.037 75.0251 66.5824 75.0325 67.1573 75.0415ZM108.197 78.4292C108.525 78.4391 109.063 78.4391 109.391 78.4292C109.719 78.4195 109.451 78.4118 108.794 78.4118C108.137 78.4118 107.868 78.4195 108.197 78.4292ZM142.736 79.3165C142.667 79.4364 142.58 79.5654 142.541 79.6036C142.503 79.6416 142.448 79.7127 142.419 79.7619C142.185 80.1635 141.066 81.3165 140.171 82.0774C136.827 84.9225 131.37 85.8005 126.627 84.2565C124.999 83.7265 123.345 82.717 121.921 81.383C121.531 81.0183 121.246 80.8614 121.517 81.1608C121.74 81.4084 122.53 82.1134 122.747 82.2591C122.816 82.306 122.886 82.3604 122.901 82.3803C123.013 82.526 124.168 83.265 124.623 83.4818C124.76 83.5477 124.885 83.6152 124.9 83.6323C124.984 83.7259 126.412 84.3449 126.545 84.3449C126.588 84.3449 126.667 84.3668 126.72 84.3932C126.944 84.5048 127.902 84.7672 128.372 84.845C129.634 85.055 130.193 85.1029 131.426 85.1061C132.637 85.1097 132.945 85.083 134.564 84.8366C134.881 84.7884 135.463 84.636 136.036 84.4504C136.219 84.3912 136.457 84.315 136.563 84.2812C136.749 84.223 137.147 84.0548 137.56 83.8609C137.664 83.8117 137.985 83.6422 138.272 83.4843C138.559 83.3264 138.807 83.1975 138.821 83.1975C139.121 83.1975 141.435 81.1852 142.027 80.4105C142.153 80.2452 142.313 80.0484 142.383 79.9732C142.453 79.8982 142.601 79.7075 142.712 79.5499C142.823 79.392 142.95 79.2628 142.994 79.2628C143.06 79.2628 143.062 79.2473 143.006 79.1811C142.905 79.0605 142.873 79.0765 142.736 79.3165ZM99.0468 81.5487C97.9421 82.6151 95.7689 84.0719 95.2832 84.0719C95.2636 84.0719 95.09 84.1426 94.8978 84.2288C94.7056 84.3153 94.4357 84.4163 94.2984 84.4533C94.1608 84.49 93.9483 84.552 93.8261 84.5906C93.7039 84.6292 93.479 84.6906 93.3264 84.7267C93.1737 84.763 92.9861 84.8125 92.9099 84.8366C92.8335 84.8608 92.471 84.9209 92.1046 84.9698C91.7379 85.019 91.2757 85.0852 91.077 85.1171C90.7168 85.1753 88.2586 85.1515 87.7448 85.0852C87.2767 85.0248 86.44 84.8842 86.2174 84.8286C86.0952 84.798 85.9076 84.7514 85.8007 84.7247C85.4163 84.6292 84.6034 84.3851 84.44 84.3163C84.3485 84.2777 84.1109 84.1799 83.9125 84.0989C82.5678 83.5506 81.232 82.6639 80.0214 81.5171C79.5 81.0232 79.4693 81.0055 79.4693 81.1968C79.4693 81.2756 79.5 81.3242 79.5468 81.3197C79.5896 81.3155 79.7955 81.4721 80.005 81.6673C80.7483 82.3607 81.819 83.1975 81.9632 83.1975C81.9916 83.1975 82.0233 83.2177 82.0334 83.2422C82.0517 83.2872 82.5927 83.5863 83.3294 83.9593C83.5431 84.0674 83.9056 84.2253 84.1347 84.3095C84.3639 84.3941 84.6011 84.4839 84.6623 84.5089C84.9388 84.6228 85.3918 84.7562 85.787 84.8408C85.9167 84.8688 86.1292 84.9148 86.2589 84.9437C86.9273 85.091 87.7572 85.2164 88.0778 85.2184C88.2766 85.2193 88.6639 85.2464 88.9387 85.2779C89.6441 85.3592 91.4976 85.2267 92.521 85.0219C93.1662 84.8929 94.3324 84.5916 94.5203 84.5054C94.6109 84.4639 94.6828 84.4346 95.2701 84.2012C95.4842 84.1159 95.8215 83.9622 96.0199 83.8596C96.2186 83.7567 96.437 83.6455 96.5056 83.6126C96.5739 83.5795 96.6301 83.5342 96.6305 83.5117C96.6308 83.4892 96.6592 83.4708 96.6939 83.4708C96.7792 83.4708 97.7973 82.8054 97.7973 82.7498C97.7973 82.7254 97.8293 82.7058 97.8689 82.7058C97.9503 82.7058 98.8579 81.9436 99.2547 81.5419C99.3998 81.3953 99.5623 81.2692 99.6159 81.2615C99.7303 81.2451 99.7862 81.0113 99.6757 81.0122C99.6352 81.0126 99.3524 81.2537 99.0468 81.5487ZM109.728 84.7138C110.165 84.7231 110.865 84.7231 111.283 84.7138C111.701 84.7045 111.343 84.6967 110.488 84.6971C109.633 84.6971 109.291 84.7045 109.728 84.7138ZM62.2938 84.8775C62.5154 84.8878 62.8779 84.8878 63.0991 84.8775C63.3207 84.8672 63.1393 84.8585 62.6965 84.8585C62.2536 84.8585 62.0725 84.8672 62.2938 84.8775ZM56.9345 84.9318C57.11 84.9428 57.3973 84.9428 57.5731 84.9318C57.7486 84.9209 57.6048 84.9122 57.2538 84.9122C56.9024 84.9122 56.7586 84.9209 56.9345 84.9318ZM154.211 85.0409C154.341 85.0524 154.553 85.0524 154.683 85.0409C154.813 85.0293 154.707 85.02 154.447 85.02C154.187 85.02 154.081 85.0293 154.211 85.0409ZM117.001 92.7993C117.07 92.8122 117.17 92.8119 117.223 92.798C117.276 92.7845 117.219 92.7739 117.097 92.7743C116.975 92.7749 116.931 92.7862 117.001 92.7993ZM88.675 92.8537C88.7436 92.8669 88.8561 92.8669 88.925 92.8537C88.9937 92.8408 88.9374 92.8302 88.7998 92.8302C88.6626 92.8302 88.6063 92.8408 88.675 92.8537ZM116.093 95.3563C116.093 95.9275 116.101 96.1536 116.111 95.859C116.121 95.5644 116.121 95.0971 116.111 94.8206C116.101 94.5443 116.093 94.7852 116.093 95.3563ZM123.087 95.7934C123.087 96.0639 123.097 96.1816 123.108 96.0548C123.12 95.9278 123.12 95.7066 123.108 95.5628C123.097 95.4194 123.087 95.5229 123.087 95.7934ZM88.759 96.2427C88.8433 96.2552 88.9685 96.2549 89.0368 96.2417C89.1051 96.2288 89.0358 96.2185 88.8832 96.2189C88.7305 96.2195 88.6747 96.2301 88.759 96.2427ZM86.2684 98.362C86.2684 98.963 86.2766 99.2164 86.2864 98.9248C86.2965 98.6334 86.2965 98.1417 86.2867 97.832C86.2766 97.5223 86.2684 97.7609 86.2684 98.362ZM109.981 97.9793C109.981 98.3099 109.99 98.4382 110.001 98.2642C110.013 98.0902 110.012 97.8198 110.001 97.6631C109.99 97.5065 109.981 97.6487 109.981 97.9793ZM112.092 97.9793C112.092 98.3099 112.101 98.4382 112.112 98.2642C112.123 98.0902 112.123 97.8198 112.112 97.6631C112.1 97.5065 112.091 97.6487 112.092 97.9793ZM88.4344 99.3181C88.4344 99.9043 88.4426 100.144 88.4524 99.851C88.4625 99.558 88.4625 99.0785 88.4524 98.7855C88.4426 98.4922 88.4344 98.7321 88.4344 99.3181ZM112.363 98.7016C112.448 98.7141 112.572 98.7138 112.641 98.7009C112.709 98.6881 112.64 98.6778 112.487 98.6781C112.335 98.6784 112.279 98.689 112.363 98.7016ZM104.755 99.2091C104.755 99.3441 104.766 99.3994 104.779 99.3319C104.792 99.2644 104.792 99.1534 104.779 99.0859C104.766 99.0183 104.755 99.0737 104.755 99.2091ZM101.007 100.725C101.168 100.736 101.418 100.736 101.562 100.724C101.706 100.713 101.574 100.704 101.268 100.704C100.963 100.704 100.845 100.714 101.007 100.725Z" fill="#F29898"/>
</svg>
