<svg width="221" height="161" viewBox="0 0 221 161" fill="none" xmlns="http://www.w3.org/2000/svg">
<path d="M60.4039 86.1728C63.0644 86.1728 65.1597 84.1478 65.1597 81.583C65.1597 79.0181 63.0644 76.9932 60.4039 76.9932C57.7434 76.9932 55.6482 79.0181 55.6482 81.583C55.6482 84.1478 57.7434 86.1728 60.4039 86.1728ZM60.4039 83.7525C59.2053 83.7525 58.2697 82.8172 58.2697 81.5733C58.2697 80.3294 59.1955 79.3941 60.4039 79.3941C61.6026 79.3941 62.5382 80.3294 62.5382 81.5733C62.5382 82.8172 61.6124 83.7525 60.4039 83.7525Z" fill="#F6891F"/>
<path d="M75.0317 83.6177H74.7783V78.43C74.7783 77.6972 74.2618 77.1572 73.4919 77.1572H68.6485C67.9078 77.1572 67.3816 77.6972 67.3816 78.43V78.7675C67.3816 81.8917 67.3329 82.7305 66.7676 83.608H66.6799C66.066 83.608 65.6177 84.0805 65.6177 84.6783V86.8864C65.6177 87.571 66.1342 88.0725 66.8164 88.0725C67.4985 88.0725 68.0345 87.5421 68.0345 86.8864V85.9897H73.6868V86.8864C73.6868 87.571 74.2228 88.0725 74.905 88.0725C75.5872 88.0725 76.1037 87.5614 76.1037 86.8864V84.6783C76.1037 84.0901 75.6554 83.6177 75.0317 83.6177ZM69.2332 83.6177C69.6425 82.8173 69.7789 82.0556 69.8179 79.5389H72.1763V83.6177H69.2332Z" fill="#F6891F"/>
<path d="M84.6699 77.1572C83.9098 77.1572 83.3251 77.6876 83.3251 78.4493V80.3392H80.1286V78.4493C80.1286 77.6876 79.5634 77.1572 78.8032 77.1572C78.0626 77.1572 77.5168 77.6876 77.5168 78.4493V84.7072C77.5168 85.4594 78.0528 85.9993 78.8032 85.9993C79.5536 85.9993 80.1286 85.469 80.1286 84.7072V82.7498H83.3251V84.7072C83.3251 85.469 83.9098 85.9993 84.6699 85.9993C85.4106 85.9993 85.9368 85.4594 85.9368 84.7072V78.4493C85.9466 77.7068 85.4106 77.1572 84.6699 77.1572Z" fill="#F6891F"/>
<path d="M92.2809 86.1728C94.9414 86.1728 97.0366 84.1478 97.0366 81.583C97.0366 79.0181 94.9414 76.9932 92.2809 76.9932C89.6204 76.9932 87.5251 79.0181 87.5251 81.583C87.5251 84.1478 89.6204 86.1728 92.2809 86.1728ZM92.2809 83.7525C91.0822 83.7525 90.1466 82.8172 90.1466 81.5733C90.1466 80.3294 91.0725 79.3941 92.2809 79.3941C93.4796 79.3941 94.4151 80.3294 94.4151 81.5733C94.4151 82.8172 93.4893 83.7525 92.2809 83.7525Z" fill="#F6891F"/>
<path d="M106.207 83.7526L104.063 81.5445L106.139 79.2882C106.392 78.9989 106.499 78.7097 106.499 78.4204C106.499 77.7068 105.954 77.1669 105.232 77.1669C104.833 77.1669 104.472 77.3886 104.18 77.7068L101.295 80.8985V78.4493C101.295 77.6972 100.75 77.1572 100.009 77.1572C99.2391 77.1572 98.6836 77.6876 98.6836 78.4493V84.7072C98.6836 85.469 99.2293 85.9993 100.009 85.9993C100.75 85.9993 101.295 85.4594 101.295 84.7072V82.3063L104.219 85.4304C104.541 85.7872 104.94 85.9897 105.369 85.9897C106.061 85.9897 106.675 85.5269 106.675 84.7458C106.665 84.418 106.529 84.0901 106.207 83.7526Z" fill="#F6891F"/>
<path d="M108.79 85.9993C109.735 85.9993 110.7 85.1797 111.148 83.9551C111.548 82.8655 111.694 81.4867 111.694 79.5678H114.033V84.6976C114.033 85.4304 114.578 85.9897 115.339 85.9897C116.099 85.9897 116.644 85.4304 116.644 84.6783V78.4686C116.644 77.7165 116.099 77.1572 115.339 77.1572H110.495C109.735 77.1572 109.209 77.7165 109.209 78.4686V78.9989C109.209 82.0941 108.936 83.2609 108.38 83.4827C107.844 83.7044 107.503 84.1673 107.503 84.7072C107.494 85.4401 108.049 85.9993 108.79 85.9993Z" fill="#F6891F"/>
<path d="M126.351 77.1572C125.737 77.1572 125.23 77.5333 125.094 78.0925C124.421 77.4079 123.534 77.0029 122.482 77.0029C120.114 77.0029 118.204 78.9411 118.204 81.5927C118.204 84.2251 120.114 86.1632 122.482 86.1632C123.534 86.1632 124.421 85.7583 125.094 85.0736C125.25 85.6136 125.727 85.9897 126.351 85.9897C127.111 85.9897 127.657 85.4497 127.657 84.7169V78.43C127.657 77.6875 127.111 77.1572 126.351 77.1572ZM122.94 83.7526C121.751 83.7526 120.845 82.8173 120.845 81.5734C120.845 80.3489 121.751 79.4135 122.94 79.4135C124.139 79.4135 125.055 80.3489 125.055 81.5734C125.045 82.8173 124.139 83.7526 122.94 83.7526Z" fill="#F6891F"/>
<path d="M134.011 86.1728C136.018 86.1728 137.724 85.0832 137.724 83.8393C137.724 83.2607 137.246 82.8365 136.691 82.8365C135.638 82.8365 135.492 83.7043 134.011 83.7043C132.812 83.7043 131.915 82.7883 131.915 81.583C131.915 80.3777 132.812 79.4616 134.011 79.4616C135.492 79.4616 135.638 80.3294 136.691 80.3294C137.236 80.3294 137.724 79.9052 137.724 79.3266C137.724 78.0828 136.018 76.9932 134.011 76.9932C131.35 76.9932 129.284 79.0181 129.284 81.583C129.284 84.1478 131.35 86.1728 134.011 86.1728Z" fill="#F6891F"/>
<path d="M143.405 86.1728C145.413 86.1728 147.118 85.0832 147.118 83.8393C147.118 83.2607 146.641 82.8365 146.085 82.8365C145.033 82.8365 144.887 83.7043 143.405 83.7043C142.207 83.7043 141.31 82.7883 141.31 81.583C141.31 80.3777 142.207 79.4616 143.405 79.4616C144.887 79.4616 145.033 80.3294 146.085 80.3294C146.631 80.3294 147.118 79.9052 147.118 79.3266C147.118 78.0828 145.413 76.9932 143.405 76.9932C140.745 76.9932 138.679 79.0181 138.679 81.583C138.679 84.1478 140.745 86.1728 143.405 86.1728Z" fill="#F6891F"/>
<path d="M155.821 77.1572C155.061 77.1572 154.476 77.6876 154.476 78.4493V80.3392H151.279V78.4493C151.279 77.6876 150.714 77.1572 149.954 77.1572C149.213 77.1572 148.668 77.6876 148.668 78.4493V84.7072C148.668 85.4594 149.204 85.9993 149.954 85.9993C150.714 85.9993 151.279 85.469 151.279 84.7072V82.7498H154.476V84.7072C154.476 85.469 155.061 85.9993 155.821 85.9993C156.561 85.9993 157.088 85.4594 157.088 84.7072V78.4493C157.097 77.7068 156.561 77.1572 155.821 77.1572Z" fill="#F6891F"/>
<path d="M166.463 77.1572C166.083 77.1572 165.741 77.3115 165.488 77.6008L161.863 81.7181V78.4397C161.863 77.6876 161.317 77.1669 160.576 77.1669C159.855 77.1669 159.29 77.7068 159.29 78.4397V84.7265C159.29 85.4594 159.855 85.9993 160.576 85.9993C160.986 85.9993 161.317 85.8258 161.59 85.5076L165.196 81.3903V84.7265C165.196 85.4594 165.78 85.9993 166.482 85.9993C167.242 85.9993 167.769 85.469 167.769 84.7265V78.43C167.769 77.6876 167.223 77.1572 166.463 77.1572Z" fill="#F6891F"/>
<path d="M177.524 83.7526L175.38 81.5445L177.455 79.2882C177.709 78.9989 177.816 78.7097 177.816 78.4204C177.816 77.7068 177.27 77.1669 176.549 77.1669C176.15 77.1669 175.789 77.3886 175.497 77.7068L172.612 80.8985V78.4493C172.612 77.6972 172.066 77.1572 171.326 77.1572C170.556 77.1572 170 77.6876 170 78.4493V84.7072C170 85.469 170.546 85.9993 171.326 85.9993C172.066 85.9993 172.612 85.4594 172.612 84.7072V82.3063L175.536 85.4304C175.857 85.7872 176.257 85.9897 176.686 85.9897C177.377 85.9897 177.991 85.5269 177.991 84.7458C177.991 84.418 177.855 84.0901 177.524 83.7526Z" fill="#F6891F"/>
<path d="M186.694 77.1572C186.314 77.1572 185.973 77.3115 185.72 77.6008L182.094 81.7181V78.4397C182.094 77.6876 181.549 77.1669 180.808 77.1669C180.087 77.1669 179.521 77.7068 179.521 78.4397V84.7265C179.521 85.4594 180.087 85.9993 180.808 85.9993C181.217 85.9993 181.549 85.8258 181.821 85.5076L185.427 81.3903V84.7265C185.427 85.4594 186.012 85.9993 186.714 85.9993C187.474 85.9993 188 85.469 188 84.7265V78.43C188 77.6876 187.454 77.1572 186.694 77.1572Z" fill="#F6891F"/>
<path fill-rule="evenodd" clip-rule="evenodd" d="M39.9878 81.4098C36.5575 81.4098 33.7118 78.5942 33.7118 75.2676C33.7118 71.8156 36.5672 69 39.9878 69C43.5351 69 46.2638 71.8156 46.2638 75.2579C46.2638 78.5942 43.5351 81.4098 39.9878 81.4098ZM39.9878 72.6159C38.5358 72.6159 37.4345 73.8212 37.4345 75.2579C37.4345 76.6947 38.5358 77.7843 39.9878 77.7843C41.4984 77.7843 42.5411 76.6947 42.5411 75.2579C42.5411 73.8212 41.4984 72.6159 39.9878 72.6159ZM42.4924 86.5203L46.0397 89.9144C46.7414 90.6569 46.7414 91.7561 46.0397 92.4407C45.2893 93.1832 44.1199 93.1832 43.5449 92.4407L39.9976 88.9984L36.5672 92.4407C36.2164 92.7879 35.7583 92.9614 35.2321 92.9614C34.8228 92.9614 34.3647 92.7879 33.9554 92.4407C33.2538 91.7561 33.2538 90.6569 33.9554 89.9144L37.5612 86.5203C36.2261 86.1153 35.0079 85.6043 33.8482 84.91C32.9809 84.4472 32.8055 83.2997 33.2635 82.4415C33.8482 81.5834 34.891 81.3519 35.8168 81.9209C38.3701 83.4733 41.625 83.4733 44.1783 81.9209C45.1041 81.3423 46.2151 81.5737 46.7316 82.4415C47.2579 83.2997 47.024 84.4568 46.2054 84.91C45.1041 85.6043 43.8275 86.1153 42.4924 86.5203Z" fill="#F6891F"/>
</svg>
