<svg width="221" height="161" viewBox="0 0 221 161" fill="none" xmlns="http://www.w3.org/2000/svg">
<g clip-path="url(#clip0_817_448)">
<path d="M83.2479 89.0301C83.2464 88.9679 83.2373 88.9061 83.2206 88.8461C83.2 88.7726 83.1652 88.7039 83.1183 88.6438C83.0669 88.5773 83.0028 88.5217 82.9297 88.4802C82.8401 88.4309 82.7388 88.4065 82.6365 88.4098C82.5338 88.4064 82.4318 88.4274 82.3388 88.4711C82.2628 88.5072 82.1954 88.5591 82.1411 88.6234C82.0912 88.6833 82.0527 88.7519 82.0275 88.8256C82.0052 88.8916 81.9929 88.9605 81.9911 89.0301V91.1094C81.9838 91.298 82.0363 91.4841 82.1411 91.6411C82.1998 91.7143 82.2759 91.7718 82.3624 91.8083C82.4489 91.8447 82.5431 91.8592 82.6365 91.8502C82.7949 91.8526 82.9484 91.7949 83.0661 91.6888C83.1276 91.6333 83.1758 91.5646 83.2073 91.4879C83.2387 91.4112 83.2526 91.3285 83.2479 91.2457V89.0301ZM84.4251 91.1639C84.4287 91.4216 84.3832 91.6777 84.291 91.9184C84.2082 92.1326 84.0821 92.3276 83.9206 92.491C83.7605 92.65 83.5683 92.7732 83.357 92.8523C83.1266 92.9383 82.8823 92.9807 82.6365 92.9773C82.3532 92.9851 82.0713 92.9332 81.8093 92.825C81.5934 92.7313 81.4021 92.589 81.2502 92.4092C81.1033 92.2311 80.995 92.0245 80.932 91.8025C80.8651 91.5667 80.8315 91.3227 80.832 91.0776V89.0801C80.8327 88.8653 80.8649 88.6517 80.9275 88.4461C80.993 88.2352 81.1005 88.0396 81.2434 87.8712C81.3964 87.691 81.5873 87.5466 81.8025 87.4485C82.3251 87.2334 82.9116 87.2334 83.4342 87.4485C83.6463 87.5445 83.8354 87.6847 83.9888 87.8598C84.1341 88.0293 84.2452 88.2253 84.316 88.437C84.3881 88.6469 84.4249 88.8673 84.4251 89.0892V91.1639ZM87.025 91.8456C87.1138 91.8529 87.2032 91.8399 87.2862 91.8076C87.3693 91.7753 87.4439 91.7246 87.5045 91.6593C87.6161 91.5181 87.6726 91.3413 87.6636 91.1616C87.6737 91.0695 87.6637 90.9763 87.6343 90.8884C87.6049 90.8005 87.5567 90.7201 87.4932 90.6526C87.3574 90.5488 87.1888 90.4972 87.0182 90.5072H86.3728V91.8456H87.025ZM85.2069 92.925V87.3236H88.35V88.4029H86.375V89.4255H87.0841C87.3483 89.4201 87.6111 89.464 87.8591 89.5551C88.0641 89.6317 88.2496 89.7528 88.4022 89.9096C88.5475 90.0646 88.6562 90.2502 88.7204 90.4527C88.7915 90.6728 88.8268 90.903 88.825 91.1344C88.8306 91.4018 88.7883 91.6681 88.7 91.9206C88.6245 92.1295 88.5034 92.3189 88.3454 92.4751C88.1869 92.6264 87.9967 92.7405 87.7886 92.8091C87.5565 92.887 87.313 92.9254 87.0682 92.9228L85.2069 92.925ZM94.5839 92.925H89.4499V87.3236H90.6181V91.8684H91.6249V87.3236H92.793V91.8684H93.7998V87.3236H94.9611V91.8684H95.5475V94.1158H94.5816L94.5839 92.925ZM96.1747 92.925V87.3236H99.4383V88.4029H97.3429V89.5619H99.1474V90.6344H97.3429V91.8252H99.4383V92.9296L96.1747 92.925ZM103.545 91.5798C103.483 91.9836 103.27 92.349 102.95 92.6023C102.617 92.8553 102.208 92.9861 101.79 92.9727C101.507 92.9805 101.225 92.9286 100.963 92.8205C100.75 92.7308 100.561 92.5923 100.411 92.416C100.264 92.2352 100.156 92.0264 100.093 91.8025C100.026 91.5667 99.9922 91.3227 99.9928 91.0776V89.0801C99.9932 88.8651 100.026 88.6513 100.091 88.4461C100.155 88.2275 100.266 88.0253 100.415 87.8532C100.564 87.6811 100.749 87.5431 100.956 87.4485C101.441 87.2453 101.985 87.2283 102.481 87.4008C102.858 87.5349 103.172 87.8047 103.361 88.1575C103.45 88.3231 103.515 88.5006 103.554 88.6847L102.452 89.0074C102.438 88.9436 102.421 88.8806 102.4 88.8188C102.375 88.7455 102.336 88.6781 102.284 88.6211C102.225 88.5591 102.157 88.5076 102.081 88.4688C101.992 88.4232 101.893 88.4006 101.793 88.4029C101.689 88.3998 101.587 88.4208 101.493 88.4643C101.418 88.501 101.353 88.5529 101.3 88.6166C101.253 88.6774 101.218 88.7458 101.195 88.8188C101.175 88.8852 101.164 88.954 101.163 89.0233V91.1026C101.156 91.2899 101.205 91.475 101.304 91.6343C101.361 91.7078 101.436 91.7655 101.521 91.8021C101.607 91.8386 101.7 91.8529 101.793 91.8434C101.949 91.8448 102.1 91.789 102.218 91.6866C102.283 91.6334 102.336 91.5678 102.375 91.4937C102.414 91.4195 102.438 91.3383 102.445 91.2548L103.545 91.5798ZM106.179 88.3825V92.9273H105.02V88.3825H103.82V87.319H107.379V88.3825H106.179ZM112.315 92.9273V87.3236H115.579V88.4029H113.483V89.5619H115.288V90.6344H113.483V91.8252H115.579V92.9296L112.315 92.9273ZM110.365 91.1548C110.374 90.9913 110.324 90.83 110.224 90.7003C110.166 90.6395 110.095 90.5925 110.017 90.563C109.938 90.5335 109.853 90.5222 109.77 90.5299H109.117V91.8184H109.761C109.85 91.8292 109.941 91.8172 110.024 91.7834C110.108 91.7496 110.181 91.6952 110.238 91.6252C110.327 91.4833 110.372 91.3178 110.365 91.1503V91.1548ZM110.295 88.9347C110.3 88.8593 110.291 88.7835 110.267 88.7118C110.243 88.64 110.206 88.5737 110.156 88.5166C110.027 88.4153 109.865 88.3665 109.702 88.3802H109.129V89.5164H109.708C109.791 89.5245 109.875 89.5145 109.953 89.487C110.032 89.4595 110.103 89.4153 110.163 89.3574C110.258 89.2384 110.307 89.0892 110.302 88.937L110.295 88.9347ZM111.508 91.2094C111.512 91.4578 111.472 91.7049 111.388 91.9388C111.315 92.1398 111.199 92.3227 111.049 92.4751C110.901 92.6217 110.723 92.7341 110.527 92.8046C110.308 92.8827 110.077 92.9212 109.845 92.9182H107.952V87.3236H109.77C109.995 87.3073 110.222 87.3359 110.437 87.4076C110.651 87.4794 110.849 87.5929 111.02 87.7417C111.167 87.8957 111.28 88.0782 111.354 88.2779C111.427 88.4777 111.459 88.6904 111.447 88.9029C111.444 89.1193 111.392 89.3323 111.295 89.5255C111.187 89.7347 111.006 89.8966 110.786 89.98V90.0186C110.908 90.0577 111.021 90.1237 111.115 90.2118C111.206 90.2973 111.283 90.397 111.342 90.5072C111.402 90.6169 111.445 90.7349 111.47 90.8571C111.496 90.9757 111.51 91.0969 111.511 91.2185L111.508 91.2094ZM118.704 92.9273V90.6254H117.431V92.9296H116.263V87.3236H117.431V89.5619H118.704V87.3236H119.856V92.9296L118.704 92.9273ZM123.272 92.9273V90.6254H121.999V92.9296H120.831V87.3236H121.999V89.5619H123.274V87.3236H124.41V92.9296L123.272 92.9273ZM127.685 89.0279C127.684 88.9656 127.674 88.9038 127.658 88.8438C127.638 88.7705 127.604 88.7018 127.558 88.6416C127.505 88.5757 127.44 88.5202 127.367 88.4779C127.277 88.4286 127.176 88.4043 127.074 88.4075C126.971 88.4041 126.869 88.4252 126.776 88.4688C126.7 88.5049 126.633 88.5568 126.578 88.6211C126.528 88.681 126.49 88.7496 126.465 88.8233C126.442 88.8893 126.43 88.9583 126.428 89.0279V91.1071C126.421 91.2957 126.473 91.4818 126.578 91.6388C126.637 91.7119 126.713 91.7692 126.8 91.8057C126.886 91.8422 126.98 91.8567 127.074 91.8479C127.233 91.85 127.387 91.7924 127.506 91.6866C127.566 91.6305 127.614 91.5617 127.645 91.4851C127.676 91.4085 127.69 91.326 127.685 91.2434V89.0279ZM128.862 91.1616C128.866 91.4194 128.82 91.6754 128.728 91.9161C128.645 92.1304 128.519 92.3253 128.358 92.4887C128.198 92.6483 128.006 92.7715 127.794 92.85C127.564 92.936 127.32 92.9784 127.074 92.975C126.791 92.9831 126.51 92.9312 126.249 92.8228C126.031 92.7329 125.837 92.5936 125.683 92.416C125.536 92.238 125.428 92.0314 125.365 91.8093C125.298 91.5735 125.264 91.3295 125.265 91.0844V89.0869C125.265 88.8719 125.298 88.6581 125.362 88.4529C125.426 88.2416 125.533 88.0458 125.676 87.878C125.83 87.6988 126.021 87.5547 126.235 87.4554C126.758 87.2402 127.344 87.2402 127.867 87.4554C128.079 87.5507 128.269 87.6911 128.421 87.8667C128.567 88.0361 128.678 88.2321 128.749 88.4438C128.821 88.6537 128.858 88.8741 128.858 89.096L128.862 91.1616ZM129.717 92.9273V87.3236H132.978V88.4029H130.883V89.5619H132.687V90.6344H130.883V91.8252H132.978V92.9296L129.717 92.9273ZM83.1911 97.8698V102.415H82.032V97.8698H80.832V96.8086H84.3933V97.8698H83.1911ZM92.5521 96.8086V102.415H91.3999V97.8857H90.4499V99.6172C90.4523 99.9884 90.4333 100.359 90.3931 100.728C90.3669 101.029 90.2901 101.324 90.1658 101.599C90.0522 101.841 89.8795 102.05 89.6636 102.208C89.4041 102.381 89.1074 102.49 88.7977 102.526L88.5227 101.617C88.703 101.563 88.8695 101.47 89.0113 101.347C89.1274 101.235 89.2167 101.098 89.2727 100.947C89.3362 100.77 89.373 100.584 89.3818 100.397C89.3954 100.183 89.4022 99.9422 89.4022 99.6581V96.7995L92.5521 96.8086ZM84.9637 102.415V96.7995H88.2272V97.8698H86.1319V99.0287H87.9364V100.099H86.1319V101.292H88.2272V102.415H84.9637ZM99.9473 100.642C99.9565 100.479 99.9065 100.317 99.8064 100.188C99.7478 100.128 99.6767 100.082 99.5981 100.052C99.5195 100.023 99.4354 100.012 99.3519 100.019H98.6974V101.308H99.3428C99.4319 101.319 99.5222 101.307 99.6054 101.273C99.6885 101.239 99.7616 101.185 99.8178 101.115C99.9075 100.973 99.9526 100.808 99.9473 100.64V100.642ZM99.8746 98.4242C99.8808 98.349 99.872 98.2732 99.8485 98.2014C99.8251 98.1297 99.7876 98.0632 99.7382 98.0061C99.6066 97.9 99.4383 97.8501 99.2701 97.8675H98.6974V99.0037H99.2792C99.3621 99.0118 99.4459 99.0015 99.5244 98.9736C99.603 98.9458 99.6744 98.9009 99.7337 98.8424C99.8287 98.7243 99.8772 98.5756 99.8701 98.4242H99.8746ZM101.079 100.697C101.083 100.945 101.042 101.193 100.956 101.426C100.884 101.626 100.769 101.808 100.62 101.96C100.472 102.108 100.292 102.221 100.095 102.292C99.8764 102.37 99.6455 102.408 99.4133 102.405H97.5224V96.7995H99.3405C99.5658 96.7831 99.7921 96.8117 100.006 96.8835C100.22 96.9552 100.418 97.0688 100.588 97.2176C100.735 97.3709 100.849 97.553 100.923 97.7524C100.996 97.9519 101.028 98.1643 101.015 98.3765C101.014 98.5939 100.962 98.8079 100.863 99.0014C100.758 99.2117 100.577 99.3741 100.356 99.4559V99.4968C100.479 99.5364 100.591 99.6023 100.686 99.69C100.777 99.7753 100.854 99.8751 100.913 99.9854C100.973 100.095 101.016 100.213 101.043 100.335C101.07 100.454 101.083 100.575 101.084 100.697H101.079ZM93.5839 102.405V96.7995H96.8452V97.8698H94.752V99.0287H96.5565V100.099H94.752V101.292H96.8452V102.415L93.5839 102.405ZM104.538 102.405V99.3514L102.968 102.415H101.872V96.7995H103.031V100.051H103.047L104.652 96.7995H105.706V102.415L104.538 102.405ZM108.299 99.3196C108.299 99.4968 108.279 99.6809 108.272 99.874C108.265 100.067 108.249 100.256 108.227 100.435C108.207 100.606 108.177 100.775 108.136 100.942C108.102 101.082 108.049 101.217 107.979 101.342H109.429V97.8857H108.365L108.299 99.3196ZM107.245 102.415V103.589H106.279V101.415L106.754 101.317C106.864 101.202 106.953 101.068 107.015 100.922C107.081 100.765 107.128 100.602 107.156 100.435C107.191 100.234 107.212 100.03 107.22 99.8263C107.23 99.6006 107.244 99.3461 107.261 99.0628L107.365 96.7904H110.572V101.335H111.072V103.573H110.104V102.415H107.245ZM111.79 102.415V96.7995H115.054V97.8698H112.956V99.0287H114.76V100.099H112.956V101.292H115.051V102.415H111.79ZM118.169 102.415V100.101H116.897V102.415H115.729V96.7995H116.897V99.0378H118.169V96.7995H119.322V102.415H118.169ZM122.942 102.415V99.3514L121.374 102.415H120.278V96.7995H121.438V100.051H121.456L123.06 96.7995H124.115V102.415H122.942ZM125.053 102.415V96.7995H128.315V97.8698H126.228V99.0287H128.033V100.099H126.228V101.292H128.321V102.415H125.053ZM84.3547 108.096C84.3638 108.002 84.3528 107.907 84.3222 107.817C84.2916 107.728 84.2422 107.646 84.1774 107.577C84.0412 107.467 83.8686 107.411 83.6933 107.421H83.082V108.814H83.7024C83.8682 108.815 84.0291 108.758 84.1569 108.652C84.2295 108.58 84.285 108.493 84.3192 108.396C84.3535 108.3 84.3656 108.197 84.3547 108.096ZM85.491 108.111C85.4937 108.361 85.453 108.61 85.3705 108.845C85.2956 109.055 85.178 109.247 85.0251 109.409C84.8702 109.568 84.6825 109.691 84.4751 109.77C84.2441 109.86 83.9979 109.904 83.7501 109.9H83.0683V111.945H81.9115V106.348H83.691C83.9381 106.345 84.1842 106.381 84.4206 106.453C84.6322 106.516 84.8271 106.625 84.991 106.773C85.1558 106.926 85.2826 107.115 85.3614 107.325C85.4568 107.578 85.5024 107.848 85.4955 108.118L85.491 108.111ZM88.3704 108.055C88.3692 107.992 88.36 107.929 88.3432 107.868C88.3229 107.796 88.2889 107.728 88.2432 107.668C88.1919 107.601 88.1278 107.545 88.0545 107.502C87.9637 107.454 87.8618 107.431 87.7591 107.434C87.6564 107.431 87.5544 107.452 87.4614 107.496C87.3852 107.532 87.3178 107.583 87.2636 107.648C87.2141 107.708 87.1757 107.777 87.15 107.85C87.1275 107.916 87.1153 107.985 87.1137 108.055V110.141C87.1063 110.329 87.1588 110.515 87.2636 110.672C87.3225 110.746 87.3986 110.803 87.4851 110.839C87.5715 110.876 87.6657 110.89 87.7591 110.882C87.9182 110.884 88.0724 110.826 88.1909 110.72C88.2512 110.664 88.2985 110.595 88.3295 110.518C88.3606 110.442 88.3745 110.36 88.3704 110.277V108.055ZM89.5477 110.188C89.5509 110.446 89.5062 110.702 89.4159 110.943C89.3319 111.156 89.205 111.351 89.0431 111.513C88.8836 111.674 88.6913 111.798 88.4795 111.877C88.2493 111.963 88.0049 112.005 87.7591 112.002C87.4763 112.009 87.1951 111.957 86.9341 111.847C86.7169 111.756 86.5245 111.614 86.3728 111.434C86.2267 111.254 86.1184 111.047 86.0546 110.825C85.9875 110.589 85.9539 110.345 85.9546 110.1V108.096C85.955 107.881 85.9879 107.668 86.0523 107.464C86.1159 107.253 86.2227 107.057 86.366 106.889C86.5205 106.71 86.7109 106.565 86.925 106.464C87.1874 106.348 87.4724 106.292 87.7591 106.3C88.0332 106.294 88.3055 106.347 88.5568 106.457C88.77 106.552 88.96 106.693 89.1136 106.868C89.2574 107.038 89.3677 107.233 89.4386 107.443C89.5104 107.653 89.5473 107.874 89.5477 108.096V110.188ZM93.8248 110.609C93.7624 111.013 93.5497 111.378 93.2294 111.631C92.8954 111.883 92.4859 112.013 92.068 112.002C91.7853 112.009 91.5042 111.956 91.2431 111.847C91.0275 111.756 90.8372 111.614 90.6885 111.434C90.5431 111.254 90.4357 111.047 90.3726 110.825C90.3056 110.589 90.2719 110.345 90.2726 110.1V108.096C90.2733 107.881 90.3055 107.669 90.3681 107.464C90.4324 107.253 90.5382 107.058 90.6795 106.889C90.8316 106.708 91.0217 106.563 91.2363 106.464C91.4978 106.348 91.782 106.292 92.068 106.3C92.3004 106.298 92.5313 106.337 92.7498 106.416C92.9425 106.487 93.1205 106.592 93.2748 106.728C93.4182 106.857 93.5375 107.011 93.6271 107.182C93.7181 107.348 93.7839 107.526 93.8225 107.712L92.718 108.041C92.7049 107.977 92.6875 107.914 92.6657 107.852C92.6406 107.779 92.6012 107.712 92.5498 107.655C92.4918 107.592 92.4234 107.54 92.3476 107.5C92.2574 107.455 92.1574 107.433 92.0567 107.437C91.954 107.433 91.852 107.454 91.759 107.498C91.6838 107.533 91.6177 107.585 91.5658 107.65C91.519 107.711 91.4836 107.779 91.4612 107.852C91.4412 107.919 91.4305 107.988 91.4294 108.057V110.141C91.4226 110.328 91.4717 110.513 91.5703 110.672C91.627 110.746 91.7014 110.803 91.7864 110.84C91.8715 110.877 91.9645 110.891 92.0567 110.882C92.2137 110.882 92.3657 110.826 92.4839 110.722C92.5485 110.67 92.6018 110.604 92.6409 110.531C92.6799 110.457 92.7038 110.376 92.7112 110.293L93.8248 110.609ZM97.9656 110.609C97.9031 111.013 97.6905 111.378 97.3701 111.631C97.0362 111.883 96.6267 112.013 96.2088 112.002C95.926 112.009 95.6448 111.957 95.3838 111.847C95.1677 111.756 94.9766 111.614 94.827 111.434C94.6832 111.253 94.5766 111.046 94.5134 110.825C94.4464 110.589 94.4127 110.345 94.4134 110.1V108.096C94.4141 107.881 94.4463 107.669 94.5089 107.464C94.5731 107.253 94.679 107.058 94.8202 106.889C94.9721 106.709 95.1613 106.564 95.3747 106.464C95.8613 106.264 96.4039 106.247 96.902 106.416C97.0942 106.486 97.2715 106.592 97.4247 106.728C97.5696 106.856 97.6897 107.01 97.7792 107.182C97.8705 107.348 97.9356 107.526 97.9724 107.712L96.8702 108.041C96.856 107.977 96.8386 107.914 96.8179 107.852C96.7928 107.779 96.7526 107.712 96.6997 107.655C96.6425 107.592 96.5748 107.54 96.4997 107.5C96.4095 107.455 96.3095 107.433 96.2088 107.437C96.1061 107.433 96.0041 107.454 95.9111 107.498C95.8356 107.533 95.7693 107.585 95.7179 107.65C95.6703 107.71 95.6348 107.779 95.6134 107.852C95.5924 107.919 95.5817 107.988 95.5816 108.057V110.141C95.5748 110.328 95.6238 110.513 95.7225 110.672C95.7791 110.746 95.8535 110.803 95.9386 110.84C96.0237 110.877 96.1167 110.891 96.2088 110.882C96.3706 110.882 96.5267 110.822 96.6462 110.713C96.7658 110.604 96.84 110.454 96.8542 110.293L97.9656 110.609ZM101.327 111.959V108.9L99.7564 111.959H98.661V106.348H99.8201V109.6H99.836L101.44 106.348H102.495V111.959H101.327ZM106.079 111.959V108.9L104.509 111.959H103.413V106.348H104.572V109.6H104.588L106.193 106.348H107.247V111.959H106.079Z" fill="#291E4E"/>
<path d="M135.833 54.4539H132.462V61.9528H135.833C138.187 61.9528 139.455 60.3962 139.455 58.2215C139.455 56.1559 137.864 54.4539 135.833 54.4539ZM136.303 66.9884H132.462V74.8146H127.028V49.4546H136.303C138.628 49.4546 140.859 50.3782 142.503 52.0224C144.147 53.6665 145.071 55.8964 145.071 58.2215C145.071 60.5466 144.147 62.7765 142.503 64.4207C140.859 66.0648 138.628 66.9884 136.303 66.9884Z" fill="#291E4E"/>
<path d="M85.0019 62.1545C85.0015 61.2502 85.1703 60.3539 85.4996 59.5117C84.3711 59.953 83.3704 60.6686 82.5879 61.5938C81.8055 62.5189 81.266 63.6245 81.0182 64.8106C80.7705 65.9966 80.8223 67.2257 81.1691 68.3867C81.5158 69.5477 82.1464 70.6039 83.004 71.46C83.8616 72.316 84.919 72.9448 86.0807 73.2895C87.2424 73.6342 88.4717 73.684 89.6574 73.4343C90.8432 73.1846 91.948 72.6433 92.872 71.8594C93.7959 71.0754 94.5099 70.0736 94.9493 68.9444C93.8441 69.3775 92.6497 69.534 91.4701 69.4004C90.2906 69.2669 89.1615 68.8472 88.1811 68.178C87.2006 67.5088 86.3985 66.6102 85.8445 65.5605C85.2904 64.5107 85.0012 63.3415 85.0019 62.1545Z" fill="#E62586"/>
<path d="M105.449 62.1548C105.451 59.2996 104.524 56.5213 102.807 54.2399C101.09 51.9585 98.6767 50.298 95.9323 49.5092C93.1879 48.7205 90.2613 48.8464 87.5949 49.868C84.9284 50.8895 82.667 52.7512 81.1523 55.1717C83.673 53.5832 86.6586 52.8979 89.6197 53.2281C92.5809 53.5584 95.3421 54.8845 97.4508 56.9893C99.5595 59.0941 100.891 61.8526 101.226 64.8129C101.562 67.7731 100.881 70.7595 99.2972 73.2827C101.181 72.0984 102.733 70.4558 103.809 68.5085C104.885 66.5611 105.449 64.3727 105.449 62.1479" fill="#E62586"/>
<path d="M81.1523 55.1719C79.4782 56.2233 78.0628 57.6386 77.0112 59.3124C75.9596 60.9863 75.2989 62.8757 75.0783 64.84C74.8576 66.8044 75.0827 68.7932 75.7368 70.6586C76.3909 72.524 77.4572 74.218 78.8563 75.6145C80.2555 77.011 81.9515 78.0742 83.8182 78.7249C85.685 79.3757 87.6744 79.5973 89.6386 79.3732C91.6028 79.1492 93.4912 78.4853 95.1634 77.4308C96.8356 76.3764 98.2486 74.9586 99.2972 73.2829C96.7765 74.8714 93.791 75.5567 90.8298 75.2264C87.8686 74.8962 85.1074 73.57 82.9987 71.4653C80.8901 69.3605 79.5589 66.602 79.2234 63.6417C78.888 60.6815 79.5681 57.695 81.1523 55.1719Z" fill="#8BCCF1"/>
<path d="M92.2952 54.8628C90.8267 54.8649 89.3929 55.3094 88.1807 56.1383C86.9686 56.9673 86.0344 58.1422 85.5 59.5099C86.8192 58.9938 88.2601 58.8732 89.6467 59.1627C91.0333 59.4523 92.3055 60.1394 93.3079 61.1402C94.3102 62.141 94.9993 63.4121 95.2909 64.7981C95.5824 66.1842 95.4639 67.6251 94.9497 68.9449C96.5386 68.3304 97.8622 67.1789 98.6906 65.6904C99.519 64.2019 99.7998 62.4703 99.4844 60.7962C99.169 59.1222 98.2773 57.6115 96.964 56.5264C95.6507 55.4413 93.9989 54.8503 92.2952 54.856" fill="#8BCCF1"/>
<path d="M88.1542 73.5938C86.4521 73.5967 84.8026 73.0042 83.4915 71.919C82.1803 70.8338 81.2901 69.3242 80.975 67.6517C80.6599 65.9792 80.9397 64.2492 81.7661 62.7614C82.5925 61.2735 83.9133 60.1215 85.4997 59.505C85.939 58.3751 86.6531 57.3725 87.5774 56.588C88.5017 55.8034 89.6071 55.2617 90.7934 55.0117C91.9798 54.7618 93.2098 54.8115 94.3721 55.1564C95.5344 55.5013 96.5923 56.1306 97.4503 56.9872C98.3082 57.8437 98.939 58.9007 99.2856 60.0624C99.6323 61.224 99.6838 62.4538 99.4355 63.6404C99.1872 64.827 98.647 65.933 97.8638 66.8583C97.0805 67.7836 96.0788 68.4991 94.9494 68.94C94.4156 70.3083 93.4817 71.4838 92.2694 72.3132C91.0572 73.1427 89.6231 73.5874 88.1542 73.5893V73.5938ZM88.1542 53.1377C85.6755 53.136 83.2473 53.8382 81.1522 55.1624C79.5679 57.6856 78.8878 60.672 79.2233 63.6322C79.5587 66.5925 80.8899 69.351 82.9986 71.4558C85.1073 73.5606 87.8685 74.8867 90.8296 75.217C93.7908 75.5472 96.7763 74.8619 99.297 73.2734C100.547 71.2842 101.241 68.9963 101.306 66.648C101.372 64.2996 100.807 61.9766 99.6698 59.9208C98.5328 57.8649 96.8655 56.1513 94.8414 54.9584C92.8174 53.7654 90.5105 53.1367 88.161 53.1377" fill="#291E4E"/>
<path d="M112.356 54.7425H106.595V49.4546H123.551V54.7425H117.79V74.8123H112.356V54.7425Z" fill="#291E4E"/>
</g>
<defs>
<clipPath id="clip0_817_448">
<rect width="70" height="63" fill="white" transform="translate(75 49)"/>
</clipPath>
</defs>
</svg>
