<svg width="95" height="101" viewBox="0 0 95 101" fill="none" xmlns="http://www.w3.org/2000/svg">
<path d="M12.5392 61.2127H10.2823V66.0129H9.03591V60.1179H13.7856V66.0129H12.5392V61.2127Z" fill="#1E1D1D"/>
<path d="M15.3043 60.1769C15.5569 60.1319 15.8376 60.0983 16.1464 60.0758C16.4552 60.0477 16.764 60.0337 17.0728 60.0337C17.3872 60.0337 17.7044 60.059 18.0244 60.1095C18.3444 60.1544 18.6308 60.2498 18.8834 60.3958C19.1417 60.5362 19.3522 60.7355 19.515 60.9937C19.6778 61.2464 19.7592 61.5832 19.7592 62.0043C19.7592 62.3748 19.6891 62.6921 19.5487 62.9559C19.4083 63.2142 19.2203 63.4247 18.9845 63.5875C18.7543 63.7503 18.4904 63.8711 18.1928 63.9497C17.8953 64.0226 17.5893 64.0591 17.2749 64.0591C17.2468 64.0591 17.1991 64.0591 17.1317 64.0591C17.0644 64.0591 16.9914 64.0591 16.9128 64.0591C16.8398 64.0535 16.7696 64.0479 16.7022 64.0423C16.6349 64.0367 16.5843 64.0311 16.5507 64.0254V66.0129H15.3043V60.1769ZM17.157 61.1285C17.0391 61.1285 16.924 61.1313 16.8117 61.1369C16.7051 61.1425 16.618 61.1537 16.5507 61.1706V62.9222C16.5731 62.9279 16.6096 62.9335 16.6601 62.9391C16.7107 62.9447 16.764 62.9503 16.8201 62.9559C16.8763 62.9559 16.9268 62.9587 16.9717 62.9643C17.0223 62.9643 17.0616 62.9643 17.0896 62.9643C17.2524 62.9643 17.4153 62.9531 17.5781 62.9307C17.7409 62.9082 17.8841 62.8605 18.0076 62.7875C18.1367 62.7145 18.2406 62.6163 18.3192 62.4927C18.3978 62.3636 18.4371 62.1924 18.4371 61.979C18.4371 61.7994 18.4006 61.6562 18.3276 61.5495C18.2546 61.4373 18.1563 61.3502 18.0328 61.2885C17.9149 61.2267 17.7774 61.1846 17.6202 61.1622C17.4686 61.1397 17.3142 61.1285 17.157 61.1285Z" fill="#1E1D1D"/>
<path d="M24.6952 62.7622L24.7626 62.0127H24.7204L24.291 62.7707L21.874 66.0129H20.9476V60.1179H22.194V63.2928L22.1098 64.076H22.1603L22.6151 63.2928L25.0068 60.1179H25.9416V66.0129H24.6952V62.7622Z" fill="#1E1D1D"/>
<path d="M33.7063 61.2127H31.4494V66.0129H30.203V60.1179H34.9527V66.0129H33.7063V61.2127Z" fill="#1E1D1D"/>
<path d="M36.2608 63.0654C36.2608 62.5826 36.3226 62.1503 36.4461 61.7685C36.5696 61.3867 36.7465 61.0667 36.9767 60.8085C37.2125 60.5446 37.4988 60.3453 37.8356 60.2105C38.1725 60.0702 38.5543 60 38.981 60C39.4357 60 39.8315 60.0758 40.1684 60.2274C40.5109 60.3734 40.7944 60.5811 41.019 60.8506C41.2491 61.1201 41.4204 61.4429 41.5327 61.819C41.6506 62.1952 41.7095 62.6106 41.7095 63.0654C41.7095 63.5482 41.6449 63.9805 41.5158 64.3623C41.3923 64.7441 41.2126 65.0669 40.9768 65.3308C40.741 65.589 40.4547 65.7883 40.1179 65.9287C39.781 66.0634 39.402 66.1308 38.981 66.1308C38.5262 66.1308 38.1276 66.0578 37.7851 65.9118C37.4483 65.7603 37.1647 65.5497 36.9346 65.2802C36.71 65.0108 36.5416 64.6879 36.4293 64.3118C36.317 63.9356 36.2608 63.5202 36.2608 63.0654ZM37.583 63.0654C37.583 63.3573 37.6111 63.624 37.6672 63.8654C37.7234 64.1069 37.8076 64.3146 37.9199 64.4886C38.0322 64.6627 38.1753 64.7974 38.3494 64.8929C38.529 64.9883 38.7395 65.036 38.981 65.036C39.4245 65.036 39.7698 64.8844 40.0168 64.5813C40.2638 64.2781 40.3873 63.7728 40.3873 63.0654C40.3873 62.7847 40.3621 62.5236 40.3116 62.2822C40.261 62.0408 40.1768 61.8331 40.0589 61.659C39.9466 61.4794 39.8007 61.3418 39.621 61.2464C39.447 61.1453 39.2336 61.0948 38.981 61.0948C38.543 61.0948 38.2006 61.252 37.9535 61.5664C37.7065 61.8808 37.583 62.3805 37.583 63.0654Z" fill="#1E1D1D"/>
<path d="M48.472 67.0572H47.5877L47.453 66.0129H43.3265L43.1917 67.0572H42.3075V64.9181H42.9896C43.0345 64.8564 43.1047 64.7216 43.2002 64.5139C43.2956 64.3062 43.3911 64.0086 43.4865 63.6212C43.5819 63.2338 43.6634 62.7538 43.7307 62.1812C43.8037 61.6029 43.8346 60.9151 43.8234 60.1179H47.6635V64.9181H48.472V67.0572ZM46.4172 64.9181V61.2127H44.9855C44.9518 62.1783 44.8648 62.97 44.7245 63.5875C44.5897 64.2051 44.4522 64.6486 44.3118 64.9181H46.4172Z" fill="#1E1D1D"/>
<path d="M55.5546 67.0572H54.6703L54.5356 66.0129H50.4091L50.2743 67.0572H49.3901V64.9181H50.0722C50.1171 64.8564 50.1873 64.7216 50.2827 64.5139C50.3782 64.3062 50.4736 64.0086 50.5691 63.6212C50.6645 63.2338 50.7459 62.7538 50.8133 62.1812C50.8863 61.6029 50.9171 60.9151 50.9059 60.1179H54.7461V64.9181H55.5546V67.0572ZM53.4997 64.9181V61.2127H52.0681C52.0344 62.1783 51.9474 62.97 51.807 63.5875C51.6723 64.2051 51.5347 64.6486 51.3944 64.9181H53.4997Z" fill="#1E1D1D"/>
<path d="M56.6828 60.1179H60.4809V61.2127H57.9292V62.4927H60.2451V63.5875H57.9292V64.9181H60.523V66.0129H56.6828V60.1179Z" fill="#1E1D1D"/>
<path d="M61.8739 60.1769C62.1265 60.1319 62.4072 60.0983 62.716 60.0758C63.0248 60.0477 63.3336 60.0337 63.6424 60.0337C63.9568 60.0337 64.274 60.059 64.594 60.1095C64.914 60.1544 65.2003 60.2498 65.453 60.3958C65.7112 60.5362 65.9218 60.7355 66.0846 60.9937C66.2474 61.2464 66.3288 61.5832 66.3288 62.0043C66.3288 62.3748 66.2586 62.6921 66.1183 62.9559C65.9779 63.2142 65.7898 63.4247 65.554 63.5875C65.3238 63.7503 65.06 63.8711 64.7624 63.9497C64.4649 64.0226 64.1589 64.0591 63.8445 64.0591C63.8164 64.0591 63.7687 64.0591 63.7013 64.0591C63.6339 64.0591 63.5609 64.0591 63.4823 64.0591C63.4094 64.0535 63.3392 64.0479 63.2718 64.0423C63.2044 64.0367 63.1539 64.0311 63.1202 64.0254V66.0129H61.8739V60.1769ZM63.7266 61.1285C63.6087 61.1285 63.4936 61.1313 63.3813 61.1369C63.2746 61.1425 63.1876 61.1537 63.1202 61.1706V62.9222C63.1427 62.9279 63.1792 62.9335 63.2297 62.9391C63.2802 62.9447 63.3336 62.9503 63.3897 62.9559C63.4459 62.9559 63.4964 62.9587 63.5413 62.9643C63.5918 62.9643 63.6311 62.9643 63.6592 62.9643C63.822 62.9643 63.9848 62.9531 64.1476 62.9307C64.3105 62.9082 64.4536 62.8605 64.5771 62.7875C64.7063 62.7145 64.8101 62.6163 64.8887 62.4927C64.9673 62.3636 65.0066 62.1924 65.0066 61.979C65.0066 61.7994 64.9701 61.6562 64.8971 61.5495C64.8242 61.4373 64.7259 61.3502 64.6024 61.2885C64.4845 61.2267 64.347 61.1846 64.1898 61.1622C64.0382 61.1397 63.8838 61.1285 63.7266 61.1285Z" fill="#1E1D1D"/>
<path d="M69.9726 60.1179H71.1516V62.7201L71.48 62.6022L72.8106 60.1179H74.2254L72.7264 62.7033L72.2885 62.998L72.819 63.3602L74.5033 66.0129H72.9959L71.5137 63.4781H71.1516V66.0129H69.9726V63.377L69.6526 63.4949L68.1704 66.0129H66.7051L68.3809 63.4444L68.8778 63.1075L68.3978 62.7875L66.8314 60.1179H68.2883L69.6105 62.6191H69.9726V60.1179Z" fill="#1E1D1D"/>
<path d="M76.9805 63.5202H76.6521V66.0129H75.4057V60.1179H76.6521V62.7117L76.9469 62.5854L78.7154 60.1179H80.1386L78.269 62.5854L77.7806 62.9054L78.2859 63.2423L80.4249 66.0129H78.8838L76.9805 63.5202Z" fill="#1E1D1D"/>
<path d="M81.4767 60.1179H85.2748V61.2127H82.7231V62.4927H85.039V63.5875H82.7231V64.9181H85.3169V66.0129H81.4767V60.1179Z" fill="#1E1D1D"/>
<path d="M10.7136 72.402H8.45666V77.2022H7.21028V71.3072H11.96V77.2022H10.7136V72.402Z" fill="#1E1D1D"/>
<path d="M13.4787 71.3662C13.7313 71.3213 14.012 71.2876 14.3208 71.2651C14.6296 71.237 14.9384 71.223 15.2472 71.223C15.5616 71.223 15.8788 71.2483 16.1988 71.2988C16.5188 71.3437 16.8051 71.4392 17.0578 71.5851C17.316 71.7255 17.5266 71.9248 17.6894 72.1831C17.8522 72.4357 17.9336 72.7726 17.9336 73.1936C17.9336 73.5642 17.8634 73.8814 17.7231 74.1452C17.5827 74.4035 17.3946 74.614 17.1588 74.7769C16.9286 74.9397 16.6648 75.0604 16.3672 75.139C16.0697 75.212 15.7637 75.2485 15.4493 75.2485C15.4212 75.2485 15.3735 75.2485 15.3061 75.2485C15.2387 75.2485 15.1658 75.2485 15.0872 75.2485C15.0142 75.2428 14.944 75.2372 14.8766 75.2316C14.8092 75.226 14.7587 75.2204 14.725 75.2148V77.2022H13.4787V71.3662ZM15.3314 72.3178C15.2135 72.3178 15.0984 72.3206 14.9861 72.3262C14.8794 72.3318 14.7924 72.3431 14.725 72.3599V74.1116C14.7475 74.1172 14.784 74.1228 14.8345 74.1284C14.885 74.134 14.9384 74.1396 14.9945 74.1452C15.0507 74.1452 15.1012 74.1481 15.1461 74.1537C15.1966 74.1537 15.2359 74.1537 15.264 74.1537C15.4268 74.1537 15.5896 74.1424 15.7524 74.12C15.9153 74.0975 16.0584 74.0498 16.1819 73.9768C16.3111 73.9038 16.4149 73.8056 16.4935 73.6821C16.5721 73.5529 16.6114 73.3817 16.6114 73.1684C16.6114 72.9887 16.5749 72.8455 16.502 72.7389C16.429 72.6266 16.3307 72.5396 16.2072 72.4778C16.0893 72.416 15.9518 72.3739 15.7946 72.3515C15.643 72.329 15.4886 72.3178 15.3314 72.3178Z" fill="#1E1D1D"/>
<path d="M19.122 71.3072H22.9201V72.402H20.3684V73.6821H22.6843V74.7769H20.3684V76.1074H22.9622V77.2022H19.122V71.3072Z" fill="#1E1D1D"/>
<path d="M24.8436 74.6168V73.6652H25.0625C25.1187 73.6652 25.1861 73.6652 25.2647 73.6652C25.3489 73.6652 25.4331 73.6652 25.5173 73.6652C25.6071 73.6596 25.6913 73.654 25.7699 73.6484C25.8542 73.6372 25.9215 73.6259 25.9721 73.6147C26.1854 73.5754 26.3623 73.5052 26.5026 73.4042C26.6486 73.2975 26.7216 73.1459 26.7216 72.9494C26.7216 72.6968 26.6289 72.5255 26.4437 72.4357C26.264 72.3459 26.0226 72.301 25.7194 72.301C25.5847 72.301 25.4499 72.3122 25.3152 72.3346C25.1861 72.3515 25.0625 72.3767 24.9446 72.4104C24.8324 72.4441 24.7285 72.4806 24.6331 72.5199C24.5376 72.5536 24.459 72.5873 24.3973 72.621L24.0857 71.5599C24.1474 71.5318 24.2372 71.4981 24.3551 71.4588C24.4787 71.4139 24.6218 71.3746 24.7846 71.3409C24.9475 71.3016 25.1243 71.2707 25.3152 71.2483C25.5061 71.2202 25.6998 71.2062 25.8963 71.2062C26.1658 71.2062 26.4268 71.2286 26.6795 71.2735C26.9377 71.3185 27.1679 71.3971 27.37 71.5093C27.5721 71.6216 27.735 71.7732 27.8585 71.9641C27.982 72.155 28.0437 72.3964 28.0437 72.6883C28.0437 72.9747 27.9595 73.2413 27.7911 73.4884C27.6227 73.7354 27.3532 73.9151 26.9826 74.0273V74.0779C27.3756 74.1396 27.6816 74.294 27.9006 74.5411C28.1251 74.7881 28.2374 75.1137 28.2374 75.5179C28.2374 75.8323 28.1673 76.1046 28.0269 76.3348C27.8865 76.5594 27.7013 76.7447 27.4711 76.8906C27.2465 77.0366 26.9854 77.1433 26.6879 77.2107C26.3959 77.2836 26.0956 77.3201 25.7868 77.3201C25.5847 77.3201 25.3882 77.3089 25.1973 77.2864C25.012 77.2696 24.838 77.2471 24.6752 77.2191C24.5123 77.191 24.3664 77.1573 24.2372 77.118C24.1081 77.0787 24.0014 77.0366 23.9172 76.9917L24.2372 75.9137C24.3776 75.9755 24.5797 76.0429 24.8436 76.1159C25.1131 76.1889 25.4331 76.2253 25.8036 76.2253C25.9328 76.2253 26.0619 76.2113 26.191 76.1832C26.3258 76.1552 26.4465 76.1103 26.5531 76.0485C26.6598 75.9811 26.7468 75.8969 26.8142 75.7958C26.8816 75.6948 26.9153 75.5685 26.9153 75.4169C26.9153 75.2878 26.89 75.1755 26.8395 75.08C26.7946 74.9846 26.7132 74.906 26.5953 74.8442C26.483 74.7769 26.3286 74.7263 26.1321 74.6926C25.9412 74.6533 25.7026 74.6309 25.4162 74.6253C25.3433 74.6253 25.2871 74.6253 25.2478 74.6253C25.2141 74.6197 25.1524 74.6168 25.0625 74.6168H24.8436Z" fill="#1E1D1D"/>
<path d="M33.2845 73.9516L33.3519 73.202H33.3098L32.8803 73.96L30.4633 77.2022H29.537V71.3072H30.7833V74.4821L30.6991 75.2653H30.7496L31.2044 74.4821L33.5961 71.3072H34.5309V77.2022H33.2845V73.9516Z" fill="#1E1D1D"/>
<path d="M41.6609 78.2465H40.7767L40.6419 77.2022H36.5154L36.3807 78.2465H35.4964V76.1074H36.1786C36.2235 76.0457 36.2937 75.9109 36.3891 75.7032C36.4846 75.4955 36.58 75.1979 36.6754 74.8105C36.7709 74.4232 36.8523 73.9431 36.9197 73.3705C36.9927 72.7922 37.0235 72.1045 37.0123 71.3072H40.8525V76.1074H41.6609V78.2465ZM39.6061 76.1074V72.402H38.1745C38.1408 73.3677 38.0538 74.1593 37.9134 74.7769C37.7787 75.3944 37.6411 75.838 37.5007 76.1074H39.6061Z" fill="#1E1D1D"/>
<path d="M42.7892 71.3072H46.5873V72.402H44.0356V73.6821H46.3515V74.7769H44.0356V76.1074H46.6294V77.2022H42.7892V71.3072Z" fill="#1E1D1D"/>
<path d="M51.5846 74.7684H49.2266V77.2022H47.9802V71.3072H49.2266V73.6736H51.5846V71.3072H52.831V77.2022H51.5846V74.7684Z" fill="#1E1D1D"/>
<path d="M58.8865 72.402H57.0169V77.2022H55.7705V72.402H53.901V71.3072H58.8865V72.402Z" fill="#1E1D1D"/>
<path d="M63.9245 76.9496C63.7393 77.0787 63.495 77.1714 63.1919 77.2275C62.8887 77.2893 62.5771 77.3201 62.2571 77.3201C61.8809 77.3201 61.5188 77.264 61.1707 77.1517C60.8282 77.0394 60.5223 76.8598 60.2528 76.6127C59.9889 76.3657 59.7784 76.0485 59.6212 75.6611C59.464 75.2737 59.3854 74.8049 59.3854 74.2547C59.3854 73.6821 59.4752 73.202 59.6549 72.8147C59.8345 72.4217 60.0647 72.1073 60.3454 71.8715C60.6261 71.63 60.9377 71.456 61.2802 71.3493C61.6227 71.2427 61.9595 71.1893 62.2908 71.1893C62.6557 71.1893 62.9617 71.2118 63.2087 71.2567C63.4613 71.3016 63.6691 71.3549 63.8319 71.4167L63.5877 72.461C63.4473 72.3992 63.2817 72.3543 63.0908 72.3262C62.9055 72.2981 62.6697 72.2841 62.3834 72.2841C62.1308 72.2841 61.9006 72.3262 61.6928 72.4104C61.4907 72.489 61.3167 72.6097 61.1707 72.7726C61.0247 72.9354 60.9096 73.1403 60.8254 73.3873C60.7468 73.6343 60.7075 73.9235 60.7075 74.2547C60.7075 74.5467 60.744 74.8133 60.817 75.0548C60.89 75.2962 60.9995 75.5039 61.1454 75.6779C61.2914 75.852 61.4767 75.9867 61.7013 76.0822C61.9258 76.1776 62.1869 76.2253 62.4845 76.2253C62.7596 76.2253 62.9897 76.2001 63.175 76.1496C63.3659 76.099 63.5343 76.0345 63.6803 75.9559L63.9245 76.9496Z" fill="#1E1D1D"/>
<path d="M66.7072 74.7095H66.3787V77.2022H65.1323V71.3072H66.3787V73.901L66.6735 73.7747L68.442 71.3072H69.8652L67.9956 73.7747L67.5072 74.0947L68.0125 74.4316L70.1515 77.2022H68.6104L66.7072 74.7095Z" fill="#1E1D1D"/>
<path d="M70.7379 74.2547C70.7379 73.7719 70.7996 73.3396 70.9231 72.9578C71.0467 72.5761 71.2235 72.256 71.4537 71.9978C71.6895 71.7339 71.9758 71.5346 72.3127 71.3999C72.6495 71.2595 73.0313 71.1893 73.458 71.1893C73.9127 71.1893 74.3086 71.2651 74.6454 71.4167C74.9879 71.5627 75.2714 71.7704 75.496 72.0399C75.7262 72.3094 75.8974 72.6322 76.0097 73.0084C76.1276 73.3845 76.1865 73.8 76.1865 74.2547C76.1865 74.7376 76.122 75.1699 75.9928 75.5516C75.8693 75.9334 75.6897 76.2562 75.4539 76.5201C75.2181 76.7784 74.9317 76.9777 74.5949 77.118C74.258 77.2528 73.8791 77.3201 73.458 77.3201C73.0032 77.3201 72.6046 77.2471 72.2621 77.1012C71.9253 76.9496 71.6418 76.7391 71.4116 76.4696C71.187 76.2001 71.0186 75.8773 70.9063 75.5011C70.794 75.1249 70.7379 74.7095 70.7379 74.2547ZM72.06 74.2547C72.06 74.5467 72.0881 74.8133 72.1442 75.0548C72.2004 75.2962 72.2846 75.5039 72.3969 75.6779C72.5092 75.852 72.6523 75.9867 72.8264 76.0822C73.006 76.1776 73.2166 76.2253 73.458 76.2253C73.9015 76.2253 74.2468 76.0738 74.4938 75.7706C74.7409 75.4674 74.8644 74.9621 74.8644 74.2547C74.8644 73.974 74.8391 73.7129 74.7886 73.4715C74.738 73.2301 74.6538 73.0224 74.5359 72.8483C74.4237 72.6687 74.2777 72.5311 74.098 72.4357C73.924 72.3346 73.7106 72.2841 73.458 72.2841C73.0201 72.2841 72.6776 72.4413 72.4306 72.7557C72.1835 73.0701 72.06 73.5698 72.06 74.2547Z" fill="#1E1D1D"/>
<path d="M81.2104 72.402H78.7346V77.2022H77.4882V71.3072H81.2104V72.402Z" fill="#1E1D1D"/>
<path d="M81.6956 74.2547C81.6956 73.7719 81.7574 73.3396 81.8809 72.9578C82.0044 72.5761 82.1812 72.256 82.4114 71.9978C82.6472 71.7339 82.9335 71.5346 83.2704 71.3999C83.6073 71.2595 83.989 71.1893 84.4157 71.1893C84.8705 71.1893 85.2663 71.2651 85.6031 71.4167C85.9456 71.5627 86.2291 71.7704 86.4537 72.0399C86.6839 72.3094 86.8551 72.6322 86.9674 73.0084C87.0853 73.3845 87.1443 73.8 87.1443 74.2547C87.1443 74.7376 87.0797 75.1699 86.9506 75.5516C86.8271 75.9334 86.6474 76.2562 86.4116 76.5201C86.1758 76.7784 85.8895 76.9777 85.5526 77.118C85.2158 77.2528 84.8368 77.3201 84.4157 77.3201C83.961 77.3201 83.5623 77.2471 83.2199 77.1012C82.883 76.9496 82.5995 76.7391 82.3693 76.4696C82.1447 76.2001 81.9763 75.8773 81.864 75.5011C81.7517 75.1249 81.6956 74.7095 81.6956 74.2547ZM83.0178 74.2547C83.0178 74.5467 83.0458 74.8133 83.102 75.0548C83.1581 75.2962 83.2423 75.5039 83.3546 75.6779C83.4669 75.852 83.6101 75.9867 83.7841 76.0822C83.9638 76.1776 84.1743 76.2253 84.4157 76.2253C84.8593 76.2253 85.2045 76.0738 85.4516 75.7706C85.6986 75.4674 85.8221 74.9621 85.8221 74.2547C85.8221 73.974 85.7968 73.7129 85.7463 73.4715C85.6958 73.2301 85.6116 73.0224 85.4937 72.8483C85.3814 72.6687 85.2354 72.5311 85.0558 72.4357C84.8817 72.3346 84.6684 72.2841 84.4157 72.2841C83.9778 72.2841 83.6353 72.4413 83.3883 72.7557C83.1413 73.0701 83.0178 73.5698 83.0178 74.2547Z" fill="#1E1D1D"/>
<path d="M2.82118 87.7515C2.70328 87.7684 2.58538 87.7796 2.46748 87.7852C2.34958 87.7908 2.22045 87.7936 2.0801 87.7936C1.79377 87.7936 1.52428 87.7459 1.27164 87.6505C1.01899 87.555 0.797229 87.4091 0.606344 87.2126C0.421072 87.0161 0.272293 86.7718 0.160007 86.4799C0.0533358 86.1879 0 85.8427 0 85.444C0 85.0679 0.0533358 84.7282 0.160007 84.4251C0.272293 84.1219 0.426686 83.8664 0.623186 83.6587C0.819687 83.4454 1.05549 83.2825 1.33059 83.1703C1.6113 83.058 1.91728 83.0018 2.24852 83.0018C2.32712 83.0018 2.42257 83.0046 2.53485 83.0103C2.65275 83.0159 2.7482 83.0271 2.82118 83.0439V82.3281H4.05913V83.0692C4.17142 83.0411 4.30055 83.0243 4.44652 83.0187C4.59249 83.0074 4.7132 83.0018 4.80864 83.0018C5.10058 83.0018 5.37288 83.0524 5.62552 83.1534C5.87816 83.2545 6.09712 83.4061 6.28239 83.6082C6.46767 83.8047 6.61364 84.0489 6.72031 84.3408C6.82698 84.6328 6.88032 84.9724 6.88032 85.3598C6.88032 85.7528 6.82137 86.1009 6.70346 86.4041C6.58557 86.7073 6.42556 86.9627 6.22344 87.1704C6.02133 87.3726 5.78553 87.527 5.51604 87.6336C5.25217 87.7403 4.97146 87.7936 4.6739 87.7936C4.57284 87.7936 4.46336 87.7908 4.34546 87.7852C4.23318 87.774 4.13773 87.7571 4.05913 87.7347V88.56H2.82118V87.7515ZM4.51389 83.9871C4.45213 83.9871 4.36792 83.9899 4.26125 83.9956C4.16019 84.0012 4.07598 84.0124 4.0086 84.0292V86.7915C4.05913 86.8027 4.12089 86.8083 4.19388 86.8083C4.26686 86.8083 4.34266 86.8083 4.42126 86.8083C4.58407 86.8083 4.73846 86.7803 4.88443 86.7241C5.03041 86.668 5.15673 86.5838 5.2634 86.4715C5.37569 86.3536 5.46271 86.2048 5.52446 86.0251C5.58622 85.8399 5.6171 85.6209 5.6171 85.3683C5.6171 84.9303 5.51604 84.5907 5.31393 84.3493C5.11743 84.1078 4.85075 83.9871 4.51389 83.9871ZM2.40011 86.8083C2.45064 86.8083 2.52362 86.8083 2.61907 86.8083C2.71451 86.8027 2.79872 86.7887 2.87171 86.7662V84.0124C2.74258 83.9956 2.59942 83.9871 2.44222 83.9871C2.2794 83.9871 2.12501 84.0152 1.97904 84.0714C1.83868 84.1275 1.71517 84.2145 1.60849 84.3324C1.50182 84.4503 1.41761 84.6019 1.35585 84.7872C1.29409 84.9668 1.26322 85.183 1.26322 85.4356C1.26322 85.8792 1.36708 86.2188 1.57481 86.4546C1.78815 86.6904 2.06325 86.8083 2.40011 86.8083Z" fill="#1E1D1D"/>
<path d="M7.86641 85.444C7.86641 84.9612 7.92817 84.5289 8.05168 84.1471C8.1752 83.7654 8.35205 83.4454 8.58223 83.1871C8.81804 82.9232 9.10436 82.7239 9.44122 82.5892C9.77808 82.4488 10.1599 82.3786 10.5865 82.3786C11.0413 82.3786 11.4371 82.4544 11.774 82.606C12.1164 82.752 12.4 82.9597 12.6245 83.2292C12.8547 83.4987 13.0259 83.8215 13.1382 84.1977C13.2561 84.5738 13.3151 84.9893 13.3151 85.444C13.3151 85.9269 13.2505 86.3592 13.1214 86.741C12.9979 87.1227 12.8182 87.4455 12.5824 87.7094C12.3466 87.9677 12.0603 88.167 11.7234 88.3073C11.3866 88.4421 11.0076 88.5095 10.5865 88.5095C10.1318 88.5095 9.73316 88.4365 9.39069 88.2905C9.05384 88.1389 8.77031 87.9284 8.54013 87.6589C8.31556 87.3894 8.14713 87.0666 8.03484 86.6904C7.92255 86.3143 7.86641 85.8988 7.86641 85.444ZM9.18858 85.444C9.18858 85.736 9.21665 86.0027 9.27279 86.2441C9.32894 86.4855 9.41315 86.6932 9.52544 86.8673C9.63772 87.0413 9.78089 87.1761 9.95493 87.2715C10.1346 87.3669 10.3451 87.4147 10.5865 87.4147C11.0301 87.4147 11.3753 87.2631 11.6224 86.9599C11.8694 86.6567 11.9929 86.1515 11.9929 85.444C11.9929 85.1633 11.9677 84.9023 11.9171 84.6609C11.8666 84.4194 11.7824 84.2117 11.6645 84.0377C11.5522 83.858 11.4062 83.7205 11.2266 83.625C11.0525 83.524 10.8392 83.4734 10.5865 83.4734C10.1486 83.4734 9.80615 83.6306 9.55912 83.945C9.31209 84.2594 9.18858 84.7591 9.18858 85.444Z" fill="#1E1D1D"/>
<path d="M18.2211 85.9578H15.8631V88.3916H14.6167V82.4965H15.8631V84.863H18.2211V82.4965H19.4675V88.3916H18.2211V85.9578Z" fill="#1E1D1D"/>
<path d="M26.6009 89.4358H25.7166L25.5819 88.3916H21.4554L21.3206 89.4358H20.4364V87.2968H21.1185C21.1634 87.235 21.2336 87.1003 21.3291 86.8925C21.4245 86.6848 21.52 86.3872 21.6154 85.9999C21.7108 85.6125 21.7922 85.1325 21.8596 84.5598C21.9326 83.9815 21.9635 83.2938 21.9523 82.4965H25.7924V87.2968H26.6009V89.4358ZM24.5461 87.2968V83.5913H23.1144C23.0807 84.557 22.9937 85.3486 22.8533 85.9662C22.7186 86.5837 22.5811 87.0273 22.4407 87.2968H24.5461Z" fill="#1E1D1D"/>
<path d="M30.8956 87.1368H28.9082L28.4281 88.3916H27.1818L29.4892 82.4544H30.4072L32.7231 88.3916H31.4009L30.8956 87.1368ZM29.2534 86.1514H30.6009L30.1461 84.9219L29.944 83.9871H29.9019L29.6998 84.9303L29.2534 86.1514Z" fill="#1E1D1D"/>
<path d="M37.6136 85.8988H37.2851V88.3916H36.0388V82.4965H37.2851V85.0903L37.5799 84.964L39.3484 82.4965H40.7716L38.902 84.964L38.4136 85.284L38.9189 85.6209L41.0579 88.3916H39.5168L37.6136 85.8988Z" fill="#1E1D1D"/>
<path d="M43.9032 85.0651L44.0885 85.8146H44.1474L44.2906 85.0314L45.2506 82.4965H46.556L44.8464 86.5978C44.7173 86.9122 44.5881 87.1845 44.459 87.4147C44.3299 87.6449 44.1923 87.8385 44.0464 87.9957C43.9004 88.1473 43.7376 88.2624 43.5579 88.341C43.3783 88.414 43.1705 88.4505 42.9347 88.4505C42.7326 88.4505 42.5726 88.4393 42.4547 88.4168C42.3368 88.3944 42.2049 88.3382 42.0589 88.2484L42.3705 87.2462C42.4772 87.2968 42.5726 87.3276 42.6568 87.3389C42.7466 87.3501 42.8393 87.3557 42.9347 87.3557C43.2267 87.3557 43.4288 87.1592 43.5411 86.7662L41.141 82.4965H42.6063L43.9032 85.0651Z" fill="#1E1D1D"/>
<path d="M50.4469 83.5913H49.0911C49.063 84.1247 49.0321 84.6075 48.9984 85.0398C48.9704 85.4665 48.9282 85.8511 48.8721 86.1936C48.8216 86.536 48.7514 86.842 48.6616 87.1115C48.5717 87.3754 48.4595 87.6084 48.3247 87.8105C48.2349 87.9396 48.1338 88.0463 48.0215 88.1305C47.9149 88.2147 47.8026 88.2821 47.6847 88.3326C47.5668 88.3775 47.4517 88.4084 47.3394 88.4252C47.2271 88.4477 47.1233 88.4589 47.0278 88.4589C46.8818 88.4589 46.7667 88.4477 46.6825 88.4252C46.6039 88.4028 46.5169 88.3691 46.4215 88.3242L46.5562 87.2799C46.618 87.3024 46.691 87.3136 46.7752 87.3136C46.8706 87.3136 46.9661 87.2912 47.0615 87.2462C47.1569 87.2013 47.2412 87.1283 47.3141 87.0273C47.404 86.9038 47.4826 86.7269 47.5499 86.4967C47.6229 86.2665 47.6819 85.969 47.7268 85.6041C47.7773 85.2335 47.8166 84.7928 47.8447 84.2819C47.8784 83.771 47.9008 83.1759 47.9121 82.4965H51.6933V88.3916H50.4469V83.5913Z" fill="#1E1D1D"/>
<path d="M53.2073 82.4965H54.4537V84.5935C54.4818 84.5879 54.5295 84.5823 54.5968 84.5766C54.6642 84.5654 54.7372 84.557 54.8158 84.5514C54.9 84.5458 54.9842 84.5401 55.0684 84.5345C55.1583 84.5289 55.2369 84.5261 55.3042 84.5261C55.6074 84.5261 55.8994 84.5542 56.1801 84.6103C56.4664 84.6665 56.7162 84.7675 56.9296 84.9135C57.1485 85.0595 57.3226 85.256 57.4517 85.503C57.5865 85.75 57.6538 86.0616 57.6538 86.4378C57.6538 87.1115 57.4208 87.6196 56.9548 87.9621C56.4945 88.3045 55.846 88.4758 55.0095 88.4758C54.9253 88.4758 54.8102 88.473 54.6642 88.4673C54.5239 88.4673 54.3695 88.4617 54.201 88.4505C54.0326 88.4393 53.8614 88.4252 53.6873 88.4084C53.5133 88.3916 53.3533 88.3663 53.2073 88.3326V82.4965ZM55.0684 87.381C55.2369 87.381 55.3969 87.3669 55.5485 87.3389C55.7057 87.3108 55.8404 87.2631 55.9527 87.1957C56.0706 87.1227 56.1632 87.0301 56.2306 86.9178C56.298 86.7999 56.3317 86.6539 56.3317 86.4799C56.3317 86.2946 56.2952 86.1458 56.2222 86.0336C56.1548 85.9213 56.0622 85.8342 55.9443 85.7725C55.8264 85.7107 55.6916 85.6714 55.54 85.6546C55.3885 85.6321 55.2313 85.6209 55.0684 85.6209C55.0235 85.6209 54.9702 85.6237 54.9084 85.6293C54.8523 85.6349 54.7933 85.6406 54.7316 85.6462C54.6698 85.6518 54.6137 85.6602 54.5632 85.6714C54.5126 85.677 54.4761 85.6827 54.4537 85.6883V87.3389C54.521 87.3501 54.6081 87.3613 54.7147 87.3726C54.827 87.3782 54.9449 87.381 55.0684 87.381Z" fill="#1E1D1D"/>
<path d="M62.3618 83.5913H60.4922V88.3916H59.2459V83.5913H57.3763V82.4965H62.3618V83.5913Z" fill="#1E1D1D"/>
<path d="M65.7118 85.0651L65.897 85.8146H65.956L66.0992 85.0314L67.0592 82.4965H68.3645L66.655 86.5978C66.5258 86.9122 66.3967 87.1845 66.2676 87.4147C66.1385 87.6449 66.0009 87.8385 65.8549 87.9957C65.709 88.1473 65.5461 88.2624 65.3665 88.341C65.1868 88.414 64.9791 88.4505 64.7433 88.4505C64.5412 88.4505 64.3812 88.4393 64.2633 88.4168C64.1454 88.3944 64.0134 88.3382 63.8675 88.2484L64.1791 87.2462C64.2857 87.2968 64.3812 87.3276 64.4654 87.3389C64.5552 87.3501 64.6479 87.3557 64.7433 87.3557C65.0352 87.3557 65.2374 87.1592 65.3496 86.7662L62.9495 82.4965H64.4149L65.7118 85.0651Z" fill="#1E1D1D"/>
<path d="M69.1916 82.5555C69.4442 82.5106 69.725 82.4769 70.0337 82.4544C70.3425 82.4264 70.6513 82.4123 70.9601 82.4123C71.2745 82.4123 71.5917 82.4376 71.9117 82.4881C72.2317 82.533 72.5181 82.6285 72.7707 82.7745C73.029 82.9148 73.2395 83.1141 73.4023 83.3724C73.5651 83.625 73.6465 83.9619 73.6465 84.3829C73.6465 84.7535 73.5764 85.0707 73.436 85.3346C73.2956 85.5928 73.1076 85.8034 72.8718 85.9662C72.6416 86.129 72.3777 86.2497 72.0801 86.3283C71.7826 86.4013 71.4766 86.4378 71.1622 86.4378C71.1341 86.4378 71.0864 86.4378 71.019 86.4378C70.9517 86.4378 70.8787 86.4378 70.8001 86.4378C70.7271 86.4322 70.6569 86.4266 70.5896 86.4209C70.5222 86.4153 70.4716 86.4097 70.438 86.4041V88.3916H69.1916V82.5555ZM71.0443 83.5071C70.9264 83.5071 70.8113 83.5099 70.699 83.5155C70.5924 83.5212 70.5053 83.5324 70.438 83.5492V85.3009C70.4604 85.3065 70.4969 85.3121 70.5474 85.3177C70.598 85.3233 70.6513 85.329 70.7075 85.3346C70.7636 85.3346 70.8141 85.3374 70.859 85.343C70.9096 85.343 70.9489 85.343 70.9769 85.343C71.1398 85.343 71.3026 85.3318 71.4654 85.3093C71.6282 85.2868 71.7714 85.2391 71.8949 85.1661C72.024 85.0932 72.1279 84.9949 72.2065 84.8714C72.2851 84.7423 72.3244 84.571 72.3244 84.3577C72.3244 84.178 72.2879 84.0349 72.2149 83.9282C72.1419 83.8159 72.0437 83.7289 71.9201 83.6671C71.8022 83.6054 71.6647 83.5633 71.5075 83.5408C71.3559 83.5183 71.2015 83.5071 71.0443 83.5071Z" fill="#1E1D1D"/>
<path d="M78.4393 85.9578H76.0813V88.3916H74.8349V82.4965H76.0813V84.863H78.4393V82.4965H79.6857V88.3916H78.4393V85.9578Z" fill="#1E1D1D"/>
<path d="M86.1454 82.4965H87.3918V88.3916H86.1454V82.4965ZM81.202 82.4965H82.4484V84.5935C82.5101 84.5823 82.6112 84.5682 82.7515 84.5514C82.8975 84.5345 83.0435 84.5261 83.1895 84.5261C83.4926 84.5261 83.7818 84.557 84.0569 84.6187C84.3376 84.6749 84.5818 84.7759 84.7895 84.9219C85.0029 85.0623 85.1713 85.256 85.2948 85.503C85.4183 85.75 85.4801 86.0588 85.4801 86.4294C85.4801 87.1087 85.2611 87.6196 84.8232 87.9621C84.3853 88.3045 83.7453 88.4758 82.9031 88.4758C82.8189 88.4758 82.7094 88.473 82.5747 88.4673C82.44 88.4673 82.294 88.4617 82.1368 88.4505C81.9796 88.4393 81.8196 88.4252 81.6568 88.4084C81.4939 88.3916 81.3424 88.3663 81.202 88.3326V82.4965ZM82.9874 87.381C83.3298 87.381 83.6105 87.3108 83.8295 87.1704C84.0485 87.0301 84.1579 86.7971 84.1579 86.4715C84.1579 86.2974 84.1271 86.1571 84.0653 86.0504C84.0035 85.9381 83.9193 85.8511 83.8127 85.7893C83.7116 85.722 83.5881 85.677 83.4421 85.6546C83.3018 85.6321 83.153 85.6209 82.9958 85.6209C82.9565 85.6209 82.9088 85.6237 82.8526 85.6293C82.8021 85.6349 82.7487 85.6406 82.6926 85.6462C82.6421 85.6518 82.5944 85.6602 82.5494 85.6714C82.5045 85.677 82.4708 85.6827 82.4484 85.6883V87.3389C82.5887 87.3669 82.7684 87.381 82.9874 87.381Z" fill="#1E1D1D"/>
<path d="M90.417 85.3935L88.6317 82.4965H90.1391L91.1244 84.1724L91.3518 84.7535L91.5708 84.1724L92.5982 82.4965H93.954L92.1013 85.3346L94.0467 88.3916H92.5561L91.4276 86.5978L91.175 85.9914L90.9307 86.5978L89.8023 88.3916H88.4464L90.417 85.3935Z" fill="#1E1D1D"/>
<path d="M23.9139 96.3302L23.9813 95.5807H23.9391L23.5097 96.3386L21.0927 99.5809H20.1663V93.6859H21.4127V96.8608L21.3285 97.6439H21.379L21.8338 96.8608L24.2255 93.6859H25.1603V99.5809H23.9139V96.3302Z" fill="#1E1D1D"/>
<path d="M30.2776 97.1471H27.9196V99.5809H26.6732V93.6859H27.9196V96.0523H30.2776V93.6859H31.524V99.5809H30.2776V97.1471Z" fill="#1E1D1D"/>
<path d="M36.7878 96.3302L36.8552 95.5807H36.8131L36.3836 96.3386L33.9666 99.5809H33.0403V93.6859H34.2867V96.8608L34.2024 97.6439H34.253L34.7077 96.8608L37.0994 93.6859H38.0342V99.5809H36.7878V96.3302Z" fill="#1E1D1D"/>
<path d="M45.08 100.625H44.1958L44.0611 99.5809H39.5472V93.6859H40.7935V98.4861H43.0168V93.6859H44.2632V98.4861H45.08V100.625Z" fill="#1E1D1D"/>
<path d="M49.9578 96.3302L50.0252 95.5807H49.9831L49.5536 96.3386L47.1367 99.5809H46.2103V93.6859H47.4567V96.8608L47.3725 97.6439H47.423L47.8777 96.8608L50.2694 93.6859H51.2042V99.5809H49.9578V96.3302Z" fill="#1E1D1D"/>
<path d="M55.8836 98.3261H53.8962L53.4162 99.5809H52.1698L54.4773 93.6438H55.3952L57.7111 99.5809H56.3889L55.8836 98.3261ZM54.2415 97.3408H55.5889L55.1341 96.1112L54.932 95.1765H54.8899L54.6878 96.1197L54.2415 97.3408Z" fill="#1E1D1D"/>
<path d="M62.4967 94.7807H60.6271V99.5809H59.3808V94.7807H57.5112V93.6859H62.4967V94.7807Z" fill="#1E1D1D"/>
<path d="M67.3155 96.3302L67.3829 95.5807H67.3408L66.9113 96.3386L64.4944 99.5809H63.568V93.6859H64.8144V96.8608L64.7302 97.6439H64.7807L65.2354 96.8608L67.6271 93.6859H68.5619V99.5809H67.3155V96.3302Z" fill="#1E1D1D"/>
<path d="M74.3867 95.0754C74.3867 95.2214 74.3642 95.3674 74.3193 95.5133C74.28 95.6537 74.2154 95.7856 74.1256 95.9091C74.0358 96.0326 73.9179 96.1393 73.7719 96.2291C73.6259 96.319 73.4491 96.3835 73.2413 96.4228V96.4734C73.4266 96.4902 73.6007 96.5323 73.7635 96.5997C73.9263 96.6671 74.0666 96.7625 74.1845 96.886C74.3081 97.0039 74.4035 97.1499 74.4709 97.3239C74.5439 97.4924 74.5803 97.6917 74.5803 97.9219C74.5803 98.2306 74.5074 98.4945 74.3614 98.7135C74.221 98.9324 74.0358 99.1121 73.8056 99.2524C73.5754 99.3928 73.3115 99.4967 73.014 99.564C72.7164 99.6314 72.4132 99.6651 72.1044 99.6651C72.0034 99.6651 71.8686 99.6651 71.7002 99.6651C71.5374 99.6651 71.3605 99.6595 71.1697 99.6483C70.9844 99.6426 70.7935 99.6314 70.597 99.6146C70.4061 99.5977 70.2321 99.5725 70.0749 99.5388V93.728C70.1928 93.7111 70.3247 93.6943 70.4707 93.6774C70.6223 93.6606 70.7823 93.6466 70.9507 93.6353C71.1247 93.6241 71.3016 93.6157 71.4813 93.6101C71.6609 93.6045 71.8406 93.6017 72.0202 93.6017C72.3122 93.6017 72.5985 93.6241 72.8792 93.669C73.1599 93.7083 73.4126 93.7841 73.6371 93.8964C73.8617 94.0031 74.0414 94.1519 74.1761 94.3427C74.3165 94.5336 74.3867 94.7778 74.3867 95.0754ZM72.0876 98.6545C72.2448 98.6545 72.3936 98.6405 72.5339 98.6124C72.6799 98.5843 72.8062 98.5394 72.9129 98.4777C73.0252 98.4103 73.1122 98.3289 73.174 98.2334C73.2413 98.1324 73.275 98.0089 73.275 97.8629C73.275 97.6832 73.2357 97.5401 73.1571 97.4334C73.0785 97.3267 72.9747 97.2481 72.8455 97.1976C72.722 97.1415 72.5817 97.1078 72.4245 97.0965C72.2729 97.0797 72.1185 97.0713 71.9613 97.0713H71.2707V98.604C71.3044 98.6152 71.3521 98.6236 71.4139 98.6293C71.4813 98.6349 71.5542 98.6405 71.6328 98.6461C71.7114 98.6461 71.79 98.6489 71.8686 98.6545C71.9529 98.6545 72.0258 98.6545 72.0876 98.6545ZM71.6918 96.1449C71.776 96.1449 71.8743 96.1449 71.9865 96.1449C72.1044 96.1393 72.2027 96.1309 72.2813 96.1197C72.5171 96.0467 72.7164 95.9484 72.8792 95.8249C73.042 95.6958 73.1234 95.5217 73.1234 95.3028C73.1234 95.1568 73.0926 95.0389 73.0308 94.9491C72.969 94.8593 72.8848 94.7891 72.7782 94.7385C72.6771 94.688 72.562 94.6543 72.4329 94.6375C72.3038 94.6206 72.1718 94.6122 72.0371 94.6122C71.8743 94.6122 71.7255 94.615 71.5907 94.6206C71.456 94.6263 71.3493 94.6347 71.2707 94.6459V96.1449H71.6918Z" fill="#1E1D1D"/>
<path d="M36.708 27.7612C36.3971 27.7573 36.1002 27.6315 35.8811 27.4109C35.662 27.1903 35.5382 26.8926 35.5363 26.5816C35.5384 26.2709 35.6623 25.9733 35.8814 25.7529C36.1004 25.5325 36.3972 25.4068 36.708 25.4029H46.9372V2.89392C46.1919 1.17877 44.6999 0 42.7822 0H25.626C27.4376 0 29.1425 1.17877 29.5689 3.00072V50.6974C29.1417 52.4125 27.4376 53.5929 25.626 53.5929H42.7822C44.6999 53.5929 46.2987 52.4141 46.938 50.5914V27.7612H36.7088H36.708Z" fill="#0039A6"/>
<path d="M36.708 27.7612C36.3971 27.7573 36.1002 27.6315 35.8811 27.4109C35.662 27.1903 35.5382 26.8926 35.5363 26.5816C35.5384 26.2709 35.6623 25.9733 35.8814 25.7529C36.1004 25.5325 36.3972 25.4068 36.708 25.4029H46.9372V2.89392C46.1919 1.17877 44.6999 0 42.7822 0H25.626C27.4376 0 29.1425 1.17877 29.5689 3.00072V50.6974C29.1417 52.4125 27.4376 53.5929 25.626 53.5929H42.7822C44.6999 53.5929 46.2987 52.4141 46.938 50.5914V27.7612H36.7088H36.708Z" fill="url(#paint0_linear_449:293)"/>
<path d="M36.708 27.7612C36.3971 27.7573 36.1002 27.6315 35.8811 27.4109C35.662 27.1903 35.5382 26.8926 35.5363 26.5816C35.5384 26.2709 35.6623 25.9733 35.8814 25.7529C36.1004 25.5325 36.3972 25.4068 36.708 25.4029H46.9372V2.89392C46.1919 1.17877 44.6999 0 42.7822 0H25.626C27.4376 0 29.1425 1.17877 29.5689 3.00072V50.6974C29.1417 52.4125 27.4376 53.5929 25.626 53.5929H42.7822C44.6999 53.5929 46.2987 52.4141 46.938 50.5914V27.7612H36.7088H36.708Z" fill="url(#paint1_linear_449:293)"/>
<path d="M73.1509 0H54.6094C52.6909 0 51.0928 1.17877 50.3468 2.89392L42.9941 22.509C42.3549 24.2233 40.65 25.4029 38.8384 25.4029H57.5927C59.5112 25.4029 61.1092 24.2241 61.8552 22.509L69.1019 2.89392C69.6343 1.07197 71.3392 0 73.1509 0Z" fill="white"/>
<path d="M73.1509 0H54.6094C52.6909 0 51.0928 1.17877 50.3468 2.89392L42.9941 22.509C42.3549 24.2233 40.65 25.4029 38.8384 25.4029H57.5927C59.5112 25.4029 61.1092 24.2241 61.8552 22.509L69.1019 2.89392C69.6343 1.07197 71.3392 0 73.1509 0Z" fill="url(#paint2_linear_449:293)"/>
<path d="M38.8384 27.761H57.4867C59.4043 27.761 61.0024 28.9398 61.7484 30.7618L68.9951 50.698C69.6343 52.4131 71.3392 53.6987 73.1509 53.6987H54.5034C52.5849 53.6987 50.986 52.5199 50.24 50.698L42.9941 30.7618C42.4617 28.9398 40.65 27.7603 38.8384 27.7603V27.761Z" fill="#E40521"/>
<path d="M38.8384 27.761H57.4867C59.4043 27.761 61.0024 28.9398 61.7484 30.7618L68.9951 50.698C69.6343 52.4131 71.3392 53.6987 73.1509 53.6987H54.5034C52.5849 53.6987 50.986 52.5199 50.24 50.698L42.9941 30.7618C42.4617 28.9398 40.65 27.7603 38.8384 27.7603V27.761Z" fill="#E40521"/>
<path d="M36.708 27.7612C36.3971 27.7573 36.1002 27.6315 35.8811 27.4109C35.662 27.1903 35.5382 26.8926 35.5363 26.5816C35.5384 26.2709 35.6623 25.9733 35.8814 25.7529C36.1004 25.5325 36.3972 25.4068 36.708 25.4029H46.9372V2.89392C46.1919 1.17877 44.6999 0 42.7822 0H25.626C27.4376 0 29.1425 1.17877 29.5689 3.00072V50.6974C29.1417 52.4125 27.4376 53.5929 25.626 53.5929H42.7822C44.6999 53.5929 46.2987 52.4141 46.938 50.5914V27.7612H36.7088H36.708Z" fill="url(#paint3_linear_449:293)"/>
<path d="M73.1509 0H54.6094C52.6909 0 51.0928 1.17877 50.3468 2.89392L42.9941 22.509C42.3549 24.2233 40.65 25.4029 38.8384 25.4029H57.5927C59.5112 25.4029 61.1092 24.2241 61.8552 22.509L69.1019 2.89392C69.6343 1.07197 71.3392 0 73.1509 0Z" fill="url(#paint4_linear_449:293)"/>
<path d="M38.8384 27.761H57.4867C59.4043 27.761 61.0024 28.9398 61.7484 30.7618L68.9951 50.698C69.6343 52.4131 71.3392 53.6987 73.1509 53.6987H54.5034C52.5849 53.6987 50.986 52.5199 50.24 50.698L42.9941 30.7618C42.4617 28.9398 40.65 27.7603 38.8384 27.7603V27.761Z" fill="url(#paint5_linear_449:293)"/>
<defs>
<linearGradient id="paint0_linear_449:293" x1="36.2816" y1="0" x2="36.2816" y2="53.5921" gradientUnits="userSpaceOnUse">
<stop stop-color="#5FD5FA"/>
<stop offset="1" stop-color="#355CD1"/>
</linearGradient>
<linearGradient id="paint1_linear_449:293" x1="36.2816" y1="0" x2="36.2816" y2="53.5921" gradientUnits="userSpaceOnUse">
<stop stop-color="white"/>
<stop offset="1" stop-color="#D4D4D4"/>
</linearGradient>
<linearGradient id="paint2_linear_449:293" x1="55.9946" y1="0" x2="55.9946" y2="25.4029" gradientUnits="userSpaceOnUse">
<stop stop-color="#E7E7E7"/>
<stop offset="0.689" stop-color="white"/>
<stop offset="1" stop-color="#C2C2C2"/>
</linearGradient>
<linearGradient id="paint3_linear_449:293" x1="36.2816" y1="0" x2="36.2816" y2="53.5921" gradientUnits="userSpaceOnUse">
<stop stop-color="#E7E7E7"/>
<stop offset="0.689" stop-color="white"/>
<stop offset="1" stop-color="#C2C2C2"/>
</linearGradient>
<linearGradient id="paint4_linear_449:293" x1="55.9946" y1="0" x2="55.9946" y2="25.4029" gradientUnits="userSpaceOnUse">
<stop stop-color="#5FD5FA"/>
<stop offset="1" stop-color="#355CD1"/>
</linearGradient>
<linearGradient id="paint5_linear_449:293" x1="55.9946" y1="27.7603" x2="55.9946" y2="53.6987" gradientUnits="userSpaceOnUse">
<stop stop-color="#FF213D"/>
<stop offset="1" stop-color="#9E0418"/>
</linearGradient>
</defs>
</svg>
