<svg width="221" height="161" viewBox="0 0 221 161" fill="none" xmlns="http://www.w3.org/2000/svg">
<path d="M102.099 61.5024H103.667C104.282 61.5032 104.883 61.3141 105.389 60.9607C105.895 60.6073 106.281 60.1064 106.496 59.5253L110.086 49.8129V44.4812C110.086 44.0411 109.999 43.6053 109.832 43.1988C109.664 42.7923 109.419 42.423 109.11 42.112C108.8 41.801 108.433 41.5545 108.03 41.3864C107.626 41.2183 107.193 41.1319 106.756 41.1323H93.8828V41.239C94.5955 41.4254 95.2266 41.8449 95.6771 42.4317C96.1275 43.0185 96.3719 43.7394 96.3717 44.4812V80.4833C96.372 81.2255 96.1278 81.9468 95.6774 82.5341C95.2269 83.1214 94.5958 83.5415 93.8828 83.7285V83.8351H106.756C107.193 83.8355 107.626 83.7491 108.03 83.5808C108.434 83.4125 108.801 83.1657 109.111 82.8544C109.42 82.5431 109.665 82.1735 109.833 81.7666C110 81.3598 110.086 80.9237 110.086 80.4833V75.1573L106.484 65.4363C106.273 64.8549 105.889 64.3529 105.385 63.9982C104.881 63.6436 104.281 63.4535 103.667 63.4535H102.099C101.967 63.4607 101.836 63.4408 101.712 63.3951C101.588 63.3493 101.475 63.2786 101.379 63.1873C101.284 63.096 101.207 62.986 101.155 62.864C101.103 62.7421 101.076 62.6107 101.076 62.4779C101.076 62.3452 101.103 62.2138 101.155 62.0918C101.207 61.9699 101.284 61.8599 101.379 61.7686C101.475 61.6773 101.588 61.6066 101.712 61.5608C101.836 61.5151 101.967 61.4952 102.099 61.5024Z" fill="white"/>
<path d="M106.756 83.9593H93.8827C93.8483 83.9585 93.8155 83.9442 93.7915 83.9194C93.7674 83.8946 93.7539 83.8614 93.7539 83.8267V83.7201C93.7537 83.691 93.7632 83.6627 93.7808 83.6397C93.7984 83.6167 93.8232 83.6003 93.8512 83.5932C94.5345 83.4136 95.1394 83.0111 95.5716 82.4485C96.0038 81.8859 96.2388 81.1949 96.2399 80.4836V44.4815C96.2405 43.769 96.0063 43.0764 95.5739 42.5126C95.1416 41.9487 94.5357 41.5454 93.8512 41.366C93.8232 41.3589 93.7984 41.3426 93.7808 41.3196C93.7632 41.2966 93.7537 41.2683 93.7539 41.2392V41.1326C93.7536 41.1153 93.7566 41.0981 93.7629 41.0821C93.7692 41.066 93.7786 41.0513 93.7906 41.039C93.8026 41.0266 93.8169 41.0168 93.8327 41.0101C93.8485 41.0034 93.8655 41 93.8827 41H106.756C107.673 41.0008 108.551 41.3677 109.2 42.0204C109.848 42.673 110.213 43.5581 110.215 44.4815V49.8132C110.218 49.8284 110.218 49.8441 110.215 49.8593L106.622 59.5602C106.397 60.1675 105.993 60.6915 105.465 61.0622C104.937 61.4329 104.31 61.6328 103.666 61.6352H102.099C101.989 61.6352 101.88 61.657 101.778 61.6995C101.676 61.7419 101.584 61.8041 101.506 61.8825C101.428 61.9609 101.366 62.054 101.324 62.1565C101.282 62.2589 101.261 62.3687 101.261 62.4796C101.261 62.7034 101.35 62.9177 101.507 63.0759C101.664 63.2341 101.877 63.3233 102.099 63.3241H103.666C104.307 63.3267 104.932 63.5263 105.457 63.896C105.982 64.2658 106.382 64.7882 106.604 65.3933L110.206 75.1115C110.209 75.1267 110.209 75.1423 110.206 75.1576V80.4836C110.203 81.4044 109.839 82.2867 109.192 82.9379C108.546 83.5891 107.67 83.9562 106.756 83.9593ZM94.3633 83.697H106.756C107.602 83.6955 108.414 83.3567 109.013 82.7547C109.612 82.1526 109.951 81.3361 109.954 80.4836V75.1835L106.367 65.4971C106.164 64.9416 105.797 64.4622 105.315 64.1232C104.833 63.7842 104.26 63.6018 103.672 63.6007H102.104C101.813 63.6007 101.534 63.4841 101.328 63.2766C101.122 63.069 101.006 62.7876 101.006 62.494C101.006 62.2005 101.122 61.919 101.328 61.7115C101.534 61.5039 101.813 61.3873 102.104 61.3873H103.672C104.26 61.3825 104.833 61.1974 105.315 60.8566C105.796 60.5158 106.163 60.0355 106.367 59.4795L109.954 49.7901V44.4815C109.953 43.6277 109.615 42.8093 109.016 42.2058C108.416 41.6023 107.604 41.263 106.756 41.2623H94.3518C94.9842 41.5257 95.5248 41.9722 95.9052 42.5452C96.2856 43.1183 96.4887 43.7921 96.4888 44.4815V80.4836C96.4875 81.1719 96.2839 81.8445 95.9036 82.4164C95.5233 82.9883 94.9833 83.4339 94.3518 83.697H94.3633Z" fill="#3C3C3B"/>
<path d="M115.762 41.1323C115.038 41.1322 114.331 41.3551 113.735 41.7713C113.14 42.1875 112.686 42.7771 112.432 43.461L110.084 49.8014L106.499 59.5138C106.284 60.0949 105.898 60.5958 105.392 60.9492C104.886 61.3026 104.285 61.4916 103.67 61.4908H118.366C119.019 61.4905 119.658 61.2892 120.195 60.9137C120.732 60.5383 121.143 60.0067 121.372 59.3899L127.403 43.1151C127.551 42.6965 127.791 42.3166 128.105 42.0034C128.418 41.6903 128.797 41.4517 129.214 41.3052V41.1323H115.762Z" fill="url(#paint0_linear_985_609)"/>
<path d="M118.362 61.6352H103.666C103.648 61.638 103.629 61.6367 103.61 61.6314C103.592 61.6261 103.575 61.6169 103.561 61.6045C103.547 61.592 103.535 61.5766 103.527 61.5593C103.519 61.542 103.515 61.5231 103.515 61.5041C103.515 61.485 103.519 61.4662 103.527 61.4489C103.535 61.4315 103.547 61.4161 103.561 61.4037C103.575 61.3912 103.592 61.382 103.61 61.3767C103.629 61.3714 103.648 61.3701 103.666 61.3729C104.254 61.3704 104.827 61.1879 105.309 60.8497C105.792 60.5116 106.16 60.0337 106.367 59.4795L112.309 43.4151C112.573 42.7073 113.045 42.0973 113.662 41.6659C114.279 41.2346 115.011 41.0023 115.762 41H129.207C129.242 41 129.276 41.014 129.3 41.0388C129.325 41.0637 129.339 41.0974 129.339 41.1326V41.3055C129.338 41.3328 129.33 41.3594 129.314 41.3816C129.298 41.4038 129.276 41.4205 129.25 41.4294C128.852 41.5697 128.489 41.7976 128.189 42.0968C127.889 42.3959 127.66 42.7587 127.516 43.1586L121.492 59.4449C121.252 60.0866 120.824 60.6398 120.265 61.031C119.706 61.4222 119.043 61.6329 118.362 61.6352ZM104.916 61.3729H118.362C118.989 61.3712 119.601 61.1773 120.116 60.8169C120.631 60.4566 121.025 59.9469 121.246 59.3555L127.279 43.0693C127.422 42.6676 127.646 42.2999 127.936 41.989C128.227 41.6781 128.578 41.4308 128.967 41.2623H115.762C115.064 41.2639 114.383 41.4796 113.81 41.8807C113.237 42.2817 112.799 42.8492 112.555 43.5073L106.621 59.5602C106.473 59.9626 106.245 60.3305 105.951 60.642C105.658 60.9535 105.305 61.2021 104.914 61.3729H104.916Z" fill="#3C3C3B"/>
<path d="M127.388 81.8464L121.452 65.7849C121.197 65.1019 120.742 64.5131 120.147 64.0966C119.552 63.6802 118.846 63.4558 118.122 63.4534H103.666C104.281 63.4533 104.881 63.6435 105.385 63.9981C105.889 64.3527 106.273 64.8547 106.484 65.4362L110.086 75.1572L112.517 81.7224C112.746 82.3396 113.156 82.8717 113.693 83.2477C114.229 83.6237 114.867 83.8255 115.521 83.8263H129.213V83.6534C128.796 83.5051 128.416 83.2664 128.101 82.9542C127.786 82.6419 127.542 82.2638 127.388 81.8464Z" fill="url(#paint1_linear_985_609)"/>
<path d="M129.213 83.9594H115.521C114.841 83.957 114.178 83.7461 113.619 83.3549C113.061 82.9637 112.633 82.4106 112.394 81.7691L106.367 65.4972C106.163 64.9418 105.796 64.4623 105.314 64.1233C104.833 63.7843 104.26 63.602 103.672 63.6009C103.637 63.6001 103.604 63.5859 103.58 63.5612C103.555 63.5365 103.541 63.5032 103.54 63.4683C103.541 63.4337 103.555 63.4007 103.58 63.3764C103.604 63.3522 103.637 63.3386 103.672 63.3386H118.127C118.878 63.3406 119.611 63.5726 120.227 64.004C120.844 64.4354 121.316 65.0457 121.58 65.7537L127.516 81.8181C127.664 82.2174 127.897 82.5793 128.198 82.878C128.5 83.1768 128.863 83.4053 129.261 83.5473C129.287 83.5553 129.309 83.5714 129.325 83.5931C129.341 83.6149 129.35 83.6413 129.35 83.6683V83.8441C129.345 83.877 129.328 83.9068 129.303 83.9281C129.278 83.9493 129.246 83.9605 129.213 83.9594ZM104.896 63.5865C105.286 63.7555 105.637 64.003 105.928 64.3137C106.22 64.6245 106.445 64.9919 106.59 65.3935L112.623 81.6769C112.844 82.268 113.238 82.7775 113.753 83.1378C114.268 83.4981 114.88 83.6922 115.507 83.6943H128.952C128.563 83.5245 128.212 83.2771 127.92 82.9671C127.628 82.6571 127.401 82.2907 127.253 81.8901L121.328 65.8316C121.084 65.1734 120.646 64.606 120.073 64.2049C119.5 63.8038 118.819 63.5881 118.122 63.5865H104.896Z" fill="#3C3C3B"/>
<path d="M71.3632 89.8005V96.092H69.9328V90.985H67.1064V96.092H65.676V89.8005H71.3632Z" fill="black"/>
<path d="M78.5711 92.0831C78.5711 93.4837 77.5297 94.357 75.8591 94.357H74.6118V96.0862H73.1814V89.8005H75.8848C77.5297 89.8005 78.5711 90.6709 78.5711 92.0831ZM77.1092 92.0831C77.1092 91.3914 76.6629 90.985 75.779 90.985H74.6118V93.1638H75.7904C76.6629 93.1638 77.1092 92.7661 77.1092 92.0831Z" fill="black"/>
<path d="M79.8276 89.8005H81.2579V93.8988L84.236 89.8005H85.592V96.092H84.1616V92.011L81.1921 96.092H79.8247L79.8276 89.8005Z" fill="black"/>
<path d="M96.2653 89.8005V96.092H94.8349V90.985H92.017V96.092H90.5867V89.8005H96.2653Z" fill="black"/>
<path d="M97.6477 92.9452C97.6477 91.0777 99.0781 89.6914 101.063 89.6914C103.049 89.6914 104.482 91.0661 104.482 92.9452C104.482 94.8243 103.026 96.199 101.063 96.199C99.101 96.199 97.6477 94.8156 97.6477 92.9452ZM103.017 92.9452C103.008 92.5581 102.885 92.1825 102.665 91.8653C102.444 91.5481 102.136 91.3034 101.778 91.1619C101.42 91.0204 101.029 90.9884 100.653 91.0698C100.278 91.1512 99.934 91.3424 99.6656 91.6195C99.3971 91.8967 99.2158 92.2474 99.1443 92.6278C99.0728 93.0083 99.1142 93.4015 99.2634 93.7584C99.4126 94.1152 99.663 94.4198 99.9831 94.634C100.303 94.8482 100.679 94.9625 101.063 94.9626C101.326 94.9697 101.587 94.922 101.831 94.8225C102.074 94.723 102.295 94.5738 102.478 94.3843C102.662 94.1949 102.804 93.9692 102.897 93.7215C102.99 93.4739 103.031 93.2096 103.017 92.9452Z" fill="black"/>
<path d="M112.268 94.8933V97.3834H110.944V96.0807H106.521V97.3834H105.185V94.8933H105.434C106.246 94.8674 106.452 93.5186 106.512 91.7577L106.584 89.7893H111.384V94.8933H112.268ZM107.173 94.8933H109.965V90.9738H107.826L107.797 91.8932C107.745 93.242 107.602 94.3919 107.173 94.8933Z" fill="black"/>
<path d="M120.267 94.8933V97.3834H118.931V96.0807H114.523V97.3834H113.184V94.8933H113.433C114.245 94.8674 114.451 93.5186 114.514 91.7577L114.586 89.7893H119.386V94.8933H120.267ZM115.175 94.8933H117.967V90.9738H115.824L115.799 91.8932C115.744 93.242 115.601 94.3919 115.175 94.8933Z" fill="black"/>
<path d="M126.375 94.9219V96.092H121.529V89.8005H126.246V90.9533H122.976V92.3194H125.874V93.452H122.976V94.893L126.375 94.9219Z" fill="black"/>
<path d="M133.278 92.0831C133.278 93.4837 132.234 94.357 130.564 94.357H129.308V96.0862H127.86V89.8005H130.564C132.234 89.8005 133.278 90.6709 133.278 92.0831ZM131.814 92.0831C131.814 91.3914 131.367 90.985 130.483 90.985H129.308V93.1638H130.483C131.367 93.1638 131.828 92.7661 131.828 92.0831H131.814Z" fill="black"/>
<path d="M140.041 93.5558H139.131V96.092H137.701V93.5558H136.774L135.372 96.092H133.716L135.589 92.8007L133.83 89.8005H135.355L136.757 92.3425H137.709V89.8005H139.14V92.3425H140.069L141.48 89.8005H142.984L141.237 92.8007L143.099 96.092H141.431L140.041 93.5558Z" fill="black"/>
<path d="M146.734 93.5558H145.736V96.092H144.306V89.8005H145.736V92.3425H146.772L148.411 89.8005H149.938L147.896 92.8382L150.001 96.092H148.359L146.734 93.5558Z" fill="black"/>
<path d="M156.016 94.9219V96.092H151.181V89.8005H155.899V90.9533H152.617V92.3194H155.515V93.452H152.617V94.893L156.016 94.9219Z" fill="black"/>
<path d="M47.7217 100.589V106.883H46.2913V101.777H43.4592V106.883H42.0288V100.589H47.7217Z" fill="black"/>
<path d="M54.9252 102.872C54.9252 104.275 53.881 105.148 52.2132 105.148H50.9544V106.878H49.5098V100.589H52.2132C53.881 100.589 54.9252 101.462 54.9252 102.872ZM53.4633 102.872C53.4633 102.18 53.0171 101.777 52.1331 101.777H50.9544V103.961H52.1331C53.0171 103.961 53.4633 103.558 53.4633 102.872Z" fill="black"/>
<path d="M61.0182 105.713V106.883H56.1807V100.589H60.9009V101.759H57.6168V103.125H60.5176V104.258H57.6168V105.699L61.0182 105.713Z" fill="black"/>
<path d="M67.3351 105.118C67.3351 106.306 66.0506 106.989 64.5516 106.989C63.6795 106.991 62.8219 106.764 62.0627 106.332L62.509 105.288C63.077 105.625 63.724 105.802 64.3828 105.801C65.2039 105.801 65.8733 105.496 65.8733 104.911C65.8733 104.435 65.4442 104.202 64.7919 104.202H63.2671V103.107H64.6975C65.2868 103.107 65.6244 102.844 65.6244 102.432C65.6244 101.919 65.0723 101.648 64.3657 101.648C63.7744 101.652 63.1937 101.807 62.6778 102.098L62.2401 100.965C62.9045 100.628 63.6385 100.452 64.3828 100.452C65.8275 100.452 67.0777 101.118 67.0777 102.259C67.0779 102.548 66.9922 102.83 66.8315 103.069C66.6708 103.308 66.4427 103.493 66.1765 103.6C66.5072 103.692 66.7991 103.89 67.0082 104.164C67.2172 104.438 67.332 104.773 67.3351 105.118Z" fill="black"/>
<path d="M68.7595 100.589H70.1899V104.693L73.1822 100.589H74.5382V106.883H73.1079V102.791L70.1241 106.883H68.7595V100.589Z" fill="black"/>
<path d="M82.812 105.696V108.186H81.4789V106.883H77.0733V108.186H75.7288V105.696H75.9776C76.7901 105.667 76.9961 104.321 77.059 102.558L77.1305 100.589H81.9309V105.696H82.812ZM77.717 105.696H80.512V101.777H78.3692L78.3435 102.693C78.2891 104.033 78.1461 105.183 77.717 105.696Z" fill="black"/>
<path d="M88.9162 105.713V106.883H84.0815V100.589H88.8018V101.759H85.5176V103.125H88.4184V104.258H85.5176V105.699L88.9162 105.713Z" fill="black"/>
<path d="M96.1313 100.589V106.883H94.6866V104.29H91.8487V106.883H90.4041V100.589H91.8487V103.071H94.6866V100.589H96.1313Z" fill="black"/>
<path d="M102.748 101.777H100.746V106.883H99.3155V101.777H97.313V100.589H102.728L102.748 101.777Z" fill="black"/>
<path d="M103.447 103.735C103.447 101.839 104.891 100.481 106.837 100.481C107.321 100.46 107.805 100.549 108.25 100.742C108.696 100.936 109.093 101.228 109.411 101.597L108.481 102.461C108.291 102.228 108.051 102.04 107.78 101.912C107.508 101.785 107.211 101.72 106.911 101.723C106.38 101.723 105.87 101.936 105.495 102.314C105.119 102.693 104.908 103.206 104.908 103.741C104.908 104.276 105.119 104.789 105.495 105.167C105.87 105.546 106.38 105.758 106.911 105.758C107.212 105.761 107.509 105.695 107.781 105.566C108.053 105.436 108.292 105.247 108.481 105.012L109.411 105.876C109.095 106.248 108.698 106.542 108.252 106.737C107.806 106.932 107.322 107.022 106.837 107C104.891 106.998 103.447 105.632 103.447 103.735Z" fill="black"/>
<path d="M113.047 104.347H112.049V106.883H110.619V100.589H112.049V103.134H113.082L114.724 100.589H116.252L114.206 103.627L116.312 106.883H114.664L113.047 104.347Z" fill="black"/>
<path d="M116.754 103.736C116.754 101.865 118.199 100.482 120.173 100.482C122.147 100.482 123.588 101.857 123.588 103.736C123.588 105.615 122.135 106.998 120.173 106.998C118.21 106.998 116.754 105.606 116.754 103.736ZM122.127 103.736C122.117 103.349 121.994 102.973 121.774 102.656C121.554 102.339 121.245 102.094 120.887 101.952C120.53 101.811 120.138 101.779 119.763 101.86C119.387 101.942 119.043 102.133 118.775 102.41C118.506 102.687 118.325 103.038 118.254 103.418C118.182 103.799 118.224 104.192 118.373 104.549C118.522 104.906 118.772 105.21 119.092 105.424C119.413 105.639 119.788 105.753 120.173 105.753C120.435 105.76 120.696 105.712 120.94 105.612C121.183 105.512 121.403 105.363 121.587 105.174C121.77 104.985 121.913 104.759 122.006 104.512C122.099 104.264 122.14 104 122.127 103.736Z" fill="black"/>
<path d="M129.367 101.777H126.392V106.883H124.961V100.589H129.367V101.777Z" fill="black"/>
<path d="M130.049 103.736C130.049 101.865 131.493 100.482 133.464 100.482C135.435 100.482 136.883 101.857 136.883 103.736C136.883 105.615 135.43 106.998 133.464 106.998C131.499 106.998 130.049 105.606 130.049 103.736ZM135.421 103.736C135.412 103.348 135.29 102.971 135.069 102.653C134.849 102.335 134.54 102.09 134.182 101.948C133.824 101.806 133.432 101.773 133.055 101.854C132.679 101.935 132.334 102.127 132.065 102.404C131.796 102.682 131.614 103.033 131.542 103.414C131.471 103.795 131.512 104.189 131.661 104.546C131.811 104.904 132.061 105.209 132.382 105.424C132.703 105.638 133.079 105.753 133.464 105.753C133.727 105.76 133.989 105.713 134.232 105.613C134.476 105.514 134.696 105.364 134.88 105.175C135.064 104.986 135.207 104.76 135.3 104.512C135.393 104.265 135.434 104 135.421 103.736Z" fill="black"/>
<path d="M145.559 106.476V107.159H144.232V106.468C142.115 106.341 140.956 105.361 140.956 103.718C140.956 102.075 142.115 101.093 144.232 100.966V100.32H145.559V100.946C147.665 101.073 148.826 102.061 148.826 103.707C148.826 105.352 147.665 106.37 145.559 106.476ZM144.232 105.323V102.099C142.965 102.217 142.358 102.73 142.358 103.71C142.358 104.689 143.016 105.208 144.22 105.335L144.232 105.323ZM147.433 103.698C147.433 102.727 146.801 102.205 145.559 102.096V105.323C146.807 105.217 147.422 104.692 147.422 103.71L147.433 103.698Z" fill="black"/>
<path d="M149.885 103.736C149.885 101.865 151.329 100.482 153.303 100.482C155.277 100.482 156.716 101.857 156.716 103.736C156.716 105.615 155.266 106.998 153.303 106.998C151.341 106.998 149.885 105.606 149.885 103.736ZM155.257 103.736C155.247 103.349 155.125 102.973 154.904 102.656C154.684 102.339 154.376 102.094 154.018 101.952C153.66 101.811 153.269 101.779 152.893 101.86C152.517 101.942 152.174 102.133 151.905 102.41C151.637 102.687 151.456 103.038 151.384 103.418C151.312 103.799 151.354 104.192 151.503 104.549C151.652 104.906 151.903 105.21 152.223 105.424C152.543 105.639 152.919 105.753 153.303 105.753C153.566 105.76 153.827 105.713 154.071 105.613C154.314 105.513 154.534 105.364 154.718 105.175C154.901 104.985 155.044 104.76 155.137 104.512C155.23 104.264 155.271 104 155.257 103.736Z" fill="black"/>
<path d="M163.828 100.589V106.883H162.383V104.29H159.546V106.883H158.101V100.589H159.546V103.071H162.383V100.589H163.828Z" fill="black"/>
<path d="M172.113 105.696V108.186H170.774V106.883H166.366V108.186H165.027V105.696H165.299C166.111 105.667 166.317 104.321 166.377 102.558L166.449 100.589H171.249V105.696H172.113ZM167.018 105.696H169.81V101.777H167.67L167.642 102.693C167.587 104.033 167.447 105.183 167.015 105.696H167.018Z" fill="black"/>
<path d="M177.932 105.535H175.025L174.473 106.883H172.991L175.775 100.589H177.205L180 106.883H178.481L177.932 105.535ZM177.477 104.428L176.487 102.019L175.497 104.428H177.477Z" fill="black"/>
<path d="M44.4345 115.133H43.4304V117.661H42V111.378H43.4304V113.914H44.4717L46.1138 111.372H47.6386L45.596 114.41L47.7015 117.661H46.0594L44.4345 115.133Z" fill="black"/>
<path d="M54.8454 111.378L52.1878 116.358C51.67 117.329 50.9291 117.799 50.0909 117.799C49.7406 117.795 49.3945 117.721 49.0724 117.583L49.4214 116.476C49.6225 116.546 49.8326 116.586 50.0451 116.594C50.2259 116.594 50.4032 116.543 50.5575 116.448C50.7118 116.353 50.8374 116.217 50.9205 116.055L50.9748 115.983L48.5117 111.372H50.0537L51.7272 114.758L53.4437 111.378H54.8454Z" fill="black"/>
<path d="M61.1674 111.378V117.661H59.737V112.563H57.6029L57.5571 113.877C57.477 116.347 57.128 117.768 55.6661 117.768C55.4248 117.763 55.1848 117.73 54.9509 117.67L55.0396 116.439C55.1243 116.463 55.212 116.475 55.2999 116.474C56.0294 116.474 56.2182 115.54 56.2812 113.932L56.3699 111.378H61.1674Z" fill="black"/>
<path d="M68.3594 115.476C68.3594 116.917 67.3953 117.67 65.7847 117.67H62.9697V111.378H64.4001V113.445H65.9878C67.5012 113.445 68.3594 114.119 68.3594 115.476ZM66.9033 115.502C66.9033 114.811 66.457 114.522 65.7075 114.522H64.4058V116.592H65.7075C66.4484 116.592 66.9033 116.22 66.9033 115.502Z" fill="black"/>
<path d="M73.9003 112.563H71.8977V117.661H70.4674V112.563H68.4648V111.378H73.8803L73.9003 112.563Z" fill="black"/>
<path d="M81.0888 111.378L78.4283 116.358C77.9134 117.329 77.1725 117.799 76.3343 117.799C75.984 117.795 75.6379 117.721 75.3158 117.583L75.6648 116.476C75.8659 116.546 76.076 116.586 76.2885 116.594C76.4693 116.593 76.6464 116.543 76.8007 116.448C76.9549 116.353 77.0805 116.217 77.1639 116.055L77.2154 115.983L74.7551 111.372H76.2971L77.9563 114.753L79.6728 111.372L81.0888 111.378Z" fill="black"/>
<path d="M87.6574 113.661C87.6574 115.061 86.6132 115.935 84.9454 115.935H83.6866V117.664H82.2419V111.378H84.9454C86.6275 111.378 87.6574 112.249 87.6574 113.661ZM86.1926 113.661C86.1926 112.969 85.7492 112.563 84.8653 112.563H83.6866V114.747H84.8653C85.7492 114.747 86.1926 114.344 86.1926 113.661Z" fill="black"/>
<path d="M94.638 111.378V117.661H93.2076V115.082H90.3469V117.661H88.9165V111.378H90.3469V113.86H93.2076V111.378H94.638Z" fill="black"/>
<path d="M101.83 115.476C101.83 116.917 100.866 117.67 99.2557 117.67H96.4407V111.378H97.8711V113.445H99.4588C100.972 113.445 101.83 114.119 101.83 115.476ZM100.374 115.502C100.374 114.811 99.9308 114.522 99.1813 114.522H97.8768V116.592H99.1813C99.9194 116.592 100.374 116.22 100.374 115.502ZM102.626 111.378H104.056V117.661H102.626V111.378Z" fill="black"/>
<path d="M107.051 111.379L108.344 113.284L109.637 111.379H111.333L109.253 114.391L111.516 117.662H109.8L108.344 115.575L106.913 117.662H105.245L107.474 114.443L105.388 111.371L107.051 111.379Z" fill="black"/>
<path d="M115.787 111.378H117.217V115.476L120.198 111.378H121.554V117.661H120.124V113.58L117.152 117.661H115.787V111.378Z" fill="black"/>
<path d="M129.081 111.378V117.661H127.65V115.082H124.813V117.661H123.368V111.378H124.813V113.86H127.65V111.378H129.081Z" fill="black"/>
<path d="M130.881 111.378H132.312V115.476L135.293 111.378H136.649V117.661H135.218V113.58L132.246 117.661H130.881V111.378Z" fill="black"/>
<path d="M144.987 116.482V119.001H143.66V117.661H138.447V111.378H139.878V116.482H142.661V111.378H144.092V116.482H144.987Z" fill="black"/>
<path d="M146.26 111.378H147.69V115.476L150.671 111.378H152.027V117.661H150.597V113.58L147.625 117.661H146.26V111.378Z" fill="black"/>
<path d="M158.146 116.322H155.231L154.679 117.662H153.197L155.981 111.371H157.411L160.2 117.662H158.684L158.146 116.322ZM157.691 115.215L156.699 112.809L155.709 115.215H157.691Z" fill="black"/>
<path d="M165.43 112.563H163.428V117.661H161.997V112.563H159.995V111.378H165.41L165.43 112.563Z" fill="black"/>
<path d="M166.624 111.378H168.054V115.476L171.032 111.378H172.391V117.661H170.96V113.58L167.988 117.661H166.624V111.378Z" fill="black"/>
<path d="M179.693 115.9C179.693 116.995 178.835 117.67 177.267 117.67H174.189V111.378H177.099C178.543 111.378 179.387 111.955 179.387 113.004C179.393 113.297 179.313 113.586 179.155 113.833C178.998 114.08 178.771 114.274 178.503 114.39C178.847 114.458 179.156 114.648 179.374 114.924C179.592 115.201 179.705 115.547 179.693 115.9ZM175.625 113.984H176.973C177.596 113.984 177.928 113.724 177.928 113.22C177.928 112.715 177.596 112.456 176.973 112.456H175.625V113.984ZM178.231 115.782C178.231 115.252 177.882 115.001 177.213 115.001H175.625V116.592H177.213C177.885 116.592 178.231 116.329 178.231 115.782Z" fill="black"/>
<defs>
<linearGradient id="paint0_linear_985_609" x1="116.44" y1="40.0228" x2="116.44" y2="61.3986" gradientUnits="userSpaceOnUse">
<stop offset="0.04" stop-color="#3A61A9"/>
<stop offset="0.06" stop-color="#3879BA"/>
<stop offset="0.1" stop-color="#3691CB"/>
<stop offset="0.14" stop-color="#34A2D7"/>
<stop offset="0.18" stop-color="#33ACDF"/>
<stop offset="0.23" stop-color="#33AFE1"/>
<stop offset="0.37" stop-color="#3599D1"/>
<stop offset="0.61" stop-color="#387ABB"/>
<stop offset="0.82" stop-color="#3968AE"/>
<stop offset="0.96" stop-color="#3A61A9"/>
</linearGradient>
<linearGradient id="paint1_linear_985_609" x1="116.44" y1="84.6506" x2="116.44" y2="63.4793" gradientUnits="userSpaceOnUse">
<stop offset="0.09" stop-color="#E94B4C"/>
<stop offset="0.14" stop-color="#DA4243"/>
<stop offset="0.21" stop-color="#CA3839"/>
<stop offset="0.29" stop-color="#C13334"/>
<stop offset="0.4" stop-color="#BE3132"/>
<stop offset="0.63" stop-color="#D5373B"/>
<stop offset="0.84" stop-color="#E73C42"/>
<stop offset="0.88" stop-color="#E23B41"/>
<stop offset="0.92" stop-color="#D5383D"/>
<stop offset="0.97" stop-color="#BF3436"/>
<stop offset="1" stop-color="#A72F2F"/>
</linearGradient>
</defs>
</svg>
