<svg width="221" height="161" viewBox="0 0 221 161" fill="none" xmlns="http://www.w3.org/2000/svg">
<path d="M75.5392 89.2127H73.2823V94.0129H72.0359V88.1179H76.7856V94.0129H75.5392V89.2127Z" fill="#1E1D1D"/>
<path d="M78.3043 88.1769C78.5569 88.1319 78.8376 88.0983 79.1464 88.0758C79.4552 88.0477 79.764 88.0337 80.0728 88.0337C80.3872 88.0337 80.7044 88.059 81.0244 88.1095C81.3444 88.1544 81.6308 88.2498 81.8834 88.3958C82.1417 88.5362 82.3522 88.7355 82.515 88.9937C82.6778 89.2464 82.7592 89.5832 82.7592 90.0043C82.7592 90.3748 82.6891 90.6921 82.5487 90.9559C82.4083 91.2142 82.2203 91.4247 81.9845 91.5875C81.7543 91.7503 81.4904 91.8711 81.1928 91.9497C80.8953 92.0226 80.5893 92.0591 80.2749 92.0591C80.2468 92.0591 80.1991 92.0591 80.1317 92.0591C80.0644 92.0591 79.9914 92.0591 79.9128 92.0591C79.8398 92.0535 79.7696 92.0479 79.7022 92.0423C79.6349 92.0367 79.5843 92.0311 79.5507 92.0254V94.0129H78.3043V88.1769ZM80.157 89.1285C80.0391 89.1285 79.924 89.1313 79.8117 89.1369C79.7051 89.1425 79.618 89.1537 79.5507 89.1706V90.9222C79.5731 90.9279 79.6096 90.9335 79.6601 90.9391C79.7107 90.9447 79.764 90.9503 79.8201 90.9559C79.8763 90.9559 79.9268 90.9587 79.9717 90.9643C80.0223 90.9643 80.0616 90.9643 80.0896 90.9643C80.2524 90.9643 80.4153 90.9531 80.5781 90.9307C80.7409 90.9082 80.8841 90.8605 81.0076 90.7875C81.1367 90.7145 81.2406 90.6163 81.3192 90.4927C81.3978 90.3636 81.4371 90.1924 81.4371 89.979C81.4371 89.7994 81.4006 89.6562 81.3276 89.5495C81.2546 89.4373 81.1563 89.3502 81.0328 89.2885C80.9149 89.2267 80.7774 89.1846 80.6202 89.1622C80.4686 89.1397 80.3142 89.1285 80.157 89.1285Z" fill="#1E1D1D"/>
<path d="M87.6952 90.7622L87.7626 90.0127H87.7204L87.2909 90.7707L84.874 94.0129H83.9476V88.1179H85.194V91.2928L85.1098 92.076H85.1603L85.6151 91.2928L88.0068 88.1179H88.9416V94.0129H87.6952V90.7622Z" fill="#1E1D1D"/>
<path d="M96.7063 89.2127H94.4494V94.0129H93.203V88.1179H97.9527V94.0129H96.7063V89.2127Z" fill="#1E1D1D"/>
<path d="M99.2608 91.0654C99.2608 90.5826 99.3226 90.1503 99.4461 89.7685C99.5696 89.3867 99.7465 89.0667 99.9767 88.8085C100.212 88.5446 100.499 88.3453 100.836 88.2105C101.173 88.0702 101.554 88 101.981 88C102.436 88 102.832 88.0758 103.168 88.2274C103.511 88.3734 103.794 88.5811 104.019 88.8506C104.249 89.1201 104.42 89.4429 104.533 89.819C104.651 90.1952 104.71 90.6106 104.71 91.0654C104.71 91.5482 104.645 91.9805 104.516 92.3623C104.392 92.7441 104.213 93.0669 103.977 93.3308C103.741 93.589 103.455 93.7883 103.118 93.9287C102.781 94.0634 102.402 94.1308 101.981 94.1308C101.526 94.1308 101.128 94.0578 100.785 93.9118C100.448 93.7603 100.165 93.5497 99.9346 93.2802C99.71 93.0108 99.5416 92.6879 99.4293 92.3118C99.317 91.9356 99.2608 91.5202 99.2608 91.0654ZM100.583 91.0654C100.583 91.3573 100.611 91.624 100.667 91.8654C100.723 92.1069 100.808 92.3146 100.92 92.4886C101.032 92.6627 101.175 92.7974 101.349 92.8929C101.529 92.9883 101.74 93.036 101.981 93.036C102.424 93.036 102.77 92.8844 103.017 92.5813C103.264 92.2781 103.387 91.7728 103.387 91.0654C103.387 90.7847 103.362 90.5236 103.312 90.2822C103.261 90.0408 103.177 89.8331 103.059 89.659C102.947 89.4794 102.801 89.3418 102.621 89.2464C102.447 89.1453 102.234 89.0948 101.981 89.0948C101.543 89.0948 101.201 89.252 100.954 89.5664C100.707 89.8808 100.583 90.3805 100.583 91.0654Z" fill="#1E1D1D"/>
<path d="M111.472 95.0572H110.588L110.453 94.0129H106.326L106.192 95.0572H105.307V92.9181H105.99C106.035 92.8564 106.105 92.7216 106.2 92.5139C106.296 92.3062 106.391 92.0086 106.487 91.6212C106.582 91.2338 106.663 90.7538 106.731 90.1812C106.804 89.6029 106.835 88.9151 106.823 88.1179H110.664V92.9181H111.472V95.0572ZM109.417 92.9181V89.2127H107.986C107.952 90.1783 107.865 90.97 107.724 91.5875C107.59 92.2051 107.452 92.6486 107.312 92.9181H109.417Z" fill="#1E1D1D"/>
<path d="M118.555 95.0572H117.67L117.536 94.0129H113.409L113.274 95.0572H112.39V92.9181H113.072C113.117 92.8564 113.187 92.7216 113.283 92.5139C113.378 92.3062 113.474 92.0086 113.569 91.6212C113.665 91.2338 113.746 90.7538 113.813 90.1812C113.886 89.6029 113.917 88.9151 113.906 88.1179H117.746V92.9181H118.555V95.0572ZM116.5 92.9181V89.2127H115.068C115.034 90.1783 114.947 90.97 114.807 91.5875C114.672 92.2051 114.535 92.6486 114.394 92.9181H116.5Z" fill="#1E1D1D"/>
<path d="M119.683 88.1179H123.481V89.2127H120.929V90.4927H123.245V91.5875H120.929V92.9181H123.523V94.0129H119.683V88.1179Z" fill="#1E1D1D"/>
<path d="M124.874 88.1769C125.126 88.1319 125.407 88.0983 125.716 88.0758C126.025 88.0477 126.334 88.0337 126.642 88.0337C126.957 88.0337 127.274 88.059 127.594 88.1095C127.914 88.1544 128.2 88.2498 128.453 88.3958C128.711 88.5362 128.922 88.7355 129.085 88.9937C129.247 89.2464 129.329 89.5832 129.329 90.0043C129.329 90.3748 129.259 90.6921 129.118 90.9559C128.978 91.2142 128.79 91.4247 128.554 91.5875C128.324 91.7503 128.06 91.8711 127.762 91.9497C127.465 92.0226 127.159 92.0591 126.844 92.0591C126.816 92.0591 126.769 92.0591 126.701 92.0591C126.634 92.0591 126.561 92.0591 126.482 92.0591C126.409 92.0535 126.339 92.0479 126.272 92.0423C126.204 92.0367 126.154 92.0311 126.12 92.0254V94.0129H124.874V88.1769ZM126.727 89.1285C126.609 89.1285 126.494 89.1313 126.381 89.1369C126.275 89.1425 126.188 89.1537 126.12 89.1706V90.9222C126.143 90.9279 126.179 90.9335 126.23 90.9391C126.28 90.9447 126.334 90.9503 126.39 90.9559C126.446 90.9559 126.496 90.9587 126.541 90.9643C126.592 90.9643 126.631 90.9643 126.659 90.9643C126.822 90.9643 126.985 90.9531 127.148 90.9307C127.31 90.9082 127.454 90.8605 127.577 90.7875C127.706 90.7145 127.81 90.6163 127.889 90.4927C127.967 90.3636 128.007 90.1924 128.007 89.979C128.007 89.7994 127.97 89.6562 127.897 89.5495C127.824 89.4373 127.726 89.3502 127.602 89.2885C127.484 89.2267 127.347 89.1846 127.19 89.1622C127.038 89.1397 126.884 89.1285 126.727 89.1285Z" fill="#1E1D1D"/>
<path d="M132.973 88.1179H134.152V90.7201L134.48 90.6022L135.811 88.1179H137.225L135.726 90.7033L135.288 90.998L135.819 91.3602L137.503 94.0129H135.996L134.514 91.4781H134.152V94.0129H132.973V91.377L132.653 91.4949L131.17 94.0129H129.705L131.381 91.4444L131.878 91.1075L131.398 90.7875L129.831 88.1179H131.288L132.61 90.6191H132.973V88.1179Z" fill="#1E1D1D"/>
<path d="M139.981 91.5202H139.652V94.0129H138.406V88.1179H139.652V90.7117L139.947 90.5854L141.715 88.1179H143.139L141.269 90.5854L140.781 90.9054L141.286 91.2423L143.425 94.0129H141.884L139.981 91.5202Z" fill="#1E1D1D"/>
<path d="M144.477 88.1179H148.275V89.2127H145.723V90.4927H148.039V91.5875H145.723V92.9181H148.317V94.0129H144.477V88.1179Z" fill="#1E1D1D"/>
<path d="M73.7136 100.402H71.4567V105.202H70.2103V99.3072H74.96V105.202H73.7136V100.402Z" fill="#1E1D1D"/>
<path d="M76.4787 99.3662C76.7313 99.3213 77.012 99.2876 77.3208 99.2651C77.6296 99.237 77.9384 99.223 78.2472 99.223C78.5616 99.223 78.8788 99.2483 79.1988 99.2988C79.5188 99.3437 79.8051 99.4392 80.0578 99.5851C80.316 99.7255 80.5266 99.9248 80.6894 100.183C80.8522 100.436 80.9336 100.773 80.9336 101.194C80.9336 101.564 80.8634 101.881 80.7231 102.145C80.5827 102.404 80.3946 102.614 80.1588 102.777C79.9286 102.94 79.6648 103.06 79.3672 103.139C79.0697 103.212 78.7637 103.248 78.4493 103.248C78.4212 103.248 78.3735 103.248 78.3061 103.248C78.2387 103.248 78.1658 103.248 78.0872 103.248C78.0142 103.243 77.944 103.237 77.8766 103.232C77.8092 103.226 77.7587 103.22 77.725 103.215V105.202H76.4787V99.3662ZM78.3314 100.318C78.2135 100.318 78.0984 100.321 77.9861 100.326C77.8794 100.332 77.7924 100.343 77.725 100.36V102.112C77.7475 102.117 77.784 102.123 77.8345 102.128C77.885 102.134 77.9384 102.14 77.9945 102.145C78.0507 102.145 78.1012 102.148 78.1461 102.154C78.1966 102.154 78.2359 102.154 78.264 102.154C78.4268 102.154 78.5896 102.142 78.7524 102.12C78.9153 102.098 79.0584 102.05 79.1819 101.977C79.3111 101.904 79.4149 101.806 79.4935 101.682C79.5721 101.553 79.6114 101.382 79.6114 101.168C79.6114 100.989 79.5749 100.846 79.502 100.739C79.429 100.627 79.3307 100.54 79.2072 100.478C79.0893 100.416 78.9518 100.374 78.7946 100.351C78.643 100.329 78.4886 100.318 78.3314 100.318Z" fill="#1E1D1D"/>
<path d="M82.122 99.3072H85.9201V100.402H83.3684V101.682H85.6843V102.777H83.3684V104.107H85.9622V105.202H82.122V99.3072Z" fill="#1E1D1D"/>
<path d="M87.8436 102.617V101.665H88.0625C88.1187 101.665 88.1861 101.665 88.2647 101.665C88.3489 101.665 88.4331 101.665 88.5173 101.665C88.6071 101.66 88.6913 101.654 88.7699 101.648C88.8542 101.637 88.9215 101.626 88.9721 101.615C89.1854 101.575 89.3623 101.505 89.5026 101.404C89.6486 101.297 89.7216 101.146 89.7216 100.949C89.7216 100.697 89.6289 100.526 89.4437 100.436C89.264 100.346 89.0226 100.301 88.7194 100.301C88.5847 100.301 88.4499 100.312 88.3152 100.335C88.1861 100.351 88.0625 100.377 87.9446 100.41C87.8324 100.444 87.7285 100.481 87.6331 100.52C87.5376 100.554 87.459 100.587 87.3973 100.621L87.0857 99.5599C87.1474 99.5318 87.2372 99.4981 87.3551 99.4588C87.4787 99.4139 87.6218 99.3746 87.7846 99.3409C87.9475 99.3016 88.1243 99.2707 88.3152 99.2483C88.5061 99.2202 88.6998 99.2062 88.8963 99.2062C89.1658 99.2062 89.4268 99.2286 89.6795 99.2735C89.9377 99.3185 90.1679 99.3971 90.37 99.5093C90.5721 99.6216 90.735 99.7732 90.8585 99.9641C90.982 100.155 91.0437 100.396 91.0437 100.688C91.0437 100.975 90.9595 101.241 90.7911 101.488C90.6227 101.735 90.3532 101.915 89.9826 102.027V102.078C90.3756 102.14 90.6816 102.294 90.9006 102.541C91.1251 102.788 91.2374 103.114 91.2374 103.518C91.2374 103.832 91.1673 104.105 91.0269 104.335C90.8865 104.559 90.7013 104.745 90.4711 104.891C90.2465 105.037 89.9854 105.143 89.6879 105.211C89.3959 105.284 89.0956 105.32 88.7868 105.32C88.5847 105.32 88.3882 105.309 88.1973 105.286C88.012 105.27 87.838 105.247 87.6752 105.219C87.5123 105.191 87.3664 105.157 87.2372 105.118C87.1081 105.079 87.0014 105.037 86.9172 104.992L87.2372 103.914C87.3776 103.976 87.5797 104.043 87.8436 104.116C88.1131 104.189 88.4331 104.225 88.8036 104.225C88.9328 104.225 89.0619 104.211 89.191 104.183C89.3258 104.155 89.4465 104.11 89.5531 104.048C89.6598 103.981 89.7468 103.897 89.8142 103.796C89.8816 103.695 89.9153 103.568 89.9153 103.417C89.9153 103.288 89.89 103.175 89.8395 103.08C89.7946 102.985 89.7132 102.906 89.5953 102.844C89.483 102.777 89.3286 102.726 89.1321 102.693C88.9412 102.653 88.7026 102.631 88.4162 102.625C88.3433 102.625 88.2871 102.625 88.2478 102.625C88.2141 102.62 88.1524 102.617 88.0625 102.617H87.8436Z" fill="#1E1D1D"/>
<path d="M96.2845 101.952L96.3519 101.202H96.3098L95.8803 101.96L93.4633 105.202H92.537V99.3072H93.7833V102.482L93.6991 103.265H93.7496L94.2044 102.482L96.5961 99.3072H97.5309V105.202H96.2845V101.952Z" fill="#1E1D1D"/>
<path d="M104.661 106.246H103.777L103.642 105.202H99.5154L99.3807 106.246H98.4964V104.107H99.1786C99.2235 104.046 99.2937 103.911 99.3891 103.703C99.4846 103.495 99.58 103.198 99.6754 102.811C99.7709 102.423 99.8523 101.943 99.9197 101.37C99.9927 100.792 100.024 100.104 100.012 99.3072H103.852V104.107H104.661V106.246ZM102.606 104.107V100.402H101.174C101.141 101.368 101.054 102.159 100.913 102.777C100.779 103.394 100.641 103.838 100.501 104.107H102.606Z" fill="#1E1D1D"/>
<path d="M105.789 99.3072H109.587V100.402H107.036V101.682H109.351V102.777H107.036V104.107H109.629V105.202H105.789V99.3072Z" fill="#1E1D1D"/>
<path d="M114.585 102.768H112.227V105.202H110.98V99.3072H112.227V101.674H114.585V99.3072H115.831V105.202H114.585V102.768Z" fill="#1E1D1D"/>
<path d="M121.886 100.402H120.017V105.202H118.771V100.402H116.901V99.3072H121.886V100.402Z" fill="#1E1D1D"/>
<path d="M126.925 104.95C126.739 105.079 126.495 105.171 126.192 105.227C125.889 105.289 125.577 105.32 125.257 105.32C124.881 105.32 124.519 105.264 124.171 105.152C123.828 105.039 123.522 104.86 123.253 104.613C122.989 104.366 122.778 104.048 122.621 103.661C122.464 103.274 122.385 102.805 122.385 102.255C122.385 101.682 122.475 101.202 122.655 100.815C122.835 100.422 123.065 100.107 123.345 99.8715C123.626 99.63 123.938 99.456 124.28 99.3493C124.623 99.2427 124.96 99.1893 125.291 99.1893C125.656 99.1893 125.962 99.2118 126.209 99.2567C126.461 99.3016 126.669 99.3549 126.832 99.4167L126.588 100.461C126.447 100.399 126.282 100.354 126.091 100.326C125.906 100.298 125.67 100.284 125.383 100.284C125.131 100.284 124.901 100.326 124.693 100.41C124.491 100.489 124.317 100.61 124.171 100.773C124.025 100.935 123.91 101.14 123.825 101.387C123.747 101.634 123.708 101.923 123.708 102.255C123.708 102.547 123.744 102.813 123.817 103.055C123.89 103.296 123.999 103.504 124.145 103.678C124.291 103.852 124.477 103.987 124.701 104.082C124.926 104.178 125.187 104.225 125.484 104.225C125.76 104.225 125.99 104.2 126.175 104.15C126.366 104.099 126.534 104.034 126.68 103.956L126.925 104.95Z" fill="#1E1D1D"/>
<path d="M129.707 102.709H129.379V105.202H128.132V99.3072H129.379V101.901L129.673 101.775L131.442 99.3072H132.865L130.996 101.775L130.507 102.095L131.012 102.432L133.152 105.202H131.61L129.707 102.709Z" fill="#1E1D1D"/>
<path d="M133.738 102.255C133.738 101.772 133.8 101.34 133.923 100.958C134.047 100.576 134.224 100.256 134.454 99.9978C134.689 99.7339 134.976 99.5346 135.313 99.3999C135.65 99.2595 136.031 99.1893 136.458 99.1893C136.913 99.1893 137.309 99.2651 137.645 99.4167C137.988 99.5627 138.271 99.7704 138.496 100.04C138.726 100.309 138.897 100.632 139.01 101.008C139.128 101.385 139.187 101.8 139.187 102.255C139.187 102.738 139.122 103.17 138.993 103.552C138.869 103.933 138.69 104.256 138.454 104.52C138.218 104.778 137.932 104.978 137.595 105.118C137.258 105.253 136.879 105.32 136.458 105.32C136.003 105.32 135.605 105.247 135.262 105.101C134.925 104.95 134.642 104.739 134.412 104.47C134.187 104.2 134.019 103.877 133.906 103.501C133.794 103.125 133.738 102.709 133.738 102.255ZM135.06 102.255C135.06 102.547 135.088 102.813 135.144 103.055C135.2 103.296 135.285 103.504 135.397 103.678C135.509 103.852 135.652 103.987 135.826 104.082C136.006 104.178 136.217 104.225 136.458 104.225C136.902 104.225 137.247 104.074 137.494 103.771C137.741 103.467 137.864 102.962 137.864 102.255C137.864 101.974 137.839 101.713 137.789 101.472C137.738 101.23 137.654 101.022 137.536 100.848C137.424 100.669 137.278 100.531 137.098 100.436C136.924 100.335 136.711 100.284 136.458 100.284C136.02 100.284 135.678 100.441 135.431 100.756C135.184 101.07 135.06 101.57 135.06 102.255Z" fill="#1E1D1D"/>
<path d="M144.21 100.402H141.735V105.202H140.488V99.3072H144.21V100.402Z" fill="#1E1D1D"/>
<path d="M144.696 102.255C144.696 101.772 144.757 101.34 144.881 100.958C145.004 100.576 145.181 100.256 145.411 99.9978C145.647 99.7339 145.934 99.5346 146.27 99.3999C146.607 99.2595 146.989 99.1893 147.416 99.1893C147.87 99.1893 148.266 99.2651 148.603 99.4167C148.946 99.5627 149.229 99.7704 149.454 100.04C149.684 100.309 149.855 100.632 149.967 101.008C150.085 101.385 150.144 101.8 150.144 102.255C150.144 102.738 150.08 103.17 149.951 103.552C149.827 103.933 149.647 104.256 149.412 104.52C149.176 104.778 148.889 104.978 148.553 105.118C148.216 105.253 147.837 105.32 147.416 105.32C146.961 105.32 146.562 105.247 146.22 105.101C145.883 104.95 145.599 104.739 145.369 104.47C145.145 104.2 144.976 103.877 144.864 103.501C144.752 103.125 144.696 102.709 144.696 102.255ZM146.018 102.255C146.018 102.547 146.046 102.813 146.102 103.055C146.158 103.296 146.242 103.504 146.355 103.678C146.467 103.852 146.61 103.987 146.784 104.082C146.964 104.178 147.174 104.225 147.416 104.225C147.859 104.225 148.205 104.074 148.452 103.771C148.699 103.467 148.822 102.962 148.822 102.255C148.822 101.974 148.797 101.713 148.746 101.472C148.696 101.23 148.612 101.022 148.494 100.848C148.381 100.669 148.235 100.531 148.056 100.436C147.882 100.335 147.668 100.284 147.416 100.284C146.978 100.284 146.635 100.441 146.388 100.756C146.141 101.07 146.018 101.57 146.018 102.255Z" fill="#1E1D1D"/>
<path d="M65.8212 115.752C65.7033 115.768 65.5854 115.78 65.4675 115.785C65.3496 115.791 65.2205 115.794 65.0801 115.794C64.7938 115.794 64.5243 115.746 64.2716 115.65C64.019 115.555 63.7972 115.409 63.6063 115.213C63.4211 115.016 63.2723 114.772 63.16 114.48C63.0533 114.188 63 113.843 63 113.444C63 113.068 63.0533 112.728 63.16 112.425C63.2723 112.122 63.4267 111.866 63.6232 111.659C63.8197 111.445 64.0555 111.283 64.3306 111.17C64.6113 111.058 64.9173 111.002 65.2485 111.002C65.3271 111.002 65.4226 111.005 65.5349 111.01C65.6528 111.016 65.7482 111.027 65.8212 111.044V110.328H67.0591V111.069C67.1714 111.041 67.3005 111.024 67.4465 111.019C67.5925 111.007 67.7132 111.002 67.8086 111.002C68.1006 111.002 68.3729 111.052 68.6255 111.153C68.8782 111.254 69.0971 111.406 69.2824 111.608C69.4677 111.805 69.6136 112.049 69.7203 112.341C69.827 112.633 69.8803 112.972 69.8803 113.36C69.8803 113.753 69.8214 114.101 69.7035 114.404C69.5856 114.707 69.4256 114.963 69.2234 115.17C69.0213 115.373 68.7855 115.527 68.516 115.634C68.2522 115.74 67.9715 115.794 67.6739 115.794C67.5728 115.794 67.4634 115.791 67.3455 115.785C67.2332 115.774 67.1377 115.757 67.0591 115.735V116.56H65.8212V115.752ZM67.5139 111.987C67.4521 111.987 67.3679 111.99 67.2612 111.996C67.1602 112.001 67.076 112.012 67.0086 112.029V114.791C67.0591 114.803 67.1209 114.808 67.1939 114.808C67.2669 114.808 67.3427 114.808 67.4213 114.808C67.5841 114.808 67.7385 114.78 67.8844 114.724C68.0304 114.668 68.1567 114.584 68.2634 114.471C68.3757 114.354 68.4627 114.205 68.5245 114.025C68.5862 113.84 68.6171 113.621 68.6171 113.368C68.6171 112.93 68.516 112.591 68.3139 112.349C68.1174 112.108 67.8507 111.987 67.5139 111.987ZM65.4001 114.808C65.4506 114.808 65.5236 114.808 65.6191 114.808C65.7145 114.803 65.7987 114.789 65.8717 114.766V112.012C65.7426 111.996 65.5994 111.987 65.4422 111.987C65.2794 111.987 65.125 112.015 64.979 112.071C64.8387 112.127 64.7152 112.215 64.6085 112.332C64.5018 112.45 64.4176 112.602 64.3559 112.787C64.2941 112.967 64.2632 113.183 64.2632 113.436C64.2632 113.879 64.3671 114.219 64.5748 114.455C64.7882 114.69 65.0633 114.808 65.4001 114.808Z" fill="#1E1D1D"/>
<path d="M70.8664 113.444C70.8664 112.961 70.9282 112.529 71.0517 112.147C71.1752 111.765 71.352 111.445 71.5822 111.187C71.818 110.923 72.1044 110.724 72.4412 110.589C72.7781 110.449 73.1599 110.379 73.5865 110.379C74.0413 110.379 74.4371 110.454 74.774 110.606C75.1164 110.752 75.4 110.96 75.6245 111.229C75.8547 111.499 76.0259 111.822 76.1382 112.198C76.2561 112.574 76.3151 112.989 76.3151 113.444C76.3151 113.927 76.2505 114.359 76.1214 114.741C75.9979 115.123 75.8182 115.446 75.5824 115.709C75.3466 115.968 75.0603 116.167 74.7234 116.307C74.3866 116.442 74.0076 116.509 73.5865 116.509C73.1318 116.509 72.7332 116.436 72.3907 116.29C72.0538 116.139 71.7703 115.928 71.5401 115.659C71.3156 115.389 71.1471 115.067 71.0348 114.69C70.9226 114.314 70.8664 113.899 70.8664 113.444ZM72.1886 113.444C72.1886 113.736 72.2167 114.003 72.2728 114.244C72.3289 114.486 72.4131 114.693 72.5254 114.867C72.6377 115.041 72.7809 115.176 72.9549 115.272C73.1346 115.367 73.3451 115.415 73.5865 115.415C74.0301 115.415 74.3753 115.263 74.6224 114.96C74.8694 114.657 74.9929 114.151 74.9929 113.444C74.9929 113.163 74.9677 112.902 74.9171 112.661C74.8666 112.419 74.7824 112.212 74.6645 112.038C74.5522 111.858 74.4062 111.72 74.2266 111.625C74.0525 111.524 73.8392 111.473 73.5865 111.473C73.1486 111.473 72.8062 111.631 72.5591 111.945C72.3121 112.259 72.1886 112.759 72.1886 113.444Z" fill="#1E1D1D"/>
<path d="M81.2211 113.958H78.8631V116.392H77.6167V110.497H78.8631V112.863H81.2211V110.497H82.4675V116.392H81.2211V113.958Z" fill="#1E1D1D"/>
<path d="M89.6009 117.436H88.7166L88.5819 116.392H84.4554L84.3206 117.436H83.4364V115.297H84.1185C84.1634 115.235 84.2336 115.1 84.3291 114.893C84.4245 114.685 84.52 114.387 84.6154 114C84.7108 113.612 84.7922 113.132 84.8596 112.56C84.9326 111.982 84.9635 111.294 84.9523 110.497H88.7924V115.297H89.6009V117.436ZM87.5461 115.297V111.591H86.1144C86.0807 112.557 85.9937 113.349 85.8533 113.966C85.7186 114.584 85.5811 115.027 85.4407 115.297H87.5461Z" fill="#1E1D1D"/>
<path d="M93.8956 115.137H91.9082L91.4281 116.392H90.1818L92.4892 110.454H93.4072L95.7231 116.392H94.4009L93.8956 115.137ZM92.2534 114.151H93.6009L93.1461 112.922L92.944 111.987H92.9019L92.6998 112.93L92.2534 114.151Z" fill="#1E1D1D"/>
<path d="M100.614 113.899H100.285V116.392H99.0388V110.497H100.285V113.09L100.58 112.964L102.348 110.497H103.772L101.902 112.964L101.414 113.284L101.919 113.621L104.058 116.392H102.517L100.614 113.899Z" fill="#1E1D1D"/>
<path d="M106.903 113.065L107.088 113.815H107.147L107.291 113.031L108.251 110.497H109.556L107.846 114.598C107.717 114.912 107.588 115.184 107.459 115.415C107.33 115.645 107.192 115.839 107.046 115.996C106.9 116.147 106.738 116.262 106.558 116.341C106.378 116.414 106.171 116.451 105.935 116.451C105.733 116.451 105.573 116.439 105.455 116.417C105.337 116.394 105.205 116.338 105.059 116.248L105.37 115.246C105.477 115.297 105.573 115.328 105.657 115.339C105.747 115.35 105.839 115.356 105.935 115.356C106.227 115.356 106.429 115.159 106.541 114.766L104.141 110.497H105.606L106.903 113.065Z" fill="#1E1D1D"/>
<path d="M113.447 111.591H112.091C112.063 112.125 112.032 112.608 111.998 113.04C111.97 113.467 111.928 113.851 111.872 114.194C111.822 114.536 111.751 114.842 111.662 115.111C111.572 115.375 111.459 115.608 111.325 115.81C111.235 115.94 111.134 116.046 111.022 116.13C110.915 116.215 110.803 116.282 110.685 116.333C110.567 116.378 110.452 116.408 110.339 116.425C110.227 116.448 110.123 116.459 110.028 116.459C109.882 116.459 109.767 116.448 109.683 116.425C109.604 116.403 109.517 116.369 109.421 116.324L109.556 115.28C109.618 115.302 109.691 115.314 109.775 115.314C109.871 115.314 109.966 115.291 110.061 115.246C110.157 115.201 110.241 115.128 110.314 115.027C110.404 114.904 110.483 114.727 110.55 114.497C110.623 114.267 110.682 113.969 110.727 113.604C110.777 113.234 110.817 112.793 110.845 112.282C110.878 111.771 110.901 111.176 110.912 110.497H114.693V116.392H113.447V111.591Z" fill="#1E1D1D"/>
<path d="M116.207 110.497H117.454V112.593C117.482 112.588 117.529 112.582 117.597 112.577C117.664 112.565 117.737 112.557 117.816 112.551C117.9 112.546 117.984 112.54 118.068 112.535C118.158 112.529 118.237 112.526 118.304 112.526C118.607 112.526 118.899 112.554 119.18 112.61C119.466 112.666 119.716 112.768 119.93 112.913C120.149 113.059 120.323 113.256 120.452 113.503C120.586 113.75 120.654 114.062 120.654 114.438C120.654 115.111 120.421 115.62 119.955 115.962C119.494 116.305 118.846 116.476 118.009 116.476C117.925 116.476 117.81 116.473 117.664 116.467C117.524 116.467 117.369 116.462 117.201 116.451C117.033 116.439 116.861 116.425 116.687 116.408C116.513 116.392 116.353 116.366 116.207 116.333V110.497ZM118.068 115.381C118.237 115.381 118.397 115.367 118.548 115.339C118.706 115.311 118.84 115.263 118.953 115.196C119.071 115.123 119.163 115.03 119.231 114.918C119.298 114.8 119.332 114.654 119.332 114.48C119.332 114.295 119.295 114.146 119.222 114.034C119.155 113.921 119.062 113.834 118.944 113.772C118.826 113.711 118.692 113.671 118.54 113.655C118.388 113.632 118.231 113.621 118.068 113.621C118.024 113.621 117.97 113.624 117.908 113.629C117.852 113.635 117.793 113.641 117.732 113.646C117.67 113.652 117.614 113.66 117.563 113.671C117.513 113.677 117.476 113.683 117.454 113.688V115.339C117.521 115.35 117.608 115.361 117.715 115.373C117.827 115.378 117.945 115.381 118.068 115.381Z" fill="#1E1D1D"/>
<path d="M125.362 111.591H123.492V116.392H122.246V111.591H120.376V110.497H125.362V111.591Z" fill="#1E1D1D"/>
<path d="M128.712 113.065L128.897 113.815H128.956L129.099 113.031L130.059 110.497H131.365L129.655 114.598C129.526 114.912 129.397 115.184 129.268 115.415C129.138 115.645 129.001 115.839 128.855 115.996C128.709 116.147 128.546 116.262 128.366 116.341C128.187 116.414 127.979 116.451 127.743 116.451C127.541 116.451 127.381 116.439 127.263 116.417C127.145 116.394 127.013 116.338 126.867 116.248L127.179 115.246C127.286 115.297 127.381 115.328 127.465 115.339C127.555 115.35 127.648 115.356 127.743 115.356C128.035 115.356 128.237 115.159 128.35 114.766L125.95 110.497H127.415L128.712 113.065Z" fill="#1E1D1D"/>
<path d="M132.192 110.555C132.444 110.511 132.725 110.477 133.034 110.454C133.343 110.426 133.651 110.412 133.96 110.412C134.274 110.412 134.592 110.438 134.912 110.488C135.232 110.533 135.518 110.628 135.771 110.774C136.029 110.915 136.239 111.114 136.402 111.372C136.565 111.625 136.647 111.962 136.647 112.383C136.647 112.753 136.576 113.071 136.436 113.335C136.296 113.593 136.108 113.803 135.872 113.966C135.642 114.129 135.378 114.25 135.08 114.328C134.783 114.401 134.477 114.438 134.162 114.438C134.134 114.438 134.086 114.438 134.019 114.438C133.952 114.438 133.879 114.438 133.8 114.438C133.727 114.432 133.657 114.427 133.59 114.421C133.522 114.415 133.472 114.41 133.438 114.404V116.392H132.192V110.555ZM134.044 111.507C133.926 111.507 133.811 111.51 133.699 111.516C133.592 111.521 133.505 111.532 133.438 111.549V113.301C133.46 113.306 133.497 113.312 133.547 113.318C133.598 113.323 133.651 113.329 133.707 113.335C133.764 113.335 133.814 113.337 133.859 113.343C133.91 113.343 133.949 113.343 133.977 113.343C134.14 113.343 134.303 113.332 134.465 113.309C134.628 113.287 134.771 113.239 134.895 113.166C135.024 113.093 135.128 112.995 135.206 112.871C135.285 112.742 135.324 112.571 135.324 112.358C135.324 112.178 135.288 112.035 135.215 111.928C135.142 111.816 135.044 111.729 134.92 111.667C134.802 111.605 134.665 111.563 134.507 111.541C134.356 111.518 134.202 111.507 134.044 111.507Z" fill="#1E1D1D"/>
<path d="M141.439 113.958H139.081V116.392H137.835V110.497H139.081V112.863H141.439V110.497H142.686V116.392H141.439V113.958Z" fill="#1E1D1D"/>
<path d="M149.145 110.497H150.392V116.392H149.145V110.497ZM144.202 110.497H145.448V112.593C145.51 112.582 145.611 112.568 145.752 112.551C145.898 112.535 146.043 112.526 146.189 112.526C146.493 112.526 146.782 112.557 147.057 112.619C147.338 112.675 147.582 112.776 147.79 112.922C148.003 113.062 148.171 113.256 148.295 113.503C148.418 113.75 148.48 114.059 148.48 114.429C148.48 115.109 148.261 115.62 147.823 115.962C147.385 116.305 146.745 116.476 145.903 116.476C145.819 116.476 145.709 116.473 145.575 116.467C145.44 116.467 145.294 116.462 145.137 116.451C144.98 116.439 144.82 116.425 144.657 116.408C144.494 116.392 144.342 116.366 144.202 116.333V110.497ZM145.987 115.381C146.33 115.381 146.611 115.311 146.829 115.17C147.048 115.03 147.158 114.797 147.158 114.471C147.158 114.297 147.127 114.157 147.065 114.05C147.004 113.938 146.919 113.851 146.813 113.789C146.712 113.722 146.588 113.677 146.442 113.655C146.302 113.632 146.153 113.621 145.996 113.621C145.956 113.621 145.909 113.624 145.853 113.629C145.802 113.635 145.749 113.641 145.693 113.646C145.642 113.652 145.594 113.66 145.549 113.671C145.505 113.677 145.471 113.683 145.448 113.688V115.339C145.589 115.367 145.768 115.381 145.987 115.381Z" fill="#1E1D1D"/>
<path d="M153.417 113.394L151.632 110.497H153.139L154.124 112.172L154.352 112.753L154.571 112.172L155.598 110.497H156.954L155.101 113.335L157.047 116.392H155.556L154.428 114.598L154.175 113.991L153.931 114.598L152.802 116.392H151.446L153.417 113.394Z" fill="#1E1D1D"/>
<path d="M86.9139 124.33L86.9813 123.581H86.9391L86.5097 124.339L84.0927 127.581H83.1663V121.686H84.4127V124.861L84.3285 125.644H84.379L84.8338 124.861L87.2255 121.686H88.1603V127.581H86.9139V124.33Z" fill="#1E1D1D"/>
<path d="M93.2776 125.147H90.9196V127.581H89.6732V121.686H90.9196V124.052H93.2776V121.686H94.524V127.581H93.2776V125.147Z" fill="#1E1D1D"/>
<path d="M99.7878 124.33L99.8552 123.581H99.8131L99.3836 124.339L96.9666 127.581H96.0403V121.686H97.2867V124.861L97.2024 125.644H97.253L97.7077 124.861L100.099 121.686H101.034V127.581H99.7878V124.33Z" fill="#1E1D1D"/>
<path d="M108.08 128.625H107.196L107.061 127.581H102.547V121.686H103.794V126.486H106.017V121.686H107.263V126.486H108.08V128.625Z" fill="#1E1D1D"/>
<path d="M112.958 124.33L113.025 123.581H112.983L112.554 124.339L110.137 127.581H109.21V121.686H110.457V124.861L110.372 125.644H110.423L110.878 124.861L113.269 121.686H114.204V127.581H112.958V124.33Z" fill="#1E1D1D"/>
<path d="M118.884 126.326H116.896L116.416 127.581H115.17L117.477 121.644H118.395L120.711 127.581H119.389L118.884 126.326ZM117.241 125.341H118.589L118.134 124.111L117.932 123.176H117.89L117.688 124.12L117.241 125.341Z" fill="#1E1D1D"/>
<path d="M125.497 122.781H123.627V127.581H122.381V122.781H120.511V121.686H125.497V122.781Z" fill="#1E1D1D"/>
<path d="M130.316 124.33L130.383 123.581H130.341L129.911 124.339L127.494 127.581H126.568V121.686H127.814V124.861L127.73 125.644H127.781L128.235 124.861L130.627 121.686H131.562V127.581H130.316V124.33Z" fill="#1E1D1D"/>
<path d="M137.387 123.075C137.387 123.221 137.364 123.367 137.319 123.513C137.28 123.654 137.215 123.786 137.126 123.909C137.036 124.033 136.918 124.139 136.772 124.229C136.626 124.319 136.449 124.384 136.241 124.423V124.473C136.427 124.49 136.601 124.532 136.763 124.6C136.926 124.667 137.067 124.762 137.185 124.886C137.308 125.004 137.403 125.15 137.471 125.324C137.544 125.492 137.58 125.692 137.58 125.922C137.58 126.231 137.507 126.495 137.361 126.713C137.221 126.932 137.036 127.112 136.806 127.252C136.575 127.393 136.312 127.497 136.014 127.564C135.716 127.631 135.413 127.665 135.104 127.665C135.003 127.665 134.869 127.665 134.7 127.665C134.537 127.665 134.361 127.659 134.17 127.648C133.984 127.643 133.794 127.631 133.597 127.615C133.406 127.598 133.232 127.572 133.075 127.539V121.728C133.193 121.711 133.325 121.694 133.471 121.677C133.622 121.661 133.782 121.647 133.951 121.635C134.125 121.624 134.302 121.616 134.481 121.61C134.661 121.604 134.841 121.602 135.02 121.602C135.312 121.602 135.599 121.624 135.879 121.669C136.16 121.708 136.413 121.784 136.637 121.896C136.862 122.003 137.041 122.152 137.176 122.343C137.316 122.534 137.387 122.778 137.387 123.075ZM135.088 126.655C135.245 126.655 135.394 126.64 135.534 126.612C135.68 126.584 135.806 126.539 135.913 126.478C136.025 126.41 136.112 126.329 136.174 126.233C136.241 126.132 136.275 126.009 136.275 125.863C136.275 125.683 136.236 125.54 136.157 125.433C136.079 125.327 135.975 125.248 135.846 125.198C135.722 125.141 135.582 125.108 135.424 125.097C135.273 125.08 135.118 125.071 134.961 125.071H134.271V126.604C134.304 126.615 134.352 126.624 134.414 126.629C134.481 126.635 134.554 126.64 134.633 126.646C134.711 126.646 134.79 126.649 134.869 126.655C134.953 126.655 135.026 126.655 135.088 126.655ZM134.692 124.145C134.776 124.145 134.874 124.145 134.987 124.145C135.104 124.139 135.203 124.131 135.281 124.12C135.517 124.047 135.716 123.948 135.879 123.825C136.042 123.696 136.123 123.522 136.123 123.303C136.123 123.157 136.093 123.039 136.031 122.949C135.969 122.859 135.885 122.789 135.778 122.739C135.677 122.688 135.562 122.654 135.433 122.637C135.304 122.621 135.172 122.612 135.037 122.612C134.874 122.612 134.725 122.615 134.591 122.621C134.456 122.626 134.349 122.635 134.271 122.646V124.145H134.692Z" fill="#1E1D1D"/>
<path d="M99.7019 55.9161C99.0589 55.9161 98.5231 55.3772 98.5231 54.7305C98.5231 54.0838 99.0589 53.5449 99.7019 53.5449H109.989V30.9102C109.239 29.1856 107.739 28 105.81 28H95.4156H91.6651H88.5576C90.3793 28 92.0938 29.1856 92.5224 31.018V78.982C92.0938 80.7066 90.3793 81.8922 88.5576 81.8922H91.6651H95.5228H105.81C107.739 81.8922 109.346 80.7066 109.989 78.8742V55.9161H99.7019Z" fill="url(#paint0_linear_449:296)"/>
<path d="M99.7019 55.9161C99.0589 55.9161 98.5231 55.3772 98.5231 54.7305C98.5231 54.0838 99.0589 53.5449 99.7019 53.5449H109.989V30.9102C109.239 29.1856 107.739 28 105.81 28H95.4156H91.6651H88.5576C90.3793 28 92.0938 29.1856 92.5224 31.018V78.982C92.0938 80.7066 90.3793 81.8922 88.5576 81.8922H91.6651H95.5228H105.81C107.739 81.8922 109.346 80.7066 109.989 78.8742V55.9161H99.7019Z" fill="url(#paint1_linear_449:296)"/>
<path d="M99.7019 55.9161C99.0589 55.9161 98.5231 55.3772 98.5231 54.7305C98.5231 54.0838 99.0589 53.5449 99.7019 53.5449H109.989V30.9102C109.239 29.1856 107.739 28 105.81 28H95.4156H91.6651H88.5576C90.3793 28 92.0938 29.1856 92.5224 31.018V78.982C92.0938 80.7066 90.3793 81.8922 88.5576 81.8922H91.6651H95.5228H105.81C107.739 81.8922 109.346 80.7066 109.989 78.8742V55.9161H99.7019Z" fill="url(#paint2_linear_449:296)"/>
<path d="M99.7019 55.9161C99.0589 55.9161 98.5231 55.3772 98.5231 54.7305C98.5231 54.0838 99.0589 53.5449 99.7019 53.5449H109.989V30.9102C109.239 29.1856 107.739 28 105.81 28H95.4156H91.6651H88.5576C90.3793 28 92.0938 29.1856 92.5224 31.018V78.982C92.0938 80.7066 90.3793 81.8922 88.5576 81.8922H91.6651H95.5228H105.81C107.739 81.8922 109.346 80.7066 109.989 78.8742V55.9161H99.7019Z" fill="url(#paint3_linear_449:296)"/>
<path d="M136.349 28H133.135H129.277H117.704C115.776 28 114.168 29.1856 113.418 30.9102L106.024 50.6347C105.381 52.3593 103.667 53.5449 101.845 53.5449H105.06H108.489H120.705C122.634 53.5449 124.241 52.3593 124.991 50.6347L132.278 30.9102C132.813 29.0778 134.528 28 136.349 28Z" fill="url(#paint4_linear_449:296)"/>
<path d="M136.349 28H133.135H129.277H117.704C115.776 28 114.168 29.1856 113.418 30.9102L106.024 50.6347C105.381 52.3593 103.667 53.5449 101.845 53.5449H105.06H108.489H120.705C122.634 53.5449 124.241 52.3593 124.991 50.6347L132.278 30.9102C132.813 29.0778 134.528 28 136.349 28Z" fill="url(#paint5_linear_449:296)"/>
<path d="M136.349 28H133.135H129.277H117.704C115.776 28 114.168 29.1856 113.418 30.9102L106.024 50.6347C105.381 52.3593 103.667 53.5449 101.845 53.5449H105.06H108.489H120.705C122.634 53.5449 124.241 52.3593 124.991 50.6347L132.278 30.9102C132.813 29.0778 134.528 28 136.349 28Z" fill="url(#paint6_linear_449:296)"/>
<path d="M101.845 55.9165H105.06H108.918H120.598C122.526 55.9165 124.134 57.1022 124.884 58.9345L132.17 78.9824C132.813 80.7069 134.528 82.0003 136.349 82.0003H133.135H129.706H117.597C115.668 82.0003 114.061 80.8147 113.311 78.9824L106.024 58.9345C105.489 57.1022 103.667 55.9165 101.845 55.9165Z" fill="url(#paint7_linear_449:296)"/>
<path d="M101.845 55.9165H105.06H108.918H120.598C122.526 55.9165 124.134 57.1022 124.884 58.9345L132.17 78.9824C132.813 80.7069 134.528 82.0003 136.349 82.0003H133.135H129.706H117.597C115.668 82.0003 114.061 80.8147 113.311 78.9824L106.024 58.9345C105.489 57.1022 103.667 55.9165 101.845 55.9165Z" fill="url(#paint8_linear_449:296)"/>
<path d="M101.845 55.9165H105.06H108.918H120.598C122.526 55.9165 124.134 57.1022 124.884 58.9345L132.17 78.9824C132.813 80.7069 134.528 82.0003 136.349 82.0003H133.135H129.706H117.597C115.668 82.0003 114.061 80.8147 113.311 78.9824L106.024 58.9345C105.489 57.1022 103.667 55.9165 101.845 55.9165Z" fill="url(#paint9_linear_449:296)"/>
<defs>
<linearGradient id="paint0_linear_449:296" x1="99.2732" y1="28" x2="99.2732" y2="81.8922" gradientUnits="userSpaceOnUse">
<stop stop-color="#E7E7E7"/>
<stop offset="0.688606" stop-color="white"/>
<stop offset="1" stop-color="#C2C2C2"/>
</linearGradient>
<linearGradient id="paint1_linear_449:296" x1="99.2732" y1="28" x2="99.2732" y2="81.8922" gradientUnits="userSpaceOnUse">
<stop stop-color="#E7E7E7"/>
<stop offset="0.688606" stop-color="white"/>
<stop offset="1" stop-color="#C2C2C2"/>
</linearGradient>
<linearGradient id="paint2_linear_449:296" x1="99.2732" y1="28" x2="99.2732" y2="81.8922" gradientUnits="userSpaceOnUse">
<stop stop-color="#E7E7E7"/>
<stop offset="0.688606" stop-color="white"/>
<stop offset="1" stop-color="#C2C2C2"/>
</linearGradient>
<linearGradient id="paint3_linear_449:296" x1="99.2732" y1="28" x2="99.2732" y2="81.8922" gradientUnits="userSpaceOnUse">
<stop stop-color="#E7E7E7"/>
<stop offset="0.688606" stop-color="white"/>
<stop offset="1" stop-color="#C2C2C2"/>
</linearGradient>
<linearGradient id="paint4_linear_449:296" x1="119.097" y1="28" x2="119.097" y2="53.5449" gradientUnits="userSpaceOnUse">
<stop stop-color="#5FD5FA"/>
<stop offset="1" stop-color="#355CD1"/>
</linearGradient>
<linearGradient id="paint5_linear_449:296" x1="119.097" y1="28" x2="119.097" y2="53.5449" gradientUnits="userSpaceOnUse">
<stop stop-color="#5FD5FA"/>
<stop offset="1" stop-color="#355CD1"/>
</linearGradient>
<linearGradient id="paint6_linear_449:296" x1="119.097" y1="28" x2="119.097" y2="53.5449" gradientUnits="userSpaceOnUse">
<stop stop-color="#5FD5FA"/>
<stop offset="1" stop-color="#355CD1"/>
</linearGradient>
<linearGradient id="paint7_linear_449:296" x1="119.097" y1="55.9165" x2="119.097" y2="82.0003" gradientUnits="userSpaceOnUse">
<stop stop-color="#FF213D"/>
<stop offset="1" stop-color="#9E0418"/>
</linearGradient>
<linearGradient id="paint8_linear_449:296" x1="119.097" y1="55.9165" x2="119.097" y2="82.0003" gradientUnits="userSpaceOnUse">
<stop stop-color="#FF213D"/>
<stop offset="1" stop-color="#9E0418"/>
</linearGradient>
<linearGradient id="paint9_linear_449:296" x1="119.097" y1="55.9165" x2="119.097" y2="82.0003" gradientUnits="userSpaceOnUse">
<stop stop-color="#FF213D"/>
<stop offset="1" stop-color="#9E0418"/>
</linearGradient>
</defs>
</svg>
