<svg width="221" height="161" viewBox="0 0 221 161" fill="none" xmlns="http://www.w3.org/2000/svg">
<path d="M77.9876 60.3096H54.8542C53.7105 60.3096 52.5945 60.6596 51.6577 61.3116C50.721 61.9638 50.0087 62.8866 49.6178 63.9549L40.6546 88.4346C40.2603 89.4996 39.5469 90.4191 38.6106 91.0691C37.6743 91.7185 36.5602 92.067 35.4182 92.0685H58.5575C59.701 92.067 60.8166 91.7171 61.7532 91.0649C62.6898 90.4134 63.4022 89.491 63.7939 88.4232L72.7571 63.9431C73.1496 62.878 73.8617 61.9584 74.7972 61.3086C75.7327 60.6587 76.8463 60.31 77.9876 60.3096Z" fill="#BB9C72"/>
<path d="M47.9786 63.3637C48.4995 61.9682 49.4373 60.7643 50.6663 59.9138C51.8953 59.0632 53.3566 58.6064 54.8543 58.6049H57.1658L58.5045 54.9655C58.8239 54.0956 59.405 53.3443 60.1688 52.8138C60.9325 52.2833 61.842 51.9992 62.7737 52H43.9038C42.9695 51.9981 42.0573 52.2823 41.2913 52.814C40.5252 53.3456 39.9426 54.0989 39.6227 54.9714L32.2752 74.9383C31.9549 75.8094 31.373 76.5614 30.6083 77.0931C29.8437 77.6249 28.9331 77.91 28 77.91H42.6537L47.9608 63.3637H47.9786Z" fill="#D8C7AB"/>
<path d="M87.9827 66.3635H87.0688V61.2531H83.9257V66.3635H83.0117V60.4385H87.9827V66.3635Z" fill="#48443E"/>
<path d="M92.9067 60.5791C93.1709 60.67 93.4138 60.8136 93.6202 61.0011C93.8228 61.1792 93.9838 61.3993 94.0919 61.6457C94.2053 61.9126 94.2616 62.2 94.2571 62.4897C94.263 62.7863 94.2026 63.0805 94.0802 63.3512C93.964 63.6057 93.7905 63.8303 93.573 64.0076C93.354 64.1981 93.0968 64.3399 92.8182 64.4237C92.5239 64.522 92.2147 64.5696 91.9042 64.5643H90.3769V66.3635H89.4629V60.4385H91.9986C92.3068 60.4378 92.6132 60.4853 92.9067 60.5791ZM91.8865 63.7849C92.2742 63.807 92.6564 63.6859 92.9597 63.4449C93.0938 63.3269 93.1991 63.18 93.2675 63.0155C93.336 62.851 93.3659 62.6732 93.3548 62.4955C93.3624 62.3217 93.3339 62.1483 93.2709 61.9859C93.208 61.8236 93.1121 61.6758 92.9892 61.5519C92.698 61.3098 92.3244 61.1881 91.9455 61.2121H90.3769V63.7849H91.8865Z" fill="#48443E"/>
<path d="M96.3562 65.0215L99.782 60.4385H100.602V66.3635H99.7116V61.8977L96.368 66.3635H95.4658V60.4385H96.3562V65.0215Z" fill="#48443E"/>
<path d="M109.724 66.3635H108.805V61.2531H105.662V66.3635H104.748V60.4385H109.724V66.3635Z" fill="#48443E"/>
<path d="M115.35 60.5452C115.717 60.6985 116.051 60.9192 116.335 61.1957C116.613 61.4782 116.831 61.8129 116.978 62.1802C117.122 62.5706 117.196 62.9833 117.196 63.3993C117.193 63.7997 117.119 64.1966 116.978 64.5714C116.824 64.9367 116.606 65.2721 116.335 65.5618C115.725 66.1439 114.911 66.4676 114.065 66.4644C113.628 66.4701 113.195 66.3884 112.791 66.2241C112.418 66.071 112.079 65.8459 111.794 65.5618C111.525 65.2783 111.309 64.9487 111.158 64.5889C111.01 64.2012 110.934 63.7902 110.933 63.3758C110.933 62.9607 111.012 62.5493 111.164 62.1626C111.311 61.7978 111.531 61.4667 111.812 61.1898C112.11 60.8997 112.461 60.6707 112.848 60.5158C113.235 60.361 113.648 60.2833 114.065 60.2873C114.505 60.2831 114.941 60.3627 115.35 60.5217V60.5452ZM113.133 61.2777C112.864 61.3832 112.624 61.5498 112.431 61.7641C112.237 61.9739 112.088 62.2213 111.995 62.4909C111.791 63.0794 111.791 63.7191 111.995 64.3077C112.095 64.5753 112.245 64.8219 112.437 65.0344C112.631 65.2452 112.868 65.4113 113.133 65.5208C113.428 65.6414 113.746 65.7013 114.065 65.6966C114.385 65.7001 114.703 65.6445 115.002 65.5325C115.268 65.4183 115.509 65.253 115.71 65.046C115.907 64.8337 116.056 64.5819 116.147 64.3077C116.355 63.7138 116.355 63.0672 116.147 62.4733C116.049 62.2055 115.901 61.9588 115.71 61.7466C115.506 61.5465 115.269 61.3838 115.008 61.266C114.708 61.1545 114.39 61.0989 114.071 61.1018C113.751 61.0957 113.434 61.1556 113.139 61.2777H113.133Z" fill="#48443E"/>
<path d="M123.729 65.5723H124.602V65.9709L124.514 67.6412H123.759L123.694 66.3635H118.924L118.841 67.6412H118.081L118.015 65.9826V65.5841H118.257C118.429 65.5712 118.591 65.4961 118.711 65.3731C118.894 65.2041 119.029 64.9897 119.101 64.7518C119.185 64.5023 119.254 64.2479 119.307 63.99C119.366 63.7087 119.413 63.4039 119.46 63.0874C119.508 62.771 119.519 62.4428 119.537 62.097C119.555 61.7512 119.537 61.4171 119.537 61.0714V60.4385H123.7V65.5723H123.729ZM120.221 63.9314C120.155 64.5164 119.953 65.0781 119.631 65.5723H122.839V61.2121H120.451C120.46 62.1234 120.384 63.0336 120.227 63.9314H120.221Z" fill="#48443E"/>
<path d="M131.166 65.5723H132.056V65.9709L131.967 67.6412H131.213L131.148 66.3635H126.383L126.301 67.6412H125.534L125.475 65.9826V65.5841H125.711C125.884 65.5723 126.045 65.4971 126.165 65.3731C126.348 65.2031 126.484 64.9892 126.56 64.7518C126.643 64.5022 126.709 64.2477 126.76 63.99C126.826 63.7087 126.872 63.4039 126.914 63.0874C126.956 62.771 126.979 62.4428 126.996 62.097C127.014 61.7512 126.996 61.4171 126.996 61.0714V60.4385H131.159V65.5723H131.166ZM127.663 63.9314C127.594 64.5158 127.392 65.0769 127.073 65.5723H130.287V61.2121H127.928C127.93 62.1232 127.856 63.0328 127.704 63.9314H127.663Z" fill="#48443E"/>
<path d="M137.492 61.2238H134.091V62.8999H137.086V63.6735H134.091V65.5665H137.652V66.3635H133.206V60.4385H137.492V61.2238Z" fill="#48443E"/>
<path d="M142.352 60.5791C142.616 60.67 142.859 60.8136 143.065 61.0011C143.268 61.1792 143.429 61.3993 143.537 61.6457C143.651 61.9126 143.707 62.2 143.702 62.4897C143.708 62.7863 143.648 63.0805 143.525 63.3512C143.409 63.6057 143.236 63.8303 143.018 64.0076C142.799 64.1981 142.542 64.3399 142.263 64.4237C141.969 64.522 141.66 64.5696 141.349 64.5643H139.828V66.3635H138.908V60.4385H141.444C141.752 60.4378 142.059 60.4853 142.352 60.5791ZM141.332 63.7849C141.719 63.8059 142.101 63.6849 142.405 63.4449C142.539 63.3269 142.644 63.18 142.713 63.0155C142.781 62.851 142.811 62.6732 142.8 62.4955C142.81 62.3188 142.783 62.142 142.719 61.9764C142.657 61.8109 142.559 61.6603 142.435 61.5344C142.143 61.2922 141.77 61.1705 141.391 61.1945H139.828V63.7673L141.332 63.7849Z" fill="#48443E"/>
<path d="M147.058 62.7886L148.019 62.8413V60.4385H148.891V62.8413L149.853 62.7886L151.451 60.4385H152.518L150.572 63.146L152.795 66.3635H151.74L149.894 63.5856H148.891V66.3635H148.019V63.5856H147.01L145.177 66.3635H144.109L146.338 63.146L144.386 60.4385H145.454L147.058 62.7886Z" fill="#48443E"/>
<path d="M154.629 62.8706L155.555 62.8003L157.495 60.4385H158.616L156.292 63.1813L158.839 66.3635H157.684L155.573 63.6032H154.629V66.3635H153.739V60.4385H154.629V62.8706Z" fill="#48443E"/>
<path d="M164.194 61.2238H160.797V62.8999H163.787V63.6735H160.797V65.5665H164.353V66.3635H159.907V60.4385H164.194V61.2238Z" fill="#48443E"/>
<path d="M88.313 73.5199H89.0088C89.4516 73.5107 89.8926 73.5777 90.312 73.7195C90.6988 73.8364 91.0552 74.0367 91.3557 74.3054C91.6468 74.5656 91.8746 74.8885 92.0221 75.2492C92.1843 75.6491 92.2645 76.0775 92.258 76.5087C92.268 76.9506 92.1794 77.389 91.9985 77.7925C91.8339 78.1553 91.5902 78.4774 91.285 78.7362C90.9864 79.0014 90.6348 79.2009 90.253 79.3221C89.8519 79.4547 89.4317 79.5224 89.0088 79.521H88.307V80.5467H86.538V79.5096H85.8363C85.3898 79.5181 84.945 79.4504 84.5213 79.31C84.1426 79.1902 83.7946 78.9907 83.5012 78.7241C83.2101 78.4639 82.9822 78.141 82.8348 77.7803C82.6732 77.3805 82.593 76.9521 82.5989 76.5208C82.5889 76.0789 82.6775 75.6405 82.8584 75.2371C83.023 74.8743 83.2667 74.5521 83.5719 74.2933C83.8664 74.0289 84.2141 73.8286 84.592 73.7074C84.9936 73.5763 85.4135 73.5085 85.8363 73.5085H86.538V72.4707H88.307V73.5199H88.313ZM85.9071 75.0147C85.7035 74.9933 85.4977 75.0168 85.3043 75.0831C85.111 75.1501 84.9348 75.2585 84.7884 75.4003C84.642 75.5429 84.5289 75.7154 84.4572 75.9057C84.3856 76.096 84.3572 76.3006 84.3739 76.503C84.3605 76.7012 84.3911 76.9 84.4635 77.0854C84.5358 77.2707 84.6481 77.4382 84.7925 77.5758C85.1013 77.8388 85.5008 77.9735 85.9071 77.9507H86.5498V75.0147H85.9071ZM88.9557 77.945C89.1592 77.9678 89.3653 77.9464 89.5592 77.8808C89.7532 77.8153 89.9299 77.7076 90.0767 77.5651C90.2235 77.4232 90.3366 77.2507 90.4079 77.0597C90.4792 76.8687 90.5069 76.6648 90.4889 76.4617C90.4992 76.2649 90.4683 76.0682 90.3983 75.8836C90.3283 75.699 90.2206 75.5307 90.082 75.3896C89.7676 75.1273 89.3658 74.9912 88.9557 75.0083H88.313V77.9386L88.9557 77.945Z" fill="#312A20"/>
<path d="M99.4051 72.7753C99.9049 72.972 100.358 73.2692 100.738 73.6484C101.113 74.0162 101.408 74.4575 101.604 74.9436C101.81 75.4661 101.914 76.0235 101.911 76.5845C101.913 77.1305 101.809 77.6722 101.604 78.179C101.409 78.6744 101.112 79.1241 100.733 79.5012C100.355 79.8783 99.9035 80.1741 99.4051 80.3708C98.8619 80.5961 98.2777 80.708 97.6891 80.6987C97.1088 80.7037 96.5327 80.6003 95.9908 80.3936C95.4957 80.1912 95.0451 79.8947 94.6641 79.5205C94.2788 79.1541 93.9788 78.7079 93.7854 78.2139C93.5809 77.695 93.4768 77.1419 93.4788 76.5845C93.4779 76.0349 93.582 75.4896 93.7854 74.9785C93.9788 74.4846 94.2788 74.0383 94.6641 73.672C95.0451 73.2977 95.4957 73.0012 95.9908 72.7988C96.5278 72.5735 97.1062 72.4616 97.6891 72.4702C98.2752 72.4652 98.8571 72.5685 99.4051 72.7753ZM96.6748 74.2522C96.3851 74.3748 96.1256 74.5587 95.9142 74.7911C95.6976 75.022 95.5328 75.2957 95.4306 75.5944C95.3157 75.9116 95.2578 76.2473 95.2596 76.5845C95.2589 76.9259 95.3167 77.2645 95.4306 77.5866C95.5328 77.8853 95.6976 78.159 95.9142 78.39C96.1354 78.6159 96.3974 78.7991 96.6867 78.9288C97.0112 79.0571 97.3574 79.1227 97.7068 79.122C98.0613 79.1249 98.4126 79.055 98.7388 78.9174C99.0369 78.7913 99.3044 78.6038 99.523 78.3664C99.7278 78.1291 99.8877 77.8568 99.9946 77.5631C100.094 77.2466 100.146 76.9166 100.148 76.5845C100.15 76.2437 100.094 75.9052 99.9831 75.5823C99.8841 75.2786 99.7187 75.0006 99.4994 74.7675C99.2852 74.5416 99.0262 74.3619 98.7388 74.2401C98.4111 74.1082 98.0603 74.0426 97.7068 74.0469C97.3521 74.0426 97.0005 74.1125 96.6748 74.2522Z" fill="#312A20"/>
<path d="M105.196 75.7292H108.669V72.6406H110.462V80.5349H108.669V77.3643H105.196V80.5349H103.403V72.6406H105.196V75.7292Z" fill="#312A20"/>
<path d="M119.767 78.9411H120.946V79.428L120.793 82.1879H119.189L119.083 80.5357H113.717L113.622 82.1879H112.006L111.912 79.4394V78.9533H112.242C112.424 78.9483 112.599 78.887 112.744 78.7772C112.929 78.6346 113.072 78.4436 113.156 78.2262C113.4 77.6424 113.556 77.0266 113.622 76.3979C113.721 75.5753 113.768 74.747 113.764 73.9188V72.6357H119.767V78.9411ZM115.303 77.0836C115.214 77.7258 115.031 78.3517 114.76 78.9411H117.986V74.2174H115.545C115.547 75.1769 115.473 76.1356 115.326 77.0836H115.303Z" fill="#312A20"/>
<path d="M130.393 80.5351H128.429L127.84 78.9641H124.437L123.848 80.5351H121.914L125.174 72.623H127.132L130.417 80.5351H130.393ZM127.238 77.4109L126.159 74.4278H126.041L124.98 77.4109H127.238Z" fill="#312A20"/>
<path d="M89.9641 94.688H88.1715V88.4289H84.8043V94.688H83.0117V86.7881H89.9641V94.688Z" fill="#312A20"/>
<path d="M96.6747 86.999C97.0445 87.1302 97.3864 87.3291 97.6831 87.585C98.1019 88.0133 98.3819 88.5565 98.487 89.1446C98.5921 89.7326 98.5175 90.3385 98.2728 90.8845C98.1104 91.2338 97.868 91.541 97.5651 91.7812C97.2676 92.0542 96.9104 92.2545 96.5214 92.3671C96.0994 92.5061 95.6569 92.5738 95.2123 92.5667H93.6084V94.7229H91.8394V86.7816H95.3775C95.8195 86.7752 96.2591 86.8493 96.6747 86.999ZM95.2359 90.9608C95.6391 90.9821 96.0362 90.8553 96.3504 90.6029C96.4875 90.4853 96.5954 90.3385 96.666 90.1724C96.7366 90.007 96.7678 89.8274 96.7573 89.6478C96.7661 89.476 96.7387 89.3042 96.6767 89.1438C96.6148 88.9835 96.5197 88.8373 96.3976 88.7162C96.0946 88.461 95.7027 88.3341 95.3067 88.364H93.6084V90.9608H95.2359Z" fill="#312A20"/>
<path d="M105.968 88.3762H101.776V89.8645H105.514V91.4063H101.776V93.0942H106.169V94.688H100.024V86.7881H105.968V88.3762Z" fill="#312A20"/>
<path d="M111.676 89.6663C111.754 89.5979 111.816 89.5124 111.857 89.4176C111.898 89.3221 111.917 89.2187 111.912 89.1153C111.921 88.9863 111.897 88.8573 111.843 88.7404C111.79 88.6228 111.709 88.5202 111.605 88.441C111.295 88.2564 110.934 88.1745 110.574 88.2065C109.807 88.2058 109.064 88.466 108.468 88.945L107.543 87.7261C107.962 87.3597 108.449 87.0753 108.975 86.8879C109.518 86.704 110.089 86.6127 110.662 86.6184C111.09 86.6141 111.517 86.6697 111.929 86.7824C112.272 86.8772 112.595 87.034 112.879 87.2457C113.121 87.436 113.322 87.6734 113.469 87.9428C113.602 88.2258 113.67 88.5337 113.669 88.8459C113.675 89.1595 113.606 89.471 113.469 89.754C113.329 90.0292 113.11 90.2558 112.838 90.4048V90.5103C113.195 90.6236 113.507 90.8474 113.728 91.149C113.948 91.4804 114.059 91.871 114.046 92.2681C114.051 92.6223 113.974 92.973 113.823 93.2938C113.678 93.6138 113.458 93.8932 113.18 94.1085C112.853 94.3537 112.483 94.5362 112.089 94.6474C111.6 94.7871 111.094 94.8548 110.585 94.8469C110.256 94.8484 109.927 94.8249 109.6 94.7764C109.008 94.6987 108.437 94.4991 107.926 94.1905C107.661 94.0351 107.41 93.8562 107.177 93.6573L108.114 92.3621C108.483 92.6558 108.897 92.8875 109.341 93.0478C109.782 93.1833 110.241 93.2503 110.703 93.2467C111.116 93.2767 111.528 93.1783 111.883 92.9659C112.001 92.8761 112.097 92.7599 112.163 92.6266C112.229 92.4933 112.262 92.3465 112.26 92.1982C112.26 91.6116 111.906 91.3714 111.181 91.3714H109.176V89.8595H110.992C111.227 89.8709 111.459 89.8003 111.647 89.6599L111.676 89.6663Z" fill="#312A20"/>
<path d="M117.284 92.045L121.129 86.7881H122.692V94.688H120.929V89.7241L117.273 94.688H115.527V86.7881H117.284V92.045Z" fill="#312A20"/>
<path d="M131.998 93.0948H133.147V93.5752L132.994 96.3351H131.396L131.319 94.6829H125.947L125.852 96.3351H124.237L124.143 93.5866V93.1062H124.479C124.659 93.1012 124.834 93.0377 124.974 92.9244C125.159 92.7804 125.304 92.5901 125.393 92.3734C125.634 91.7889 125.789 91.1731 125.852 90.5451C125.951 89.7246 125.999 88.8985 125.994 88.0717V86.7822H131.998V93.0948ZM127.539 91.2308C127.448 91.8752 127.263 92.5031 126.991 93.0948H130.216V88.3646H127.751C127.752 89.3241 127.681 90.2821 127.539 91.2308Z" fill="#312A20"/>
<path d="M140.536 88.3762H136.349V89.8645H140.087V91.4063H136.349V93.0942H140.742V94.688H134.591V86.7881H140.536V88.3762Z" fill="#312A20"/>
<path d="M144.098 89.8766H147.571V86.7881H149.363V94.688H147.571V91.5175H144.098V94.688H142.305V86.7881H144.098V89.8766Z" fill="#312A20"/>
<path d="M158.002 88.3876H155.284V94.688H153.515V88.3876H150.802V86.7881H158.002V88.3876Z" fill="#312A20"/>
<path d="M164.229 88.4351C163.852 88.2961 163.452 88.2284 163.05 88.2355C162.69 88.2312 162.333 88.2904 161.994 88.4115C161.698 88.5313 161.428 88.7066 161.198 88.9276C160.978 89.1593 160.806 89.4323 160.691 89.7302C160.571 90.051 160.511 90.3903 160.514 90.7324C160.509 91.0824 160.569 91.4302 160.691 91.7581C160.806 92.0518 160.983 92.3177 161.21 92.5372C161.441 92.7582 161.711 92.935 162.006 93.059C162.332 93.1787 162.678 93.2386 163.026 93.235C163.459 93.2343 163.888 93.1588 164.294 93.0119C164.68 92.8487 165.035 92.6206 165.344 92.3383L166.352 93.575C165.426 94.4325 164.197 94.8894 162.932 94.8467C162.354 94.8531 161.778 94.7583 161.234 94.5651C160.737 94.3891 160.28 94.1182 159.889 93.7682C159.519 93.3983 159.229 92.9578 159.034 92.4731C158.825 91.9349 158.721 91.3618 158.727 90.7852C158.721 90.237 158.826 89.6931 159.034 89.1849C159.224 88.6867 159.519 88.2348 159.901 87.8605C160.296 87.4799 160.763 87.1805 161.275 86.9817C161.855 86.7486 162.477 86.6352 163.103 86.6474C163.682 86.6409 164.256 86.7358 164.801 86.9289C165.306 87.1078 165.772 87.3801 166.175 87.7315L165.19 89.021C164.916 88.7658 164.588 88.5755 164.229 88.4643V88.4351Z" fill="#312A20"/>
<path d="M169.53 89.7947L170.397 89.7006L172.638 86.7881H174.838L171.883 90.4797L175.12 94.688H172.833L170.409 91.3122H169.53V94.688H167.779V86.7881H169.53V89.7947Z" fill="#312A20"/>
<path d="M178.146 92.045L181.991 86.7881H183.553V94.688H181.79V89.7241L178.134 94.688H176.389V86.7881H178.146V92.045Z" fill="#312A20"/>
<path d="M188.861 89.6065H188.978L190.553 86.7881H192.752L190.211 90.6793L193 94.688H190.7L188.919 91.6465H188.801L187.044 94.688H184.756L187.539 90.5852L185.004 86.7881H187.221L188.861 89.6065Z" fill="#312A20"/>
<path d="M89.0265 102.542H84.7926V108.836H83.0117V100.937H89.0265V102.542Z" fill="#312A20"/>
<path d="M95.2182 101.148C95.5892 101.276 95.9316 101.476 96.2265 101.734C96.4979 101.988 96.7163 102.293 96.8693 102.63C97.1838 103.402 97.1838 104.266 96.8693 105.039C96.7035 105.388 96.4595 105.695 96.1558 105.936C95.8587 106.209 95.5013 106.41 95.1121 106.522C94.6921 106.661 94.2514 106.728 93.8089 106.721H92.1931V108.877H90.4241V100.937H93.9622C94.4017 100.931 94.8388 101.002 95.2535 101.148H95.2182ZM93.7853 105.11C94.1887 105.133 94.5863 105.005 94.8998 104.752C95.0357 104.633 95.1426 104.486 95.2121 104.32C95.2816 104.155 95.3119 103.976 95.3008 103.797C95.3093 103.626 95.2823 103.454 95.2214 103.294C95.1606 103.134 95.0671 102.988 94.9469 102.865C94.6437 102.61 94.252 102.484 93.856 102.513H92.1696V105.11H93.7853Z" fill="#312A20"/>
<path d="M106.146 108.83H104.176L103.586 107.265H100.178L99.588 108.83H97.6538L100.915 100.924H102.873L106.157 108.83H106.146ZM102.99 105.706L101.935 102.699H101.817L100.749 105.706H102.99Z" fill="#312A20"/>
<path d="M109.312 104.025H112.785V100.937H114.578V108.836H112.785V105.666H109.312V108.836H107.519V100.937H109.312V104.025Z" fill="#312A20"/>
<path d="M123.217 102.542H120.498V108.836H118.729V102.542H116.017V100.937H123.217V102.542Z" fill="#312A20"/>
<path d="M129.874 101.076C130.373 101.27 130.825 101.568 131.201 101.949C131.581 102.313 131.877 102.755 132.068 103.244C132.276 103.766 132.382 104.323 132.381 104.885C132.381 105.429 132.274 105.969 132.068 106.473C131.873 106.967 131.578 107.416 131.201 107.792C130.822 108.167 130.37 108.465 129.874 108.665C129.33 108.895 128.743 109.009 128.152 108.999C127.573 109.006 126.999 108.9 126.46 108.688C125.962 108.488 125.509 108.191 125.127 107.815C124.745 107.447 124.445 107.001 124.249 106.509C124.044 105.991 123.94 105.441 123.942 104.885C123.94 104.335 124.044 103.79 124.249 103.279C124.445 102.786 124.745 102.341 125.127 101.972C125.938 101.193 127.024 100.76 128.152 100.765C128.741 100.759 129.325 100.864 129.874 101.076ZM127.121 102.558C126.832 102.683 126.574 102.869 126.366 103.104C126.144 103.331 125.976 103.605 125.876 103.906C125.766 104.225 125.71 104.56 125.711 104.897C125.711 105.236 125.767 105.572 125.876 105.893C125.976 106.194 126.144 106.468 126.366 106.696C126.584 106.924 126.844 107.109 127.132 107.241C127.457 107.366 127.804 107.43 128.152 107.428C128.507 107.435 128.858 107.367 129.185 107.229C129.489 107.098 129.758 106.897 129.969 106.643C130.173 106.407 130.335 106.137 130.446 105.846C130.545 105.529 130.597 105.199 130.599 104.867C130.602 104.526 130.546 104.188 130.434 103.866C130.332 103.562 130.165 103.284 129.945 103.051C129.733 102.82 129.474 102.638 129.185 102.517C128.857 102.386 128.505 102.322 128.152 102.329C127.799 102.327 127.448 102.395 127.121 102.529V102.558Z" fill="#312A20"/>
<path d="M139.427 101.51C139.664 101.699 139.852 101.94 139.977 102.215C140.102 102.491 140.16 102.791 140.146 103.092C140.149 103.399 140.081 103.702 139.946 103.977C139.815 104.228 139.609 104.433 139.356 104.563V104.669C139.734 104.788 140.059 105.029 140.282 105.355C140.526 105.681 140.652 106.079 140.642 106.486C140.64 106.799 140.584 107.111 140.477 107.406C140.353 107.693 140.165 107.947 139.928 108.15C139.66 108.376 139.349 108.548 139.014 108.654C138.589 108.79 138.145 108.853 137.699 108.842H133.854V100.936H137.393C138.12 100.89 138.842 101.097 139.433 101.522L139.427 101.51ZM137.457 104.047C137.712 104.062 137.963 103.985 138.165 103.831C138.246 103.756 138.311 103.666 138.355 103.565C138.398 103.463 138.42 103.354 138.419 103.245C138.419 102.711 138.071 102.453 137.398 102.453H135.629V104.059L137.457 104.047ZM137.741 107.324C138.525 107.324 138.92 107.019 138.92 106.392C138.927 106.263 138.904 106.135 138.85 106.017C138.797 105.9 138.716 105.797 138.613 105.718C138.355 105.543 138.045 105.459 137.734 105.484H135.647V107.324H137.741Z" fill="#312A20"/>
</svg>
