<svg width="221" height="161" viewBox="0 0 221 161" fill="none" xmlns="http://www.w3.org/2000/svg">
<g clip-path="url(#clip0_874_620)">
<path d="M97.5965 80.4324C97.5965 85.0681 94.2521 88.2908 89.0942 88.2908C83.9364 88.2908 80.5957 85.0681 80.5957 80.4324C80.5957 76.4316 83.0631 72.5483 89.0942 72.5483C95.1253 72.5483 97.5965 76.3692 97.5965 80.4324ZM92.0819 80.5242C92.0819 78.5091 91.8069 75.2571 89.0348 75.2571C86.3221 75.2571 86.1103 78.4467 86.1103 80.5242C86.1103 82.6603 86.4819 85.582 89.0348 85.582C92.0076 85.582 92.0819 81.7574 92.0819 80.5242Z" fill="white"/>
<path d="M161.248 75.4072C159.479 75.2861 159.204 76.2514 159.204 78.2371V83.6253C159.204 84.2566 159.297 85.6991 161.248 85.5816V88.0481H152.077V85.5816C153.964 85.6991 154.087 84.286 154.087 83.6253V76.8534C154.087 76.2514 154.024 75.6495 152.868 75.6495H151.984C151.192 75.6495 150.947 75.9174 150.869 76.791L150.776 77.6939C150.442 81.067 150.319 85.2183 148.491 87.0535C148.078 87.4571 147.587 87.7747 147.048 87.9872C146.509 88.1997 145.931 88.3028 145.351 88.2904C143.188 88.2904 141.728 87.1893 141.728 85.4605C141.728 84.2272 142.471 83.1738 143.827 83.1738C144.894 83.1738 145.351 83.684 145.473 84.0768C145.566 84.3447 145.566 84.8292 146.083 84.8292C146.755 84.8292 147.027 83.8932 147.198 83.3243C147.623 81.4445 147.858 79.5278 147.9 77.6021C147.93 77.0038 147.9 75.3999 146.436 75.3999H145.797V72.9297H161.278L161.248 75.4072Z" fill="white"/>
<path d="M44.2275 72.937V75.4072C45.9964 75.2861 46.2713 76.2514 46.2713 78.2371V82.7517C46.2713 84.7374 45.9964 85.6881 44.2275 85.5816V88.0481H53.4358V85.5816C52.6443 85.611 51.3957 85.3394 51.3957 83.9263V77.1507C51.3957 75.7375 52.1389 75.6458 52.9156 75.6458H55.082C55.8735 75.6458 56.6056 75.7375 56.6056 77.1507V83.9263C56.6056 85.3394 55.357 85.611 54.5618 85.5816V88.0481H61.4884V72.937H44.2275Z" fill="white"/>
<path d="M170.022 78.7473H167.339V77.3635C167.339 75.6788 168.454 75.3448 169.412 75.4072V72.937H162.419V88.0481H170.223C172.203 88.0481 173.879 87.8389 175.053 87.0865C175.669 86.6825 176.171 86.1309 176.512 85.4832C176.853 84.8355 177.023 84.1129 177.004 83.383C177.004 80.5825 175.083 78.7473 170.026 78.7473H170.022ZM168.989 85.354H168.246C167.332 85.354 167.332 84.9026 167.332 84.4511V81.4707H169.041C170.747 81.4707 171.479 82.3737 171.479 83.339C171.479 84.3043 170.806 85.354 168.978 85.354" fill="white"/>
<path d="M139.35 78.2371C139.35 76.2514 139.625 75.3008 141.393 75.4072V72.937H132.189V75.4072H133.701C134.218 75.4072 134.218 75.5283 134.218 75.5577V75.8587L128.796 81.6359V78.2371C128.796 76.9708 128.703 75.3008 130.836 75.4072V72.937H123.88V88.0481H130.847V85.5816H130.636C130.179 85.5816 128.807 85.7615 128.807 85.31V85.0678L134.229 78.9565V82.7517C134.229 84.0143 134.322 85.6881 132.189 85.5816V88.0481H141.393V85.5816C139.413 85.6991 139.35 84.2566 139.35 83.5922V78.2371Z" fill="white"/>
<path d="M69.7858 87.4758C70.8763 88.006 72.0745 88.2846 73.29 88.2906C76.3371 88.2906 80.2687 86.0333 80.2687 80.1643C80.2687 74.5963 76.9763 72.5482 73.7173 72.5482C72.9381 72.5396 72.165 72.6842 71.4428 72.9734C70.7207 73.2626 70.0639 73.6908 69.5108 74.2329V72.5482H67.7754C66.0789 73.3667 64.2078 73.7695 62.3203 73.7227V76.1893H62.5321C63.175 76.1893 64.6688 76.1893 64.6688 78.0869V95.0002H69.7858V87.4758ZM69.7858 76.9123C70.0788 76.5239 70.4547 76.2038 70.8869 75.9748C71.3191 75.7458 71.797 75.6136 72.2867 75.5873C73.9292 75.5873 75.148 76.7912 75.148 80.2818C75.148 84.5578 73.1079 85.2479 71.9782 85.2479C71.5594 85.2291 71.1489 85.126 70.7719 84.9448C70.3949 84.7637 70.0593 84.5083 69.7858 84.1945V76.9123Z" fill="white"/>
<path d="M116.195 88.2904C120.156 88.2904 123.051 85.4605 123.051 80.4321C123.051 75.4036 120.186 72.6067 116.195 72.6067C115.117 72.6208 114.056 72.8715 113.088 73.3408V66.2275H111.405C109.562 67.0396 107.577 67.4908 105.56 67.5562V70.0228C108.12 70.0228 107.968 70.8046 107.968 72.0085V73.3335C107 72.8651 105.939 72.6144 104.861 72.5994C100.866 72.5994 98.0049 75.4293 98.0049 80.4247C98.0049 85.4202 100.9 88.2831 104.861 88.2831C105.939 88.2681 107 88.0174 107.968 87.549V94.9816H113.088V87.5674C114.056 88.0367 115.117 88.2874 116.195 88.3014V88.2904ZM113.088 76.0496C113.71 75.6019 114.452 75.3465 115.221 75.3155C117.168 75.3155 117.93 77.5728 117.93 80.4321C117.93 83.9263 116.897 85.5707 115.221 85.5707C114.452 85.5397 113.71 85.2842 113.088 84.8366V76.0496ZM107.968 84.8586C107.345 85.3057 106.603 85.5611 105.835 85.5927C104.159 85.5927 103.122 83.9373 103.122 80.4541C103.122 77.5948 103.884 75.3375 105.835 75.3375C106.603 75.3692 107.345 75.6245 107.968 76.0716V84.8586Z" fill="white"/>
<path d="M97.3707 80.208C97.3707 84.8438 94.0263 88.0627 88.8685 88.0627C83.7106 88.0627 80.3662 84.8438 80.3662 80.208C80.3662 76.2036 82.8336 72.3203 88.8685 72.3203C94.9033 72.3203 97.3707 76.1449 97.3707 80.208ZM91.8561 80.2961C91.8561 78.2811 91.5812 75.0291 88.809 75.0291C86.0963 75.0291 85.8808 78.2223 85.8808 80.2961C85.8808 82.436 86.2524 85.354 88.809 85.354C91.7818 85.354 91.8561 81.5331 91.8561 80.2961Z" fill="#080905"/>
<path d="M161.018 75.1799C159.253 75.0625 158.978 76.0241 158.978 78.0098V83.398C158.978 84.0293 159.067 85.4755 161.018 85.3543V87.8209H151.847V85.3543C153.734 85.4755 153.857 84.0587 153.857 83.398V76.6261C153.857 76.0241 153.798 75.4222 152.638 75.4222H151.754C150.962 75.4222 150.721 75.6938 150.639 76.5673L150.535 77.4666C150.2 80.836 150.078 84.991 148.249 86.8262C147.837 87.2292 147.347 87.5462 146.808 87.7581C146.27 87.97 145.693 88.0724 145.113 88.0594C142.95 88.0594 141.486 86.9767 141.486 85.2295C141.486 83.9963 142.23 82.9429 143.59 82.9429C144.656 82.9429 145.113 83.4531 145.236 83.8458C145.325 84.1174 145.325 84.5982 145.845 84.5982C146.514 84.5982 146.789 83.6659 146.96 83.0933C147.382 81.2143 147.616 79.299 147.659 77.3748C147.692 76.7729 147.659 75.1726 146.198 75.1726H145.559V72.7061H161.036L161.018 75.1799Z" fill="#080905"/>
<path d="M44 72.7134V75.1799C45.7688 75.0624 46.0401 76.0241 46.0401 78.0098V82.5244C46.0401 84.5101 45.7688 85.4608 44 85.3543V87.8208H53.2009V85.3543C52.4093 85.3837 51.1608 85.1121 51.1608 83.699V76.927C51.1608 75.5139 51.904 75.4222 52.6843 75.4222H54.8471C55.6386 75.4222 56.3706 75.5139 56.3706 76.927V83.7063C56.3706 85.1194 55.122 85.391 54.3305 85.3617V87.8282H61.2572V72.7134H44Z" fill="#080905"/>
<path d="M169.792 78.5237H167.112V77.1362C167.112 75.4515 168.227 75.1212 169.182 75.1799V72.7134H162.192V87.8208H169.996C171.977 87.8208 173.653 87.6116 174.808 86.8592C175.425 86.4562 175.928 85.9048 176.269 85.2569C176.61 84.609 176.779 83.8859 176.759 83.1557C176.759 80.3589 174.842 78.5237 169.781 78.5237H169.792ZM168.744 85.1121H168.001C167.086 85.1121 167.086 84.6606 167.086 84.2091V81.2324H168.792C170.498 81.2324 171.23 82.1354 171.23 83.097C171.23 84.0587 170.557 85.1121 168.729 85.1121" fill="#080905"/>
<path d="M139.119 78.0098C139.119 76.0241 139.394 75.0735 141.163 75.1799V72.7134H131.962V75.1799H133.486C134.002 75.1799 134.002 75.301 134.002 75.3304V75.6314L128.577 81.4123V78.0098C128.577 76.7472 128.488 75.0735 130.621 75.1799V72.7134H123.668V87.8208H130.635V85.3543H130.42C129.963 85.3543 128.592 85.5342 128.592 85.0827V84.8441L134.017 78.7329V82.5244C134.017 83.7907 134.106 85.4608 131.977 85.3543V87.8208H141.178V85.3543C139.197 85.4754 139.134 84.0293 139.134 83.3686V78.0098H139.119Z" fill="#080905"/>
<path d="M69.5407 87.2519C70.6317 87.7802 71.8298 88.0575 73.0449 88.063C76.092 88.063 80.0198 85.8057 80.0198 79.9367C80.0198 74.3687 76.7312 72.3206 73.4685 72.3206C72.6897 72.313 71.917 72.4583 71.1955 72.7482C70.474 73.038 69.8181 73.4666 69.2657 74.009V72.3279H67.5266C65.8314 73.1464 63.9615 73.5493 62.0752 73.5025V75.9727H62.287C62.9262 75.9727 64.42 75.9727 64.42 77.8666V94.7799H69.5407V87.2519ZM69.5407 76.6847C69.8336 76.2974 70.2091 75.9783 70.6406 75.75C71.0721 75.5217 71.5491 75.3897 72.0378 75.3634C73.684 75.3634 74.9029 76.5673 74.9029 80.0578C74.9029 84.3302 72.8591 85.0239 71.7331 85.0239C71.3144 85.0047 70.904 84.9014 70.527 84.7203C70.1501 84.5392 69.8145 84.284 69.5407 83.9705V76.6847Z" fill="#080905"/>
<path d="M115.965 88.0629C119.927 88.0629 122.821 85.233 122.821 80.2082C122.821 75.1834 119.96 72.3829 115.965 72.3829C114.887 72.396 113.826 72.6468 112.859 73.1169V66H111.183C109.339 66.8144 107.352 67.2646 105.334 67.325V69.7952C107.89 69.7952 107.738 70.577 107.738 71.7809V73.1059C106.771 72.635 105.709 72.3841 104.631 72.3718C100.64 72.3718 97.7754 75.1981 97.7754 80.1972C97.7754 85.1963 100.67 88.0519 104.631 88.0519C105.709 88.0379 106.77 87.7871 107.738 87.3178V94.7504H112.859V87.3398C113.827 87.8082 114.888 88.0589 115.965 88.0739V88.0629ZM112.859 75.8257C113.481 75.3787 114.223 75.1233 114.992 75.0916C116.943 75.0916 117.704 77.3489 117.704 80.2082C117.704 83.6988 116.668 85.3468 114.992 85.3468C114.223 85.3152 113.481 85.0598 112.859 84.6127V75.8257ZM107.738 84.6347C107.117 85.0817 106.376 85.3371 105.609 85.3688C103.929 85.3688 102.896 83.7134 102.896 80.2302C102.896 77.371 103.639 75.1137 105.609 75.1137C106.376 75.1453 107.117 75.4008 107.738 75.8477V84.6347Z" fill="#080905"/>
<path d="M45.4645 67.4571L46.2077 69.6924H46.427V70.4925H46.0331V69.9897H44.3869V70.4925H43.9893V69.6777H44.2085L45.0372 67.4424L45.4645 67.4571ZM45.7841 69.6924L45.2193 67.9232L44.569 69.6813L45.7841 69.6924Z" fill="#1D1D1B"/>
<path d="M47.8983 70.0558C47.1142 70.0558 46.7129 69.4429 46.7129 68.7308C46.7129 68.0188 47.1328 67.3911 47.9057 67.3911C48.6787 67.3911 49.054 68.0518 49.0205 68.7602H47.1625C47.1502 68.9581 47.1872 69.156 47.2703 69.3364C47.3341 69.4548 47.4294 69.5536 47.546 69.6222C47.6626 69.6908 47.796 69.7265 47.9317 69.7255C48.0853 69.7284 48.2357 69.6821 48.3603 69.5934C48.485 69.5047 48.5771 69.3785 48.6229 69.2337L48.9945 69.3071C48.9144 69.5322 48.7623 69.7256 48.5612 69.858C48.3602 69.9904 48.121 70.0547 47.8797 70.0412L47.8983 70.0558ZM47.8797 67.6774C47.7792 67.6803 47.6802 67.7027 47.5884 67.7433C47.4966 67.784 47.4139 67.8421 47.3449 67.9143C47.2758 67.9866 47.2219 68.0716 47.1862 68.1645C47.1504 68.2573 47.1335 68.3562 47.1365 68.4555H48.6043C48.617 68.3584 48.6086 68.2598 48.5797 68.1661C48.5507 68.0725 48.502 67.986 48.4366 67.9124C48.3712 67.8388 48.2907 67.7797 48.2005 67.7392C48.1102 67.6987 48.0123 67.6776 47.9132 67.6774" fill="#1D1D1B"/>
<path d="M50.6034 67.4536L51.473 70.0046H51.0308L50.3582 67.9308L49.6038 70.0046H49.2471L50.1872 67.4536H50.6034Z" fill="#1D1D1B"/>
<path d="M52.8897 67.3911C53.6329 67.3911 54.0231 68.0445 54.0231 68.7161C54.0231 69.3878 53.6069 70.0558 52.8228 70.0558C52.0387 70.0558 51.708 69.3842 51.708 68.7088C51.708 68.0334 52.1131 67.3911 52.8897 67.3911ZM53.5809 68.7088C53.5946 68.4657 53.5379 68.2238 53.4174 68.0114C53.3568 67.9198 53.2742 67.8443 53.1769 67.7918C53.0797 67.7393 52.9708 67.7114 52.86 67.7104C52.7377 67.7116 52.6182 67.7467 52.5151 67.8116C52.412 67.8764 52.3293 67.9686 52.2766 68.0775C52.1864 68.277 52.1432 68.4941 52.1502 68.7125C52.1411 68.9531 52.1908 69.1923 52.2951 69.4098C52.3553 69.5114 52.4422 69.595 52.5467 69.6515C52.6511 69.7081 52.7692 69.7356 52.8882 69.7311C53.0072 69.7266 53.1228 69.6902 53.2225 69.6259C53.3223 69.5615 53.4025 69.4716 53.4545 69.3658C53.5501 69.1615 53.5935 68.9372 53.5809 68.7125" fill="#1D1D1B"/>
<path d="M54.5947 67.457H55.7096C56.2967 67.457 56.6423 67.6626 56.6423 68.114C56.6446 68.2395 56.6006 68.3616 56.5186 68.4575C56.4366 68.5534 56.322 68.6166 56.1963 68.6352C56.3545 68.6456 56.502 68.7175 56.6065 68.8352C56.711 68.9529 56.7639 69.1067 56.7538 69.2629C56.7532 69.3726 56.7234 69.4803 56.6673 69.575C56.6112 69.6698 56.5308 69.7482 56.4342 69.8024C56.2137 69.9435 55.9531 70.0104 55.691 69.9933H54.5762L54.5947 67.457ZM56.018 68.4554C56.0784 68.4235 56.1294 68.3766 56.1659 68.3193C56.2024 68.262 56.2232 68.1963 56.2261 68.1287C56.2261 67.8461 56.0403 67.7617 55.6947 67.7617H54.9924V68.5215H55.5869C55.7343 68.5362 55.883 68.5121 56.018 68.4517V68.4554ZM54.9924 69.6886H55.7096C56.0812 69.6886 56.3376 69.4758 56.3376 69.2629C56.3373 69.1923 56.3174 69.1231 56.2801 69.0629C56.2427 69.0027 56.1893 68.9538 56.1257 68.9215C55.9578 68.8432 55.7722 68.809 55.5869 68.8224H54.9924V69.6886Z" fill="#1D1D1B"/>
<path d="M58.3743 67.3911C59.1175 67.3911 59.4891 68.0445 59.4891 68.7161C59.4891 69.3878 59.0729 70.0558 58.2925 70.0558C57.5122 70.0558 57.1777 69.3842 57.1777 68.7088C57.1777 68.0334 57.5828 67.3911 58.3594 67.3911H58.3743ZM59.0506 68.7088C59.0643 68.4657 59.0076 68.2238 58.8871 68.0114C58.8265 67.9198 58.7439 67.8443 58.6466 67.7918C58.5494 67.7393 58.4405 67.7114 58.3297 67.7104C58.2074 67.7116 58.088 67.7467 57.9848 67.8116C57.8817 67.8764 57.7991 67.9686 57.7463 68.0775C57.6561 68.277 57.613 68.4941 57.6199 68.7125C57.6108 68.9531 57.6605 69.1923 57.7649 69.4098C57.825 69.5114 57.9119 69.595 58.0164 69.6515C58.1208 69.7081 58.2389 69.7356 58.3579 69.7311C58.477 69.7266 58.5925 69.6902 58.6923 69.6259C58.792 69.5615 58.8722 69.4716 58.9243 69.3658C59.0198 69.1615 59.0632 68.9372 59.0506 68.7125" fill="#1D1D1B"/>
<path d="M60.0801 70.0044V67.4571H60.4963V69.3914L61.7337 67.4461H62.1276V69.9934H61.7337V68.048H61.7151L60.4814 69.9934L60.0801 70.0044ZM61.102 67.1084C60.9243 67.1346 60.7432 67.0924 60.5959 66.9907C60.4487 66.889 60.3465 66.7354 60.3105 66.5615H60.6821C60.7041 66.649 60.7579 66.7254 60.8333 66.7761C60.9087 66.8269 61.0004 66.8485 61.0908 66.8368C61.1801 66.8466 61.27 66.8241 61.3437 66.7735C61.4175 66.7229 61.4702 66.6476 61.4922 66.5615H61.8638C61.8269 66.7335 61.7257 66.8854 61.5803 66.9868C61.4349 67.0882 61.2561 67.1317 61.0797 67.1084" fill="#1D1D1B"/>
<path d="M65.3719 70.0558C64.5879 70.0558 64.1865 69.4429 64.1865 68.7308C64.1865 68.0188 64.6064 67.3911 65.3794 67.3911C66.1523 67.3911 66.5276 68.0518 66.4942 68.7602H64.6176C64.6052 68.9581 64.6422 69.156 64.7254 69.3364C64.7891 69.4548 64.8845 69.5536 65.0011 69.6222C65.1177 69.6908 65.2511 69.7265 65.3868 69.7255C65.5404 69.7284 65.6908 69.6821 65.8154 69.5934C65.94 69.5047 66.0322 69.3785 66.078 69.2337L66.4496 69.3071C66.3703 69.5291 66.2211 69.7202 66.0238 69.8523C65.8265 69.9845 65.5915 70.0506 65.3534 70.0412L65.3719 70.0558ZM65.3534 67.6774C65.1536 67.6879 64.9659 67.7752 64.8305 67.9206C64.695 68.066 64.6226 68.258 64.6287 68.4555H66.0706C66.0832 68.3584 66.0748 68.2598 66.0459 68.1661C66.017 68.0725 65.9682 67.986 65.9028 67.9124C65.8374 67.8388 65.7569 67.7797 65.6667 67.7392C65.5764 67.6987 65.4785 67.6776 65.3794 67.6774" fill="#1D1D1B"/>
<path d="M68.8455 67.4536V68.764L70.0421 67.4536H70.4694L69.6779 68.3419L70.5883 70.0046H70.0978L69.362 68.6245L68.8455 69.2154V70.0046H68.4479V69.2154L67.9276 68.6245L67.1919 70.0046H66.7051L67.6155 68.3419L66.8203 67.4536H67.2476L68.4479 68.764V67.4536H68.8455Z" fill="#1D1D1B"/>
<path d="M71.9227 70.0558C71.1386 70.0558 70.7373 69.4429 70.7373 68.7308C70.7373 68.0188 71.1609 67.3911 71.9339 67.3911C72.7068 67.3911 73.0821 68.0518 73.0487 68.7602H71.1907C71.177 68.9578 71.2127 69.1557 71.2947 69.3364C71.3585 69.4548 71.4539 69.5536 71.5705 69.6222C71.6871 69.6908 71.8204 69.7265 71.9562 69.7255C72.1097 69.7284 72.2601 69.6821 72.3848 69.5934C72.5094 69.5047 72.6015 69.3785 72.6473 69.2337L73.0189 69.3071C72.9397 69.5291 72.7905 69.7202 72.5932 69.8523C72.3959 69.9845 72.1609 70.0506 71.9227 70.0412V70.0558ZM71.9227 67.6774C71.8222 67.6803 71.7232 67.7027 71.6314 67.7433C71.5396 67.784 71.4569 67.8421 71.3879 67.9143C71.3188 67.9866 71.2649 68.0716 71.2292 68.1645C71.1934 68.2573 71.1765 68.3562 71.1795 68.4555H72.599C72.6111 68.3585 72.6022 68.2601 72.5731 68.1667C72.5439 68.0733 72.4951 67.9871 72.4299 67.9136C72.3646 67.8401 72.2844 67.7811 72.1944 67.7404C72.1044 67.6997 72.0068 67.6782 71.9078 67.6774" fill="#1D1D1B"/>
<path d="M73.6436 70.0046V67.4536H74.0412V68.4923H75.2898V67.4536H75.6874V70.0046H75.2898V68.8043H74.0412V70.0046H73.6436Z" fill="#1D1D1B"/>
<path d="M77.4073 70.0558C76.6232 70.0558 76.2256 69.4429 76.2256 68.7308C76.2256 68.0188 76.6455 67.3911 77.4184 67.3911C78.1914 67.3911 78.5667 68.0518 78.5332 68.7602H76.6752C76.6629 68.9581 76.6999 69.156 76.783 69.3364C76.8465 69.4542 76.9413 69.5527 77.0572 69.6212C77.173 69.6898 77.3056 69.7258 77.4407 69.7255C77.5943 69.7284 77.7447 69.6821 77.8693 69.5934C77.994 69.5047 78.0861 69.3785 78.1319 69.2337L78.5035 69.3071C78.4242 69.5291 78.275 69.7202 78.0777 69.8523C77.8804 69.9845 77.6455 70.0506 77.4073 70.0412V70.0558ZM77.4073 67.6774C77.3067 67.6803 77.2078 67.7027 77.116 67.7433C77.0242 67.784 76.9414 67.8421 76.8724 67.9143C76.8034 67.9866 76.7495 68.0716 76.7137 68.1645C76.678 68.2573 76.6611 68.3562 76.6641 68.4555H78.0836C78.0956 68.3585 78.0868 68.2601 78.0576 68.1667C78.0285 68.0733 77.9797 67.9871 77.9144 67.9136C77.8492 67.8401 77.7689 67.7811 77.679 67.7404C77.589 67.6997 77.4914 67.6782 77.3924 67.6774" fill="#1D1D1B"/>
<path d="M80.3102 67.4571L81.0534 69.6924H81.2727V70.4925H80.8788V69.9897H79.2326V70.4925H78.835V69.6777H79.0765L79.9015 67.4424L80.3102 67.4571ZM80.6298 69.6924L80.065 67.9232L79.4147 69.6813L80.6298 69.6924Z" fill="#1D1D1B"/>
<path d="M82.7403 70.0558C81.9599 70.0558 81.5586 69.4429 81.5586 68.7308C81.5586 68.0188 81.9785 67.3911 82.7514 67.3911C83.5244 67.3911 83.8997 68.0518 83.8662 68.7602H81.9897C81.9773 68.9581 82.0143 69.156 82.0974 69.3364C82.1612 69.4548 82.2566 69.5536 82.3732 69.6222C82.4898 69.6908 82.6232 69.7265 82.7589 69.7255C82.9123 69.7278 83.0624 69.6813 83.1869 69.5927C83.3114 69.5041 83.4037 69.3782 83.45 69.2337L83.8216 69.3071C83.7415 69.5322 83.5894 69.7256 83.3884 69.858C83.1873 69.9904 82.9481 70.0547 82.7068 70.0412L82.7403 70.0558ZM82.7068 67.6774C82.5071 67.6879 82.3194 67.7752 82.184 67.9206C82.0485 68.066 81.9761 68.258 81.9822 68.4555H83.398C83.4101 68.3585 83.4012 68.2601 83.3721 68.1667C83.3429 68.0733 83.2941 67.9871 83.2289 67.9136C83.1636 67.8401 83.0834 67.7811 82.9934 67.7404C82.9034 67.6997 82.8058 67.6782 82.7068 67.6774Z" fill="#1D1D1B"/>
<path d="M85.4491 67.4536L86.3187 70.0046H85.8765L85.2039 67.9308L84.4495 70.0046H84.0928L85.0329 67.4536H85.4491Z" fill="#1D1D1B"/>
<path d="M88.6634 69.2225C88.6754 69.3412 88.6515 69.4607 88.5946 69.5659C88.5377 69.6712 88.4504 69.7573 88.3438 69.8134C88.1234 69.9545 87.8627 70.0214 87.6006 70.0043H86.7051V67.457H87.1027V68.426H87.4929C87.7456 68.4181 87.9976 68.4567 88.2361 68.5398C88.374 68.5927 88.4916 68.6871 88.5723 68.8096C88.653 68.9321 88.6926 69.0765 88.6857 69.2225H88.6634ZM87.1176 69.6923H87.6229C88.0131 69.6923 88.2509 69.5198 88.2509 69.2188C88.2582 69.1435 88.2418 69.0679 88.2039 69.0022C88.1659 68.9365 88.1084 68.884 88.0391 68.8518C87.872 68.7704 87.6863 68.7337 87.5003 68.7453H87.1101L87.1176 69.6923Z" fill="#1D1D1B"/>
<path d="M89.1875 70.0046V67.4536H89.5851V68.4923H90.8337V67.4536H91.2276V70.0046H90.8337V68.8043H89.5851V70.0046H89.1875Z" fill="#1D1D1B"/>
<path d="M91.9297 70.0046V67.4536H92.3236V69.4026H92.3422L93.5759 67.4536H93.9735V70.0046H93.5759V68.0556H93.561L92.3236 70.0046H91.9297Z" fill="#1D1D1B"/>
<path d="M95.0705 67.4536V68.764L96.2707 67.4536H96.6944L95.9029 68.3419L96.8133 70.0046H96.3228L95.587 68.6245L95.0705 69.2154V70.0046H94.6729V67.4536H95.0705Z" fill="#1D1D1B"/>
</g>
<defs>
<clipPath id="clip0_874_620">
<rect width="133" height="29" fill="white" transform="translate(44 66)"/>
</clipPath>
</defs>
</svg>
