<svg width="221" height="161" viewBox="0 0 221 161" fill="none" xmlns="http://www.w3.org/2000/svg">
<g clip-path="url(#clip0)">
<path d="M101.845 56.4284C102.121 59.4903 102.354 62.5582 102.562 65.6379C105.36 65.6439 108.165 65.6499 110.963 65.6439C110.963 61.263 110.963 56.882 110.963 52.4951C107.895 53.7545 104.864 55.0915 101.845 56.4284Z" fill="#2D3F8E"/>
<path d="M115.984 65.8773C115.427 65.8415 114.876 65.8056 114.319 65.7639C114.386 63.072 114.466 60.3862 114.558 57.6943C115.115 57.8256 115.672 57.9629 116.229 58.0942C116.138 60.6906 116.052 63.2809 115.984 65.8773Z" fill="#2D3F8E"/>
<path d="M118.869 73.4329C119.016 70.8246 119.181 68.2223 119.371 65.626C116.573 65.6379 113.768 65.6439 110.969 65.6499C110.969 69.3265 110.969 73.0031 110.969 76.6798C113.621 75.6353 116.254 74.5371 118.869 73.4329Z" fill="#2D3F8E"/>
<path d="M110.969 52.4951C107.902 53.7545 104.864 55.0915 101.852 56.4284C102.372 62.0687 102.764 67.7389 103.07 73.4329C105.685 74.5431 108.312 75.6353 110.969 76.6798C113.627 75.6353 116.254 74.5431 118.869 73.4329C119.175 67.7389 119.567 62.0687 120.087 56.4284C117.069 55.0915 114.037 53.7545 110.969 52.4951Z" stroke="#355C9C" stroke-width="1.53" stroke-miterlimit="10"/>
<path d="M106.542 54.9131C106.095 56.6022 105.654 58.2913 105.201 59.9744C105.17 58.4942 105.134 57.014 105.091 55.5398C105.575 55.3249 106.058 55.116 106.542 54.9131Z" fill="white"/>
<path d="M105.47 65.7758C106.101 64.0509 106.732 62.314 107.357 60.5771C107.363 62.308 107.369 64.0449 107.375 65.7758C106.738 65.7758 106.101 65.7758 105.47 65.7758Z" fill="white"/>
<path d="M94.4788 75.081H29.2817V72.7354H93.8481L94.4788 75.081Z" fill="#2D3F8E"/>
<path d="M193 75.081H127.632L128.042 72.7354H193V75.081Z" fill="#2D3F8E"/>
<path d="M75.1223 104.452C75.704 104.452 76.2 104.667 76.6286 105.097C77.0512 105.526 77.2655 106.058 77.2655 106.702C77.2655 107.365 77.0512 107.914 76.6225 108.344C76.1939 108.779 75.6795 109 75.0733 109C74.4609 109 73.9404 108.785 73.524 108.362C73.1076 107.938 72.8994 107.383 72.8994 106.708C72.8994 106.016 73.1382 105.455 73.622 105.019C74.0384 104.643 74.5344 104.452 75.1223 104.452ZM75.0549 104.685C74.6569 104.685 74.3384 104.828 74.0935 105.115C73.7934 105.473 73.6404 105.998 73.6404 106.69C73.6404 107.401 73.7934 107.944 74.1057 108.326C74.3446 108.618 74.6569 108.761 75.0549 108.761C75.4713 108.761 75.8203 108.6 76.0898 108.284C76.3653 107.968 76.5 107.46 76.5 106.78C76.5 106.04 76.3531 105.485 76.0469 105.115C75.8142 104.834 75.4835 104.685 75.0549 104.685Z" fill="#2D3F8E"/>
<path d="M82.8686 104.452L82.9727 105.926H82.8686C82.7339 105.485 82.538 105.162 82.2869 104.971C82.0358 104.774 81.7297 104.679 81.3806 104.679C81.0867 104.679 80.8173 104.751 80.5784 104.9C80.3396 105.049 80.1498 105.282 80.0151 105.598C79.8742 105.92 79.8069 106.314 79.8069 106.792C79.8069 107.186 79.8681 107.526 80.0028 107.812C80.1314 108.099 80.3274 108.32 80.5907 108.475C80.8479 108.63 81.1479 108.708 81.4786 108.708C81.7664 108.708 82.0236 108.648 82.244 108.529C82.4645 108.409 82.7094 108.171 82.9727 107.806L83.0768 107.872C82.8503 108.26 82.5931 108.541 82.293 108.72C81.993 108.899 81.6378 108.988 81.2275 108.988C80.4866 108.988 79.9171 108.72 79.513 108.188C79.2129 107.789 79.0598 107.323 79.0598 106.786C79.0598 106.35 79.1578 105.95 79.3599 105.592C79.5619 105.228 79.8314 104.948 80.1865 104.751C80.5356 104.548 80.9214 104.452 81.3316 104.452C81.6562 104.452 81.9685 104.53 82.2869 104.685C82.3788 104.733 82.4461 104.757 82.4829 104.757C82.5441 104.757 82.5931 104.739 82.6359 104.697C82.6911 104.637 82.7339 104.56 82.7584 104.458H82.8686" fill="#2D3F8E"/>
<path d="M85.906 106.571H87.9757V105.33C87.9757 105.109 87.9573 104.96 87.9329 104.888C87.9145 104.834 87.8655 104.787 87.7981 104.751C87.7063 104.697 87.6022 104.673 87.4981 104.673H87.3389V104.554H89.2494V104.673H89.0902C88.9861 104.673 88.8881 104.697 88.7901 104.745C88.7228 104.781 88.6738 104.828 88.6493 104.9C88.6248 104.972 88.6126 105.109 88.6126 105.324V108.129C88.6126 108.35 88.6248 108.493 88.6554 108.565C88.6799 108.618 88.7228 108.666 88.7901 108.702C88.8881 108.756 88.9861 108.78 89.0902 108.78H89.2494V108.899H87.3389V108.78H87.4981C87.6818 108.78 87.8104 108.726 87.8961 108.624C87.9512 108.559 87.9818 108.392 87.9818 108.129V106.804H85.9121V108.129C85.9121 108.35 85.9243 108.493 85.955 108.565C85.9795 108.618 86.0223 108.666 86.0958 108.702C86.1877 108.756 86.2918 108.78 86.3959 108.78H86.5551V108.899H84.6445V108.78H84.8037C84.9874 108.78 85.1222 108.726 85.2079 108.624C85.263 108.559 85.2875 108.392 85.2875 108.129V105.324C85.2875 105.103 85.2753 104.954 85.2446 104.882C85.2263 104.828 85.1773 104.781 85.1099 104.745C85.0119 104.691 84.914 104.667 84.8099 104.667H84.6507V104.548H86.5612V104.667H86.402C86.2979 104.667 86.1999 104.691 86.1019 104.739C86.0346 104.775 85.9856 104.822 85.9611 104.894C85.9366 104.966 85.9243 105.103 85.9243 105.318V106.571" fill="#2D3F8E"/>
<path d="M93.0642 104.452C93.6459 104.452 94.1419 104.667 94.5706 105.097C94.9931 105.526 95.2074 106.058 95.2074 106.702C95.2074 107.365 94.9931 107.914 94.5644 108.344C94.1358 108.779 93.6214 109 93.0091 109C92.3967 109 91.8762 108.785 91.4598 108.362C91.0434 107.938 90.8352 107.383 90.8352 106.708C90.8352 106.016 91.074 105.455 91.5578 105.019C91.9803 104.643 92.4763 104.452 93.0642 104.452ZM92.9968 104.685C92.5988 104.685 92.2742 104.828 92.0354 105.115C91.7354 105.473 91.5823 105.998 91.5823 106.69C91.5823 107.401 91.7354 107.944 92.0477 108.326C92.2865 108.618 92.5988 108.761 92.9968 108.761C93.4132 108.761 93.7622 108.6 94.0317 108.284C94.3072 107.968 94.442 107.46 94.442 106.78C94.442 106.04 94.295 105.485 93.9888 105.115C93.7561 104.834 93.4255 104.685 92.9968 104.685Z" fill="#2D3F8E"/>
<path d="M99.7879 106.679C100.094 106.744 100.327 106.846 100.48 106.989C100.694 107.186 100.798 107.425 100.798 107.711C100.798 107.926 100.731 108.135 100.59 108.332C100.449 108.529 100.259 108.672 100.014 108.768C99.7695 108.857 99.396 108.905 98.8939 108.905H96.7874V108.785H96.9527C97.1364 108.785 97.2711 108.726 97.3568 108.612C97.4058 108.535 97.4303 108.38 97.4303 108.135V105.33C97.4303 105.061 97.3997 104.888 97.3323 104.816C97.2466 104.721 97.118 104.673 96.9527 104.673H96.7874V104.554H98.7163C99.0776 104.554 99.3654 104.578 99.5797 104.631C99.9104 104.709 100.161 104.846 100.333 105.037C100.504 105.234 100.596 105.455 100.596 105.712C100.596 105.926 100.529 106.123 100.394 106.297C100.253 106.47 100.051 106.595 99.7879 106.679ZM98.0611 106.505C98.1407 106.517 98.2325 106.529 98.3366 106.541C98.4407 106.547 98.5571 106.553 98.6795 106.553C98.998 106.553 99.2429 106.517 99.4021 106.452C99.5613 106.386 99.6838 106.279 99.7756 106.141C99.8614 106.004 99.9042 105.849 99.9042 105.688C99.9042 105.431 99.8001 105.216 99.5858 105.037C99.3715 104.858 99.0653 104.769 98.655 104.769C98.4346 104.769 98.2386 104.792 98.0611 104.84V106.505V106.505ZM98.0611 108.588C98.3182 108.648 98.5632 108.672 98.8142 108.672C99.2123 108.672 99.5123 108.583 99.7205 108.409C99.9287 108.236 100.033 108.021 100.033 107.765C100.033 107.598 99.9838 107.431 99.892 107.275C99.8001 107.12 99.647 106.995 99.4327 106.905C99.2184 106.816 98.9551 106.768 98.6428 106.768C98.5081 106.768 98.3917 106.768 98.2937 106.774C98.1958 106.78 98.1162 106.786 98.0611 106.798V108.588V108.588Z" fill="#2D3F8E"/>
<path d="M105.036 107.443H103.309L103.009 108.129C102.935 108.296 102.899 108.421 102.899 108.505C102.899 108.571 102.929 108.63 102.997 108.678C103.064 108.726 103.199 108.762 103.419 108.774V108.893H102.017V108.774C102.207 108.744 102.323 108.702 102.378 108.648C102.488 108.547 102.611 108.338 102.752 108.021L104.319 104.446H104.436L105.991 108.063C106.113 108.356 106.23 108.541 106.334 108.63C106.438 108.72 106.579 108.768 106.763 108.774V108.893H105.005V108.774C105.183 108.768 105.305 108.738 105.366 108.684C105.428 108.636 105.458 108.577 105.458 108.505C105.458 108.409 105.415 108.26 105.324 108.057L105.036 107.443ZM104.944 107.21L104.185 105.455L103.407 107.21H104.944Z" fill="#2D3F8E"/>
<path d="M126.192 106.679C126.505 106.744 126.731 106.846 126.884 106.989C127.099 107.186 127.203 107.425 127.203 107.711C127.203 107.926 127.129 108.135 126.995 108.332C126.854 108.529 126.664 108.672 126.419 108.768C126.174 108.857 125.801 108.905 125.298 108.905H123.192V108.785H123.357C123.541 108.785 123.676 108.726 123.761 108.612C123.81 108.535 123.835 108.38 123.835 108.135V105.33C123.835 105.061 123.804 104.888 123.737 104.816C123.651 104.721 123.523 104.673 123.357 104.673H123.192V104.554H125.121C125.482 104.554 125.77 104.578 125.984 104.631C126.315 104.709 126.566 104.846 126.737 105.037C126.909 105.234 126.995 105.455 126.995 105.712C126.995 105.926 126.927 106.123 126.793 106.297C126.658 106.47 126.456 106.595 126.192 106.679ZM124.472 106.505C124.551 106.517 124.643 106.529 124.747 106.541C124.851 106.547 124.968 106.553 125.09 106.553C125.409 106.553 125.654 106.517 125.813 106.452C125.972 106.386 126.094 106.279 126.18 106.141C126.266 106.004 126.309 105.849 126.309 105.688C126.309 105.431 126.205 105.216 125.99 105.037C125.776 104.858 125.47 104.769 125.06 104.769C124.839 104.769 124.643 104.792 124.466 104.84V106.505H124.472ZM124.472 108.588C124.723 108.648 124.974 108.672 125.225 108.672C125.623 108.672 125.923 108.583 126.131 108.409C126.339 108.236 126.443 108.021 126.443 107.765C126.443 107.598 126.394 107.431 126.303 107.275C126.211 107.12 126.058 106.995 125.843 106.905C125.629 106.816 125.366 106.768 125.053 106.768C124.919 106.768 124.802 106.768 124.704 106.774C124.606 106.78 124.533 106.786 124.472 106.798V108.588Z" fill="#2D3F8E"/>
<path d="M132.475 104.977L133.559 104.464H133.669V108.135C133.669 108.379 133.681 108.528 133.7 108.588C133.718 108.648 133.761 108.696 133.828 108.725C133.896 108.755 134.024 108.773 134.226 108.779V108.899H132.549V108.779C132.757 108.773 132.898 108.755 132.959 108.725C133.02 108.696 133.063 108.654 133.087 108.6C133.112 108.546 133.124 108.391 133.124 108.129V105.783C133.124 105.467 133.112 105.264 133.094 105.174C133.075 105.103 133.051 105.055 133.008 105.025C132.965 104.995 132.916 104.977 132.861 104.977C132.781 104.977 132.665 105.013 132.524 105.079L132.475 104.977Z" fill="#2D3F8E"/>
<path d="M136.621 108.988V108.869C136.908 108.863 137.172 108.797 137.417 108.678C137.662 108.552 137.9 108.337 138.127 108.021C138.354 107.711 138.513 107.365 138.605 106.995C138.262 107.209 137.949 107.317 137.668 107.317C137.356 107.317 137.086 107.197 136.859 106.959C136.639 106.726 136.523 106.41 136.523 106.022C136.523 105.64 136.633 105.299 136.859 105.007C137.129 104.649 137.484 104.464 137.919 104.464C138.286 104.464 138.599 104.613 138.862 104.906C139.18 105.27 139.34 105.723 139.34 106.26C139.34 106.744 139.217 107.192 138.972 107.609C138.727 108.027 138.39 108.373 137.956 108.648C137.6 108.875 137.215 108.988 136.804 108.988H136.621V108.988ZM138.66 106.756C138.697 106.481 138.721 106.254 138.721 106.087C138.721 105.878 138.684 105.658 138.611 105.419C138.537 105.18 138.433 104.995 138.305 104.864C138.17 104.738 138.023 104.673 137.852 104.673C137.656 104.673 137.484 104.756 137.337 104.929C137.19 105.103 137.117 105.353 137.117 105.693C137.117 106.147 137.215 106.499 137.411 106.75C137.551 106.935 137.729 107.024 137.937 107.024C138.041 107.024 138.158 107.001 138.299 106.953C138.433 106.905 138.556 106.839 138.66 106.756Z" fill="#2D3F8E"/>
<path d="M141.189 105.377C141.318 105.085 141.477 104.858 141.673 104.697C141.869 104.536 142.107 104.458 142.401 104.458C142.757 104.458 143.032 104.571 143.222 104.798C143.369 104.965 143.442 105.15 143.442 105.341C143.442 105.658 143.24 105.986 142.83 106.32C143.106 106.422 143.314 106.577 143.448 106.768C143.589 106.965 143.657 107.192 143.657 107.454C143.657 107.83 143.534 108.159 143.289 108.433C142.971 108.791 142.505 108.97 141.899 108.97C141.599 108.97 141.397 108.934 141.287 108.863C141.177 108.791 141.128 108.714 141.128 108.63C141.128 108.564 141.152 108.511 141.207 108.463C141.256 108.415 141.318 108.391 141.391 108.391C141.446 108.391 141.501 108.397 141.562 108.415C141.599 108.427 141.685 108.463 141.814 108.535C141.942 108.6 142.034 108.642 142.083 108.654C142.163 108.678 142.254 108.69 142.346 108.69C142.567 108.69 142.763 108.606 142.928 108.439C143.093 108.272 143.173 108.069 143.173 107.842C143.173 107.675 143.136 107.508 143.057 107.347C142.995 107.227 142.934 107.138 142.867 107.072C142.775 106.989 142.646 106.911 142.481 106.839C142.316 106.768 142.15 106.738 141.979 106.738H141.875V106.643C142.046 106.619 142.224 106.559 142.395 106.457C142.573 106.356 142.695 106.237 142.775 106.093C142.855 105.95 142.891 105.795 142.891 105.628C142.891 105.407 142.818 105.228 142.677 105.097C142.536 104.959 142.359 104.894 142.15 104.894C141.814 104.894 141.526 105.073 141.299 105.425L141.189 105.377Z" fill="#2D3F8E"/>
<path d="M145.671 106.75C145.671 106.254 145.745 105.825 145.904 105.473C146.057 105.114 146.259 104.846 146.516 104.673C146.712 104.535 146.921 104.464 147.129 104.464C147.472 104.464 147.778 104.631 148.047 104.971C148.39 105.395 148.556 105.962 148.556 106.684C148.556 107.186 148.482 107.615 148.335 107.967C148.188 108.32 147.992 108.576 147.766 108.737C147.533 108.899 147.312 108.976 147.098 108.976C146.67 108.976 146.32 108.731 146.033 108.242C145.788 107.83 145.671 107.335 145.671 106.75ZM146.314 106.833C146.314 107.43 146.388 107.92 146.541 108.296C146.663 108.612 146.853 108.773 147.098 108.773C147.221 108.773 147.343 108.719 147.466 108.618C147.594 108.517 147.686 108.343 147.753 108.099C147.851 107.729 147.906 107.209 147.906 106.547C147.906 106.052 147.857 105.634 147.747 105.305C147.668 105.061 147.57 104.888 147.441 104.78C147.349 104.709 147.245 104.673 147.117 104.673C146.97 104.673 146.835 104.738 146.719 104.87C146.559 105.049 146.455 105.329 146.394 105.705C146.345 106.087 146.314 106.463 146.314 106.833Z" fill="#2D3F8E"/>
<path d="M65.9433 84.2725C69.0785 84.2725 71.4238 86.5704 71.4238 89.7158C71.4238 92.8254 69.0357 95.1711 65.8392 95.1711C62.7223 95.1711 60.3586 92.8433 60.3586 89.7158C60.3586 86.6301 62.7529 84.2725 65.9433 84.2725ZM65.8392 84.8216C64.045 84.8216 63.1203 86.4271 63.1203 89.7098C63.1203 92.909 64.192 94.616 65.9249 94.616C67.7069 94.616 68.656 92.9985 68.656 89.7098C68.6621 86.4987 67.5599 84.8216 65.8392 84.8216Z" fill="#2D3F8E"/>
<path d="M85.0729 87.6507H84.6872C84.0075 85.8422 82.4643 84.8216 80.8355 84.8216C78.9188 84.8216 77.988 86.445 77.988 89.7397C77.988 92.8374 79.0719 94.3832 81.1355 94.3832C82.397 94.3832 83.7013 93.7148 84.6688 92.4852L85.0974 92.8911C84.032 94.3832 82.4582 95.1651 80.6273 95.1651C77.541 95.1651 75.2202 92.9687 75.2202 89.6979C75.2202 86.5584 77.4614 84.2725 80.6824 84.2725C82.7889 84.2725 84.8403 84.7738 84.8403 84.7738L85.0729 87.6507Z" fill="#2D3F8E"/>
<path d="M161.666 94.8365C161.445 94.6873 160.705 94.3113 160.337 94.0785C160.276 93.8696 160.245 93.6249 160.245 93.3563V86.0687C160.245 85.8001 160.276 85.5613 160.337 85.3524C160.705 85.1196 161.445 84.7496 161.672 84.5944C161.697 84.5765 161.69 84.5467 161.672 84.5288V84.5049H156.296V84.5347C156.302 84.5347 156.302 84.5347 156.308 84.5347C156.296 84.5526 156.296 84.5765 156.32 84.5944C156.541 84.7436 157.257 85.1017 157.631 85.3405C157.698 85.5554 157.722 85.7941 157.722 86.0687V89.1962H153.307V86.0687C153.307 85.8001 153.338 85.5613 153.399 85.3524C153.767 85.1196 154.508 84.7496 154.728 84.6004C154.752 84.5825 154.752 84.5586 154.734 84.5407V84.5109H149.358V84.5467C149.358 84.5467 149.358 84.5467 149.358 84.5526C149.352 84.5705 149.352 84.5884 149.376 84.6004C149.596 84.7496 150.319 85.1137 150.693 85.3465C150.76 85.5613 150.784 85.8001 150.784 86.0746V93.3682C150.784 93.6428 150.754 93.8875 150.693 94.1024C150.319 94.3351 149.596 94.6992 149.376 94.8484C149.352 94.8663 149.352 94.8902 149.364 94.9081H149.358V94.932H149.407C149.413 94.932 149.413 94.938 149.413 94.938L150.974 94.932H153.13L154.691 94.938L154.697 94.932H154.734V94.9081C154.752 94.8902 154.752 94.8663 154.728 94.8425C154.508 94.6933 153.773 94.3232 153.399 94.0904C153.332 93.8756 153.307 93.6368 153.307 93.3682V89.8826H157.722V93.3682C157.722 93.6428 157.692 93.8875 157.624 94.1024C157.251 94.3351 156.534 94.6933 156.314 94.8425C156.289 94.8604 156.289 94.8842 156.302 94.9022C156.296 94.9022 156.296 94.9022 156.289 94.9022V94.926H156.338L156.345 94.932L157.906 94.926H160.062L161.623 94.932C161.629 94.932 161.629 94.926 161.629 94.926H161.66V94.9081C161.684 94.8783 161.69 94.8544 161.666 94.8365Z" fill="#2D3F8E"/>
<path d="M52.6368 90.2169C55.2026 90.2169 56.5559 89.059 56.5559 87.3222C56.5559 85.0481 54.5351 84.499 52.1898 84.499H47.2114C47.1563 84.499 47.1318 84.5587 47.1747 84.5886C47.4318 84.7616 48.3749 85.2332 48.6443 85.4361C48.6872 85.6211 48.7055 85.83 48.7055 86.0568V93.3504C48.7055 93.5832 48.6872 93.7921 48.6443 93.9771C48.3749 94.186 47.4318 94.6516 47.1808 94.8247C47.1379 94.8545 47.1624 94.9142 47.2175 94.9142L48.779 94.9082H51.1121L52.6736 94.9142C52.7287 94.9142 52.7532 94.8545 52.7103 94.8247C52.4776 94.6635 51.6571 94.2577 51.3142 94.0308C51.259 93.8279 51.2346 93.6011 51.2346 93.3504V90.211H52.6368V90.2169ZM51.2284 86.0628C51.2284 85.1675 51.406 85.0481 52.0306 85.0481C53.3227 85.0481 53.7942 85.7584 53.7942 87.3759C53.7942 89.0232 53.2124 89.6618 51.6877 89.6618H51.2284V86.0628Z" fill="#2D3F8E"/>
<path d="M42.2207 85.3703C42.5759 85.1376 43.3597 84.7496 43.5863 84.5944C43.623 84.5705 43.6046 84.5228 43.5618 84.5109V84.5049H31.921V84.5168C31.8842 84.5288 31.8597 84.5705 31.9026 84.5944C32.1292 84.7496 32.9007 85.1376 33.262 85.3703C33.3233 85.5733 33.3477 85.806 33.3477 86.0687V93.3623C33.3477 93.6547 33.3171 93.9054 33.2375 94.1203C32.8517 94.353 32.1782 94.6933 31.9638 94.8425C31.9577 94.8484 31.9638 94.8544 31.9577 94.8544C31.9455 94.8544 31.9332 94.8604 31.9148 94.8604V94.926H32.0006C32.0067 94.926 32.0067 94.932 32.0067 94.932L33.5682 94.926H35.6931L37.2545 94.932C37.2545 94.932 37.2545 94.926 37.2607 94.926H37.2974V94.9022C37.3097 94.8902 37.3035 94.8783 37.2974 94.8604V94.8544C37.2913 94.8484 37.2974 94.8425 37.2913 94.8365C37.0708 94.6873 36.3421 94.3172 35.9686 94.0845C35.9013 93.8756 35.8706 93.6368 35.8706 93.3563V85.1853H39.6121V93.3623C39.6121 93.6428 39.5815 93.8875 39.5141 94.0964C39.1406 94.3292 38.4241 94.6873 38.2037 94.8365C38.1976 94.8425 38.2037 94.8484 38.1976 94.8544C38.1914 94.8544 38.1914 94.8544 38.1914 94.8544L38.1853 94.9201H38.2343C38.2404 94.9201 38.2404 94.926 38.2404 94.926L39.8019 94.9201H41.9635L43.525 94.926C43.5312 94.926 43.5312 94.9201 43.5312 94.9201H43.5618V94.9022C43.5863 94.8843 43.5924 94.8544 43.5618 94.8365C43.3413 94.6873 42.5943 94.3113 42.2268 94.0785C42.1595 93.8696 42.135 93.6309 42.135 93.3623V86.0687C42.135 85.806 42.1656 85.5733 42.2207 85.3703Z" fill="#2D3F8E"/>
<path d="M177.305 94.8306C177.091 94.6814 176.387 94.3293 176.007 94.0965C175.97 94.001 175.94 93.8995 175.928 93.804C175.903 93.6787 175.897 93.5295 175.897 93.3624V86.0628C175.897 85.7942 175.928 85.5555 175.989 85.3406C176.362 85.1078 177.091 84.7378 177.311 84.5886C177.354 84.5587 177.33 84.511 177.281 84.505C177.299 84.505 177.311 84.499 177.324 84.499H171.947C171.959 84.499 171.972 84.505 171.99 84.505C171.941 84.511 171.917 84.5647 171.959 84.5886C172.18 84.7378 172.903 85.1018 173.276 85.3346C173.337 85.4719 173.374 85.6151 173.374 85.7584L169.332 92.3V86.0628C169.332 85.7942 169.363 85.5555 169.424 85.3525C169.792 85.1198 170.545 84.7437 170.765 84.5886C170.796 84.5647 170.784 84.5348 170.753 84.5169V84.499H165.377V84.5886C165.389 84.5886 165.401 84.5886 165.413 84.5886C165.634 84.7378 166.32 85.0839 166.699 85.3167C166.773 85.5256 166.803 85.7763 166.803 86.0568V93.3504C166.803 93.625 166.773 93.8697 166.712 94.0905C166.332 94.3233 165.628 94.6814 165.413 94.8247C165.371 94.8485 165.395 94.9023 165.444 94.9082C165.42 94.9082 165.407 94.9142 165.383 94.9142H170.759C170.753 94.9142 170.741 94.9142 170.735 94.9142C170.784 94.9082 170.808 94.8545 170.772 94.8247C170.545 94.6695 169.804 94.2994 169.437 94.0667C169.375 93.9174 169.339 93.7623 169.339 93.5951L173.38 87.0536V93.3504C173.38 93.619 173.35 93.8578 173.288 94.0726C172.915 94.3054 172.186 94.6755 171.959 94.8247C171.917 94.8545 171.941 94.9023 171.99 94.9082C171.978 94.9082 171.966 94.9142 171.947 94.9142H177.324C177.311 94.9142 177.293 94.9082 177.281 94.9082C177.324 94.9142 177.348 94.8605 177.305 94.8306Z" fill="#2D3F8E"/>
<path d="M190.63 92.2882C190.202 92.724 189.087 93.858 188.707 94.1385C188.236 94.4787 187.703 94.5205 185.37 94.5205C185.327 94.5205 185.284 94.4847 185.284 94.4369V90.1216C185.284 90.0262 185.364 89.9486 185.462 89.9486H186.797C186.797 89.9486 187.403 89.9127 187.856 90.3544C188.175 90.6648 188.499 91.1303 188.689 91.4228C188.689 91.4228 188.689 91.4228 188.689 91.4168L188.536 91.19L188.689 91.4228L188.701 91.4347C188.714 91.4526 188.738 91.4586 188.756 91.4586L188.763 91.4646L188.769 91.4586C188.812 91.4586 188.848 91.4347 188.854 91.387V88.349C188.854 88.3012 188.854 88.2535 188.861 88.2177C188.861 88.2117 188.861 88.2117 188.854 88.2057C188.848 88.1341 188.756 88.1043 188.701 88.158L188.689 88.1699L187.758 89.2025C187.758 89.2025 187.532 89.4233 186.828 89.4233H185.487C185.389 89.4233 185.309 89.3457 185.309 89.2502L185.291 85.0961C185.291 85.0543 185.333 85.0125 185.376 85.0125C187.703 85.0125 187.948 84.9767 188.42 85.3169C188.805 85.5915 189.92 86.7315 190.349 87.1672C190.404 87.2269 190.508 87.1791 190.502 87.0956L190.336 84.5768C190.33 84.5231 190.287 84.4873 190.238 84.4873H181.457C181.402 84.4873 181.378 84.547 181.421 84.5768C181.58 84.6843 182.014 84.9111 182.376 85.114L182.768 85.3408C182.768 85.3408 182.774 85.3408 182.774 85.3468C182.804 85.3647 182.829 85.3945 182.829 85.4363C182.835 86.1287 182.896 92.9508 182.841 94.0609C182.523 94.2818 181.665 94.7115 181.421 94.8726C181.378 94.9025 181.402 94.9622 181.457 94.9622H182.547H190.489C190.569 94.9622 190.63 94.9025 190.636 94.8249L190.796 92.3539C190.783 92.2763 190.685 92.2286 190.63 92.2882Z" fill="#2D3F8E"/>
<path d="M145.482 92.2882C145.053 92.724 143.938 93.858 143.559 94.1385C143.087 94.4787 142.555 94.5205 140.221 94.5205C140.179 94.5205 140.136 94.4847 140.136 94.4369V90.1216C140.136 90.0262 140.215 89.9486 140.313 89.9486H141.648C141.648 89.9486 142.254 89.9127 142.708 90.3544C143.026 90.6648 143.344 91.1303 143.534 91.4228C143.534 91.4228 143.534 91.4228 143.534 91.4168L143.381 91.19L143.534 91.4228L143.547 91.4347C143.565 91.4526 143.583 91.4586 143.602 91.4586C143.608 91.4586 143.608 91.4646 143.608 91.4646C143.614 91.4646 143.614 91.4586 143.62 91.4586C143.663 91.4586 143.7 91.4347 143.706 91.387V88.349C143.706 88.3012 143.706 88.2535 143.706 88.2177C143.706 88.2117 143.706 88.2117 143.706 88.2057C143.7 88.1341 143.602 88.1043 143.553 88.158L143.54 88.1699L142.61 89.2025C142.61 89.2025 142.383 89.4233 141.679 89.4233H140.344C140.246 89.4233 140.166 89.3457 140.166 89.2502L140.148 85.0961C140.148 85.0543 140.191 85.0125 140.234 85.0125C142.561 85.0125 142.806 84.9767 143.277 85.3169C143.663 85.5915 144.777 86.7315 145.206 87.1672C145.261 87.2269 145.365 87.1791 145.359 87.0956L145.194 84.5768C145.188 84.5231 145.145 84.4873 145.096 84.4873H136.315C136.26 84.4873 136.235 84.547 136.278 84.5768C136.437 84.6843 136.866 84.9111 137.233 85.114L137.625 85.3408C137.625 85.3408 137.631 85.3408 137.631 85.3468C137.662 85.3647 137.686 85.3945 137.686 85.4363C137.692 86.1287 137.754 92.9508 137.699 94.0609C137.38 94.2818 136.523 94.7115 136.278 94.8726C136.235 94.9025 136.26 94.9622 136.315 94.9622H137.399H145.341C145.42 94.9622 145.482 94.9025 145.488 94.8249L145.647 92.3539C145.641 92.2763 145.543 92.2286 145.482 92.2882Z" fill="#2D3F8E"/>
<path d="M110.969 92.2882C110.541 92.724 109.426 93.858 109.047 94.1385C108.575 94.4787 108.042 94.5205 105.709 94.5205C105.666 94.5205 105.624 94.4847 105.624 94.4369V90.1216C105.624 90.0262 105.703 89.9486 105.801 89.9486H107.136C107.136 89.9486 107.742 89.9127 108.195 90.3544C108.514 90.6648 108.838 91.1303 109.022 91.4228C109.022 91.4228 109.022 91.4228 109.022 91.4168L108.869 91.19L109.022 91.4228L109.034 91.4347C109.053 91.4526 109.071 91.4586 109.089 91.4586C109.096 91.4586 109.096 91.4646 109.096 91.4646L109.102 91.4586C109.145 91.4586 109.181 91.4347 109.187 91.387V88.349C109.187 88.3012 109.187 88.2535 109.187 88.2177C109.187 88.2117 109.187 88.2117 109.187 88.2057C109.181 88.1341 109.089 88.1043 109.034 88.158L109.022 88.1699L108.091 89.2025C108.091 89.2025 107.865 89.4233 107.161 89.4233H105.826C105.728 89.4233 105.648 89.3457 105.648 89.2502L105.63 85.0961C105.63 85.0543 105.673 85.0125 105.715 85.0125C108.042 85.0125 108.287 84.9767 108.759 85.3169C109.145 85.5915 110.259 86.7315 110.688 87.1672C110.743 87.2269 110.841 87.1791 110.841 87.0956L110.675 84.5768C110.669 84.5231 110.627 84.4873 110.578 84.4873H101.796C101.741 84.4873 101.717 84.547 101.76 84.5768C101.919 84.6843 102.354 84.9111 102.715 85.114L103.107 85.3408C103.107 85.3408 103.113 85.3408 103.113 85.3468C103.144 85.3647 103.168 85.3945 103.168 85.4363C103.174 86.1287 103.235 92.9508 103.18 94.0609C102.862 94.2818 102.005 94.7115 101.76 94.8726C101.717 94.9025 101.741 94.9622 101.796 94.9622H102.88H110.822C110.902 94.9622 110.963 94.9025 110.969 94.8249L111.129 92.3539C111.123 92.2763 111.025 92.2286 110.969 92.2882Z" fill="#2D3F8E"/>
<path d="M132.506 94.3412C132.5 94.2935 132.457 94.2517 132.408 94.2517H132.402V94.2398H131.777C130.975 94.2398 130.902 94.0368 130.902 93.7742V85.7345C130.902 85.5972 130.908 85.4838 130.926 85.3764C131.275 85.1436 132.071 84.7497 132.304 84.5945C132.316 84.5886 132.31 84.5766 132.31 84.5706C132.316 84.5706 132.322 84.5706 132.328 84.5706V84.511H126.952V84.5289C126.927 84.5468 126.915 84.5766 126.946 84.5945C127.185 84.7557 128.03 85.1794 128.354 85.4003C128.366 85.5017 128.373 85.6092 128.373 85.7345V94.2398H125.005V85.7345C125.005 85.6032 125.011 85.4898 125.023 85.3883C125.366 85.1615 126.18 84.7497 126.419 84.5945C126.431 84.5886 126.425 84.5766 126.425 84.5706C126.431 84.5587 126.431 84.5527 126.425 84.5408V84.511H121.049V84.5408C121.043 84.5468 121.049 84.5527 121.049 84.5587V84.5706H121.055C121.061 84.5826 121.055 84.5886 121.067 84.5945C121.3 84.7557 122.114 85.1615 122.457 85.3883C122.469 85.4958 122.476 85.6092 122.476 85.7405V94.2457H119.108V85.7345C119.108 85.6092 119.114 85.5017 119.126 85.4003C119.451 85.1735 120.302 84.7557 120.541 84.5886C120.571 84.5706 120.559 84.5348 120.534 84.5169V84.499H115.158V84.5587C115.164 84.5587 115.17 84.5587 115.176 84.5587C115.176 84.5706 115.176 84.5766 115.182 84.5826C115.415 84.7378 116.205 85.1317 116.554 85.3645C116.566 85.4719 116.579 85.5913 116.579 85.7286V93.3504C116.579 93.6131 116.566 93.8578 116.517 94.0667C116.15 94.2994 115.403 94.6755 115.182 94.8247C115.14 94.8545 115.164 94.9142 115.219 94.9142H116.168H129.481C129.928 94.9142 130.301 94.9858 130.608 95.0992C131.012 95.4275 131.985 96.9674 132.402 97.3971C132.457 97.4568 132.561 97.4091 132.555 97.3315L132.506 94.3412Z" fill="#2D3F8E"/>
<path d="M95.079 89.262C96.7997 88.9456 97.6631 88.1757 97.6631 86.9044C97.6631 85.3406 96.2669 84.499 93.5236 84.499H88.6064C88.5513 84.499 88.5268 84.5587 88.5697 84.5886C88.833 84.7676 89.8005 85.2451 90.0516 85.448C90.0944 85.6271 90.1128 85.83 90.1128 86.0628V93.3564C90.1128 93.5772 90.0944 93.7861 90.0516 93.9652C89.8005 94.1681 88.8269 94.6516 88.5697 94.8247C88.5268 94.8545 88.5513 94.9142 88.6064 94.9142H93.94C96.6099 94.9142 98.1836 93.7861 98.1836 91.906C98.1775 90.5094 97.1548 89.6559 95.079 89.262ZM92.6296 86.0688C92.6296 85.3764 92.6724 85.0422 93.4318 85.0422C94.5768 85.0422 95.0361 85.651 95.0361 87.0237C95.0361 88.6472 94.4299 89.1665 92.7643 89.1665H92.6296V86.0688V86.0688ZM93.5481 94.3711C92.85 94.3711 92.6296 94.0547 92.6296 93.3564V89.638H92.9847C94.7544 89.638 95.4219 90.2766 95.4219 91.9836C95.4158 93.6071 94.9749 94.3711 93.5481 94.3711Z" fill="#2D3F8E"/>
<path d="M109.102 106.571H111.172V105.33C111.172 105.109 111.159 104.96 111.129 104.888C111.104 104.834 111.061 104.787 110.988 104.751C110.896 104.697 110.792 104.673 110.688 104.673H110.529V104.554H112.439V104.673H112.28C112.176 104.673 112.078 104.697 111.98 104.745C111.913 104.781 111.864 104.828 111.839 104.9C111.815 104.972 111.802 105.109 111.802 105.324V108.129C111.802 108.35 111.815 108.493 111.845 108.565C111.87 108.618 111.913 108.666 111.98 108.702C112.078 108.756 112.176 108.78 112.28 108.78H112.439V108.899H110.529V108.78H110.688C110.872 108.78 111 108.726 111.086 108.624C111.141 108.559 111.165 108.392 111.165 108.129V106.804H109.096V108.129C109.096 108.35 109.108 108.493 109.139 108.565C109.163 108.618 109.206 108.666 109.279 108.702C109.371 108.756 109.475 108.78 109.579 108.78H109.739V108.899H107.828V108.78H107.987C108.171 108.78 108.306 108.726 108.385 108.624C108.44 108.559 108.465 108.392 108.465 108.129V105.324C108.465 105.103 108.453 104.954 108.422 104.882C108.398 104.828 108.355 104.781 108.287 104.745C108.189 104.691 108.091 104.667 107.987 104.667H107.828V104.548H109.739V104.667H109.579C109.475 104.667 109.371 104.691 109.279 104.739C109.212 104.775 109.163 104.822 109.139 104.894C109.114 104.966 109.102 105.103 109.102 105.318V106.571" fill="#2D3F8E"/>
<path d="M116.254 104.452C116.83 104.452 117.332 104.667 117.76 105.097C118.183 105.526 118.397 106.058 118.397 106.702C118.397 107.365 118.183 107.914 117.754 108.344C117.326 108.779 116.811 109 116.199 109C115.587 109 115.066 108.785 114.65 108.362C114.233 107.938 114.025 107.383 114.025 106.708C114.025 106.016 114.264 105.455 114.748 105.019C115.17 104.643 115.672 104.452 116.254 104.452ZM116.193 104.685C115.795 104.685 115.47 104.828 115.231 105.115C114.931 105.473 114.778 105.998 114.778 106.69C114.778 107.401 114.931 107.944 115.244 108.326C115.483 108.618 115.795 108.761 116.193 108.761C116.609 108.761 116.958 108.6 117.228 108.284C117.503 107.968 117.638 107.46 117.638 106.78C117.638 106.04 117.491 105.485 117.185 105.115C116.952 104.834 116.615 104.685 116.193 104.685Z" fill="#2D3F8E"/>
</g>
<defs>
<clipPath id="clip0">
<rect width="164" height="57" fill="white" transform="translate(29 52)"/>
</clipPath>
</defs>
</svg>
