<svg width="221" height="161" viewBox="0 0 221 161" fill="none" xmlns="http://www.w3.org/2000/svg">
<g clip-path="url(#clip0_680:1521)">
<path d="M90.487 54.5908H88.793V76.5446H90.487V54.5908Z" fill="#912891"/>
<path d="M90.487 85.3535H88.793V107.502H90.487V85.3535Z" fill="#912891"/>
<path d="M97.2594 85.3535H95.5654V88.1871H97.2594V85.3535Z" fill="#912891"/>
<path d="M97.2594 73.7256H95.5654V76.545H97.2594V73.7256Z" fill="#912891"/>
<path d="M100.648 66.835H98.9541V76.542H100.648V66.835Z" fill="#912891"/>
<path d="M100.648 85.3535H98.9541V89.4838H100.648V85.3535Z" fill="#912891"/>
<path d="M73.5407 54.5908H71.8467V68.8152H73.5407V54.5908Z" fill="#912891"/>
<path d="M76.9284 54.5908H75.2344V69.9452H76.9284V54.5908Z" fill="#912891"/>
<path d="M66.694 54.5908H65V66.8376H66.694V54.5908Z" fill="#912891"/>
<path d="M70.153 54.5908H68.459V67.9677H70.153V54.5908Z" fill="#912891"/>
<path d="M87.0954 54.5908H85.4014V76.5446H87.0954V54.5908Z" fill="#912891"/>
<path d="M87.0954 85.3535H85.4014V107.502H87.0954V85.3535Z" fill="#912891"/>
<path d="M83.7077 85.3535H82.0137V107.502H83.7077V85.3535Z" fill="#912891"/>
<path d="M83.7077 54.5908H82.0137V76.5446H83.7077V54.5908Z" fill="#912891"/>
<path d="M80.32 85.3535H78.626V107.502H80.32V85.3535Z" fill="#912891"/>
<path d="M80.32 54.5908H78.626V76.5446H80.32V54.5908Z" fill="#912891"/>
<path d="M93.8747 85.3535H92.1807V107.502H93.8747V85.3535Z" fill="#912891"/>
<path d="M93.8747 54.5908H92.1807V76.5446H93.8747V54.5908Z" fill="#912891"/>
<path d="M107.427 85.3535H105.733V97.5579H107.427V85.3535Z" fill="#912891"/>
<path d="M107.427 56.8906H105.733V75.5447H107.427V56.8906Z" fill="#912891"/>
<path d="M104.039 85.3535H102.345V92.4247H104.039V85.3535Z" fill="#912891"/>
<path d="M104.039 61.2778H102.345V76.5447H104.039V61.2778Z" fill="#912891"/>
<path d="M110.815 85.3535H109.121V102.409H110.815V85.3535Z" fill="#912891"/>
<path d="M110.815 53.7324H109.121V72.751H110.815V53.7324Z" fill="#912891"/>
<path d="M114.205 85.3535H112.511V107.234H114.205V85.3535Z" fill="#912891"/>
<path d="M117.593 85.3535H115.899V110.373H117.593V85.3535Z" fill="#912891"/>
<path d="M120.981 85.3535H119.287V112.587H120.981V85.3535Z" fill="#912891"/>
<path d="M124.369 88.7944H122.675V114H124.369V88.7944Z" fill="#912891"/>
<path d="M127.757 92.374H126.063V114H127.757V92.374Z" fill="#912891"/>
<path d="M131.145 95.2495H129.451V114H131.145V95.2495Z" fill="#912891"/>
<path d="M134.533 95.5493H132.839V112.87H134.533V95.5493Z" fill="#912891"/>
<path d="M137.922 93.854H136.228V111.74H137.922V93.854Z" fill="#912891"/>
<path d="M114.205 50.752H112.511V69.9457H114.205V50.752Z" fill="#912891"/>
<path d="M117.593 49.1104H115.899V68.1911H117.593V49.1104Z" fill="#912891"/>
<path d="M120.981 47.647H119.287V66.2163H120.981V47.647Z" fill="#912891"/>
<path d="M124.369 47H122.675V64.8292H124.369V47Z" fill="#912891"/>
<path d="M127.757 47H126.063V64.3433H127.757V47Z" fill="#912891"/>
<path d="M67.0645 78.2847H68.8658C69.9443 78.2847 70.6558 78.8921 70.6558 79.9797C70.6558 80.9431 69.9527 81.7454 68.479 81.7454H68.1966V81.0985H68.5241C69.3373 81.0985 69.8257 80.7425 69.8257 80.0108C69.8257 79.2791 69.4869 78.9118 68.6964 78.9118H67.8493V83.5139H67.0645V78.2847Z" fill="#912891"/>
<path d="M72.8522 78.2847H73.9137L75.763 83.5224H74.916L74.2893 81.6917H72.3129L71.6042 83.5224H70.7939L72.8522 78.2847ZM74.0831 81.0787L73.3575 78.8186L72.536 81.0787H74.0831Z" fill="#912891"/>
<path d="M76.293 82.8789H76.7673C77.0036 82.4517 77.202 82.0046 77.3602 81.5427C77.6189 80.4723 77.7646 79.3777 77.795 78.2769H80.751V82.8789H81.4625V84.6503H80.7002V83.5202H77.0722V84.6503H76.293V82.8789ZM79.9633 82.8789V78.8984H78.5093C78.4534 79.8183 78.327 80.7326 78.131 81.6331C78.0066 82.0604 77.8479 82.4771 77.6566 82.8789H79.9633Z" fill="#912891"/>
<path d="M82.875 78.2847H83.6684V81.6917L83.6345 82.4573L84.1003 81.6861L86.4268 78.296H87.2258V83.5337H86.4381V80.1153L86.4607 79.3526L86.0964 79.9374L83.6684 83.5224H82.875V78.2847Z" fill="#912891"/>
<path d="M88.7451 80.9012C88.7451 79.2062 89.8349 78.2202 91.4922 78.2202C93.2399 78.2202 94.0925 79.3503 94.0925 80.9154C94.0925 82.568 93.0846 83.6218 91.3511 83.6218C89.6627 83.6133 88.7451 82.5172 88.7451 80.9012ZM93.2851 80.9012C93.2851 79.7373 92.647 78.8559 91.4273 78.8559C90.1511 78.8559 89.5441 79.7373 89.5441 80.8871C89.5441 82.0369 90.1314 82.9607 91.3737 82.9607C92.7006 82.9607 93.2851 82.0652 93.2851 80.9012Z" fill="#912891"/>
<path d="M95.4219 78.2847H96.6811V80.5448L98.4739 78.2847H100.08L97.9629 80.7369L100.199 83.5224H98.5981L96.6811 80.9007V83.5309H95.4219V78.2847Z" fill="#912891"/>
<path d="M101.788 82.5958C102.353 82.4178 102.596 82.3443 102.774 82.0053L102.861 81.833H102.5L100.625 78.2847H102.037L103.296 80.8866L104.199 78.2847H105.631L103.962 81.9149C103.318 83.3275 102.881 83.3755 102.127 83.5902L101.788 82.5958Z" fill="#912891"/>
<path d="M105.495 82.5964C105.873 82.4411 106.399 82.2179 106.591 81.8337C106.828 81.359 106.946 80.0849 107 78.2769H110.413V83.5146H109.154V79.1894H108.042C107.872 81.2121 107.813 82.0484 107.477 82.619C107.141 83.1897 106.565 83.4666 106.012 83.6869L105.495 82.5964Z" fill="#912891"/>
<path d="M111.921 78.2847H113.194V79.9147H113.581C115.142 79.9147 115.987 80.5589 115.987 81.6776C115.987 82.7963 115.14 83.5224 113.581 83.5224H111.921V78.2847ZM113.194 80.9007V82.5506H113.623C114.408 82.5506 114.691 82.1748 114.691 81.703C114.691 81.2312 114.408 80.912 113.623 80.912L113.194 80.9007Z" fill="#912891"/>
<path d="M117.658 79.2706H116.015V78.2847H120.56V79.2706H118.926V83.5083H117.666L117.658 79.2706Z" fill="#912891"/>
<path d="M122.418 82.5958C122.983 82.4178 123.226 82.3443 123.403 82.0053L123.491 81.833H123.13L121.255 78.2847H122.667L123.926 80.8866L124.829 78.2847H126.266L124.598 81.9149C123.954 83.3275 123.516 83.3755 122.763 83.5902L122.418 82.5958Z" fill="#912891"/>
<path d="M127.198 78.2847H129.237C130.414 78.2847 131.258 78.974 131.258 80.1436C131.258 81.1747 130.411 82.042 128.85 82.042H128.466V83.5224H127.198V78.2847ZM128.466 81.0702H128.895C129.68 81.0702 129.962 80.6634 129.962 80.1747C129.962 79.6859 129.748 79.2706 129.073 79.2706H128.466V81.0702Z" fill="#912891"/>
<path d="M133.325 78.2847H134.946L136.713 83.5224H135.409L134.912 81.9884H133.144L132.58 83.5224H131.32L133.325 78.2847ZM134.612 81.0787L134.087 79.0616L133.475 81.0787H134.612Z" fill="#912891"/>
<path d="M132.495 49.5908H133.249L134.41 52.8595L135.711 49.5908H136.431V53.2634H135.867V51.0034L135.886 50.3677L134.754 53.2719H134.029L133.015 50.3564L133.043 51.0118V53.2719H132.479L132.495 49.5908Z" fill="#606060"/>
<path d="M137.238 51.4239C137.238 50.2317 138.003 49.5396 139.167 49.5396C140.395 49.5396 140.993 50.3306 140.993 51.4324C140.993 52.5935 140.288 53.3337 139.068 53.3337C137.848 53.3337 137.238 52.5624 137.238 51.4239ZM140.426 51.4239C140.426 50.6074 139.98 49.9887 139.121 49.9887C138.263 49.9887 137.8 50.6074 137.8 51.4154C137.8 52.2234 138.21 52.8732 139.085 52.8732C140.016 52.876 140.426 52.246 140.426 51.4267V51.4239Z" fill="#606060"/>
<path d="M141.538 51.4552C141.538 50.2573 142.216 49.5426 143.458 49.5426C143.83 49.5257 144.202 49.5923 144.545 49.7375L144.395 50.1698C144.098 50.066 143.784 50.0162 143.469 50.0229C142.73 50.0229 142.111 50.4184 142.111 51.4015C142.111 52.3846 142.755 52.8451 143.574 52.8451C143.86 52.8448 144.145 52.8059 144.421 52.7293L144.551 53.1615C144.204 53.2842 143.837 53.3388 143.469 53.3226C142.227 53.3226 141.538 52.5824 141.538 51.4552Z" fill="#606060"/>
<path d="M145.226 49.5908H145.79V53.2634H145.226V49.5908ZM145.866 51.3452V51.2576L147.278 49.5908H148.007L146.49 51.2859L148.1 53.2634H147.377L145.866 51.3452Z" fill="#606060"/>
<path d="M148.645 49.5908H149.732C150.579 49.5908 150.974 49.9496 150.974 50.5288C150.976 50.6869 150.933 50.8424 150.851 50.9777C150.77 51.113 150.652 51.2227 150.511 51.2944C150.716 51.3391 150.899 51.452 151.031 51.6147C151.164 51.7774 151.237 51.9802 151.239 52.1899C151.239 52.8143 150.869 53.2634 149.887 53.2634H148.645V49.5908ZM149.689 51.1785C150.203 51.1785 150.412 51.0175 150.412 50.6135C150.412 50.2095 150.13 50.0315 149.616 50.0315H149.206V51.1813L149.689 51.1785ZM149.794 52.8171C150.293 52.8171 150.672 52.7041 150.672 52.2153C150.672 51.7266 150.296 51.5938 149.658 51.5938H149.206V52.8171H149.794Z" fill="#606060"/>
<path d="M152.956 49.5908H153.699L155 53.2634H154.413L153.964 51.978H152.569L152.07 53.2634H151.505L152.956 49.5908ZM153.82 51.5684L153.309 49.9807L152.744 51.5684H153.82Z" fill="#606060"/>
<path d="M132.478 58.5349L132.599 58.097C132.752 58.1326 132.908 58.1516 133.065 58.1535C134.053 58.1535 134.194 57.3879 134.194 56.4302C134.194 55.7861 133.985 55.3002 133.421 55.3002C133.328 55.3008 133.237 55.3213 133.153 55.3602C133.069 55.3991 132.995 55.4555 132.935 55.5256C132.875 55.5957 132.83 55.678 132.804 55.7668C132.779 55.8556 132.772 55.9489 132.785 56.0403C132.785 56.6393 133.068 56.8088 133.471 56.8088C133.634 56.8069 133.795 56.7841 133.951 56.741V57.1647C133.769 57.2223 133.578 57.2499 133.387 57.2467C132.658 57.2467 132.232 56.8709 132.232 56.0855C132.221 55.9216 132.245 55.7572 132.303 55.6035C132.361 55.4497 132.452 55.3102 132.568 55.1943C132.684 55.0784 132.824 54.9887 132.978 54.9315C133.132 54.8742 133.296 54.8506 133.46 54.8623C134.251 54.8623 134.753 55.4103 134.753 56.5065C134.753 58.0433 134.146 58.6366 133.059 58.6366C132.861 58.637 132.664 58.6026 132.478 58.5349Z" fill="#606060"/>
<path d="M135.807 58.583V55.3539H135.07V54.9274L136.349 54.8906V58.583H135.807Z" fill="#606060"/>
<path d="M137.277 57.998H137.901V58.5631H137.277V57.998Z" fill="#606060"/>
<path d="M138.667 56.9922C138.667 55.5796 139.333 54.8592 140.313 54.8592C140.519 54.8529 140.724 54.8825 140.92 54.9468L140.807 55.3791C140.645 55.3422 140.479 55.3251 140.313 55.3282C139.432 55.3282 139.215 56.156 139.215 57.0233C139.215 57.8058 139.376 58.19 140 58.19C140.093 58.1872 140.185 58.1649 140.269 58.1245C140.353 58.0842 140.428 58.0267 140.489 57.9557C140.55 57.8847 140.596 57.8018 140.623 57.7123C140.65 57.6227 140.658 57.5286 140.646 57.4357C140.66 57.3402 140.652 57.2427 140.623 57.1506C140.594 57.0585 140.545 56.9742 140.478 56.904C140.412 56.8338 140.331 56.7796 140.241 56.7455C140.15 56.7113 140.053 56.6981 139.957 56.7069C139.8 56.707 139.643 56.7279 139.491 56.769V56.3424C139.661 56.2862 139.838 56.2594 140.017 56.2633C140.785 56.2633 141.185 56.6871 141.185 57.3934C141.199 57.5591 141.178 57.7259 141.122 57.8825C141.066 58.0391 140.977 58.1818 140.861 58.301C140.745 58.4202 140.605 58.5131 140.45 58.5734C140.295 58.6337 140.129 58.66 139.963 58.6505C139.141 58.6421 138.667 58.2211 138.667 56.9922Z" fill="#606060"/>
<path d="M143.131 54.9102H145.409V55.3565H143.687V56.6052H145.293V57.0431H143.687V58.5828H143.122L143.131 54.9102Z" fill="#606060"/>
<path d="M146.115 54.9102H146.877L148.038 58.1788L149.331 54.9102H150.059V58.5828H149.494V56.3227L149.514 55.6673L148.374 58.5828H147.651L146.637 55.6419L146.671 56.3255V58.5856H146.106L146.115 54.9102Z" fill="#606060"/>
<path d="M130.685 49.585H130.109V61.5492H130.685V49.585Z" fill="#606060"/>
</g>
<defs>
<clipPath id="clip0_680:1521">
<rect width="90" height="67" fill="white" transform="translate(65 47)"/>
</clipPath>
</defs>
</svg>
