<svg width="221" height="161" viewBox="0 0 221 161" fill="none" xmlns="http://www.w3.org/2000/svg">
<g clip-path="url(#clip0_817_469)">
<path d="M50.1329 73.3789C53.5283 73.3789 55.1511 75.4277 55.1511 77.8532C55.1511 80.0513 53.7495 81.866 51.3869 82.3275L55.9625 88.7725H53.8971L49.4712 82.4791H47.6966V88.7725H46V73.3789H50.1329ZM47.6966 80.8026H50.0592C52.0508 80.8026 53.3764 79.6723 53.3764 77.929C53.3764 76.1857 51.977 75.1223 50.0592 75.1223H47.6966V80.8026Z" fill="#231F20"/>
<path d="M65.2609 73.3789L71.6827 88.7725H69.8364L68.3612 85.2056H61.0542L59.6527 88.7725H57.8086L64.2239 73.3789H65.2609ZM65.556 78.2322C65.2627 77.5951 65.0161 76.9363 64.8183 76.2614H64.7446C64.597 76.7073 64.3107 77.4742 64.0069 78.2322L61.8656 83.4645H67.8448L65.556 78.2322Z" fill="#231F20"/>
<path d="M86.2209 73.3789H87.2536V88.7725H85.5571V79.3692C85.5571 78.4596 85.6308 77.3226 85.6308 76.8678H85.4855C85.0884 77.414 84.6432 77.9215 84.1555 78.3838L80.6843 82.1737L77.2131 78.3838C76.7438 77.9031 76.2999 77.3971 75.8832 76.8678H75.7356C75.7356 77.3137 75.8094 78.3838 75.8094 79.3692V88.7725H74.0391V73.3789H75.0718L80.6821 79.6723L86.2209 73.3789Z" fill="#231F20"/>
<path d="M95.5193 73.3789C98.7736 73.3789 100.242 75.4277 100.242 77.6258C100.242 78.9144 99.5048 80.281 98.4699 80.8115C99.8736 81.4179 100.759 83.0097 100.759 84.4498C100.759 87.2566 98.5437 88.7725 95.9619 88.7725H91.0176V73.3789H95.5193ZM92.7879 80.1338H95.6669C97.2897 80.1338 98.5437 79.3736 98.5437 77.6303C98.5437 75.9627 97.2159 75.1267 95.6669 75.1267H92.8617L92.7879 80.1338ZM92.7879 87.1094H95.9619C97.6585 87.1094 99.0622 86.2757 99.0622 84.3785C99.0622 82.6351 97.7323 81.8014 95.8079 81.8014H92.7706L92.7879 87.1094Z" fill="#231F20"/>
<path d="M105.925 87.105H112.713V88.7725H104.154V73.3789H105.851C105.925 73.3789 105.925 87.105 105.925 87.105Z" fill="#231F20"/>
<path d="M115.297 73.3789H123.637V75.0465H117.067V79.7481H123.489V81.4937H117.067V87.105H123.637V88.7725H115.297V73.3789Z" fill="#231F20"/>
<path d="M131.237 73.3789C134.632 73.3789 136.253 75.4277 136.253 77.8532C136.253 80.0513 134.849 81.866 132.489 82.3275L137.064 88.7725H134.996L130.573 82.4791H128.876V88.7725H127.18V73.3789H131.237ZM128.876 80.8026H131.237C133.23 80.8026 134.558 79.6634 134.558 77.9201C134.558 76.1767 133.157 75.1223 131.237 75.1223H128.876V80.8026Z" fill="#231F20"/>
<path d="M167.988 86.1954C167.929 86.1068 167.902 85.9991 167.914 85.8922C167.914 85.8164 167.914 85.8164 167.84 85.7406C167.833 85.6831 167.807 85.6299 167.767 85.589C167.759 85.5315 167.733 85.4783 167.693 85.4374C167.619 85.2858 167.476 85.1342 167.398 84.9915C167.324 84.9157 167.029 84.5457 167.25 84.8399L167.033 84.617C166.63 85.4302 166.018 86.1147 165.264 86.596C164.509 87.0774 163.641 87.3375 162.753 87.3479C159.282 87.3479 157.071 84.4654 157.071 81.0545C157.071 77.6436 159.429 74.7432 162.896 74.7432C164.209 74.7407 165.484 75.1958 166.513 76.034V74.0611C165.403 73.4352 164.162 73.0969 162.896 73.0757C158.689 73.0757 155.303 76.5646 155.303 81.0389C155.303 85.5132 158.557 88.9241 162.755 88.9999C164.89 88.9999 166.882 87.9365 167.988 86.1954Z" fill="#231F20"/>
<path d="M170.424 79.2935C173.082 79.2935 175 81.4938 175 84.1467C175 86.7997 173.082 89 170.424 89C167.766 89 165.849 86.8019 165.849 84.2225C165.849 81.3422 167.84 79.2935 170.424 79.2935ZM170.424 87.4841C172.047 87.4841 173.303 86.1197 173.303 84.14C173.303 82.1604 171.899 80.8807 170.424 80.8807C168.875 80.8807 167.545 82.2451 167.545 84.2248C167.545 85.9681 168.728 87.4908 170.424 87.4908V87.4841Z" fill="#231F20"/>
<path d="M151.827 88.7726L149.465 86.1955C148.063 88.0904 146.588 89 144.963 89C143.701 89.0215 142.482 88.5313 141.57 87.6356C141.141 87.2151 140.801 86.7078 140.572 86.1457C140.343 85.5836 140.23 84.9789 140.24 84.3697C140.24 82.3231 141.422 81.1862 143.711 79.7438C142.605 78.6068 142.088 77.5456 142.088 76.4845C142.086 76.017 142.176 75.5539 142.354 75.1235C142.531 74.693 142.792 74.3043 143.121 73.9809C143.783 73.3032 144.668 73 145.703 73C146.738 73 147.547 73.3032 148.211 73.9854C148.568 74.2888 148.854 74.672 149.045 75.1058C149.237 75.5396 149.33 76.0127 149.317 76.4889C149.317 77.7775 148.358 78.9902 146.514 80.1294L149.391 83.3129L150.942 80.8027H153.008L150.647 84.5926L154.335 88.6054L151.827 88.757V88.7726ZM144.815 80.9699C142.824 81.9553 141.791 83.168 141.791 84.684C141.791 85.4442 142.086 86.0506 142.75 86.657C143.022 86.9316 143.345 87.147 143.7 87.2903C144.055 87.4335 144.434 87.5017 144.815 87.4907C145.362 87.4851 145.897 87.3313 146.367 87.0449C146.79 86.8197 147.166 86.5106 147.473 86.1353C147.69 85.8321 148.063 85.4531 148.432 84.9225L144.815 80.9699ZM145.184 78.9969C145.704 78.7375 146.2 78.4309 146.666 78.0807C147.256 77.6348 147.551 77.0953 147.551 76.4131C147.551 75.352 146.74 74.5918 145.56 74.5918C144.379 74.5918 143.629 75.4278 143.629 76.344C143.629 77.0953 144.152 77.9291 145.184 78.9902V78.9969Z" fill="#231F20"/>
</g>
<defs>
<clipPath id="clip0_817_469">
<rect width="129" height="16" fill="white" transform="translate(46 73)"/>
</clipPath>
</defs>
</svg>
