<svg width="221" height="161" viewBox="0 0 221 161" fill="none" xmlns="http://www.w3.org/2000/svg">
<path d="M96.1464 81.3644V85.3961C97.2919 85.3757 98.4815 85.4368 99.6491 85.3757C100.53 85.335 101.367 84.7649 101.61 83.9911C102.072 82.8508 101.081 81.4662 99.7813 81.4051C98.5697 81.344 97.358 81.3848 96.1464 81.3644ZM96.1464 74.258V77.7603C97.2919 77.7399 98.4815 77.801 99.6491 77.7196C100.508 77.6585 101.191 76.9662 101.301 76.172C101.434 75.2761 100.663 74.2784 99.6051 74.258C98.4595 74.258 97.2919 74.2784 96.1464 74.258ZM90.705 70.043H98.6578C99.6711 70.043 100.707 70.0838 101.632 70.3281C103.13 70.6946 104.496 71.5702 105.333 72.7919C106.016 73.8508 106.28 75.1336 106.148 76.3553C105.95 77.5567 105.201 78.697 104.011 79.2671C105.223 79.8169 106.28 80.7332 106.721 81.9345C107.36 83.4617 107.095 85.1721 106.346 86.5975C105.839 87.5748 105.002 88.3893 103.945 88.8984C102.513 89.5703 100.883 89.7536 99.3187 89.7536C96.4328 89.7332 93.5689 89.7332 90.705 89.7536V70.043ZM76.3194 79.2264H79.2494C79.7781 79.2264 80.3289 79.1856 80.8136 78.9413C81.4524 78.6562 81.871 78.025 82.0252 77.3734C82.2895 76.2128 81.3643 74.8892 80.0645 74.7467C78.8308 74.6449 77.5752 74.7467 76.3635 74.706C76.2974 76.1924 76.3415 77.7196 76.3194 79.2264ZM70.856 70.0634H77.5091C79.0952 70.0634 80.6814 69.982 82.2014 70.3688C83.7655 70.7354 85.2636 71.5091 86.1668 72.7716C87.0921 74.0747 87.3344 75.6834 87.2683 77.1902C87.1802 78.6562 86.8057 80.1834 85.7703 81.3644C85.0874 82.1381 84.118 82.6676 83.0826 82.9934C85.0213 85.2332 86.9599 87.5138 88.8985 89.7332C86.6515 89.7129 84.3824 89.7739 82.1574 89.6925C80.5272 87.6359 78.8749 85.5794 77.2667 83.5024C76.9363 83.5024 76.6058 83.4821 76.2974 83.5024C76.2754 85.559 76.2974 87.6563 76.2974 89.7332C74.4689 89.7536 72.6625 89.7332 70.834 89.7332V70.0634H70.856ZM66.2738 65.9706C66.2738 75.4186 66.2958 84.887 66.2738 94.3351C82.8844 94.3554 99.4729 94.3351 116.083 94.3351C115.401 92.9301 114.651 91.5658 113.924 90.1812C112.404 87.3101 110.862 84.4391 109.298 81.5884C108.792 80.7535 108.748 79.6947 109.232 78.8395C111.611 74.5838 113.836 70.2467 116.15 65.9503H66.2738V65.9706ZM62 62H123.067C120.159 67.6199 117.097 73.1788 114.079 78.7377C113.55 79.6132 113.55 80.7535 114.101 81.6495C116.877 86.74 119.63 91.8712 122.384 97.0025C122.604 97.4505 122.825 97.8984 123.045 98.3668H62V62Z" fill="#AC475C"/>
<path d="M141.991 83.1552C141.991 78.7773 141.991 74.4199 141.991 70.042H147.432V83.1552C147.41 83.8882 147.851 84.6213 148.49 85.0285C149.349 85.5783 150.451 85.5783 151.464 85.4358C152.609 85.2525 153.601 84.2548 153.557 83.1348V70.0624H158.998V82.8701C159.042 84.7231 158.403 86.6371 156.905 87.8792C155.451 89.0806 153.601 89.9358 151.618 90.0376C150.032 90.1394 148.314 90.1191 146.816 89.5286C145.494 88.9788 144.238 88.2457 143.379 87.2073C142.41 86.067 141.991 84.6009 141.991 83.1552ZM128.597 74.7049V79.2253C129.654 79.2253 130.712 79.2457 131.747 79.2253C132.342 79.2253 132.937 79.1031 133.399 78.757C134.281 78.1258 134.611 76.8633 134.06 75.9266C133.73 75.214 132.915 74.7456 132.056 74.7253C130.888 74.6846 129.742 74.7049 128.597 74.7049ZM123.133 70.0624H129.853C131.262 70.0624 132.694 70.0013 134.104 70.2863C135.712 70.5714 137.321 71.3248 138.29 72.5669C139.281 73.809 139.59 75.3972 139.568 76.904C139.524 78.4312 139.171 79.9991 138.158 81.2412C137.475 82.0556 136.462 82.6462 135.404 82.9719C137.277 85.2729 139.259 87.472 141.198 89.7322C138.951 89.7322 136.704 89.7525 134.457 89.7322C132.849 87.6552 131.218 85.5783 129.566 83.5217C129.236 83.4403 128.883 83.481 128.575 83.5217C128.619 85.5783 128.597 87.6756 128.597 89.7525C126.768 89.7322 124.962 89.7322 123.155 89.7525C123.111 83.2163 123.133 76.6393 123.133 70.0624Z" fill="black"/>
</svg>
