<svg width="221" height="161" viewBox="0 0 221 161" fill="none" xmlns="http://www.w3.org/2000/svg">
<path d="M86.5634 108.617C73.6799 122.984 58.2987 129.65 48.2136 123.862C41.92 120.251 38.6007 112.357 38.8673 101.633C39.1363 90.8452 42.9981 78.507 49.7456 66.8938C56.491 55.2772 65.3096 45.7836 74.5753 40.1588C80.2176 36.7338 85.6091 34.9982 90.3855 34.9982C93.4041 34.9982 96.1787 35.6927 98.6151 37.0884C106.055 41.3581 109.032 51.4976 107.641 63.8595H108.238C108.407 62.326 108.514 60.8151 108.55 59.3335C108.822 48.3843 105.397 40.3068 98.9102 36.5825C92.4225 32.8605 83.6708 33.9525 74.2689 39.6597C64.9203 45.3342 56.0314 54.9023 49.235 66.6002C42.4409 78.2993 38.5496 90.7368 38.2806 101.619C38.0094 112.569 41.4343 120.646 47.9209 124.37C50.4492 125.82 53.3214 126.54 56.4433 126.54C61.3298 126.54 66.8257 124.774 72.5621 121.292C77.7278 118.157 82.7516 113.831 87.3601 108.616H86.5634V108.617Z" fill="#222222"/>
<path d="M164.405 75.8507C165.568 75.8507 166.672 75.2985 167.181 74.3578V75.8473H168.833V69.1689H167.181V70.7002C167.181 70.7002 166.317 69.1689 164.215 69.1689C164.215 69.1689 162.191 69.1689 161.891 69.1689C159.79 69.1689 158.364 70.4382 158.364 72.4923C158.364 74.508 159.683 75.853 161.704 75.853H164.405V75.8507ZM159.189 72.533C159.189 71.5618 159.827 70.8154 161.027 70.8154H165.305C166.355 70.8154 167.18 71.45 167.18 72.533C167.18 73.5414 166.43 74.2133 165.417 74.2133H160.915C160.014 74.2122 159.189 73.5775 159.189 72.533Z" fill="#222222"/>
<path d="M76.6123 69.1724C76.3127 69.1724 73.8728 69.1724 73.8728 69.1724C71.7723 69.1724 71.1334 70.7036 71.1334 70.7036V69.1724H69.4822V77.2363H71.1334V74.3613C71.6429 75.3019 72.7471 75.8541 73.9103 75.8541H76.7246C78.807 75.8541 80.0258 74.5103 80.0258 72.4935C80.0269 70.4416 78.7139 69.1724 76.6123 69.1724ZM77.3998 74.2122H72.898C71.8846 74.2122 71.1345 73.5403 71.1345 72.5319C71.1345 71.4489 71.9595 70.8143 73.0104 70.8143H77.3624C78.563 70.8143 79.2008 71.5607 79.2008 72.5319C79.2008 73.5776 78.5562 74.2122 77.3998 74.2122Z" fill="#222222"/>
<path d="M88.3225 69.1724H85.0576C82.9945 69.1724 81.6804 70.4416 81.6804 72.4574C81.6804 74.586 82.9934 75.8553 85.0576 75.8553H88.3213C90.406 75.8553 91.736 74.5115 91.736 72.4946C91.736 70.5162 90.3878 69.1724 88.3225 69.1724ZM88.8479 74.2122H84.421C83.2816 74.2122 82.5077 73.5403 82.5077 72.5319C82.5077 71.5494 83.2953 70.8143 84.3461 70.8143H88.9239C90.0587 70.8143 90.9121 71.4489 90.9121 72.4574C90.911 73.5403 90.1211 74.2122 88.8479 74.2122Z" fill="#222222"/>
<path d="M96.8528 75.8554H102.52V74.2124H96.1402C95.0019 74.2124 94.2643 73.5901 94.2643 72.4948C94.2643 71.5055 94.9872 70.8144 96.1402 70.8144H102.52V69.1714H96.8528C94.8272 69.1714 93.4382 70.4779 93.4382 72.4948C93.4382 74.6234 94.8805 75.8554 96.8528 75.8554Z" fill="#222222"/>
<path d="M107.646 75.8554H113.313V74.2124H106.933C105.795 74.2124 105.057 73.5901 105.057 72.4948C105.057 71.5055 105.78 70.8144 106.933 70.8144H113.313V69.1714H107.646C105.62 69.1714 104.231 70.4779 104.231 72.4948C104.231 74.6234 105.674 75.8554 107.646 75.8554Z" fill="#222222"/>
<path d="M140.954 75.8554H146.621V74.2124H140.241C139.103 74.2124 138.365 73.5901 138.365 72.4948C138.365 71.5055 139.088 70.8144 140.241 70.8144H146.621V69.1714H140.954C138.928 69.1714 137.539 70.4779 137.539 72.4948C137.539 74.6234 138.982 75.8554 140.954 75.8554Z" fill="#222222"/>
<path d="M131.171 68.8641C133.808 68.8641 134.097 67.1465 134.097 67.1465H132.371C132.371 67.1465 132.296 68.1176 131.208 68.1176C130.082 68.1176 130.12 67.1465 130.12 67.1465H128.394C128.395 67.1465 128.551 68.8641 131.171 68.8641Z" fill="#222222"/>
<path d="M150.328 73.3911C150.328 73.2511 150.39 73.1766 150.473 73.1766C150.582 73.1766 150.654 73.2229 150.84 73.3234L155.058 75.8461H157.756C157.8 75.8461 157.818 75.8111 157.818 75.7874C157.818 75.749 157.799 75.7185 157.698 75.6598L152.438 72.4934C153.433 71.8892 157.392 69.4851 157.493 69.4241C157.681 69.3123 157.749 69.2762 157.749 69.2095C157.749 69.1779 157.729 69.1632 157.68 69.1632H155.241L150.736 71.9288C150.624 71.9988 150.545 72.036 150.461 72.036C150.389 72.036 150.326 71.9931 150.326 71.8497V69.1621H148.675V75.845H150.326V73.3911H150.328Z" fill="#222222"/>
<path d="M107.562 88.0499H110.263C111.426 88.0499 112.529 87.4977 113.04 86.5571V88.0465H114.691V81.3682H113.04V82.8994C113.04 82.8994 112.288 81.3682 110.187 81.3682C110.187 81.3682 108.049 81.3682 107.749 81.3682C105.649 81.3682 104.222 82.6374 104.222 84.6915C104.222 86.705 105.541 88.0499 107.562 88.0499ZM106.887 83.0146H111.164C112.215 83.0146 113.04 83.6492 113.04 84.7322C113.04 85.7406 112.29 86.4125 111.276 86.4125H106.774C105.874 86.4125 105.048 85.7779 105.048 84.7322C105.048 83.761 105.686 83.0146 106.887 83.0146Z" fill="#222222"/>
<path d="M169.47 82.897C169.47 82.897 168.719 81.3657 166.618 81.3657C166.618 81.3657 164.48 81.3657 164.18 81.3657C162.079 81.3657 160.653 82.635 160.653 84.6891C160.653 86.7048 161.972 88.0497 163.993 88.0497H166.694C167.857 88.0497 168.961 87.4975 169.47 86.5569V88.0464H171.122V81.368H169.47V82.897ZM167.707 86.4112H163.205C162.305 86.4112 161.479 85.7766 161.479 84.7309C161.479 83.7597 162.117 83.0133 163.318 83.0133H167.595C168.645 83.0133 169.47 83.6479 169.47 84.7309C169.47 85.7393 168.72 86.4112 167.707 86.4112Z" fill="#222222"/>
<path d="M87.2307 81.3716C86.9311 81.3716 84.4913 81.3716 84.4913 81.3716C82.3908 81.3716 81.7519 82.9028 81.7519 82.9028V81.3716H80.1007V89.4355H81.7519V86.5605C82.2614 87.5011 83.3656 88.0533 84.5287 88.0533H87.3431C89.4254 88.0533 90.6442 86.7095 90.6442 84.6927C90.6454 82.6409 89.3324 81.3716 87.2307 81.3716ZM88.0194 86.4114H83.5176C82.5042 86.4114 81.7541 85.7395 81.7541 84.7311C81.7541 83.6481 82.5791 83.0135 83.63 83.0135H87.982C89.1826 83.0135 89.8204 83.7599 89.8204 84.7311C89.8204 85.7768 89.1758 86.4114 88.0194 86.4114Z" fill="#222222"/>
<path d="M157.158 83.3059C157.158 83.8118 156.971 83.9778 156.52 83.9778H152.318C151.87 83.9778 151.68 83.8536 151.68 83.3432V81.3647H149.991V88.0465H151.68V86.1053C151.68 85.6277 151.897 85.4334 152.318 85.4334H156.557C157.018 85.4334 157.233 85.5689 157.233 86.1053V88.0465H158.884V81.3647H157.158V83.3059V83.3059Z" fill="#222222"/>
<path d="M147.081 84.2387C147.255 84.0117 147.416 83.5329 147.416 83.0293C147.416 81.9169 146.527 81.3647 145.353 81.3647H138.223V88.0465H145.726C147.201 88.0465 148.242 87.3622 148.242 85.9439C148.24 84.9343 147.617 84.4239 147.081 84.2387ZM140.55 82.8203C140.55 82.8203 145.465 82.8203 145.54 82.8203C145.978 82.8203 146.363 83.0202 146.363 83.4697C146.363 83.8638 146.02 84.1687 145.54 84.1687H140.55C140.114 84.1687 139.762 83.9496 139.762 83.5013C139.761 83.062 140.137 82.8203 140.55 82.8203ZM145.827 86.5503H140.66C140.172 86.5503 139.761 86.2555 139.761 85.7699C139.761 85.2098 140.174 84.9896 140.661 84.9896C140.661 84.9896 145.688 84.9896 145.802 84.9896C146.362 84.9896 146.815 85.1839 146.815 85.7259C146.815 86.2499 146.392 86.5503 145.827 86.5503Z" fill="#222222"/>
<path d="M116.232 82.9333H119.647C119.871 82.9333 119.985 83.0078 119.985 83.2698V88.0454H121.748V83.3071C121.748 83.0225 121.886 82.9333 122.161 82.9333H125.501V81.3647H116.234V82.9333H116.232Z" fill="#222222"/>
<path d="M135.715 81.3252C135.365 81.3252 135.109 81.4743 134.584 81.8853L130.13 85.3193C129.788 85.5892 129.393 85.9167 129.101 85.9167C128.88 85.9167 128.769 85.7677 128.769 85.3939V81.3613H127.118V87.5214C127.118 87.9245 127.348 88.1052 127.628 88.1052C127.967 88.1052 128.206 87.9686 128.769 87.5586L133.383 84.0026C133.769 83.7169 134.02 83.5532 134.204 83.5532C134.429 83.5532 134.585 83.7023 134.585 84.076V88.0442H136.236V81.9971C136.234 81.5691 136.031 81.3252 135.715 81.3252Z" fill="#222222"/>
<path d="M99.9406 81.3623H95.9631C93.4007 81.3623 92.511 82.6677 92.511 84.5355C92.511 86.7014 93.5618 88.0429 96.1878 88.0429H101.89V86.5501H95.474C94.2892 86.5501 93.4472 86.0363 93.3666 84.9895C93.5505 85.1961 93.9408 85.4333 94.9361 85.4333H100.501C101.937 85.4333 102.64 84.7986 102.64 83.5666C102.643 82.2578 101.614 81.3623 99.9406 81.3623ZM100.811 84.5728H94.4254C93.8796 84.5728 93.5255 84.2746 93.5255 83.7891C93.5255 83.3035 93.8909 83.0054 94.3505 83.0054H100.846C101.369 83.0054 101.779 83.3114 101.779 83.7947C101.78 84.2792 101.419 84.5728 100.811 84.5728Z" fill="#222222"/>
<path d="M116.724 96.0451C116.724 98.8829 114.585 98.5836 114.585 98.5836V100.152C117.362 100.638 117.624 97.6136 117.624 95.9705V95.1112H122.089C122.672 95.1112 122.839 95.293 122.839 95.8949V100.152H124.49V93.4692H116.723V96.0451H116.724Z" fill="#222222"/>
<path d="M76.6384 95.4106C76.6384 95.9165 76.4511 96.0825 76.0006 96.0825H71.7984C71.3502 96.0825 71.1606 95.9583 71.1606 95.4478V93.4694H69.472V100.151H71.1606V98.21C71.1606 97.7323 71.3774 97.5381 71.7984 97.5381H76.0381C76.4988 97.5381 76.7133 97.6736 76.7133 98.21V100.151H78.3644V93.4683H76.6384V95.4106V95.4106Z" fill="#222222"/>
<path d="M101.349 93.4702H93.2452L93.2577 94.9055C93.2577 96.3859 93.0273 97.933 92.5325 98.5846H91.5941V101.983H93.0943V100.153H100.786V101.983H102.286V98.5846H101.348V93.4702H101.349ZM93.5822 98.5835C94.0396 97.6473 94.1462 96.5214 94.1871 95.1065H99.1281C99.5411 95.1065 99.6909 95.2928 99.6909 95.8157L99.6977 98.5823H93.5822V98.5835Z" fill="#222222"/>
<path d="M126.543 95.7437C126.543 97.2874 127.524 97.8339 128.794 97.8339C128.834 97.8339 128.923 97.8339 129.106 97.8339C129.967 97.8339 130.691 97.6995 130.691 97.6995C130.691 97.6995 126.319 100.071 126.27 100.096C126.221 100.123 126.221 100.126 126.221 100.135C126.221 100.144 126.227 100.148 126.236 100.148C126.257 100.148 129.213 100.148 129.213 100.148L134.497 97.2354V100.148H136.148V93.4648H129.169C127.471 93.466 126.543 94.3626 126.543 95.7437ZM134.534 96.0824C134.534 96.594 134.154 96.9757 133.446 96.9757H128.419C127.866 96.9757 127.368 96.6798 127.368 96.0418C127.368 95.4388 127.784 95.1079 128.381 95.1079H133.446C134.144 95.109 134.534 95.5223 134.534 96.0824Z" fill="#222222"/>
<path d="M175.723 81.3647C174.026 81.3647 173.097 82.2602 173.097 83.6424C173.097 85.1861 174.079 85.7327 175.349 85.7327C175.389 85.7327 175.477 85.7327 175.661 85.7327C176.521 85.7327 177.245 85.5983 177.245 85.5983C177.245 85.5983 172.874 87.9697 172.825 87.9946C172.775 88.0217 172.775 88.0251 172.775 88.0341C172.775 88.0431 172.782 88.0465 172.791 88.0465C172.811 88.0465 175.768 88.0465 175.768 88.0465L181.051 85.1342V88.0465H182.702V81.3647H175.723ZM180 84.8745H174.973C174.421 84.8745 173.922 84.5786 173.922 83.9406C173.922 83.3375 174.339 83.0067 174.936 83.0067H180C180.697 83.0067 181.089 83.42 181.089 83.9801C181.089 84.4916 180.707 84.8745 180 84.8745Z" fill="#222222"/>
<path d="M170.627 75.846C170.647 75.846 173.603 75.846 173.603 75.846L178.887 72.9337V75.846H180.538V69.1631H173.559C171.861 69.1631 170.933 70.0586 170.933 71.4408C170.933 72.9845 171.915 73.531 173.185 73.531C173.224 73.531 173.313 73.531 173.497 73.531C174.357 73.531 175.081 73.3966 175.081 73.3966C175.081 73.3966 170.71 75.7681 170.661 75.7929C170.611 75.82 170.611 75.8234 170.611 75.8324C170.61 75.8437 170.618 75.846 170.627 75.846ZM172.809 72.6728C172.256 72.6728 171.758 72.3769 171.758 71.7389C171.758 71.1359 172.175 70.805 172.772 70.805H177.836C178.533 70.805 178.925 71.2183 178.925 71.7784C178.925 72.29 178.544 72.6717 177.836 72.6717H172.809V72.6728Z" fill="#222222"/>
<path d="M115.798 75.9081C116.138 75.9081 116.377 75.7715 116.94 75.3615L121.554 71.8055C121.94 71.5198 122.191 71.3561 122.375 71.3561C122.599 71.3561 122.756 71.5052 122.756 71.8789V75.8471H124.407V69.7989C124.407 69.3709 124.204 69.127 123.888 69.127C123.538 69.127 123.282 69.276 122.757 69.6871L118.303 73.1211C117.961 73.391 117.566 73.7185 117.274 73.7185C117.054 73.7185 116.942 73.5694 116.942 73.1956V69.1631H115.289V75.3231C115.289 75.7263 115.519 75.9081 115.798 75.9081Z" fill="#222222"/>
<path d="M127.073 75.9081C127.412 75.9081 127.652 75.7715 128.214 75.3615L132.829 71.8055C133.214 71.5198 133.465 71.3561 133.649 71.3561C133.874 71.3561 134.03 71.5052 134.03 71.8789V75.8471H135.682V69.7989C135.682 69.3709 135.478 69.127 135.163 69.127C134.812 69.127 134.557 69.276 134.031 69.6871L129.577 73.1211C129.236 73.391 128.841 73.7185 128.548 73.7185C128.328 73.7185 128.217 73.5694 128.217 73.1956V69.1631H126.566V75.3231C126.563 75.7263 126.794 75.9081 127.073 75.9081Z" fill="#222222"/>
<path d="M78.4893 87.8556L73.2294 84.6892C74.2246 84.085 78.1828 81.6809 78.2838 81.6199C78.4722 81.5081 78.5403 81.472 78.5403 81.4053C78.5403 81.3737 78.5199 81.359 78.4711 81.359H76.0324L71.5272 84.1246C71.4148 84.1946 71.3365 84.2318 71.2526 84.2318C71.1799 84.2318 71.1175 84.1889 71.1175 84.0455V81.3579H69.4664V88.0408H71.1175V85.5858C71.1175 85.4458 71.1788 85.3713 71.2616 85.3713C71.3706 85.3713 71.4432 85.4176 71.6293 85.5181L75.8474 88.0408H78.5449C78.5891 88.0408 78.6073 88.0058 78.6073 87.9821C78.6095 87.9448 78.5902 87.9143 78.4893 87.8556Z" fill="#222222"/>
<path d="M87.9128 93.4556H83.9352C81.3728 93.4556 80.4832 94.761 80.4832 96.6288C80.4832 98.7947 81.534 100.136 84.1599 100.136H89.8624V98.6422H83.4461C82.2614 98.6422 81.4194 98.1284 81.3388 97.0816C81.5226 97.2882 81.913 97.5254 82.9082 97.5254H88.4734C89.9089 97.5254 90.6125 96.8908 90.6125 95.6587C90.6136 94.3522 89.5855 93.4556 87.9128 93.4556ZM88.782 96.666H82.3964C81.8506 96.666 81.4965 96.3679 81.4965 95.8823C81.4965 95.3967 81.862 95.0986 82.3215 95.0986H88.8172C89.3404 95.0986 89.75 95.4047 89.75 95.888C89.7512 96.3724 89.3903 96.666 88.782 96.666Z" fill="#222222"/>
<path d="M111.189 93.4556H107.211C104.649 93.4556 103.759 94.761 103.759 96.6288C103.759 98.7947 104.81 100.136 107.436 100.136H113.138V98.6422H106.722C105.537 98.6422 104.695 98.1284 104.615 97.0816C104.799 97.2882 105.189 97.5254 106.184 97.5254H111.749C113.185 97.5254 113.889 96.8908 113.889 95.6587C113.891 94.3522 112.862 93.4556 111.189 93.4556ZM112.059 96.666H105.674C105.128 96.666 104.774 96.3679 104.774 95.8823C104.774 95.3967 105.139 95.0986 105.599 95.0986H112.094C112.618 95.0986 113.027 95.4047 113.027 95.888C113.027 96.3724 112.666 96.666 112.059 96.666Z" fill="#222222"/>
</svg>
