<svg width="221" height="161" viewBox="0 0 221 161" fill="none" xmlns="http://www.w3.org/2000/svg">
<g clip-path="url(#clip0)">
<path d="M86.2968 84.3417L111.189 70.1649L96.5911 61.8848L83.2701 68.9927L70.5054 61.9308L67.2583 63.9601L92.0353 77.7474L86.2898 80.7931L86.2968 84.3417ZM86.2723 70.9724L96.5981 65.5538L105.108 70.0941L95.2019 75.9731L86.2723 70.9724Z" fill="#F6958D"/>
<path d="M67.2583 63.9639L67.2898 80.8358L79.9705 87.8977L79.9984 104.263L83.3366 106.027L83.2806 75.9981L89.2465 79.2315L92.0353 77.7511L67.2583 63.9639ZM79.9635 83.7186L70.5369 78.4665L70.5194 69.0177L79.946 74.3548L79.9635 83.7186Z" fill="#F15848"/>
<path d="M86.2969 84.3419L86.2864 77.6235L83.2842 75.9944L83.3402 106.023L98.3267 97.6439L98.2952 81.112L111.2 73.8341L111.193 70.165L86.2969 84.3419ZM95.237 96.0502L86.3284 100.916L86.3039 87.8834L95.2125 82.8898L95.237 96.0502Z" fill="#BD2026"/>
<path d="M96.598 65.5537L96.605 68.9678L89.4599 72.7572L86.2722 70.9723L96.598 65.5537Z" fill="#BD2026"/>
<path d="M96.5981 65.5537L96.6051 68.9678L102.169 71.8364L105.108 70.0904L96.5981 65.5537Z" fill="#F15848"/>
<path d="M73.2733 70.5759L73.2838 77.11L70.537 78.4664L70.5195 69.0176L73.2733 70.5759Z" fill="#BD2026"/>
<path d="M70.5369 78.4658L73.2836 77.1094L79.9564 80.8103L79.9634 83.7179L70.5369 78.4658Z" fill="#F6958D"/>
<path d="M92.0493 84.664L92.0668 94.1978L95.237 96.0501L95.2125 82.8896L92.0493 84.664Z" fill="#F15848"/>
<path d="M92.0668 94.1982L95.2369 96.0505L86.3283 100.917L86.3213 97.3325L92.0668 94.1982Z" fill="#F6958D"/>
<path d="M95.0655 89.3487L88.8022 89.3593C88.2563 89.3593 88.0569 89.5647 88.0569 90.1172L88.0674 96.3786L90.8491 94.8629L90.8457 91.9765L95.069 91.9694C98.6591 91.9623 100.615 93.7898 100.622 96.9878L100.633 102.336C100.64 105.534 98.6591 107.368 95.097 107.375L90.8736 107.382L90.8631 101.818L88.0814 103.373L88.0919 109.249C88.0919 109.801 88.2948 110.003 88.8407 110.003L95.104 109.992C100.447 109.982 103.428 107.042 103.418 102.3L103.407 97.009C103.4 92.2704 100.405 89.338 95.0655 89.3487Z" fill="#414042"/>
<path d="M78.0355 90.5217L74.9249 84.4479C74.533 83.7431 74.1411 83.2048 73.5252 82.8684C76.0936 82.2699 77.6262 80.2866 77.6227 77.2338C77.6157 74.0357 76.0026 71.9781 73.2768 71.3973L73.2803 74.2199C74.2565 74.7653 74.7954 75.7888 74.7989 77.2373C74.8024 79.4437 73.5497 80.6903 71.3418 80.6939L65.7258 80.708L65.7118 73.7808L67.2759 73.7772L67.2724 71.2344L63.7243 71.2379C63.1924 71.2415 63 71.4398 63 71.9746L63.035 90.5783C63.035 91.1166 63.2309 91.315 63.7628 91.3114H64.991C65.5508 91.3114 65.7433 91.1131 65.7433 90.5748L65.7293 83.2509L68.7175 83.2438C70.7855 83.2402 71.5972 83.8033 72.409 85.4714L74.9599 90.6421C75.2118 91.1804 75.4917 91.2902 76.4155 91.2902L77.6436 91.2866C78.2035 91.2866 78.2595 90.9467 78.0355 90.5217Z" fill="#414042"/>
<path d="M94.9957 52L88.7324 52.0107C88.1865 52.0107 87.9871 52.2161 87.9871 52.7685L88.0116 66.4602L90.7933 64.9763L90.7793 54.6243L95.0027 54.6172C98.5928 54.6102 100.549 56.4376 100.556 59.6356L100.566 64.9834C100.573 68.1814 98.5928 70.0159 95.0307 70.023H94.6143L89.6631 72.6473L95.0377 72.6366C100.381 72.626 103.362 69.6865 103.352 64.9444L103.341 59.6533C103.331 54.9218 100.339 51.9894 94.9957 52Z" fill="#414042"/>
<path d="M123.845 73.2417C123.845 74.1165 123.408 74.6831 122.673 74.8567C122.848 74.9523 122.96 75.1081 123.072 75.31L123.964 77.0489C124.027 77.1693 124.013 77.2685 123.852 77.2685H123.499C123.237 77.2685 123.153 77.2366 123.083 77.0843L122.351 75.6039C122.117 75.1258 121.886 74.9629 121.295 74.9665H120.437L120.441 77.0631C120.441 77.2189 120.385 77.2755 120.224 77.2755H119.871C119.72 77.2755 119.664 77.2189 119.664 77.0666L119.654 71.7366C119.654 71.5807 119.71 71.5241 119.86 71.5241L122.11 71.5205C123.184 71.517 123.842 72.1474 123.845 73.2417ZM122.043 72.2465L120.434 72.2501L120.437 74.2334L122.047 74.2298C122.68 74.2298 123.037 73.8721 123.037 73.2382C123.034 72.6042 122.673 72.2465 122.043 72.2465Z" fill="#414042"/>
<path d="M127.796 76.6533C128.748 76.6533 129.21 76.1327 129.21 75.2969L129.203 71.7164C129.203 71.5641 129.259 71.5039 129.42 71.5039H129.773C129.927 71.5039 129.983 71.5606 129.983 71.7129L129.99 75.2863C129.993 76.5577 129.259 77.3758 127.799 77.3793C126.351 77.3829 125.613 76.5648 125.609 75.2934L125.602 71.7199C125.602 71.5677 125.651 71.5074 125.808 71.5074H126.162C126.323 71.5074 126.372 71.5641 126.372 71.7164L126.379 75.2969C126.379 76.1363 126.844 76.6533 127.796 76.6533Z" fill="#414042"/>
<path d="M133.853 71.376C134.966 71.3725 135.557 71.7868 135.952 72.612C136.026 72.7572 135.984 72.8316 135.84 72.8953L135.504 73.0512C135.361 73.1149 135.305 73.0937 135.231 72.9449C134.959 72.4101 134.584 72.1268 133.853 72.1304C132.982 72.1304 132.516 72.4491 132.52 73.0476C132.52 73.7701 133.258 73.8905 134.059 73.9755C135.011 74.0853 136.068 74.2942 136.071 75.6082C136.075 76.6777 135.298 77.3683 133.856 77.3718C132.656 77.3754 132.023 76.9044 131.669 75.9906C131.613 75.8384 131.652 75.7711 131.806 75.7144L132.135 75.5904C132.278 75.5409 132.341 75.5657 132.408 75.7215C132.663 76.32 133.139 76.6352 133.86 76.6352C134.805 76.6352 135.298 76.3165 135.298 75.6294C135.298 74.9317 134.623 74.8113 133.881 74.7263C132.894 74.6236 131.736 74.4642 131.732 73.1007C131.725 72.0843 132.471 71.3795 133.853 71.376Z" fill="#414042"/>
<path d="M139.696 71.3653C140.809 71.3617 141.4 71.7761 141.796 72.6013C141.869 72.7465 141.827 72.8208 141.684 72.8846L141.348 73.0404C141.204 73.1042 141.148 73.0829 141.075 72.9342C140.802 72.3994 140.424 72.1161 139.696 72.1196C138.825 72.1196 138.36 72.4383 138.363 73.0369C138.363 73.7593 139.101 73.8798 139.899 73.9648C140.851 74.0745 141.908 74.2835 141.911 75.5974C141.915 76.667 141.138 77.3576 139.696 77.3611C138.496 77.3646 137.863 76.8936 137.509 75.9799C137.453 75.8276 137.492 75.7603 137.646 75.7037L137.975 75.5797C138.118 75.5301 138.181 75.5549 138.248 75.7107C138.503 76.3093 138.979 76.6245 139.696 76.6245C140.641 76.6245 141.138 76.3057 141.134 75.6187C141.134 74.921 140.459 74.8006 139.717 74.7156C138.734 74.6129 137.572 74.4535 137.569 73.09C137.569 72.0736 138.314 71.3688 139.696 71.3653Z" fill="#414042"/>
<path d="M143.829 71.4785H144.182C144.343 71.4785 144.399 71.5352 144.399 71.6875L144.409 77.0175C144.409 77.1733 144.353 77.23 144.196 77.23H143.843C143.692 77.23 143.633 77.1733 143.633 77.021L143.619 71.691C143.619 71.5352 143.675 71.4785 143.829 71.4785Z" fill="#414042"/>
<path d="M150.76 77.2162H150.449C150.187 77.2162 150.113 77.1772 150.064 77.032L149.567 75.711L147.198 75.7146L146.705 77.0356C146.649 77.1808 146.575 77.2233 146.32 77.2233H146.04C145.879 77.2233 145.848 77.1525 145.897 77.0143L147.968 71.6312C148.017 71.486 148.08 71.4541 148.231 71.4541H148.549C148.703 71.4541 148.766 71.486 148.815 71.6241L150.904 77.0073C150.953 77.1454 150.921 77.2162 150.76 77.2162ZM148.398 72.1837H148.349C148.342 72.2014 148.342 72.5626 148.217 72.938L147.412 75.0771L149.35 75.0736L148.545 72.9451C148.416 72.5626 148.398 72.2014 148.398 72.1837Z" fill="#414042"/>
<path d="M156.754 71.6661L156.765 76.9962C156.765 77.152 156.709 77.2087 156.558 77.2087H156.205C156.1 77.2087 156.044 77.1839 155.988 77.1024L153.7 73.745C153.371 73.2421 153.129 72.6117 153.049 72.4984H153.007C153.007 72.6542 153.143 73.3342 153.147 74.0071L153.154 77.0033C153.154 77.1591 153.098 77.2158 152.94 77.2158H152.611C152.457 77.2158 152.401 77.1591 152.401 77.0068L152.391 71.6768C152.391 71.5245 152.447 71.4643 152.597 71.4643H152.951C153.063 71.4643 153.119 71.5032 153.161 71.5705L155.414 74.8712C155.781 75.4202 156.009 76.0293 156.103 76.1675H156.145C156.145 75.9904 156.016 75.3246 156.012 74.6021L156.005 71.6697C156.005 71.5174 156.054 71.4572 156.212 71.4572H156.541C156.698 71.4536 156.754 71.5103 156.754 71.6661Z" fill="#414042"/>
<path d="M123.951 83.4602L123.954 84.937C123.958 86.258 123.125 87.0761 121.638 87.0796L119.892 87.0832C119.741 87.0832 119.685 87.0265 119.685 86.8742L119.675 81.5442C119.675 81.3919 119.731 81.3317 119.881 81.3317L121.627 81.3281C123.114 81.3246 123.951 82.1427 123.951 83.4602ZM121.627 82.0577L120.452 82.0612L120.459 86.3536L121.634 86.3501C122.628 86.3465 123.177 85.8365 123.177 84.9441L123.174 83.4531C123.174 82.5641 122.628 82.0542 121.627 82.0577Z" fill="#414042"/>
<path d="M129.391 81.5229V81.8311C129.391 81.9834 129.343 82.0436 129.185 82.0436L126.536 82.0471L126.54 83.7895L128.821 83.786C128.982 83.786 129.031 83.8427 129.031 84.0056V84.3031C129.031 84.466 128.982 84.5156 128.825 84.5156L126.543 84.5191L126.547 86.343L129.29 86.3395C129.451 86.3395 129.5 86.3961 129.5 86.5484V86.8565C129.5 87.0124 129.451 87.069 129.294 87.069L125.98 87.0761C125.829 87.0761 125.773 87.0194 125.773 86.8672L125.763 81.5371C125.763 81.3848 125.819 81.3246 125.969 81.3246L129.185 81.3175C129.343 81.314 129.391 81.3707 129.391 81.5229Z" fill="#414042"/>
<path d="M133.097 81.1826C134.21 81.1791 134.801 81.5935 135.196 82.4186C135.27 82.5638 135.228 82.6382 135.084 82.702L134.749 82.8578C134.605 82.9215 134.549 82.9003 134.476 82.7515C134.203 82.2168 133.828 81.9334 133.097 81.937C132.226 81.937 131.76 82.2557 131.764 82.8543C131.764 83.5767 132.502 83.6971 133.303 83.7821C134.255 83.8919 135.312 84.1009 135.315 85.4148C135.319 86.4843 134.542 87.1749 133.1 87.1785C131.9 87.182 131.267 86.711 130.914 85.7973C130.858 85.645 130.896 85.5777 131.05 85.521L131.379 85.3971C131.522 85.3475 131.585 85.3723 131.652 85.5281C131.907 86.1266 132.383 86.4418 133.104 86.4418C134.049 86.4418 134.542 86.1231 134.542 85.436C134.542 84.7384 133.867 84.6179 133.125 84.5329C132.138 84.4302 130.98 84.2709 130.977 82.9074C130.97 81.8945 131.711 81.1862 133.097 81.1826Z" fill="#414042"/>
<path d="M137.226 81.2998H137.579C137.74 81.2998 137.796 81.3565 137.796 81.5088L137.807 86.8388C137.807 86.9946 137.751 87.0513 137.59 87.0513H137.236C137.086 87.0513 137.03 86.9946 137.03 86.8423L137.02 81.5123C137.02 81.3565 137.076 81.2998 137.226 81.2998Z" fill="#414042"/>
<path d="M144.105 84.1925L144.109 85.2302C144.112 86.3634 143.321 87.1603 141.873 87.1638C140.424 87.1674 139.63 86.3741 139.626 85.0956L139.623 83.2469C139.619 81.9684 140.41 81.1715 141.859 81.168C143.059 81.1644 143.724 81.6496 144.014 82.5421C144.063 82.6944 144.032 82.7617 143.878 82.8184L143.549 82.9317C143.398 82.9883 143.332 82.9565 143.276 82.8006C143.076 82.195 142.657 81.894 141.859 81.8975C140.9 81.8975 140.396 82.3863 140.396 83.2363L140.4 85.092C140.4 85.942 140.921 86.4343 141.866 86.4343C142.81 86.4343 143.335 85.9385 143.335 85.2337V84.706L141.95 84.7095C141.789 84.7095 141.74 84.66 141.74 84.5006V84.1925C141.74 84.0402 141.789 83.98 141.946 83.98L143.885 83.9764C144.049 83.9729 144.105 84.0296 144.105 84.1925Z" fill="#414042"/>
<path d="M150.225 81.4834L150.235 86.8134C150.235 86.9692 150.179 87.0259 150.029 87.0259H149.676C149.571 87.0259 149.515 87.0011 149.459 86.9197L147.17 83.5623C146.841 83.0594 146.6 82.429 146.519 82.3156H146.477C146.477 82.4715 146.614 83.1514 146.617 83.8243L146.624 86.8205C146.624 86.9763 146.568 87.033 146.411 87.033H146.082C145.928 87.033 145.872 86.9763 145.872 86.824L145.862 81.494C145.862 81.3417 145.918 81.2815 146.068 81.2815H146.421C146.533 81.2815 146.589 81.3205 146.631 81.3877L148.885 84.6885C149.252 85.2374 149.48 85.8466 149.574 85.9847H149.616C149.616 85.8076 149.487 85.1418 149.483 84.4193L149.476 81.4869C149.476 81.3346 149.525 81.2744 149.683 81.2744H150.011C150.169 81.2744 150.225 81.3311 150.225 81.4834Z" fill="#414042"/>
<path d="M123.972 93.2664L123.976 94.7397C123.979 96.0607 123.146 96.8788 121.659 96.8823L119.913 96.8859C119.763 96.8859 119.707 96.8292 119.707 96.6769L119.696 91.3469C119.696 91.1946 119.752 91.1344 119.903 91.1344L121.649 91.1309C123.132 91.1309 123.969 91.949 123.972 93.2664ZM121.645 91.864L120.47 91.8675L120.477 96.1599L121.652 96.1563C122.646 96.1528 123.195 95.6428 123.195 94.7503L123.192 93.2593C123.192 92.3704 122.646 91.8604 121.645 91.864Z" fill="#414042"/>
<path d="M125.983 91.124H126.337C126.498 91.124 126.554 91.1807 126.554 91.333L126.564 96.663C126.564 96.8188 126.508 96.8755 126.347 96.8755H125.994C125.843 96.8755 125.787 96.8188 125.787 96.6666L125.777 91.3365C125.777 91.1842 125.829 91.1276 125.983 91.124Z" fill="#414042"/>
<path d="M130.466 90.9961C131.578 90.9926 132.17 91.4069 132.565 92.2321C132.639 92.3773 132.597 92.4517 132.453 92.5154L132.117 92.6713C131.974 92.735 131.918 92.7138 131.844 92.565C131.571 92.0302 131.193 91.7469 130.466 91.7505C129.594 91.7505 129.129 92.0692 129.133 92.6677C129.133 93.3902 129.871 93.5106 130.669 93.5956C131.62 93.7054 132.677 93.9144 132.681 95.2283C132.684 96.2978 131.907 96.9884 130.466 96.992C129.265 96.9955 128.632 96.5245 128.279 95.6108C128.223 95.4585 128.261 95.3912 128.415 95.3345L128.744 95.2106C128.888 95.161 128.951 95.1858 129.017 95.3416C129.272 95.9401 129.748 96.2553 130.466 96.2553C131.41 96.2553 131.907 95.9366 131.904 95.2495C131.904 94.5518 131.228 94.4314 130.487 94.3464C129.503 94.2437 128.342 94.0844 128.338 92.7209C128.338 91.7044 129.08 90.9961 130.466 90.9961Z" fill="#414042"/>
<path d="M138.087 91.3144V91.6225C138.087 91.7783 138.031 91.835 137.88 91.835L136.369 91.8385L136.376 96.648C136.376 96.8038 136.327 96.8605 136.169 96.8605H135.819C135.658 96.8605 135.609 96.8038 135.609 96.6515L135.602 91.8421L134.091 91.8456C133.93 91.8456 133.881 91.789 133.881 91.6367V91.3286C133.881 91.1763 133.93 91.1161 134.087 91.1161L137.88 91.109C138.027 91.1019 138.083 91.1586 138.087 91.3144Z" fill="#414042"/>
<path d="M143.787 92.8169C143.787 93.6917 143.349 94.2583 142.615 94.4319C142.79 94.5275 142.902 94.6833 143.017 94.8852L143.909 96.6241C143.972 96.7445 143.958 96.8437 143.797 96.8437H143.444C143.181 96.8437 143.097 96.8118 143.027 96.6595L142.296 95.1791C142.062 94.701 141.831 94.5381 141.239 94.5416H140.382L140.386 96.6382C140.386 96.7941 140.33 96.8507 140.169 96.8507H139.815C139.665 96.8507 139.609 96.7941 139.609 96.6418L139.598 91.3118C139.598 91.1595 139.654 91.0993 139.805 91.0993L142.055 91.0957C143.125 91.0922 143.783 91.7261 143.787 92.8169ZM141.985 91.8253L140.375 91.8288L140.379 93.8121L141.988 93.8085C142.622 93.8085 142.978 93.4508 142.978 92.8169C142.975 92.1794 142.615 91.8253 141.985 91.8253Z" fill="#414042"/>
<path d="M145.792 91.0879H146.145C146.306 91.0879 146.362 91.1446 146.362 91.2968L146.372 96.6269C146.372 96.7827 146.317 96.8394 146.159 96.8394H145.806C145.652 96.8394 145.596 96.7827 145.596 96.6304L145.585 91.3004C145.585 91.1446 145.641 91.0879 145.792 91.0879Z" fill="#414042"/>
<path d="M150.424 90.9571C151.625 90.9535 152.289 91.4387 152.58 92.3312C152.629 92.4835 152.597 92.5507 152.443 92.6074L152.114 92.7207C151.964 92.7703 151.897 92.7455 151.842 92.5897C151.642 91.9841 151.222 91.6831 150.424 91.6866C149.473 91.6902 148.962 92.1753 148.962 93.0253L148.965 94.8882C148.965 95.7311 149.487 96.2233 150.431 96.2233C151.247 96.2233 151.656 95.9046 151.856 95.2955C151.911 95.1325 151.974 95.1007 152.128 95.1573L152.457 95.2777C152.611 95.3273 152.65 95.3982 152.594 95.554C152.307 96.4465 151.653 96.9494 150.435 96.9529C148.993 96.9564 148.192 96.1631 148.192 94.8846L148.188 93.0359C148.188 91.7574 148.979 90.9606 150.424 90.9571Z" fill="#414042"/>
<path d="M158 91.2759V91.584C158 91.7398 157.944 91.7965 157.794 91.7965L156.282 91.8L156.289 96.6095C156.289 96.7653 156.24 96.822 156.083 96.822H155.733C155.572 96.822 155.523 96.7653 155.523 96.613L155.516 91.8036L154.004 91.8071C153.843 91.8071 153.794 91.7504 153.794 91.5982V91.29C153.794 91.1378 153.843 91.0775 154.001 91.0775L157.794 91.0705C157.944 91.0669 158 91.1236 158 91.2759Z" fill="#414042"/>
</g>
<defs>
<clipPath id="clip0">
<rect width="95" height="58" fill="white" transform="translate(63 52)"/>
</clipPath>
</defs>
</svg>
