<svg width="221" height="161" viewBox="0 0 221 161" fill="none" xmlns="http://www.w3.org/2000/svg">
<g clip-path="url(#clip0)">
<path d="M37.1486 86.8299H42.051V86.1495L40.7635 86.0766L40.4416 85.8093V82.0187C40.6645 82.043 41.3578 82.0673 41.8034 82.0673C44.3537 82.0673 46.5574 80.9495 46.5574 77.985C46.5574 76.0654 45.7155 74.3645 41.432 74.3645H37V75.0449L38.2628 75.1421L38.5846 75.4093V85.8093L38.2628 86.0766L37.1486 86.1495V86.8299ZM40.4416 75.1907C40.6645 75.1664 40.9616 75.1664 41.3578 75.1664C42.1501 75.1664 43.0414 75.3121 43.7842 76.0168C44.3785 76.6 44.5518 77.3776 44.5518 78.3738C44.5518 80.2206 43.6604 81.3869 41.5806 81.3869C41.432 81.3869 41.0606 81.3869 40.4416 81.2654V75.1907ZM55.5205 82.3832C55.5205 79.8318 53.8368 77.7421 51.0884 77.7421C48.0182 77.7421 46.6069 79.9776 46.6069 82.3832C46.6069 85.0561 48.4639 87 51.0389 87C54.0349 87 55.5205 84.7402 55.5205 82.3832ZM53.6387 82.5047C53.6882 84.4 52.7969 86.2467 51.0637 86.2467C49.0333 86.2467 48.5134 84.0112 48.5134 82.3589C48.5134 80.6336 49.0086 78.4953 51.0637 78.4953C52.9949 78.4953 53.5892 80.3421 53.6387 82.5047ZM64.2112 85.1533C63.6417 85.5178 62.7751 85.9551 61.8095 85.9551C58.665 85.9551 58.6155 82.8206 58.6155 82.2131C58.6155 80.1477 59.4325 78.4467 61.3391 78.4467C61.8095 78.4467 62.1066 78.5682 62.2799 78.6897V80.1963C62.6018 80.415 62.9732 80.4636 63.1713 80.4636C63.7655 80.4636 64.1865 80.0748 64.1865 79.4673C64.1865 78.714 63.4932 77.7664 61.4629 77.7664C58.6897 77.7664 56.7337 79.5402 56.7337 82.4318C56.7337 85.3477 58.665 87.0243 61.141 87.0243C61.7847 87.0243 62.7751 86.9271 64.2112 86.0766V85.1533ZM84.0935 86.8299H88.3522V86.2224L87.4361 86.1252L87.1142 85.8336V85.1776L91.4224 80.5121V85.8336L91.1006 86.1252L90.2092 86.2224V86.8299H94.4679V86.2224L93.4528 86.1252L93.1309 85.8336V78.9084L93.4528 78.6168L94.4679 78.5196V77.9121H90.2092V78.5196L91.1006 78.6168L91.4224 78.9084V79.4187L87.1142 84.0841V78.9084L87.4361 78.6168L88.3522 78.5196V77.9121H84.0935V78.5196L85.1086 78.6168L85.4305 78.9084V85.8336L85.1086 86.1252L84.0935 86.2224V86.8299ZM103.307 86.8299H107.541V86.2224L106.625 86.1252L106.303 85.785V82.6262H107.145C107.814 82.6262 108.333 82.9664 108.754 83.914L109.77 86.271V86.8056H112.815V86.2224L111.726 86.1009L111.404 85.8822L110.339 83.7682C109.992 83.1364 109.547 82.4318 108.556 82.1645V82.1159C109.052 81.8729 109.398 81.5813 109.745 80.8766L110.339 79.5888C110.438 79.3944 110.562 79.1271 110.71 79.0056L111.973 79.7103C112.32 79.5159 112.493 79.1757 112.493 78.7869C112.493 78.228 112.072 77.7664 111.305 77.7664C110.413 77.7664 109.869 78.4224 109.497 79.2729L108.853 80.7308C108.507 81.4841 107.913 81.8486 107.095 81.8486H106.254V78.9327L106.576 78.6411L107.492 78.5439V77.9121H103.258V78.5196L104.273 78.6168L104.595 78.9084V85.8336L104.273 86.1252L103.258 86.2224V86.8299H103.307ZM119.376 86.8299H122.051V86.2224L121.035 86.1252L120.738 85.785V80.3907C120.738 80.0019 120.689 79.0542 120.094 78.4467C119.451 77.7664 118.287 77.7421 117.841 77.7421C115.093 77.7421 114.127 78.9084 114.127 79.8804C114.127 80.0262 114.177 80.1963 114.276 80.2692C114.375 80.3664 114.647 80.3664 114.722 80.3664H116.034V78.7869C116.504 78.5682 117.024 78.471 117.519 78.471C118.213 78.471 118.46 78.714 118.634 78.8598C119.079 79.2729 119.079 80.1234 119.079 80.5607V81.1925C117.049 81.6542 116.257 81.9701 115.588 82.2374C114.697 82.5776 113.607 83.1607 113.607 84.5458C113.607 85.7122 114.375 86.9757 116.083 86.9757C116.801 86.9757 117.767 86.757 119.129 85.7607L119.376 86.8299ZM119.079 85.129C118.015 85.8093 117.396 85.9551 116.9 85.9551C115.761 85.9551 115.39 85.129 115.39 84.4243C115.39 83.4037 116.108 82.9664 116.702 82.6991C117.371 82.4075 118.287 82.1159 119.104 81.8729V85.129H119.079ZM131.682 77.9121H126.953C125.69 77.9121 123.635 78.228 123.635 80.3907C123.635 81.6299 124.502 82.4075 125.913 82.529L125.888 82.5533C125.071 82.8449 124.7 83.4037 124.527 83.7682L123.462 85.8579L123.165 86.1009L122.224 86.2224V86.8299H124.972V86.2953L126.062 83.9383C126.334 83.3794 126.681 82.8692 127.473 82.8692H128.686V85.8336L128.364 86.1252L127.473 86.2224V86.8299H131.732V86.2224L130.717 86.1252L130.345 85.8336V78.9084L130.667 78.6168L131.682 78.5196V77.9121ZM128.661 82.0673C128.34 82.1159 128.018 82.1402 127.522 82.1402C126.086 82.1402 125.22 81.7271 125.22 80.4393C125.22 78.7383 126.705 78.6411 127.522 78.6411C127.894 78.6411 128.216 78.6654 128.661 78.7383V82.0673ZM135.149 86.8299H140.051V86.1495L138.714 86.0523L138.392 85.785V75.1664H142.279L142.552 75.4579L142.973 77.2318H143.963V74.3888H135V75.0692L136.238 75.1664L136.56 75.4336V85.8336L136.238 86.1009L135.149 86.1495V86.8299ZM152.58 82.7234C152.728 82.6991 153.347 82.6505 153.694 82.6505C154.214 82.6505 155.65 82.6991 155.65 84.3514C155.65 85.7607 154.585 86.2467 153.471 86.2467C153.025 86.2467 152.406 86.1738 151.738 85.8336L151.416 84.2056H150.574V86.6355C151.193 86.8056 152.208 87.0243 153.496 87.0243C155.105 87.0243 157.507 86.5869 157.507 84.3514C157.507 82.6505 156.096 82.2131 155.155 82.1159V82.043C156.318 81.7757 157.086 80.9495 157.086 79.9776C157.086 77.9121 154.882 77.7421 153.644 77.7421C153.124 77.7421 152.183 77.7907 150.846 78.1308V80.3178H151.688L151.961 78.8598C152.53 78.5925 153.1 78.5196 153.57 78.5196C154.139 78.5196 155.303 78.7383 155.303 80.172C155.303 81.7271 154.065 81.8486 153.397 81.8486C153.075 81.8486 152.802 81.8243 152.53 81.7757V82.7234H152.58ZM166.643 84.9346C165.43 85.8579 164.341 85.9308 163.722 85.9308C161.419 85.9308 160.651 84.0112 160.651 82.0673V81.9458H166.643C166.668 81.7514 166.668 81.6056 166.668 81.4355C166.668 78.4467 164.761 77.7421 163.276 77.7421C161.716 77.7421 160.676 78.4224 160.156 78.957C159.314 79.7832 158.794 81.0224 158.794 82.4561C158.794 85.0075 160.478 87 163.177 87C164.563 87 165.603 86.5626 166.618 85.8822V84.9346H166.643ZM160.75 81.1682C160.899 79.9533 161.592 78.4953 163.053 78.4953C164.167 78.4953 164.539 79.2486 164.662 79.4673C164.811 79.7346 164.935 80.2935 164.935 80.6822V81.1925H160.75V81.1682ZM168.946 86.8299H173.7V86.2224L172.487 86.1252L172.165 85.8336V78.6654H173.923L174.245 78.9813L174.492 80.6336H175.384V77.9121H167.237V80.6336H168.129L168.376 78.9813L168.698 78.6654H170.456V85.8336L170.134 86.1252L168.921 86.2224V86.8299H168.946ZM72.283 85.1533C71.7135 85.5178 70.8469 85.9551 69.8813 85.9551C66.7367 85.9551 66.6872 82.8206 66.6872 82.2131C66.6872 80.1477 67.5043 78.4467 69.4108 78.4467C69.8813 78.4467 70.1784 78.5682 70.3517 78.6897V80.1963C70.6736 80.415 71.045 80.4636 71.243 80.4636C71.8373 80.4636 72.2582 80.0748 72.2582 79.4673C72.2582 78.714 71.5649 77.7664 69.5346 77.7664C66.7615 77.7664 64.8055 79.5402 64.8055 82.4318C64.8055 85.3477 66.7367 87.0243 69.2127 87.0243C69.8565 87.0243 70.8469 86.9271 72.283 86.0766V85.1533ZM102.812 85.1533C102.243 85.5178 101.376 85.9551 100.41 85.9551C97.2658 85.9551 97.2163 82.8206 97.2163 82.2131C97.2163 80.1477 98.0333 78.4467 99.9399 78.4467C100.41 78.4467 100.707 78.5682 100.881 78.6897V80.1963C101.203 80.415 101.574 80.4636 101.772 80.4636C102.366 80.4636 102.787 80.0748 102.787 79.4673C102.787 78.714 102.094 77.7664 100.064 77.7664C97.2905 77.7664 95.3345 79.5402 95.3345 82.4318C95.3345 85.3477 97.2658 87.0243 99.7418 87.0243C100.386 87.0243 101.376 86.9271 102.812 86.0766V85.1533ZM72.8277 86.8299H77.0864V86.2224L76.1703 86.1252L75.8484 85.8336V85.1776L80.1566 80.5121V85.8336L79.8348 86.1252L78.9434 86.2224V86.8299H83.2021V86.2224L82.187 86.1252L81.8651 85.8336V78.9084L82.187 78.6168L83.2021 78.5196V77.9121H78.9434V78.5196L79.8348 78.6168L80.1566 78.9084V79.4187L75.8484 84.0841V78.9084L76.1703 78.6168L77.0864 78.5196V77.9121H72.8277V78.5196L73.8428 78.6168L74.1647 78.9084V85.8336L73.8428 86.1252L72.8277 86.2224V86.8299ZM147.43 86.8299H150.104V86.2224L149.088 86.1252L148.791 85.785V80.3907C148.791 80.0019 148.742 79.0542 148.148 78.4467C147.504 77.7664 146.34 77.7421 145.894 77.7421C143.146 77.7421 142.18 78.9084 142.18 79.8804C142.18 80.0262 142.23 80.1963 142.329 80.2692C142.428 80.3664 142.7 80.3664 142.775 80.3664H144.087V78.7869C144.557 78.5682 145.077 78.471 145.573 78.471C146.266 78.471 146.513 78.714 146.687 78.8598C147.132 79.2729 147.132 80.1234 147.132 80.5607V81.1925C145.102 81.6542 144.31 81.9701 143.641 82.2374C142.75 82.5776 141.66 83.1607 141.66 84.5458C141.66 85.7122 142.428 86.9757 144.136 86.9757C144.854 86.9757 145.82 86.757 147.182 85.7607L147.43 86.8299ZM147.108 85.129C146.043 85.8093 145.424 85.9551 144.929 85.9551C143.79 85.9551 143.418 85.129 143.418 84.4243C143.418 83.4037 144.136 82.9664 144.731 82.6991C145.399 82.4075 146.315 82.1159 147.132 81.8729V85.129H147.108ZM181.301 86.8299H184V86.2224L182.985 86.1252L182.688 85.785V80.3907C182.688 80.0019 182.638 79.0542 182.044 78.4467C181.4 77.7664 180.236 77.7421 179.791 77.7421C177.042 77.7421 176.077 78.9084 176.077 79.8804C176.077 80.0262 176.126 80.1963 176.225 80.2692C176.324 80.3664 176.597 80.3664 176.671 80.3664H177.983V78.7869C178.454 78.5682 178.974 78.471 179.469 78.471C180.162 78.471 180.41 78.714 180.583 78.8598C181.029 79.2729 181.029 80.1234 181.029 80.5607V81.1925C179.023 81.6542 178.206 81.9701 177.538 82.2374C176.646 82.5776 175.557 83.1607 175.557 84.5458C175.557 85.7122 176.324 86.9757 178.033 86.9757C178.751 86.9757 179.717 86.757 181.078 85.7607L181.301 86.8299ZM181.004 85.129C179.939 85.8093 179.32 85.9551 178.825 85.9551C177.686 85.9551 177.315 85.129 177.315 84.4243C177.315 83.4037 178.033 82.9664 178.627 82.6991C179.296 82.4075 180.212 82.1159 181.029 81.8729V85.129H181.004ZM87.9313 74.4374C87.8322 74.243 87.5846 74 87.1142 74C86.5942 74 86.2228 74.3159 86.2228 74.8748C86.2228 76.0897 87.5846 76.7701 89.2436 76.7701C90.9272 76.7701 92.2643 76.0897 92.2643 74.8748C92.2643 74.2916 91.8929 74 91.3729 74C90.9025 74 90.6796 74.243 90.5558 74.4374V75.8467C90.1844 76.0897 89.8626 76.1869 89.2436 76.1869C88.6246 76.1869 88.2779 76.0897 87.9065 75.8467V74.4374H87.9313Z" fill="#222222"/>
</g>
<defs>
<clipPath id="clip0">
<rect width="147" height="13" fill="white" transform="translate(37 74)"/>
</clipPath>
</defs>
</svg>
