<svg width="221" height="161" viewBox="0 0 221 161" fill="none" xmlns="http://www.w3.org/2000/svg">
<path fill-rule="evenodd" clip-rule="evenodd" d="M39.8179 113.55V118.549C39.8179 119.318 39.8636 119.563 39.2286 119.563C39.1473 119.563 39 119.549 39 119.707C39 119.865 39.0787 119.867 39.16 119.867C39.5004 119.867 39.8534 119.819 40.1938 119.819C40.5342 119.819 40.8644 119.867 41.2098 119.867C41.2885 119.867 41.3571 119.843 41.3571 119.707C41.3571 119.571 41.2098 119.563 41.1184 119.563C40.4935 119.549 40.5265 119.329 40.5265 118.549V116.536C40.5265 116.379 40.5265 116.196 40.6739 116.196C40.7452 116.203 40.8149 116.223 40.8796 116.256L41.3114 116.451C41.4293 116.509 41.5577 116.538 41.6874 116.536C42.6195 116.536 43.4501 115.612 43.4501 114.306C43.453 113.994 43.3958 113.684 43.2822 113.397C43.1686 113.109 43.0009 112.849 42.7897 112.634C42.4477 112.336 42.0129 112.188 41.573 112.22C41.0853 112.22 40.618 112.269 40.1176 112.269C39.8001 112.269 39.48 112.22 39.1626 112.22C39.0711 112.22 39.0025 112.256 39.0025 112.392C39.0025 112.527 39.1524 112.55 39.2311 112.55C39.8687 112.55 39.8103 112.781 39.8103 113.55H39.8179ZM40.524 115.293V113.493C40.524 112.737 40.5596 112.447 41.1844 112.447C41.3755 112.431 41.5673 112.461 41.7461 112.536C41.9248 112.609 42.0861 112.724 42.2182 112.873C42.5419 113.29 42.7118 113.819 42.6957 114.36C42.6957 115.334 42.1623 116.188 41.4003 116.188C41.1444 116.176 40.8962 116.09 40.6815 115.941C40.4884 115.794 40.5342 115.563 40.5342 115.293H40.524Z" fill="#957F55"/>
<path fill-rule="evenodd" clip-rule="evenodd" d="M47.4021 112.025C45.7638 112.025 44.2195 113.768 44.2195 115.99C44.2195 118.212 45.7638 119.963 47.4021 119.963C49.1293 119.963 50.5619 118.332 50.5619 115.99C50.5619 113.649 49.1293 112.025 47.4021 112.025ZM49.1293 113.464C49.5617 114.223 49.7722 115.102 49.7339 115.99C49.77 116.851 49.5761 117.704 49.175 118.451C48.733 119.172 48.1184 119.623 47.4123 119.623C47.0566 119.617 46.7081 119.515 46.4 119.324C46.0919 119.134 45.8344 118.862 45.652 118.536C45.2197 117.768 45.006 116.883 45.0374 115.987C45.008 115.114 45.2087 114.25 45.6165 113.494C45.7971 113.152 46.0576 112.866 46.3725 112.665C46.6873 112.464 47.0457 112.354 47.4123 112.346C48.0955 112.346 48.6975 112.762 49.1293 113.456V113.464Z" fill="#957F55"/>
<path fill-rule="evenodd" clip-rule="evenodd" d="M56.2489 113.929C56.0203 113.929 55.9416 112.368 54.5319 112.368C53.0079 112.368 52.2458 114.122 52.2458 115.952C52.2328 116.789 52.4293 117.614 52.8148 118.342C53.2365 119.112 53.7927 119.634 54.5319 119.634C55.9416 119.634 56.0558 117.73 56.2946 117.73C56.3734 117.73 56.4064 117.804 56.3963 117.891L56.3505 118.878C56.3505 119.256 56.3505 119.28 56.066 119.463C55.5725 119.795 55.0011 119.973 54.4176 119.974C52.759 119.963 51.4458 118.116 51.4458 115.966C51.4458 113.708 52.9367 112.025 54.6081 112.025C55.0999 112.045 55.5847 112.156 56.0407 112.354C56.2946 112.477 56.2667 112.626 56.2946 112.977L56.3505 113.768C56.3505 113.866 56.3277 113.929 56.2489 113.929Z" fill="#957F55"/>
<path fill-rule="evenodd" clip-rule="evenodd" d="M61.7736 113.928C61.5476 113.928 61.4663 112.367 60.0566 112.367C58.5326 112.367 57.7706 114.121 57.7706 115.951C57.7567 116.788 57.9523 117.613 58.337 118.341C58.7587 119.111 59.3149 119.633 60.0541 119.633C61.4638 119.633 61.5781 117.73 61.8168 117.73C61.8955 117.73 61.9311 117.803 61.9185 117.89L61.8727 118.877C61.8727 119.255 61.8727 119.28 61.5908 119.462C61.0972 119.795 60.5258 119.972 59.9423 119.973C58.2811 119.973 56.9629 118.132 56.9629 115.975C56.9629 113.719 58.4513 112.035 60.1226 112.035C60.6145 112.054 61.0993 112.166 61.5552 112.365C61.8092 112.486 61.7838 112.636 61.8092 112.988L61.8651 113.779C61.8651 113.876 61.8448 113.939 61.7635 113.939L61.7736 113.928Z" fill="#957F55"/>
<path fill-rule="evenodd" clip-rule="evenodd" d="M66.8792 112.769C66.9808 112.573 67.1332 112.279 67.3339 112.225H68.3346C68.4363 112.225 68.5506 112.225 68.5506 112.421C68.5506 112.554 68.4134 112.554 68.3219 112.554C67.8444 112.554 67.8571 112.799 67.8571 113.566V118.553C67.8571 119.334 67.8216 119.554 68.4489 119.568C68.5277 119.568 68.6877 119.554 68.6877 119.712C68.6877 119.869 68.6191 119.872 68.5277 119.872C68.1873 119.872 67.8571 119.823 67.5117 119.823C67.1662 119.823 66.8183 119.872 66.4754 119.872C66.3839 119.872 66.3179 119.848 66.3179 119.712C66.3179 119.576 66.4652 119.568 66.5439 119.568C67.1815 119.568 67.1358 119.323 67.1358 118.553V112.897L63.6382 119.611C63.5798 119.706 63.4223 120 63.3181 120C63.214 120 63.2064 119.828 63.2064 119.769V113.623C63.2064 112.853 63.2292 112.608 62.6019 112.535C62.5231 112.535 62.386 112.535 62.386 112.377C62.386 112.219 62.4444 112.206 62.5358 112.206C62.8864 112.206 63.2165 112.255 63.5518 112.255C63.8871 112.255 64.2452 112.206 64.5882 112.206C64.6097 112.204 64.6314 112.206 64.6519 112.213C64.6723 112.221 64.6908 112.234 64.706 112.25C64.7212 112.267 64.7326 112.287 64.7395 112.309C64.7464 112.331 64.7484 112.354 64.7456 112.377C64.7456 112.535 64.5882 112.535 64.5069 112.535C63.8592 112.584 63.9176 112.84 63.9176 113.623V118.306L66.8843 112.769H66.8792Z" fill="#957F55"/>
<path fill-rule="evenodd" clip-rule="evenodd" d="M73.1324 111.439L72.9623 111.597C72.6549 111.926 72.4161 112.141 72.3933 112.685L72.3704 112.94C72.3704 113.038 72.3247 113.185 72.2561 113.185C72.1875 113.185 72.1316 112.965 72.1316 112.807C72.1316 112.807 72.1189 112.209 72.0986 111.831C72.0986 111.559 72.4847 111.086 72.632 110.928C72.9495 110.586 73.0511 110.525 73.0867 109.966V109.476C73.1095 109.171 73.1197 109 73.234 109C73.3483 109 73.394 109.185 73.427 109.544C73.4649 109.761 73.4844 109.981 73.4855 110.202C73.4626 111.018 73.3712 111.203 73.1324 111.447V111.439ZM73.6404 112.769C73.7445 112.574 73.8944 112.28 74.0951 112.225H75.0958C75.1974 112.225 75.3118 112.225 75.3118 112.421C75.3118 112.554 75.1771 112.554 75.0856 112.554C74.6081 112.554 74.6183 112.799 74.6183 113.566V118.553C74.6183 119.334 74.5853 119.554 75.2101 119.568C75.2888 119.568 75.4489 119.554 75.4489 119.712C75.4489 119.869 75.3803 119.872 75.2888 119.872C74.9485 119.872 74.6183 119.823 74.2728 119.823C73.9274 119.823 73.5794 119.872 73.2391 119.872C73.1476 119.872 73.0791 119.848 73.0791 119.712C73.0791 119.576 73.2264 119.568 73.3051 119.568C73.9427 119.568 73.897 119.323 73.897 118.553V112.897L70.3917 119.611C70.3359 119.706 70.1758 120 70.0742 120C69.9726 120 69.96 119.828 69.96 119.769V113.623C69.96 112.853 69.9828 112.608 69.358 112.535C69.2767 112.535 69.1421 112.535 69.1421 112.378C69.1421 112.22 69.198 112.206 69.2894 112.206C69.6425 112.206 69.9701 112.255 70.3054 112.255C70.6407 112.255 70.9988 112.206 71.3392 112.206C71.3608 112.204 71.3826 112.206 71.4031 112.214C71.4237 112.222 71.4423 112.234 71.4577 112.251C71.4731 112.267 71.4848 112.287 71.4919 112.309C71.4991 112.331 71.5016 112.355 71.4992 112.378C71.4992 112.535 71.3392 112.535 71.2605 112.535C70.6128 112.584 70.6686 112.84 70.6686 113.623V118.306L73.6353 112.769H73.6404Z" fill="#957F55"/>
<path fill-rule="evenodd" clip-rule="evenodd" d="M80.8291 113.928C80.6031 113.928 80.5218 112.367 79.1121 112.367C77.588 112.367 76.8261 114.121 76.8261 115.951C76.8122 116.788 77.0078 117.613 77.3925 118.341C77.8142 119.111 78.3704 119.633 79.1096 119.633C80.5192 119.633 80.6335 117.73 80.8723 117.73C80.951 117.73 80.9866 117.803 80.9739 117.89L80.9282 118.877C80.9282 119.255 80.9282 119.28 80.6463 119.462C80.1519 119.796 79.5796 119.973 78.9952 119.973C77.3366 119.973 76.0183 118.132 76.0183 115.975C76.0183 113.719 77.5068 112.035 79.1781 112.035C79.6699 112.054 80.1548 112.166 80.6107 112.365C80.8646 112.486 80.8393 112.636 80.8646 112.988L80.9206 113.779C80.9206 113.876 80.9002 113.939 80.8189 113.939L80.8291 113.928Z" fill="#957F55"/>
<path fill-rule="evenodd" clip-rule="evenodd" d="M81.6722 112.549C81.5935 112.549 81.4437 112.549 81.4437 112.391C81.4437 112.233 81.502 112.219 81.5935 112.219C81.944 112.219 82.2742 112.268 82.6095 112.268C82.9448 112.268 83.3029 112.219 83.6458 112.219C83.6674 112.217 83.6893 112.22 83.7098 112.227C83.7303 112.235 83.749 112.247 83.7643 112.264C83.7797 112.281 83.7914 112.3 83.7986 112.322C83.8058 112.345 83.8083 112.368 83.8058 112.391C83.8058 112.549 83.6458 112.535 83.5519 112.549C82.9499 112.608 82.9625 112.793 82.9625 113.549V115.817C82.9625 115.866 82.9625 116.013 83.0185 116.013C83.0743 116.013 83.0972 115.95 83.12 115.915L84.8269 113.609C84.9285 113.463 85.2689 113.025 85.2689 112.817C85.2689 112.611 85.1216 112.546 84.9869 112.546C84.8955 112.546 84.7126 112.57 84.7126 112.388C84.7104 112.366 84.7127 112.344 84.7191 112.323C84.7256 112.302 84.7361 112.283 84.7501 112.267C84.764 112.25 84.781 112.238 84.8 112.229C84.8189 112.221 84.8394 112.216 84.8599 112.217C85.213 112.217 85.5305 112.266 85.8759 112.266C86.1833 112.266 86.4779 112.217 86.7751 112.217C86.8538 112.217 86.9098 112.252 86.9098 112.374C86.9098 112.557 86.7167 112.546 86.6379 112.546C86.4265 112.526 86.2138 112.568 86.0233 112.668C85.7156 112.884 85.4493 113.161 85.2384 113.484L84.2605 114.8C84.2046 114.874 84.0345 115.056 84.0345 115.178C84.0345 115.301 84.1716 115.472 84.2046 115.531L85.8429 118.3C86.0387 118.643 86.2551 118.974 86.4906 119.287C86.547 119.369 86.6203 119.437 86.7049 119.484C86.7895 119.531 86.883 119.556 86.9783 119.559C87.0698 119.559 87.2171 119.545 87.2171 119.703C87.2171 119.861 87.1053 119.864 87.024 119.864C86.6379 119.864 86.2621 119.815 85.8887 119.815C85.5686 119.815 85.2384 119.864 84.9209 119.864C84.8422 119.864 84.7279 119.864 84.7279 119.728C84.7279 119.592 84.898 119.584 84.9818 119.584C85.152 119.584 85.4569 119.584 85.4569 119.276C85.4002 119.023 85.2918 118.786 85.1393 118.582L83.7195 116.154C83.6839 116.095 83.5696 115.883 83.5036 115.883C83.4375 115.883 83.2649 116.154 83.2293 116.187C83.1277 116.323 82.9575 116.481 82.9575 116.687V118.553C82.9575 119.334 82.9575 119.567 83.5468 119.567C83.6281 119.567 83.8008 119.553 83.8008 119.712C83.8008 119.869 83.7195 119.872 83.6407 119.872C83.2979 119.872 82.9702 119.823 82.6247 119.823C82.2793 119.823 81.9313 119.872 81.5808 119.872C81.4995 119.872 81.4309 119.847 81.4309 119.712C81.4309 119.576 81.5808 119.567 81.6595 119.567C82.2514 119.567 82.2514 119.323 82.2514 118.553V113.549C82.2514 112.793 82.2514 112.608 81.6595 112.549H81.6722Z" fill="#957F55"/>
<path fill-rule="evenodd" clip-rule="evenodd" d="M91.9717 112.769C92.0733 112.573 92.2257 112.279 92.4264 112.225H93.4271C93.5287 112.225 93.643 112.225 93.643 112.421C93.643 112.554 93.5059 112.554 93.4145 112.554C92.9369 112.554 92.9496 112.799 92.9496 113.566V118.553C92.9496 119.334 92.914 119.554 93.5415 119.568C93.6202 119.568 93.7802 119.554 93.7802 119.712C93.7802 119.869 93.7116 119.872 93.6202 119.872C93.2798 119.872 92.9496 119.823 92.6042 119.823C92.2587 119.823 91.9108 119.872 91.5704 119.872C91.479 119.872 91.4104 119.848 91.4104 119.712C91.4104 119.576 91.5602 119.568 91.639 119.568C92.2765 119.568 92.2308 119.323 92.2308 118.553V112.897L88.7205 119.611C88.6621 119.706 88.5046 120 88.4005 120C88.2963 120 88.2861 119.828 88.2861 119.769V113.623C88.2861 112.853 88.309 112.608 87.6842 112.535C87.6054 112.535 87.4683 112.535 87.4683 112.377C87.4683 112.219 87.5267 112.206 87.6156 112.206C87.9686 112.206 88.2989 112.255 88.6316 112.255C88.9644 112.255 89.3251 112.206 89.6679 112.206C89.6894 112.204 89.7113 112.206 89.7317 112.213C89.7521 112.221 89.7706 112.234 89.7858 112.25C89.801 112.267 89.8125 112.287 89.8193 112.309C89.8262 112.331 89.8283 112.354 89.8254 112.377C89.8254 112.535 89.6679 112.535 89.5866 112.535C88.9389 112.584 88.9948 112.84 88.9948 113.623V118.306L91.9641 112.769H91.9717Z" fill="#957F55"/>
<path fill-rule="evenodd" clip-rule="evenodd" d="M98.2253 111.439L98.0526 111.597C97.7478 111.926 97.509 112.141 97.4861 112.685L97.4633 112.94C97.4633 113.038 97.4176 113.185 97.349 113.185C97.2804 113.185 97.2245 112.965 97.2245 112.807C97.2245 112.807 97.2245 112.209 97.1889 111.831C97.1889 111.559 97.575 111.086 97.7249 110.928C98.0424 110.586 98.144 110.525 98.1796 109.966V109.476C98.2024 109.171 98.2126 109 98.3269 109C98.4412 109 98.4869 109.185 98.5199 109.544C98.5577 109.761 98.5764 109.981 98.5758 110.202C98.553 111.018 98.464 111.203 98.2253 111.447V111.439ZM98.7333 112.769C98.8349 112.574 98.9873 112.28 99.1879 112.225H100.189C100.29 112.225 100.405 112.225 100.405 112.421C100.405 112.554 100.267 112.554 100.179 112.554C99.701 112.554 99.7112 112.799 99.7112 113.566V118.553C99.7112 119.334 99.6782 119.554 100.303 119.568C100.382 119.568 100.542 119.554 100.542 119.712C100.542 119.869 100.473 119.872 100.382 119.872C100.041 119.872 99.7112 119.823 99.3658 119.823C99.0203 119.823 98.6723 119.872 98.3294 119.872C98.2405 119.872 98.1719 119.848 98.1719 119.712C98.1719 119.576 98.3192 119.568 98.398 119.568C99.0356 119.568 98.9898 119.323 98.9898 118.553V112.897L95.4846 119.611C95.4262 119.706 95.2687 120 95.1645 120C95.0604 120 95.0528 119.828 95.0528 119.769V113.623C95.0528 112.853 95.0757 112.608 94.4508 112.535C94.3696 112.535 94.2324 112.535 94.2324 112.378C94.2324 112.22 94.2908 112.206 94.3823 112.206C94.7328 112.206 95.063 112.255 95.3983 112.255C95.7335 112.255 96.0917 112.206 96.432 112.206C96.4536 112.204 96.4755 112.206 96.496 112.214C96.5165 112.222 96.5352 112.234 96.5506 112.251C96.5659 112.267 96.5776 112.287 96.5848 112.309C96.592 112.331 96.5945 112.355 96.592 112.378C96.592 112.535 96.432 112.535 96.3533 112.535C95.703 112.584 95.7615 112.84 95.7615 113.623V118.306L98.7282 112.769H98.7333Z" fill="#957F55"/>
<path fill-rule="evenodd" clip-rule="evenodd" d="M104.583 112.549C104.501 112.549 104.354 112.549 104.354 112.391C104.354 112.233 104.41 112.219 104.501 112.219C104.854 112.219 105.185 112.268 105.518 112.268C105.85 112.268 106.211 112.219 106.551 112.219C106.573 112.216 106.595 112.218 106.615 112.226C106.636 112.234 106.655 112.246 106.67 112.263C106.686 112.279 106.698 112.299 106.705 112.322C106.712 112.344 106.714 112.368 106.711 112.391C106.711 112.549 106.551 112.535 106.473 112.549C105.871 112.608 105.88 112.793 105.88 113.549V115.817C105.88 115.866 105.88 116.013 105.939 116.013C105.997 116.013 106.018 115.95 106.041 115.915L107.745 113.609C107.849 113.463 108.19 113.025 108.19 112.817C108.19 112.611 108.042 112.546 107.905 112.546C107.814 112.546 107.633 112.57 107.633 112.388C107.631 112.366 107.633 112.344 107.639 112.323C107.646 112.302 107.657 112.283 107.671 112.267C107.685 112.25 107.701 112.238 107.72 112.229C107.74 112.221 107.76 112.216 107.781 112.217C108.131 112.217 108.451 112.266 108.796 112.266C109.102 112.266 109.398 112.217 109.693 112.217C109.774 112.217 109.83 112.252 109.83 112.374C109.83 112.557 109.637 112.546 109.559 112.546C109.347 112.526 109.134 112.568 108.943 112.668C108.636 112.883 108.369 113.16 108.159 113.484L107.181 114.8C107.125 114.874 106.955 115.056 106.955 115.178C106.99 115.306 107.047 115.427 107.125 115.531L108.761 118.3C108.959 118.643 109.175 118.972 109.409 119.287C109.465 119.369 109.539 119.437 109.624 119.484C109.709 119.531 109.803 119.557 109.898 119.559C109.99 119.559 110.137 119.545 110.137 119.703C110.137 119.861 110.023 119.864 109.944 119.864C109.559 119.864 109.182 119.815 108.807 119.815C108.489 119.815 108.159 119.864 107.841 119.864C107.76 119.864 107.648 119.864 107.648 119.728C107.648 119.592 107.818 119.584 107.903 119.584C108.073 119.584 108.38 119.584 108.38 119.276C108.322 119.023 108.214 118.787 108.062 118.582L106.64 116.154C106.607 116.095 106.493 115.883 106.424 115.883C106.356 115.883 106.186 116.154 106.152 116.187C106.048 116.323 105.878 116.481 105.878 116.687V118.553C105.878 119.334 105.878 119.567 106.47 119.567C106.548 119.567 106.709 119.553 106.709 119.712C106.709 119.869 106.63 119.872 106.548 119.872C106.208 119.872 105.878 119.823 105.533 119.823C105.187 119.823 104.839 119.872 104.486 119.872C104.407 119.872 104.339 119.847 104.339 119.712C104.339 119.576 104.486 119.567 104.567 119.567C105.157 119.567 105.157 119.323 105.157 118.553V113.549C105.157 112.793 105.157 112.608 104.567 112.549H104.583Z" fill="#957F55"/>
<path fill-rule="evenodd" clip-rule="evenodd" d="M112.518 119.562C112.597 119.562 112.757 119.549 112.757 119.706C112.757 119.865 112.678 119.867 112.597 119.867C112.256 119.867 111.926 119.819 111.58 119.819C111.235 119.819 110.887 119.867 110.534 119.867C110.455 119.867 110.387 119.843 110.387 119.706C110.387 119.571 110.534 119.562 110.613 119.562C111.25 119.562 111.205 119.318 111.205 118.548V113.55C111.205 112.78 111.25 112.55 110.613 112.55C110.534 112.55 110.387 112.55 110.387 112.392C110.387 112.234 110.443 112.22 110.534 112.22C110.887 112.22 111.215 112.269 111.551 112.269C111.886 112.269 112.244 112.22 112.584 112.22C112.606 112.217 112.627 112.219 112.648 112.227C112.669 112.235 112.688 112.247 112.703 112.264C112.719 112.28 112.731 112.3 112.738 112.322C112.745 112.345 112.747 112.368 112.744 112.392C112.744 112.55 112.584 112.55 112.506 112.55C111.867 112.55 111.913 112.78 111.913 113.55V115.125C111.913 115.576 111.89 115.576 112.231 115.576H114.771C115.066 115.576 115.089 115.541 115.089 115.125V113.553C115.089 112.783 115.134 112.552 114.499 112.552C114.418 112.552 114.271 112.552 114.271 112.394C114.271 112.236 114.339 112.223 114.43 112.223C114.771 112.223 115.101 112.272 115.447 112.272C115.792 112.272 116.14 112.223 116.483 112.223C116.572 112.223 116.641 112.259 116.641 112.394C116.641 112.53 116.483 112.552 116.402 112.552C115.766 112.552 115.81 112.783 115.81 113.553V118.551C115.81 119.332 115.777 119.552 116.402 119.565C116.483 119.565 116.641 119.552 116.641 119.709C116.641 119.867 116.572 119.87 116.483 119.87C116.14 119.87 115.81 119.821 115.467 119.821C115.124 119.821 114.774 119.87 114.433 119.87C114.342 119.87 114.273 119.845 114.273 119.709C114.273 119.574 114.421 119.565 114.502 119.565C115.137 119.565 115.091 119.32 115.091 118.551V116.376C115.091 115.924 115.091 115.924 114.774 115.924H112.249C111.932 115.924 111.909 115.949 111.909 116.376V118.551C111.909 119.332 111.875 119.552 112.5 119.565L112.518 119.562Z" fill="#957F55"/>
<path fill-rule="evenodd" clip-rule="evenodd" d="M121.624 112.769C121.728 112.573 121.878 112.279 122.078 112.225H123.074C123.176 112.225 123.29 112.225 123.29 112.421C123.29 112.554 123.153 112.554 123.064 112.554C122.587 112.554 122.596 112.799 122.596 113.566V118.553C122.596 119.334 122.564 119.554 123.189 119.568C123.267 119.568 123.428 119.554 123.428 119.712C123.428 119.869 123.359 119.872 123.267 119.872C122.927 119.872 122.596 119.823 122.251 119.823C121.905 119.823 121.558 119.872 121.217 119.872C121.126 119.872 121.058 119.848 121.058 119.712C121.058 119.576 121.205 119.568 121.283 119.568C121.921 119.568 121.875 119.323 121.875 118.553V112.897L118.372 119.611C118.317 119.706 118.157 120 118.055 120C117.954 120 117.941 119.828 117.941 119.769V113.623C117.941 112.853 117.963 112.608 117.339 112.535C117.258 112.535 117.123 112.535 117.123 112.377C117.123 112.219 117.179 112.206 117.27 112.206C117.623 112.206 117.951 112.255 118.286 112.255C118.622 112.255 118.98 112.206 119.32 112.206C119.342 112.204 119.364 112.206 119.384 112.214C119.405 112.221 119.423 112.234 119.439 112.25C119.454 112.267 119.466 112.287 119.473 112.309C119.48 112.331 119.483 112.354 119.48 112.377C119.48 112.535 119.32 112.535 119.241 112.535C118.594 112.584 118.65 112.84 118.65 113.623V118.306L121.616 112.769H121.624Z" fill="#957F55"/>
<path fill-rule="evenodd" clip-rule="evenodd" d="M128.956 115.731L131.426 119.171C131.799 119.714 132.188 119.562 132.188 119.562C132.276 119.562 132.426 119.549 132.426 119.706C132.426 119.864 132.312 119.866 132.233 119.866C131.844 119.866 131.471 119.818 131.096 119.818C130.778 119.818 130.448 119.866 130.127 119.866C130.049 119.866 129.934 119.866 129.934 119.73C129.934 119.595 130.105 119.586 130.189 119.586C130.443 119.586 130.483 119.464 130.483 119.315C130.483 119.165 130.166 118.803 129.937 118.461L128.347 116.084V118.558C128.347 119.143 128.289 119.535 128.926 119.535C129.005 119.535 129.152 119.535 129.152 119.693C129.152 119.851 129.096 119.864 129.005 119.864C128.652 119.864 128.325 119.815 127.989 119.815C127.654 119.815 127.296 119.864 126.955 119.864C126.933 119.866 126.912 119.864 126.891 119.856C126.871 119.849 126.852 119.836 126.837 119.82C126.821 119.803 126.809 119.783 126.802 119.761C126.796 119.739 126.793 119.716 126.796 119.693C126.796 119.535 126.955 119.535 127.034 119.535C127.661 119.535 127.661 119.119 127.661 118.558V116.084L126.056 118.461C125.705 119.004 125.614 119.217 125.614 119.326C125.614 119.511 125.794 119.57 125.921 119.57C126.049 119.57 126.16 119.57 126.16 119.717C126.16 119.864 126.046 119.875 125.967 119.875C125.579 119.875 125.205 119.826 124.829 119.826C124.512 119.826 124.181 119.875 123.864 119.875C123.783 119.875 123.668 119.875 123.668 119.742C123.668 119.608 123.841 119.595 123.923 119.595C124.06 119.586 124.194 119.546 124.316 119.477C124.438 119.408 124.543 119.31 124.626 119.192L127.004 115.703L125.264 113.435C124.776 112.777 124.247 112.497 124.082 112.497C124.001 112.497 123.829 112.497 123.829 112.35C123.829 112.203 123.943 112.217 124.022 112.217C124.341 112.217 124.669 112.266 124.989 112.266C125.375 112.266 125.739 112.217 126.125 112.217C126.206 112.217 126.318 112.242 126.318 112.375C126.318 112.508 126.171 112.522 126.081 112.522C125.794 112.522 125.444 112.557 125.386 112.718C125.327 112.878 125.467 113.107 126.013 113.805L127.661 115.904V113.539C127.661 112.723 127.661 112.587 127.034 112.538C126.955 112.538 126.808 112.538 126.808 112.381C126.808 112.222 126.887 112.209 126.978 112.209C127.331 112.209 127.638 112.258 127.979 112.258C128.319 112.258 128.672 112.209 129.013 112.209C129.034 112.206 129.056 112.209 129.077 112.217C129.097 112.225 129.116 112.237 129.131 112.254C129.147 112.27 129.158 112.29 129.165 112.312C129.172 112.334 129.175 112.357 129.172 112.381C129.172 112.538 129.013 112.525 128.934 112.538C128.332 112.587 128.355 112.709 128.355 113.539V115.904L130.003 113.805C130.55 113.098 130.673 112.867 130.616 112.685C130.557 112.502 130.229 112.489 130.059 112.489C129.98 112.489 129.805 112.489 129.805 112.342C129.805 112.196 129.917 112.209 129.998 112.209C130.315 112.209 130.646 112.258 130.963 112.258C131.349 112.258 131.713 112.209 132.102 112.209C132.18 112.209 132.294 112.234 132.294 112.367C132.294 112.5 132.147 112.513 132.056 112.513C131.541 112.666 131.084 112.985 130.747 113.427L128.97 115.72L128.956 115.731Z" fill="#957F55"/>
<path fill-rule="evenodd" clip-rule="evenodd" d="M134.791 119.562C134.87 119.562 135.027 119.549 135.027 119.706C135.027 119.864 134.948 119.866 134.87 119.866C134.529 119.866 134.199 119.818 133.854 119.818C133.509 119.818 133.16 119.866 132.807 119.866C132.726 119.866 132.66 119.843 132.66 119.706C132.66 119.57 132.807 119.562 132.886 119.562C133.523 119.562 133.478 119.318 133.478 118.548V113.55C133.478 112.78 133.523 112.549 132.886 112.549C132.807 112.549 132.66 112.549 132.66 112.391C132.66 112.234 132.716 112.22 132.807 112.22C133.16 112.22 133.488 112.269 133.823 112.269C134.159 112.269 134.517 112.22 134.857 112.22C134.879 112.217 134.9 112.22 134.921 112.228C134.942 112.235 134.96 112.248 134.975 112.264C134.99 112.281 135.001 112.301 135.008 112.323C135.015 112.345 135.017 112.368 135.015 112.391C135.015 112.549 134.857 112.549 134.779 112.549C134.141 112.549 134.186 112.78 134.186 113.55V115.124C134.186 115.576 134.163 115.576 134.504 115.576H137.044C137.339 115.576 137.362 115.54 137.362 115.124V113.552C137.362 112.783 137.408 112.551 136.769 112.551C136.691 112.551 136.544 112.551 136.544 112.394C136.544 112.236 136.612 112.223 136.704 112.223C137.044 112.223 137.374 112.272 137.72 112.272C138.065 112.272 138.413 112.223 138.753 112.223C138.845 112.223 138.914 112.258 138.914 112.394C138.914 112.53 138.753 112.551 138.675 112.551C138.037 112.551 138.083 112.783 138.083 113.552V118.55C138.083 119.331 138.05 119.552 138.675 119.565C138.753 119.565 138.914 119.552 138.914 119.709C138.914 119.866 138.845 119.869 138.753 119.869C138.413 119.869 138.083 119.82 137.738 119.82C137.392 119.82 137.044 119.869 136.704 119.869C136.612 119.869 136.544 119.845 136.544 119.709C136.544 119.573 136.691 119.565 136.769 119.565C137.408 119.565 137.362 119.32 137.362 118.55V116.375C137.362 115.924 137.362 115.924 137.044 115.924H134.519C134.202 115.924 134.179 115.948 134.179 116.375V118.55C134.179 119.331 134.143 119.552 134.771 119.565L134.791 119.562Z" fill="#957F55"/>
<path fill-rule="evenodd" clip-rule="evenodd" d="M140.202 118.548C140.202 119.318 140.26 119.549 139.622 119.549C139.544 119.549 139.394 119.549 139.394 119.706C139.394 119.864 139.462 119.878 139.554 119.878C139.874 119.878 140.191 119.829 140.509 119.829C141.017 119.829 141.477 119.878 141.964 119.878C142.404 119.91 142.839 119.762 143.181 119.464C143.392 119.249 143.56 118.989 143.674 118.702C143.787 118.414 143.844 118.104 143.842 117.792C143.842 116.487 143.135 115.562 142.079 115.562C141.555 115.562 141.146 115.902 141.063 115.902C140.905 115.902 140.915 115.72 140.915 115.562V113.55C140.915 112.769 140.882 112.549 141.507 112.535C141.599 112.535 141.746 112.535 141.746 112.391C141.746 112.247 141.677 112.231 141.599 112.231C141.245 112.231 140.915 112.28 140.582 112.28C140.25 112.28 139.889 112.231 139.548 112.231C139.468 112.231 139.389 112.255 139.389 112.391C139.389 112.527 139.536 112.535 139.617 112.535C140.252 112.535 140.207 112.78 140.207 113.55V118.548H140.202ZM144.715 113.56V118.548C144.715 119.318 144.738 119.562 144.126 119.562C144.044 119.562 143.897 119.549 143.897 119.706C143.897 119.864 143.966 119.866 144.044 119.866C144.397 119.866 144.738 119.818 145.091 119.818C145.444 119.818 145.761 119.866 146.107 119.866C146.186 119.866 146.264 119.843 146.264 119.706C146.264 119.57 146.107 119.562 146.025 119.562C145.447 119.562 145.434 119.328 145.434 118.548V113.56C145.434 112.793 145.401 112.598 146.025 112.549C146.107 112.549 146.264 112.549 146.264 112.391C146.267 112.368 146.265 112.345 146.258 112.323C146.252 112.301 146.24 112.281 146.225 112.264C146.21 112.248 146.191 112.235 146.171 112.228C146.15 112.22 146.129 112.217 146.107 112.22C145.764 112.22 145.411 112.269 145.07 112.269C144.73 112.269 144.4 112.22 144.055 112.22C143.964 112.22 143.874 112.244 143.874 112.378C143.874 112.511 143.986 112.535 144.067 112.549C144.692 112.598 144.726 112.793 144.726 113.56H144.715ZM140.918 116.805C140.918 116.533 140.872 116.305 141.065 116.158C141.284 116.009 141.535 115.925 141.794 115.916C142.556 115.916 143.089 116.769 143.089 117.743C143.105 118.284 142.935 118.813 142.612 119.23C142.48 119.379 142.319 119.494 142.14 119.568C141.961 119.642 141.769 119.673 141.578 119.657C140.953 119.657 140.918 119.366 140.918 118.61V116.805Z" fill="#957F55"/>
<path fill-rule="evenodd" clip-rule="evenodd" d="M150.72 111.439L150.55 111.597C150.242 111.926 150.003 112.141 149.981 112.685L149.958 112.94C149.958 113.038 149.912 113.185 149.843 113.185C149.774 113.185 149.719 112.965 149.719 112.807C149.719 112.807 149.719 112.209 149.683 111.831C149.683 111.559 150.069 111.086 150.219 110.928C150.536 110.586 150.638 110.525 150.674 109.966V109.476C150.697 109.171 150.707 109 150.821 109C150.936 109 150.981 109.185 151.014 109.544C151.052 109.761 151.071 109.981 151.073 110.202C151.05 111.018 150.959 111.203 150.72 111.447V111.439ZM151.227 112.769C151.332 112.574 151.482 112.28 151.682 112.225H152.683C152.784 112.225 152.899 112.225 152.899 112.421C152.899 112.554 152.761 112.554 152.673 112.554C152.195 112.554 152.205 112.799 152.205 113.566V118.553C152.205 119.334 152.172 119.554 152.797 119.568C152.876 119.568 153.036 119.554 153.036 119.712C153.036 119.869 152.968 119.872 152.876 119.872C152.536 119.872 152.205 119.823 151.86 119.823C151.514 119.823 151.167 119.872 150.823 119.872C150.735 119.872 150.666 119.848 150.666 119.712C150.666 119.576 150.814 119.568 150.892 119.568C151.53 119.568 151.484 119.323 151.484 118.553V112.897L147.978 119.611C147.923 119.706 147.763 120 147.662 120C147.56 120 147.547 119.828 147.547 119.769V113.623C147.547 112.853 147.57 112.608 146.945 112.535C146.864 112.535 146.729 112.535 146.729 112.378C146.729 112.22 146.785 112.206 146.876 112.206C147.227 112.206 147.557 112.255 147.892 112.255C148.228 112.255 148.586 112.206 148.927 112.206C148.948 112.204 148.97 112.206 148.99 112.214C149.011 112.222 149.03 112.234 149.045 112.251C149.06 112.267 149.072 112.287 149.079 112.309C149.086 112.331 149.089 112.355 149.086 112.378C149.086 112.535 148.927 112.535 148.847 112.535C148.197 112.584 148.256 112.84 148.256 113.623V118.306L151.223 112.769H151.227Z" fill="#957F55"/>
<path fill-rule="evenodd" clip-rule="evenodd" d="M161.774 113.903C161.545 113.903 161.466 112.342 160.057 112.342C158.533 112.342 157.771 114.096 157.771 115.926C157.758 116.764 157.954 117.589 158.34 118.317C158.762 119.086 159.317 119.611 160.057 119.611C161.466 119.611 161.581 117.694 161.82 117.694C161.898 117.694 161.931 117.767 161.921 117.855L161.875 118.841C161.875 119.22 161.875 119.244 161.591 119.426C161.098 119.76 160.526 119.939 159.942 119.94C158.284 119.94 156.963 118.097 156.963 115.94C156.963 113.683 158.454 112 160.125 112C160.617 112.019 161.102 112.131 161.558 112.329C161.812 112.451 161.784 112.601 161.812 112.952L161.868 113.743C161.868 113.841 161.845 113.903 161.766 113.903H161.774Z" fill="#957F55"/>
<path fill-rule="evenodd" clip-rule="evenodd" d="M165.672 112C164.036 112 162.49 113.743 162.49 115.965C162.49 118.187 164.036 119.94 165.672 119.94C167.402 119.94 168.835 118.308 168.835 115.965C168.835 113.621 167.402 112 165.672 112ZM167.402 113.439C167.834 114.197 168.043 115.077 168.004 115.965C168.04 116.826 167.847 117.68 167.448 118.429C167.003 119.146 166.389 119.598 165.685 119.598C165.329 119.592 164.98 119.489 164.672 119.299C164.363 119.109 164.105 118.837 163.922 118.51C163.49 117.743 163.276 116.857 163.308 115.962C163.279 115.091 163.48 114.228 163.887 113.474C164.068 113.132 164.329 112.846 164.645 112.646C164.959 112.445 165.318 112.334 165.685 112.326C166.366 112.326 166.968 112.742 167.402 113.436V113.439Z" fill="#957F55"/>
<path fill-rule="evenodd" clip-rule="evenodd" d="M171.527 119.512C170.892 119.512 170.879 119.414 170.879 118.523V116.132H171.994C172.086 118.963 173.414 119.915 174.814 119.915C176.592 119.915 177.608 118.207 177.608 116.013C177.608 113.818 176.561 112.062 174.789 112.062C172.845 112.062 172.106 114.084 171.994 115.681H170.879V113.525C170.879 112.709 170.879 112.583 171.436 112.524C171.517 112.524 171.689 112.524 171.689 112.366C171.692 112.343 171.689 112.32 171.682 112.298C171.675 112.275 171.664 112.256 171.648 112.239C171.633 112.223 171.614 112.21 171.594 112.203C171.573 112.195 171.551 112.192 171.53 112.195C171.189 112.195 170.836 112.243 170.496 112.243C170.155 112.243 169.825 112.195 169.48 112.195C169.388 112.195 169.333 112.23 169.333 112.366C169.333 112.502 169.48 112.513 169.558 112.524C170.183 112.597 170.196 112.706 170.196 113.525V118.523C170.196 119.352 170.183 119.512 169.65 119.512C169.569 119.512 169.421 119.512 169.421 119.67C169.421 119.828 169.48 119.842 169.569 119.842C169.922 119.842 170.252 119.793 170.585 119.793C170.918 119.793 171.278 119.842 171.621 119.842C171.643 119.844 171.664 119.842 171.684 119.834C171.705 119.826 171.723 119.814 171.739 119.797C171.754 119.78 171.765 119.76 171.772 119.739C171.779 119.717 171.781 119.693 171.779 119.67C171.779 119.512 171.621 119.512 171.54 119.512H171.527ZM174.829 119.561C173.417 119.561 172.713 117.585 172.713 115.939C172.713 114.294 173.374 112.268 174.784 112.268C176.193 112.268 176.91 114.365 176.91 116.013C176.91 117.661 176.239 119.561 174.829 119.561Z" fill="#957F55"/>
<path fill-rule="evenodd" clip-rule="evenodd" d="M178.396 118.306C178.624 118.306 178.804 118.695 178.903 118.939C179.028 119.269 179.45 119.647 180.173 119.647C181.116 119.647 181.674 118.684 181.674 117.743C181.674 116.112 180.605 115.864 179.98 115.902C179.949 115.911 179.916 115.914 179.884 115.908C179.851 115.904 179.82 115.891 179.792 115.874C179.764 115.855 179.74 115.83 179.721 115.802C179.702 115.773 179.69 115.741 179.683 115.706C179.65 115.486 179.98 115.499 179.98 115.499C180.979 115.378 181.491 115.157 181.491 113.9C181.491 113.169 181.207 112.353 180.32 112.353C179.114 112.353 178.74 114.376 178.512 114.376C178.433 114.376 178.41 114.317 178.41 114.219L178.467 113.403C178.502 113.06 178.479 112.927 178.72 112.78C179.086 112.56 179.653 112 180.499 112C181.863 112 182.248 112.916 182.248 113.854C182.25 114.281 182.112 114.695 181.858 115.024C181.606 115.352 181.253 115.577 180.862 115.657V115.668C181.794 115.753 182.5 116.718 182.5 117.729C182.5 118.874 181.852 119.997 180.351 119.997C179.043 119.997 178.248 119.132 178.134 118.828C178.042 118.57 178.134 118.303 178.388 118.303L178.396 118.306Z" fill="#957F55"/>
<path fill-rule="evenodd" clip-rule="evenodd" d="M110.485 44.0077L117.754 40H136.779V43.9754L140.861 44.0599V48.0105C142.196 48.1248 143.585 48.0676 144.974 48.0676V52.0803L149.085 52.1374V99.8919L117.782 99.9218L110.485 104.014L103.071 99.8919H71.9053V52.1374L76.0184 52.0803V48.0726H80.0682C80.2125 46.7657 80.1265 45.3718 80.1543 44.0077H84.237L84.3079 40H103.304L110.485 44.0077Z" fill="#957F55"/>
<path fill-rule="evenodd" clip-rule="evenodd" d="M110.485 44.4921L117.898 40.3975H136.343V87.3847H117.723L110.543 91.3919L103.276 87.3847H84.7124V40.3975H103.187L110.485 44.4921Z" fill="white"/>
<path fill-rule="evenodd" clip-rule="evenodd" d="M110.457 45.2031L117.723 41.0811H135.766L135.793 86.6193L135.475 86.7041H117.84L110.543 90.853L103.129 86.7041H85.292L85.2642 41.0811H103.304L110.457 45.2031Z" fill="#957F55"/>
<path fill-rule="evenodd" clip-rule="evenodd" d="M110.457 45.685L117.871 41.5059H135.331V86.2489L117.696 86.2767L110.485 90.3714L103.188 86.2489H85.6973V41.5059H103.188L110.457 45.685Z" fill="white"/>
<path fill-rule="evenodd" clip-rule="evenodd" d="M110.485 46.3383L117.724 42.1318H134.809L134.868 85.5657L117.754 85.6226L110.543 89.7723L103.16 85.5955H86.2188V42.1318H103.277L110.485 46.3383Z" fill="#957F55"/>
<path fill-rule="evenodd" clip-rule="evenodd" d="M110.485 46.8232L117.871 42.5596H134.404L134.425 85.1686L117.658 85.2256L110.477 89.2904L103.304 85.1958H86.6238V55.9195C86.6523 56.2172 86.7414 56.5062 86.8857 56.7696C87.0301 57.0329 87.2267 57.2651 87.4641 57.4525C87.4285 57.5972 87.4228 57.7474 87.4476 57.8943C87.4724 58.0411 87.5271 58.1816 87.6084 58.3072C87.7993 58.5249 88.0509 58.683 88.3323 58.7619C88.3603 58.9733 88.441 59.1746 88.5673 59.3479C88.6936 59.5213 88.8615 59.6614 89.0562 59.7558C89.4612 59.6713 89.2308 60.126 89.4333 60.2676C89.7801 60.7645 90.3876 60.8366 90.9976 60.8067C91.1162 61.1207 91.3289 61.392 91.6077 61.5849C91.8865 61.7779 92.2183 61.8834 92.5593 61.8875C93.6604 61.8875 94.3843 60.8639 95.4853 61.1198C95.7384 61.3484 95.66 61.6888 95.6296 62.0019C94.9057 63.2442 93.43 63.7635 92.4151 64.817C91.4608 65.7835 90.7647 66.8916 90.9394 68.2259C90.9976 69.2498 91.8658 70.1017 92.7618 70.5019C93.7186 70.9265 94.9057 70.9563 95.9486 70.7501C94.7893 72.2559 94.559 74.1889 94.5007 76.122C93.5439 76.2936 92.4151 76.6341 91.519 76.2067C91.1115 76.2067 90.7597 76.6042 90.6204 76.9169C90.4458 79.1063 90.9672 81.1805 91.633 83.1135C91.8379 83.4838 92.0379 84.1078 92.5897 84.08L96.065 84.1377C96.1758 84.1255 96.2791 84.076 96.3578 83.9986C96.4365 83.9206 96.4859 83.8189 96.4978 83.7104C96.4396 82.8307 96.1232 81.8343 95.1968 81.4741C94.8779 81.3595 94.5868 81.4165 94.2122 81.4165C94.1528 80.8596 94.1232 80.3001 94.1236 79.7398C95.7157 80.1671 97.6849 80.0525 98.9884 79.0561C99.3506 78.6241 99.6348 78.1344 99.8288 77.608C100.841 77.9784 101.884 78.2883 102.841 78.7435C102.588 78.9449 102.261 79.1138 102.117 79.4543L102.233 79.8816C104.114 81.074 105.823 82.6143 107.676 83.8888L108.718 84.175L112.135 84.1451C112.26 83.8046 112.295 83.4397 112.24 83.083C112.184 82.7255 112.038 82.3878 111.816 82.1002C111.239 81.4443 110.457 81.2754 109.589 81.2754L106.721 78.9151C106.952 77.722 107.503 76.6788 107.589 75.3915C109.675 75.8466 111.875 75.7889 114.046 75.9877L114.279 76.4129C114.945 78.9449 115.494 81.5311 116.335 83.9762C117.81 84.3161 119.491 84.0034 121.055 84.0875C121.374 83.7748 121.172 83.2627 121.141 82.8653C120.911 81.7298 119.665 81.074 118.623 80.9051L118.389 75.6872H120.503L124.7 83.8738L124.902 84.0156C126.264 84.1872 127.798 83.9885 129.16 84.0434C129.537 83.298 129.218 82.5526 128.841 81.9408C128.595 81.6044 128.275 81.327 127.904 81.1303C127.532 80.9329 127.121 80.821 126.699 80.8033C125.598 77.8461 124.498 74.8923 123.629 71.8211C125.163 69.8331 126.413 67.6992 127.771 65.6245C127.945 65.5101 128.089 65.2269 128.35 65.3412C128.524 65.4257 128.466 65.6518 128.436 65.7661C128.35 65.8804 128.183 65.8506 128.264 66.0146C128.408 66.1466 128.588 66.2376 128.781 66.2779C128.974 66.3181 129.176 66.3061 129.362 66.2431C129.59 66.1403 129.79 65.9864 129.946 65.794C130.102 65.6015 130.21 65.3758 130.261 65.135C130.313 64.9207 130.311 64.6973 130.256 64.4839C130.199 64.2705 130.093 64.0736 129.942 63.9101C129.653 63.6268 129.218 63.6268 128.813 63.6268L130.81 59.9893C131.043 59.8179 131.273 59.5346 131.57 59.7607C131.8 59.9893 131.337 60.357 131.686 60.444C132.235 60.3297 132.901 59.9322 132.987 59.3359C133.02 59.1342 132.997 58.9275 132.921 58.7375C132.845 58.5474 132.718 58.3808 132.554 58.255C132.39 58.1315 132.194 58.0552 131.988 58.0345C131.781 58.0139 131.574 58.0498 131.387 58.1382C132.372 54.6995 133.918 49.2979 130.345 46.6542C129.884 46.4275 129.353 46.3762 128.856 46.5102C128.324 46.7749 127.904 47.2146 127.669 47.7525C127.611 48.0656 127.583 48.4358 127.843 48.6618C128.097 48.8333 128.395 48.6047 128.684 48.719C129.813 50.2272 128.973 52.3019 128.335 53.7802C126.694 56.6129 124.441 59.0581 121.733 60.9434C121.27 60.0042 120.78 58.8961 120.923 57.7308C121.177 56.4239 122.457 55.1443 123.789 54.8312C124.396 54.6324 124.976 54.9455 125.56 55.0573C125.849 54.2622 125.505 53.4671 125.097 52.8211C124.373 51.8819 123.245 51.5788 122.116 51.5987C121.103 50.1079 119.278 50.0061 117.559 50.1477C116.517 50.3191 115.474 50.7738 114.431 50.2918L114.373 50.4036C115.33 52.1677 113.766 53.7578 113.563 55.4921C113.505 55.8052 113.158 56.3742 113.766 56.3742C113.591 56.9705 113.302 57.5395 113.158 58.1358C113.272 58.3072 113.505 58.2501 113.679 58.3072C113.679 58.9035 112.667 59.6415 113.532 59.9843L113.416 60.3248C110.548 57.5916 107.392 54.7243 104.671 51.6558C104.003 50.7465 103.279 49.6682 103.628 48.5003C103.744 48.294 103.886 48.1029 104.051 47.9313C104.129 48.0658 104.257 48.1662 104.407 48.2123C104.558 48.2583 104.721 48.2467 104.863 48.1799C105.238 47.9513 105.152 47.4344 105.065 47.1288C104.959 46.9306 104.793 46.768 104.592 46.6614C104.391 46.5549 104.162 46.5092 103.935 46.53C103.443 46.617 103.066 47.0269 102.75 47.3847C101.821 47.2133 101.56 48.4059 101.155 48.9476C100.75 48.9178 100.722 49.3451 100.548 49.5737C100.403 50.2545 100.171 50.8806 100.228 51.6484C99.4466 52.1031 99.882 53.2112 99.8516 54.0063C100.105 54.8883 100.287 55.8251 100.808 56.5928C100.581 56.62 100.362 56.6952 100.168 56.8131C99.9728 56.9311 99.8063 57.089 99.6795 57.2761C99.4857 57.7369 99.4651 58.2503 99.6212 58.7246C99.8516 59.0377 100.113 59.4079 100.548 59.4079C100.742 59.4197 100.936 59.3797 101.109 59.2922C101.283 59.2048 101.429 59.0731 101.532 58.911C101.504 58.6277 101.097 58.7694 101.069 58.4563C101.133 58.3273 101.233 58.2188 101.358 58.1433C102.17 58.6849 102.876 59.5098 103.618 60.1633C103.155 60.1906 102.575 60.2204 102.14 60.5036C101.56 61.0726 101.474 61.8975 101.618 62.6652C101.703 62.8367 101.825 62.9876 101.976 63.1071C102.127 63.2266 102.303 63.3116 102.491 63.356C102.727 63.3923 102.968 63.3669 103.19 63.2823C103.413 63.1976 103.608 63.0567 103.757 62.874C103.874 62.3895 102.859 62.5883 103.294 62.1286L103.583 62.1857L106.461 65.5921C104.316 65.4804 101.973 65.3437 99.9452 65.6791C98.6417 65.9052 97.6672 67.0159 96.9914 68.0669C96.0067 68.636 94.645 69.0334 93.5439 68.5492C93.351 68.4539 93.189 68.3075 93.0767 68.1265C92.9644 67.9455 92.9061 67.7372 92.9086 67.5252C93.1111 65.9922 94.9057 65.3387 95.8321 64.0865C96.7585 63.1199 97.5128 61.9845 97.1938 60.6477C96.2675 57.5494 91.4305 55.9866 92.5315 52.2894C92.5011 52.1776 92.4454 52.0907 92.329 52.0907C91.5469 52.0907 90.9394 52.7168 90.6204 53.333C90.3374 53.4786 90.0979 53.694 89.9252 53.958C89.7526 54.222 89.6529 54.5254 89.6358 54.8386L89.8105 55.8623C88.7677 56.0338 87.6387 56.2872 86.8263 55.435L86.6238 55.5766V42.5596H103.16L110.485 46.8232Z" fill="white"/>
<path fill-rule="evenodd" clip-rule="evenodd" d="M84.2496 87.7827L103.246 87.8397L110.485 91.9045L117.899 87.8125H136.779L136.807 44.4629L140.426 44.4355L140.457 91.3924H117.754L110.485 95.46L103.246 91.3924H80.5718V44.4355H84.2218L84.2496 87.7827Z" fill="white"/>
<path fill-rule="evenodd" clip-rule="evenodd" d="M131.478 48.2435C133.101 51.4562 131.914 55.4341 130.901 58.5895C129.279 61.2059 127.8 63.8769 125.839 66.3217L123.351 69.0224C123.263 68.5143 123.204 68.0018 123.176 67.4871L123.581 67.3454C126.679 63.452 130.213 59.6431 131.314 54.8949C131.833 52.3084 132.213 48.9541 129.925 47.0484C129.82 46.9638 129.696 46.9064 129.563 46.8816C129.43 46.8568 129.294 46.8655 129.165 46.9068C128.701 47.6522 129.888 47.8733 130.063 48.4994C131.627 51.6251 130.122 55.1508 128.529 57.7945C127.264 60.2667 124.733 62.314 122.619 64.1899C122.561 63.9838 122.512 63.7748 122.475 63.5638C125.862 59.9537 129.684 56.3161 130.205 51.4288C130.322 49.9803 130.177 48.5019 128.99 47.5926C128.737 47.5354 128.527 47.8187 128.469 48.0175C128.469 48.1317 128.438 48.2659 128.497 48.3603C128.337 48.405 128.171 48.4235 128.006 48.415C127.8 48.246 127.917 47.8485 128.034 47.6497C128.266 47.2497 128.672 46.8248 129.135 46.7378C130.177 46.5689 131.015 47.4485 131.478 48.246V48.2435Z" fill="white"/>
<path fill-rule="evenodd" clip-rule="evenodd" d="M104.751 47.2482L104.81 47.4196C104.575 47.4257 104.344 47.4823 104.134 47.5853C103.923 47.6883 103.739 47.8353 103.592 48.0159C102.833 49.0396 103.42 50.3763 104.027 51.2857C108.111 56.8563 115.727 60.7522 117 67.6023C114.722 67.0606 112.629 68.1415 111.006 69.7043C109.298 67.0606 107.154 64.5611 104.838 62.1436C104.261 61.6889 103.651 60.864 102.899 61.2913C102.752 61.3878 102.646 61.5327 102.6 61.6997C102.553 61.8667 102.57 62.0446 102.646 62.2007C102.809 62.4717 103.051 62.6894 103.34 62.8269C103.051 63.1672 102.557 62.884 102.241 62.7399C101.775 62.4566 101.805 61.8877 101.922 61.4627C102.036 61.1199 102.21 60.7522 102.588 60.6379C104.817 59.8428 105.918 62.5138 107.278 63.7064C108.523 65.3835 109.857 67.0333 110.897 68.8246C110.986 68.9365 111.216 69.0233 111.333 68.8816C111.535 68.653 111.419 68.2557 111.275 68.0272L109.943 66.1811L101.891 57.311C100.793 55.8053 100.271 54.0436 100.183 52.1106L100.241 51.9963C100.443 56.6575 105.628 59.1024 108.177 62.6802C109.508 64.4692 110.897 66.2606 112.115 68.1465C112.153 68.1618 112.193 68.1695 112.234 68.1693C112.275 68.1691 112.316 68.1609 112.353 68.1452C112.391 68.1295 112.425 68.1065 112.454 68.0778C112.483 68.0489 112.505 68.0149 112.52 67.9775C112.462 67.1228 111.761 66.442 111.305 65.7413C108.553 62.4715 105.367 59.4875 102.557 56.2997C100.907 54.3965 99.8083 51.6957 101.054 49.2806C100.041 54.1679 105.339 56.8687 108.032 60.3372C110.046 62.5315 111.84 64.9112 113.388 67.4433C113.439 67.4862 113.5 67.5163 113.566 67.531C113.631 67.5457 113.7 67.5446 113.765 67.5278C114.256 66.7824 113.512 66.0792 113.069 65.4531C110.031 61.8156 106.467 58.4614 103.281 54.9083C102.124 53.1442 100.357 51.2137 101.509 48.9452C101.798 48.5203 101.973 47.8942 102.55 47.6681C100.929 50.7937 103.562 53.3231 105.562 55.5419L110.624 60.8267C112.072 62.8467 113.55 64.8642 114.823 66.9687C114.94 67.0259 115.114 67.1104 115.259 67.0259C115.547 66.7402 115.375 66.3426 115.228 66.032C113.695 63.4182 111.262 61.1149 109.09 58.7844C106.685 56.1108 103.618 53.666 102.459 50.4558C102.256 49.2334 102.4 47.9712 103.357 47.1861C103.704 46.8159 104.544 46.704 104.747 47.2705L104.751 47.2482Z" fill="white"/>
<path fill-rule="evenodd" clip-rule="evenodd" d="M131.134 49.4097C132.147 54.2994 129.947 58.7892 126.993 62.541C125.806 63.9622 124.3 65.13 123.085 66.5164L122.883 65.2095L123.26 65.0678C126.993 60.3197 132.002 55.7157 130.76 49.2904C130.533 48.5855 130.111 47.956 129.542 47.4717C130.383 47.7847 130.873 48.6643 131.134 49.4047V49.4097Z" fill="white"/>
<path fill-rule="evenodd" clip-rule="evenodd" d="M104.752 47.9041C104.709 47.9513 104.648 47.9804 104.584 47.9855C104.52 47.9906 104.455 47.9712 104.405 47.9314C104.456 47.8986 104.514 47.8789 104.575 47.8742C104.636 47.8694 104.696 47.8797 104.752 47.9041Z" fill="white"/>
<path fill-rule="evenodd" clip-rule="evenodd" d="M129.945 50.4605C129.945 53.8719 128.236 56.5428 126.181 59.1021C124.994 60.4959 123.487 61.4624 122.184 62.5805L121.837 61.2165C124.849 59.1691 127.542 56.0981 129.018 52.9725C129.481 51.5786 129.859 49.6753 128.815 48.4231C128.874 48.2243 129.104 48.3684 129.221 48.4231C129.77 48.9921 129.859 49.7325 129.945 50.4704V50.4605Z" fill="white"/>
<path fill-rule="evenodd" clip-rule="evenodd" d="M80.1388 91.8193L103.188 91.877L110.485 95.9418L117.899 91.8471H140.861L140.892 48.5H144.539V95.4297L117.668 95.4867L110.485 99.4946L103.246 95.4596H76.4889L76.4307 48.5H80.1388V91.8193Z" fill="#4B79BB"/>
<path fill-rule="evenodd" clip-rule="evenodd" d="M121.923 51.8547C123.11 51.8547 124.201 52.138 124.905 53.097C125.243 53.5684 125.398 54.1433 125.34 54.7171C123.748 54.0362 121.748 54.3493 120.278 55.0028C120.075 54.8587 120.048 54.5481 120.048 54.2921C120.193 53.8231 120.454 53.3964 120.807 53.0498C120.837 52.9654 120.721 52.9355 120.69 52.8809C120.227 53.0498 119.931 53.5344 119.476 53.676C119.415 53.1344 119.939 52.8511 119.88 52.3119C119.997 52.3392 120.134 52.3119 120.134 52.1703V52.0833C119.457 51.7938 118.747 51.5845 118.02 51.4597C117.643 51.487 117.44 51.9144 117.238 52.1405L117.149 52.0833C117.063 51.8001 117.643 51.6013 117.265 51.338C117.094 51.3652 116.947 51.8771 116.716 51.7355C116.802 51.4523 117.324 51.1963 117.036 50.9404C116.803 51.0691 116.62 51.2689 116.514 51.5094C116.223 51.2609 116.6 50.9404 116.686 50.6547C118.458 50.2 120.858 50.2 121.928 51.8498L121.923 51.8547Z" fill="white"/>
<path fill-rule="evenodd" clip-rule="evenodd" d="M119.577 52.5076C119.535 52.5718 119.471 52.6188 119.396 52.6398C119.322 52.6608 119.242 52.6545 119.172 52.6219C119.111 52.566 119.07 52.4926 119.054 52.4121C119.039 52.3318 119.05 52.2485 119.086 52.1747C119.288 52.0033 119.751 52.1747 119.577 52.5151V52.5076Z" fill="white"/>
<path fill-rule="evenodd" clip-rule="evenodd" d="M92.1544 52.4229C91.2862 56.0355 95.8322 57.7102 96.9054 60.6395C97.28 63.3105 94.6274 64.533 93.053 66.3542C92.7341 66.8511 92.5012 67.435 92.7062 68.0313C93.0226 68.7994 93.8629 69.112 94.6755 69.0551C95.941 68.9404 97.3104 68.6576 97.8875 67.3505C98.381 66.6399 99.2214 66.0138 100.062 66.1082V66.1653C98.7 66.394 98.2646 67.9568 97.1661 68.7248C96.2093 69.5495 94.8881 69.7184 93.5744 69.5197C93.053 69.3779 92.4152 69.2362 92.1544 68.64C91.6912 67.758 92.038 66.7046 92.5898 65.9964C93.8351 64.3764 96.875 63.2385 95.8803 60.965C94.8096 59.9985 93.7946 61.2781 92.6961 61.3054C92.1898 61.3626 91.8557 61.1066 91.509 60.8507L91.4786 60.6793C92.4354 60.396 93.4782 59.9115 94.5489 60.1103C94.5854 60.0809 94.6129 60.042 94.6281 59.9982C94.6433 59.9542 94.6457 59.907 94.6349 59.8618C94.3464 59.5761 93.825 59.6904 93.4478 59.7749C92.4354 60.0233 91.4229 60.3712 90.2915 60.2867C90.1168 60.1451 89.8283 60.0382 89.7701 59.7749C91.0356 59.5264 92.319 59.0072 93.6225 59.1488C93.739 59.0941 93.7086 58.95 93.6807 58.8655C93.2175 58.617 92.6075 58.781 92.1443 58.8655C91.1014 59.0072 89.8283 59.7749 88.874 58.95L88.9019 58.8382L92.2987 58.1375C92.4152 58.1375 92.6177 58.3363 92.7062 58.1102C92.2987 57.5412 91.547 58.053 90.9977 58.0804C90.2155 58.309 89.2587 58.4779 88.4209 58.2244C88.2463 58.053 87.9552 57.8816 87.9856 57.5983C89.0252 57.5232 90.0597 57.3896 91.0837 57.1983C91.2002 57.2555 91.4305 57.3424 91.547 57.2555C91.6912 57.0567 91.4026 57.0293 91.3141 56.9151C89.9827 56.6666 88.2767 57.8245 87.2895 56.5747C87.2197 56.4175 87.1803 56.249 87.1731 56.0777C88.2463 56.6741 89.4031 55.966 90.4763 56.2765C90.8812 55.966 90.2434 55.5957 90.2232 55.1982C90.156 54.9941 90.1316 54.7789 90.1517 54.5653C90.1717 54.3518 90.2356 54.1444 90.3396 53.9559C90.4535 53.8714 90.5421 53.7074 90.6863 53.7074C90.709 54.6811 91.0778 55.6163 91.7292 56.3511C91.7594 56.3404 91.7869 56.3233 91.8096 56.301C91.8325 56.2788 91.85 56.252 91.8611 56.2224C91.8722 56.1928 91.8766 56.1612 91.8738 56.1298C91.8712 56.0983 91.8616 56.0678 91.8456 56.0405C91.3217 55.2156 90.6863 54.2192 91.1495 53.1956C91.4684 52.9123 91.6988 52.4502 92.162 52.4278L92.1544 52.4229Z" fill="white"/>
<path fill-rule="evenodd" clip-rule="evenodd" d="M75.9953 95.8273L76.3142 95.9121H103.16L110.485 100.007L117.871 95.9121H144.916L145.002 95.6014V52.5352L148.68 52.5078V99.4947H117.754L110.485 103.53L103.16 99.4947H72.3479L72.3782 52.5078H75.9953V95.8273Z" fill="#D45743"/>
<path fill-rule="evenodd" clip-rule="evenodd" d="M115.524 56.5155C115.529 56.2021 115.602 55.8932 115.737 55.609C115.872 55.3248 116.066 55.0716 116.307 54.8657C116.623 54.6728 116.977 54.5474 117.347 54.498C116.681 54.9528 116.015 55.7777 115.524 56.5155Z" fill="white"/>
<path fill-rule="evenodd" clip-rule="evenodd" d="M117.957 55.377C117.175 56.3708 116.856 57.5386 116.479 58.6741C116.307 57.7075 116.393 56.6292 117.088 55.9186C117.333 55.6763 117.63 55.4912 117.957 55.377Z" fill="white"/>
<path fill-rule="evenodd" clip-rule="evenodd" d="M119 56.1748C118.362 57.196 118.101 58.3911 117.84 59.5837C117.638 58.2495 117.84 56.8282 119 56.1748Z" fill="white"/>
<path fill-rule="evenodd" clip-rule="evenodd" d="M102.117 58.0515C101.864 57.7385 101.538 57.5968 101.218 57.7385C101.083 57.8045 100.969 57.9056 100.888 58.0309C100.807 58.1561 100.763 58.3008 100.76 58.4491C100.791 58.6479 100.993 58.8193 101.107 58.961C100.854 59.1299 100.53 58.9883 100.297 58.8193C100.124 58.7085 99.9885 58.5481 99.9107 58.3597C99.8329 58.1713 99.8157 57.964 99.8616 57.7658C99.8616 57.3683 100.211 57.1124 100.53 56.9434C101.456 56.5732 101.628 57.5968 102.122 58.0515H102.117Z" fill="white"/>
<path fill-rule="evenodd" clip-rule="evenodd" d="M132.668 58.846C132.699 58.9879 132.7 59.1346 132.67 59.2767C132.64 59.4188 132.58 59.553 132.493 59.6709L132.147 59.9542C132.088 59.6709 132.058 59.2733 131.684 59.159C131.19 59.1019 130.812 59.4995 130.552 59.8697L128.35 63.8774C128.494 64.1905 128.899 63.85 129.19 63.9047C129.378 63.9169 129.557 63.9868 129.703 64.1045C129.848 64.2222 129.952 64.3817 130 64.5607C130.117 64.9284 129.914 65.2414 129.767 65.5545C129.665 65.7061 129.521 65.8266 129.353 65.9021C129.184 65.9776 128.997 66.0053 128.813 65.9819C128.906 65.8837 128.969 65.7616 128.995 65.6297C129.021 65.4977 129.008 65.3614 128.958 65.2365C128.867 65.1175 128.749 65.0219 128.613 64.9579C128.476 64.8938 128.326 64.8632 128.175 64.8687C127.482 65.152 127.191 65.9198 126.785 66.4888C125.837 68.1712 124.783 69.7941 123.629 71.3486L123.455 70.0416C124.411 69.244 125.019 68.1361 125.746 67.1695C127.654 64.3569 129.542 61.4549 131.273 58.5851C131.681 58.1876 132.46 58.2721 132.665 58.8335L132.668 58.846Z" fill="white"/>
<path fill-rule="evenodd" clip-rule="evenodd" d="M105.157 62.8261C107.182 65.0623 109.181 67.373 110.746 69.8473C110.746 69.9891 110.629 70.0468 110.543 70.0963L110.08 69.671C108.371 66.8561 106.114 64.2423 103.795 61.6832C103.696 61.6234 103.583 61.5896 103.466 61.5848C103.35 61.58 103.234 61.6045 103.129 61.6558L102.899 61.9688C102.755 61.8546 102.927 61.472 103.152 61.457C103.962 61.5415 104.512 62.2794 105.15 62.8211L105.157 62.8261Z" fill="white"/>
<path fill-rule="evenodd" clip-rule="evenodd" d="M122.589 70.67C122.647 68.4321 122.354 66.1988 121.721 64.0485C121.923 66.4064 122.359 68.9086 122.039 71.296C122.098 68.7098 121.896 66.0784 120.966 63.7926C120.938 63.7926 120.91 63.7627 120.88 63.7627C121.518 66.2648 121.893 69.2287 121.374 71.9221C121.487 69.0503 121.316 66.1231 120.157 63.6783H120.098C120.708 66.4113 121.141 69.7903 120.389 72.66C120.561 69.4478 120.592 65.9815 119.055 63.3652L118.969 63.4223C120.071 66.0933 120.071 69.1371 119.782 72.1486L119.635 72.5759C119.665 69.1643 119.723 65.497 117.898 62.739C117.868 62.7408 117.839 62.7534 117.818 62.7745C117.796 62.7956 117.784 62.8236 117.782 62.8534C119.319 65.4125 119.086 68.5952 119.047 71.7512C118.795 68.737 118.731 65.6113 117.544 62.9105C117.644 62.7653 117.76 62.6318 117.891 62.5129L118.65 63.5366L119.288 62.3614L120.157 63.3851L120.506 62.416C120.708 62.5875 120.852 62.985 121.083 63.2409L121.402 62.2471C122.211 64.8907 122.88 67.7133 122.589 70.6598V70.67Z" fill="white"/>
<path fill-rule="evenodd" clip-rule="evenodd" d="M117.059 67.9721C117.089 68.1137 117.144 68.2205 117.175 68.3696C114.973 67.7708 113.006 68.9089 111.412 70.3299L111.181 69.9894C112.657 68.4541 114.598 67.4876 116.798 67.828L117.051 67.9721H117.059Z" fill="white"/>
<path fill-rule="evenodd" clip-rule="evenodd" d="M117.213 68.7101C117.262 68.8566 117.281 69.0105 117.271 69.1645C115.246 68.5385 113.332 69.6617 111.827 70.9558L111.596 70.5854C113.13 69.1916 115.071 68.0266 117.213 68.7101Z" fill="white"/>
<path fill-rule="evenodd" clip-rule="evenodd" d="M116.681 69.3366L117 71.0411L116.479 71.0139L116.046 69.319C116.258 69.3013 116.471 69.3115 116.681 69.3488V69.3366Z" fill="white"/>
<path fill-rule="evenodd" clip-rule="evenodd" d="M116.2 71.0138C116.17 71.0681 116.084 71.0138 116.026 71.0409L115.504 69.3636C115.593 69.3636 115.823 69.192 115.823 69.4206L116.2 71.0138Z" fill="white"/>
<path fill-rule="evenodd" clip-rule="evenodd" d="M114.828 71.2965L114.135 69.761L115.148 69.3906L115.755 71.068L114.828 71.2965Z" fill="white"/>
<path fill-rule="evenodd" clip-rule="evenodd" d="M117.347 69.5053C117.408 70.0743 117.522 70.6135 117.58 71.1826L117.261 71.068L117.03 69.3906L117.347 69.5053Z" fill="white"/>
<path fill-rule="evenodd" clip-rule="evenodd" d="M114.393 71.5245L113.583 70.0466L113.874 69.875L114.568 71.4377L114.393 71.5245Z" fill="white"/>
<path fill-rule="evenodd" clip-rule="evenodd" d="M112.89 73.4547L110.804 70.3862L110.948 70.1875L113.034 73.3435L112.89 73.4547Z" fill="white"/>
<path fill-rule="evenodd" clip-rule="evenodd" d="M113.497 72.0636L112.687 70.6128L113.352 70.1875L114.104 71.6091L113.497 72.0636Z" fill="white"/>
<path fill-rule="evenodd" clip-rule="evenodd" d="M107.088 72.6599C107.898 74.9335 106.835 76.9533 106.392 79.0553L109.548 81.615C110.505 81.615 111.459 81.8138 111.827 82.7803C111.97 83.0631 112.029 83.6322 111.796 83.8608C110.928 84.2012 111.333 83.1777 110.928 82.8942C110.523 82.3828 109.829 82.4968 109.308 82.2953C107.846 81.3098 106.461 80.2171 105.165 79.0281L104.268 77.4084C104.615 77.2667 105.281 77.4654 105.311 76.9811C104.615 76.8394 103.747 77.1521 103.226 76.6976C103.985 76.4989 104.876 76.526 105.658 76.3273C105.717 76.1014 105.486 76.1014 105.339 76.1286H102.725L102.491 75.8803L105.782 75.51C105.868 75.453 105.81 75.3682 105.84 75.2841L102.026 75.1892L101.853 74.9409L106.081 74.6303C106.139 74.5733 106.111 74.4587 106.111 74.382L101.535 74.3251C101.418 74.2403 101.449 74.0965 101.39 73.9819L105.792 73.6712C105.878 73.6142 105.82 73.5274 105.85 73.4426L101.158 73.3585C101.158 73.2439 100.955 72.9882 101.188 72.9611C102.547 72.8464 103.909 72.7596 105.271 72.6477C105.387 72.6179 105.329 72.5032 105.357 72.4191C103.967 72.3045 102.489 72.3622 101.072 72.3344L101.188 71.9369L103.764 71.6513C103.737 71.5666 103.823 71.4526 103.678 71.4031L101.593 71.4329C102.78 70.4936 104.75 70.6875 106.023 71.4031C106.5 71.7171 106.873 72.1621 107.096 72.6823L107.088 72.6599Z" fill="white"/>
<path fill-rule="evenodd" clip-rule="evenodd" d="M113.209 72.2628C112.956 71.8355 112.54 71.3234 112.449 70.8418C112.737 71.2969 112.991 71.7717 113.209 72.2628Z" fill="white"/>
<path fill-rule="evenodd" clip-rule="evenodd" d="M112.889 72.5477L111.991 71.2414L112.135 71.0996C112.467 71.5384 112.724 72.0275 112.894 72.5477H112.889Z" fill="white"/>
<path fill-rule="evenodd" clip-rule="evenodd" d="M110.224 74.0237L110.08 74.337C109.994 73.2559 109.616 72.2622 109.212 71.2686C110.052 71.9495 110.629 72.9459 110.224 74.0237Z" fill="white"/>
<path fill-rule="evenodd" clip-rule="evenodd" d="M117.666 71.5242L117.724 72.0336C116.046 71.3228 114.568 72.3768 113.264 73.1718L113.034 72.8313C114.249 71.6931 115.929 70.9253 117.666 71.5242Z" fill="white"/>
<path fill-rule="evenodd" clip-rule="evenodd" d="M108.86 73.4853L108.627 74.3379C108.569 73.3442 108.164 72.4889 107.845 71.6045C108.139 71.8297 108.382 72.1125 108.556 72.436C108.731 72.7596 108.833 73.1157 108.858 73.4806L108.86 73.4853Z" fill="white"/>
<path fill-rule="evenodd" clip-rule="evenodd" d="M111.703 73.5998L111.528 74.4245C111.528 73.6791 111.181 73.0009 110.948 72.29C111.361 72.617 111.632 73.085 111.707 73.5998H111.703Z" fill="white"/>
<path fill-rule="evenodd" clip-rule="evenodd" d="M117.957 80.9051L117.58 80.8203L116.74 72.5469H117.377L117.957 80.9051Z" fill="white"/>
<path fill-rule="evenodd" clip-rule="evenodd" d="M116.335 75.7314C116.249 75.8162 116.132 75.7586 116.015 75.7884L115.466 72.7749C115.697 72.7179 115.957 72.6331 116.19 72.5762L116.335 75.7314Z" fill="white"/>
<path fill-rule="evenodd" clip-rule="evenodd" d="M98.2291 73.2295L97.1584 72.889C97.5052 72.8021 97.9178 73.0009 98.2291 73.2295Z" fill="white"/>
<path fill-rule="evenodd" clip-rule="evenodd" d="M122.445 74.0823L123.083 73.2568L125.892 80.9321L122.445 74.0823Z" fill="white"/>
<path fill-rule="evenodd" clip-rule="evenodd" d="M98.7278 74.2532L96.4978 73.4284L96.5864 73.3145L98.6695 74.1121L98.7278 74.2532Z" fill="white"/>
<path fill-rule="evenodd" clip-rule="evenodd" d="M98.8441 75.19L96.0649 74.1122L96.1231 73.9678L98.8441 75.0489V75.19Z" fill="white"/>
<path fill-rule="evenodd" clip-rule="evenodd" d="M121.721 75.1356C121.662 74.9342 121.953 74.8223 122.039 74.6514L124.3 79.541L121.724 75.1356H121.721Z" fill="white"/>
<path fill-rule="evenodd" clip-rule="evenodd" d="M98.8161 76.0417L95.7737 74.8215L95.804 74.6777L98.8161 75.8728V76.0417Z" fill="white"/>
<path fill-rule="evenodd" clip-rule="evenodd" d="M98.6415 76.6978V76.7548L95.6294 75.6173L95.6016 75.4756C96.614 75.8459 97.6265 76.3004 98.6389 76.6978H98.6415Z" fill="white"/>
<path fill-rule="evenodd" clip-rule="evenodd" d="M98.2947 77.4084C97.3683 77.1595 96.4115 76.6976 95.4851 76.3544V76.2432C96.4393 76.6108 97.4239 76.9886 98.2947 77.4084Z" fill="white"/>
<path fill-rule="evenodd" clip-rule="evenodd" d="M97.7734 77.8907C96.9517 77.7117 96.1611 77.416 95.427 77.0117L97.7734 77.8907Z" fill="white"/>
<path fill-rule="evenodd" clip-rule="evenodd" d="M95.4574 77.7214L95.427 77.6074L97.1659 78.2877L95.4574 77.7214Z" fill="white"/>
<path fill-rule="evenodd" clip-rule="evenodd" d="M93.8933 81.5854C94.0654 81.7841 94.5008 81.6152 94.7893 81.6993C95.0047 81.7149 95.2128 81.7828 95.3949 81.8967C95.577 82.0107 95.7272 82.1673 95.8321 82.3532C96.0833 82.7954 96.2043 83.298 96.1814 83.804C95.8904 83.9179 95.6296 83.8311 95.2829 83.861C95.1665 83.3197 95.1665 82.5519 94.4729 82.2684C94.0654 82.0425 93.6022 82.0697 93.1112 82.0202C92.9886 81.0448 93.0279 80.0559 93.2276 79.0928C94.3843 79.3193 93.6022 80.7701 93.8933 81.5928V81.5854Z" fill="white"/>
<path fill-rule="evenodd" clip-rule="evenodd" d="M120.736 82.8073L120.911 83.6619L120.389 83.7168C120.475 82.6954 119.607 81.8136 118.709 81.4433C118.623 81.4155 118.455 81.3863 118.564 81.2744C119.463 81.3863 120.475 81.8706 120.736 82.8073Z" fill="white"/>
<path fill-rule="evenodd" clip-rule="evenodd" d="M128.729 82.4402C128.916 82.8289 129.014 83.2528 129.018 83.6821C128.061 84.1942 128.671 82.972 128.294 82.6885C128.118 82.3792 127.882 82.1065 127.599 81.8868C127.316 81.6677 126.991 81.5049 126.644 81.4093C126.816 81.1603 127.34 81.2946 127.628 81.4093C128.104 81.6168 128.492 81.9776 128.729 82.4328V82.4402Z" fill="white"/>
<path fill-rule="evenodd" clip-rule="evenodd" d="M120.012 83.0632C120.042 83.3495 120.157 83.6621 119.926 83.8086C119.649 83.7625 119.367 83.7435 119.086 83.7517C119.23 83.0408 118.883 82.3307 118.448 81.7637C118.801 81.8308 119.131 81.9868 119.405 82.2154C119.679 82.4446 119.888 82.739 120.012 83.0707V83.0632Z" fill="white"/>
</svg>
