<svg width="221" height="161" viewBox="0 0 221 161" fill="none" xmlns="http://www.w3.org/2000/svg">
<path d="M70.4299 74.1543H66.4716C65.6339 74.1543 65.1829 74.5544 65.1829 75.2792V86.6738C65.2196 86.9762 65.3643 87.2538 65.5899 87.4551C65.8154 87.6573 66.1061 87.7687 66.4072 87.7687C66.7082 87.7687 66.999 87.6573 67.2245 87.4551C67.45 87.2538 67.5948 86.9762 67.6315 86.6738V82.8879H70.5404C73.5781 82.8879 75.677 81.093 75.677 78.5442C75.677 75.9954 73.5229 74.1543 70.4299 74.1543ZM70.3562 80.8043H67.6499V76.2096H70.3562C71.9487 76.2096 73.5045 76.6465 73.5045 78.5254C73.5045 80.2183 71.9948 80.8043 70.3562 80.8043Z" fill="#009DCA"/>
<path d="M100.227 73.9043C96.0483 73.9043 93.0198 76.8523 93.0198 80.9081C93.0198 84.963 96.0483 87.9119 100.227 87.9119C102.068 87.9119 104.83 87.4005 104.83 85.968C104.803 85.7127 104.684 85.4771 104.495 85.3057C104.307 85.1344 104.062 85.0384 103.808 85.0376C103.472 85.0684 103.144 85.1635 102.842 85.3169C102.036 85.6878 101.16 85.8806 100.274 85.884C99.6082 85.9132 98.9437 85.8061 98.3211 85.5688C97.6979 85.3314 97.1287 84.969 96.6477 84.5038C96.1669 84.0386 95.7842 83.48 95.5226 82.8606C95.2612 82.2421 95.1265 81.5764 95.1265 80.903C95.1265 80.2304 95.2612 79.5648 95.5226 78.9462C95.7842 78.3268 96.1669 77.7682 96.6477 77.303C97.1287 76.8369 97.6979 76.4754 98.3211 76.238C98.9437 76.0007 99.6082 75.8936 100.274 75.9228C101.106 75.9365 101.928 76.113 102.694 76.4437C102.986 76.5739 103.297 76.6527 103.615 76.6758C103.86 76.6758 104.094 76.5782 104.266 76.4034C104.439 76.2286 104.536 75.9922 104.536 75.7454C104.564 74.4715 102.031 73.9043 100.227 73.9043Z" fill="#009DCA"/>
<path d="M84.155 73.9048C79.9758 73.9048 76.9473 76.8528 76.9473 80.9086C76.9473 84.9636 79.9758 87.9124 84.155 87.9124C88.3343 87.9124 91.372 84.973 91.372 80.9086C91.374 79.9637 91.1867 79.0281 90.821 78.1585C90.4555 77.2889 89.9192 76.5024 89.2448 75.8479C88.5703 75.1933 87.7716 74.6836 86.8968 74.3495C86.022 74.0153 85.0893 73.8645 84.155 73.9048ZM84.155 85.9968C83.4943 86.0053 82.8387 85.8794 82.228 85.6241C81.6173 85.3697 81.0644 84.9918 80.6027 84.5138C80.1412 84.0357 79.7806 83.4686 79.5431 82.8457C79.3055 82.222 79.1959 81.5572 79.221 80.8898C79.1959 80.2232 79.3055 79.5584 79.5432 78.9356C79.7808 78.3136 80.1415 77.7464 80.6032 77.2692C81.065 76.792 81.618 76.4151 82.2286 76.1615C82.8394 75.9079 83.4947 75.7819 84.155 75.7931C84.8229 75.7802 85.4865 75.9036 86.1059 76.1563C86.7253 76.409 87.2878 76.786 87.7598 77.2632C88.2317 77.7413 88.6033 78.3101 88.8522 78.9364C89.1012 79.5627 89.2225 80.2335 89.2087 80.9086C89.22 81.582 89.0969 82.2511 88.8468 82.8757C88.5969 83.5011 88.225 84.0683 87.7535 84.5446C87.2819 85.021 86.7204 85.3971 86.1022 85.6498C85.4839 85.9017 84.8218 86.0268 84.155 86.0148V85.9968Z" fill="#009DCA"/>
<path d="M147.267 73.9221C147.11 73.9016 146.95 73.9161 146.799 73.965C146.648 74.013 146.51 74.0943 146.393 74.2023C146.277 74.3102 146.185 74.443 146.124 74.5904C146.063 74.7378 146.036 74.8971 146.042 75.0573V86.4699C146.042 87.2795 146.76 87.5674 147.377 87.5674H151.63C154.539 87.5674 156.352 86.0141 156.352 83.5219C156.352 80.0709 153.14 79.55 151.225 79.55H148.463V75.0573C148.471 74.8997 148.445 74.742 148.386 74.5964C148.328 74.4499 148.238 74.318 148.124 74.21C148.011 74.1021 147.875 74.0207 147.727 73.971C147.579 73.9213 147.422 73.905 147.267 73.9221ZM150.948 81.8752C153.02 81.8752 154.198 82.229 154.198 83.5587C154.198 85.2148 152.707 85.1959 151.216 85.1959H148.454V81.8752H150.948Z" fill="#EE303C"/>
<path d="M161.425 87.6881C161.582 87.7078 161.741 87.6941 161.892 87.6453C162.042 87.5973 162.181 87.5159 162.297 87.408C162.414 87.3 162.506 87.1672 162.567 87.0199C162.627 86.8717 162.656 86.7123 162.649 86.553V75.9397H165.521C166.515 75.9397 166.588 75.2141 166.588 75.0102C166.582 74.8765 166.548 74.7463 166.49 74.6272C166.432 74.5072 166.351 74.401 166.251 74.3145C166.151 74.2271 166.035 74.162 165.91 74.1217C165.784 74.0814 165.652 74.0669 165.521 74.0797H157.328C157.197 74.0669 157.064 74.0814 156.939 74.1217C156.813 74.162 156.698 74.2271 156.598 74.3145C156.498 74.401 156.417 74.5072 156.359 74.6272C156.301 74.7463 156.267 74.8765 156.26 75.0102C156.26 75.2329 156.344 75.9397 157.328 75.9397H160.2V86.553C160.194 86.7123 160.222 86.8717 160.282 87.0199C160.342 87.1672 160.435 87.3 160.551 87.408C160.668 87.5159 160.806 87.5973 160.957 87.6453C161.108 87.6941 161.268 87.7078 161.425 87.6881Z" fill="#EE303C"/>
<path d="M118.086 85.5221L112.563 80.3131L117.165 76.2205C117.874 75.5788 118.086 75.2901 118.086 74.9371C118.056 74.6441 117.914 74.3742 117.691 74.1858C117.467 73.9964 117.18 73.9022 116.889 73.9227C116.705 73.9244 116.522 73.9639 116.352 74.0393C116.183 74.1146 116.03 74.2235 115.904 74.3605L109.736 80.3971V74.974C109.736 74.202 109.101 73.9227 108.512 73.9227C108.363 73.9047 108.211 73.9185 108.067 73.9622C107.922 74.0058 107.788 74.0795 107.673 74.1789C107.558 74.2774 107.465 74.3991 107.399 74.5353C107.333 74.6724 107.295 74.8215 107.288 74.974V86.6753C107.288 87.4198 107.942 87.6896 108.512 87.6896C108.659 87.7076 108.808 87.6948 108.95 87.6536C109.092 87.6117 109.225 87.5414 109.339 87.4463C109.454 87.3521 109.548 87.2347 109.616 87.1019C109.684 86.97 109.726 86.8243 109.736 86.6753V80.4528L116.18 86.8612C116.806 87.4754 117.101 87.6896 117.571 87.6896C117.782 87.6896 118.859 87.6425 118.859 86.7592C118.878 86.3497 118.611 86.0241 118.086 85.5221Z" fill="#EE303C"/>
<path d="M130.853 74.9358C130.853 74.3404 130.172 73.9215 129.555 73.9215C129.336 73.9146 129.118 73.9703 128.929 74.0842C128.739 74.1982 128.586 74.3644 128.488 74.5632L125.385 80.7771L122.026 74.582C121.936 74.3824 121.791 74.2136 121.608 74.0962C121.424 73.9789 121.212 73.918 120.995 73.9215C120.359 73.9215 119.66 74.3498 119.66 74.9358C119.658 75.1072 119.699 75.2768 119.78 75.4285L124.033 83.409L122.633 86.1993C122.558 86.3501 122.514 86.5146 122.504 86.6834C122.504 87.2788 123.213 87.6969 123.839 87.6969C124.055 87.6978 124.265 87.6369 124.447 87.5221C124.63 87.4065 124.776 87.242 124.87 87.0458L130.725 75.419C130.798 75.2683 130.842 75.1038 130.853 74.9358Z" fill="#EE303C"/>
<path d="M143.152 75.177C143.155 75.0211 143.125 74.8651 143.066 74.7212C143.005 74.5773 142.916 74.4479 142.803 74.3408C142.691 74.2337 142.557 74.1515 142.41 74.1001C142.264 74.0487 142.109 74.029 141.956 74.0418H134.214C134.057 74.023 133.898 74.0392 133.748 74.0881C133.598 74.1369 133.46 74.2183 133.344 74.3254C133.227 74.4333 133.135 74.5653 133.074 74.7118C133.013 74.8591 132.984 75.0176 132.99 75.177V81.4089C132.99 83.902 131.783 85.2788 130.642 85.7345C129.814 86.0781 129.721 86.3206 129.721 86.7386C129.721 86.9622 129.804 87.6691 130.789 87.6691C131.667 87.6502 132.51 87.3212 133.173 86.7386C134.619 85.5949 135.493 83.3717 135.493 80.7955V75.8187H140.777V86.5527C140.804 86.8637 140.944 87.1533 141.172 87.3641C141.399 87.5748 141.697 87.6913 142.006 87.6913C142.315 87.6913 142.612 87.5748 142.84 87.3641C143.067 87.1533 143.208 86.8637 143.235 86.5527L143.152 75.177Z" fill="#EE303C"/>
<path d="M206.696 83.708C206.337 83.8742 205.992 84.0704 205.665 84.294C205.26 84.5356 204.965 84.6847 204.745 84.7866L203.971 85.1679C203.646 85.3383 203.294 85.4514 202.932 85.5028C202.656 85.5028 202.517 85.4103 202.517 85.2424C202.594 84.9391 202.735 84.6564 202.932 84.4148C203.594 83.4381 204.441 82.2198 204.441 81.6244C204.441 81.178 204.165 80.8242 203.852 80.8242C203.648 80.8345 203.445 80.8593 203.245 80.8987L202.913 80.9544L203.834 79.9315L204.46 79.3549C204.635 79.2264 204.77 79.0482 204.846 78.8434C204.846 78.4528 204.671 78.0527 204.404 78.1272C204.275 78.1272 204.064 78.3311 203.751 78.6849L202.83 79.671L201.275 81.2054L200.419 82.0339C199.912 82.4983 199.654 82.8238 199.645 82.9635C199.599 83.1442 199.565 83.3276 199.544 83.5126C199.294 83.612 199.056 83.7405 198.835 83.8939C198.434 84.1338 198.019 84.3479 197.592 84.5356C197.178 84.7026 196.819 84.8517 196.571 84.9357C196.276 85.053 195.966 85.1216 195.65 85.1404C195.42 85.1404 195.31 85.0376 195.31 84.8054C195.393 84.3488 195.582 83.9179 195.862 83.5495C196.123 83.1468 196.408 82.7621 196.718 82.3963C196.875 82.1821 197.215 81.8386 197.638 81.3828C197.878 81.1035 197.988 80.945 197.988 80.8705C197.988 80.4061 197.823 80.1457 197.491 80.0711C197.381 80.0711 197.16 80.1542 196.847 80.4061C196.566 80.6006 196.304 80.8216 196.064 81.0658C195.885 81.2363 195.694 81.3948 195.494 81.5404L194.785 82.0339C194.785 82.0339 194.785 81.8566 194.905 81.5781C194.986 81.3597 195.035 81.1309 195.051 80.8987C195.051 80.4061 194.831 80.0429 194.536 80.0429C194.325 80.108 194.125 80.2082 193.947 80.341L193.027 80.8987L191.572 81.8291C191.845 81.3836 192.035 80.8919 192.133 80.3778C192.133 80.006 191.94 79.9032 191.664 79.9032C191.535 79.9032 191.37 80.0891 191.167 80.5081C190.943 81.0067 190.685 81.4882 190.394 81.9499C190.063 82.4417 189.701 82.9112 189.307 83.3541C189.255 83.4304 189.196 83.5024 189.133 83.5683C189.103 83.5281 189.066 83.4938 189.024 83.4681C188.981 83.4424 188.933 83.4261 188.884 83.4193C188.57 83.4681 188.271 83.5897 188.009 83.7731C187.127 84.3051 186.192 84.7446 185.22 85.0847C185.064 85.0847 184.963 84.9451 184.963 84.6375C185.042 84.0027 185.346 83.4175 185.818 82.9917C186.411 82.6962 186.933 82.2738 187.346 81.7546C187.686 81.4093 187.928 80.9793 188.046 80.5081C188.038 80.3504 187.975 80.1996 187.869 80.0831C187.763 79.9657 187.622 79.8895 187.466 79.8664C187.171 79.8852 186.892 80.0069 186.675 80.2108C186.407 80.4678 186.157 80.7445 185.929 81.0384L184.815 82.5454L183.803 82.9917C183.374 83.1322 182.927 83.2042 182.477 83.2059H182.044C182.109 83.0937 182.311 82.7313 182.624 82.1547L183.076 81.3639C183.394 80.903 183.666 80.4104 183.885 79.8938C183.9 79.8244 183.898 79.7516 183.88 79.683C183.863 79.6136 183.829 79.5494 183.783 79.4954C183.736 79.4414 183.678 79.3994 183.613 79.3712C183.548 79.3438 183.478 79.3318 183.407 79.336C183.213 79.336 182.956 79.6428 182.652 80.2665C182.348 80.8893 182.237 81.0572 182.183 81.1309L181.575 82.1453L181.142 82.8984C180.964 82.7698 180.777 82.655 180.581 82.5548C180.314 82.4803 179.955 82.9455 179.955 83.1871C179.953 83.3644 180.015 83.5366 180.13 83.6703L180.241 83.7637C180.001 83.9033 179.652 84.1166 179.172 84.4242C178.534 84.8346 177.855 85.1773 177.147 85.4471C176.791 85.5851 176.414 85.6605 176.034 85.6708C175.794 85.6708 175.554 85.3358 175.554 85.0282L176.383 84.5167C176.94 84.1698 177.461 83.7679 177.939 83.3173C178.292 82.9446 178.618 82.5462 178.915 82.1264C179.237 81.6681 179.422 81.1258 179.448 80.5638C179.449 80.4018 179.389 80.245 179.279 80.126C179.17 80.0069 179.02 79.934 178.859 79.9221C178.244 79.9786 177.664 80.2322 177.202 80.6477C176.703 81.0324 176.26 81.4865 175.886 81.9962C175.471 82.5402 175.137 83.1417 174.892 83.7825C174.552 83.8845 174.165 84.0241 173.787 84.1732C173.658 84.1732 173.345 84.3591 172.793 84.6195L172.149 84.8894C172.062 84.6212 172.009 84.3428 171.993 84.0609V83.7919C171.992 83.6077 172.032 83.4261 172.112 83.2616C172.677 82.9292 173.221 82.5625 173.741 82.1641C173.973 82.0125 174.181 81.8283 174.358 81.615C174.522 81.4248 174.606 81.178 174.597 80.927C174.597 80.5732 174.432 80.3967 174.119 80.3967C173.803 80.4147 173.492 80.4841 173.198 80.6014C172.835 80.7162 172.5 80.9064 172.213 81.1592C171.95 81.4179 171.724 81.7118 171.541 82.0339C171.42 82.2541 171.324 82.488 171.256 82.7313C170.838 83.1588 170.361 83.5229 169.838 83.8099C169.525 84.043 169.258 84.21 169.056 84.3402C168.704 84.6041 168.298 84.7849 167.868 84.8706C167.95 84.5056 168.103 84.1603 168.319 83.857C168.439 83.6146 168.725 83.1965 169.138 82.5822C169.379 82.2155 169.648 81.8668 169.94 81.5404C170.278 81.1857 170.586 80.8028 170.86 80.3967C170.915 80.1457 170.758 79.9777 170.409 79.9777C170.299 79.9777 170.004 80.2382 169.488 80.7779C169.049 81.208 168.655 81.6818 168.31 82.1915C167.74 83.122 167.325 83.7825 167.086 84.1912C166.817 84.5878 166.626 85.0333 166.525 85.5028C166.525 85.801 166.699 86.07 167.316 86.07C167.673 85.9698 168.01 85.8061 168.31 85.5868C168.85 85.2827 169.375 84.9725 169.884 84.6564C170.069 84.5347 170.259 84.4225 170.455 84.3214L170.851 84.0986L171.035 85.0282V85.5962C170.535 86.01 169.996 86.3716 169.424 86.6748C168.991 86.9636 168.678 87.1401 168.503 87.2891C167.777 87.8006 167.408 88.2187 167.371 88.5168C167.334 88.8141 167.657 89.1217 168.034 89.1217C168.467 89.0866 168.889 88.9666 169.277 88.7679C169.812 88.5314 170.326 88.2478 170.814 87.9214C171.161 87.6926 171.493 87.4408 171.808 87.1683C171.931 87.0809 172.036 86.9687 172.115 86.8393C172.195 86.71 172.247 86.5652 172.269 86.4144C172.293 86.2139 172.293 86.0109 172.269 85.8095C172.82 85.4437 173.406 85.1319 174.017 84.88L174.625 84.6658C174.616 84.7986 174.616 84.9322 174.625 85.0659C174.621 85.3949 174.71 85.7179 174.882 85.9963C175.002 86.1711 175.163 86.3116 175.352 86.4041C175.541 86.4975 175.75 86.5395 175.96 86.5258C176.32 86.5361 176.68 86.4915 177.028 86.3956C177.437 86.2705 177.837 86.1154 178.224 85.9312C178.757 85.6562 179.271 85.3461 179.761 85.0008L179.458 85.5217C179.184 85.9295 178.967 86.3741 178.813 86.8428C178.815 86.9224 178.833 87.0004 178.868 87.0724C178.901 87.1443 178.95 87.2086 179.01 87.26C179.07 87.3114 179.14 87.35 179.215 87.3731C179.291 87.3954 179.37 87.4014 179.448 87.3911C179.578 87.3911 179.761 87.224 179.964 86.889L180.526 85.9586C180.903 85.4197 181.241 84.8543 181.539 84.2657C181.629 84.2469 181.723 84.2469 181.815 84.2657C181.9 84.2777 181.987 84.2777 182.072 84.2657C182.808 84.1586 183.536 84.007 184.254 83.8099C184.154 84.1903 184.093 84.5801 184.07 84.9725C184.07 85.4934 184.291 85.9029 184.889 85.9029C185.299 85.8926 185.704 85.7984 186.076 85.6236C186.224 85.5679 186.62 85.3632 187.264 85.0376C187.761 84.796 188.102 84.6101 188.304 84.5073L188.111 84.7215C187.899 84.9725 187.678 85.1961 187.476 85.4189C187.043 85.8841 186.859 86.1634 186.859 86.2568C186.858 86.3836 186.903 86.5078 186.986 86.6037C187.07 86.6997 187.184 86.7614 187.31 86.7777C187.476 86.7777 188.046 86.2842 189.003 85.2612C189.547 84.6846 189.924 84.2751 190.228 84.0147C190.851 83.4158 191.516 82.8624 192.216 82.3595C192.648 82.0082 193.111 81.6964 193.597 81.4291C193.283 82.1187 192.853 82.7476 192.327 83.289C192.005 83.6052 191.811 83.8382 191.692 83.9684C191.287 84.4336 191.066 84.7309 191.066 84.898C191.068 85.0539 191.125 85.203 191.229 85.3186C191.333 85.4334 191.474 85.5054 191.627 85.5217C191.747 85.5217 192.023 85.3263 192.438 84.9545L193.671 83.8845C194.175 83.3867 194.738 82.9523 195.346 82.5916C195.144 82.9455 194.951 83.3267 194.785 83.6891C194.555 84.0318 194.408 84.4233 194.352 84.8329C194.332 84.9845 194.347 85.1379 194.395 85.2818C194.444 85.4257 194.525 85.5568 194.632 85.6639C194.739 85.771 194.869 85.8524 195.012 85.9004C195.155 85.9475 195.307 85.9612 195.457 85.9398C196.314 85.8335 197.15 85.5919 197.933 85.2235C198.277 85.0625 198.611 84.8826 198.936 84.6846L197.408 86.8985L196.073 88.8792C195.668 89.5029 195.327 89.9956 195.061 90.4325C194.731 90.9097 194.459 91.4246 194.251 91.9678C194.251 92.1905 194.508 92.3028 194.757 92.3028C195.005 92.3028 195.254 91.8932 195.797 91.0656L197.804 88.0979C198.356 87.2334 198.908 86.3681 199.497 85.5217L200.869 83.3267C201.149 83.0089 201.457 82.7193 201.79 82.4614C202.237 82.0707 202.776 81.8017 203.355 81.6801C203.474 81.6801 203.548 81.7358 203.548 81.866C203.471 82.1547 203.329 82.422 203.134 82.6473L202.766 83.2059C202.343 83.857 202.112 84.2469 202.02 84.4148C201.82 84.7232 201.691 85.0727 201.643 85.4377C201.624 85.5645 201.635 85.6939 201.675 85.8147C201.714 85.9363 201.781 86.0469 201.871 86.1368C201.961 86.2276 202.07 86.2953 202.19 86.3356C202.31 86.3758 202.438 86.387 202.563 86.3681C202.958 86.3356 203.345 86.2448 203.714 86.0983C204.199 85.9252 204.67 85.7136 205.122 85.466C205.565 85.2278 205.989 84.9571 206.393 84.6564C206.779 84.3771 206.991 84.1638 207 84.0798C206.982 83.7919 206.889 83.6617 206.696 83.708ZM176.199 82.954C176.627 82.2644 177.168 81.6535 177.801 81.1498C177.99 80.9484 178.234 80.8062 178.5 80.7402C178.63 80.7402 178.666 80.7968 178.657 80.927C178.554 81.1917 178.411 81.4402 178.234 81.6612C177.976 82.0168 177.686 82.3466 177.368 82.6473C176.946 83.1348 176.421 83.5195 175.831 83.7731C175.836 83.7422 175.836 83.7105 175.831 83.6797C176.015 83.2985 176.154 83.0569 176.199 82.954Z" fill="#231F20"/>
<path d="M17.6836 71.4568C17.8121 71.4431 17.9417 71.4431 18.0702 71.4568L45.8519 79.9676C46.0871 80.0173 46.2991 80.145 46.4542 80.3309C46.6094 80.5159 46.6986 80.749 46.708 80.9914C46.6962 81.2296 46.6096 81.4584 46.4607 81.6443C46.3118 81.8302 46.1081 81.963 45.8795 82.0238L18.0334 90.4969C17.9268 90.5166 17.8178 90.5166 17.7112 90.4969C17.5471 90.5063 17.3829 90.4815 17.2286 90.4241C17.0742 90.3667 16.933 90.2784 16.8134 90.1645C16.6938 90.0506 16.5983 89.9135 16.5326 89.761C16.467 89.6093 16.4327 89.4448 16.4317 89.2786V72.7222C16.4204 72.562 16.4416 72.4009 16.4942 72.2484C16.5467 72.0968 16.6293 71.9571 16.7371 71.8389C16.8448 71.7207 16.9754 71.6256 17.1207 71.5596C17.2661 71.4945 17.4231 71.4594 17.5823 71.4568H17.6836ZM17.6836 69.0014C17.1963 68.9877 16.7112 69.0742 16.2581 69.2559C15.8051 69.4383 15.3936 69.7116 15.0488 70.0595C14.7041 70.4082 14.4334 70.8237 14.2533 71.282C14.0732 71.7395 13.9875 72.2296 14.0015 72.7222V89.2786C13.9927 89.7695 14.082 90.2579 14.264 90.7128C14.4459 91.1686 14.7168 91.5824 15.0605 91.9294C15.4042 92.2764 15.8136 92.5505 16.2642 92.7339C16.7149 92.9181 17.1977 93.008 17.6836 92.9994C18.054 93.0046 18.4231 92.954 18.779 92.8504L46.5515 84.3858C47.2899 84.1888 47.943 83.7501 48.4089 83.1384C48.875 82.5267 49.1276 81.7771 49.1276 81.0051C49.1276 80.2332 48.875 79.4836 48.4089 78.8719C47.943 78.2602 47.2899 77.8215 46.5515 77.6245L18.7606 69.1505C18.4109 69.0468 18.0479 68.9971 17.6836 69.0014Z" fill="url(#paint0_linear)"/>
<path d="M55.6371 69.0017C55.2736 68.9906 54.9106 69.0343 54.5601 69.1319L26.8889 77.5314C26.1116 77.7053 25.4162 78.1422 24.9178 78.7693C24.4194 79.3973 24.1477 80.1778 24.1477 80.9823C24.1477 81.7868 24.4194 82.5673 24.9178 83.1944C25.4162 83.8224 26.1116 84.2585 26.8889 84.4332L32.4121 86.1261L36.6558 84.8145L27.5701 82.0241C26.7232 81.791 26.5575 81.2522 26.5575 80.9352C26.5717 80.6644 26.6816 80.4074 26.8675 80.2112C27.0532 80.015 27.3026 79.8925 27.5701 79.866L55.2321 71.4948C55.3637 71.4811 55.4963 71.4811 55.6279 71.4948H55.6831C55.8379 71.4991 55.9902 71.5351 56.1313 71.5993C56.2725 71.6636 56.3996 71.7552 56.5057 71.8692C56.6117 71.9831 56.6944 72.1176 56.7492 72.2641C56.8039 72.4098 56.8295 72.5657 56.8246 72.7225V89.2789C56.835 89.4443 56.811 89.6096 56.7541 89.7656C56.697 89.9206 56.6084 90.062 56.4938 90.1802C56.3793 90.2984 56.2413 90.3918 56.089 90.4527C55.9366 90.5135 55.7732 90.5418 55.6095 90.5349C55.4605 90.534 55.3122 90.5152 55.1677 90.4792L40.8534 86.1261L36.6189 87.4095L54.5509 92.8601C54.9046 92.9578 55.2706 93.0014 55.6371 92.9903C56.1173 92.9894 56.5925 92.8918 57.0351 92.7033C57.4777 92.5148 57.879 92.2398 58.2155 91.8937C58.5521 91.5476 58.8172 91.138 58.9956 90.6874C59.174 90.2368 59.2621 89.7553 59.2548 89.2695V72.7225C59.2621 72.2367 59.174 71.7552 58.9956 71.3046C58.8172 70.854 58.5521 70.4444 58.2155 70.0983C57.879 69.7522 57.4777 69.4772 57.0351 69.2887C56.5925 69.1002 56.1173 69.0026 55.6371 69.0017Z" fill="url(#paint1_linear)"/>
<path style="mix-blend-mode:multiply" opacity="0.4" fill-rule="evenodd" clip-rule="evenodd" d="M28.0854 71.9775L27.1189 74.2376L32.4947 75.8748L36.6924 74.6009L28.0854 71.9775Z" fill="url(#paint2_linear)"/>
<path style="mix-blend-mode:multiply" opacity="0.4" fill-rule="evenodd" clip-rule="evenodd" d="M45.2349 79.7633L46.2014 77.4938L40.8256 75.8574L36.6279 77.1408L45.2349 79.7633Z" fill="url(#paint3_linear)"/>
<path style="mix-blend-mode:multiply" opacity="0.4" fill-rule="evenodd" clip-rule="evenodd" d="M45.9622 87.6418L40.9085 86.1074L36.7017 87.3814L45.1521 89.9584L45.9622 87.6418Z" fill="url(#paint4_linear)"/>
<path style="mix-blend-mode:multiply" opacity="0.4" fill-rule="evenodd" clip-rule="evenodd" d="M27.4688 84.5539L32.5225 86.0978L36.7385 84.8144L28.2788 82.2373L27.4688 84.5539Z" fill="url(#paint5_linear)"/>
<defs>
<linearGradient id="paint0_linear" x1="14.0015" y1="81.0009" x2="49.1289" y2="81.0009" gradientUnits="userSpaceOnUse">
<stop offset="0.01" stop-color="#009DCA"/>
<stop offset="0.19" stop-color="#1AA8D3"/>
<stop offset="0.56" stop-color="#4CBBE4"/>
<stop offset="0.84" stop-color="#6AC7EF"/>
<stop offset="1" stop-color="#76CCF3"/>
</linearGradient>
<linearGradient id="paint1_linear" x1="24.1273" y1="81.0003" x2="59.264" y2="81.0003" gradientUnits="userSpaceOnUse">
<stop stop-color="#F38175"/>
<stop offset="0.2" stop-color="#F2776E"/>
<stop offset="0.54" stop-color="#F05D5B"/>
<stop offset="0.98" stop-color="#ED333D"/>
<stop offset="0.99" stop-color="#ED313C"/>
</linearGradient>
<linearGradient id="paint2_linear" x1="30.2947" y1="70.9357" x2="32.879" y2="76.4034" gradientUnits="userSpaceOnUse">
<stop stop-color="white" stop-opacity="0"/>
<stop offset="0.8"/>
</linearGradient>
<linearGradient id="paint3_linear" x1="-25398.4" y1="596.353" x2="-25403.5" y2="569.276" gradientUnits="userSpaceOnUse">
<stop stop-color="white" stop-opacity="0"/>
<stop offset="0.8"/>
</linearGradient>
<linearGradient id="paint4_linear" x1="39.3528" y1="85.1307" x2="44.1608" y2="90.8022" gradientUnits="userSpaceOnUse">
<stop offset="0.38"/>
<stop offset="1" stop-color="white" stop-opacity="0"/>
</linearGradient>
<linearGradient id="paint5_linear" x1="-24478.3" y1="559.473" x2="-24490.8" y2="523.421" gradientUnits="userSpaceOnUse">
<stop offset="0.38"/>
<stop offset="1" stop-color="white" stop-opacity="0"/>
</linearGradient>
</defs>
</svg>
