<svg width="221" height="161" viewBox="0 0 221 161" fill="none" xmlns="http://www.w3.org/2000/svg">
<path d="M138 53H83V108H138V53Z" fill="#80BA27"/>
<path fill-rule="evenodd" clip-rule="evenodd" d="M102.874 79.7901C103.563 79.7499 104.211 79.4475 104.684 78.9448C105.157 78.4422 105.42 77.7775 105.418 77.0872C105.418 76.3976 105.154 75.7341 104.681 75.2325C104.208 74.7308 103.561 74.4288 102.872 74.3883H99.5739V79.7862L102.874 79.7901ZM109.697 72.4169C109.856 72.4169 109.999 72.4169 110.156 72.4169C111.362 72.4622 112.503 72.975 113.337 73.8467C114.172 74.7184 114.634 75.8806 114.627 77.0872C114.629 78.3232 114.14 79.5095 113.269 80.3858C112.747 80.913 112.105 81.3058 111.398 81.5305L116.686 88.5855H106.984L102.279 81.7673H99.5836V88.5971H90.3613V72.4033H109.698L109.697 72.4169Z" fill="#1D1D1B"/>
<path fill-rule="evenodd" clip-rule="evenodd" d="M121.455 74.3883H113.727V72.4111L137.998 72.4053V74.3902L130.669 74.3883V88.5972L121.457 88.5952L121.455 74.3883Z" fill="#1D1D1B"/>
</svg>
