<svg width="221" height="161" viewBox="0 0 221 161" fill="none" xmlns="http://www.w3.org/2000/svg">
<path d="M86 39V89H136V47.3291V39H86Z" fill="#7AC143"/>
<path fill-rule="evenodd" clip-rule="evenodd" d="M104.069 63.3578C104.687 63.32 105.254 63.0554 105.67 62.6396C106.111 62.1986 106.388 61.5811 106.388 60.9007C106.388 60.2328 106.111 59.6154 105.67 59.1618C105.254 58.7459 104.687 58.4813 104.069 58.4435H103.943H101.083V63.3452L104.069 63.3578ZM110.269 56.6416C110.42 56.6416 110.546 56.6416 110.685 56.6416C111.794 56.6794 112.789 57.1456 113.52 57.8765C114.289 58.6451 114.755 59.7036 114.755 60.8881H114.768H114.755C114.755 62.06 114.289 63.131 113.52 63.8997C113.054 64.3785 112.474 64.7313 111.819 64.9455L116.62 71.3593H107.799L103.515 65.1597H101.07V71.3719H92.6909V56.6542H97.8699H110.269V56.6416Z" fill="#231F20"/>
<path fill-rule="evenodd" clip-rule="evenodd" d="M120.954 58.4435H113.936V56.6416H136L135.987 58.4435H129.334V71.3593H120.954V58.4435Z" fill="#231F20"/>
</svg>
