<svg width="221" height="161" viewBox="0 0 221 161" fill="none" xmlns="http://www.w3.org/2000/svg">
<g clip-path="url(#clip0)">
<path d="M140.118 63H75V91.0364L116.536 98.0152H147V83.997L140.118 63ZM91.5782 84.0273L89.0521 80.4469H85.4067V84.0273H81.8824V70.0243H85.4067H90.8521C93.7563 70.0243 96.2067 72.3151 96.2067 75.2735C96.2067 77.443 94.7546 78.9601 93.2874 79.7945L96.2218 84.0273H91.5782ZM111.59 73.3923H106.417V84.0273H102.983H102.605V73.3923H97.4319V70.0243H111.575V73.3923H111.59ZM121.815 84.0273H118.805L112.982 70.0243H116.733L119.576 77.6251L120.257 79.3394H120.363L121.059 77.5795L124.235 70.0243H127.987L121.815 84.0273ZM133.235 84.0273H129.62V75.228L132.086 73.4378H129.62V70.0243H133.235V84.0273Z" fill="#A13862"/>
<path d="M90.7311 73.4375H83.6521L85.4067 75.2277V77.1544H90.7311C91.8504 77.1544 92.8487 76.4111 92.8487 75.2732C92.8487 74.1354 91.8504 73.4375 90.7311 73.4375Z" fill="#A13862"/>
</g>
<defs>
<clipPath id="clip0">
<rect width="72" height="35" fill="white" transform="translate(75 63)"/>
</clipPath>
</defs>
</svg>
