<svg width="221" height="161" viewBox="0 0 221 161" fill="none" xmlns="http://www.w3.org/2000/svg">
<path d="M139.987 67H53V94H139.987V67Z" fill="url(#paint0_linear_817_496)"/>
<path fill-rule="evenodd" clip-rule="evenodd" d="M66.0368 79.8467C67.0092 79.8467 67.647 79.082 67.647 77.9334C67.647 76.7848 67.0092 76.0232 66.0368 76.0232H64.1999V79.8467H66.0368ZM61.167 73.3911H66.1403C68.9677 73.3911 70.7235 75.5323 70.7235 77.9334C70.7235 80.3346 68.9677 82.4146 66.1403 82.4146H64.1999V87.6145H61.167V73.3911Z" fill="white"/>
<path fill-rule="evenodd" clip-rule="evenodd" d="M80.3378 81.7813V79.218C80.3378 76.6517 79.2873 75.7463 77.8392 75.7463C76.391 75.7463 75.36 76.6517 75.36 79.218V81.7813C75.36 84.4119 76.37 85.253 77.8347 85.253C79.2994 85.253 80.3333 84.4119 80.3333 81.7813H80.3378ZM72.3301 79.0054C72.3301 75.0948 74.8062 73.1157 77.8392 73.1157C80.8721 73.1157 83.3693 75.0948 83.3693 79.0054V82.0138C83.3693 85.9474 80.8946 87.8821 77.8392 87.8821C74.7837 87.8821 72.3301 85.9474 72.3301 82.0138V79.0054Z" fill="white"/>
<path fill-rule="evenodd" clip-rule="evenodd" d="M95.2752 87.2305C93.9764 87.6636 92.6184 87.884 91.2518 87.8836C87.9908 87.8836 85.5566 85.9657 85.5566 82.0352V78.9641C85.5566 75.0321 87.9908 73.1157 91.2518 73.1157C92.6184 73.1153 93.9764 73.3358 95.2752 73.7688L94.6989 76.2938C93.5891 75.9356 92.4324 75.751 91.2683 75.7463C89.6175 75.7463 88.5851 76.6517 88.5851 79.218V81.7599C88.5851 84.3476 89.6175 85.253 91.2683 85.253C92.4336 85.2609 93.5919 85.0685 94.6944 84.6841L95.2752 87.2305Z" fill="white"/>
<path fill-rule="evenodd" clip-rule="evenodd" d="M107.026 87.2305C105.726 87.6632 104.368 87.8836 103.001 87.8836C99.7383 87.8836 97.3057 85.9657 97.3057 82.0352V78.9641C97.3057 75.0321 99.7383 73.1157 103.001 73.1157C104.368 73.1157 105.726 73.3361 107.026 73.7688L106.446 76.2938C105.339 75.9362 104.184 75.7516 103.022 75.7463C101.371 75.7463 100.339 76.6517 100.339 79.218V81.7599C100.339 84.3476 101.37 85.253 103.022 85.253C104.187 85.2607 105.344 85.0684 106.446 84.6841L107.026 87.2305Z" fill="white"/>
<path fill-rule="evenodd" clip-rule="evenodd" d="M119.954 87.6087H116.921V81.5507C116.921 80.9206 116.94 80.1421 117.003 79.3208L111.863 87.6087H109.389V73.3853H112.428V79.5533C112.428 80.1651 112.407 80.9206 112.366 81.7189L117.506 73.3914H119.961L119.954 87.6087Z" fill="white"/>
<path fill-rule="evenodd" clip-rule="evenodd" d="M128.786 79.8467V76.0232H126.907C125.937 76.0232 125.237 76.8017 125.237 77.938C125.237 79.0744 125.934 79.8467 126.907 79.8467H128.786ZM131.822 87.6084H128.786V82.4084H127.63L125.4 87.6084H122.018L124.618 81.9726C123.049 81.2553 122.183 79.6586 122.183 77.9334C122.183 75.5353 123.935 73.3911 126.763 73.3911H131.82L131.822 87.6084Z" fill="white"/>
<path d="M168.999 67H142.507V94H168.999V67Z" fill="#D2270D"/>
<path fill-rule="evenodd" clip-rule="evenodd" d="M148.922 82.256H148.721C147.284 82.256 144.459 83.5682 144.459 86.6698C144.454 87.0991 144.534 87.5249 144.694 87.922C144.854 88.3192 145.091 88.6794 145.39 88.9814C145.689 89.2833 146.045 89.5208 146.437 89.6797C146.828 89.8385 147.247 89.9155 147.668 89.906C151.72 89.906 153.737 86.9421 155.359 80.7908C156.079 80.7908 157.969 81.4209 158.101 83.3633C158.101 83.3633 158.251 85.6818 158.518 87.0598C158.92 89.1398 160.169 89.9733 161.896 89.9733C165.007 89.9733 166.328 87.5385 166.328 85.2735L165.843 85.4937C165.808 87.1975 164.59 89.0893 162.633 89.0893C161.797 89.0893 160.541 88.4592 160.541 86.2431C160.541 85.2903 160.643 83.7548 160.643 83.4306C160.643 80.9606 157.383 80.5354 155.41 80.5354L155.51 80.0582C156.023 80.1566 156.543 80.2134 157.065 80.228C158.035 80.228 159.573 79.6315 160.391 78.5747C163.803 74.1104 163.803 71.2979 166.797 71.2826C166.998 71.2827 167.199 71.2996 167.398 71.333L167.313 70.891C167.081 70.8757 166.863 70.8574 166.644 70.8574C165.157 70.8574 163.988 71.489 162.868 72.9374C159.756 76.9413 159.021 78.5747 157.517 79.2217C156.948 79.4618 156.129 79.7187 155.593 79.734C156.145 76.8878 157.115 72.321 158.569 71.538C158.43 71.4793 158.317 71.3704 158.252 71.2321C158.035 71.333 157.749 71.4722 156.73 71.4722C153.336 71.4722 152.752 70.4995 149.725 70.4995C147.267 70.4995 145.511 72.1191 145.511 74.2328C145.511 76.3739 147.199 77.0775 148.319 77.0775C149.773 77.0775 150.327 76.0879 150.376 75.5955L150.091 75.3049C150.025 75.9702 149.323 76.6171 148.421 76.6171C147.785 76.6171 146.43 76.3617 146.43 74.6748C146.43 73.2601 147.536 71.931 150.058 71.931C151.145 71.931 152.459 72.3057 154.139 72.3057C155.408 72.3114 156.668 72.0743 157.852 71.6068C155.76 72.6116 154.748 73.7021 153.168 80.0414C151.217 87.3504 149.742 89.4289 147.584 89.4289C146.083 89.4289 145.01 88.1182 145.01 86.601C145.01 84.4599 147.066 82.6475 149.273 82.6475L148.922 82.256Z" fill="white"/>
<defs>
<linearGradient id="paint0_linear_817_496" x1="96.4934" y1="67.5399" x2="96.4934" y2="93.4601" gradientUnits="userSpaceOnUse">
<stop stop-color="#4271B7"/>
<stop offset="0.29" stop-color="#3F5FAB"/>
<stop offset="0.88" stop-color="#362F8A"/>
<stop offset="1" stop-color="#342483"/>
</linearGradient>
</defs>
</svg>
