<svg width="221" height="161" viewBox="0 0 221 161" fill="none" xmlns="http://www.w3.org/2000/svg">
<g clip-path="url(#clip0_817_489)">
<path d="M28.1719 87.8153H33.6291V87.0317L32.1927 86.9264L31.8262 86.6267V82.2677C32.0857 82.2841 32.8509 82.3368 33.3503 82.3368C36.1908 82.3368 38.6681 81.0363 38.6681 77.6254C38.6681 75.4097 37.7277 73.4573 32.9547 73.4573H28V74.231L29.4203 74.3364L29.7834 74.6458V86.6267L29.4203 86.9264L28.1719 87.0317V87.8153ZM31.8262 74.3726C32.0857 74.3528 32.4002 74.3364 32.8509 74.3364C33.3433 74.309 33.8361 74.3824 34.3001 74.552C34.7641 74.7217 35.1898 74.9842 35.552 75.3241C36.2264 75.9825 36.4177 76.9077 36.4177 78.0337C36.4177 80.1605 35.4125 81.4972 33.1103 81.4972C32.6743 81.4965 32.2395 81.449 31.8133 81.3557L31.8262 74.3726ZM48.6617 82.6726C48.6617 79.7095 46.7908 77.3258 43.7265 77.3258C40.3218 77.3258 38.7394 79.9136 38.7394 82.6726C38.7394 85.7477 40.7985 87.9997 43.6908 87.9997C46.9983 87.9997 48.6617 85.3987 48.6617 82.6726ZM46.567 82.8109C46.6189 84.9937 45.6299 87.1371 43.6908 87.1371C41.4405 87.1371 40.8341 84.5723 40.8341 82.6529C40.8341 80.6774 41.3886 78.1884 43.6746 78.1884C45.8407 78.1884 46.5151 80.3318 46.567 82.7977V82.8109ZM58.3603 85.8728C57.5708 86.4336 56.6383 86.7503 55.6754 86.7848C52.1767 86.7848 52.1248 83.1829 52.1248 82.4784C52.1248 80.1046 53.0262 78.1357 55.1566 78.1357C55.5287 78.1185 55.8972 78.2161 56.2137 78.4156V80.1573C56.5035 80.3486 56.8408 80.4525 57.1865 80.4569C57.3391 80.466 57.4919 80.4421 57.6349 80.3869C57.7778 80.3318 57.9076 80.2465 58.0157 80.1367C58.1239 80.0269 58.2079 79.8951 58.2622 79.75C58.3166 79.6048 58.3401 79.4497 58.3311 79.2947C58.3311 78.4321 57.5691 77.3192 55.2831 77.3192C52.1832 77.3192 50.0171 79.377 50.0171 82.699C50.0171 86.0769 52.1832 87.9931 54.9361 87.9931C55.6625 87.9931 56.7552 87.8713 58.3473 86.9033L58.3603 85.8728ZM80.5298 87.8153H85.2769V87.1041L84.2523 86.9988L83.9086 86.6695V85.9057L88.7206 80.5095V86.663L88.3574 86.9922L87.3554 87.0976V87.8153H92.0993V87.1041L90.9579 86.9988L90.5915 86.6695V78.6625L90.9579 78.3333L92.0993 78.2279V77.5201H87.3554V78.2213L88.3574 78.3267L88.7206 78.6559V79.2551L83.9086 84.6579V78.6625L84.2523 78.3333L85.2769 78.2279V77.5201H80.5298V78.2213L81.6744 78.3267L82.0376 78.6559V86.663L81.6744 86.9922L80.5298 87.0976V87.8153ZM101.973 87.8153H106.701V87.1041L105.679 86.9988L105.332 86.6103V82.9722H106.286C107.028 82.9722 107.583 83.3574 108.069 84.4637L109.21 87.193V87.8153H112.605V87.1041L111.393 86.9626L111.03 86.6992L109.852 84.2727C109.47 83.5517 108.967 82.7253 107.862 82.4092V82.373C108.471 82.0824 108.947 81.5666 109.194 80.931L109.843 79.4527C109.942 79.2025 110.083 78.971 110.258 78.7679L111.688 79.5844C111.873 79.4771 112.026 79.3204 112.13 79.1312C112.234 78.942 112.285 78.7276 112.278 78.5111C112.278 77.8526 111.808 77.3324 110.942 77.3324C109.94 77.3324 109.321 78.0897 108.935 79.0741L108.225 80.7433C108.077 81.1406 107.809 81.4803 107.46 81.7139C107.11 81.9474 106.697 82.0629 106.279 82.0438H105.345V78.6625L105.692 78.3333L106.714 78.2279V77.5201H101.973V78.2213L103.114 78.3267L103.461 78.6559V86.663L103.114 86.9922L101.973 87.0976V87.8153ZM119.914 87.8153H122.91V87.1041L121.769 86.9988L121.445 86.5938V80.3844C121.445 79.9465 121.393 78.8568 120.735 78.1357C120.008 77.3423 118.708 77.3258 118.225 77.3258C115.157 77.3258 114.068 78.6625 114.068 79.7885C114.061 79.9496 114.117 80.1069 114.223 80.2264C114.373 80.3225 114.55 80.3664 114.726 80.3515H116.179V78.5374C116.702 78.3023 117.27 78.1834 117.842 78.1884C118.62 78.1884 118.899 78.4683 119.071 78.6461C119.558 79.1202 119.574 80.1046 119.574 80.6215V81.3425C118.247 81.6325 116.945 82.0322 115.683 82.5376C114.681 82.9426 113.484 83.6109 113.484 85.211C113.484 86.5477 114.35 88.0062 116.237 88.0062C117.051 88.0062 118.128 87.7429 119.632 86.6004L119.914 87.8153ZM119.567 85.8399C118.374 86.6136 117.68 86.7881 117.126 86.7881C115.845 86.7881 115.43 85.8234 115.43 85.0332C115.43 83.8513 116.224 83.3443 116.902 83.0282C117.77 82.6543 118.66 82.3365 119.567 82.0767V85.8399ZM133.65 77.5234H128.368C126.964 77.5234 124.661 77.8921 124.661 80.3713C124.661 81.8133 125.634 82.6924 127.187 82.8504L127.171 82.8866C126.5 83.1316 125.951 83.6373 125.647 84.2925L124.47 86.7025L124.123 86.9659L123.066 87.1074V87.8153H126.133V87.193L127.346 84.4637C127.67 83.8315 128.037 83.2356 128.922 83.2356H130.271V86.663L129.908 86.9922L128.903 87.0976V87.8153H133.65V87.1041L132.505 86.9988L132.142 86.6695V78.6625L132.505 78.3333L133.65 78.2279V77.5234ZM130.271 82.3039C129.847 82.3654 129.419 82.394 128.99 82.3895C127.369 82.3895 126.396 81.9154 126.396 80.4141C126.396 78.4386 128.04 78.3399 128.99 78.3399C129.419 78.3342 129.848 78.3695 130.271 78.4452V82.3039ZM137.512 87.8153H142.985V87.0317L141.49 86.9264L141.127 86.6267V74.3364H145.479L145.803 74.6656L146.27 76.7233H147.379V73.4573H137.356V74.231L138.724 74.3364L139.088 74.636V86.6267L138.724 86.9264L137.512 87.0317V87.8153ZM156.967 83.0677C157.123 83.0512 157.817 82.9821 158.216 82.9821C158.802 82.9821 160.398 83.0512 160.398 84.9575C160.398 86.6037 159.218 87.1371 157.956 87.1371C157.287 87.1376 156.628 86.975 156.033 86.663L155.667 84.7797H154.733V87.5782C155.801 87.8715 156.902 88.0188 158.008 88.0161C159.791 88.0161 162.493 87.5058 162.493 84.9213C162.493 82.9459 160.917 82.4422 159.86 82.3533V82.2841C161.157 81.9845 162.026 81.0363 162.026 79.8939C162.026 77.5003 159.564 77.3258 158.196 77.3258C157.142 77.338 156.094 77.4919 155.08 77.7835V80.2791H156.014L156.338 78.5901C156.904 78.3271 157.519 78.1902 158.141 78.1884C158.764 78.1884 160.087 78.4321 160.087 80.1046C160.087 81.8989 158.718 82.0372 157.956 82.0372C157.631 82.0431 157.305 82.0199 156.983 81.9681L156.967 83.0677ZM172.642 85.6357C171.724 86.3883 170.579 86.7974 169.399 86.7947C166.805 86.7947 165.985 84.5822 165.985 82.3467V82.1886H172.652C172.681 81.9904 172.693 81.7898 172.687 81.5894C172.687 78.1456 170.557 77.3357 168.91 77.3357C168.268 77.3193 167.629 77.4338 167.031 77.6725C166.434 77.9111 165.889 78.2691 165.43 78.7251C164.422 79.8127 163.875 81.2585 163.906 82.7516C163.906 85.7148 165.793 88.0194 168.809 88.0194C170.191 88.0116 171.533 87.5496 172.635 86.7025L172.642 85.6357ZM166.072 81.2832C166.228 79.8741 167.006 78.1884 168.666 78.1884C169.042 78.1673 169.414 78.2641 169.733 78.4656C170.052 78.6671 170.302 78.9634 170.45 79.3144C170.641 79.7509 170.74 80.2229 170.742 80.7005V81.2832H166.072ZM175.213 87.8153H180.499V87.1041L179.146 86.9988L178.783 86.6695V78.3794H180.758L181.105 78.7317L181.381 80.6478H182.386V77.5201H173.307V80.6478H174.312L174.591 78.7317L174.934 78.3794H176.909V86.663L176.546 86.9922L175.194 87.0976L175.213 87.8153ZM67.3682 85.8728C66.5782 86.4326 65.646 86.7492 64.6833 86.7848C61.1846 86.7848 61.1327 83.1829 61.1327 82.4784C61.1327 80.1046 62.0341 78.1357 64.1613 78.1357C64.5334 78.1179 64.9021 78.2155 65.2183 78.4156V80.1573C65.5083 80.3481 65.8455 80.452 66.1911 80.4569C66.3435 80.4655 66.496 80.4413 66.6385 80.3859C66.7811 80.3305 66.9105 80.2451 67.0182 80.1354C67.126 80.0256 67.2097 79.894 67.2639 79.7491C67.318 79.6042 67.3414 79.4494 67.3325 79.2947C67.3325 78.4321 66.5705 77.3192 64.2845 77.3192C61.1846 77.3192 59.0218 79.377 59.0218 82.699C59.0218 86.0769 61.1846 87.9931 63.9375 87.9931C64.6671 87.9931 65.7566 87.8713 67.352 86.9033L67.3682 85.8728ZM101.435 85.8728C100.645 86.4336 99.7128 86.7503 98.7499 86.7848C95.2511 86.7848 95.1992 83.1829 95.1992 82.4784C95.1992 80.1046 96.1007 78.1357 98.231 78.1357C98.6032 78.1185 98.9717 78.2161 99.2881 78.4156V80.1573C99.5779 80.3486 99.9153 80.4525 100.261 80.4569C100.414 80.466 100.566 80.4421 100.709 80.3869C100.852 80.3318 100.982 80.2465 101.09 80.1367C101.198 80.0269 101.282 79.8951 101.337 79.75C101.391 79.6048 101.415 79.4497 101.406 79.2947C101.406 78.4321 100.644 77.3192 98.3575 77.3192C95.2544 77.3192 93.0916 79.377 93.0916 82.699C93.0916 86.0769 95.2544 87.9931 98.0106 87.9931C98.7369 87.9931 99.8296 87.8713 101.422 86.9033L101.435 85.8728ZM67.9745 87.8153H72.7184V87.1041L71.697 86.9988L71.3501 86.6695V85.9057L76.1653 80.5095V86.663L75.8021 86.9922L74.7969 87.0976V87.8153H79.557V87.1041L78.4124 86.9988L78.0492 86.6695V78.6625L78.4124 78.3333L79.557 78.2279V77.5201H74.7969V78.2213L75.8021 78.3267L76.1653 78.6559V79.2551L71.3501 84.6579V78.6625L71.697 78.3333L72.7184 78.2279V77.5201H67.9745V78.2213L69.1159 78.3267L69.4791 78.6559V86.663L69.1159 86.9922L67.9745 87.0976V87.8153ZM151.192 87.8153H154.188V87.1041L153.047 86.9988L152.723 86.5938V80.3844C152.723 79.9465 152.671 78.8568 152.012 78.1357C151.286 77.3423 149.986 77.3258 149.503 77.3258C146.438 77.3258 145.346 78.6625 145.346 79.7885C145.339 79.9496 145.395 80.1069 145.501 80.2264C145.651 80.3223 145.828 80.3662 146.004 80.3515H147.46V78.5374C147.982 78.3023 148.549 78.1833 149.12 78.1884C149.346 78.1643 149.575 78.193 149.788 78.2723C150.002 78.3516 150.195 78.4795 150.352 78.6461C150.835 79.1202 150.855 80.1046 150.855 80.6215V81.3425C149.528 81.6314 148.226 82.0311 146.964 82.5376C145.959 82.9426 144.765 83.6109 144.765 85.211C144.765 86.5477 145.631 88.0062 147.518 88.0062C148.332 88.0062 149.405 87.7429 150.913 86.6004L151.192 87.8153ZM150.848 85.8399C149.652 86.6136 148.958 86.7881 148.404 86.7881C147.123 86.7881 146.708 85.8234 146.708 85.0332C146.708 83.8513 147.505 83.3443 148.18 83.0282C149.049 82.6543 149.94 82.3365 150.848 82.0767V85.8399ZM189.001 87.8153H192V87.1041L190.855 86.9988L190.531 86.5938V80.3844C190.531 79.9465 190.479 78.8568 189.821 78.1357C189.095 77.3423 187.798 77.3258 187.311 77.3258C184.247 77.3258 183.154 78.6625 183.154 79.7885C183.15 79.8717 183.162 79.9549 183.191 80.033C183.219 80.1111 183.263 80.1825 183.32 80.2429C183.469 80.3387 183.646 80.3827 183.822 80.368H185.265V78.5374C185.788 78.3023 186.354 78.1833 186.925 78.1884C187.152 78.1643 187.38 78.193 187.594 78.2723C187.807 78.3516 188 78.4795 188.158 78.6461C188.641 79.1202 188.66 80.1046 188.66 80.6215V81.3425C187.333 81.6314 186.031 82.0311 184.769 82.5376C183.764 82.9426 182.567 83.6109 182.567 85.211C182.567 86.5477 183.436 88.0062 185.324 88.0062C186.137 88.0062 187.211 87.7429 188.719 86.6004L189.001 87.8153ZM188.657 85.8399C187.46 86.6136 186.766 86.7881 186.215 86.7881C184.918 86.7881 184.516 85.8234 184.516 85.0332C184.516 83.8513 185.314 83.3443 185.988 83.0282C186.857 82.6543 187.749 82.3365 188.657 82.0767V85.8399ZM84.8262 73.4935C84.7336 73.3365 84.601 73.2077 84.4424 73.1208C84.2837 73.0339 84.1049 72.992 83.9248 72.9997C83.791 72.9895 83.6566 73.0091 83.5309 73.0571C83.4053 73.105 83.2915 73.1802 83.1974 73.2773C83.1033 73.3744 83.0311 73.4912 82.9859 73.6195C82.9408 73.7478 82.9237 73.8846 82.9358 74.0203C82.9358 75.4261 84.4436 76.2163 86.3146 76.2163C88.1855 76.2163 89.6933 75.4261 89.6933 74.0203C89.7052 73.8861 89.6884 73.7508 89.6442 73.6238C89.6 73.4967 89.5293 73.3808 89.437 73.2839C89.3447 73.1871 89.2329 73.1116 89.1093 73.0625C88.9857 73.0135 88.8531 72.992 88.7206 72.9997C88.5382 72.9922 88.3573 73.034 88.196 73.1207C88.0348 73.2075 87.8992 73.3361 87.8029 73.4935V75.1101C87.3693 75.404 86.8503 75.5398 86.3308 75.4953C85.8064 75.5372 85.2831 75.4017 84.8424 75.1101L84.8262 73.4935Z" fill="black"/>
</g>
<defs>
<clipPath id="clip0_817_489">
<rect width="164" height="15" fill="white" transform="translate(28 73)"/>
</clipPath>
</defs>
</svg>
