<svg width="221" height="161" viewBox="0 0 221 161" fill="none" xmlns="http://www.w3.org/2000/svg">
<path d="M149.059 73.6309L153.868 70.0635H137.767V91.4331H153.868V87.8657H142.367V82.4096H152.196V78.8422H142.367V73.6309H149.059Z" fill="#21A038"/>
<path d="M125.603 78.3875H120.027V73.6309H128.949L133.759 70.0635H115.426V91.4331H125.011C130.378 91.4331 133.48 88.9849 133.48 84.7179C133.48 80.6259 130.692 78.3875 125.603 78.3875ZM124.836 87.8657H120.027V81.9549H124.836C127.764 81.9549 129.123 82.9342 129.123 84.9278C129.123 86.9213 127.66 87.8657 124.836 87.8657Z" fill="#21A038"/>
<path d="M166.903 70.0635H158.156V91.4331H162.756V85.3824H166.938C172.515 85.3824 176 82.4446 176 77.723C176 73.0014 172.515 70.0635 166.903 70.0635ZM166.799 81.815H162.721V73.6309H166.799C169.761 73.6309 171.365 75.0998 171.365 77.723C171.365 80.3461 169.761 81.815 166.799 81.815Z" fill="#21A038"/>
<path d="M107.55 86.8179C106.33 87.4824 104.971 87.8322 103.577 87.8322C99.4291 87.8322 96.4317 84.8593 96.4317 80.7672C96.4317 76.6752 99.4291 73.7023 103.577 73.7023C105.075 73.6674 106.539 74.157 107.759 75.0314L111.07 72.5831L110.861 72.3733C108.944 70.6595 106.365 69.7852 103.437 69.7852C100.266 69.7852 97.3728 70.8694 95.2816 72.828C93.1905 74.8565 92.0055 77.6895 92.0752 80.6273C92.0403 83.6002 93.1905 86.4681 95.2816 88.5666C97.4773 90.6301 100.405 91.7843 103.402 91.7144C106.713 91.7144 109.606 90.5602 111.558 88.4617L108.595 86.2583L107.55 86.8179Z" fill="#21A038"/>
<path d="M77.6809 69.9238C78.5173 71.008 79.2144 72.1972 79.8069 73.4563L63.705 85.3827L56.9436 81.1158V76.0094L63.6701 80.2414L77.6809 69.9238Z" fill="#21A038"/>
<path d="M50.0777 80.7677C50.0777 80.5229 50.0777 80.3131 50.1126 80.0682L46.0349 79.8584C46.0349 80.1382 46 80.453 46 80.7328C46 85.6292 47.9866 90.071 51.193 93.2887L54.0858 90.3858C51.6113 87.9376 50.0777 84.545 50.0777 80.7677Z" fill="url(#paint0_linear)"/>
<path d="M63.6703 67.1282C63.9143 67.1282 64.1234 67.1282 64.3674 67.1632L64.5765 63.0711C64.2977 63.0711 63.984 63.0361 63.7052 63.0361C58.8258 63.0361 54.3995 65.0297 51.1931 68.2474L54.0859 71.1503C56.5256 68.6671 59.9411 67.1282 63.6703 67.1282Z" fill="url(#paint1_linear)"/>
<path d="M63.6703 94.4078C63.4264 94.4078 63.2172 94.4078 62.9733 94.3729L62.7642 98.4649C63.043 98.4649 63.3567 98.4999 63.6355 98.4999C68.5148 98.4999 72.9411 96.5063 76.1475 93.2887L73.2548 90.3857C70.8151 92.9039 67.4344 94.4078 63.6703 94.4078Z" fill="url(#paint2_linear)"/>
<path d="M71.338 69.5053L74.7884 66.9522C71.7562 64.5039 67.8876 63 63.6704 63V67.0921C66.5283 67.127 69.1771 68.0014 71.338 69.5053Z" fill="url(#paint3_linear)"/>
<path d="M81.3752 80.7667C81.3752 79.6825 81.2707 78.6332 81.0964 77.584L77.2975 80.4169C77.2975 80.5219 77.2975 80.6618 77.2975 80.7667C77.2975 84.7888 75.5549 88.3912 72.8015 90.8744L75.5549 93.9172C79.1098 90.6995 81.3752 85.9779 81.3752 80.7667Z" fill="#21A038"/>
<path d="M63.6705 94.4073C59.6624 94.4073 56.0726 92.6585 53.5981 89.8955L50.5659 92.6585C53.8072 96.2609 58.4774 98.4993 63.6705 98.4993V94.4073Z" fill="url(#paint4_linear)"/>
<path d="M54.5737 70.658L51.8204 67.6152C48.2306 70.8679 46 75.5545 46 80.7658H50.0777C50.0777 76.7786 51.8204 73.1413 54.5737 70.658Z" fill="url(#paint5_linear)"/>
<defs>
<linearGradient id="paint0_linear" x1="50.7712" y1="92.7909" x2="46.5714" y2="80.732" gradientUnits="userSpaceOnUse">
<stop offset="0.1444" stop-color="#F2E913"/>
<stop offset="0.3037" stop-color="#E7E518"/>
<stop offset="0.5823" stop-color="#CADB26"/>
<stop offset="0.891" stop-color="#A3CD39"/>
</linearGradient>
<linearGradient id="paint1_linear" x1="52.3555" y1="67.7729" x2="62.9443" y2="63.7647" gradientUnits="userSpaceOnUse">
<stop offset="0.0592" stop-color="#0FA8E0"/>
<stop offset="0.5385" stop-color="#0099F9"/>
<stop offset="0.9234" stop-color="#0291EB"/>
</linearGradient>
<linearGradient id="paint2_linear" x1="62.5247" y1="95.0093" x2="75.135" y2="92.1783" gradientUnits="userSpaceOnUse">
<stop offset="0.1226" stop-color="#A3CD39"/>
<stop offset="0.2846" stop-color="#86C339"/>
<stop offset="0.8693" stop-color="#21A038"/>
</linearGradient>
<linearGradient id="paint3_linear" x1="62.8326" y1="65.6182" x2="73.3236" y2="68.8335" gradientUnits="userSpaceOnUse">
<stop offset="0.0566" stop-color="#0291EB"/>
<stop offset="0.79" stop-color="#0C8ACB"/>
</linearGradient>
<linearGradient id="paint4_linear" x1="51.6027" y1="93.3232" x2="62.8721" y2="97.5056" gradientUnits="userSpaceOnUse">
<stop offset="0.1324" stop-color="#F2E913"/>
<stop offset="0.2977" stop-color="#EBE716"/>
<stop offset="0.5306" stop-color="#D9E01F"/>
<stop offset="0.8023" stop-color="#BBD62D"/>
<stop offset="0.9829" stop-color="#A3CD39"/>
</linearGradient>
<linearGradient id="paint5_linear" x1="49.1028" y1="81.26" x2="53.6433" y2="69.5274" gradientUnits="userSpaceOnUse">
<stop offset="0.0698" stop-color="#A3CD39"/>
<stop offset="0.2599" stop-color="#81C55F"/>
<stop offset="0.9216" stop-color="#0FA8E0"/>
</linearGradient>
</defs>
</svg>
