<svg width="221" height="161" viewBox="0 0 221 161" fill="none" xmlns="http://www.w3.org/2000/svg">
<path d="M89.4377 71.7532C88.6077 71.0935 87.6208 70.5817 86.4768 70.2291C83.5384 69.3079 78.8617 69.9562 77.3701 72.8792C77.1794 73.1636 77.0673 73.482 77.0224 73.8346C77.0224 73.846 77.0224 73.846 77.0224 73.846C77.0112 73.9711 77 74.0962 77 74.2327C77.0112 74.8924 77.2579 75.4497 77.729 75.9046C78.2 76.3596 78.7608 76.5757 79.4113 76.5643C80.0954 76.5529 80.6674 76.3027 81.1384 75.8364C81.5982 75.3701 81.8337 74.8014 81.8113 74.1417C81.8001 73.8232 81.7328 73.5161 81.5982 73.2318C81.4636 72.9475 81.2842 72.6972 81.0487 72.4811C80.8692 72.3105 80.6674 72.174 80.4543 72.0603C81.8001 71.4348 83.2693 71.2983 84.6375 71.8328C85.3329 72.1058 85.9385 72.4698 86.4656 72.9475C86.7235 73.1863 86.9815 73.482 87.2395 73.8232C87.4974 74.1644 87.7217 74.5739 87.9236 75.0516C88.1255 75.5293 88.2937 76.0752 88.4395 76.7008C88.5741 77.3263 88.6526 78.0201 88.675 78.8049C88.6974 79.8172 88.5965 80.784 88.3946 81.7052C88.1815 82.6265 87.8339 83.4454 87.3404 84.1733C86.2189 85.8111 84.4693 86.6073 82.5179 86.5846C80.5664 86.5732 78.9739 86.0272 77.9309 85.3562L77.2916 87.1077C79.0075 87.9608 81.2618 88.3361 83.1459 88.302C83.7964 88.2906 84.4357 88.2337 85.0525 88.1428C85.6693 88.0518 86.2749 87.9039 86.8581 87.6992C87.4413 87.4945 88.0133 87.2329 88.5516 86.903C89.09 86.5732 89.6059 86.1524 90.1105 85.6405C90.6489 85.1173 91.0863 84.56 91.434 83.98C91.7816 83.3999 92.0508 82.8199 92.2639 82.2398C92.4657 81.6597 92.6115 81.0797 92.69 80.511C92.7686 79.9423 92.8022 79.385 92.791 78.8504C92.7573 77.2126 92.4321 75.8023 91.804 74.6194C91.1311 73.4365 90.3573 72.4811 89.4377 71.7532Z" fill="#010101"/>
<path d="M102.414 76.121C103.535 76.1551 104.186 76.3712 104.186 77.7019V78.5095V80.3975H102.357H101.763H101.415H100.821H98.9929V79.5331V79.4876V77.7133C98.9929 76.4053 99.6322 76.1779 100.72 76.1324H100.765V74.9268H93.8003V76.1324C94.9218 76.1665 95.6284 76.3826 95.6284 77.7133V78.4299V78.4412V85.1517C95.6284 86.4825 94.9218 86.6986 93.8003 86.7327V87.9383H100.765V86.7327C99.6434 86.6986 98.9929 86.4825 98.9929 85.1517V83.6504V81.8989H104.174V82.4562V84.0599V85.1517C104.174 86.4825 103.524 86.6986 102.402 86.7327V87.9383H109.356V86.7327C108.234 86.6986 107.528 86.4825 107.528 85.1517V83.1727V79.0213V77.7133C107.528 76.3826 108.234 76.1665 109.356 76.1324V74.9268H102.402V76.121H102.414Z" fill="#010101"/>
<path d="M122.803 78.0764C122.59 77.6442 122.355 77.2802 122.097 76.9732C121.828 76.6661 121.581 76.4045 121.345 76.1884C120.818 75.722 120.168 75.3467 119.405 75.051C118.642 74.7553 117.756 74.6074 116.758 74.6074C115.816 74.6074 114.908 74.7325 114.044 74.9941C113.181 75.2557 112.418 75.6538 111.768 76.1997C111.117 76.7457 110.59 77.4509 110.197 78.3153C109.805 79.1797 109.614 80.226 109.614 81.4544C109.614 82.6145 109.794 83.6154 110.164 84.4571C110.523 85.2987 111.027 86.0039 111.655 86.5498C112.283 87.1071 113.012 87.5166 113.854 87.7782C114.695 88.0398 115.581 88.1763 116.523 88.1763C117.274 88.1763 118.059 88.0739 118.889 87.8692C119.719 87.6645 120.482 87.3119 121.166 86.8001C121.861 86.2882 122.422 85.6058 122.871 84.73C123.319 83.8543 123.543 82.7396 123.543 81.3862C123.543 80.6924 123.476 80.0782 123.342 79.5322C123.185 78.9863 123.016 78.4972 122.803 78.0764ZM119.629 83.0126C119.54 83.6154 119.371 84.1955 119.136 84.7528C118.9 85.2987 118.575 85.7764 118.149 86.1518C117.734 86.5385 117.196 86.7204 116.534 86.7204C115.895 86.7204 115.379 86.5271 114.964 86.1518C114.56 85.765 114.235 85.2987 113.999 84.7528C113.764 84.1955 113.596 83.6154 113.506 83.0012C113.416 82.387 113.371 81.8411 113.371 81.3634C113.371 80.3966 113.45 79.6232 113.607 79.0432C113.764 78.4517 113.932 77.9854 114.112 77.6328C114.179 77.4736 114.291 77.303 114.426 77.121C114.56 76.939 114.728 76.7684 114.919 76.6092C115.11 76.45 115.334 76.3135 115.603 76.2111C115.872 76.1088 116.186 76.0519 116.545 76.0519C117.218 76.0519 117.768 76.2566 118.194 76.6774C118.62 77.0983 118.945 77.5987 119.181 78.1901C119.405 78.7816 119.562 79.373 119.641 79.9758C119.719 80.5786 119.764 81.0677 119.764 81.443C119.764 81.8866 119.719 82.4098 119.629 83.0126Z" fill="#010101"/>
<path d="M136.866 76.4393C136.451 76.064 135.879 75.7228 135.173 75.3929C134.466 75.0745 133.569 74.9152 132.503 74.9152C131.416 74.9152 130.406 75.1654 129.475 75.6659C128.545 76.1663 127.782 76.8715 127.187 77.7814H127.131C127.187 76.7123 127.378 75.8479 127.703 75.1882C128.029 74.5285 128.432 74.0053 128.915 73.63C129.397 73.2433 129.935 72.9703 130.53 72.7883C131.124 72.6064 131.707 72.4812 132.29 72.3903L134.444 72.0718C134.937 72.0036 135.408 71.8898 135.879 71.7192C136.339 71.56 136.765 71.3325 137.135 71.0254C137.505 70.7183 137.831 70.3316 138.1 69.8312C138.369 69.3421 138.56 68.7279 138.672 68H137.147C137.034 68.3526 136.765 68.5914 136.328 68.7165C135.89 68.8417 135.442 68.9326 134.96 68.9895L132.806 69.2511C132.391 69.308 131.965 69.3762 131.528 69.4672C131.09 69.5582 130.653 69.6833 130.204 69.8539C129.756 70.0245 129.318 70.252 128.881 70.5363C128.444 70.8207 128.029 71.1733 127.625 71.6055C127.154 72.1173 126.75 72.7315 126.414 73.448C126.077 74.1646 125.808 74.9152 125.606 75.7C125.404 76.4962 125.258 77.3037 125.169 78.134C125.079 78.9643 125.034 79.7604 125.034 80.5225C125.034 81.0229 125.057 81.5347 125.113 82.0693C125.169 82.6039 125.27 83.1384 125.415 83.6616C125.561 84.1848 125.774 84.6966 126.055 85.1857C126.335 85.6748 126.705 86.1297 127.165 86.5392C127.58 86.9145 128.174 87.2785 128.937 87.6311C129.7 87.9836 130.687 88.1656 131.887 88.1656C132.672 88.1656 133.479 88.0633 134.32 87.8699C135.161 87.6765 135.913 87.324 136.597 86.8121C137.281 86.3003 137.842 85.6179 138.291 84.7535C138.739 83.8891 138.963 82.7972 138.963 81.4779C138.963 80.3064 138.773 79.3055 138.403 78.4866C138.01 77.679 137.505 76.9966 136.866 76.4393ZM135.105 82.9906C135.061 83.5593 134.937 84.1166 134.724 84.6739C134.511 85.2312 134.197 85.7089 133.76 86.1183C133.322 86.5278 132.728 86.7325 131.954 86.7325C131.203 86.7325 130.631 86.5278 130.204 86.1297C129.789 85.7316 129.475 85.2539 129.262 84.6853C129.049 84.1279 128.926 83.5479 128.87 82.9678C128.814 82.3764 128.791 81.8987 128.791 81.5234C128.791 80.5566 128.87 79.8059 129.027 79.2372C129.184 78.6799 129.352 78.225 129.531 77.8838C129.745 77.4743 130.059 77.1217 130.451 76.8146C130.844 76.5075 131.36 76.3597 131.988 76.3597C132.638 76.3597 133.176 76.5189 133.603 76.8374C134.018 77.1558 134.354 77.5767 134.589 78.0771C134.825 78.5889 134.982 79.1576 135.072 79.7832C135.15 80.4201 135.195 81.0343 135.195 81.6371C135.173 81.9783 135.15 82.4219 135.105 82.9906Z" fill="#010101"/>
<path d="M143.82 85.6055C143.697 85.3439 143.54 85.1164 143.338 84.9231C143.136 84.7297 142.901 84.5705 142.643 84.4567C142.374 84.343 142.105 84.2861 141.813 84.2861C141.207 84.2861 140.703 84.4909 140.288 84.9003C139.873 85.3098 139.66 85.8216 139.66 86.4244C139.66 87.0158 139.873 87.5163 140.288 87.9143C140.703 88.3238 141.207 88.5285 141.791 88.5285C142.407 88.5285 142.934 88.3238 143.361 87.9143C143.787 87.5049 144 87.0045 144 86.4244C143.989 86.14 143.933 85.8671 143.82 85.6055Z" fill="#010101"/>
<path d="M126.762 93.3972C126.47 93.3972 126.077 93.1242 125.797 92.9195L125.842 92.7944C126.033 92.8626 126.515 93.0219 126.739 93.0219C127.154 93.0219 127.356 92.874 127.356 92.5897C127.356 91.9186 125.932 92.3167 125.932 91.3386C125.932 90.8836 126.414 90.5879 126.874 90.5879C127.21 90.5879 127.435 90.622 127.737 90.7016L127.648 91.0315L126.571 90.7585C126.436 90.8154 126.268 90.9746 126.268 91.1338C126.268 91.8276 127.793 91.475 127.793 92.4759C127.793 93.1129 127.266 93.3972 126.762 93.3972Z" fill="#231F20"/>
<path d="M129.969 90.623C130.485 90.623 130.99 90.9529 130.99 91.7832V93.1708L131.461 93.2276V93.3072H130.07V93.2276L130.497 93.1708V91.7832C130.497 91.1235 130.104 90.9188 129.768 90.9188C129.521 90.9188 129.353 91.0211 129.117 91.1576V93.1708L129.588 93.2276V93.3072H128.198V93.2276L128.624 93.1708V91.2031L128.276 90.6913H129.117V90.9756L129.969 90.623Z" fill="#231F20"/>
<path d="M133.031 93.3969C132.302 93.3969 131.73 92.794 131.73 91.9865C131.73 91.0539 132.291 90.5762 133.031 90.5762C133.772 90.5762 134.388 91.0425 134.388 91.9865C134.388 92.8054 133.772 93.3969 133.031 93.3969ZM133.031 90.7468C132.583 90.7468 132.291 91.1904 132.291 91.9865C132.291 92.7827 132.583 93.2263 133.031 93.2263C133.48 93.2263 133.828 92.7713 133.828 91.9865C133.839 91.2017 133.48 90.7468 133.031 90.7468Z" fill="#231F20"/>
<path d="M134.971 93.0225V89.3829L134.635 88.8711H135.465V90.9866L136.283 90.5999C136.9 90.5999 137.461 91.1231 137.461 91.9193C137.461 92.9315 136.586 93.3978 136.059 93.3978C135.7 93.3978 135.319 93.2614 134.971 93.0225ZM136.956 91.9193C136.956 91.1345 136.306 90.9525 136.059 90.9525C135.846 90.9525 135.7 91.0094 135.476 91.1345V93.0453C135.599 93.1249 135.779 93.1704 135.958 93.1704C136.25 93.1704 136.956 92.9543 136.956 91.9193Z" fill="#231F20"/>
<path d="M138.179 92.5898C138.381 92.5898 138.549 92.7605 138.549 92.9652C138.549 93.1699 138.381 93.3405 138.179 93.3405C137.977 93.3405 137.809 93.1699 137.809 92.9652C137.809 92.7605 137.977 92.5898 138.179 92.5898Z" fill="#231F20"/>
<path d="M139.895 92.2261V93.1701L140.433 93.2269V93.3066H138.986V93.2269L139.413 93.1701V91.2024L139.076 90.6906H139.906V91.6232C140.13 90.9863 140.388 90.702 140.837 90.5996L140.971 91.0318C140.31 91.1455 139.895 91.5095 139.895 92.2261Z" fill="#231F20"/>
<path d="M143.281 93.3083V92.8761L142.552 93.3652C141.98 93.3652 141.532 93.2173 141.532 92.2165V91.2042L141.184 90.6924H142.025V92.2278C142.025 92.9216 142.283 93.0354 142.608 93.0354C142.777 93.0354 143.035 92.9103 143.281 92.7169V91.2042L142.934 90.6924H143.775V93.3197H143.281V93.3083Z" fill="#231F20"/>
</svg>
