<svg width="221" height="161" viewBox="0 0 221 161" fill="none" xmlns="http://www.w3.org/2000/svg">
<path d="M81.3827 68.2444C80.2228 67.3225 78.8434 66.6072 77.2447 66.1144C73.138 64.8268 66.6019 65.7329 64.5173 69.8181C64.2508 70.2155 64.0941 70.6606 64.0314 71.1533C64.0314 71.1692 64.0314 71.1692 64.0314 71.1692C64.0157 71.3441 64 71.5189 64 71.7097C64.0157 72.6316 64.3605 73.4105 65.0188 74.0464C65.6771 74.6822 66.4608 74.9842 67.3699 74.9683C68.3261 74.9524 69.1255 74.6027 69.7838 73.951C70.4264 73.2993 70.7556 72.5045 70.7242 71.5825C70.7085 71.1374 70.6145 70.7083 70.4264 70.3109C70.2383 69.9135 69.9875 69.5638 69.6584 69.2617C69.4076 69.0233 69.1255 68.8326 68.8277 68.6736C70.7086 67.7993 72.7619 67.6086 74.6741 68.3557C75.6459 68.7372 76.4923 69.2458 77.229 69.9135C77.5895 70.2473 77.95 70.6606 78.3105 71.1374C78.671 71.6143 78.9845 72.1866 79.2667 72.8542C79.5488 73.5218 79.7839 74.2848 79.9877 75.1591C80.1757 76.0333 80.2855 77.003 80.3168 78.0998C80.3482 79.5145 80.2071 80.8656 79.9249 82.1532C79.6271 83.4408 79.1412 84.5853 78.4516 85.6026C76.8842 87.8916 74.439 89.0043 71.7117 88.9725C68.9844 88.9566 66.7587 88.1936 65.301 87.2557L64.4075 89.7037C66.8057 90.8959 69.9562 91.4204 72.5894 91.3727C73.4985 91.3568 74.392 91.2774 75.2541 91.1502C76.1162 91.023 76.9625 90.8164 77.7776 90.5303C78.5927 90.2441 79.392 89.8785 80.1444 89.4176C80.8968 88.9566 81.6178 88.3684 82.3231 87.6531C83.0755 86.9219 83.6868 86.143 84.1727 85.3324C84.6586 84.5217 85.0347 83.711 85.3326 82.9003C85.6147 82.0896 85.8185 81.2789 85.9282 80.4841C86.0379 79.6894 86.0849 78.9105 86.0692 78.1634C86.0222 75.8744 85.5677 73.9033 84.6899 72.2501C83.7495 70.597 82.668 69.2617 81.3827 68.2444Z" fill="#010101"/>
<path d="M99.5172 74.3497C101.085 74.3974 101.994 74.6994 101.994 76.5592V77.6878V80.3265H99.4389H98.6082H98.1223H97.2915H94.7366V79.1184V79.0549V76.5751C94.7366 74.7471 95.6301 74.4292 97.1505 74.3656H97.2131V72.6807H87.4795V74.3656C89.0469 74.4133 90.0344 74.7153 90.0344 76.5751V77.5766V77.5925V86.971C90.0344 88.8308 89.0469 89.1328 87.4795 89.1805V90.8654H97.2131V89.1805C95.6457 89.1328 94.7366 88.8308 94.7366 86.971V84.8727V82.4248H101.978V83.2037V85.445V86.971C101.978 88.8308 101.069 89.1328 99.5016 89.1805V90.8654H109.22V89.1805C107.652 89.1328 106.665 88.8308 106.665 86.971V84.2051V78.4031V76.5751C106.665 74.7153 107.652 74.4133 109.22 74.3656V72.6807H99.5016V74.3497H99.5172Z" fill="#010101"/>
<path d="M128.014 77.0836C127.716 76.4795 127.387 75.9709 127.026 75.5417C126.65 75.1125 126.305 74.7469 125.976 74.4449C125.24 73.7931 124.33 73.2686 123.265 72.8553C122.199 72.442 120.96 72.2354 119.565 72.2354C118.249 72.2354 116.979 72.4102 115.772 72.7758C114.565 73.1414 113.5 73.6978 112.59 74.4608C111.681 75.2238 110.945 76.2093 110.396 77.4174C109.847 78.6254 109.581 80.0879 109.581 81.8046C109.581 83.426 109.832 84.8248 110.349 86.0011C110.851 87.1774 111.556 88.1629 112.434 88.9259C113.312 89.7048 114.33 90.277 115.506 90.6426C116.681 91.0082 117.92 91.199 119.236 91.199C120.287 91.199 121.384 91.0559 122.544 90.7698C123.703 90.4837 124.769 89.9909 125.725 89.2756C126.697 88.5603 127.481 87.6065 128.108 86.3826C128.735 85.1586 129.048 83.6008 129.048 81.7092C129.048 80.7396 128.954 79.8812 128.766 79.1182C128.547 78.3552 128.312 77.6717 128.014 77.0836ZM123.578 83.9823C123.453 84.8248 123.218 85.6355 122.888 86.4144C122.559 87.1774 122.105 87.845 121.509 88.3695C120.929 88.91 120.177 89.1643 119.252 89.1643C118.359 89.1643 117.638 88.8941 117.058 88.3695C116.493 87.8291 116.039 87.1774 115.71 86.4144C115.381 85.6355 115.145 84.8248 115.02 83.9664C114.895 83.108 114.832 82.345 114.832 81.6774C114.832 80.3263 114.942 79.2454 115.161 78.4347C115.38 77.6081 115.616 76.9564 115.866 76.4636C115.96 76.2411 116.117 76.0026 116.305 75.7483C116.493 75.494 116.728 75.2555 116.995 75.033C117.261 74.8105 117.575 74.6197 117.951 74.4767C118.327 74.3336 118.766 74.2541 119.268 74.2541C120.208 74.2541 120.976 74.5402 121.572 75.1284C122.167 75.7165 122.622 76.4159 122.951 77.2425C123.265 78.0691 123.484 78.8957 123.594 79.7381C123.703 80.5806 123.766 81.2641 123.766 81.7887C123.766 82.4086 123.703 83.1398 123.578 83.9823Z" fill="#010101"/>
<path d="M147.668 74.7947C147.088 74.2701 146.289 73.7932 145.301 73.3322C144.314 72.8872 143.06 72.6646 141.571 72.6646C140.05 72.6646 138.64 73.0143 137.339 73.7137C136.038 74.4132 134.972 75.3987 134.141 76.6704H134.063C134.141 75.1762 134.408 73.9681 134.862 73.0461C135.317 72.1242 135.881 71.393 136.555 70.8684C137.229 70.3279 137.981 69.9464 138.812 69.6921C139.643 69.4378 140.458 69.2629 141.273 69.1358L144.282 68.6907C144.972 68.5953 145.63 68.4363 146.289 68.1979C146.931 67.9754 147.527 67.6575 148.044 67.2283C148.562 66.7991 149.016 66.2586 149.392 65.5592C149.768 64.8757 150.035 64.0173 150.192 63H148.06C147.903 63.4928 147.527 63.8266 146.916 64.0014C146.304 64.1763 145.677 64.3035 145.003 64.3829L141.994 64.7485C141.414 64.828 140.818 64.9234 140.207 65.0506C139.596 65.1777 138.985 65.3526 138.358 65.591C137.731 65.8294 137.119 66.1474 136.508 66.5448C135.897 66.9421 135.317 67.4349 134.753 68.039C134.094 68.7543 133.53 69.6126 133.06 70.6141C132.59 71.6155 132.213 72.6646 131.931 73.7614C131.649 74.8741 131.445 76.0027 131.32 77.1631C131.195 78.3235 131.132 79.4362 131.132 80.5012C131.132 81.2006 131.163 81.916 131.242 82.6631C131.32 83.4102 131.461 84.1573 131.665 84.8885C131.869 85.6197 132.166 86.335 132.558 87.0185C132.95 87.702 133.467 88.3378 134.11 88.9101C134.69 89.4346 135.521 89.9433 136.586 90.4361C137.652 90.9288 139.032 91.1832 140.709 91.1832C141.806 91.1832 142.934 91.0401 144.11 90.7699C145.286 90.4997 146.336 90.0069 147.292 89.2916C148.248 88.5763 149.032 87.6225 149.659 86.4145C150.286 85.2064 150.599 83.6804 150.599 81.8365C150.599 80.1992 150.333 78.8004 149.815 77.6559C149.267 76.5273 148.561 75.5735 147.668 74.7947ZM145.207 83.9506C145.145 84.7454 144.972 85.5243 144.674 86.3032C144.376 87.0821 143.938 87.7497 143.326 88.3219C142.715 88.8942 141.884 89.1803 140.803 89.1803C139.753 89.1803 138.953 88.8942 138.358 88.3378C137.778 87.7815 137.339 87.1139 137.041 86.3191C136.743 85.5402 136.571 84.7295 136.492 83.9188C136.414 83.0922 136.383 82.4246 136.383 81.9001C136.383 80.5489 136.492 79.4998 136.712 78.705C136.931 77.9261 137.166 77.2903 137.417 76.8134C137.715 76.2412 138.154 75.7484 138.702 75.3192C139.251 74.89 139.972 74.6834 140.85 74.6834C141.759 74.6834 142.511 74.9059 143.107 75.351C143.687 75.7961 144.157 76.3842 144.486 77.0836C144.815 77.799 145.035 78.5937 145.16 79.468C145.27 80.3582 145.333 81.2165 145.333 82.059C145.301 82.5359 145.27 83.1558 145.207 83.9506Z" fill="#010101"/>
<path d="M157.387 87.6056C157.215 87.24 156.996 86.9221 156.713 86.6519C156.431 86.3817 156.102 86.1591 155.742 86.0002C155.365 85.8412 154.989 85.7617 154.582 85.7617C153.735 85.7617 153.03 86.0478 152.45 86.6201C151.87 87.1923 151.572 87.9076 151.572 88.7501C151.572 89.5767 151.87 90.2761 152.45 90.8325C153.03 91.4047 153.735 91.6908 154.55 91.6908C155.412 91.6908 156.149 91.4047 156.745 90.8325C157.34 90.2602 157.638 89.5608 157.638 88.7501C157.622 88.3527 157.544 87.9712 157.387 87.6056Z" fill="#010101"/>
<path d="M133.547 98.4956C133.14 98.4956 132.591 98.1141 132.199 97.828L132.262 97.6531C132.528 97.7485 133.202 97.971 133.516 97.971C134.096 97.971 134.378 97.7644 134.378 97.367C134.378 96.4291 132.387 96.9855 132.387 95.6185C132.387 94.9826 133.061 94.5693 133.704 94.5693C134.174 94.5693 134.488 94.617 134.911 94.7283L134.785 95.1893L133.281 94.8078C133.093 94.8873 132.858 95.1098 132.858 95.3323C132.858 96.302 134.989 95.8092 134.989 97.208C134.989 98.0982 134.253 98.4956 133.547 98.4956Z" fill="#231F20"/>
<path d="M138.03 94.6172C138.751 94.6172 139.457 95.0782 139.457 96.2386V98.1778L140.115 98.2573V98.3686H138.171V98.2573L138.767 98.1778V96.2386C138.767 95.3166 138.218 95.0305 137.748 95.0305C137.403 95.0305 137.168 95.1735 136.839 95.3643V98.1778L137.497 98.2573V98.3686H135.554V98.2573L136.149 98.1778V95.4279L135.663 94.7126H136.839V95.11L138.03 94.6172Z" fill="#231F20"/>
<path d="M142.309 98.4949C141.291 98.4949 140.491 97.6524 140.491 96.5238C140.491 95.2204 141.275 94.5527 142.309 94.5527C143.344 94.5527 144.206 95.2045 144.206 96.5238C144.206 97.6683 143.344 98.4949 142.309 98.4949ZM142.309 94.7912C141.682 94.7912 141.275 95.4111 141.275 96.5238C141.275 97.6365 141.682 98.2564 142.309 98.2564C142.936 98.2564 143.422 97.6206 143.422 96.5238C143.438 95.427 142.936 94.7912 142.309 94.7912Z" fill="#231F20"/>
<path d="M145.021 97.9709V92.8843L144.551 92.1689H145.711V95.1256L146.855 94.5851C147.717 94.5851 148.501 95.3163 148.501 96.429C148.501 97.8437 147.278 98.4955 146.541 98.4955C146.04 98.4955 145.507 98.3047 145.021 97.9709ZM147.795 96.429C147.795 95.3322 146.886 95.0779 146.541 95.0779C146.244 95.0779 146.04 95.1573 145.726 95.3322V98.0027C145.899 98.114 146.15 98.1775 146.4 98.1775C146.808 98.1775 147.795 97.8755 147.795 96.429Z" fill="#231F20"/>
<path d="M149.504 97.3672C149.786 97.3672 150.021 97.6056 150.021 97.8918C150.021 98.1779 149.786 98.4163 149.504 98.4163C149.221 98.4163 148.986 98.1779 148.986 97.8918C148.986 97.6056 149.221 97.3672 149.504 97.3672Z" fill="#231F20"/>
<path d="M151.902 96.8571V98.1764L152.655 98.2559V98.3672H150.633V98.2559L151.228 98.1764V95.4265L150.758 94.7112H151.918V96.0146C152.232 95.1244 152.592 94.727 153.219 94.584L153.407 95.188C152.482 95.347 151.902 95.8556 151.902 96.8571Z" fill="#231F20"/>
<path d="M156.634 98.3699V97.7659L155.615 98.4494C154.816 98.4494 154.189 98.2427 154.189 96.8439V95.4292L153.703 94.7139H154.879V96.8598C154.879 97.8294 155.239 97.9884 155.694 97.9884C155.929 97.9884 156.289 97.8135 156.634 97.5433V95.4292L156.148 94.7139H157.324V98.3858H156.634V98.3699Z" fill="#231F20"/>
</svg>
