<svg width="221" height="161" viewBox="0 0 221 161" fill="none" xmlns="http://www.w3.org/2000/svg">
<path d="M136 39H86V89H136V39Z" fill="#221F73"/>
<path fill-rule="evenodd" clip-rule="evenodd" d="M89.1355 70.3691H100.468L98.9218 73.0547H95.9409V81.913H93.1006V73.0547H89.1355V70.3691Z" fill="white"/>
<path fill-rule="evenodd" clip-rule="evenodd" d="M116.16 73.0547C115.837 73.0547 115.612 73.2516 115.612 73.5891V78.6931C115.612 79.0306 115.837 79.2134 116.16 79.2134H122.038V81.899H116.16C114.107 81.899 112.772 80.6616 112.772 78.6931V73.5891C112.772 71.6346 114.107 70.3691 116.16 70.3691H122.741L121.194 73.0547H116.16V73.0547Z" fill="white"/>
<path fill-rule="evenodd" clip-rule="evenodd" d="M108.202 79.3118H104.096C103.506 79.3118 103.084 78.89 103.084 78.2994C103.084 77.6948 103.506 77.273 104.096 77.273H108.202V79.3118ZM107.668 70.3691H102.367L100.82 73.0547H107.682C108.019 73.0547 108.216 73.2516 108.216 73.5891V74.8123H103.773C101.734 74.8123 100.229 76.3168 100.229 78.3556C100.229 80.3945 101.734 81.899 103.773 81.899H111.056V73.5891C111.042 71.6487 109.706 70.3691 107.668 70.3691Z" fill="white"/>
<path fill-rule="evenodd" clip-rule="evenodd" d="M126.692 73.0547C126.368 73.0547 126.143 73.2516 126.143 73.5891V78.6931C126.143 79.0306 126.368 79.2134 126.692 79.2134H132.569V81.899H126.692C124.639 81.899 123.303 80.6616 123.303 78.6931V73.5891C123.303 71.6346 124.639 70.3691 126.692 70.3691H133.272L131.726 73.0547H126.692V73.0547Z" fill="white"/>
</svg>
