<svg width="221" height="161" viewBox="0 0 221 161" fill="none" xmlns="http://www.w3.org/2000/svg">
<path d="M139 53H83V109H139V53Z" fill="#221F73"/>
<path fill-rule="evenodd" clip-rule="evenodd" d="M86.5117 88.1338H99.2046L97.4724 91.1417H94.1338V101.063H90.9527V91.1417H86.5117V88.1338Z" fill="white"/>
<path fill-rule="evenodd" clip-rule="evenodd" d="M116.78 91.1417C116.417 91.1417 116.165 91.3621 116.165 91.7401V97.4566C116.165 97.8346 116.417 98.0393 116.78 98.0393H123.362V101.047H116.78C114.48 101.047 112.984 99.6614 112.984 97.4566V91.7401C112.984 89.5511 114.48 88.1338 116.78 88.1338H124.15L122.417 91.1417H116.78Z" fill="white"/>
<path fill-rule="evenodd" clip-rule="evenodd" d="M107.866 98.1495H103.268C102.606 98.1495 102.134 97.6771 102.134 97.0157C102.134 96.3385 102.606 95.8661 103.268 95.8661H107.866V98.1495ZM107.268 88.1338H101.331L99.5984 91.1417H107.283C107.661 91.1417 107.882 91.3621 107.882 91.7401V93.1102H102.906C100.622 93.1102 98.937 94.7952 98.937 97.0787C98.937 99.3621 100.622 101.047 102.906 101.047H111.063V91.7401C111.047 89.5669 109.551 88.1338 107.268 88.1338Z" fill="white"/>
<path fill-rule="evenodd" clip-rule="evenodd" d="M128.575 91.1417C128.213 91.1417 127.961 91.3621 127.961 91.7401V97.4566C127.961 97.8346 128.213 98.0393 128.575 98.0393H135.158V101.047H128.575C126.276 101.047 124.78 99.6614 124.78 97.4566V91.7401C124.78 89.5511 126.276 88.1338 128.575 88.1338H135.945L134.213 91.1417H128.575Z" fill="white"/>
</svg>
