<svg width="221" height="161" viewBox="0 0 221 161" fill="none" xmlns="http://www.w3.org/2000/svg">
<path d="M151 41H71V121H151V41Z" fill="#CE0E2D"/>
<path d="M84.6794 57.3523C84.5834 58.2639 84.0698 59.675 81.9136 59.675C80.3557 59.675 78.9304 58.961 78.9304 56.5705C78.9304 53.3616 81.2701 53.2402 81.8599 53.2402C84.0274 53.2402 84.5665 54.5893 84.6088 55.498H83.1977C83.0594 54.4792 82.2579 54.4369 81.9277 54.4369C81.5975 54.4369 80.4742 54.499 80.4742 56.5338C80.4742 57.6825 80.9963 58.5094 81.97 58.5094C82.2891 58.5272 82.6023 58.4188 82.8421 58.2076C83.0818 57.9963 83.2288 57.6992 83.2513 57.3805L84.6794 57.3523Z" fill="white"/>
<path d="M85.4609 56.4547C85.4609 55.0436 86.1383 53.2373 88.54 53.2373C90.637 53.2373 91.6191 54.6118 91.6191 56.4547C91.6191 58.2976 90.637 59.6721 88.54 59.6721C86.1383 59.6721 85.4609 57.8743 85.4609 56.4547ZM90.0697 56.4547C90.0697 55.8902 90.002 54.4198 88.54 54.4198C87.747 54.4198 87.016 54.846 87.016 56.4547C87.016 58.0634 87.747 58.4896 88.54 58.4896C90.002 58.4896 90.0697 56.9683 90.0697 56.4547Z" fill="white"/>
<path d="M95.0881 55.7153C95.1587 55.1508 95.5397 53.2373 98.1164 53.2373C100.561 53.2373 101.204 55.0379 101.204 56.4547C101.204 57.8715 100.561 59.6749 98.1164 59.6749C95.7485 59.6749 95.0966 58.0126 95.0542 56.8978H94.2697V59.4999H92.8359V53.401H94.2697V55.704L95.0881 55.7153ZM98.1249 54.4198C96.6629 54.4198 96.6009 55.8987 96.6009 56.4547C96.6009 57.0107 96.6629 58.4896 98.1249 58.4896C99.5868 58.4896 99.6545 56.9853 99.6545 56.4547C99.6545 55.9241 99.6122 54.4198 98.1249 54.4198Z" fill="white"/>
<path d="M103.462 57.4027C103.49 58.0293 103.854 58.4893 104.898 58.4893C105.943 58.4893 106.132 58.0293 106.132 57.6906C106.132 56.9935 105.438 56.9512 105.09 56.9512H104.227V55.8223H104.941C105.35 55.8223 105.943 55.7461 105.943 55.1449C105.943 54.4055 104.958 54.414 104.757 54.414C104.447 54.414 103.688 54.4309 103.645 55.3792H102.234C102.33 53.7366 103.346 53.2314 104.904 53.2314C106.27 53.2314 107.478 53.6576 107.478 54.9445C107.492 55.2733 107.38 55.595 107.165 55.8441C106.95 56.0932 106.648 56.2509 106.321 56.2851V56.3021C107.193 56.4742 107.67 56.9004 107.67 57.8402C107.67 59.3896 106.166 59.6662 104.848 59.6662C103.606 59.6662 102.161 59.384 102.065 57.4084L103.462 57.4027Z" fill="white"/>
<path d="M85.3569 67.5744L85.2892 70.1314H84.0192V68.7569H79.8987V70.1314H78.6287L78.5581 67.5744H79.1592C79.8648 66.5217 80.0821 65.3731 80.0821 64.0776V62.6665H84.4905V67.5716L85.3569 67.5744ZM81.434 63.8434V64.5659C81.4086 65.9206 81.2421 66.8011 80.7312 67.566H83.0709V63.8434H81.434Z" fill="white"/>
<path d="M90.1657 62.6665H91.5994V68.757H90.1657V64.7804L87.7385 68.757H86.302V62.6665H87.7385V66.5979L90.1657 62.6665Z" fill="white"/>
<path d="M94.1568 66.6657C94.1822 67.2923 94.5491 67.7551 95.5933 67.7551C96.6375 67.7551 96.8323 67.2866 96.8323 66.9479C96.8323 66.2508 96.138 66.2085 95.7909 66.2085H94.9272V65.0796H95.6413C96.0505 65.0796 96.6432 65.0034 96.6432 64.4023C96.6432 63.6628 95.6582 63.6713 95.4578 63.6713C95.1474 63.6713 94.3882 63.6882 94.3458 64.6365H92.9347C93.0307 62.994 94.0467 62.4888 95.6046 62.4888C96.9706 62.4888 98.1785 62.9149 98.1785 64.2019C98.1925 64.5306 98.0806 64.8524 97.8656 65.1015C97.6506 65.3505 97.3487 65.5083 97.0214 65.5425V65.5594C97.8935 65.7344 98.3704 66.1605 98.3704 67.0975C98.3704 68.647 96.8661 68.9264 95.5481 68.9264C94.3063 68.9264 92.8613 68.6441 92.7654 66.6685L94.1568 66.6657Z" fill="white"/>
<path d="M102.646 62.6689L104.932 68.7566H103.411L103.019 67.6277H100.809L100.428 68.7566H98.915L101.193 62.6689H102.646ZM102.705 66.5834L101.924 64.2607L101.122 66.5834H102.705Z" fill="white"/>
<path d="M109.533 62.6692H110.969V68.7568H109.533V64.783L107.106 68.7568H105.672V62.6692H107.106V66.6006L109.533 62.6692ZM107.557 61.1733C107.557 61.4753 107.766 61.7547 108.314 61.7547C108.861 61.7547 109.061 61.4725 109.07 61.1733H110.035C109.965 62.3192 108.599 62.3728 108.314 62.3728C107.859 62.3728 106.66 62.2514 106.592 61.1733H107.557Z" fill="white"/>
<path d="M113.916 68.757H112.479V62.6665H113.916V64.9554H116.123V62.6665H117.559V68.757H116.123V66.1379H113.916V68.757Z" fill="white"/>
<path d="M123.48 65.0852V66.2085H120.505V67.5716H123.968V68.757H119.072V62.6665H123.881V63.8519H120.505V65.0852H123.48Z" fill="white"/>
<path d="M127.838 62.6689C129.065 62.6689 130.135 63.129 130.135 64.6445C130.135 66.558 128.543 66.6709 127.804 66.6709H126.438V68.7679H125.004V62.6689H127.838ZM126.427 65.4771H127.555C128.241 65.4771 128.58 65.2344 128.58 64.6304C128.58 63.8035 127.877 63.8402 127.555 63.8402H126.427V65.4771Z" fill="white"/>
<path d="M130.917 65.7115C130.917 64.3004 131.594 62.4941 133.996 62.4941C136.093 62.4941 137.075 63.8686 137.075 65.7115C137.075 67.5545 136.093 68.9233 133.996 68.9233C131.594 68.9233 130.917 67.1227 130.917 65.7031V65.7115ZM135.525 65.7031C135.525 65.1386 135.458 63.6682 133.996 63.6682C133.203 63.6682 132.475 64.0944 132.475 65.7031C132.475 67.3118 133.203 67.7407 133.996 67.7407C135.458 67.7407 135.525 66.2167 135.525 65.7031Z" fill="white"/>
<path d="M141.345 62.6689C142.937 62.6689 143.222 63.5551 143.222 64.2155C143.222 64.9211 142.816 65.2852 142.223 65.4856C142.594 65.5384 142.931 65.7271 143.171 66.015C143.41 66.3028 143.534 66.6694 143.518 67.0435C143.518 68.5054 142.265 68.7368 141.187 68.7368H138.292V62.6689H141.345ZM139.725 65.0679H141.049C141.138 65.081 141.229 65.0745 141.316 65.0489C141.403 65.0233 141.483 64.9791 141.551 64.9196C141.619 64.86 141.673 64.7863 141.709 64.7038C141.746 64.6212 141.764 64.5316 141.763 64.4413C141.763 64.1901 141.622 63.8515 140.987 63.8515H139.731L139.725 65.0679ZM139.725 67.574H141.213C141.467 67.574 142.006 67.4442 142.006 66.8854C142.006 66.3266 141.554 66.1911 141.032 66.1911H139.731L139.725 67.574Z" fill="white"/>
<path d="M82.052 71.9263C83.2797 71.9263 84.3493 72.3863 84.3493 73.9019C84.3493 75.8154 82.7575 75.9282 82.0181 75.9282H80.6521V78.0252H79.2156V71.9263H82.052ZM80.6408 74.7485H81.7697C82.4556 74.7485 82.7942 74.5058 82.7942 73.9019C82.7942 73.0778 82.0915 73.1116 81.7697 73.1116H80.6408V74.7485Z" fill="white"/>
<path d="M85.1313 74.9688C85.1313 73.5577 85.8087 71.7515 88.2104 71.7515C90.3074 71.7515 91.2895 73.1259 91.2895 74.9688C91.2895 76.8118 90.3074 78.1891 88.2104 78.1891C85.8087 78.1891 85.1313 76.3884 85.1313 74.9688ZM89.7401 74.9688C89.7401 74.4044 89.6723 72.934 88.2104 72.934C87.4174 72.934 86.6864 73.3601 86.6864 74.9688C86.6864 76.5775 87.4174 77.0065 88.2104 77.0065C89.6723 77.0065 89.7401 75.4825 89.7401 74.9688Z" fill="white"/>
<path d="M97.9611 75.8663C97.8652 76.7807 97.3515 78.1891 95.1953 78.1891C93.6374 78.1891 92.2122 77.475 92.2122 75.0846C92.2122 71.8728 94.5518 71.7515 95.1445 71.7515C97.3092 71.7515 97.8482 73.1005 97.8934 74.0093H96.4822C96.4722 73.8549 96.4308 73.7041 96.3607 73.5661C96.2907 73.4282 96.1933 73.3058 96.0746 73.2066C95.9558 73.1074 95.8181 73.0333 95.6699 72.9889C95.5217 72.9445 95.366 72.9306 95.2122 72.9481C94.8905 72.9481 93.7616 73.0102 93.7616 75.045C93.7616 76.1937 94.2837 77.0206 95.2574 77.0206C96.2311 77.0206 96.4653 76.332 96.5359 75.8917L97.9611 75.8663Z" fill="white"/>
<path d="M104.497 75.8663C104.402 76.7807 103.891 78.1891 101.732 78.1891C100.177 78.1891 98.7485 77.475 98.7485 75.0846C98.7485 71.8728 101.088 71.7515 101.681 71.7515C103.846 71.7515 104.385 73.1005 104.43 74.0093H103.019C102.88 72.9933 102.082 72.9481 101.749 72.9481C101.416 72.9481 100.298 73.0102 100.298 75.045C100.298 76.1937 100.82 77.0206 101.794 77.0206C102.767 77.0206 103.002 76.332 103.072 75.8917L104.497 75.8663Z" fill="white"/>
<path d="M109.428 71.9233H110.862V78.0138H109.428V74.0372L107.001 78.0138H105.564V71.9233H107.001V75.8548L109.428 71.9233Z" fill="white"/>
<path d="M116.235 71.9233H117.672V78.0138H116.235V74.0372L113.811 78.0138H112.375V71.9233H113.811V75.8548L116.235 71.9233Z" fill="white"/>
<path d="M79.2154 83.9893H82.3199C82.9464 83.9893 84.3886 84.1445 84.3886 85.7193C84.4119 86.0562 84.3194 86.391 84.1264 86.6682C83.9334 86.9454 83.6515 87.1483 83.3274 87.2433V87.2687C84.1741 87.5199 84.1995 88.2932 84.1995 88.7476C84.2249 89.5294 84.2164 89.7636 84.4337 90.0853H82.9718C82.7206 89.7213 82.7968 89.4503 82.7291 88.5388C82.6586 87.8163 81.9191 87.8417 81.7441 87.8417H80.6406V90.0995H79.2041L79.2154 83.9893ZM80.6519 86.7212H81.9643C82.7742 86.7212 82.8871 86.2499 82.8871 85.9536C82.8871 85.3552 82.54 85.1718 81.9135 85.1718H80.6519V86.7212Z" fill="white"/>
<path d="M86.9911 83.9893V87.551C86.9911 88.5613 87.2959 89.0834 88.1934 89.0834C89.0908 89.0834 89.3928 88.6037 89.3928 87.551V83.9893H90.8265V87.7739C90.8265 88.3892 90.7306 90.2519 88.1934 90.2519C85.6561 90.2519 85.5574 88.4343 85.5574 87.7739V83.9893H86.9911Z" fill="white"/>
<path d="M93.3666 88.115C93.3666 88.4876 93.5585 89.0803 94.583 89.0803C95.1136 89.0803 95.6724 88.9843 95.6724 88.4537C95.6724 87.8018 94.8539 87.6607 94.1229 87.5054C93.0364 87.2712 92.1135 86.9833 92.1135 85.6258C92.1135 84.6437 92.7654 83.8252 94.6112 83.8252C96.3045 83.8252 96.8972 84.7904 96.9226 85.671H95.5679C95.5228 85.3408 95.3055 85.0077 94.5237 85.0077C93.8096 85.0077 93.5839 85.29 93.5839 85.5919C93.5839 86.1141 94.2612 86.2524 94.7833 86.3398C96.0703 86.5995 97.1399 86.9043 97.1399 88.2364C97.1399 88.7331 97.0016 90.2628 94.566 90.2628C92.3082 90.2628 91.9131 88.9222 91.9131 88.115H93.3666Z" fill="white"/>
<path d="M99.3919 88.115C99.3919 88.4876 99.5838 89.0803 100.611 89.0803C101.142 89.0803 101.698 88.9843 101.698 88.4537C101.698 87.8018 100.879 87.6607 100.148 87.5054C99.0617 87.2712 98.1388 86.9833 98.1388 85.6258C98.1388 84.6437 98.7908 83.8252 100.637 83.8252C102.33 83.8252 102.923 84.7904 102.951 85.671H101.593C101.548 85.3408 101.331 85.0077 100.549 85.0077C99.835 85.0077 99.6092 85.29 99.6092 85.5919C99.6092 86.1141 100.289 86.2524 100.809 86.3398C102.098 86.5995 103.168 86.9043 103.168 88.2364C103.168 88.7331 103.027 90.2628 100.591 90.2628C98.3336 90.2628 97.9385 88.9222 97.9385 88.115H99.3919Z" fill="white"/>
<path d="M105.748 83.9893H104.314V90.0769H105.748V83.9893Z" fill="white"/>
<path d="M110.263 83.9893L112.552 90.091H111.028L110.636 88.9621H108.429L108.045 90.091H106.532L108.81 84.0034L110.263 83.9893ZM110.325 87.9037L109.532 85.5754L108.734 87.8981L110.325 87.9037Z" fill="white"/>
<path d="M81.8346 93.2451C82.4189 93.2451 84.7924 93.3157 84.7924 96.2819C84.7924 99.1606 82.687 99.3327 81.7048 99.3327H79.2156V93.2451H81.8346ZM80.6521 98.1502H81.5665C82.6955 98.1502 83.243 97.5688 83.243 96.3073C83.243 94.6139 82.2523 94.4276 81.6512 94.4276H80.6521V98.1502Z" fill="white"/>
<path d="M90.4169 95.6638V96.7842H87.4422V98.1502H90.9052V99.3327H86.0085V93.2451H90.8177V94.4276H87.4422V95.6638H90.4169Z" fill="white"/>
<path d="M93.0447 97.3607C93.0447 97.7332 93.2367 98.3259 94.2612 98.3259C94.7917 98.3259 95.3506 98.2299 95.3506 97.6993C95.3506 97.0474 94.5321 96.9091 93.8011 96.751C92.7146 96.5168 91.7917 96.2289 91.7917 94.8714C91.7917 93.8893 92.4436 93.0708 94.2894 93.0708C95.9827 93.0708 96.5754 94.0388 96.6008 94.9166H95.2461C95.201 94.5864 94.9837 94.2562 94.2019 94.2562C93.4879 94.2562 93.2621 94.5384 93.2621 94.8375C93.2621 95.3597 93.9394 95.4979 94.4615 95.5854C95.7485 95.8479 96.8181 96.1499 96.8181 97.482C96.8181 97.9787 96.6798 99.5084 94.2442 99.5084C92.0005 99.5084 91.5913 98.1678 91.5913 97.3607H93.0447Z" fill="white"/>
<path d="M99.3978 93.2451H97.9641V99.3327H99.3978V93.2451Z" fill="white"/>
<path d="M106.558 96.0173V99.3222H105.488V98.6702H105.471C105.062 99.2968 104.472 99.4972 103.628 99.4972C100.992 99.4972 100.628 97.42 100.628 96.2628C100.628 95.0267 101.114 93.0596 103.837 93.0596C105.601 93.0596 106.34 94.1885 106.507 95.2101H105.017C104.991 94.9646 104.85 94.2449 103.843 94.2449C102.172 94.2449 102.189 95.958 102.189 96.3052C102.189 96.6523 102.223 98.3146 103.798 98.3146C104.424 98.3146 105.13 97.959 105.209 97.1236H103.992V96.0173H106.558Z" fill="white"/>
<path d="M109.383 95.5227V99.3327H107.949V93.2451H109.4L111.801 97.0269H111.827V93.2451H113.263V99.3327H111.801L109.4 95.5227H109.383Z" fill="white"/>
<path d="M119.185 95.6638V96.7842H116.21V98.1502H119.673V99.3327H114.773V93.2451H119.585V94.4276H116.21V95.6638H119.185Z" fill="white"/>
<path d="M120.706 93.2451H123.81C124.437 93.2451 125.879 93.4032 125.879 94.9752C125.902 95.3121 125.81 95.6469 125.617 95.924C125.424 96.2012 125.142 96.4042 124.818 96.4992V96.5161C125.665 96.7673 125.687 97.5434 125.687 97.995C125.715 98.7768 125.707 99.011 125.924 99.3327H124.462C124.208 98.9687 124.287 98.6977 124.22 97.7862C124.149 97.0637 123.41 97.089 123.235 97.089H122.131V99.3469H120.695L120.706 93.2451ZM122.142 95.9771H123.455C124.265 95.9771 124.378 95.5058 124.378 95.2122C124.378 94.6111 124.03 94.4276 123.404 94.4276H122.142V95.9771Z" fill="white"/>
<path d="M128.23 97.3607C128.23 97.7332 128.422 98.3259 129.446 98.3259C129.977 98.3259 130.536 98.2299 130.536 97.6993C130.536 97.0474 129.717 96.9091 128.986 96.751C127.9 96.5168 126.977 96.2289 126.977 94.8714C126.977 93.8893 127.629 93.0708 129.474 93.0708C131.168 93.0708 131.76 94.0388 131.786 94.9166H130.431C130.386 94.5864 130.169 94.2562 129.387 94.2562C128.673 94.2562 128.447 94.5384 128.447 94.8375C128.447 95.3597 129.125 95.4979 129.647 95.5854C130.934 95.8479 132.003 96.1499 132.003 97.482C132.003 97.9787 131.865 99.5084 129.429 99.5084C127.171 99.5084 126.776 98.1678 126.776 97.3607H128.23Z" fill="white"/>
<path d="M82.2183 102.508L84.5044 108.599H82.9832L82.5909 107.47H80.3839L80 108.599H78.4873L80.7649 102.508H82.2183ZM82.2776 106.423L81.4959 104.1L80.6943 106.423H82.2776Z" fill="white"/>
<path d="M86.3476 106.618C86.3476 106.993 86.5396 107.583 87.5669 107.583C88.0974 107.583 88.6534 107.487 88.6534 106.956C88.6534 106.304 87.835 106.166 87.104 106.008C86.0174 105.774 85.0946 105.486 85.0946 104.131C85.0946 103.146 85.7493 102.331 87.5923 102.331C89.2856 102.331 89.8811 103.296 89.9065 104.174H88.549C88.5067 103.843 88.2893 103.513 87.5047 103.513C86.7907 103.513 86.5649 103.795 86.5649 104.094C86.5649 104.617 87.2451 104.755 87.7672 104.842C89.0542 105.105 90.1238 105.407 90.1238 106.739C90.1238 107.236 89.9827 108.765 87.5499 108.765C85.2921 108.765 84.897 107.428 84.897 106.618H86.3476Z" fill="white"/>
<path d="M92.3758 106.618C92.3758 106.993 92.5649 107.583 93.5922 107.583C94.1228 107.583 94.6788 107.487 94.6788 106.956C94.6788 106.304 93.8632 106.166 93.1322 106.008C92.0428 105.774 91.1227 105.486 91.1227 104.131C91.1227 103.146 91.7747 102.331 93.6176 102.331C95.311 102.331 95.9065 103.296 95.9319 104.174H94.5744C94.532 103.843 94.3147 103.513 93.5301 103.513C92.8189 103.513 92.5931 103.795 92.5931 104.094C92.5931 104.617 93.2705 104.755 93.7926 104.842C95.0795 105.105 96.1492 105.407 96.1492 106.739C96.1492 107.236 96.0109 108.765 93.5753 108.765C91.3175 108.765 90.9224 107.428 90.9224 106.618H92.3758Z" fill="white"/>
<path d="M97.01 105.548C97.01 104.137 97.6874 102.331 100.089 102.331C102.186 102.331 103.168 103.705 103.168 105.548C103.168 107.391 102.186 108.765 100.089 108.765C97.6874 108.765 97.01 106.965 97.01 105.548ZM101.619 105.548C101.619 104.984 101.551 103.513 100.089 103.513C99.2961 103.513 98.5651 103.939 98.5651 105.548C98.5651 107.157 99.2961 107.583 100.089 107.583C101.551 107.583 101.619 106.062 101.619 105.548Z" fill="white"/>
<path d="M109.846 106.443C109.75 107.357 109.239 108.765 107.08 108.765C105.525 108.765 104.097 108.051 104.097 105.661C104.097 102.452 106.437 102.331 107.029 102.331C109.194 102.331 109.733 103.677 109.778 104.588H108.367C108.229 103.57 107.43 103.527 107.097 103.527C106.764 103.527 105.646 103.586 105.646 105.621C105.646 106.77 106.168 107.597 107.142 107.597C108.116 107.597 108.35 106.911 108.421 106.468L109.846 106.443Z" fill="white"/>
<path d="M112.347 102.502H110.913V108.59H112.347V102.502Z" fill="white"/>
<path d="M116.871 102.508L119.157 108.599H117.636L117.243 107.47H115.033L114.652 108.599H113.14L115.417 102.508H116.871ZM116.93 106.423L116.148 104.1L115.347 106.423H116.93Z" fill="white"/>
<path d="M118.843 103.684V102.502H123.96V103.684H122.123V108.59H120.689V103.684H118.843Z" fill="white"/>
<path d="M126.339 102.502H124.906V108.59H126.339V102.502Z" fill="white"/>
<path d="M127.57 105.548C127.57 104.137 128.247 102.331 130.649 102.331C132.743 102.331 133.728 103.705 133.728 105.548C133.728 107.391 132.743 108.765 130.649 108.765C128.247 108.765 127.57 106.965 127.57 105.548ZM132.178 105.548C132.178 104.984 132.108 103.513 130.649 103.513C129.856 103.513 129.125 103.939 129.125 105.548C129.125 107.157 129.856 107.583 130.649 107.583C132.108 107.583 132.178 106.062 132.178 105.548Z" fill="white"/>
<path d="M136.378 104.78V108.59H134.941V102.502H136.395L138.794 106.284H138.822V102.502H140.255V108.59H138.794L136.395 104.78H136.378Z" fill="white"/>
</svg>
