<svg width="221" height="161" viewBox="0 0 221 161" fill="none" xmlns="http://www.w3.org/2000/svg">
<g clip-path="url(#clip0_874_387)">
<path d="M176 69.9492H45.0078V78.9042H176V69.9492Z" fill="#164194"/>
<path d="M176 68.6885H45V69.1806H176V68.6885Z" fill="#164194"/>
<path d="M176 79.6729H45V80.165H176V79.6729Z" fill="#164194"/>
<path d="M111.125 93.2363L111.188 82.6309H103.466V101H111.015L119.606 90.4633L119.483 101H127.196V82.6309H119.661L111.125 93.2363ZM71.288 82.6309H61.8346L54.7692 88.575V82.6309H46.7129V101H54.7692V95.1938L56.6906 93.6898L62.5949 101.011H72.2432L62.3094 89.5427L71.288 82.6309ZM90.6395 89.034H83.0306V82.6309H74.9744V101H83.0306V93.3193H90.6395V101H98.6957V82.6309H90.6395V89.034ZM151.087 82.6309H131.972V101H140.028V86.9162H151.087V82.6309ZM167.03 82.6309H158.836L150.028 101H157.914L158.836 98.575H166.857L167.812 101H175.835L167.03 82.6309ZM160.373 94.7486L162.863 88.1658L165.457 94.7486H160.373ZM45.1182 101H45.8236V82.6309H45.1182V101ZM73.407 101H74.1125V82.6309H73.407V101ZM101.902 101H102.607V82.6309H101.902V101ZM130.501 101H131.212V82.6309H130.501V101ZM157.074 82.6309L148.483 101H149.191L157.769 82.6309H157.074Z" fill="#C01F22"/>
<path d="M53.4816 71.188L50.9289 75.8272C50.1795 77.1957 49.8776 77.3561 48.9388 77.3561H48.4255V76.206H48.6835C49.2545 76.206 49.4439 76.0345 49.4439 75.8327C49.4354 75.7343 49.4034 75.6395 49.3505 75.5563L46.8115 71.188H48.3624L50.196 74.6632L51.9225 71.188H53.4816Z" fill="white"/>
<path d="M56.981 73.5518H60.3709V71.188H61.6803V77.3561H60.3709V74.7766H56.981V77.3561H55.6689V71.188H56.981V73.5518Z" fill="white"/>
<path d="M65.4828 76.1285H65.6639L69.0045 71.188H71.2004V77.3561H69.8966V72.4128H69.7044L66.4105 77.3561H64.168V71.188H65.4828V76.1285Z" fill="white"/>
<path d="M73.7666 71.188H77.7165C78.9352 71.188 79.605 71.5972 79.605 72.7335C79.605 73.7288 79.3689 73.9417 78.927 74.1158C79.476 74.3204 79.8191 74.5886 79.8191 75.5562C79.8191 76.8806 79.2262 77.3699 77.9855 77.3699H73.7666V71.188ZM75.0787 73.6762H77.7577C78.1118 73.6762 78.3066 73.3638 78.3066 72.9574C78.3066 72.551 78.1227 72.3436 77.7577 72.3436H75.0869L75.0787 73.6762ZM75.0787 76.1838H77.711C78.4137 76.1838 78.507 76.0041 78.507 75.4622C78.507 74.9922 78.4357 74.7683 77.7577 74.7683H75.0787V76.1838Z" fill="white"/>
<path d="M82.3936 71.188H87.9959V72.3519H83.7029V73.7011H87.8586V74.7766H83.7029V76.206H87.9931V77.3699H82.3936V71.188Z" fill="white"/>
<path d="M91.7703 77.3561H90.4609V71.188H94.1967C95.5692 71.188 96.1182 71.7907 96.1182 73.3472C96.1182 74.9038 95.5692 75.5341 94.1967 75.5341H91.7538L91.7703 77.3561ZM91.7703 74.3149H93.9662C94.6277 74.3149 94.8171 74.0218 94.8171 73.3555C94.8171 72.7501 94.6524 72.4211 93.9662 72.4211H91.7703V74.3149Z" fill="white"/>
<path d="M104.729 75.2218C104.729 76.8807 104.366 77.3562 102.747 77.3562H100.304C98.786 77.3562 98.3057 76.8309 98.3057 75.1776V73.4248C98.3057 71.6222 98.819 71.1162 100.43 71.1162H102.612C103.908 71.1162 104.72 71.5337 104.72 73.2672H103.408C103.408 72.6119 103.117 72.3355 102.368 72.3355H100.688C99.8099 72.3355 99.6287 72.5041 99.6287 73.4718V75.0006C99.6287 75.9434 99.9361 76.1065 100.688 76.1065H102.368C103.153 76.1065 103.419 75.9462 103.419 75.1997L104.729 75.2218Z" fill="white"/>
<path d="M108.503 76.1285H108.681L112.022 71.188H114.218V77.3561H112.908V72.4128H112.724L109.43 77.3561H107.18V71.188H108.489L108.503 76.1285Z" fill="white"/>
<path d="M122.505 71.188V72.4128H120.188V77.3561H118.876V72.4128H116.584V71.188H122.505Z" fill="white"/>
<path d="M124.731 71.188H130.334V72.3519H126.044V73.7011H130.199V74.7766H126.044V76.206H130.334V77.3699H124.731V71.188Z" fill="white"/>
<path d="M138.557 71.188V72.4128H136.24V77.3561H134.931V72.4128H132.639V71.188H138.557Z" fill="white"/>
<path d="M147.066 75.2218C147.066 76.8807 146.703 77.3562 145.084 77.3562H142.641C141.126 77.3562 140.643 76.8309 140.643 75.1776V73.4248C140.643 71.6222 141.159 71.1162 142.767 71.1162H144.947C146.245 71.1162 147.057 71.5337 147.057 73.2672H145.737C145.737 72.6119 145.463 72.3355 144.697 72.3355H143.011C142.136 72.3355 141.955 72.5041 141.955 73.4718V75.0006C141.955 75.9434 142.262 76.1065 143.011 76.1065H144.697C145.476 76.1065 145.748 75.9462 145.748 75.1997L147.066 75.2218Z" fill="white"/>
<path d="M150.81 73.4882H151.584L153.972 71.188H155.94L152.712 74.0744L156.072 77.3561H154.151L151.612 74.7158H150.816V77.3561H149.498V71.188H150.81V73.4882Z" fill="white"/>
<path d="M157.815 77.3561L160.722 71.188H162.666L165.551 77.3561H164.019L163.305 75.7995H160.069L159.358 77.3561H157.815ZM162.775 74.6356L161.743 72.3353H161.68L160.599 74.6273L162.775 74.6356Z" fill="white"/>
<path d="M170.291 75.3987L168.979 77.3561H167.274L168.877 75.2051C168.254 75.0448 167.67 74.2983 167.67 73.3555C167.67 71.6055 168.493 71.188 169.619 71.188H173.785V77.3561H172.473V75.3987H170.291ZM169.742 72.3575C169.157 72.3575 168.99 72.6505 168.99 73.2975C168.99 73.9444 169.229 74.2402 169.78 74.2402H172.484V72.3519L169.742 72.3575Z" fill="white"/>
<path d="M46.3724 64.6577L49.367 61H49.411V65.6586L48.9855 65.7V62.0893L45.9853 65.7636H45.9414V61.1051L46.3724 61.0525V64.6577Z" fill="#BE1622"/>
<path d="M51.2503 62.2471V63.787H53.007V62.3272L53.3968 62.2471V65.6587L53.007 65.7389V64.1603H51.2503V65.6587L50.8633 65.7389V62.3272L51.2503 62.2471Z" fill="#BE1622"/>
<path d="M56.4957 61.0942V62.3273C56.9343 62.3273 57.355 62.5028 57.6651 62.8152C57.9753 63.1276 58.1495 63.5513 58.1495 63.9931C58.1495 64.4348 57.9753 64.8585 57.6651 65.1709C57.355 65.4833 56.9343 65.6588 56.4957 65.6588V66.8062L56.1059 66.8863V65.6588C55.6691 65.6588 55.2502 65.484 54.9414 65.1729C54.6325 64.8618 54.459 64.4399 54.459 64C54.459 63.56 54.6325 63.1381 54.9414 62.827C55.2502 62.5159 55.6691 62.3411 56.1059 62.3411V61.1717L56.4957 61.0942ZM56.1059 62.6978C55.7826 62.7239 55.4809 62.8716 55.261 63.1117C55.041 63.3517 54.9188 63.6664 54.9188 63.9931C54.9188 64.3197 55.041 64.6344 55.261 64.8744C55.4809 65.1145 55.7826 65.2622 56.1059 65.2883V62.6978ZM56.4957 65.2883C56.819 65.2622 57.1207 65.1145 57.3407 64.8744C57.5606 64.6344 57.6828 64.3197 57.6828 63.9931C57.6828 63.6664 57.5606 63.3517 57.3407 63.1117C57.1207 62.8716 56.819 62.7239 56.4957 62.6978V65.2883Z" fill="#BE1622"/>
<path d="M60.6644 62.2471C60.8878 62.2514 61.1081 62.3 61.3128 62.3902C61.5175 62.4804 61.7025 62.6104 61.8573 62.7727C62.012 62.935 62.1335 63.1264 62.2147 63.336C62.2959 63.5457 62.3353 63.7694 62.3306 63.9944C62.3397 64.2207 62.3033 64.4465 62.2236 64.6583C62.1439 64.8701 62.0226 65.0634 61.8668 65.2268C61.7111 65.3902 61.5242 65.5201 61.3173 65.6089C61.1104 65.6977 60.8879 65.7435 60.663 65.7435C60.4382 65.7435 60.2156 65.6977 60.0088 65.6089C59.8019 65.5201 59.615 65.3902 59.4593 65.2268C59.3035 65.0634 59.1822 64.8701 59.1025 64.6583C59.0228 64.4465 58.9864 64.2207 58.9955 63.9944C58.9911 63.7693 59.0309 63.5455 59.1124 63.3358C59.1939 63.1262 59.3156 62.9348 59.4706 62.7725C59.6256 62.6102 59.8108 62.4803 60.0156 62.3902C60.2204 62.3 60.4409 62.2514 60.6644 62.2471ZM60.6644 65.3657C61.0139 65.3506 61.3433 65.1967 61.5804 64.9376C61.8176 64.6785 61.9432 64.3354 61.9298 63.9833C61.9439 63.8071 61.9216 63.6299 61.8644 63.4628C61.8071 63.2957 61.7161 63.1423 61.5971 63.0124C61.4781 62.8824 61.3337 62.7788 61.1729 62.7078C61.0122 62.6369 60.8385 62.6003 60.663 62.6003C60.4875 62.6003 60.3139 62.6369 60.1532 62.7078C59.9924 62.7788 59.848 62.8824 59.7289 63.0124C59.6099 63.1423 59.5189 63.2957 59.4617 63.4628C59.4044 63.6299 59.3822 63.8071 59.3963 63.9833C59.3836 64.3357 59.5099 64.6788 59.7474 64.9378C59.985 65.1968 60.3147 65.3506 60.6644 65.3657Z" fill="#BE1622"/>
<path d="M63.8075 62.247V63.0045H63.8322C63.9616 62.7698 64.1522 62.5752 64.3835 62.4417C64.6147 62.3082 64.8778 62.2409 65.1442 62.247C66.1488 62.247 66.7912 63.0045 66.7912 63.9943C66.8026 64.2167 66.7695 64.4391 66.6938 64.6484C66.618 64.8576 66.5012 65.0493 66.3504 65.2121C66.1995 65.3749 66.0176 65.5055 65.8156 65.596C65.6135 65.6864 65.3955 65.735 65.1744 65.7388C64.9137 65.744 64.6559 65.6835 64.4244 65.5627C64.1929 65.442 63.9949 65.265 63.8486 65.0476H63.8294V66.8198L63.4424 66.9V62.3271L63.8075 62.247ZM63.8075 64.0136C63.8074 64.3688 63.9462 64.7098 64.1938 64.9628C64.4414 65.2158 64.7778 65.3605 65.1305 65.3656C65.3025 65.3635 65.4724 65.3266 65.6299 65.2569C65.7874 65.1872 65.9294 65.0863 66.0473 64.9601C66.1651 64.8338 66.2565 64.685 66.316 64.5223C66.3754 64.3597 66.4016 64.1867 66.3931 64.0136C66.4041 63.8353 66.3784 63.6566 66.3179 63.4887C66.2573 63.3207 66.163 63.1672 66.041 63.0375C65.919 62.9078 65.7717 62.8049 65.6085 62.735C65.4452 62.6651 65.2694 62.6298 65.0921 62.6313C64.7401 62.6442 64.4076 62.7969 64.1669 63.0558C63.9263 63.3148 63.7971 63.6591 63.8075 64.0136Z" fill="#BE1622"/>
<path d="M68.3309 62.2471L69.5469 64.8431L70.6997 62.2471H70.7519L71.5095 65.6587L71.1252 65.7389L70.6311 63.2949L69.5496 65.7389H69.5304L68.4324 63.2949L67.9411 65.7389L67.5596 65.6587L68.2815 62.2471H68.3309Z" fill="#BE1622"/>
<path d="M72.6872 62.4268C72.9671 62.3148 73.2645 62.254 73.5656 62.2471C74.691 62.2471 74.7047 63.118 74.7047 63.2949V65.6587L74.3341 65.7389V65.2606H74.3149C74.2175 65.4146 74.0814 65.5399 73.9204 65.6239C73.7594 65.7079 73.5792 65.7476 73.3981 65.7389C73.2408 65.742 73.0844 65.7128 72.9387 65.6529C72.793 65.593 72.6609 65.5037 72.5507 65.3906C72.4404 65.2775 72.3543 65.1428 72.2975 64.995C72.2407 64.8471 72.2146 64.6891 72.2206 64.5307C72.222 64.2876 72.2973 64.0507 72.4363 63.8519C72.5752 63.6531 72.7712 63.5019 72.998 63.4185C73.2248 63.3352 73.4714 63.3237 73.7049 63.3856C73.9383 63.4475 74.1474 63.5799 74.3039 63.7649V63.2562C74.3039 62.8774 73.9993 62.6203 73.5409 62.6203C73.2579 62.6363 72.9804 62.7057 72.7229 62.8249L72.539 62.9051L72.6872 62.4268ZM72.6213 64.5031C72.6151 64.7319 72.6994 64.9537 72.8557 65.1199C73.0119 65.2861 73.2273 65.3829 73.4544 65.3892C73.6815 65.3954 73.9018 65.3105 74.0668 65.1531C74.2318 64.9958 74.328 64.7789 74.3341 64.5501C74.3348 64.4336 74.311 64.3182 74.2644 64.2116C74.2178 64.1049 74.1494 64.0093 74.0637 63.9311C73.978 63.8528 73.8768 63.7936 73.7669 63.7574C73.6569 63.7211 73.5407 63.7086 73.4256 63.7207C73.321 63.7158 73.2165 63.7324 73.1185 63.7697C73.0206 63.8069 72.9312 63.8639 72.8559 63.9371C72.7806 64.0104 72.7209 64.0984 72.6806 64.1957C72.6403 64.293 72.6201 64.3976 72.6213 64.5031Z" fill="#BE1622"/>
<path d="M78.5292 62.2471V65.2883H78.9574V66.4356L78.5676 66.5158V65.6587H76.0176V62.3272L76.4046 62.2471V65.2883H78.1311V62.3272L78.5292 62.2471Z" fill="#BE1622"/>
<path d="M82.6052 62.2471H82.6354V65.6587L82.2484 65.7389V63.176L80.0525 65.7389H80.0195V62.3272L80.4093 62.2471V64.81L82.6052 62.2471Z" fill="#BE1622"/>
<path d="M85.4214 62.2471C85.6449 62.2514 85.8654 62.3 86.0702 62.3902C86.2751 62.4803 86.4603 62.6102 86.6153 62.7725C86.7702 62.9348 86.892 63.1262 86.9735 63.3358C87.055 63.5455 87.0947 63.7693 87.0903 63.9944C87.0994 64.2207 87.0631 64.4465 86.9834 64.6583C86.9037 64.8701 86.7823 65.0634 86.6266 65.2268C86.4708 65.3902 86.2839 65.5201 86.0771 65.6089C85.8702 65.6977 85.6477 65.7435 85.4228 65.7435C85.1979 65.7435 84.9754 65.6977 84.7685 65.6089C84.5617 65.5201 84.3748 65.3902 84.219 65.2268C84.0633 65.0634 83.9419 64.8701 83.8622 64.6583C83.7825 64.4465 83.7462 64.2207 83.7553 63.9944C83.7505 63.7694 83.7899 63.5457 83.8711 63.336C83.9523 63.1264 84.0738 62.935 84.2286 62.7727C84.3833 62.6104 84.5683 62.4804 84.773 62.3902C84.9777 62.3 85.1981 62.2514 85.4214 62.2471ZM85.4214 65.3657C85.7714 65.3513 86.1015 65.1977 86.3392 64.9385C86.5769 64.6794 86.7029 64.3359 86.6896 63.9833C86.7037 63.8071 86.6814 63.6299 86.6242 63.4628C86.5669 63.2957 86.4759 63.1423 86.3569 63.0124C86.2379 62.8824 86.0934 62.7788 85.9327 62.7078C85.7719 62.6369 85.5983 62.6003 85.4228 62.6003C85.2473 62.6003 85.0737 62.6369 84.9129 62.7078C84.7522 62.7788 84.6077 62.8824 84.4887 63.0124C84.3697 63.1423 84.2787 63.2957 84.2214 63.4628C84.1642 63.6299 84.1419 63.8071 84.156 63.9833C84.1434 64.3352 84.2692 64.6779 84.5062 64.9368C84.7432 65.1957 85.0722 65.3499 85.4214 65.3657Z" fill="#BE1622"/>
<path d="M88.5911 62.2471V63.787H90.3479V62.3272L90.7376 62.2471V65.6587L90.3479 65.7389V64.1603H88.5911V65.6587L88.2041 65.7389V62.3272L88.5911 62.2471Z" fill="#BE1622"/>
<path d="M92.4486 62.2471V63.787H94.2053V62.3272L94.5951 62.2471V65.6587L94.2053 65.7389V64.1603H92.4486V65.6587L92.0615 65.7389V62.3272L92.4486 62.2471Z" fill="#BE1622"/>
<path d="M97.3753 62.2471C97.5988 62.2514 97.8192 62.3 98.0241 62.3902C98.2289 62.4803 98.4141 62.6102 98.5691 62.7725C98.7241 62.9348 98.8458 63.1262 98.9273 63.3358C99.0088 63.5455 99.0485 63.7693 99.0442 63.9944C99.0442 64.4402 98.8683 64.8677 98.5554 65.183C98.2424 65.4982 97.8179 65.6753 97.3753 65.6753C96.9327 65.6753 96.5082 65.4982 96.1952 65.183C95.8822 64.8677 95.7064 64.4402 95.7064 63.9944C95.702 63.7693 95.7417 63.5455 95.8232 63.3358C95.9047 63.1262 96.0265 62.9348 96.1815 62.7725C96.3364 62.6102 96.5216 62.4803 96.7265 62.3902C96.9313 62.3 97.1518 62.2514 97.3753 62.2471ZM97.3753 65.3657C97.7253 65.3513 98.0553 65.1977 98.2931 64.9385C98.5308 64.6794 98.6568 64.3359 98.6434 63.9833C98.6575 63.8071 98.6353 63.6299 98.578 63.4628C98.5207 63.2957 98.4297 63.1423 98.3107 63.0124C98.1917 62.8824 98.0473 62.7788 97.8865 62.7078C97.7258 62.6369 97.5522 62.6003 97.3766 62.6003C97.2011 62.6003 97.0275 62.6369 96.8668 62.7078C96.706 62.7788 96.5616 62.8824 96.4426 63.0124C96.3235 63.1423 96.2325 63.2957 96.1753 63.4628C96.118 63.6299 96.0958 63.8071 96.1099 63.9833C96.0965 64.3354 96.2221 64.6785 96.4593 64.9376C96.6964 65.1967 97.0258 65.3506 97.3753 65.3657Z" fill="#BE1622"/>
<path d="M101.685 64.1711H100.06V63.8145H101.685V64.1711Z" fill="#BE1622"/>
<path d="M103.135 62.4268C103.416 62.3152 103.714 62.2543 104.016 62.2471C105.141 62.2471 105.155 63.118 105.155 63.2949V65.6587L104.784 65.7389V65.2606H104.765C104.668 65.4146 104.532 65.5399 104.371 65.6239C104.21 65.7079 104.029 65.7476 103.848 65.7389C103.691 65.742 103.535 65.7128 103.389 65.6529C103.243 65.593 103.111 65.5037 103.001 65.3906C102.891 65.2775 102.804 65.1428 102.748 64.995C102.691 64.8471 102.665 64.6891 102.671 64.5307C102.672 64.2876 102.747 64.0507 102.886 63.8519C103.025 63.6531 103.221 63.5019 103.448 63.4185C103.675 63.3352 103.922 63.3237 104.155 63.3856C104.388 63.4475 104.598 63.5799 104.754 63.7649V63.2562C104.754 62.8774 104.449 62.6203 103.991 62.6203C103.701 62.6335 103.415 62.703 103.151 62.8249L102.964 62.9051L103.135 62.4268ZM103.072 64.5031C103.065 64.7319 103.15 64.9537 103.306 65.1199C103.462 65.2861 103.677 65.3829 103.905 65.3892C104.132 65.3954 104.352 65.3105 104.517 65.1531C104.682 64.9958 104.778 64.7789 104.784 64.5501C104.785 64.4336 104.761 64.3182 104.715 64.2116C104.668 64.1049 104.6 64.0093 104.514 63.9311C104.428 63.8528 104.327 63.7936 104.217 63.7574C104.107 63.7211 103.991 63.7086 103.876 63.7207C103.771 63.7158 103.667 63.7324 103.569 63.7697C103.471 63.8069 103.381 63.8639 103.306 63.9371C103.231 64.0104 103.171 64.0984 103.131 64.1957C103.09 64.293 103.07 64.3976 103.072 64.5031Z" fill="#BE1622"/>
<path d="M106.865 62.2471V63.787H108.621V62.3272L109.011 62.2471V65.6587L108.621 65.7389V64.1603H106.865V65.6587L106.478 65.7389V62.3272L106.865 62.2471Z" fill="#BE1622"/>
<path d="M110.557 62.4268C110.837 62.3154 111.134 62.2546 111.435 62.2471C112.563 62.2471 112.574 63.118 112.574 63.2949V65.6587L112.206 65.7389V65.2606H112.187C112.089 65.4144 111.953 65.5396 111.792 65.6235C111.631 65.7075 111.451 65.7473 111.27 65.7389C111.113 65.742 110.957 65.7128 110.811 65.6529C110.665 65.593 110.533 65.5037 110.423 65.3906C110.312 65.2775 110.226 65.1428 110.17 64.995C110.113 64.8471 110.087 64.6891 110.093 64.5307C110.095 64.2882 110.17 64.0522 110.309 63.854C110.448 63.6559 110.643 63.5051 110.87 63.4219C111.096 63.3387 111.342 63.3269 111.575 63.3882C111.808 63.4495 112.016 63.5809 112.173 63.7649H112.187V63.2562C112.187 62.8774 111.882 62.6203 111.424 62.6203C111.133 62.6332 110.846 62.7027 110.581 62.8249L110.397 62.9051L110.557 62.4268ZM110.493 64.5031C110.487 64.7319 110.572 64.9537 110.728 65.1199C110.884 65.2861 111.099 65.3829 111.326 65.3892C111.554 65.3954 111.774 65.3105 111.939 65.1531C112.104 64.9958 112.2 64.7789 112.206 64.5501C112.207 64.4333 112.183 64.3177 112.136 64.2108C112.09 64.104 112.021 64.0083 111.935 63.93C111.849 63.8517 111.747 63.7925 111.637 63.7565C111.527 63.7204 111.41 63.7082 111.295 63.7207C111.19 63.7157 111.086 63.7324 110.988 63.7697C110.89 63.8069 110.801 63.864 110.726 63.9373C110.651 64.0106 110.592 64.0986 110.552 64.1959C110.512 64.2932 110.492 64.3978 110.493 64.5031Z" fill="#BE1622"/>
<path d="M114.943 62.2471L116.45 65.6587L116.093 65.7389L114.935 63.176H114.91L113.812 65.7389L113.455 65.6587L114.926 62.2471H114.943Z" fill="#BE1622"/>
<path d="M119.935 62.2471H119.966V65.6587L119.579 65.7389V63.176L117.369 65.7389H117.336V62.3272L117.726 62.2471V64.81L119.935 62.2471Z" fill="#BE1622"/>
<path d="M120.913 62.6976L120.976 62.3271H123.172V62.6976H122.25V65.6586L121.863 65.7388V62.6976H120.913Z" fill="#BE1622"/>
<path d="M126.773 62.2471H126.798V65.6587L126.411 65.7389V63.176L124.201 65.7389H124.168V62.3272L124.558 62.2471V64.81L126.773 62.2471Z" fill="#BE1622"/>
<path d="M130.382 62.2471V65.6587L129.995 65.7389V64.2791C129.707 64.3638 129.409 64.413 129.109 64.4257C128.11 64.4257 128.041 63.7151 128.041 63.176V62.3272L128.428 62.2471V63.129C128.428 63.6073 128.428 64.0524 129.153 64.0524C129.438 64.0476 129.722 64.0029 129.995 63.9197V62.3272L130.382 62.2471Z" fill="#BE1622"/>
<path d="M134.431 65.2545C134.09 65.5629 133.649 65.735 133.191 65.7383C132.965 65.7385 132.741 65.6928 132.533 65.604C132.325 65.5152 132.137 65.3852 131.98 65.2216C131.823 65.058 131.7 64.8643 131.619 64.6519C131.538 64.4395 131.5 64.2129 131.508 63.9855C131.499 63.7615 131.535 63.538 131.614 63.3282C131.693 63.1185 131.812 62.9268 131.966 62.7646C132.119 62.6024 132.304 62.4729 132.508 62.3839C132.713 62.2949 132.933 62.2482 133.155 62.2465C133.434 62.2401 133.709 62.3104 133.95 62.4497C134.192 62.589 134.392 62.7921 134.528 63.0372L132.057 64.5689C132.152 64.7905 132.308 64.9802 132.506 65.1154C132.705 65.2506 132.938 65.3257 133.177 65.3319C133.657 65.3012 134.106 65.0853 134.431 64.7292V65.2545ZM133.959 62.9515C133.855 62.8443 133.73 62.7596 133.592 62.7026C133.455 62.6456 133.307 62.6174 133.158 62.6197C132.989 62.62 132.822 62.6545 132.667 62.7213C132.512 62.7881 132.372 62.8857 132.256 63.0084C132.139 63.131 132.048 63.2761 131.989 63.435C131.929 63.5939 131.902 63.7633 131.909 63.933C131.911 64.026 131.922 64.1186 131.942 64.2094L133.959 62.9515Z" fill="#BE1622"/>
<path d="M137.955 62.9766C137.71 62.75 137.39 62.623 137.058 62.62C136.884 62.6219 136.713 62.6593 136.555 62.7298C136.397 62.8004 136.254 62.9027 136.136 63.0304C136.019 63.1582 135.928 63.3088 135.87 63.473C135.811 63.6372 135.787 63.8117 135.798 63.9858C135.786 64.1623 135.811 64.3393 135.87 64.5059C135.929 64.6726 136.022 64.8252 136.141 64.9547C136.261 65.0841 136.406 65.1875 136.567 65.2586C136.728 65.3297 136.901 65.367 137.077 65.3681C137.237 65.3709 137.397 65.3413 137.546 65.281C137.695 65.2207 137.83 65.1309 137.944 65.017L138.177 65.3239C137.875 65.5941 137.484 65.7427 137.08 65.7414C136.854 65.7419 136.63 65.6965 136.422 65.6078C136.214 65.5191 136.026 65.389 135.869 65.2253C135.712 65.0616 135.59 64.8677 135.509 64.6552C135.428 64.4426 135.391 64.2159 135.4 63.9885C135.395 63.7621 135.435 63.537 135.518 63.3264C135.6 63.1158 135.724 62.9239 135.881 62.762C136.038 62.6 136.226 62.4713 136.433 62.3833C136.64 62.2953 136.863 62.2498 137.088 62.2495C137.492 62.2482 137.883 62.3968 138.186 62.667L137.955 62.9766Z" fill="#BE1622"/>
<path d="M139.751 62.2471V63.9059H139.765L141.189 62.2471L141.488 62.4406L140.171 63.9197L141.681 65.4873L141.406 65.7389L139.759 63.9999H139.745V65.6587L139.358 65.7389V62.3272L139.751 62.2471Z" fill="#BE1622"/>
<path d="M145.224 62.2471H145.257V65.6587L144.868 65.7389V63.176L142.672 65.7389H142.639V62.3272L143.026 62.2471V64.81L145.224 62.2471Z" fill="#BE1622"/>
<path d="M149.177 62.247H149.209V65.6586L148.82 65.7388V63.1759L146.624 65.7388H146.591V62.3271L146.981 62.247V64.8154L149.177 62.247ZM147.28 61.0996C147.333 61.2184 147.419 61.3194 147.528 61.3909C147.636 61.4623 147.762 61.5013 147.892 61.5033C148.021 61.5013 148.148 61.4623 148.256 61.3909C148.364 61.3194 148.45 61.2184 148.504 61.0996L148.778 61.2185C148.709 61.3986 148.587 61.5533 148.429 61.6624C148.271 61.7714 148.084 61.8297 147.892 61.8295C147.7 61.8286 147.512 61.7699 147.353 61.6611C147.194 61.5522 147.071 61.3981 147 61.2185L147.28 61.0996Z" fill="#BE1622"/>
<path d="M154.447 62.2471V63.8672L155.797 62.2471L156.072 62.4406L154.831 63.881L156.204 65.4873L155.929 65.7389L154.422 63.9612V65.6587L154.035 65.7389V63.9612H154.021L152.512 65.7389L152.251 65.4873L153.623 63.881L152.38 62.4406L152.654 62.2471L154.005 63.8672H154.019V62.3272L154.447 62.2471Z" fill="#BE1622"/>
<path d="M157.087 62.2471L158.364 64.6773H158.391L159.489 62.2471L159.84 62.3742C159.16 63.9197 158.446 65.4154 157.713 66.8807L157.326 66.7729L158.15 65.1279L156.717 62.3825L157.087 62.2471Z" fill="#BE1622"/>
<path d="M161.065 62.247V63.0046H161.093C161.222 62.7695 161.412 62.5746 161.644 62.441C161.875 62.3074 162.138 62.2403 162.405 62.247C163.41 62.247 164.052 63.0046 164.052 63.9943C164.063 64.2167 164.03 64.4392 163.954 64.6484C163.879 64.8577 163.762 65.0494 163.611 65.2122C163.46 65.375 163.278 65.5055 163.076 65.596C162.874 65.6865 162.656 65.7351 162.435 65.7389C162.175 65.7443 161.917 65.6839 161.686 65.5632C161.455 65.4424 161.258 65.2652 161.112 65.0477H161.093V66.8199L160.703 66.9001V62.3272L161.065 62.247ZM161.065 64.0137C161.065 64.3694 161.205 64.7108 161.453 64.9639C161.701 65.2169 162.038 65.3613 162.391 65.3656C162.563 65.3636 162.733 65.3267 162.89 65.257C163.048 65.1873 163.189 65.0862 163.307 64.96C163.425 64.8337 163.516 64.6848 163.575 64.5222C163.634 64.3596 163.66 64.1866 163.651 64.0137C163.662 63.8355 163.637 63.6569 163.577 63.489C163.517 63.321 163.423 63.1674 163.301 63.0377C163.179 62.908 163.032 62.805 162.869 62.7351C162.706 62.6651 162.53 62.6298 162.353 62.6313C162.001 62.6443 161.668 62.7968 161.427 63.0557C161.186 63.3146 161.056 63.6589 161.065 64.0137Z" fill="#BE1622"/>
<path d="M165.553 62.2471V63.787H167.31V62.3272L167.697 62.2471V65.6587L167.307 65.7389V64.1603H165.55V65.6587L165.163 65.7389V62.3272L165.553 62.2471Z" fill="#BE1622"/>
<path d="M169.245 62.4268C169.525 62.3154 169.822 62.2546 170.123 62.2471C171.265 62.2471 171.265 63.118 171.265 63.2949V65.6587L170.897 65.7389V65.2606H170.878C170.781 65.4144 170.644 65.5396 170.484 65.6235C170.323 65.7075 170.143 65.7473 169.961 65.7389C169.805 65.7409 169.65 65.7108 169.505 65.6504C169.36 65.5899 169.229 65.5004 169.12 65.3874C169.011 65.2743 168.926 65.1401 168.87 64.9928C168.814 64.8455 168.789 64.6883 168.795 64.5307C168.8 64.2914 168.877 64.0591 169.015 63.8643C169.153 63.6694 169.346 63.521 169.569 63.4383C169.792 63.3557 170.035 63.3426 170.266 63.4009C170.496 63.4591 170.704 63.586 170.862 63.7649H170.876V63.2562C170.876 62.8774 170.568 62.6203 170.11 62.6203C169.819 62.6335 169.534 62.703 169.27 62.8249L169.086 62.9051L169.245 62.4268ZM169.182 64.5031C169.176 64.7319 169.26 64.9537 169.416 65.1199C169.572 65.2861 169.788 65.3829 170.015 65.3892C170.242 65.3954 170.462 65.3105 170.627 65.1531C170.792 64.9958 170.889 64.7789 170.895 64.5501C170.895 64.4333 170.872 64.3177 170.825 64.2108C170.778 64.104 170.709 64.0083 170.623 63.93C170.537 63.8517 170.436 63.7925 170.326 63.7565C170.215 63.7204 170.099 63.7082 169.983 63.7207C169.879 63.7157 169.775 63.7324 169.677 63.7697C169.579 63.8069 169.49 63.864 169.415 63.9373C169.34 64.0106 169.28 64.0986 169.24 64.1959C169.2 64.2932 169.18 64.3978 169.182 64.5031Z" fill="#BE1622"/>
<path d="M173.631 62.2471L175.138 65.6587L174.784 65.7389L173.623 63.176H173.598L172.5 65.7389L172.144 65.6587L173.615 62.2471H173.631Z" fill="#BE1622"/>
</g>
<defs>
<clipPath id="clip0_874_387">
<rect width="131" height="40" fill="white" transform="translate(45 61)"/>
</clipPath>
</defs>
</svg>
