<svg width="221" height="161" viewBox="0 0 221 161" fill="none" xmlns="http://www.w3.org/2000/svg">
<path d="M151 41.3203H76.1611V121H151V41.3203Z" fill="#F7A600"/>
<path d="M74.8392 41.3203H71V121H74.8392V41.3203Z" fill="black"/>
<path d="M79.8737 91.0383C79.8737 91.0816 80.0098 91.1249 80.0098 91.1645C80.0131 91.197 80.0131 91.2298 80.0098 91.2624C79.9983 91.3184 79.9838 91.3737 79.9663 91.4282C79.9512 91.4753 79.9361 91.5148 79.9247 91.5468C79.9134 91.5789 79.7715 91.6052 79.764 91.6278C79.758 91.6435 79.7548 91.6601 79.7545 91.6768L79.8112 91.8087C79.7942 91.8445 79.7753 91.8821 79.7621 91.916C79.7505 91.9416 79.7434 91.969 79.7413 91.997C79.7413 92.0159 79.7413 92.0498 79.7526 92.0912L79.7715 92.2306L79.7923 92.3757L79.8056 92.4774L79.6997 92.5565C79.6731 92.5796 79.6478 92.6041 79.624 92.63C79.6033 92.6516 79.5837 92.6742 79.5654 92.6978C79.5494 92.7181 79.5349 92.7395 79.5219 92.7618V92.7995C79.5654 92.9784 79.4122 92.9219 79.4368 93.0613V93.0858C79.3744 93.1536 79.3214 93.2177 79.2741 93.2742C79.2328 93.3274 79.1943 93.3827 79.1588 93.4399C79.1318 93.4842 79.109 93.5309 79.0907 93.5793C79.0764 93.6153 79.0693 93.6537 79.0699 93.6924C79.0547 93.7451 78.9072 93.8035 78.8807 93.8657C78.8543 93.9278 78.9602 93.9975 78.9299 94.071C78.8997 94.1444 78.8637 94.2254 78.8259 94.3083C78.7881 94.3912 78.7427 94.4835 78.6954 94.5777L78.8164 94.7001L78.6803 94.8226V94.9431V95.0656C78.6988 95.0939 78.714 95.1242 78.7257 95.156H72.2803V79.5591H79.0264C79.0511 79.5952 79.0708 79.6345 79.085 79.6759C79.1172 79.7851 79.3346 79.8228 79.3744 79.9C79.4038 79.9691 79.4447 80.0328 79.4954 80.0884C79.5312 80.1283 79.5779 80.1571 79.6297 80.1713C79.6205 80.212 79.6059 80.2513 79.5862 80.2881C79.5662 80.3297 79.5414 80.3689 79.5124 80.4049C79.4814 80.4463 79.4466 80.4848 79.4084 80.5198C79.3665 80.5601 79.3216 80.5972 79.2741 80.6309L79.293 80.7326L79.3101 80.8343L79.1985 81.0227L79.2155 81.1244C79.2382 81.2393 79.5181 81.2902 79.5219 81.3881C79.5257 81.4861 79.3857 81.5445 79.3706 81.6255C79.3596 81.6987 79.336 81.7695 79.3006 81.8346C79.2685 81.8949 79.3403 81.9608 79.2893 82.0041C79.2382 82.0474 79.0869 82.0644 79.051 82.1021C79.015 82.1397 79.051 82.2471 79.0226 82.2904C78.9942 82.3337 78.9318 82.3074 78.9242 82.3488C78.9176 82.3925 78.9176 82.437 78.9242 82.4807C78.9091 82.5089 78.9696 82.5975 78.9545 82.6201C78.9394 82.6427 78.8448 82.605 78.8278 82.6201C78.8129 82.6401 78.7965 82.659 78.7786 82.6766C78.7616 82.6916 78.8826 82.7934 78.8656 82.8047L78.7257 82.7877V82.9912H78.6406V83.0213V83.0533V83.0835V83.1136H78.6179L78.5649 83.1381H78.5422V83.2699L78.6708 83.4037L78.5422 83.5337V83.6655L78.5857 83.6881L78.6065 83.6994L78.6292 83.7126L78.5971 83.7446L78.5649 83.7785L78.5328 83.8106L78.5006 83.8445C78.5649 83.9575 78.6216 84.063 78.6689 84.1609C78.7162 84.2589 78.5933 84.3907 78.6254 84.4736C78.6576 84.5565 78.8467 84.5904 78.8618 84.662C78.8762 84.7238 78.8838 84.7869 78.8845 84.8503H78.8581H78.8335H78.8089H78.7843V84.888C78.7843 84.9803 78.7351 84.9784 78.8372 85.0651L78.8599 85.0858C78.8467 85.1386 78.9053 85.2101 78.8883 85.2535C78.8713 85.2968 78.7843 85.31 78.7654 85.342C78.7477 85.3719 78.7274 85.4003 78.7049 85.4268C78.6837 85.4483 78.6595 85.4667 78.633 85.4814V85.698H78.667H78.703H78.7389H78.7748V85.7564V85.8148V85.8751V85.9335H78.7427H78.7105H78.6784H78.6462C78.6586 85.9842 78.6586 86.0372 78.6462 86.0879C78.6412 86.1115 78.6329 86.1344 78.6216 86.1557C78.6216 86.1765 78.7276 86.1972 78.7105 86.216C78.6989 86.2514 78.6919 86.2881 78.6897 86.3253C78.6897 86.3629 78.5611 86.4006 78.5687 86.4402C78.5786 86.4816 78.5925 86.522 78.6103 86.5607C78.6292 86.6022 78.7824 86.6436 78.8108 86.6851L78.7238 86.7397L78.7673 86.7943L78.8089 86.8489L78.8524 86.9017V86.9789L78.8637 87.2125L78.8997 87.2389L78.9356 87.2652L78.9696 87.2897L79.0056 87.3161V87.4706L79.0453 87.4894L79.0831 87.5082L79.1228 87.5271L79.1607 87.5459L79.172 87.6005L79.1833 87.6533L79.1928 87.7079L79.2042 87.7625L79.3006 87.9509L79.2458 88.128L79.3328 88.3163L79.2042 88.5047C79.1815 88.5245 79.1634 88.5489 79.1512 88.5763C79.1398 88.6026 79.0037 88.6309 79.0037 88.6592C79.0037 88.6874 79.1398 88.7213 79.1512 88.7552C79.1625 88.7891 79.2401 88.8381 79.2647 88.8758C79.2647 88.9606 79.2193 89.0321 79.2344 89.1112C79.2495 89.1904 79.2174 89.2619 79.2344 89.3373C79.2514 89.4126 79.4689 89.4936 79.5049 89.5633C79.5408 89.633 79.6278 89.6632 79.6713 89.7272C79.7013 89.7706 79.7362 89.8104 79.7753 89.8459C79.8188 89.8873 79.6883 89.9683 79.7299 90.0041L79.8339 90.0889C79.8566 90.1096 79.8623 90.1171 79.8453 90.1096C79.8283 90.1021 79.832 90.1247 79.8453 90.168C79.8585 90.2113 80.0212 90.2791 80.0533 90.3564C80.0855 90.4336 79.9852 90.5146 80.0042 90.5994C80.0231 90.6841 79.9039 90.7632 79.8888 90.831C79.8856 90.8642 79.8856 90.8977 79.8888 90.9309C79.8888 90.9704 79.8888 91.0138 79.8888 91.0571" fill="black"/>
<path d="M79.8737 62.3535C79.8737 62.3968 80.0098 62.4401 80.0098 62.4797C80.0131 62.5122 80.0131 62.5451 80.0098 62.5776C79.9983 62.6336 79.9838 62.689 79.9663 62.7434C79.9512 62.7905 79.9361 62.83 79.9247 62.8621C79.9134 62.8941 79.7715 62.9205 79.764 62.9431C79.758 62.9587 79.7548 62.9753 79.7545 62.992L79.8112 63.1239C79.7942 63.1597 79.7753 63.1974 79.7621 63.2313C79.7505 63.2568 79.7434 63.2843 79.7413 63.3123C79.7413 63.3311 79.7413 63.365 79.7526 63.4064L79.7715 63.5458L79.7923 63.6909L79.8056 63.7926L79.7129 63.8736C79.6863 63.8967 79.6611 63.9212 79.6372 63.9471C79.6166 63.9687 79.597 63.9913 79.5786 64.0149C79.5626 64.0352 79.5481 64.0566 79.5351 64.0789V64.1166C79.5786 64.305 79.4254 64.2409 79.45 64.3784V64.4029C79.3876 64.4707 79.3346 64.5348 79.2874 64.5913C79.246 64.6445 79.2075 64.6998 79.172 64.757C79.1451 64.8013 79.1223 64.848 79.1039 64.8964C79.0896 64.9324 79.0826 64.9708 79.0831 65.0095C79.068 65.0622 78.9205 65.1206 78.894 65.1828C78.8675 65.2449 78.9734 65.3146 78.9432 65.3881C78.9129 65.4615 78.877 65.5407 78.8391 65.6254C78.8013 65.7102 78.7559 65.8006 78.7086 65.8948L78.8297 66.0172L78.6935 66.1397V66.2602V66.3827C78.712 66.411 78.7272 66.4413 78.7389 66.4731H72.2803V50.8818H79.0264C79.0511 50.9179 79.0708 50.9572 79.085 50.9986C79.1172 51.1079 79.3346 51.1456 79.3744 51.2228C79.4038 51.2919 79.4447 51.3556 79.4954 51.4112C79.5312 51.451 79.5779 51.4798 79.6297 51.494C79.6205 51.5347 79.6059 51.574 79.5862 51.6108C79.5662 51.6524 79.5414 51.6916 79.5124 51.7276C79.4814 51.7691 79.4466 51.8075 79.4084 51.8425C79.3661 51.8829 79.3212 51.9207 79.2741 51.9555L79.293 52.0554L79.3101 52.1571L79.1985 52.3455L79.2155 52.4472C79.2382 52.5621 79.5181 52.6129 79.5219 52.7109C79.5257 52.8088 79.3857 52.8672 79.3706 52.9464C79.3599 53.0202 79.3362 53.0917 79.3006 53.1573C79.2685 53.2176 79.3403 53.2835 79.2893 53.3269C79.2382 53.3702 79.0869 53.3871 79.051 53.4248C79.015 53.4625 79.051 53.5699 79.0226 53.6132C78.9942 53.6565 78.9318 53.632 78.9242 53.6735C78.9176 53.7172 78.9176 53.7616 78.9242 53.8053C78.9091 53.8336 78.9696 53.9221 78.9545 53.9447C78.9394 53.9673 78.8448 53.9296 78.8278 53.9447C78.8129 53.9648 78.7965 53.9837 78.7786 54.0012C78.7616 54.0163 78.8826 54.118 78.8656 54.1293L78.7257 54.1124V54.3177H78.6406V54.3478V54.3798V54.41V54.4401H78.6179L78.5763 54.4495H78.5536V54.5814L78.6822 54.7132L78.5536 54.8451V54.977L78.5971 54.9996L78.6179 55.0128L78.6406 55.0241L78.6084 55.0561L78.5649 55.09L78.5328 55.1239L78.5006 55.1559C78.5649 55.2689 78.6216 55.3744 78.6689 55.4724C78.7162 55.5703 78.5933 55.7022 78.6254 55.7851C78.6576 55.8679 78.8467 55.9019 78.8618 55.9734C78.8762 56.0352 78.8838 56.0984 78.8845 56.1618H78.858H78.8335H78.8089H78.7843V56.1995C78.7843 56.2918 78.7351 56.2899 78.8372 56.3765L78.8599 56.3973C78.8467 56.45 78.9053 56.5216 78.8883 56.5649C78.8713 56.6082 78.7843 56.6195 78.7654 56.6534C78.7477 56.6834 78.7274 56.7117 78.7049 56.7382C78.6837 56.7598 78.6595 56.7782 78.633 56.7928V57.0095H78.667H78.703H78.7389H78.7748V57.0679V57.1262V57.1865V57.2449H78.7427H78.7105H78.6784H78.6462C78.6533 57.2714 78.6577 57.2986 78.6595 57.3259C78.6614 57.351 78.6614 57.3762 78.6595 57.4013C78.6541 57.4242 78.6458 57.4463 78.6349 57.4672C78.6349 57.4879 78.7408 57.5086 78.7238 57.5275C78.7121 57.5628 78.7051 57.5996 78.703 57.6367C78.703 57.6744 78.5744 57.7121 78.5819 57.7516C78.5918 57.7931 78.6058 57.8334 78.6235 57.8722C78.6424 57.9136 78.7956 57.9551 78.824 57.9984L78.737 58.0511L78.7805 58.1058L78.8221 58.1604L78.8656 58.2131V58.2904L78.877 58.5239L78.9129 58.5503L78.9488 58.5767L78.9829 58.6012L79.0188 58.6275V58.7688L79.0585 58.7877L79.0963 58.8065L79.1361 58.8253L79.1739 58.8442L79.1852 58.8988L79.1966 58.9515L79.206 59.0062L79.2174 59.0608L79.3138 59.2492L79.259 59.4262L79.346 59.6146L79.2174 59.803C79.1947 59.8227 79.1767 59.8471 79.1644 59.8745C79.1531 59.9009 79.0169 59.9292 79.0169 59.9574C79.0169 59.9857 79.1531 60.0196 79.1644 60.0535C79.1758 60.0874 79.2533 60.1364 79.2779 60.174C79.2779 60.2588 79.2325 60.3304 79.2476 60.4095C79.2628 60.4886 79.2306 60.5602 79.2476 60.6355C79.2647 60.7109 79.4822 60.7919 79.5181 60.8616C79.554 60.9313 79.641 60.9614 79.6845 61.0274C79.7151 61.0697 79.75 61.1088 79.7885 61.1441C79.832 61.1856 79.7015 61.2647 79.7432 61.3024L79.8472 61.3871C79.8699 61.4079 79.8755 61.4154 79.8585 61.4079C79.8415 61.4003 79.8453 61.4229 79.8585 61.4663C79.8718 61.5096 80.0344 61.5774 80.0666 61.6546C80.0987 61.7318 79.9985 61.8147 80.0174 61.8976C80.0363 61.9805 79.9172 62.0615 79.902 62.1293C79.8988 62.1625 79.8988 62.1959 79.902 62.2291C79.902 62.2687 79.902 62.312 79.902 62.3553" fill="black"/>
<path d="M79.8737 52.4697C79.8737 52.5131 80.0098 52.5564 80.0098 52.5959C80.0131 52.6292 80.0131 52.6626 80.0098 52.6958C79.9986 52.7512 79.9841 52.8059 79.9663 52.8597C79.9512 52.9068 79.9361 52.9463 79.9247 52.9802C79.9134 53.0141 79.7715 53.0386 79.764 53.0593C79.7578 53.0756 79.7546 53.0928 79.7545 53.1102L79.8112 53.2421C79.7942 53.2778 79.7753 53.3136 79.7621 53.3475C79.7509 53.3733 79.7439 53.4006 79.7413 53.4285C79.7413 53.4474 79.7413 53.4813 79.7526 53.5227L79.7715 53.664L79.7923 53.8072L79.8056 53.9108C79.7715 53.9371 79.7413 53.9635 79.7129 53.9899L79.6372 54.0633C79.6165 54.0855 79.5969 54.1088 79.5786 54.133C79.5626 54.1533 79.5481 54.1747 79.5351 54.1971V54.2348C79.5786 54.4231 79.4254 54.3572 79.45 54.4966V54.5192C79.3876 54.5889 79.3346 54.6529 79.2874 54.7076C79.2456 54.7604 79.2071 54.8158 79.172 54.8733C79.1447 54.9174 79.1219 54.9641 79.1039 55.0127C79.0894 55.0486 79.0824 55.0871 79.0831 55.1257C79.068 55.1785 78.9205 55.235 78.894 55.299C78.8675 55.3631 78.9734 55.4309 78.9432 55.5044C78.9129 55.5778 78.877 55.6569 78.8391 55.7417C78.8013 55.8265 78.7559 55.915 78.7086 56.0092L78.8297 56.1316L78.6935 56.2541V56.3765V56.4989C78.7124 56.5271 78.7276 56.5574 78.7389 56.5894H72.2803V41H79.0264C79.0519 41.0357 79.0716 41.0751 79.085 41.1168C79.1172 41.226 79.3346 41.2637 79.3744 41.3391C79.4045 41.4078 79.4454 41.4714 79.4954 41.5274C79.5313 41.5669 79.578 41.595 79.6297 41.6084C79.6202 41.6497 79.6056 41.6895 79.5862 41.7271C79.5657 41.7685 79.541 41.8076 79.5124 41.8439C79.4809 41.8843 79.4461 41.9221 79.4084 41.9569C79.3661 41.9973 79.3212 42.0351 79.2741 42.0699L79.293 42.1717L79.3101 42.2715L79.1985 42.4599L79.2155 42.5597C79.2382 42.6765 79.5181 42.7255 79.5219 42.8234C79.5257 42.9214 79.3857 42.9816 79.3706 43.0607C79.3593 43.1345 79.3357 43.2058 79.3006 43.2717C79.2685 43.332 79.3403 43.3979 79.2893 43.4394C79.2382 43.4808 79.0869 43.4996 79.051 43.5392C79.015 43.5788 79.051 43.6824 79.0226 43.7276C78.9942 43.7728 78.9318 43.7445 78.9242 43.7879C78.9176 43.8309 78.9176 43.8748 78.9242 43.9178C78.9091 43.9461 78.9696 44.0346 78.9545 44.0591C78.9394 44.0836 78.8448 44.044 78.8278 44.0591C78.8129 44.0786 78.7964 44.0969 78.7786 44.1137C78.7616 44.1307 78.8826 44.2305 78.8656 44.2437L78.7257 44.2249V44.4302H78.6406V44.4603V44.4905V44.5225V44.5526H78.6179H78.5763H78.5536V44.6845L78.6822 44.8163L78.5536 44.9463V45.0876L78.5971 45.1121L78.6179 45.1234L78.6406 45.1347L78.6084 45.1686L78.5763 45.2006L78.5441 45.2345L78.512 45.2684C78.5763 45.3796 78.633 45.485 78.6803 45.583C78.7276 45.681 78.6046 45.8147 78.6368 45.8976C78.6689 45.9805 78.8581 46.0144 78.8732 46.0859C78.8878 46.1477 78.8954 46.2109 78.8959 46.2743H78.8694H78.8448H78.8202H78.7956V46.312C78.7956 46.4043 78.7465 46.4024 78.8486 46.4872L78.8713 46.5079C78.858 46.5606 78.9167 46.6341 78.8997 46.6755C78.8826 46.717 78.7956 46.732 78.7767 46.766C78.7595 46.7956 78.7392 46.8234 78.7162 46.8488C78.695 46.8709 78.6708 46.89 78.6443 46.9053V47.1201H78.6784H78.7143H78.7502H78.7862V47.1804V47.2388V47.2972V47.3555H78.754H78.7219H78.6897H78.6576C78.6645 47.3827 78.6689 47.4105 78.6708 47.4384C78.6728 47.4629 78.6728 47.4874 78.6708 47.5119C78.6655 47.5354 78.6572 47.5582 78.6462 47.5797C78.6462 47.6004 78.7521 47.6193 78.7351 47.6381C78.7236 47.6735 78.7167 47.7102 78.7143 47.7474C78.7143 47.785 78.5857 47.8246 78.5933 47.8623C78.6029 47.9038 78.6168 47.9442 78.6349 47.9828C78.6538 48.0243 78.807 48.0657 78.8354 48.109L78.7484 48.1636L78.7919 48.2164L78.8335 48.271L78.877 48.3256V48.4029L78.8883 48.6346L78.9242 48.6609L78.9602 48.6873L78.9942 48.7137L79.0302 48.7401V48.8813L79.0699 48.9002L79.1077 48.919L79.1474 48.9378L79.1852 48.9567L79.1966 49.0094L79.2079 49.064L79.2174 49.1187L79.2287 49.1714L79.3252 49.3598L79.2703 49.5387L79.3573 49.7271L79.2287 49.9155C79.1899 49.9277 79.1561 49.9522 79.1323 49.9852C79.1209 50.0097 78.9848 50.0379 78.9848 50.068C78.9848 50.0982 79.1209 50.1302 79.1323 50.1641C79.1436 50.198 79.2212 50.2451 79.2458 50.2828C79.2458 50.3694 79.2004 50.4391 79.2155 50.5201C79.2306 50.6011 79.1985 50.6708 79.2155 50.7462C79.2325 50.8215 79.45 50.9006 79.4859 50.9722C79.5219 51.0438 79.6089 51.0702 79.6524 51.1361C79.6824 51.1795 79.7173 51.2193 79.7564 51.2548C79.7999 51.2962 79.6694 51.3753 79.711 51.4111L79.815 51.4978C79.8377 51.5166 79.8434 51.526 79.8264 51.5166C79.8094 51.5072 79.8131 51.5317 79.8264 51.5769C79.8396 51.6221 80.0023 51.6861 80.0344 51.7652C80.0666 51.8444 79.9663 51.9254 79.9852 52.0082C80.0041 52.0911 79.885 52.1721 79.8699 52.2418C79.8666 52.2744 79.8666 52.3072 79.8699 52.3398C79.8699 52.3793 79.8699 52.4227 79.8699 52.466" fill="black"/>
<path d="M79.8737 102.086C79.8737 102.129 80.0098 102.174 80.0098 102.212C80.013 102.245 80.013 102.279 80.0098 102.312C79.9983 102.368 79.9838 102.423 79.9663 102.478C79.9512 102.525 79.9361 102.563 79.9247 102.596C79.9134 102.63 79.7715 102.655 79.764 102.676C79.758 102.692 79.7548 102.709 79.7545 102.726L79.8112 102.858C79.7942 102.894 79.7753 102.932 79.7621 102.964C79.7506 102.99 79.7436 103.018 79.7413 103.047C79.7413 103.064 79.7413 103.097 79.7526 103.139L79.7715 103.28L79.7923 103.423L79.8056 103.527L79.7129 103.606L79.6372 103.68C79.6165 103.702 79.5969 103.725 79.5786 103.749C79.5626 103.77 79.5481 103.791 79.5351 103.813V103.851C79.5786 104.039 79.4254 103.973 79.45 104.113V104.135C79.3876 104.205 79.3346 104.269 79.2874 104.324C79.2456 104.377 79.2071 104.432 79.172 104.49C79.1451 104.534 79.1223 104.58 79.1039 104.629C79.0894 104.665 79.0824 104.703 79.0831 104.742C79.068 104.795 78.9205 104.851 78.894 104.915C78.8675 104.979 78.9734 105.047 78.9432 105.121C78.9129 105.194 78.877 105.273 78.8391 105.358C78.8013 105.443 78.7559 105.531 78.7086 105.625L78.8297 105.748L78.6935 105.87V105.993V106.115C78.7124 106.143 78.7276 106.174 78.7389 106.206H72.2803V90.6162H79.0264C79.0515 90.6521 79.0712 90.6914 79.085 90.733C79.1172 90.8423 79.3346 90.8799 79.3744 90.9572C79.4048 91.0257 79.4456 91.0893 79.4954 91.1455C79.5308 91.1856 79.5776 91.2139 79.6297 91.2265C79.6202 91.2677 79.6056 91.3076 79.5862 91.3452C79.5657 91.3866 79.541 91.4257 79.5124 91.462C79.4805 91.5026 79.4457 91.541 79.4084 91.5769C79.3687 91.6127 79.3252 91.6504 79.2741 91.688L79.293 91.7897L79.3101 91.8896L79.1985 92.0779L79.2155 92.1778C79.2382 92.2946 79.5181 92.3435 79.5219 92.4415C79.5257 92.5395 79.3857 92.5997 79.3706 92.6788C79.3593 92.7526 79.3357 92.8239 79.3006 92.8898C79.2685 92.9501 79.3403 93.016 79.2893 93.0575C79.2382 93.0989 79.0869 93.1177 79.051 93.1573C79.015 93.1969 79.051 93.3023 79.0226 93.3457C78.9942 93.389 78.9318 93.3626 78.9242 93.4059C78.9176 93.449 78.9176 93.4928 78.9242 93.5359C78.9091 93.5642 78.9696 93.6527 78.9545 93.6772C78.9394 93.7017 78.8448 93.6621 78.8278 93.6772C78.8129 93.6967 78.7964 93.7149 78.7786 93.7318C78.7616 93.7488 78.8826 93.8486 78.8656 93.8618L78.7257 93.843V94.0483H78.6406V94.0784V94.1086V94.1406V94.1707H78.6179L78.5763 94.1801H78.5536V94.312L78.6822 94.4438L78.5536 94.5757V94.7057L78.5971 94.7302L78.6179 94.7415L78.6406 94.7528L78.6084 94.7867L78.5649 94.8168L78.5328 94.8507L78.5006 94.8846C78.5649 94.9958 78.6216 95.1013 78.6689 95.1992C78.7162 95.2972 78.5933 95.4309 78.6254 95.5138C78.6576 95.5967 78.8467 95.6306 78.8618 95.7022C78.8765 95.7639 78.8841 95.8271 78.8845 95.8905H78.858H78.8335H78.8089H78.7843V95.9282C78.7843 96.0205 78.7351 96.0186 78.8372 96.1034L78.8599 96.126C78.8467 96.1768 78.9053 96.2503 78.8883 96.2917C78.8713 96.3332 78.7843 96.3483 78.7654 96.3822C78.7481 96.4118 78.7279 96.4396 78.7049 96.465C78.6842 96.4877 78.6599 96.5068 78.633 96.5215V96.7363H78.667H78.703H78.7389H78.7748V96.7966V96.855V96.9134V96.9736H78.7427H78.7105H78.6784H78.6462C78.6531 97.0008 78.6575 97.0286 78.6595 97.0565C78.6615 97.081 78.6615 97.1055 78.6595 97.13C78.6541 97.1535 78.6459 97.1763 78.6349 97.1978C78.6349 97.2185 78.7408 97.2374 78.7238 97.2562C78.7123 97.2916 78.7053 97.3283 78.703 97.3654C78.703 97.4031 78.5744 97.4427 78.5819 97.4822C78.5918 97.5231 78.6058 97.5628 78.6235 97.6009C78.6424 97.6423 78.7956 97.6838 78.824 97.7271L78.737 97.7817L78.7805 97.8364L78.8221 97.8891L78.8656 97.9437V98.021L78.877 98.2527L78.9129 98.279L78.9488 98.3054L78.9829 98.3318L79.0188 98.3581V98.4994L79.0585 98.5183L79.0963 98.5371L79.1361 98.5559L79.1739 98.5748L79.1852 98.6275L79.1966 98.6821L79.206 98.7368L79.2174 98.7895L79.3138 98.9779L79.259 99.1568L79.346 99.3452L79.2174 99.5336C79.1947 99.5533 79.1767 99.5777 79.1644 99.6051C79.1531 99.6315 79.0169 99.6579 79.0169 99.688C79.0169 99.7182 79.1531 99.7502 79.1644 99.7841C79.1758 99.818 79.2533 99.8651 79.2779 99.9028C79.2779 99.9894 79.2325 100.059 79.2476 100.14C79.2628 100.221 79.2306 100.291 79.2476 100.366C79.2647 100.441 79.4822 100.521 79.5181 100.592C79.554 100.664 79.641 100.69 79.6845 100.756C79.7146 100.799 79.7495 100.839 79.7885 100.875C79.832 100.916 79.7015 100.995 79.7432 101.031L79.8472 101.118C79.8699 101.137 79.8755 101.146 79.8585 101.137C79.8415 101.127 79.8453 101.152 79.8585 101.197C79.8718 101.242 80.0344 101.308 80.0666 101.385C80.0987 101.462 79.9985 101.545 80.0174 101.628C80.0363 101.711 79.9172 101.792 79.902 101.862C79.8987 101.895 79.8987 101.928 79.902 101.962C79.902 101.999 79.902 102.043 79.902 102.086" fill="black"/>
<path d="M79.8737 116.876C79.8737 116.92 80.0098 116.963 80.0098 117.003C80.0131 117.035 80.0131 117.068 80.0098 117.101C79.9983 117.157 79.9838 117.212 79.9663 117.266C79.9512 117.313 79.9361 117.353 79.9247 117.385C79.9134 117.417 79.7715 117.443 79.764 117.466C79.758 117.482 79.7548 117.498 79.7545 117.515L79.8112 117.647C79.7942 117.683 79.7753 117.72 79.7621 117.754C79.7505 117.78 79.7434 117.807 79.7413 117.835C79.7413 117.854 79.7413 117.888 79.7526 117.929L79.7715 118.069L79.7923 118.214L79.8056 118.316L79.7129 118.397C79.6863 118.42 79.6611 118.444 79.6372 118.47C79.6166 118.492 79.597 118.514 79.5786 118.538C79.5626 118.558 79.5481 118.58 79.5351 118.602V118.64C79.5786 118.818 79.4254 118.764 79.45 118.901V118.928C79.3876 118.996 79.3346 119.06 79.2874 119.116C79.246 119.169 79.2075 119.225 79.172 119.282C79.1451 119.326 79.1223 119.373 79.1039 119.421C79.0896 119.457 79.0826 119.496 79.0831 119.534C79.068 119.587 78.9205 119.645 78.894 119.708C78.8675 119.77 78.9734 119.839 78.9432 119.913C78.9129 119.986 78.877 120.065 78.8391 120.15C78.8013 120.235 78.7559 120.325 78.7086 120.42L78.8297 120.542L78.6935 120.665V120.785V120.907C78.7116 120.936 78.7268 120.966 78.7389 120.998H72.2803V105.405H79.0264C79.0511 105.441 79.0708 105.48 79.085 105.522C79.1172 105.631 79.3346 105.669 79.3744 105.746C79.4038 105.815 79.4447 105.879 79.4954 105.934C79.5312 105.974 79.5779 106.003 79.6297 106.017C79.6205 106.058 79.6059 106.097 79.5862 106.134C79.5662 106.175 79.5414 106.215 79.5124 106.251C79.4814 106.292 79.4466 106.33 79.4084 106.365C79.3661 106.406 79.3212 106.444 79.2741 106.478L79.293 106.578L79.3101 106.68L79.1985 106.868L79.2155 106.97C79.2382 107.085 79.5181 107.136 79.5219 107.234C79.5257 107.332 79.3857 107.39 79.3706 107.469C79.3599 107.543 79.3362 107.615 79.3006 107.68C79.2685 107.741 79.3403 107.806 79.2893 107.85C79.2382 107.893 79.0869 107.91 79.051 107.948C79.015 107.985 79.051 108.093 79.0226 108.136C78.9942 108.179 78.9318 108.153 78.9242 108.195C78.9176 108.238 78.9176 108.283 78.9242 108.326C78.9091 108.355 78.9696 108.443 78.9545 108.466C78.9394 108.488 78.8448 108.451 78.8278 108.466C78.8129 108.486 78.7965 108.505 78.7786 108.522C78.7616 108.537 78.8826 108.639 78.8656 108.65L78.7257 108.633V108.837H78.6406V108.867V108.899V108.929V108.959H78.6179L78.5763 108.969H78.5536V109.101L78.6822 109.232L78.5536 109.364V109.496L78.5971 109.519L78.6179 109.53L78.6406 109.543L78.6084 109.575L78.5763 109.609L78.5441 109.643L78.512 109.675C78.5763 109.788 78.633 109.894 78.6803 109.992C78.7276 110.09 78.6046 110.221 78.6368 110.306C78.6689 110.391 78.8581 110.421 78.8732 110.494C78.8876 110.556 78.8952 110.619 78.8959 110.683H78.8694H78.8448H78.8202H78.7956V110.721C78.7956 110.813 78.7465 110.811 78.8486 110.898L78.8713 110.918C78.858 110.971 78.9167 111.043 78.8997 111.086C78.8826 111.129 78.7956 111.142 78.7767 111.175C78.759 111.204 78.7388 111.233 78.7162 111.259C78.695 111.281 78.6708 111.299 78.6443 111.314V111.531H78.6784H78.7143H78.7502H78.7862V111.589V111.647V111.708V111.766H78.754H78.7219H78.6897H78.6576C78.6646 111.792 78.669 111.82 78.6708 111.847C78.6728 111.872 78.6728 111.897 78.6708 111.922C78.6654 111.945 78.6572 111.967 78.6462 111.988C78.6462 112.009 78.7521 112.03 78.7351 112.049C78.7235 112.084 78.7165 112.121 78.7143 112.158C78.7143 112.195 78.5857 112.233 78.5933 112.273C78.6032 112.314 78.6171 112.355 78.6349 112.393C78.6538 112.435 78.807 112.476 78.8354 112.519L78.7484 112.572L78.7919 112.627L78.8335 112.681L78.877 112.734V112.813L78.8883 113.045L78.9242 113.071L78.9602 113.098L78.9942 113.124L79.0302 113.149V113.29L79.0699 113.309L79.1077 113.328L79.1474 113.346L79.1852 113.365L79.1966 113.42L79.2079 113.473L79.2174 113.527L79.2287 113.582L79.3252 113.77L79.2703 113.947L79.3573 114.136L79.2287 114.324C79.1887 114.341 79.1549 114.37 79.1323 114.407C79.1209 114.433 78.9848 114.462 78.9848 114.49C78.9848 114.518 79.1209 114.552 79.1323 114.586C79.1436 114.62 79.2212 114.669 79.2458 114.706C79.2458 114.791 79.2004 114.863 79.2155 114.942C79.2306 115.021 79.1985 115.093 79.2155 115.168C79.2325 115.243 79.45 115.324 79.4859 115.394C79.5219 115.464 79.6089 115.494 79.6524 115.56C79.683 115.602 79.7178 115.641 79.7564 115.677C79.7999 115.718 79.6694 115.799 79.711 115.835L79.815 115.92C79.8377 115.94 79.8434 115.948 79.8264 115.94C79.8094 115.933 79.8131 115.955 79.8264 115.999C79.8396 116.042 80.0023 116.11 80.0344 116.187C80.0666 116.264 79.9663 116.345 79.9852 116.43C80.0041 116.515 79.885 116.594 79.8699 116.662C79.8666 116.695 79.8666 116.728 79.8699 116.762C79.8699 116.801 79.8699 116.844 79.8699 116.888" fill="black"/>
<path d="M79.8737 77.2778C79.8737 77.3212 80.0098 77.3645 80.0098 77.404C80.0131 77.4372 80.0131 77.4707 80.0098 77.5039C79.9983 77.5599 79.9838 77.6152 79.9663 77.6696C79.9512 77.7148 79.9361 77.7544 79.9247 77.7883C79.9134 77.8222 79.7715 77.8467 79.764 77.8674C79.758 77.8837 79.7548 77.9009 79.7545 77.9183L79.8112 78.0501C79.7942 78.0859 79.7753 78.1236 79.7621 78.1556C79.7509 78.1814 79.7439 78.2087 79.7413 78.2366C79.7413 78.2555 79.7413 78.2894 79.7526 78.3308L79.7715 78.4721L79.7923 78.6152L79.8056 78.7188L79.6997 78.8055L79.624 78.879C79.6033 78.9012 79.5837 78.9244 79.5654 78.9487C79.5494 78.969 79.5349 78.9904 79.5219 79.0127V79.0504C79.5654 79.2387 79.4122 79.1728 79.4368 79.3122V79.3348C79.3744 79.4045 79.3214 79.4686 79.2741 79.5232C79.2324 79.5761 79.1938 79.6314 79.1588 79.6889C79.1318 79.7332 79.109 79.7799 79.0907 79.8283C79.0762 79.8642 79.0691 79.9027 79.0699 79.9414C79.0547 79.9941 78.9072 80.0506 78.8807 80.1147C78.8543 80.1787 78.9602 80.2465 78.9299 80.32C78.8997 80.3934 78.8637 80.4726 78.8259 80.5573C78.7881 80.6421 78.7427 80.7306 78.6954 80.8248L78.8164 80.9472L78.6803 81.0697V81.1921V81.3146C78.6991 81.3427 78.7144 81.3731 78.7257 81.405H72.2803V65.8081H79.0264C79.0515 65.844 79.0712 65.8833 79.085 65.9249C79.1172 66.0341 79.3346 66.0718 79.3744 66.1491C79.4048 66.2176 79.4456 66.2812 79.4954 66.3374C79.5313 66.3769 79.578 66.405 79.6297 66.4184C79.6202 66.4596 79.6056 66.4995 79.5862 66.5371C79.5657 66.5785 79.541 66.6176 79.5124 66.6539C79.4809 66.6943 79.4461 66.7321 79.4084 66.7669C79.3661 66.8073 79.3212 66.8451 79.2741 66.8799L79.293 66.9816L79.3101 67.0815L79.1985 67.2698L79.2155 67.3697C79.2382 67.4865 79.5181 67.5354 79.5219 67.6334C79.5257 67.7313 79.3857 67.7916 79.3706 67.8707C79.3596 67.944 79.336 68.0147 79.3006 68.0798C79.2685 68.142 79.3403 68.2079 79.2893 68.2494C79.2382 68.2908 79.0869 68.3096 79.051 68.3492C79.015 68.3887 79.051 68.4924 79.0226 68.5376C78.9942 68.5828 78.9318 68.5545 78.9242 68.5978C78.9176 68.6409 78.9176 68.6847 78.9242 68.7278C78.9091 68.7561 78.9696 68.8446 78.9545 68.8691C78.9394 68.8936 78.8448 68.854 78.8278 68.8691C78.8129 68.8886 78.7965 68.9068 78.7786 68.9237C78.7616 68.9407 78.8826 69.0405 78.8656 69.0537L78.7257 69.0349V69.2402H78.6406V69.2703V69.3004V69.3325V69.3626H78.6179H78.5763H78.5536V69.4945L78.6822 69.6263L78.5536 69.7563V69.8882L78.5971 69.9126L78.6179 69.9239L78.6406 69.9352L78.6084 69.9692L78.5763 70.0012L78.5441 70.0351L78.512 70.069C78.5763 70.1801 78.633 70.2856 78.6803 70.3836C78.7276 70.4815 78.6046 70.6153 78.6368 70.6981C78.6689 70.781 78.8581 70.8149 78.8732 70.8865C78.8878 70.9483 78.8954 71.0114 78.8959 71.0749H78.8694H78.8448H78.8202H78.7956V71.1125C78.7956 71.2049 78.7465 71.203 78.8486 71.2877L78.8713 71.3103C78.8581 71.3612 78.9167 71.4347 78.8997 71.4761C78.8826 71.5175 78.7956 71.5326 78.7767 71.5665C78.7595 71.5962 78.7392 71.6239 78.7162 71.6494C78.695 71.6715 78.6708 71.6905 78.6443 71.7059V71.9206H78.6784H78.7143H78.7502H78.7862V71.9809V72.0393V72.0977V72.1561H78.754H78.7219H78.6897H78.6576C78.6646 72.1826 78.669 72.2097 78.6708 72.2371C78.6728 72.2616 78.6728 72.2861 78.6708 72.3106C78.6655 72.3341 78.6572 72.3569 78.6462 72.3784C78.6462 72.3991 78.7521 72.4179 78.7351 72.4368C78.7236 72.4722 78.7167 72.5089 78.7143 72.546C78.7143 72.5837 78.5857 72.6233 78.5933 72.6628C78.6032 72.7036 78.6171 72.7434 78.6349 72.7815C78.6538 72.8229 78.807 72.8644 78.8354 72.9077L78.7484 72.9623L78.7919 73.0151L78.8335 73.0697L78.877 73.1243V73.2016L78.8883 73.4332L78.9242 73.4596L78.9602 73.486L78.9432 73.5312L78.9791 73.5576V73.6988L79.0188 73.7177L79.0566 73.7365L79.0963 73.7554L79.1342 73.7742L79.1455 73.8269L79.1569 73.8816L79.1663 73.9362L79.1777 73.9889L79.2741 74.1773L79.2193 74.3657L79.3063 74.5446L79.1777 74.733C79.155 74.7527 79.137 74.7772 79.1247 74.8046C79.1134 74.829 78.9772 74.8573 78.9772 74.8874C78.9772 74.9176 79.1134 74.9496 79.1247 74.9835C79.1361 75.0174 79.2136 75.0645 79.2382 75.1022C79.2382 75.1888 79.1928 75.2585 79.2079 75.3395C79.2231 75.4205 79.1909 75.4902 79.2079 75.5656C79.225 75.6409 79.4424 75.72 79.4784 75.7916C79.5143 75.8632 79.6013 75.8896 79.6448 75.9555C79.6748 75.9989 79.7097 76.0387 79.7488 76.0742C79.7923 76.1156 79.6618 76.1947 79.7034 76.2305L79.8075 76.3172C79.8302 76.336 79.8358 76.3454 79.8188 76.336C79.8018 76.3266 79.8056 76.3511 79.8188 76.3963C79.832 76.4415 79.9947 76.5055 80.0268 76.5846C80.059 76.6638 79.9588 76.7448 79.9777 76.8276C79.9966 76.9105 79.8774 76.9915 79.8623 77.0612C79.8591 77.0938 79.8591 77.1266 79.8623 77.1592C79.8623 77.1987 79.8623 77.242 79.8623 77.2854" fill="black"/>
<path d="M147.792 87.3594H72.9026V89.2657H147.792V87.3594Z" fill="#004488"/>
<path d="M80.3409 74.3486C80.3409 73.1958 79.73 72.7852 78.6388 72.7852H77.8955V76.0722H78.652C79.9324 76.0722 80.3409 75.3432 80.3409 74.3486Z" stroke="white" stroke-width="0.92" stroke-miterlimit="10"/>
<path d="M81.0235 81.0002C81.0235 79.9379 80.3502 79.4368 79.083 79.4368H78.3265V82.8274H79.1322C80.475 82.818 81.0235 82.2604 81.0235 81.0002ZM80.7814 74.6767C80.7814 73.5258 80.1686 73.1133 79.0793 73.1133H78.3228V76.4022H79.0906C80.3729 76.4022 80.7833 75.6713 80.7833 74.6767H80.7814Z" stroke="white" stroke-width="0.92" stroke-miterlimit="10"/>
<path d="M85.5777 81.2035C85.5777 82.6276 85.1295 83.8106 84.2727 84.6356C83.416 85.4607 82.1375 85.941 80.4713 85.941H73.0122V69.3345H80.9555C83.8321 69.3345 85.2259 70.8414 85.2259 73.6067C85.2259 75.2134 84.6945 76.6206 82.7314 77.1857L82.6898 77.1988V77.3363H82.737C84.7682 77.6773 85.5739 79.4254 85.5739 81.1941L85.5777 81.2035ZM80.3408 74.3488C80.3408 73.196 79.7299 72.7854 78.6387 72.7854H77.8954V76.0724H78.6519C79.9228 76.0724 80.3314 75.3434 80.3314 74.3488H80.3408ZM80.5734 80.6705C80.5734 79.61 79.902 79.107 78.633 79.107H77.8954V82.4976H78.6992C80.0344 82.4976 80.5905 81.9325 80.5905 80.6799" fill="white"/>
<path d="M80.5829 80.6705C80.5829 79.61 79.9115 79.107 78.6425 79.107H77.8954V82.4976H78.6992C80.0344 82.4882 80.5829 81.9325 80.5829 80.6705ZM80.3408 74.3488C80.3408 73.196 79.7299 72.7854 78.6387 72.7854H77.8954V76.0724H78.6519C79.9323 76.0724 80.3408 75.3434 80.3408 74.3488ZM85.5777 81.2035C85.5777 82.6276 85.1295 83.8106 84.2727 84.6356C83.416 85.4607 82.1375 85.941 80.4713 85.941H73.0122V69.3345H80.9555C83.8321 69.3345 85.2259 70.8414 85.2259 73.6067C85.2259 75.2134 84.6945 76.6206 82.7314 77.1857L82.6898 77.1988V77.3363H82.737C84.7663 77.6867 85.5777 79.4348 85.5777 81.2035V81.2035Z" stroke="white" stroke-width="0.98"/>
<path d="M86.0202 81.4955C86.0202 82.9215 85.572 84.1026 84.7133 84.9295C83.8547 85.7564 82.5781 86.233 80.9119 86.233H73.4585V69.6265H81.4018C84.2784 69.6265 85.6703 71.1334 85.6703 73.8987C85.6703 75.5054 85.1389 76.9125 83.1758 77.4777L83.1341 77.489V77.6265L83.1814 77.6359C85.2126 77.9749 86.0183 79.723 86.0183 81.4918L86.0202 81.4955ZM80.7833 74.6408C80.7833 73.4899 80.1706 73.0774 79.0812 73.0774H78.3247V76.3663H79.0925C80.3616 76.3663 80.772 75.6354 80.772 74.6408H80.7833ZM81.0235 80.9644C81.0235 79.902 80.3502 79.4009 79.0831 79.4009H78.3266V82.7802H79.1323C80.4675 82.7802 81.0235 82.2151 81.0235 80.9644Z" fill="black"/>
<path d="M97.7082 79.5081H90.4515V79.9545C90.4515 81.4728 90.877 82.1735 91.9343 82.1735C92.5262 82.1735 93.0804 81.744 93.243 80.8191H97.5759C97.1844 83.7143 95.3858 85.291 91.4955 85.291C88.443 85.291 85.7007 83.5957 85.7007 78.3402C85.7007 73.8608 88.1309 71.5458 91.8718 71.5458C95.8151 71.5458 97.7082 74.0341 97.7082 78.6793V79.5081ZM93.1938 76.8596H93.2506V76.6204C93.2506 75.3564 92.7172 74.6614 91.8718 74.6614C91.0265 74.6614 90.4515 75.3546 90.4515 76.6204V76.8596H93.1938ZM110.347 78.5738C110.347 83.509 108.324 85.291 106.085 85.291C105.48 85.3103 104.881 85.1769 104.343 84.9032C103.804 84.6295 103.344 84.2243 103.006 83.7256L102.924 83.6126H102.902V89.4671H97.9409V71.9357H102.608V73.4426H102.762L102.777 73.4163C103.647 71.9508 104.884 71.542 106.022 71.542C108.528 71.542 110.347 73.9399 110.347 78.57V78.5738ZM105.387 78.4137C105.387 76.6769 105.273 75.1266 104.112 75.1266C103.513 75.1266 103.267 75.4638 103.115 75.8669C102.964 76.27 102.902 77.0631 102.902 78.4137L102.913 79.6569C102.922 79.9243 102.946 80.191 102.987 80.4556C103.115 81.2241 103.528 81.7007 104.135 81.7007C105.252 81.7007 105.387 80.4669 105.387 78.4137ZM122.671 79.7209C122.591 83.2999 120.789 85.2872 116.668 85.2872C113.406 85.2872 110.663 83.5919 110.663 78.3364C110.663 73.857 113.095 71.542 116.795 71.542C120.827 71.542 122.508 73.7026 122.671 77.193H118.092C118.049 75.6107 117.88 74.6651 116.944 74.6651C116.038 74.6651 115.63 75.2924 115.63 78.6039C115.63 81.6329 116.04 82.1829 116.882 82.1829C117.754 82.1829 117.984 81.371 118.09 79.7341L122.671 79.7209ZM135.168 84.8954H130.629V79.9187L130.582 79.9074L130.521 80.0336L128.188 84.8992H123.199V71.9357H127.738V76.8333L127.785 76.8446L127.845 76.7183L130.179 71.93H135.163L135.168 84.8954ZM147.624 84.8954H142.788V80.5629H141.956C141.408 80.5629 141.349 81.4897 141.29 82.0473L141.13 83.3941L140.999 84.1984C140.952 84.4433 140.901 84.6788 140.842 84.8879H135.511C135.959 83.5109 136.246 81.6065 136.494 80.5554C136.717 79.6475 137.468 79.2933 137.994 79.0579L138.028 79.0428V78.8883L137.992 78.8752C137.392 78.6035 136.885 78.1628 136.533 77.6075C136.182 77.0522 136.001 76.4065 136.014 75.7501C136.014 73.4389 137.328 71.9244 140.403 71.9244H147.624V84.8954ZM142.731 77.7148H142.788V75.0532H141.892C141.063 75.0532 140.681 75.3659 140.681 76.3604C140.681 77.4907 141.249 77.7186 142.228 77.7186L142.731 77.7148Z" fill="white"/>
<path d="M98.1489 79.8265H90.8921V80.2748C90.8921 81.7931 91.3158 82.4938 92.3749 82.4938C92.9668 82.4938 93.521 82.0643 93.6817 81.1394H98.0146C97.6231 84.0347 95.8264 85.6094 91.9342 85.6094C88.8836 85.6094 86.1394 83.9141 86.1394 78.6605C86.1394 74.1811 88.5716 71.8661 92.3125 71.8661C96.2538 71.8661 98.1489 74.3544 98.1489 78.9977V79.8265ZM93.6344 77.1894H93.6912V76.9407C93.6912 75.6768 93.156 74.9817 92.3125 74.9817C91.469 74.9817 90.8921 75.6749 90.8921 76.9407V77.1799L93.6344 77.1894ZM110.788 78.9035C110.788 83.8388 108.764 85.6188 106.525 85.6188C105.921 85.6386 105.322 85.5053 104.783 85.2315C104.245 84.9578 103.785 84.5525 103.446 84.0535L103.365 83.9424H103.342V90.2207H98.3796V72.256H103.047V73.7629H103.2L103.217 73.7347C104.085 72.2711 105.324 71.8623 106.461 71.8623C108.969 71.8623 110.788 74.2602 110.788 78.8903V78.9035ZM105.827 78.734C105.827 76.9972 105.714 75.447 104.553 75.447C103.953 75.447 103.707 75.7841 103.556 76.1872C103.405 76.5904 103.34 77.3853 103.34 78.7378L103.35 79.9791C103.36 80.2472 103.385 80.5144 103.425 80.7797C103.552 81.5482 103.964 82.0248 104.572 82.0248C105.691 82.0248 105.825 80.791 105.825 78.7378L105.827 78.734ZM123.11 80.045C123.03 83.624 121.218 85.6094 117.107 85.6094C113.844 85.6094 111.102 83.9141 111.102 78.6605C111.102 74.1811 113.534 71.8661 117.232 71.8661C121.264 71.8661 122.947 74.0267 123.108 77.5171H118.527C118.484 75.9367 118.317 74.9911 117.381 74.9911C116.475 74.9911 116.057 75.6184 116.057 78.9299C116.057 81.9589 116.469 82.5089 117.311 82.5089C118.181 82.5089 118.414 81.697 118.518 80.0601L123.11 80.045ZM135.607 85.2195H131.068V80.239L131.019 80.2277L130.958 80.354L128.624 85.2195H123.641V72.256H128.18V77.1536L128.227 77.163L128.29 77.0387L130.624 72.2503H135.607V85.2195ZM148.063 85.2195H143.229V80.887H142.395C141.846 80.887 141.79 81.8138 141.731 82.3714L141.57 83.7182L141.44 84.5225C141.392 84.7674 141.339 85.0029 141.283 85.212H135.951C136.399 83.835 136.687 81.9306 136.935 80.8795C137.158 79.9716 137.909 79.6174 138.434 79.3726L138.468 79.3575V79.203L138.431 79.188C137.831 78.9164 137.324 78.4757 136.972 77.9203C136.621 77.3649 136.441 76.7192 136.454 76.0629C136.454 73.7535 137.767 72.239 140.844 72.239H148.065L148.063 85.2195ZM143.17 78.0389H143.227V75.3716H142.33C141.5 75.3716 141.12 75.6862 141.12 76.6789C141.12 77.8204 141.687 78.0389 142.667 78.0389H143.17Z" fill="black"/>
<path d="M86.0202 81.5312C86.0202 82.9553 85.572 84.1382 84.7133 84.9652C83.8547 85.7921 82.5781 86.2687 80.9119 86.2687H73.4585V69.6621H81.4018C84.2784 69.6621 85.6703 71.1691 85.6703 73.9343C85.6703 75.5411 85.1389 76.9482 83.1758 77.5133L83.1341 77.5246V77.6753L83.1814 77.6847C85.207 78.0144 86.0202 79.7624 86.0202 81.5312ZM143.172 78.0388H143.229V75.3716H142.332C141.502 75.3716 141.122 75.6861 141.122 76.6807C141.122 77.8203 141.689 78.0388 142.669 78.0388H143.172ZM148.065 85.2195H143.229V80.887H142.395C141.846 80.887 141.789 81.8138 141.731 82.3713L141.57 83.7182L141.438 84.5225C141.392 84.7674 141.339 85.0028 141.283 85.2119H135.951C136.399 83.8349 136.687 81.9305 136.935 80.8794C137.158 79.9715 137.909 79.6174 138.434 79.3725L138.467 79.3574V79.203L138.431 79.1879C137.831 78.9163 137.324 78.4756 136.972 77.9202C136.621 77.3649 136.441 76.7191 136.454 76.0629C136.454 73.7535 137.767 72.239 140.844 72.239H148.065V85.2195ZM135.609 85.2195H131.07V80.239L131.021 80.2277L130.96 80.3539L128.626 85.2195H123.641V72.2559H128.18V77.1535L128.227 77.1629L128.29 77.0386L130.624 72.2503H135.607L135.609 85.2195ZM123.111 80.045C123.032 83.624 121.22 85.6094 117.109 85.6094C113.846 85.6094 111.104 83.9141 111.104 78.6605C111.104 74.1811 113.536 71.866 117.233 71.866C121.266 71.866 122.949 74.0266 123.11 77.5171H118.527C118.484 75.9367 118.317 74.991 117.381 74.991C116.475 74.991 116.057 75.6183 116.057 78.9298C116.057 81.9588 116.469 82.5088 117.311 82.5088C118.181 82.5088 118.414 81.697 118.518 80.06L123.111 80.045ZM105.827 78.7377C105.827 77.0009 105.714 75.4507 104.553 75.4507C103.953 75.4507 103.707 75.7878 103.556 76.191C103.405 76.5941 103.34 77.3852 103.34 78.7377L103.35 79.979C103.36 80.247 103.385 80.5142 103.424 80.7796C103.552 81.5482 103.964 82.0247 104.571 82.0247C105.693 82.0247 105.827 80.7909 105.827 78.7377V78.7377ZM110.788 78.894C110.788 83.8293 108.764 85.6094 106.525 85.6094C105.921 85.6291 105.322 85.4958 104.783 85.2221C104.245 84.9483 103.785 84.543 103.446 84.044L103.365 83.9329H103.342V90.2206H98.3795V72.2559H103.047V73.7629H103.2L103.217 73.7346C104.085 72.271 105.324 71.8623 106.461 71.8623C108.969 71.866 110.788 74.2639 110.788 78.894V78.894ZM93.6344 77.1799H93.6911V76.9407C93.6911 75.6767 93.1559 74.9816 92.3124 74.9816C91.4689 74.9816 90.8921 75.6748 90.8921 76.9407V77.1799H93.6344ZM98.1488 79.817H90.8921V80.2654C90.8921 81.7836 91.3157 82.4843 92.3748 82.4843C92.9668 82.4843 93.5209 82.0549 93.6817 81.13H98.0145C97.623 84.0252 95.8263 85.6 91.9341 85.6C88.8836 85.6 86.1393 83.9046 86.1393 78.651C86.1393 74.1716 88.5715 71.8566 92.3124 71.8566C96.2538 71.8566 98.1488 74.3449 98.1488 78.9882V79.817ZM81.0235 81C81.0235 79.9376 80.3502 79.4365 79.0831 79.4365H78.3266V82.8272H79.1323C80.475 82.8178 81.0235 82.2602 81.0235 81ZM80.7814 74.6765C80.7814 73.5255 80.1687 73.113 79.0793 73.113H78.3228V76.4019H79.0906C80.3729 76.4019 80.7833 75.6711 80.7833 74.6765H80.7814Z" stroke="white" stroke-width="0.98"/>
<path d="M73.557 65.7065V66.7539H73.9031V65.7065H74.4969V68.5038H73.9031V67.3133H73.557V68.5038H72.9631V65.7065H73.557Z" fill="white"/>
<path d="M73.557 65.7065V66.7539H73.9031V65.7065H74.4969V68.5038H73.9031V67.3133H73.557V68.5038H72.9631V65.7065H73.557Z" stroke="black" stroke-width="1.08" stroke-miterlimit="10"/>
<path d="M75.8738 65.7065L76.3598 68.5019H75.7281L75.6752 68.0046H75.2629L75.2005 68.5019H74.6047L75.0832 65.7065H75.8738ZM75.6222 67.5036L75.4823 66.1379L75.331 67.5036H75.6222Z" fill="white"/>
<path d="M75.8738 65.7065L76.3598 68.5019H75.7281L75.6752 68.0046H75.2629L75.2005 68.5019H74.6047L75.0832 65.7065H75.8738ZM75.6222 67.5036L75.4823 66.1379L75.331 67.5036H75.6222Z" stroke="black" stroke-width="1.08" stroke-miterlimit="10"/>
<path d="M76.4675 65.7065H77.0557V67.9632H77.398V65.7065H77.9843V67.9632H78.3266V65.7065H78.9148V68.5038H76.4675V65.7065Z" fill="white"/>
<path d="M76.4675 65.7065H77.0557V67.9632H77.398V65.7065H77.9843V67.9632H78.3266V65.7065H78.9148V68.5038H76.4675V65.7065Z" stroke="black" stroke-width="1.08" stroke-miterlimit="10"/>
<path d="M80.2897 65.7065L80.7758 68.5019H80.1479L80.0949 68.0046H79.677L79.6164 68.5019H79.0188L79.4973 65.7065H80.2897ZM80.0382 67.5036L79.8888 66.1417L79.7394 67.5036H80.0382Z" fill="white"/>
<path d="M80.2897 65.7065L80.7758 68.5019H80.1479L80.0949 68.0046H79.677L79.6164 68.5019H79.0188L79.4973 65.7065H80.2897ZM80.0382 67.5036L79.8888 66.1417L79.7394 67.5036H80.0382Z" stroke="black" stroke-width="1.08" stroke-miterlimit="10"/>
<path d="M74.1887 87.8096H74.4649L74.1358 88.6309H73.8597L73.5325 87.8096H73.8218L74.0015 88.3747L74.1887 87.8096Z" fill="white"/>
<path d="M75.3971 88.126V88.3144H74.9716V88.4481H75.5068V88.6365H74.7068V87.8096H75.4898V87.9979H74.9716V88.1223L75.3971 88.126Z" fill="white"/>
<path d="M75.7905 87.8097H76.3258C76.4042 87.8022 76.4829 87.8215 76.5489 87.8643C76.5773 87.8863 76.5996 87.9152 76.6139 87.9481C76.6281 87.981 76.6337 88.017 76.6302 88.0527C76.6316 88.0787 76.6278 88.1048 76.6191 88.1293C76.6103 88.1539 76.5967 88.1765 76.5792 88.1958C76.5492 88.2237 76.5128 88.2437 76.4733 88.2542C76.5109 88.2584 76.5457 88.2757 76.5716 88.3032C76.6004 88.3403 76.6151 88.3863 76.6132 88.4332V88.5123C76.6128 88.5549 76.6246 88.5967 76.6473 88.6328H76.3806C76.3584 88.6029 76.3471 88.5664 76.3484 88.5292V88.4708C76.35 88.452 76.3476 88.4331 76.3415 88.4153C76.3353 88.3974 76.3254 88.3811 76.3125 88.3672C76.28 88.3479 76.2425 88.3387 76.2047 88.3409H76.0572V88.6328H75.7905V87.8097ZM76.0534 88.1713H76.2425C76.2739 88.1727 76.3051 88.1662 76.3333 88.1525C76.3447 88.1437 76.3538 88.1322 76.3597 88.119C76.3656 88.1059 76.3683 88.0915 76.3674 88.0772C76.3685 88.0626 76.3655 88.0481 76.3588 88.0351C76.3522 88.0222 76.342 88.0113 76.3295 88.0037C76.3008 87.992 76.2696 87.9874 76.2388 87.9905H76.0496L76.0534 88.1713Z" fill="white"/>
<path d="M77.1692 88.3615C77.1684 88.3771 77.1712 88.3927 77.1775 88.4071C77.1837 88.4215 77.1932 88.4342 77.2052 88.4443C77.2423 88.466 77.2852 88.4758 77.3281 88.4726C77.3641 88.4754 77.4003 88.4703 77.434 88.4575C77.4479 88.4515 77.4597 88.4414 77.4677 88.4287C77.4758 88.4159 77.4799 88.401 77.4794 88.3859C77.4794 88.3706 77.4741 88.3557 77.4645 88.3438C77.4549 88.3318 77.4415 88.3234 77.4264 88.32C77.3922 88.3079 77.3566 88.2997 77.3205 88.2955L77.1995 88.2767C77.1138 88.2731 77.0313 88.2435 76.9631 88.1919C76.946 88.1738 76.9327 88.1525 76.9239 88.1292C76.9152 88.1059 76.9111 88.0811 76.912 88.0563C76.9091 88.0126 76.9188 87.9691 76.9399 87.9307C76.961 87.8923 76.9927 87.8607 77.0312 87.8397C77.1185 87.7946 77.2167 87.7744 77.3149 87.7813C77.4128 87.774 77.5109 87.7935 77.5985 87.8378C77.6356 87.8568 77.6663 87.8862 77.6868 87.9223C77.7073 87.9585 77.7167 87.9998 77.7139 88.0412H77.4586C77.4602 88.0264 77.4571 88.0115 77.4496 87.9986C77.4421 87.9857 77.4307 87.9756 77.417 87.9696C77.3502 87.947 77.2777 87.947 77.2108 87.9696C77.199 87.9753 77.1891 87.9841 77.1821 87.9951C77.175 88.0061 77.1712 88.0188 77.1711 88.0318C77.1711 88.0714 77.2071 88.0845 77.2279 88.0902C77.2696 88.1002 77.3119 88.1077 77.3546 88.1128L77.4567 88.1279C77.534 88.1335 77.6088 88.1581 77.6742 88.1995C77.7012 88.2206 77.7227 88.2479 77.7368 88.279C77.751 88.3102 77.7574 88.3443 77.7555 88.3784C77.757 88.4177 77.7489 88.4568 77.7317 88.4923C77.7146 88.5278 77.689 88.5585 77.6572 88.5818C77.5601 88.6365 77.4485 88.6602 77.3376 88.6497C77.2167 88.6622 77.0951 88.6329 76.9933 88.5668C76.9644 88.5413 76.9416 88.5095 76.9269 88.4739C76.9121 88.4384 76.9058 88.3999 76.9082 88.3615H77.1692Z" fill="white"/>
<path d="M78.3115 87.8096V88.6309H78.0486V87.8096H78.3115Z" fill="white"/>
<path d="M78.8184 88.6309H78.5518L78.9187 87.8096H79.1664L79.5333 88.6309H79.2667L79.208 88.4877H78.8771L78.8184 88.6309ZM79.1494 88.3276L79.0416 88.0563L78.9432 88.3276H79.1494Z" fill="white"/>
<path d="M79.7905 88.4121H80.0458V88.6325H79.7905V88.4121Z" fill="white"/>
<path d="M80.4033 87.8097H80.9385C81.017 87.8022 81.0957 87.8215 81.1617 87.8643C81.1901 87.8863 81.2124 87.9152 81.2267 87.9481C81.2409 87.981 81.2465 88.017 81.243 88.0527C81.2444 88.0787 81.2406 88.1048 81.2319 88.1293C81.2231 88.1539 81.2095 88.1765 81.192 88.1958C81.162 88.2237 81.1256 88.2437 81.0861 88.2542C81.1237 88.2584 81.1585 88.2757 81.1844 88.3032C81.2132 88.3403 81.2279 88.3863 81.226 88.4332V88.5123C81.2256 88.5549 81.2374 88.5967 81.2601 88.6328H80.9934C80.9712 88.6029 80.9598 88.5664 80.9612 88.5292V88.4708C80.9628 88.452 80.9604 88.4331 80.9543 88.4153C80.9481 88.3974 80.9382 88.3811 80.9253 88.3672C80.8928 88.3479 80.8553 88.3387 80.8175 88.3409H80.67V88.6328H80.4033V87.8097ZM80.6662 88.1713H80.8553C80.8867 88.1727 80.9179 88.1662 80.9461 88.1525C80.9575 88.1437 80.9666 88.1322 80.9725 88.119C80.9784 88.1059 80.9811 88.0915 80.9802 88.0772C80.9813 88.0626 80.9783 88.0481 80.9716 88.0351C80.965 88.0222 80.9548 88.0113 80.9423 88.0037C80.9136 87.992 80.8824 87.9874 80.8515 87.9905H80.6624L80.6662 88.1713Z" fill="white"/>
<path d="M82.4194 88.3069C82.4225 88.3541 82.4154 88.4015 82.3984 88.4457C82.3814 88.4899 82.355 88.53 82.321 88.563C82.2254 88.6305 82.1087 88.6619 81.9919 88.6516C81.8764 88.6617 81.761 88.6303 81.6666 88.563C81.6319 88.5305 81.605 88.4906 81.588 88.4462C81.5709 88.4018 81.5642 88.3542 81.5683 88.3069V87.8096H81.8293V88.2805C81.8254 88.3287 81.8403 88.3766 81.8709 88.4142C81.9048 88.4422 81.948 88.4563 81.9919 88.4538C82.0143 88.4557 82.0369 88.4532 82.0583 88.4464C82.0798 88.4397 82.0996 88.4287 82.1168 88.4142C82.1474 88.3766 82.1623 88.3287 82.1584 88.2805V87.8096H82.4194V88.3069Z" fill="white"/>
<path d="M105.158 88.6009C105.048 88.6852 104.913 88.7309 104.774 88.7309C104.635 88.7309 104.5 88.6852 104.39 88.6009C104.316 88.5172 104.275 88.4093 104.275 88.2976C104.275 88.1859 104.316 88.078 104.39 87.9943C104.5 87.9088 104.635 87.8623 104.774 87.8623C104.913 87.8623 105.048 87.9088 105.158 87.9943C105.232 88.078 105.273 88.1859 105.273 88.2976C105.273 88.4093 105.232 88.5172 105.158 88.6009ZM104.621 88.1111C104.598 88.1366 104.58 88.1663 104.569 88.1987C104.557 88.231 104.552 88.2653 104.555 88.2995C104.551 88.3685 104.575 88.4362 104.621 88.4879C104.664 88.5231 104.718 88.5423 104.774 88.5423C104.83 88.5423 104.884 88.5231 104.927 88.4879C104.973 88.4362 104.997 88.3685 104.993 88.2995C104.995 88.2653 104.991 88.231 104.979 88.1987C104.968 88.1663 104.95 88.1366 104.927 88.1111C104.884 88.0759 104.83 88.0567 104.774 88.0567C104.718 88.0567 104.664 88.0759 104.621 88.1111Z" fill="white"/>
<path d="M105.841 88.2011H106.1C106.192 88.1911 106.284 88.2175 106.357 88.2746C106.379 88.2976 106.396 88.3249 106.407 88.3547C106.418 88.3845 106.423 88.4162 106.421 88.4479C106.422 88.483 106.416 88.5178 106.403 88.5503C106.389 88.5827 106.369 88.612 106.344 88.6363C106.264 88.6899 106.167 88.7139 106.071 88.7041H105.58V87.8828H106.366V88.0712H105.842L105.841 88.2011ZM105.841 88.5364H106.045C106.058 88.5376 106.072 88.536 106.085 88.5318C106.098 88.5276 106.11 88.5209 106.12 88.5119C106.136 88.4942 106.144 88.4713 106.143 88.4479C106.144 88.4358 106.141 88.4237 106.136 88.4126C106.132 88.4015 106.124 88.3917 106.115 88.3839C106.09 88.3698 106.062 88.3633 106.033 88.365H105.844L105.841 88.5364Z" fill="white"/>
<path d="M107.244 88.5141V87.8906H107.501V88.5141H107.77V87.8906H108.029V88.5141H108.171L108.157 88.8908H107.934V88.7176H106.716V87.8963H106.975V88.5198L107.244 88.5141Z" fill="white"/>
<path d="M109.126 88.2067V88.3951H108.697V88.527H109.232V88.7153H108.436V87.894H109.219V88.0824H108.697V88.2067H109.126Z" fill="white"/>
<path d="M109.782 88.7119H109.521V87.8906H109.782V88.1826H110.121V87.8906H110.382V88.7119H110.121V88.3766H109.782V88.7119Z" fill="white"/>
<path d="M110.89 88.7119H110.624L110.99 87.8906H111.24L111.605 88.7119H111.338L111.282 88.5688H110.951L110.89 88.7119ZM111.221 88.4086L111.115 88.1374L111.009 88.4086H111.221Z" fill="white"/>
<path d="M112.439 88.5141V87.8906H112.7V88.5141H112.84L112.827 88.8908H112.608V88.7176H111.851V87.8963H112.112V88.5198L112.439 88.5141Z" fill="white"/>
<path d="M113.714 87.8906H113.971V88.7119H113.714V88.2071L113.364 88.7119H113.105V87.8906H113.364V88.3879L113.714 87.8906Z" fill="white"/>
<path d="M115.161 88.6009C115.051 88.6852 114.916 88.7309 114.777 88.7309C114.638 88.7309 114.503 88.6852 114.393 88.6009C114.319 88.5172 114.278 88.4093 114.278 88.2976C114.278 88.1859 114.319 88.078 114.393 87.9943C114.502 87.9088 114.638 87.8623 114.777 87.8623C114.916 87.8623 115.051 87.9088 115.161 87.9943C115.235 88.078 115.276 88.1859 115.276 88.2976C115.276 88.4093 115.235 88.5172 115.161 88.6009ZM114.624 88.1111C114.601 88.1366 114.583 88.1663 114.572 88.1987C114.56 88.231 114.555 88.2653 114.557 88.2995C114.554 88.3685 114.578 88.4362 114.624 88.4879C114.667 88.5231 114.721 88.5423 114.777 88.5423C114.833 88.5423 114.887 88.5231 114.93 88.4879C114.976 88.4362 115 88.3685 114.996 88.2995C114.998 88.2653 114.994 88.231 114.982 88.1987C114.971 88.1663 114.953 88.1366 114.93 88.1111C114.887 88.0759 114.833 88.0567 114.777 88.0567C114.721 88.0567 114.667 88.0759 114.624 88.1111Z" fill="white"/>
<path d="M115.844 88.7119H115.583V87.8906H115.844V88.1826H116.184V87.8906H116.445V88.7119H116.184V88.3766H115.844V88.7119Z" fill="white"/>
<path d="M116.957 88.7119H116.691L117.058 87.8906H117.305L117.672 88.7119H117.406L117.347 88.5688H117.016L116.957 88.7119ZM117.288 88.4086L117.181 88.1374L117.076 88.4086H117.288Z" fill="white"/>
<path d="M117.858 88.5255C117.874 88.5275 117.89 88.5275 117.907 88.5255C117.92 88.5262 117.934 88.5242 117.946 88.5196C117.959 88.5151 117.971 88.5081 117.981 88.4991C118.012 88.4589 118.028 88.4088 118.026 88.3579C118.026 88.3221 118.026 88.2109 118.026 88.1695V87.8926H118.769V88.7139H118.508V88.0847H118.257V88.2505C118.257 88.3261 118.252 88.4016 118.242 88.4765C118.237 88.5467 118.208 88.6131 118.16 88.6649C118.135 88.6873 118.104 88.7042 118.072 88.7146C118.039 88.7249 118.005 88.7285 117.971 88.7252C117.93 88.7266 117.888 88.7221 117.848 88.712L117.858 88.5255Z" fill="white"/>
<path d="M119.384 88.1805H119.634C119.72 88.174 119.806 88.1944 119.88 88.2389C119.91 88.2628 119.935 88.2939 119.95 88.3294C119.966 88.3648 119.973 88.4036 119.97 88.4423C119.971 88.4771 119.965 88.5117 119.953 88.544C119.94 88.5764 119.921 88.6059 119.897 88.6307C119.814 88.6875 119.715 88.7142 119.615 88.7061H119.123V87.8848H119.384V88.1805ZM119.384 88.5328H119.573C119.603 88.534 119.633 88.5262 119.658 88.5102C119.668 88.5013 119.676 88.4903 119.682 88.4778C119.687 88.4654 119.689 88.452 119.689 88.4386C119.689 88.4256 119.686 88.4126 119.68 88.401C119.674 88.3894 119.666 88.3796 119.654 88.3726C119.627 88.3577 119.596 88.3511 119.566 88.3538H119.376L119.384 88.5328Z" fill="white"/>
<path d="M120.502 88.7119H120.241V87.8906H120.502V88.1826H120.84V87.8906H121.101V88.7119H120.84V88.3766H120.502V88.7119Z" fill="white"/>
<path d="M122.291 88.6007C122.181 88.6848 122.046 88.7305 121.908 88.7305C121.769 88.7305 121.635 88.6848 121.525 88.6007C121.45 88.517 121.409 88.4091 121.409 88.2974C121.409 88.1857 121.45 88.0778 121.525 87.9941C121.634 87.9087 121.769 87.8623 121.908 87.8623C122.047 87.8623 122.181 87.9087 122.291 87.9941C122.365 88.0778 122.406 88.1857 122.406 88.2974C122.406 88.4091 122.365 88.517 122.291 88.6007ZM121.756 88.1109C121.732 88.1361 121.714 88.1658 121.703 88.1982C121.691 88.2306 121.687 88.265 121.689 88.2993C121.687 88.3335 121.692 88.3678 121.703 88.4002C121.714 88.4326 121.732 88.4623 121.756 88.4876C121.798 88.523 121.852 88.5424 121.908 88.5424C121.963 88.5424 122.017 88.523 122.06 88.4876C122.083 88.4623 122.101 88.4326 122.112 88.4002C122.124 88.3678 122.128 88.3335 122.126 88.2993C122.129 88.265 122.124 88.2306 122.113 88.1982C122.101 88.1658 122.083 88.1361 122.06 88.1109C122.017 88.0755 121.963 88.0561 121.908 88.0561C121.852 88.0561 121.798 88.0755 121.756 88.1109Z" fill="white"/>
<path d="M123.405 88.2067V88.3951H122.975V88.527H123.509V88.7153H122.714V87.894H123.497V88.0824H122.975V88.2067H123.405Z" fill="white"/>
<path d="M124.918 88.2067V88.3951H124.487V88.527H125.022V88.7153H124.226V87.894H125.009V88.0824H124.487V88.2067H124.918Z" fill="white"/>
<path d="M125.82 88.3465L125.546 88.7119H125.237L125.616 88.2674L125.262 87.8906H125.561L125.827 88.2109V87.8906H126.086V88.2109L126.351 87.8906H126.652L126.298 88.2674L126.667 88.7119H126.361L126.086 88.3465V88.7119H125.827L125.82 88.3465Z" fill="white"/>
<path d="M127.59 88.2067V88.3951H127.17V88.527H127.705V88.7153H126.909V87.894H127.692V88.0824H127.17V88.2067H127.59Z" fill="white"/>
<path d="M128.246 88.7119H127.985V87.8906H128.246V88.1826H128.585V87.8906H128.846V88.7119H128.585V88.3766H128.246V88.7119Z" fill="white"/>
<path d="M129.88 88.2067V88.3951H129.449V88.527H129.984V88.7153H129.188V87.894H129.971V88.0824H129.449V88.2067H129.88Z" fill="white"/>
<path d="M131.297 88.5159L131.286 88.8927H131.072V88.7194H130.44V88.8927H130.228L130.215 88.5159H130.342C130.377 88.4572 130.403 88.3937 130.419 88.3276C130.436 88.2496 130.443 88.1699 130.44 88.0902V87.9019H131.159V88.5272L131.297 88.5159ZM130.671 88.0827V88.1354C130.673 88.1986 130.668 88.2618 130.656 88.3238C130.641 88.3897 130.617 88.4532 130.584 88.5122H130.902V88.0733L130.671 88.0827Z" fill="white"/>
<path d="M132.26 88.2067V88.3951H131.828V88.527H132.364V88.7153H131.567V87.894H132.35V88.0824H131.828V88.2067H132.26Z" fill="white"/>
<path d="M132.594 88.5255C132.61 88.5275 132.626 88.5275 132.642 88.5255C132.669 88.5265 132.696 88.5171 132.717 88.4991C132.749 88.4589 132.765 88.4088 132.763 88.3579C132.763 88.3221 132.763 88.2109 132.763 88.1695V87.8926H133.504V88.7139H133.243V88.0847H132.993V88.2505C132.993 88.326 132.989 88.4015 132.98 88.4765C132.974 88.5465 132.946 88.6126 132.899 88.6649C132.873 88.687 132.843 88.7037 132.81 88.7141C132.778 88.7245 132.744 88.7282 132.71 88.7252C132.668 88.7268 132.627 88.7224 132.587 88.712L132.594 88.5255Z" fill="white"/>
<path d="M134.121 88.1805H134.37C134.456 88.174 134.542 88.1944 134.616 88.2389C134.647 88.2628 134.671 88.2939 134.687 88.3294C134.703 88.3648 134.71 88.4036 134.707 88.4423C134.708 88.4771 134.702 88.5117 134.689 88.544C134.677 88.5764 134.658 88.6059 134.633 88.6307C134.551 88.6875 134.451 88.7142 134.351 88.7061H133.86V87.8848H134.121V88.1805ZM134.121 88.5328H134.31C134.34 88.534 134.369 88.5262 134.395 88.5102C134.405 88.5013 134.413 88.4903 134.418 88.4778C134.424 88.4654 134.426 88.452 134.425 88.4386C134.426 88.4256 134.423 88.4126 134.417 88.401C134.411 88.3894 134.402 88.3796 134.391 88.3726C134.364 88.3577 134.333 88.3511 134.302 88.3538H134.113L134.121 88.5328Z" fill="white"/>
<path d="M135.238 88.7119H134.977V87.8906H135.238V88.1826H135.577V87.8906H135.838V88.7119H135.577V88.3766H135.238V88.7119Z" fill="white"/>
<path d="M137.027 88.6007C136.918 88.6848 136.783 88.7305 136.644 88.7305C136.506 88.7305 136.371 88.6848 136.261 88.6007C136.187 88.517 136.146 88.4091 136.146 88.2974C136.146 88.1857 136.187 88.0778 136.261 87.9941C136.371 87.9087 136.505 87.8623 136.644 87.8623C136.783 87.8623 136.918 87.9087 137.027 87.9941C137.103 88.0772 137.145 88.1853 137.145 88.2974C137.145 88.4095 137.103 88.5175 137.027 88.6007ZM136.492 88.1109C136.469 88.1361 136.451 88.1658 136.439 88.1982C136.428 88.2306 136.423 88.265 136.426 88.2993C136.424 88.3335 136.428 88.3678 136.44 88.4002C136.451 88.4326 136.469 88.4623 136.492 88.4876C136.513 88.5066 136.537 88.5212 136.563 88.5306C136.589 88.54 136.617 88.544 136.645 88.5423C136.673 88.5439 136.701 88.5399 136.727 88.5305C136.754 88.5211 136.778 88.5065 136.798 88.4876C136.844 88.4357 136.867 88.368 136.863 88.2993C136.865 88.2652 136.861 88.231 136.85 88.1987C136.839 88.1663 136.821 88.1365 136.798 88.1109C136.778 88.092 136.754 88.0774 136.727 88.0681C136.701 88.0587 136.673 88.0547 136.645 88.0563C136.617 88.055 136.589 88.0596 136.563 88.0696C136.536 88.0797 136.512 88.095 136.492 88.1147V88.1109Z" fill="white"/>
<path d="M138.14 88.2067V88.3951H137.71V88.527H138.244V88.7153H137.449V87.894H138.232V88.0824H137.71V88.2067H138.14Z" fill="white"/>
<path d="M139.571 87.8906H139.828V88.7119H139.571V88.2071L139.221 88.7119H138.962V87.8906H139.219V88.3879L139.571 87.8906Z" fill="white"/>
<path d="M140.382 88.4293C140.382 88.4462 140.386 88.463 140.393 88.4784C140.4 88.4937 140.411 88.5072 140.424 88.5178C140.464 88.5438 140.511 88.5552 140.558 88.5498C140.598 88.5532 140.637 88.5467 140.674 88.531C140.687 88.5235 140.698 88.5128 140.705 88.5C140.713 88.4871 140.717 88.4725 140.717 88.4575C140.717 88.441 140.711 88.4249 140.7 88.4122C140.69 88.3995 140.675 88.3909 140.659 88.3878C140.621 88.3775 140.582 88.3737 140.543 88.3765H140.473V88.224H140.541C140.58 88.2265 140.618 88.222 140.655 88.2108C140.669 88.2056 140.68 88.1963 140.689 88.1842C140.697 88.172 140.701 88.1576 140.7 88.143C140.701 88.1262 140.696 88.1096 140.686 88.0957C140.677 88.0818 140.663 88.0713 140.647 88.0657C140.614 88.0546 140.58 88.0495 140.545 88.0507C140.504 88.0476 140.463 88.0582 140.428 88.0808C140.415 88.0904 140.405 88.1027 140.398 88.1167C140.391 88.1307 140.387 88.1461 140.386 88.1618H140.127C140.126 88.1202 140.135 88.079 140.154 88.0419C140.173 88.0048 140.201 87.9728 140.235 87.9489C140.328 87.8914 140.438 87.865 140.547 87.8736C140.678 87.8598 140.809 87.894 140.916 87.9697C140.936 87.989 140.951 88.0122 140.962 88.0378C140.972 88.0634 140.977 88.0909 140.976 88.1185C140.978 88.1406 140.974 88.1628 140.967 88.1836C140.959 88.2043 140.947 88.2232 140.931 88.239C140.902 88.2644 140.865 88.2801 140.827 88.2842C140.874 88.2899 140.918 88.3096 140.954 88.3408C140.972 88.3572 140.987 88.3776 140.996 88.4004C141.006 88.4233 141.01 88.4479 141.008 88.4726C141.011 88.5166 141 88.5603 140.978 88.5982C140.955 88.6361 140.922 88.6665 140.882 88.6855C140.788 88.7224 140.687 88.7379 140.587 88.7307C140.47 88.7423 140.352 88.7214 140.246 88.6704C140.205 88.6459 140.172 88.6105 140.15 88.5683C140.128 88.5261 140.118 88.4786 140.121 88.4312L140.382 88.4293Z" fill="white"/>
<path d="M142.3 88.5159L142.289 88.8927H142.075V88.7194H141.444V88.8927H141.232L141.219 88.5159H141.355C141.389 88.4572 141.416 88.3937 141.432 88.3276C141.449 88.2496 141.456 88.1699 141.453 88.0902V87.9019H142.172V88.5272L142.3 88.5159ZM141.674 88.0827V88.1354C141.676 88.1986 141.671 88.2618 141.659 88.3238C141.645 88.3897 141.62 88.4532 141.587 88.5122H141.922V88.0733L141.674 88.0827Z" fill="white"/>
<path d="M142.79 88.7119H142.521L142.89 87.8906H143.138L143.505 88.7119H143.246L143.189 88.5688H142.849L142.79 88.7119ZM143.121 88.4086L143.013 88.1374L142.909 88.4086H143.121Z" fill="white"/>
<path d="M144.002 88.7119H143.741V87.8906H144.002V88.1826H144.341V87.8906H144.604V88.7119H144.341V88.3766H144.002V88.7119Z" fill="white"/>
<path d="M145.557 87.8906H145.814V88.7119H145.557V88.2071L145.207 88.7119H144.948V87.8906H145.205V88.3879L145.557 87.8906Z" fill="white"/>
<path d="M146.839 88.2067V88.3951H146.408V88.527H146.943V88.7153H146.147V87.894H146.93V88.0824H146.408V88.2067H146.839Z" fill="white"/>
</svg>
