<svg width="221" height="161" viewBox="0 0 221 161" fill="none" xmlns="http://www.w3.org/2000/svg">
<path d="M156 79.75H65V89H156V79.75Z" fill="#C32026"/>
<path d="M156 52H65V79.75H156V52Z" fill="url(#paint0_linear)"/>
<path d="M74.0249 82.9054H72.8811V82.0449H76.1873V82.9054H75.0435V86.7596H74.0249V82.9054Z" fill="white"/>
<path d="M76.8486 82.0449H79.6723V82.9054H77.8673V83.963H79.3863L79.3327 84.8056H77.8673V85.8812H79.7259V86.7596H76.8486V82.0449Z" fill="white"/>
<path d="M80.0654 85.9887C80.8696 85.8274 81.1913 85.4689 81.1913 82.0449H84.2652V86.7596H83.2465V82.8875H82.1742C82.1742 86.419 81.4415 86.7596 80.119 86.8313L80.0654 85.9887Z" fill="white"/>
<path d="M85.248 82.0449H88.0538V82.9054H86.2667V83.963H87.7679L87.7321 84.8056H86.2667V85.8812H88.1253V86.7596H85.248V82.0449Z" fill="white"/>
<path d="M88.9475 86.7596V82.0449H90.4844C91.4852 82.0449 92.0928 82.6006 92.0928 83.3715C92.0928 83.8196 91.8784 84.1065 91.5031 84.2857C91.9856 84.465 92.2716 84.8056 92.2716 85.3254C92.2716 86.1142 91.5567 86.7596 90.5202 86.7596H88.9475ZM90.4129 83.9272C90.8419 83.9272 91.0742 83.7121 91.0742 83.4253C91.0742 83.1384 90.8955 82.9233 90.4666 82.9233H89.984V83.9451H90.4129V83.9272ZM90.5202 85.8812C90.967 85.8812 91.2529 85.6302 91.2529 85.3075C91.2529 84.9848 91.0384 84.7339 90.5917 84.7339H89.984V85.8632H90.5202V85.8812Z" fill="white"/>
<path d="M96.5786 86.7596H95.5599V84.7518C95.5599 84.5367 95.5599 84.2857 95.5957 84.0168L93.8622 86.7775H93.0222V82.0449H94.0409V84.0885C94.0409 84.2857 94.0409 84.5367 94.023 84.8056L95.7565 82.0449H96.5786V86.7596Z" fill="white"/>
<path d="M97.5437 85.917C97.9904 85.3434 98.2942 83.4432 98.3121 82.0449H101.279V85.917H101.761V87.5483L100.832 87.6917V86.7775H98.044V87.5483L97.1147 87.6917V85.917H97.5437V85.917ZM100.26 85.917V82.9054H99.2235C99.1521 84.1065 98.9019 85.4868 98.6517 85.917H100.26Z" fill="white"/>
<path d="M102.405 82.0449H105.21V82.9054H103.423V83.963H104.942L104.889 84.8056H103.423V85.8812H105.282V86.7596H102.405V82.0449Z" fill="white"/>
<path d="M106.122 82.0449H107.14V83.9272H108.588V82.0449H109.606V86.7596H108.588V84.7877H107.14V86.7596H106.122V82.0449Z" fill="white"/>
<path d="M114.146 86.7596H113.127V84.7518C113.127 84.5367 113.127 84.2857 113.163 84.0168L111.43 86.7775H110.59V82.0449H111.608V84.0885C111.608 84.2857 111.608 84.5367 111.59 84.8056L113.324 82.0449H114.146V86.7596V86.7596Z" fill="white"/>
<path d="M115.129 82.0449H117.934V82.9054H116.147V83.963H117.648L117.613 84.8056H116.147V85.8812H118.006V86.7596H115.129V82.0449Z" fill="white"/>
<path d="M123.939 86.7596H122.921V84.7518C122.921 84.5367 122.921 84.2857 122.956 84.0168L121.223 86.7775H120.383V82.0449H121.401V84.0885C121.401 84.2857 121.401 84.5367 121.384 84.8056L123.117 82.0449H123.939V86.7596V86.7596Z" fill="white"/>
<path d="M126.441 82.0449H128.121C129.068 82.0449 129.676 82.762 129.676 83.5507C129.676 84.3395 129.086 85.0386 128.121 85.0386H127.46V86.7596H126.441V82.0449ZM128.085 84.1782C128.407 84.1782 128.621 83.9272 128.621 83.5507C128.621 83.1743 128.407 82.9233 128.085 82.9233H127.46V84.1961H128.085V84.1782Z" fill="white"/>
<path d="M131.391 82.0449H132.571L133.983 86.7596H132.946L132.624 85.6123H131.32L131.016 86.7596H129.979L131.391 82.0449ZM132.41 84.7877L132.16 83.8913C132.088 83.6762 132.035 83.3894 131.981 83.0847C131.927 83.3715 131.856 83.6762 131.802 83.8913L131.552 84.7877H132.41Z" fill="white"/>
<path d="M134.608 85.917C135.055 85.3434 135.359 83.4432 135.377 82.0449H138.343V85.917H138.826V87.5483L137.897 87.6917V86.7775H135.127V87.5483L134.197 87.6917V85.917H134.608V85.917ZM137.325 85.917V82.9054H136.288C136.217 84.1065 135.967 85.4868 135.716 85.917H137.325Z" fill="white"/>
<path d="M143.043 86.7596H142.025V84.7518C142.025 84.5367 142.025 84.2857 142.061 84.0168L140.327 86.7775H139.487V82.0449H140.506V84.0885C140.506 84.2857 140.506 84.5367 140.488 84.8056L142.221 82.0449H143.043V86.7596V86.7596Z" fill="white"/>
<path d="M143.883 83.9091C143.883 82.6184 144.723 81.9551 145.742 81.9551C146.778 81.9551 147.618 82.6184 147.618 83.9091V84.9129C147.618 86.2216 146.778 86.8669 145.742 86.8669C144.723 86.8669 143.883 86.2216 143.883 84.9129V83.9091ZM146.6 84.8233V83.9628C146.6 83.1024 146.242 82.8155 145.76 82.8155C145.259 82.8155 144.92 83.1203 144.92 83.9628V84.8233C144.92 85.7017 145.259 85.9706 145.76 85.9706C146.242 85.9885 146.6 85.7017 146.6 84.8233Z" fill="white"/>
<path d="M80.2263 74.3535V58.9189H85.266C88.5185 58.9189 90.5559 60.7295 90.5559 63.2571C90.5559 64.6912 89.8231 65.6772 88.6258 66.2508C90.1806 66.8245 91.1277 67.9359 91.1277 69.6568C91.1277 72.2562 88.7866 74.3535 85.3911 74.3535H80.2263ZM85.0158 65.0856C86.4097 65.0856 87.1603 64.3865 87.1603 63.4185C87.1603 62.4863 86.5885 61.7692 85.1766 61.7692H83.5861V65.0856H85.0158ZM85.3553 71.5032C86.8387 71.5032 87.7143 70.6966 87.7143 69.6568C87.7143 68.5813 87.0174 67.8104 85.5341 67.8104H83.5682V71.5032H85.3553Z" fill="white"/>
<path d="M93.5044 58.9189H102.368V61.7692H96.8463V74.3535H93.5044V58.9189Z" fill="white"/>
<path d="M107.015 61.7692H103.28V58.9189H114.092V61.7692H110.357V74.3535H107.015V61.7692Z" fill="white"/>
<path d="M116.254 58.9189H121.741C124.85 58.9189 126.798 61.2494 126.798 63.8487C126.798 66.448 124.868 68.7067 121.741 68.7067H119.596V74.3535H116.254V58.9189ZM121.634 65.9282C122.706 65.9282 123.403 65.1035 123.403 63.8487C123.403 62.6118 122.706 61.7692 121.634 61.7692H119.614V65.9282H121.634Z" fill="white"/>
<path d="M128.961 58.9193H132.303V65.1935L134.054 64.6378C135.001 64.3151 135.377 63.8849 135.609 63.0603L136.753 58.9014H140.077L138.719 64.1C138.325 65.5341 137.718 66.1615 136.967 66.538L140.952 74.318H137.021L133.893 67.7391L132.321 68.3127V74.318H128.979V58.9193H128.961Z" fill="white"/>
<defs>
<linearGradient id="paint0_linear" x1="110.504" y1="37.0607" x2="110.504" y2="95.5315" gradientUnits="userSpaceOnUse">
<stop stop-color="#447CBF"/>
<stop offset="0.1858" stop-color="#3F6EAF"/>
<stop offset="0.5605" stop-color="#345092"/>
<stop offset="1" stop-color="#282972"/>
</linearGradient>
</defs>
</svg>
