<svg width="221" height="161" viewBox="0 0 221 161" fill="none" xmlns="http://www.w3.org/2000/svg">
<path d="M83.8103 83.8902C83.8103 85.7122 82.1508 87.0316 79.8153 87.0316H74.3452V75.7227H79.6309C81.905 75.7227 83.503 76.9792 83.503 78.7384C83.503 79.9321 82.8884 80.686 81.9664 81.1258C82.9498 81.5028 83.8103 82.508 83.8103 83.8902ZM76.7422 77.796V80.2462H79.5694C80.4299 80.2462 80.9831 79.7436 80.9831 79.0525C80.9831 78.3614 80.3684 77.796 79.5694 77.796H76.7422ZM79.8153 84.9583C80.7372 84.9583 81.4133 84.3928 81.4133 83.5761C81.4133 82.7593 80.7987 82.1939 79.8153 82.1939H76.7422V84.9583H79.8153Z" fill="black"/>
<path d="M92.845 86.9687L89.0345 82.508H88.4199V86.9687H85.9614V75.7227H88.4199V80.0577H89.0345L92.7222 75.7227H95.611L91.0013 81.1258L96.0409 86.9687H92.845Z" fill="black"/>
<path d="M96.041 81.3771C96.041 77.9844 98.4999 75.5342 101.941 75.5342C105.383 75.5342 107.842 77.9844 107.842 81.3771C107.842 84.7698 105.383 87.22 101.941 87.22C98.4999 87.22 96.041 84.7698 96.041 81.3771ZM105.261 81.3771C105.261 79.241 103.908 77.796 101.941 77.796C99.9746 77.796 98.6226 79.241 98.6226 81.3771C98.6226 83.5132 99.9746 84.9583 101.941 84.9583C103.908 84.9583 105.261 83.5132 105.261 81.3771Z" fill="black"/>
<path d="M117.245 75.7227H119.704V86.9687H117.245V82.4452H112.328V86.9687H109.87V75.7227H112.328V80.1834H117.245V75.7227Z" fill="black"/>
<path d="M124.99 86.9687V77.9844H121.179V75.7227H131.197V77.9844H127.386V86.9687H124.99Z" fill="black"/>
<path d="M141.768 80.686V86.9687H139.986L139.494 85.2096C138.941 86.152 137.773 87.22 135.991 87.22C133.778 87.22 132.18 85.7122 132.18 83.6389C132.18 81.5656 133.778 80.1206 137.036 80.1206H139.433C139.31 78.6755 138.572 77.6703 137.22 77.6703C136.114 77.6703 135.376 78.2986 135.007 78.9897L132.795 78.6127C133.348 76.6651 135.253 75.5342 137.343 75.5342C140.047 75.5342 141.768 77.419 141.768 80.686ZM139.371 82.0682H137.097C135.253 82.0682 134.639 82.6965 134.639 83.5132C134.639 84.4556 135.376 85.0839 136.605 85.0839C138.203 85.0839 139.371 83.8902 139.371 82.0682Z" fill="black"/>
<path d="M151.233 86.9687L147.423 82.508H146.808V86.9687H144.35V75.7227H146.808V80.0577H147.423L151.11 75.7227H153.999L149.39 81.1258L154.429 86.9687H151.233Z" fill="black"/>
<path d="M158.854 86.9687V77.9844H155.044V75.7227H165.062V77.9844H161.252V86.9687H158.854Z" fill="black"/>
<path d="M177.354 82.0682H168.504C168.75 83.8274 169.979 84.9583 171.823 84.9583C173.114 84.9583 174.097 84.3928 174.65 83.5761L176.924 83.953C176.125 86.0892 173.974 87.22 171.638 87.22C168.32 87.22 165.923 84.7698 165.923 81.3771C165.923 77.9844 168.32 75.5342 171.638 75.5342C174.958 75.5342 177.354 77.9844 177.354 81.2515C177.416 81.5656 177.354 81.8169 177.354 82.0682ZM168.688 80.1206H174.773C174.343 78.7384 173.236 77.7331 171.7 77.7331C170.225 77.6703 169.057 78.6755 168.688 80.1206Z" fill="black"/>
<path d="M43 80.52C43 75.0894 43 72.3741 44.6504 70.6871C46.3008 69 48.957 69 54.2696 69H55.2087C60.5212 69 63.1775 69 64.8279 70.6871C66.4783 72.3741 66.4783 75.0894 66.4783 80.52V81.48C66.4783 86.9106 66.4783 89.6259 64.8279 91.313C63.1775 93 60.5212 93 55.2087 93H54.2696C48.957 93 46.3008 93 44.6504 91.313C43 89.6259 43 86.9106 43 81.48V80.52Z" fill="#0077FF"/>
<path d="M55.4923 86.2898C50.1412 86.2898 47.0891 82.5398 46.9619 76.2998H49.6423C49.7304 80.8798 51.7064 82.8198 53.2716 83.2198V76.2998H55.7957V80.2498C57.3413 80.0798 58.965 78.2798 59.5129 76.2998H62.0368C61.6162 78.7398 59.8553 80.5398 58.6031 81.2798C59.8553 81.8798 61.8608 83.4498 62.6239 86.2898H59.8455C59.2488 84.3898 57.762 82.9198 55.7957 82.7198V86.2898H55.4923Z" fill="white"/>
</svg>
