<svg width="221" height="161" viewBox="0 0 221 161" fill="none" xmlns="http://www.w3.org/2000/svg">
<path d="M83.4149 83.8902C83.4149 85.7122 81.7308 87.0316 79.3607 87.0316H73.8096V75.7227H79.1735C81.4813 75.7227 83.103 76.9792 83.103 78.7384C83.103 79.9321 82.4793 80.686 81.5437 81.1258C82.5416 81.5028 83.4149 82.508 83.4149 83.8902ZM76.2421 77.796V80.2462H79.1112C79.9844 80.2462 80.5458 79.7436 80.5458 79.0525C80.5458 78.3614 79.922 77.796 79.1112 77.796H76.2421ZM79.3607 84.9583C80.2963 84.9583 80.9824 84.3928 80.9824 83.5761C80.9824 82.7593 80.3586 82.1939 79.3607 82.1939H76.2421V84.9583H79.3607Z" fill="black"/>
<path d="M92.5832 86.9687L88.7163 82.508H88.0925V86.9687H85.5977V75.7227H88.0925V80.0577H88.7163L92.4586 75.7227H95.3902L90.7122 81.1258L95.8265 86.9687H92.5832Z" fill="black"/>
<path d="M95.8267 81.3771C95.8267 77.9844 98.3219 75.5342 101.814 75.5342C105.307 75.5342 107.802 77.9844 107.802 81.3771C107.802 84.7698 105.307 87.22 101.814 87.22C98.3219 87.22 95.8267 84.7698 95.8267 81.3771ZM105.183 81.3771C105.183 79.241 103.81 77.796 101.814 77.796C99.8185 77.796 98.4465 79.241 98.4465 81.3771C98.4465 83.5132 99.8185 84.9583 101.814 84.9583C103.81 84.9583 105.183 83.5132 105.183 81.3771Z" fill="black"/>
<path d="M117.345 75.7227H119.84V86.9687H117.345V82.4452H112.356V86.9687H109.861V75.7227H112.356V80.1834H117.345V75.7227Z" fill="black"/>
<path d="M125.204 86.9687V77.9844H121.337V75.7227H131.504V77.9844H127.636V86.9687H125.204Z" fill="black"/>
<path d="M142.231 80.686V86.9687H140.423L139.924 85.2096C139.362 86.152 138.178 87.22 136.369 87.22C134.123 87.22 132.501 85.7122 132.501 83.6389C132.501 81.5656 134.123 80.1206 137.429 80.1206H139.861C139.737 78.6755 138.988 77.6703 137.616 77.6703C136.493 77.6703 135.745 78.2986 135.371 78.9897L133.125 78.6127C133.687 76.6651 135.62 75.5342 137.741 75.5342C140.485 75.5342 142.231 77.419 142.231 80.686ZM139.799 82.0682H137.492C135.62 82.0682 134.996 82.6965 134.996 83.5132C134.996 84.4556 135.745 85.0839 136.992 85.0839C138.614 85.0839 139.799 83.8902 139.799 82.0682Z" fill="black"/>
<path d="M151.837 86.9687L147.97 82.508H147.346V86.9687H144.851V75.7227H147.346V80.0577H147.97L151.712 75.7227H154.644L149.966 81.1258L155.08 86.9687H151.837Z" fill="black"/>
<path d="M159.571 86.9687V77.9844H155.704V75.7227H165.871V77.9844H162.004V86.9687H159.571Z" fill="black"/>
<path d="M178.345 82.0682H169.364C169.613 83.8274 170.861 84.9583 172.731 84.9583C174.041 84.9583 175.04 84.3928 175.601 83.5761L177.909 83.953C177.098 86.0892 174.915 87.22 172.544 87.22C169.176 87.22 166.744 84.7698 166.744 81.3771C166.744 77.9844 169.176 75.5342 172.544 75.5342C175.913 75.5342 178.345 77.9844 178.345 81.2515C178.408 81.5656 178.345 81.8169 178.345 82.0682ZM169.551 80.1206H175.726C175.289 78.7384 174.166 77.7331 172.607 77.7331C171.11 77.6703 169.925 78.6755 169.551 80.1206Z" fill="black"/>
<path d="M42 80.52C42 75.0894 42 72.3741 43.6748 70.6871C45.3497 69 48.0453 69 53.4365 69H54.3896C59.7808 69 62.4764 69 64.1513 70.6871C65.8261 72.3741 65.8261 75.0894 65.8261 80.52V81.48C65.8261 86.9106 65.8261 89.6259 64.1513 91.313C62.4764 93 59.7808 93 54.3896 93H53.4365C48.0453 93 45.3497 93 43.6748 91.313C42 89.6259 42 86.9106 42 81.48V80.52Z" fill="#0077FF"/>
<path d="M54.6773 86.2903C49.2469 86.2903 46.1496 82.5403 46.0205 76.3003H48.7407C48.83 80.8803 50.8353 82.8203 52.4237 83.2203V76.3003H54.9851V80.2503C56.5537 80.0803 58.2014 78.2803 58.7574 76.3003H61.3187C60.8919 78.7403 59.1049 80.5403 57.8342 81.2803C59.1049 81.8803 61.1401 83.4503 61.9145 86.2903H59.095C58.4894 84.3903 56.9806 82.9203 54.9851 82.7203V86.2903H54.6773Z" fill="white"/>
</svg>
