<svg width="221" height="161" viewBox="0 0 221 161" fill="none" xmlns="http://www.w3.org/2000/svg">
<path d="M41 62.5C41 57.08 41 54.37 42.7096 52.685C44.4192 51 47.1688 51 52.6679 51H53.6825C59.1816 51 61.9312 51 63.6408 52.685C65.3504 54.37 65.3504 57.08 65.3504 62.5V63.5C65.3504 68.92 65.3504 71.63 63.6408 73.315C61.9312 75 59.1816 75 53.6825 75H52.6679C47.1688 75 44.4192 75 42.7096 73.315C41 71.63 41 68.92 41 63.5V62.5Z" fill="#222222"/>
<path fill-rule="evenodd" clip-rule="evenodd" d="M47.595 58.5001H45.8195C45.3122 58.5001 45.2107 58.7351 45.2107 58.9951C45.2107 59.4601 45.8144 61.7551 48.0161 64.8001C49.4822 66.8751 51.5519 68.0001 53.434 68.0001C54.5653 68.0001 54.7023 67.7501 54.7023 67.3201V65.7501C54.7023 65.2501 54.8088 65.1501 55.169 65.1501C55.4328 65.1501 55.8843 65.2801 56.9395 66.2801C58.1418 67.4651 58.3396 68.0001 59.0194 68.0001H60.7949C61.3022 68.0001 61.5559 67.7501 61.4088 67.2551C61.2464 66.7651 60.6732 66.0501 59.9122 65.2051C59.4962 64.7251 58.8773 64.2051 58.6896 63.9451C58.4258 63.6101 58.5019 63.4651 58.6896 63.1651C58.6896 63.1651 60.8558 60.1601 61.079 59.1401C61.1906 58.7701 61.079 58.4951 60.5413 58.4951H58.7657C58.3142 58.4951 58.1062 58.7301 57.9946 58.9901C57.9946 58.9901 57.0916 61.1601 55.8132 62.5701C55.3973 62.9801 55.2096 63.1101 54.9864 63.1101C54.8747 63.1101 54.7124 62.9801 54.7124 62.6101V59.1451C54.6972 58.7001 54.5704 58.5001 54.1899 58.5001H51.3997C51.1157 58.5001 50.9482 58.7051 50.9482 58.9001C50.9482 59.3201 51.5874 59.4201 51.6534 60.6051V63.1801C51.6534 63.7451 51.5519 63.8451 51.3236 63.8451C50.72 63.8451 49.2589 61.6651 48.3864 59.1751C48.219 58.6951 48.0516 58.5001 47.595 58.5001Z" fill="white"/>
<path d="M80.4426 66.4899H77.3329V63.8049H80.4426C81.4065 63.8049 82.0507 64.3549 82.0507 65.1599C82.0507 65.9599 81.4065 66.4899 80.4426 66.4899ZM77.3278 59.5099H80.2042C81.0615 59.5099 81.6652 60.0199 81.6652 60.7149C81.6652 61.4099 81.0666 61.8999 80.2042 61.8999H77.3278V59.5099ZM82.5428 62.7899C83.5067 62.3449 84.1307 61.6049 84.1307 60.4649C84.1307 58.7299 82.5225 57.5049 80.2042 57.5049H74.8623V68.5049H80.4426C82.8472 68.5049 84.5213 67.2149 84.5213 65.4599C84.5162 64.1199 83.6386 63.1299 82.5428 62.7899Z" fill="#222222"/>
<path d="M93.6982 68.5H96.9348L91.806 62.79L96.5086 57.5H93.5663L89.8326 61.775H89.234V57.5H86.7634V68.5H89.234V64.12H89.8326L93.6982 68.5Z" fill="#222222"/>
<path d="M103.235 66.49C101.216 66.49 99.8466 65.075 99.8466 63C99.8466 60.925 101.221 59.51 103.235 59.51C105.254 59.51 106.624 60.925 106.624 63C106.624 65.075 105.254 66.49 103.235 66.49ZM103.235 68.71C106.731 68.71 109.201 66.34 109.201 63C109.201 59.66 106.736 57.29 103.235 57.29C99.7401 57.29 97.2695 59.66 97.2695 63C97.2695 66.34 99.735 68.71 103.235 68.71Z" fill="#222222"/>
<path d="M118.815 57.5V61.84H113.813V57.5H111.347V68.5H113.813V64.06H118.815V68.5H121.28V57.5H118.815Z" fill="#222222"/>
<path d="M126.855 68.5H129.326V59.725H133.187V57.5H122.995V59.725H126.855V68.5Z" fill="#222222"/>
<path d="M138.3 66.66C137.098 66.66 136.327 66.045 136.327 65.095C136.327 64.25 136.951 63.655 138.838 63.655H141.177C141.177 65.455 140.02 66.66 138.3 66.66ZM139.031 57.29C136.864 57.29 134.952 58.39 134.394 60.295L136.667 60.675C137.012 60 137.783 59.365 138.899 59.365C140.248 59.365 141.045 60.315 141.151 61.755H138.747C135.464 61.755 133.831 63.17 133.831 65.2C133.831 67.25 135.439 68.71 137.717 68.71C139.543 68.71 140.766 67.675 141.298 66.765L141.816 68.5H143.642V62.325C143.642 59.13 141.887 57.29 139.031 57.29Z" fill="#222222"/>
<path d="M153.25 68.5H156.492L151.363 62.79L156.066 57.5H153.123L149.389 61.775H148.791V57.5H146.32V68.5H148.791V64.12H149.389L153.25 68.5Z" fill="#222222"/>
<path d="M160.677 68.5H163.147V59.725H167.008V57.5H156.816V59.725H160.677V68.5Z" fill="#222222"/>
<path d="M173.456 59.405C175.003 59.405 176.16 60.38 176.566 61.755H170.387C170.793 60.335 171.954 59.405 173.456 59.405ZM179.249 62.875C179.249 59.705 176.845 57.29 173.456 57.29C170.067 57.29 167.663 59.68 167.663 63C167.663 66.32 170.067 68.71 173.456 68.71C175.774 68.71 177.961 67.63 178.798 65.535L176.479 65.155C175.942 65.94 174.912 66.485 173.603 66.485C171.716 66.485 170.468 65.345 170.235 63.65H179.204C179.229 63.425 179.249 63.17 179.249 62.875Z" fill="#222222"/>
<path d="M41 62.5C41 57.08 41 54.37 42.7096 52.685C44.4192 51 47.1688 51 52.6679 51H53.6825C59.1816 51 61.9312 51 63.6408 52.685C65.3504 54.37 65.3504 57.08 65.3504 62.5V63.5C65.3504 68.92 65.3504 71.63 63.6408 73.315C61.9312 75 59.1816 75 53.6825 75H52.6679C47.1688 75 44.4192 75 42.7096 73.315C41 71.63 41 68.92 41 63.5V62.5Z" fill="#4A7FC1"/>
<path fill-rule="evenodd" clip-rule="evenodd" d="M47.595 58.5001H45.8195C45.3122 58.5001 45.2107 58.7351 45.2107 58.9951C45.2107 59.4601 45.8144 61.7551 48.0161 64.8001C49.4822 66.8751 51.5519 68.0001 53.434 68.0001C54.5653 68.0001 54.7023 67.7501 54.7023 67.3201V65.7501C54.7023 65.2501 54.8088 65.1501 55.169 65.1501C55.4328 65.1501 55.8843 65.2801 56.9395 66.2801C58.1418 67.4651 58.3396 68.0001 59.0194 68.0001H60.7949C61.3022 68.0001 61.5559 67.7501 61.4088 67.2551C61.2464 66.7651 60.6732 66.0501 59.9122 65.2051C59.4962 64.7251 58.8773 64.2051 58.6896 63.9451C58.4258 63.6101 58.5019 63.4651 58.6896 63.1651C58.6896 63.1651 60.8558 60.1601 61.079 59.1401C61.1906 58.7701 61.079 58.4951 60.5413 58.4951H58.7657C58.3142 58.4951 58.1062 58.7301 57.9946 58.9901C57.9946 58.9901 57.0916 61.1601 55.8132 62.5701C55.3973 62.9801 55.2096 63.1101 54.9864 63.1101C54.8747 63.1101 54.7124 62.9801 54.7124 62.6101V59.1451C54.6972 58.7001 54.5704 58.5001 54.1899 58.5001H51.3997C51.1157 58.5001 50.9482 58.7051 50.9482 58.9001C50.9482 59.3201 51.5874 59.4201 51.6534 60.6051V63.1801C51.6534 63.7451 51.5519 63.8451 51.3236 63.8451C50.72 63.8451 49.2589 61.6651 48.3864 59.1751C48.219 58.6951 48.0516 58.5001 47.595 58.5001Z" fill="white"/>
<path d="M80.4426 66.4899H77.3329V63.8049H80.4426C81.4065 63.8049 82.0507 64.3549 82.0507 65.1599C82.0507 65.9599 81.4065 66.4899 80.4426 66.4899ZM77.3278 59.5099H80.2042C81.0615 59.5099 81.6652 60.0199 81.6652 60.7149C81.6652 61.4099 81.0666 61.8999 80.2042 61.8999H77.3278V59.5099ZM82.5428 62.7899C83.5067 62.3449 84.1307 61.6049 84.1307 60.4649C84.1307 58.7299 82.5225 57.5049 80.2042 57.5049H74.8623V68.5049H80.4426C82.8472 68.5049 84.5213 67.2149 84.5213 65.4599C84.5162 64.1199 83.6386 63.1299 82.5428 62.7899Z" fill="black"/>
<path d="M93.6982 68.5H96.9348L91.806 62.79L96.5086 57.5H93.5663L89.8326 61.775H89.234V57.5H86.7634V68.5H89.234V64.12H89.8326L93.6982 68.5Z" fill="black"/>
<path d="M103.235 66.49C101.216 66.49 99.8466 65.075 99.8466 63C99.8466 60.925 101.221 59.51 103.235 59.51C105.254 59.51 106.624 60.925 106.624 63C106.624 65.075 105.254 66.49 103.235 66.49ZM103.235 68.71C106.731 68.71 109.201 66.34 109.201 63C109.201 59.66 106.736 57.29 103.235 57.29C99.7401 57.29 97.2695 59.66 97.2695 63C97.2695 66.34 99.735 68.71 103.235 68.71Z" fill="black"/>
<path d="M118.815 57.5V61.84H113.813V57.5H111.347V68.5H113.813V64.06H118.815V68.5H121.28V57.5H118.815Z" fill="black"/>
<path d="M126.855 68.5H129.326V59.725H133.187V57.5H122.995V59.725H126.855V68.5Z" fill="black"/>
<path d="M138.3 66.66C137.098 66.66 136.327 66.045 136.327 65.095C136.327 64.25 136.951 63.655 138.838 63.655H141.177C141.177 65.455 140.02 66.66 138.3 66.66ZM139.031 57.29C136.864 57.29 134.952 58.39 134.394 60.295L136.667 60.675C137.012 60 137.783 59.365 138.899 59.365C140.248 59.365 141.045 60.315 141.151 61.755H138.747C135.464 61.755 133.831 63.17 133.831 65.2C133.831 67.25 135.439 68.71 137.717 68.71C139.543 68.71 140.766 67.675 141.298 66.765L141.816 68.5H143.642V62.325C143.642 59.13 141.887 57.29 139.031 57.29Z" fill="black"/>
<path d="M153.25 68.5H156.492L151.363 62.79L156.066 57.5H153.123L149.389 61.775H148.791V57.5H146.32V68.5H148.791V64.12H149.389L153.25 68.5Z" fill="black"/>
<path d="M160.677 68.5H163.147V59.725H167.008V57.5H156.816V59.725H160.677V68.5Z" fill="black"/>
<path d="M173.456 59.405C175.003 59.405 176.16 60.38 176.566 61.755H170.387C170.793 60.335 171.954 59.405 173.456 59.405ZM179.249 62.875C179.249 59.705 176.845 57.29 173.456 57.29C170.067 57.29 167.663 59.68 167.663 63C167.663 66.32 170.067 68.71 173.456 68.71C175.774 68.71 177.961 67.63 178.798 65.535L176.479 65.155C175.942 65.94 174.912 66.485 173.603 66.485C171.716 66.485 170.468 65.345 170.235 63.65H179.204C179.229 63.425 179.249 63.17 179.249 62.875Z" fill="black"/>
</svg>
