<svg width="221" height="161" viewBox="0 0 221 161" fill="none" xmlns="http://www.w3.org/2000/svg">
<path d="M96.0117 77.9482L93.1977 74.819H92.7675V77.9482H91.6628V70.7021H92.7675V73.7362H93.2094L95.8605 70.7021H97.2094L94.1047 74.2241L97.4768 77.9482H96.0117Z" fill="#010101"/>
<path d="M99.965 70.7021H104.732V77.9601H103.628V71.7254H100.988L100.756 75.5448C100.663 77.1748 99.9301 78.0196 98.7092 78.0196C98.5464 78.0196 98.3604 78.0077 98.1743 77.972L98.0813 76.8893C98.2557 76.9012 98.465 76.9012 98.5348 76.9012C99.3487 76.9012 99.5929 76.5799 99.6627 75.5686L99.965 70.7021Z" fill="#010101"/>
<path d="M106.605 77.9482V70.7021H107.686V76.7465H107.884L111 70.7021H112.721V77.9482H111.64V71.9039H111.454L108.326 77.9482H106.605Z" fill="#010101"/>
<path d="M114.593 77.9482V70.7021H120.407V77.9482H119.302V71.7373H115.698V77.9482H114.593Z" fill="#010101"/>
<path d="M122.279 77.9484V70.6904H123.384V72.8797H124.64C126.267 72.8797 127.419 73.9268 127.419 75.4141C127.419 76.9014 126.256 77.9484 124.64 77.9484H122.279ZM123.384 76.937H124.64C125.616 76.937 126.314 76.3183 126.314 75.426C126.314 74.5336 125.628 73.9149 124.64 73.9149H123.384V76.937ZM128.337 70.7023H129.442V77.9603H128.337V70.7023Z" fill="#010101"/>
<path d="M97.8838 89.2276C97.8838 90.4055 96.8024 91.2622 95.2559 91.2622H91.6628V83.9209H95.1047C96.5931 83.9209 97.628 84.7419 97.628 85.896C97.628 86.6575 97.2326 87.1572 96.6047 87.4547C97.314 87.6808 97.8838 88.3471 97.8838 89.2276ZM93.2559 85.2535V86.8479H95.1047C95.6628 86.8479 96.0466 86.5266 96.0466 86.0507C96.0466 85.5867 95.6628 85.2416 95.1047 85.2416H93.2559V85.2535ZM95.2559 89.9296C95.8721 89.9296 96.2908 89.5726 96.2908 89.0372C96.2908 88.5018 95.8721 88.1329 95.2559 88.1329H93.2559V89.9296H95.2559Z" fill="#010101"/>
<path d="M103.767 91.2622L101.279 88.3471H100.895V91.2622H99.3022V83.9209H100.895V86.7765H101.279L103.686 83.9209H105.581L102.546 87.4547L105.849 91.2622H103.767Z" fill="#010101"/>
<path d="M105.849 87.586C105.849 85.3491 107.442 83.7666 109.686 83.7666C111.942 83.7666 113.523 85.3491 113.523 87.586C113.523 89.8228 111.93 91.4053 109.686 91.4053C107.442 91.4053 105.849 89.8228 105.849 87.586ZM111.872 87.586C111.872 86.2058 110.988 85.2539 109.686 85.2539C108.384 85.2539 107.5 86.2058 107.5 87.586C107.5 88.9662 108.384 89.918 109.686 89.918C110.988 89.9299 111.872 88.9781 111.872 87.586Z" fill="#010101"/>
<path d="M119.686 83.9209H121.279V91.2622H119.686V88.2995H116.465V91.2622H114.884V83.9209H116.465V86.8122H119.686V83.9209Z" fill="#010101"/>
<path d="M124.756 91.2622V85.3963H122.267V83.9209H128.837V85.3963H126.349V91.2622H124.756Z" fill="#010101"/>
<path d="M135.733 87.1336V91.2624H134.558L134.233 90.1082C133.884 90.715 133.105 91.4051 131.93 91.4051C130.465 91.4051 129.43 90.4295 129.43 89.0612C129.43 87.7048 130.477 86.7529 132.593 86.7529H134.139C134.07 85.7891 133.558 85.1585 132.686 85.1585C131.965 85.1585 131.465 85.5869 131.244 86.039L129.779 85.7891C130.139 84.516 131.372 83.7783 132.767 83.7783C134.593 83.7783 135.733 85.0038 135.733 87.1336ZM134.139 88.026H132.628C131.407 88.026 131.012 88.4187 131.012 88.9898C131.012 89.6323 131.512 90.0368 132.279 90.0368C133.395 90.0368 134.139 89.2278 134.139 88.026Z" fill="#010101"/>
<path d="M141.907 91.2622L139.419 88.3471H139.035V91.2622H137.442V83.9209H139.035V86.7765H139.419L141.826 83.9209H143.721L140.698 87.4547L144 91.2622H141.907Z" fill="#010101"/>
<path d="M146.895 91.2622V85.3963H144.419V83.9209H150.977V85.3963H148.488V91.2622H146.895Z" fill="#010101"/>
<path d="M158.965 88.0254H153.186C153.337 89.1557 154.14 89.9172 155.349 89.9172C156.198 89.9172 156.861 89.5484 157.198 89.0249L158.686 89.2747C158.151 90.6787 156.733 91.3926 155.244 91.3926C153.058 91.3926 151.512 89.7983 151.512 87.5733C151.512 85.3483 153.058 83.7539 155.244 83.7539C157.43 83.7539 158.977 85.3602 158.977 87.49C159 87.7041 158.977 87.8707 158.965 88.0254ZM153.291 86.7523H157.268C157 85.8361 156.256 85.1817 155.268 85.1817C154.302 85.1936 153.547 85.8123 153.291 86.7523Z" fill="#010101"/>
<path d="M77.0465 70H70.4535C64.4302 70 63 71.4635 63 77.6268V84.3732C63 90.5365 64.4302 92 70.4535 92H77.0465C83.0698 92 84.5 90.5365 84.5 84.3732V77.6268C84.5 71.4635 83.0698 70 77.0465 70ZM80.1047 85.4916H78.6047C78.0349 85.4916 77.8605 85.0157 76.8372 83.9686C75.9419 83.0882 75.5465 82.9692 75.3372 82.9692C75.0349 82.9692 74.9419 83.0406 74.9419 83.4927V84.8848C74.9419 85.2537 74.8256 85.4797 73.8605 85.4797C72.2674 85.4797 70.5 84.4922 69.2558 82.6598C67.3837 79.9589 66.8721 77.9243 66.8721 77.5197C66.8721 77.2937 66.9419 77.0914 67.3837 77.0914H68.907C69.2907 77.0914 69.4302 77.258 69.5814 77.6863C70.3256 79.8875 71.5581 81.815 72.0698 81.815C72.2558 81.815 72.3488 81.7198 72.3488 81.232V78.9594C72.2907 77.9124 71.7558 77.8172 71.7558 77.4484C71.7558 77.2699 71.907 77.0914 72.1395 77.0914H74.5C74.8256 77.0914 74.9419 77.2699 74.9419 77.6625V80.7204C74.9419 81.0535 75.0698 81.1725 75.1744 81.1725C75.3605 81.1725 75.5233 81.0535 75.8721 80.6966C76.9535 79.4592 77.7209 77.5435 77.7209 77.5435C77.8256 77.3175 78 77.1152 78.3837 77.1152H79.8837C80.3372 77.1152 80.4419 77.3532 80.3372 77.6863C80.1512 78.5787 78.3023 81.2439 78.3256 81.2439C78.1628 81.5176 78.1047 81.6366 78.3256 81.934C78.4884 82.1601 79.0116 82.6241 79.3605 83.0406C80 83.7902 80.5 84.4208 80.6279 84.8491C80.7442 85.2655 80.5465 85.4916 80.1047 85.4916Z" fill="#4B7FC1"/>
</svg>
