<svg width="914" height="914" viewBox="0 0 914 914" fill="none" xmlns="http://www.w3.org/2000/svg">
<path d="M232.366 391.046H220.903C199.888 391.046 188.861 401.707 188.861 417.492C188.861 435.407 196.503 443.722 212.204 454.392L225.151 463.138L187.804 519.23H160L193.535 469.107C174.217 455.246 163.394 441.807 163.394 418.984C163.394 390.407 183.13 371 220.699 371H258.046V519.23H232.366V391.046Z" fill="#FC3F1D"/>
<path d="M466.241 411.954H392.595V421.123C392.595 447.353 390.898 481.269 381.985 499.184H374.13V543.761H397.473V519.23H454.138V543.761H477.481V499.184H466.232V411.954H466.241ZM440.987 499.184H405.337C412.339 482.977 414.25 453.753 414.25 435.2V432H440.987V499.184V499.184Z" fill="black"/>
<path d="M338.267 454.392H304.527V411.954H279.274V519.23H304.527V474.437H338.267V519.23H363.52V411.954H338.267V454.392Z" fill="black"/>
<path d="M729.181 429.869C738.946 429.869 748.49 433.285 753.59 436.485V414.938C748.285 411.954 738.946 409.823 726.426 409.823C694.171 409.823 677.403 433.069 677.403 465.699C677.403 501.53 693.744 521.369 727.483 521.369C739.159 521.369 747.432 519.238 753.59 514.753V494.06C747.228 498.536 739.586 501.314 728.976 501.314C710.938 501.314 703.51 487.237 703.51 465.052C703.51 441.806 712.635 429.869 729.181 429.869Z" fill="black"/>
<path d="M674.008 411.954H648.541L612.882 461.43V411.954H587.629V519.23H612.882V466.554L650.238 519.23H678.886L638.349 461.43L674.008 411.954Z" fill="black"/>
<path d="M529.055 409.814C498.283 409.814 483.64 433.492 483.64 465.906C483.64 503.229 501.891 521.36 534.147 521.36C550.274 521.36 562.164 517.09 569.592 511.975V491.292C561.737 496.622 548.586 501.314 536.27 501.314C517.806 501.314 510.804 492.568 509.746 474.653H570.658V461.214C570.649 423.891 554.308 409.814 529.055 409.814ZM544.978 455.884H509.746C510.386 438.822 516.535 429.86 528.637 429.86C541.157 429.86 544.978 440.314 544.978 453.744V455.884Z" fill="black"/>
</svg>
