<svg width="221" height="161" viewBox="0 0 221 161" fill="none" xmlns="http://www.w3.org/2000/svg">
<g clip-path="url(#clip0)">
<path d="M158.421 89.5903H99.6769C95.4805 89.5903 92.0786 86.1919 92.0786 81.9998C92.0786 77.8076 95.4805 74.4092 99.6769 74.4092H158.421C162.617 74.4092 166.019 77.8076 166.019 81.9998C166.019 86.1919 162.617 89.5903 158.421 89.5903Z" fill="url(#paint0_linear)"/>
<path d="M62.9141 72.5977V74.5307L51.6275 89.0673H63.3167V91.4431H48V89.5101L59.246 74.8925H48.5642V72.5977H62.9141Z" fill="black"/>
<path d="M83.5913 72.5977L75.9329 91.4431H72.9094L65.2112 72.5977H68.2745L74.4012 88.5435H74.4816L80.6489 72.5977H83.5913Z" fill="black"/>
<path d="M102.28 74.9329C104.174 76.812 105.121 79.1743 105.121 82.0199C105.121 84.8655 104.174 87.2286 102.28 89.107C100.385 90.9867 97.9731 91.9256 95.0442 91.9256C92.1416 91.9256 89.7438 90.9861 87.8493 89.107C85.9548 87.2279 85.0076 84.8655 85.0076 82.0199C85.0076 79.175 85.9548 76.812 87.8493 74.9329C89.7438 73.0538 92.1423 72.1143 95.0442 72.1143C97.9731 72.1136 100.385 73.0538 102.28 74.9329ZM100.244 87.4358C101.56 86.0002 102.219 84.1946 102.219 82.0193C102.219 79.8445 101.56 78.033 100.244 76.5832C98.9271 75.1333 97.1941 74.4084 95.0442 74.4084C92.9213 74.4084 91.2012 75.1333 89.885 76.5832C88.5682 78.033 87.9101 79.8445 87.9101 82.0193C87.9101 84.1676 88.5682 85.9657 89.885 87.4155C91.2012 88.8647 92.9213 89.5903 95.0442 89.5903C97.1941 89.5903 98.9271 88.8721 100.244 87.4358Z" fill="black"/>
<path d="M110.844 72.5975H113.465C113.571 73.94 113.626 75.0139 113.626 75.8191H113.706C114.217 74.7452 115.083 73.8597 116.306 73.1611C117.529 72.4632 118.812 72.1143 120.156 72.1143C122.494 72.1143 124.274 72.8128 125.497 74.2087C126.719 75.6045 127.331 77.497 127.331 79.8864V91.443H124.59V81.0136C124.59 78.8929 124.207 77.2622 123.441 76.1215C122.675 74.9808 121.351 74.4098 119.47 74.4098C117.885 74.4098 116.534 75.0476 115.419 76.3226C114.304 77.5976 113.746 79.4166 113.746 81.779V91.443H111.005V76.7451C111.006 75.1347 110.952 73.7524 110.844 72.5975Z" fill="black"/>
<path d="M137.246 61V81.0935H137.367L146.074 72.5971H150.024L140.512 81.2143L150.992 91.4426H146.961L137.367 81.5369H137.246V91.4426H134.505V61H137.246Z" fill="black"/>
<path d="M170.158 74.9329C172.053 76.812 173 79.1743 173 82.0199C173 84.8655 172.053 87.2286 170.158 89.107C168.264 90.9867 165.852 91.9256 162.923 91.9256C160.02 91.9256 157.622 90.9861 155.728 89.107C153.833 87.2279 152.886 84.8655 152.886 82.0199C152.886 79.175 153.833 76.812 155.728 74.9329C157.622 73.0538 160.021 72.1143 162.923 72.1143C165.852 72.1136 168.264 73.0538 170.158 74.9329ZM168.123 87.4358C169.439 86.0002 170.097 84.1946 170.097 82.0193C170.097 79.8445 169.439 78.033 168.123 76.5832C166.806 75.1333 165.073 74.4084 162.923 74.4084C160.799 74.4084 159.08 75.1333 157.763 76.5832C156.446 78.033 155.788 79.8445 155.788 82.0193C155.788 84.1676 156.446 85.9657 157.763 87.4155C159.079 88.8647 160.799 89.5903 162.923 89.5903C165.073 89.5903 166.806 88.8721 168.123 87.4358Z" fill="black"/>
<path d="M74.1648 100.59C73.8871 100.734 73.598 100.839 73.2959 100.903C72.9946 100.967 72.6865 101 72.373 101C72.0393 101 71.7312 100.947 71.4501 100.843C71.1684 100.738 70.9251 100.589 70.7204 100.394C70.515 100.199 70.3556 99.9636 70.2407 99.6862C70.1258 99.4095 70.0691 99.0997 70.0691 98.7581C70.0691 98.4166 70.1265 98.1075 70.2407 97.8301C70.3556 97.5527 70.515 97.3164 70.7204 97.122C70.9258 96.927 71.169 96.7778 71.4501 96.6732C71.7318 96.5686 72.0393 96.5166 72.373 96.5166C72.7149 96.5166 73.0297 96.5578 73.3169 96.6401C73.6047 96.7225 73.8567 96.8642 74.0743 97.0653L73.4108 97.7882C73.2818 97.6559 73.1372 97.5554 72.9764 97.4872C72.8156 97.419 72.6142 97.3846 72.373 97.3846C72.1717 97.3846 71.9899 97.419 71.8271 97.4872C71.6643 97.5554 71.5244 97.6512 71.4075 97.7734C71.2906 97.8962 71.2015 98.0413 71.1393 98.2107C71.0771 98.3795 71.0461 98.5624 71.0461 98.7595C71.0461 98.96 71.0771 99.1442 71.1393 99.3109C71.2015 99.4776 71.2913 99.6228 71.4075 99.7449C71.5244 99.8678 71.6636 99.9629 71.8271 100.031C71.9899 100.099 72.1717 100.134 72.373 100.134C72.5784 100.134 72.7554 100.111 72.9041 100.064C73.0527 100.018 73.1716 99.971 73.2601 99.9224V99.2293H72.494V98.3613H74.1648V100.59Z" fill="black"/>
<path d="M90.6767 96.624H92.33C92.5475 96.624 92.7536 96.6449 92.9482 96.6875C93.1435 96.7293 93.3144 96.8002 93.461 96.8981C93.6076 96.9966 93.7245 97.1289 93.811 97.2956C93.8975 97.4623 93.9407 97.6702 93.9407 97.9193C93.9407 98.2203 93.8623 98.4768 93.7056 98.6874C93.5488 98.898 93.3198 99.0316 93.0178 99.0883L94.1036 100.89H92.9752L92.082 99.1848H91.6172V100.89H90.676V96.624H90.6767ZM91.6179 98.3897H92.1732C92.2577 98.3897 92.3469 98.3863 92.4415 98.3809C92.5361 98.3749 92.6212 98.3566 92.6975 98.3269C92.7739 98.2966 92.8374 98.2493 92.8874 98.1852C92.9374 98.1211 92.9631 98.0306 92.9631 97.9139C92.9631 97.8052 92.9408 97.7188 92.8969 97.6547C92.8523 97.5906 92.7962 97.5413 92.7279 97.5069C92.6597 97.4724 92.5813 97.4495 92.4928 97.4373C92.4043 97.4252 92.3178 97.4191 92.2334 97.4191H91.6179V98.3897V98.3897Z" fill="black"/>
<path d="M110.043 98.7572C110.043 98.4156 110.1 98.1065 110.214 97.8291C110.329 97.5517 110.489 97.3154 110.694 97.1211C110.899 96.926 111.143 96.7768 111.424 96.6722C111.705 96.5676 112.013 96.5156 112.347 96.5156C112.68 96.5156 112.989 96.5676 113.27 96.6722C113.551 96.7768 113.795 96.9267 113.999 97.1211C114.205 97.3161 114.364 97.5524 114.479 97.8291C114.594 98.1065 114.651 98.4156 114.651 98.7572C114.651 99.0987 114.593 99.4078 114.479 99.6852C114.364 99.9626 114.205 100.199 113.999 100.393C113.794 100.588 113.551 100.738 113.27 100.842C112.989 100.946 112.68 100.999 112.347 100.999C112.013 100.999 111.705 100.946 111.424 100.842C111.142 100.737 110.899 100.588 110.694 100.393C110.489 100.198 110.329 99.9626 110.214 99.6852C110.1 99.4078 110.043 99.0987 110.043 98.7572ZM111.02 98.7572C111.02 98.9576 111.051 99.1419 111.114 99.3086C111.176 99.4753 111.266 99.6204 111.382 99.7426C111.499 99.8654 111.638 99.9606 111.801 100.029C111.964 100.097 112.146 100.131 112.347 100.131C112.549 100.131 112.73 100.098 112.893 100.029C113.056 99.9606 113.196 99.8654 113.313 99.7426C113.43 99.6197 113.519 99.4753 113.581 99.3086C113.643 99.1419 113.674 98.9583 113.674 98.7572C113.674 98.5601 113.643 98.3772 113.581 98.2084C113.519 98.0397 113.429 97.8939 113.313 97.771C113.196 97.6482 113.057 97.553 112.893 97.4849C112.73 97.4167 112.549 97.3823 112.347 97.3823C112.146 97.3823 111.964 97.4167 111.801 97.4849C111.639 97.553 111.499 97.6489 111.382 97.771C111.265 97.8939 111.176 98.039 111.114 98.2084C111.051 98.3772 111.02 98.5601 111.02 98.7572Z" fill="black"/>
<path d="M134.579 99.2456C134.579 99.4987 134.541 99.7322 134.464 99.9448C134.388 100.158 134.274 100.342 134.124 100.5C133.973 100.656 133.785 100.779 133.56 100.867C133.335 100.956 133.075 101 132.781 101C132.483 101 132.222 100.956 131.997 100.867C131.772 100.779 131.583 100.657 131.433 100.5C131.282 100.343 131.168 100.158 131.092 99.9448C131.016 99.7322 130.977 99.4987 130.977 99.2456V96.624H131.918V99.2098C131.918 99.3421 131.939 99.4649 131.982 99.5776C132.024 99.6904 132.083 99.7875 132.16 99.8699C132.236 99.9522 132.328 100.016 132.434 100.062C132.541 100.109 132.656 100.132 132.781 100.132C132.906 100.132 133.02 100.109 133.125 100.062C133.23 100.016 133.32 99.9522 133.397 99.8699C133.473 99.7875 133.533 99.6904 133.574 99.5776C133.616 99.4649 133.638 99.3427 133.638 99.2098V96.624H134.579V99.2456V99.2456Z" fill="black"/>
<path d="M151.133 96.624H152.719C152.94 96.624 153.15 96.6443 153.347 96.6841C153.544 96.7239 153.716 96.7934 153.863 96.892C154.009 96.9905 154.126 97.1228 154.213 97.2895C154.299 97.4562 154.342 97.6662 154.342 97.9193C154.342 98.1683 154.302 98.3776 154.221 98.5463C154.141 98.715 154.03 98.85 153.89 98.9499C153.749 99.0505 153.582 99.1214 153.389 99.1639C153.196 99.2057 152.987 99.2273 152.761 99.2273H152.073V100.891H151.132V96.624H151.133ZM152.074 98.4322H152.702C152.786 98.4322 152.868 98.4241 152.946 98.4079C153.025 98.3917 153.095 98.3647 153.157 98.3269C153.219 98.2885 153.27 98.2365 153.308 98.1704C153.346 98.1042 153.365 98.0205 153.365 97.9206C153.365 97.8119 153.34 97.7249 153.29 97.6581C153.239 97.5919 153.175 97.5406 153.096 97.5042C153.018 97.4677 152.931 97.4448 152.834 97.4346C152.738 97.4245 152.645 97.4198 152.557 97.4198H152.074V98.4322V98.4322Z" fill="black"/>
</g>
<defs>
<linearGradient id="paint0_linear" x1="92.0789" y1="81.9996" x2="166.019" y2="81.9996" gradientUnits="userSpaceOnUse">
<stop stop-color="#00BBFF"/>
<stop offset="1" stop-color="#FC0021"/>
</linearGradient>
<clipPath id="clip0">
<rect width="125" height="40" fill="white" transform="translate(48 61)"/>
</clipPath>
</defs>
</svg>
