<svg width="26" height="26" viewBox="0 0 26 26" fill="none" xmlns="http://www.w3.org/2000/svg">
<path fill-rule="evenodd" clip-rule="evenodd" d="M13.7695 1.65699C13.7695 1.21517 13.4113 0.856994 12.9695 0.856994C12.5277 0.856994 12.1695 1.21517 12.1695 1.65699L12.1695 12.1707L1.65578 12.1707C1.21396 12.1707 0.855785 12.5289 0.855785 12.9707C0.855785 13.4125 1.21396 13.7707 1.65578 13.7707L12.1695 13.7707L12.1695 24.2844C12.1695 24.7262 12.5277 25.0844 12.9695 25.0844C13.4113 25.0844 13.7695 24.7262 13.7695 24.2844L13.7695 13.7707H24.2832C24.725 13.7707 25.0832 13.4125 25.0832 12.9707C25.0832 12.5289 24.725 12.1707 24.2832 12.1707H13.7695L13.7695 1.65699Z" fill="#222222"/>
</svg>
